<svg xmlns="http://www.w3.org/2000/svg" xml:space="preserve" width="222.783" height="323.556" viewBox="0 0 167.087 242.667"><path d="M166.837 235.548c0 3.777-3.087 6.869-6.871 6.869H7.11c-3.775 0-6.861-3.092-6.861-6.87V7.12C.25 3.343 3.336.25 7.11.25h152.856c3.784 0 6.87 3.093 6.87 6.87z" style="fill:#fff"/><text xml:space="preserve" x="3.583" y="28.013" style="font-size:32px;font-style:normal;font-weight:400;line-height:125%;letter-spacing:0;word-spacing:0;fill:#000;fill-opacity:1;stroke:none;font-family:Bitstream Vera Sans"><tspan x="3.583" y="28.013" style="font-style:normal;font-variant:normal;font-weight:400;font-stretch:normal;font-family:Arial;-inkscape-font-specification:Arial">J</tspan></text><path d="M7.989 3.103C7.747-.954.242-8.59 0-10.5-.242-8.591-7.747-.955-7.989 3.103c-.169 2.868 1.695 4.057 3.39 4.057 1.835-.022 3.35-2.8 3.873-3.341.242.716-1.603 6.682-2.179 6.682h5.811c-.576 0-2.421-5.966-2.179-6.682.457.496 1.797 3.258 3.874 3.341 1.694-.001 3.557-1.189 3.388-4.057" style="fill:#000" transform="matrix(1.13877 0 0 1.0412 11.176 41.884)"/><text xml:space="preserve" x="-163.598" y="-215.13" style="font-size:32px;font-style:normal;font-weight:400;line-height:125%;letter-spacing:0;word-spacing:0;fill:#000;fill-opacity:1;stroke:none;font-family:Bitstream Vera Sans" transform="scale(-1)"><tspan x="-163.598" y="-215.13" style="font-style:normal;font-variant:normal;font-weight:400;font-stretch:normal;font-family:Arial;-inkscape-font-specification:Arial">J</tspan></text><path d="M7.989 3.103C7.747-.954.242-8.59 0-10.5-.242-8.591-7.747-.955-7.989 3.103c-.169 2.868 1.695 4.057 3.39 4.057 1.835-.022 3.35-2.8 3.873-3.341.242.716-1.603 6.682-2.179 6.682h5.811c-.576 0-2.421-5.966-2.179-6.682.457.496 1.797 3.258 3.874 3.341 1.694-.001 3.557-1.189 3.388-4.057" style="fill:#000" transform="matrix(-1.13877 0 0 -1.0412 156.005 201.259)"/><path d="m30.486 22.317-.039 265.059 164.127.356.098-265.224zm52.128 1.55 74.363.273s-8.52 11.022-10.281 16.039c-1.369 1.756-1.989 1.438-4.246.98-6.045-1.58-16.23-1.551-21.289-1.643-9.551-.426-18.13 2.535-27.695 3.018-3.305-5.526-8.097-12.462-10.852-18.666Zm-50.071.483 47.824.141 11.213 20.46c.406.569.019 1.743-.224 2.403-1.384 3.896-2.607 6.154-5.406 10.798-2.652 4.398-3.603 8.427-2.662 11.134.141.333.263.837.214 1.263-.155 1.35-1.289 2.913-2.832 3.983-1.049.168-3.228.303-4.49 1.55-1.081 1.069-1.967 2.634-1.828 5.494.065 1.023.195 1.672.195 1.672-14.26 5.933-24.479 12.883-24.141 13.138-.134-.062-12.534-5.768-17.696-7.181Zm127.086.361 32.784.029.195 93.551-12.582-8.156c1.032-.719 1.669-1.145 2.754-1.882.193-.058.558-.064.795-.117 2.191-.489 3.719-2.128 2.959-3.827-.516-1.153.189-1.083.824-2.023.715-1.058.566-2.001.112-2.891-.225-.442-.101-.617.278-1.433 1.004-1.245.278-3.351-1.019-4.032-.136-.2.142-.51.205-.799.366-1.687-.306-3.168-1.765-3.544-.751-.194-1.001-.324-.736-.995.47-1.19-.149-1.632-1.126-2.018-1.643-.65-1.178-.754.853-1.667 4.158-1.869 5.137-7.427 2.277-12.47-.364-.641-1.335-2.146-1.994-3.154-.77-1.178-1.516-2.194-1.516-2.194l5.504-7.673s-3.832-4.539-5.197-7.049c.322-1.239 4.158-5.13 4.656-8.907.78-5.922-3.717-9.712-7.971-9.267-2.951.309-6.581 2.196-6.308 7.678.085 1.703.75 3.462 1.955 5.592.842 1.594 1.934 3.28 2.979 4.899l-5.538 7.571 5.596 7.088-.195.307c-.557.886-2.175 3.493-2.876 5.021-2.064 4.081-2.795 8.561 1.443 11.72.741.455 1.313.842 1.628 1.155.416.413.157.726-.512.882-.787.166-1.589.155-2.418.483-2.658.97-5.321 2.534-7.215 4.066-1.063.86-2.777 3.581-3.822 5.792-1.136 2.402-1.453 2.935-1.453 2.935l-19.466-12.46s-.494-.39-.629-.541c-.363-.406-.232-.642.019-1.092.213-.381.221-1.503.127-2.355-.027-1.633-.014-1.64.926-3.139.331-.529.469-1.057.278-1.872-.305-.916-.334-.624.249-1.253.227-.28.501-.418.546-.722.06-.406.022-1.115.029-2.438.014-2.651-.022-2.433 1.467-3.598 1.849-1.447 2.539-2.129 2.832-2.784.421-.938 0-1.646-1.038-3.52-.475-.856-1.209-2.011-1.565-2.657-.665-1.16-1.624-2.688-2.082-4.149-.692-1.122-.587-3.065.054-4.207.804-1.433 1.028-2.299.999-5.197-.026-2.685-.221-2.435.463-3.334 5.114-6.769 13.236-19.354 13.236-19.354zm20.836 9.901.332.01c1.61.077 3.21.594 4.695 2.033 2.02 2.025 1.882 4.943 1.219 7.98-.306.882-.534 1.779-1.155 2.701-.346.513-.629.989-.629 1.053s-.498.865-1.107 1.784c-.595.898-1.277 2.15-1.277 2.15s.951 1.706 2.637 3.841c1.272 1.891 2.097 3.538 2.194 3.442 0 0-.323.817-.765 1.399-1.338 1.757-3.802 5.423-3.9 5.806-.024.092-.278.186-.273.278.018.34.507.744 1.243 1.755 4.446 6.104 5.075 11.257 1.736 14.284-1.661 1.506-3.301 1.978-5.06 1.789-3.223-.346-6.198-3.097-5.85-7.108.157-1.843.061-2.392 1.146-4.534.49-1.206 1.598-3.272 2.335-4.314.644-.748 1.331-1.813 1.331-1.813s-1.582-2.436-4.49-5.86c-.524-.626-.848-1.472-.848-1.472l4.982-7.381s-.579-1.432-1.55-2.881c-1.992-2.971-3.277-6.131-3.265-7.909.03-4.431 2.928-7.027 6.322-7.033zm12.407 105.441c-2.942 1.565-5.806 6.908-.208 3.182l.14 3.072c-2.912 4.132-8.605 1.103-7.157-3.176-3.931.509-4.544-3.481-4.344-5.379-5.17-1.126-3.384-6.602-3.384-6.602-2.987-2.497-3.511-5.113-1.091-7.87-2.446-1.522-3.136-2.496-5.825-3.601 2.061 18.334 11.957 27.857 22.371 36.343 0 0 .231 5.904-.96 4.816-14.871-11.111-24.431-23.817-26.075-44.369-.126.323-7.051-5.36-8.196-5.059-2.4 33.28 24.095 55.156 35.114 59.468 0 0 .156 4.637-.033 4.653-16.699-7.284-35.267-28.663-38.844-54.098l-9.852 15.259-3.69-1.579 15.931-25.101-10.774-6.752-17.54 27.792s-.466 2.317.804 2.282c24.621 2.634 61.238 32.215 48.969 80.359-1.064-.421-2.758-1.245-2.842-1.209 1.924-4.149 7.293-31.027-8.858-52.738-7.399-9.947-18.875-20.533-37.289-23.658 1.522 3.14.858 10.262.858 10.262l4.29.868c-1.448-1.53-2.658-2.791-3.232-4.451-.803-2.586.374-4.117 3.237-2.579 1.137.638 1.423.613 2.53-.21 2.305-1.713 4.936.051 4.329 2.901-.09.421.022.686 1.116.785 2.48.247 4.978 1.476 6.596 3.403.793 1.016.972.865 1.677.254 1.73-1.503 4.597.58 4.085 2.905-.293 1.33-.132 1.648.483 1.906 3.382 1.422 4.212 2.318 5.265 5.28.386 1.085.702 1.441.902 1.38.14-.043.696-.229 1.185-.414 2.525-.956 4.003 2.097 2.213 4.49-.367.49-.095.961.556 1.316 2.101 1.146 3.53 3.885 3.778 6.757.095 1.093.209 1.094 1.302 1.048 2.795-.117 4.126 3.657 1.853 5.046-.792.484-.645 1.108-.029 1.838 1.63 1.933 2.011 3.33 1.867 5.533-.191 2.933-.004 2.876.931 3.232 2.717 1.035 2.21 5.375-.454 5.361 1.918 4.469-.608 9.919-.525 10.02 5.118 2.88.497 5.94-.99 5.402 0 0-.758 2.008.102 3.042-4.49 5.94-10.368 6.926-16.877 9.877l-.205-20.914c2.708 2.18 5.391 4.213 8.073 6.24 0 0 .68-.204.061-.776-1.193-1.103-4.194-3.043-5.033-3.816-1.812-1.375-8.452-7.724-9.633-9.228-.529-1.002-1.328-.422-1.306-.362.794 1.372 1.386 2.971 2.414 4.397 2.221 3.078 4.376 6.5 4.152 9.884-.005 1.895-.758 3.851-1.18 4.802-.312 1.299-2.384-.222-1.862-1.316.921-3 1.684-5.457-1.609-10.277-1.606-2.35-3.685-6.615-3.685-6.615l-1.331.322.049 27.285c-1.116.046-3.947.78-3.364.799 8.822-1.763 11.521 10.86 3.003 11.271-1.618.057-3.291 2.843-3.461 4.353.073 3.665.61 7.531-2.072 11.052-.705.925-1.03 2.394-1.682 3.549-3.275 5.798-4.736 9.121-4.402 10.618.086.385.166.892.166.892-10.429 2.606-18.251 3.275-28.758 3.52-.103-.164 3.527-10.375 6.177-15.61 1.958-3.869 2.967-6.514 2.418-7.313-8.332.418-6.734-11.798 1.238-11.369 0 0 2-7.038 4.236-10.213 2.119-1.18 6.384.427 8.775-1.155 5.633-1.727 9.321 4.933 9.321 4.933l1.516-6.338-49.813-.239s-5.133 1.923-7.756.839c-1.676-.693-3.601-2.658-3.603-2.657 0 0 19.034-30.572 21.83-34.983.227-.358-.496-1.129-.497-1.136-.105-1.001-22.158 33.375-22.069 34.89 0 0-.587.833-1.648.098-12.473-8.607-42.281-27.11-42.281-27.11l-.039-13.709c10.368-6.534 9.428-9.203-.166-2.082-.134.113-.205-5.148-.205-5.148 7.313-6.535 1.232-4.488-.212-2.224.035-1.629-.343-3.841.7-4.815 3.196-2.946 6.962-.241 7.151 4.114 4.169.817 3.652 4.481 4.727 5.953 4.25 2.4 2.012 6.041 3.067 7.278 4.477 2.823 1.354 7.362.407 7.259.564.38 6.129 4.11 6.606 3.973-.483-19.556-22.016-38.225-22.615-37.245l.458-4.217s26.912 17.214 26.676 44.835l8.58 5.099c-.762-28.34-13.418-47.467-35.056-59.636l-.458-5.338c18.164 8.455 35.009 25.565 38.932 53.61l10.057-15.61 3.544 1.716-16.148 25.909 10.083 6.632c7.821-10.297 14.345-22.925 18.32-28.933a22 22 0 0 0-.322-1.336C58.104 169.4 36.446 133.37 46.77 95.724l2.671 1.175c-8.017 27.882 5.057 68.014 46.873 76.221-.083-2.965-.605-10.257-.605-10.257s-5.495-1.652-4.686-.99c1.346 1.15 4.37 6.11 3.092 7.873-.919.129-2.457-.386-4.139-1.619-.635-.465-.652-.366-1.365.395-1.976 2.11-4.849.901-4.875-1.999-.011-1.225-.057-1.484-1.794-1.497-2.634-.019-3.817-.471-5.397-2.584-1.12-1.499-1.017-1.505-2.335-1.053-2.525 1.202-4.541-1.322-3.749-3.403.39-.975-.025-1.287-1.175-1.477-2.237-.37-4.766-3.177-5.231-5.47-.095-.469-.329-.587-1.648-.541-2.586.09-4.018-1.479-2.998-3.676.552-1.188.707-1.667-.327-2.472-1.267-.986-1.982-1.671-2.545-2.866-.446-.948-.512-1.555-.819-3.573-.107-.702-.34-.816-1.258-.936-2.675-.349-3.729-3.086-1.765-4.86.6-.542.598-.529-.312-1.706-1.75-2.265-2.405-5.222-1.643-7.191.206-.533.005-1.185-.619-1.341-2.439-.607-2.481-3.312-.146-4.831.678-.441.712-.733.2-1.623-.898-1.559-.853-5.642.015-7.595.561-1.263.557-1.292-.312-1.848-1.853-1.184-1.324-4.441.868-4.977 1.064-.261 1.135-.399.848-1.692-.511-2.303-.599-2.902.76-3.812 3.738-2.428 13.314-7.069 13.314-7.069l3.164-1.506s.316 19.325.112 21.611c-.123.984.761 1.58 1.789 2.603 2.126 2.09 3.291 4.617 6.128 6.372 0 0 1.768-.983 2.862-1.687l.107-27.539c.224-.625.381-.694 1.107-.78.604-.116 2.12-.285 2.628-.434 1.222-.357 1.414-.851-.19-.687-.483.049-1.208.255-2.018.419-5.014 1.504-8.722-6.303-4.904-10.238.733-.656 3.47-1.799 4.714-1.877.36.003 1.429-1.314 2.16-2.53.734-1.222 1.039-2.13.619-3.354-.884-2.577-.041-6.533 2.603-10.852 2.863-4.077 5.075-8.626 6.235-13.47 10.146-1.223 18.753-3.746 27.924-3.188.358 3.1-10.027 21.374-7.859 22.445 8.171 1.957 5.381 11.646-.829 11.325-.93-.005-1.021.077-1.614 2.135-1.127 3.004-1.855 5.297-3.066 8.092-.004.719-.507.648-3.905.624-3.106-.46-5.248 1.233-7.508 1.331-2.88.131-5.338-1.249-6.338-3.539-.446-1.02-.859-.349-.873 2.072-.01 1.926-.088 3.052-.088 3.052s11.906.035 25.472.058c27.424.047 24.692.468 26.866-.619 1.27-.635 2.108-1.323 4.305.112 3.52 2.299 3.404 1.986 2.379 3.466-6.893 10.222-22.128 34.817-22.128 34.817l1.068 1.043s15.386-24.313 22.396-35.705c.318-.37 1.784.098 1.784.098l41.974 27.3c-.354 4.125.058 13.372.058 13.372-11.798 6.265-8.193 9.457-.071 1.869zm-71.229-98.231s12.176.099 18.281 1.077c5.347.857 5.072.7 5.051 4.582-.015 2.758-.019 2.695-.726 4.017-1.304 2.437-1.082 4.84.98 8.205 2.002 3.266 3.467 5.678 3.466 6.143-.002.721-.123 1.601-1.857 2.813-2.046 1.43-2.436 2.429-2.408 3.881.023 1.175-.2 1.559-.902 1.555-.282-.002-1.276.461-2.345.965-1.88.887-1.883.887-3.637.873-.879-.007-1.305-.339-1.55-.244-.472.22-.901 1.801-.887 2.262.05.163.301.065.819-.112 2.908-.995 7.235-.548 7.356-.112.586.531.588 1.352-.297 2.204-.574.902-.835 1.368-.595 2.764.326 1.897.083 2.649-.887 3.305-2.958 2-6.907 2.252-13.221 1.038-6.655-1.279-11.205-3.817-14.991-8.361-1.691-2.03-2.108-2.741-1.272-2.881 1.032-.16 2.174-.373 3.232-.829 4.676-2.013 4.594-10.577-1.706-11.471-2.57-.091 5.307-12.209 8.097-21.674zm6.007 5.9c-2.262 1.266-3.443 2.811-3.448 3.65-.002.344.075.281 1.155-.429 3.136-2.062 11.395-5.039 14.342-3.32 2.125 1.276 2.95.86 1.72-.856-2.888-4.027-10.679-.729-13.769.955m8.077 1.349a5.4 5.4 0 0 0-1.029.112c-2.18.487-4.579 2.283-6.567 3.866-.98.781-2.367 2.326-2.584 2.73-.491.915.593 1.923 2.067 1.116.858-.469.934-.363 1.76-.249 1.903.574 4.074 1.462 7.429 1.18.312.072.289.145.18.439-.199.537-1.388 1.562-2.94 2.711-.8.592-1.5 1.077-1.555 1.165-.247.395.822.426 1.994-.239 1.663-.943 3.578-3.028 4.748-4.704.112-.16.266-.291.317-.463.114-.388-.586-.228-.96-.332-.161-.045-.128-.451-.171-.639-.111-.491.081-1.305.171-2.004.072-.565.679-1.014 1.077-1.428 1.753-1.823 1.616-2.65-.741-1.248-.397.236-.711.378-1.097.409-3.479.109-5.49-.025-8.39 2.418-1.29 1.039-2.065 1.141-.916.034 1.75-1.418 3.945-3.435 6.372-3.968 1.465-.365 2.859.757 3.5.468.004-.802-1.219-1.387-2.667-1.375zm-.504 5.04c.398.262.79 1.624.753 2.082-.043.533-.96.312-1.087.058l-.497-1.511c-.217-.51.442-.8.831-.63zm-1.772.308c.426.42.524 1.331.765 2.082-.154.542-3.579-.19-4.008-.796.513-.667 2.278-1.466 3.243-1.286m6.006 9.76c-.258-.017-.598.108-.907.424-1.541 1.579-1.045 4.268.809 5.138.904.424 2.272.112 4.285-.507.959-.295 1.654-.43 1.833-.429.787.004 1.215-1.215.663-1.774-.638-.646-2.15-.551-3.778.707-.823.636-1.412.944-2.077.936-1.628-.021-2.419-1.696-.756-3.456.554-.586.356-1.01-.073-1.038zM128.048 75.75c1.92 1.549 5.566.737 8.016-.885 2.19-1.449 3.098-1.877 4.856-1.575 2.154.371 2.074-.476 1.141-1.54-1.058-1.207-3.67-.834-5.855.614-4.845 3.212-6.598 3.749-8.004 2.011-1.511-1.867.288-4.263 2.066-2.955 1.459.993 1.437.246.834-.435-3.514-2.962-6.051 2.347-3.054 4.764zm-17.031 1.523c2.445 3.101 4.786 5.662 8.302 7.551l.039.585-11.368-.024c.794-1.387 3.05-8.02 3.027-8.112m-38.493 8.078c-.241 4.674.598 7.419 3.334 10.686 2.909 3.473 2.693 8.886.822 12.23-.828 1.48-2.513-.34-1.719-1.286 1.129-1.42 1.197-4.887.663-7.054-1.198-3.581-3.916-5.335-5.016-9.121-.371-1.615-.254-4.519-.254-4.519zm3.559.395c.199-.031.516.174.985.58 1.608 1.392 1.334 5.376-.507 7.932-.564.775-1.031.554-1.57-.166-.728-.719-.476-.79.137-2.052.638-1.316.843-2.798.712-4.529-.088-1.166-.047-1.719.244-1.765zm104.281 1.365c1.419-.021 3.193.28 3.354.795.154.626-.183 1.128-.975 1.462-2.077.877-4.821-.35-4.129-1.848.173-.268.899-.397 1.75-.409m-3.598.341c.408-.009.724.091.975.205.681.351-.389 2.747 2.998 2.701.81.119 1.408-.067 1.297.297-.168.552-1.621 1.38-3.198 1.614-4.719.698-4.514.462-4.3 3.798.14 2.177-.002 2.911-.297 4.231-.512 2.289-.715 4.501-.37 3.773.46-.973 1.636-4.045 1.628-5.792-.011-2.576.909-3.086 1.277-1.219.157 1.236-.396 1.933.434 3.193.471.708.685.696.37 1.794-.278.969-.085 1.253.254 1.745.341.495.683.609.395 1.302-.622 1.494.354 2.908 1.77 3.027.654.055.835.34.639.59-.346.431-1.036.636-1.609.76l-14.991-9.579s1.112-2.231 1.443-2.828c2.154-4.722 3.862-6.873 10.159-9.345a3 3 0 0 1 1.126-.268zm7.966 3.1c.413-.016.72.201 1.068.648.92 1.183.117 2.661-2.145 3.934-1.934 1.1-2.496 1.231-2.915-.497-.097-.312-.354-.695-.522-.848-.448-.41-.346-.751.224-1.053.273-.145 1.142-.501 1.838-.96 1.209-.799 1.921-1.204 2.452-1.224m-6.381 3.432c.473.007.962.122 1.321.356.599.39.605 1.37 0 1.76-1.204.491-3.105-.167-2.945-1.272.081-.562.835-.856 1.623-.843zm7.712 1.209c.427-.011.748.188 1.014.6.706 1.09-.123 2.185-2.501 3.349-1.565.766-3.564 1.099-3.432.648.106-.363-.453-2.152-.702-2.438-.096-.303.029-.03 2.004-.653.715-.226 1.58-.598 1.979-.848.679-.425 1.211-.647 1.638-.658M73.602 98.021c-1.1 2.644-1.274 3.811-.751 6.591.436 2.314.941 3.474 3.315 6.893 1.807 2.602 2.386 3.614 1.95 4.436-.307.443-.997.856-1.426.43-.883-1.154-1.413-2.557-2.274-3.843-3.319-4.867-3.549-6.106-3.973-9.95-.194-1.756.816-5.496 1.679-6.055.967-.379 1.779.889 1.48 1.497zm76.674-1.219a.43.43 0 0 0-.244.137c-.451.452-1.741 2.554-1.696 2.871.098.697.669.241 2.164-1.955.359-.528.115-1.096-.224-1.053m28.563 1.194c1.328.04 1.799 1.231 1.204 1.853-.867.906-2.428.222-2.428-1.048 0-.538.251-.816 1.224-.804zm7.366 1.696c.761.033.862.789.458 1.887-.505 1.019-1.114 1.191-2.94 1.76-2.186.681-2.543.582-2.871-1.428-.126-.772-.064-.601 1.95-1.136.864-.23 1.874-.639 2.413-.863.407-.165.736-.23.99-.219zm-129.105.901.537 4.061.873-3.041zm122.003 1.366c1.076.004 1.653.967 1.107 1.545-.304.322-1.079.329-1.453.141-.854-.624-.7-1.691.346-1.687zm-32.858 2.121 2.096 1.292-17.028 26.886-2.052-.044-.195-.429zm38.639.258c1.257-.018 1.366 1.168-.156 2.257-.624.4-1.324.498-1.867.522-.757.034-1.267-.163-1.326-.687-.329-1.284-.516-1.602.653-1.526.233.015.869-.022 1.38-.239.522-.222.964-.322 1.316-.327m-5.207 1.175c.869.005 1.422.947.839 1.409-.721.57-1.618.218-1.614-.643.003-.551.153-.769.775-.765zm-122.528 1.901-4.633 4.104c1.698 2.009 3.123 4.016 4.593 6.123zm93.678.263c2.011-.081 2.67.892 1.716 1.545-1.296.866-2.405.824-3.876.624-1.945-.362-.397-1.919 1.736-2.14zm-2.135 2.925c.406-.011 1.005.103 1.779.366 1.315.446 2.953 1.824 2.876 2.589-.125 1.237-2.454.599-4.329-1.175-1.175-1.111-1.22-1.755-.327-1.779zm-1.779.019c1.14.108 2.278 3.967 1.394 5.153-.866 1.163-2.393-1.34-2.116-3.305.11-.778.306-1.805.609-1.843l.112-.005zm-74.461.848c.642.153 1.465 1.042 1.287 1.716-.13.271-.4.192-.692.122-.528-.223-.936-.959-.834-1.57.05-.165.12-.259.239-.268m86.404.663 3.349 2.272-3.349.132zm-13.879 4.597c2.569.014 3.113.845 1.194 1.857-.797.421-2.739.5-3.744.151-1.594-.553.319-2.021 2.55-2.009zm20.787 1.731.175 2.33-6.45.566-.332-2.428zm-22.298 1.16c.447-.028 1.159.178 2.091.658 1.755.903 2.754 2.417 1.848 2.896-.821.434-2.283-.081-3.315-1.165-1.367-1.435-1.477-2.335-.624-2.389m-2.194.005c1.172.07 2.186 3.282 1.414 4.87-.422.869-.958.679-1.726-.751-.743-1.383-.783-3.823.073-4.09zm-83.887.907-2.819 5.67 5.108 4.459zm109.174 4.368.453 2.243-6.191 1.526-.605-2.442zm-27.037.439c.755.013 1.465.193 1.872.551.565.497.442.72-.892 1.263-2.375.967-5.3.382-3.603-1.063.6-.51 1.652-.768 2.623-.751m40.219-.131c-2.364 1.585-.088 2.457 1.603 1.259-.126-.408-1.107-1.252-1.603-1.259m-41.954 3.178c1.691.055 5.01 2.375 4.3 3.486-.385.608-2.604.089-3.486-.756-1.159-1.11-1.771-2.595-1.131-2.711zm-2.135.107c.873-.163 2.268 3.905 1.214 4.948-.394.39-.504.367-1.165-.219-1.321-1.171-1.094-3.328-.302-4.534q.116-.171.254-.195zm51.97 2.144c-.23-.431-.517-.63-.834-.867-8.22 3.159-6.113 6.168.834.867m-19.478.279.819 2.272-6.235 2.472-.916-2.486zm-106.65 4.3-2.111 5.558c2.295.013 4.365 1.097 6.459 2.062zm108.722 1.633 1.321 2.233-5.865 3.174-1.17-2.355zM33.97 141.197l2.403 1.696-3.53 4.388-.322-.619.039-3.642zm139.449 1.38 1.419 2.047-5.645 3.924-1.385-2.228zm-133.395 2.632 2.594 1.999-4.1 4.948-2.481-1.896zm28.538 1.224-.122 5.952 6.104.234zm70.546 2.683 6.938 3.995-1.045-6.097c-1.812.353-4.138 1.534-5.893 2.102m38.104-1.25 1.619 2.013-5.216 4.383-1.672-2.096zm-131.893 1.765 2.418 2.247-4.261 4.602-2.238-2.111zm136.349 3.266 1.877 1.906-4.753 4.943-1.877-1.906zM50.813 155.32l1.872 2.184-4.865 3.866-1.804-2.194zm28.036.512 1.365 5.83c-.099-.424 6.057-1.739 6.859-1.297zm71.67.493 5.81 6.135.653-5.909zm35.931.965 2.101 1.643-3.9 5.557-2.379-1.867zM55 160.995l1.731 2.501-5.099 3.037-1.448-2.208zm136.953.59.322.322-.005 3.968-1.619 2.379-2.208-1.302zm-32.87 4.457 5.14 9.344 1.449-6.969c-1.901-.028-4.909-1.246-6.589-2.376zm-100.018 1.247 1.224 2.696-5.387 2.457-1.228-2.681zm2.91 6.435.985 2.706-5.728 1.901-.907-2.608zm-25.609 4.9 1.784 1.25c9.293-4.884 6.397-6.327-1.784-1.25m52.524-3.106c.351-.037.756.449 1.082 1.521.493 1.621.232 3.63-.868 3.603-.74-.09-1.016-1.99-1.019-2.54-.009-1.626.353-2.537.804-2.584zm5.094.97 2.213.239-.01.624-17.628 27.987-2.135-1.355zm-9.492.648c.702.006 1.731.49 2.642 1.458.533.578 1.104 1.398 1.243 2.238-.016.277-.488.172-.946.107-1.17-.165-2.893-.976-3.442-1.974-.675-1.227-.294-1.835.502-1.828zm81.041.996 2.351 11.462c.728-2.869 2.266-4.523 3.404-6.776-2.996-1.38-4.226-3.014-5.755-4.686m-101.282 2.319.551 2.964-5.938 1.375-.614-2.876zm22.147 1.029.249.01c2.171.243 2.479.726 1.019 1.706-.885.594-3.281.678-3.676.044-.421-.676 1.147-1.748 2.408-1.76m-43.085 1.74 1.843 1.077c3.157-2.281-.291-2.739-1.843-1.077m39.96.999c.664.008 1.063 1.193 1.297 2.281.226 1.054.304 2.005-.102 2.535-.498.648-.985.763-1.38.122-1.158-1.88-1.121-4.954.185-4.938m-4.894 1.721c.31-.011.7.067 1.155.239 1.541.581 3.583 2.94 2.72 3.266-1.274.481-4.059-.917-4.582-2.33-.264-.712.025-1.151.707-1.175m-12.704 1.901.141 2.93-6.245.254-.185-2.915zm15.298 2.467c.615-.018 1.23.064 1.726.278.894.386.243 1.086-1.292 1.619-1.013.351-2.458.442-2.964.039-1.185-.934.685-1.883 2.53-1.935zm-48.292.341c4.277 2.598 13.094 8.385 13.094 8.385-.419.083-.864.411-1.277.731-.319.262-.664.506-.965.629-.474.194-.91.221-1.306.307-2.757.599-4.107 2.16-3.247 4.1.338.762.426.64-.161 1.282-1.644 1.569-1.443 2.038-.858 4.046.008.284-1.957 2.697-.219 4.514.961.838 1.007.313.658 2.218-.122 1.145.191 2.085 1.857 2.413.927.425.913.277.585 1.063-.225 1.127.097 1.594.887 2.004.718.449 1.009.571.502.965-5.551 2.842-7.258 7.787-2.023 15.073.617.859 2.17 3.283 2.17 3.283-1.765 2.62-3.45 4.777-5.249 7.116l5.239 7.327c-.849 1.33-2.832 4.034-4.052 6.702-1.831 4.007-.622 9.625 4.646 11.305 2.259.72 5.242.136 7.121-2.047 1.525-1.771 2.356-5.291.964-8.955-1.76-4.106-3.871-6.12-4.554-7.288l5.609-7.041s-3.865-5.56-5.406-7.579c10.519-12.876 1.926-16.476.278-17.579-.256-.171-.195-.995-.195-.995 9.448-1.083 12.674-6.274 15.454-12.846 5.636 3.63 13.705 8.511 19.359 12.329.545.506.902.818.819 1.097-.068.228-.287 1.272-.297 2.345.263 1.708.138 2.481-.551 3.135-.648.615-.518.895-.414 1.56.181 1.155.356 1.271-.161 1.853-.636.717-.85 1.053-.731 2.793.07 1.034.202 1.808-.068 2.418-.352.794-1.315 1.196-2.579 2.189-2.212 1.738-1.914 2.268 1.141 8.575 2.603 5.374 2.9 6.603 1.901 8.512-.831 1.588-1.144 2.815-1.043 5.109.026.585.076 1.217.073 1.526-.006.742.004.657-.424 1.121a15.5 15.5 0 0 0-1.228 1.589c-3.632 5.448-13.187 19.31-13.187 19.31l-32.131-.054zm45.06 2.535c.376-.027.831.647 1.345 2.009.297.786.266 2.151-.214 2.676-.957 1.046-2.273-1.404-1.857-3.344.188-.876.434-1.32.726-1.341m90.365-1.473c.005 4.964-.102 11.407-1.811 16.157l1.938.878c-.625-4.876.15-8.88 4.624-10.99-2.035-1.382-3.591-3.716-4.751-6.045m-95.181 3.13c.155-.004.335.034.531.098.725.199 1.608.623 2.145 1.17.919.937 1.868 2.063 1.628 2.169-1.52.667-5.375-1.371-4.87-2.964.111-.337.307-.466.566-.473m-6.757.21.039 2.433-3.734-2.389zm85.278 1.17c.605.053 1.54.844 1.394 1.394-.26.595-.579.54-.996-.085-.52-.78-.731-1.267-.398-1.309m-75.665 3.008c.907-.025 1.689.176 1.774.648-.002.447-.691 1.025-1.54 1.287-2.123.654-3.715.232-3.135-.809.364-.689 1.735-1.095 2.901-1.126m73.944 2.759c-.898 1.609-1.008 6.754.575 8.853 2.46 2.717 4.732 6.255 4.47 10.964l-2.364 1.058c.131-3.872-.024-6.39-3.047-9.73-3.6-3.912-2.753-10.691-1.511-12.684 1.067-1.968 2.602.818 1.877 1.54zm-103.584-2.14c.756-.045 1.681.402 3.354 1.506 4.279 3.029 6.599 4.198 10.842 7.196.62.581.59.498.483.956-1.622 6.208-6.333 11.134-13.314 12.036-.808.104-.391-.401-.877-1.375-.501-1.002-1.425-1.438-2.452-1.448-2.883-.027-.418-1.644 3.1-2.106 1.163-.179 2.565-.337 3.305-1.038.161.076-.611-4.856.18-6.591.404-1.561.022-2.315-.414-1.355-.274.603-.657 2.185-.863 3.807-.174 1.37-.462 1.557-.785.892-.147-.304-.144-1.022.088-1.589l-1.038-3.447c.436-.987-.017-2.076-.566-2.438-.299-.64-.263-1.103-.224-1.55.092-1.047-.605-2.053-1.706-2.491-.487-.246-.341-.512.166-.765.237-.118.469-.185.722-.2zm-3.5 1.77c.277-.005.552.025.814.093.567.345 1.022 2.307.39 2.384-.233.028-.961.117-1.526.283-1.914.562-2.821.487-2.784-.614.038-1.123 1.609-2.119 3.105-2.145zm2.545.2c.753.004 1.361.886.887 1.355-.49.485-1.432.131-1.428-.57.002-.378.173-.787.541-.785m.512 3.057a1.55 1.55 0 0 1 .712.156c.7.324 1.104 1.529.658 1.97-.339.335-1.309.217-1.828-.224-.927-.789-.477-1.865.458-1.901zm-2.374.175c.434.009.746.149.829.449.071.258-.048.496.068.863.183.578.549 1.021.229 1.253-1.468-.088-4.515 1.755-5.397 1.667-.734-.098-.817-.775-.18-1.872.736-1.268 3.15-2.387 4.451-2.36m.887 3.564c.32-.02.374.157.244.624-.092.332-.016 1.123.21 1.633.242.547.681.873.453 1.087-.376.108-1.637.36-2.696.756-1.367.757-5.208 3.036-4.241-.609.308-1.218 1.721-2.063 4.188-2.925.936-.327 1.523-.545 1.843-.566zm2.013.044a1.55 1.55 0 0 1 1.575.98c.891 1.773-1.665 2.027-2.481.551-.484-.874.144-1.475.907-1.531zm.487 4.129c1.328.007 2.358 1.653 1.394 2.277-.714.429-1.6.349-2.418.146-1.23-.54-.662-2.432 1.024-2.423m127.12.034c5.051 2.644 11.921 5.082 18.584 6.893l-.224 65.53-45.323.029-12.47-21.65s-.414-.704-.546-1.014c-.252-.59-.161-1.07.01-1.682.413-1.477 1.664-4.371 2.818-6.425 3.012-5.53 7.29-11.594 4.973-16.907-.265-.607 2.393-3.902 2.393-3.902 4.094.335 7.479-2.335 6.267-8.636 8.546-3.494 15.588-6.335 23.519-12.237zm-129.475.322c.116-.004-.233 1.434.492 2.316.452.694.379.672-1.155 1.277-.574.311-1.149.784-1.472 1.073-2.196 1.96-4.37-.603-2.247-2.662a7.9 7.9 0 0 1 4.353-1.984zm104.426 1.354c.737.131 1.691 1.111 1.385 1.646-1.039 1.741-1.086 2.677-1.179 4.478-.104 2.011.24 2.307-.526 1.96-.5-.234-1.434-.635-1.643-1.146-.483-1.179.752-7.153 1.963-6.938M43.64 219.544c.816-.014 1.672.252 2.155.873.402.517.444.959.044 1.17-.951.502-4.098.241-4.256-.405-.244-.996.865-1.617 2.057-1.638m47.668 1.277c3.844.016 8.33.833 11.802 2.35 4.929 1.859 9.271 6.597 10.252 8.624.298.616-.312.616-.839.673-5.871.97-7.825 8.194-2.871 11.646 1.553.971 2.808.868 2.808.868 1.257-.107-5.584 13.018-8.307 21.197-8.426-.345-14.792.953-23.029-1.882-.886-1.471-.675-4.718-.029-6.396.592-1.523 1.371-2.698.995-4.451-.656-3.053-3.437-7.029-4.368-9.55-.817-1.924-.764-2.642.658-3.744 1.676-1.299 2.089-1.571 2.55-2.228.429-.612.246-.752.254-2.13.009-1.672-.031-1.412 1.35-1.657.482-.086 1.618-.449 2.486-.907 1.801-.949 3.057-.915 4.114-.327.46.124.416-.353.609-.985.084-.275.279-.726.263-.863-.033-.283-.641-.201-1.311-.107-2.687.376-4.805.459-5.894.054-.944-.352-.947-.988-.395-2.043.492-.941.84-.925.639-2.886-.252-2.462.09-2.98 1.238-3.788 1.433-1.008 4.035-1.48 7.025-1.467zm13.894 2.169h12.495c-1.226 1.978-2.59 5.029-3.364 7.922-.113.225-.247.447-.536.156-1.685-2.413-3.604-4.994-8.595-8.078m-10.359 8.799c-1.493.043-3.361.761-5.709 2.106-1.595.914-2.898 1.482-4.592 1.17-.968-.178-1.092-.041-1.219.273-.57 1.414 1.545 2.93 3.681 1.935.621-.26 5.382-2.729 5.645-2.94.286-.23 2.258-.811 2.779-.804 1.575.02 2.547 1.258 2.355 2.686-.257 1.908-2.963 2.004-3.139.307-.136-1.306-.681-.726-.731-.083-.003.548.411 1.799.863 2.082 2.286 1.428 5.3-1.351 3.856-4.212-.884-1.751-2.096-2.569-3.788-2.52zm-10.253 6.65c-1.55.295-2.559.899-4.23 1.037-1.379.305-1.277 1.403-.414 1.974.662.439 1.497.174 3.91-1.36 2.37-1.507 4.402 1.632 2.506 3.239-1.193 1.012-.374 1.278.443.668 2.099-1.566.895-6.15-2.214-5.558zm7.338 8.077c-.182-.013-.469.053-.853.229-1.776.813-3.142 1.67-3.993 2.813-.146.248-.066.667-.137.995-.055.258-.261.585-.224.76.032.152.533.315.609.458.309.581.11 2.06-.068 3.13-.085.512-.846.671-1.151.98-1.001 1.017-.749 1.328.317.931.745-.277.429-.791 2.272-.434 2.387.463 4.279-.185 6.157-1.228 2.086-1.158 2.84-1.801 2.925-1.662.139.228.029.348-1.458 1.584-3.727 3.098-6.499 3.817-8.59 2.657-.626-.426-1.127-.599-.653.312.061.1.567.493.921.653 2.148.969 4.841.149 8.268-2.559.752-.595 1.417-1.261 2.286-1.989 2.844-2.38 2.096-3.469-1.116-2.311-1.013.365-1.298-.029-2.667-.561-1.839-.714-2.442-.782-4.558-.819-1.842-.032-2.117.14-2.116-.171.002-.394 1.24-1.787 2.632-2.394 1.358-.592 1.739-1.337 1.194-1.375zm3.388 5.874c.343.347-.149.568-1.477 1.199-.752.357-1.444.65-1.54.648-.118.214-1.371-2.611-1.029-2.749.146-.059 3.214.201 4.046.902m-4.821-.297c.308.641.543 1.311.663 1.93.028.19.164.465-.137.463-.236.034-.625.054-.765-.166-.3-.472-.634-2.077-.522-2.389.231-.313.637-.094.76.161zm10.93 5.08c-.111.002-.32.084-.648.278-5.286 3.122-11.626 4.748-15.702 3.208-1.375-.52-1.626-.336-1.126.605.347.653 1.035 1.418 2.082 1.706 3.33.916 8.694-.418 12.821-3.125 1.68-1.102 3.056-2.675 2.574-2.671zm31.112 8.366s9.342 19.257 11.159 20.163l-76.011-.137 12.807-18.306c.113 1.018 30.891 5.245 52.045-1.721z" style="fill:#131f67" transform="matrix(.7547 0 0 .75972 -1.49 3.286)"/><path d="m67.449 286.086 12.326-18.098c18.149 3.501 34.49 1.721 52.394-1.424l11.864 20.133zm96.457-67.311-.05-10.765 3.746 1.404c-1.288-5.01 2.013-10.233 5.005-10.433-9.542-7.24-1.579-14.934-1.743-15.099-10.444-5.426-5.174-13.7-5.898-14.445-12.734-3.338-7.731-13.44-8.697-12.399-7.424 2.211-11.493-4.017-11.604-9.072-6.429 3.621-16.333-1.561-13.21-7.345 0 0 3.396 1.623 3.998 1.299 5.251-3.796 4.826 1.672 5.912 2.863 3.91-.556 6.21 2.443 7.18 3.899 5.766.021 5.533-1.362 5.568 4.23 4.341 1.115 4.162 3.464 6.67 6.68 5.476.075 4.55 1.855 3.302 4.883 3.939 3.153 4.252 5.615 4.895 8.474 4.302 1.573 5.073 2.21 2.253 5.833 3.785 5.708 1.947 9.003 2.524 9.316 4.729 3.432 2.358 4.663.285 5.971.707 4.545 1.28 5.215-.403 9.836 5.437 3.881-.88 5.607-1.201 5.526l-.026 3.83zM32.081 190.352l-.074-13.338 46.098 29.965-5.86 9.143zm61.294 19.796 10.976-22.824-3.854-24.938 31.282.768c3.495 8.005 5.598 14.809 14.574 28.066l-9.529 2.941.288 16.021zm26.771-5.938c-.317-.662-.494-1.114-.433-1.409.118-.38.409-.362.781-.156 1.328.649 2.656 1.209 3.639-.01.492-.638.367-1.549-.048-2.077-.746-1.529-3.108-.43-3.902-.378-.737.014-1.019-.606-.411-1.486.362-.383.589-.806.65-1.305.423-3.492-5.534-2.266-3.477 1.127.936 1.258.386 2.01-.991 1.213-1.515-.877-3.629-.069-3.564 1.768.049 1.391 1.794 2.256 3.266 1.42.34-.193.605-.402.846-.506.684-.295 1.174-.049.945.72-.614.96-1.335 2.34-.737 3.249.597 1.327 2.668 1.209 3.381.387.491-.566.63-1.489.056-2.556zm72.355-69.856-46.188-30.113 1.607-2.531c2.075-1.15 2.932-2.587 2.867-4.593l1.264-2.766 40.535 26.166zm-72.313-10.333 4.673 24.223-32.303.373c-1.753-8.134-12.797-26.563-12.769-26.24l8.67-21.144 42.865.065zm-12.097-9.047c.82-.747.768-1.892-.131-3.182-.871-1.25-.479-2.148.919-1.3.775.522 2.005.634 2.838.372 1.057-.357 1.497-1.199 1.344-2.264-.185-1.288-1.612-1.645-3.138-1.087-.44.092-.71.451-1.091.621-.823.36-1.147-.63-.392-1.909.838-1.418-.024-2.943-1.556-3.082-1.638-.148-2.618 1.713-1.953 2.737.955 1.47.258 2.49-1.115 1.505-1.976-1.418-4.564.366-3.499 2.469.517 1.02 2.216 1.292 3.741.651 1.275-.536 1.652.086.876 1.388-1.593 2.677 1.005 5.041 3.156 3.08zM61.289 91.076l-.377 12.9c-4.824-2.969-4.106-3.004-4.284-2.959 1.411 3.882-.261 8.669-4.367 11.013 7.368 6.95 3.364 11.811 2.142 15.098 9.422 5.505 4.609 14.959 4.648 14.469 9.304.078 9.094 8.213 9.353 11.608 11.507-.691 9.94 8.497 11.455 9.292 5.583-2.481 12.095-1.607 13.802 5.893 1.107 4.256-2.983.146-4.77.321-6.37 3.943-5.13-2.097-5.486-2.94-5.268.486-5.97-2.028-8.272-3.815-5.691 1.079-5.218-.791-4.873-4.245-4.46-.916-5.423-3.704-7.194-6.434-6.162.182-3.637-4.163-3.611-5.018-.746-.671-4.275-4.163-4.438-8.149-6.32-1.805-2.34-4.985-2.109-6.079-2.384-2.988-3.007-5.189-2.196-8.942-5.608-2.641-.912-5.082-.51-6.573-1.818-4.898-.48-6.359.25-9.005-3.602-4.246-1.443-4.005 1.208-6.568.336-.463-.582-2.593-.527-3.844zM93.861 43.35 83.784 25.196l72.327.196s-7.901 10.886-10.968 16.366c-18.029-2.896-34.912-1.59-51.282 1.592" style="fill:#d40000" transform="matrix(.7547 0 0 .75972 -1.49 3.286)"/><path d="M42.752 274.246c-6.339-1.458-7.395-9.435-1.422-16.05.483-.535.813-1.364.813-1.364s-1.055-1.746-3.824-5.602c-.515-.717-1.265-1.867-1.265-1.867 1.527-2.191 3.13-4.005 4.84-6.381.229-.321.653-.68.595-.976-.083-.422-.7-.844-1.436-1.935-4.278-6.339-4.745-8.849-2.555-12.606 2.059-3.532 6.957-3.927 9.928-.801 3.211 3.379 3.054 6.44-1.146 12.662a35 35 0 0 0-1.588 2.599s-.039.434 1.47 2.393a94 94 0 0 1 3.629 5.051s-.96 1.217-1.867 2.278c-2.433 2.842-3.529 4.804-3.529 4.804s.163.569.525.98c6.627 7.549 6.079 16.198-1.439 16.913-.386.037-1.326-.023-1.728-.098zm53.724-95.968c-.174-.286-24.023 38.078-24.023 38.078l2.706 1.746 22.811-35.461c.342.261.677.572.606 1.004 0 0-18.792 30.438-21.921 35.302-.084.131 4.631 2.941 4.789 2.949 6.967-3.41 35.979-.363 55.252-1.491.076.059-.314 6.769-.314 6.769s-4.38-5.094-5.268-5.128c-4.38-.165-8.993 1.689-12.293 1.47-2.109.639-4.537 8.315-5.015 10.24-3.834-.456-7.549 3.547-6.673 7.286 1.243 4.155 3.397 3.849 5.728 3.923-.229 4.7-8.562 17.067-8.613 23.171 8.778-.67 18.275-.804 27.336-3.51 0 0 3.427-9.77 7.735-16.204 1.422-2.462 2.111-6.162 1.543-8.496-.357-2.556.746-3.198 1.735-4.984.602-1.116 2.814-1.064 3.097-1.145 5.763-1.652 3.726-9.105 1.279-10.435-3.052-1.66-7.38.888-9.032-2.467-1.748-3.55-1.159-10.881-1.159-10.881l-43.476.09s12.347-23.31 12.036-23.482c-3.354-1.853-8.823-8.277-8.863-8.344zM67.34 199.447c.209-2.36.691-40.721-35.506-59.889l.206-5.042c.223-.259 32.934 14.872 38.446 53.963l10.149-15.812 3.714 1.469c-5.515 8.24-16.496 28.245-17.009 25.311m-21.974-13.879c1.505-4.425-.951-2.082-3.183-2.27-1.524-.835-3.02-1.912-4.435-2.849 10.608-5.584 4.299-5.33-1.883-1.405-1.598-.872-3.616-2.778-3.744-2.617 11.974-7.658 7.491-7.824-.174-2.278.278-5.22.086-3.261.193-5.016 6.54-6.97.456-3.19.008-3.107-1.586-6.976 6.088-5.496 6.777-.223 1.348 1.008 4.002 2.259 4.772 6.585 3.681 2.358 3.289 4.302 3.11 7.114 1.438 1.429 5.152 4.446.803 7.211zm-13.663-31.847.255-3.856c.504-1.571 28.405 18.449 26.321 44.072.33-.179-3.089-1.798-4.069-2.681.066-18.859-22.073-38.471-22.508-37.536zm160.278 22.068c-18.63-8.6-36.286-29.134-37.144-55.782l-10.583 17.618-3.735-1.594c.348.29 8.371-14.506 16.618-24.725 2.227 33.626 15.369 49.295 35.311 60.705zm-97.65-12.557c-18.067-2.292-44.134-26.971-36.234-60.307 1.117-3.385 18.497 15.43 18.498 15.429.112-.851 15.615 24.277 15.165 29.176 13.132 3.78 38.794.299 38.794.299 21.316 4.822 43.556 27.894 35.416 60.577 0 0-5.659-3.739-10.386-8.084-14.357-13.954-18.894-25.401-23.961-38.028-18.426-1.719-35.713 1.541-37.292.938m97.933-27.517c.31 1.662.097 5.104.159 5.097-4.818 5.218-5.316 5.312.71 3.647-.76 5.014-4.47 5.828-6.668 4.115-.81-.631-.808-4.088-.808-4.088-3.65-.925-4.9-2.027-4.372-5.954-4.205-.514-4.034-2.561-3.677-6.834-3.824-2.165-2.861-5.592-.591-7.05l1.891 1.31c-.609.542-.322 3.948 3.042 1.424 0 0 2.678 2.236 3.966 3.105-9.729 6.219-3.838 4.862 2.156.776 1.12.769 2.65 2.025 3.446 2.568-7.897 5.631-10.496 10.349.747 1.886zm.414 21.236-.333 4.501c-19.144-11.785-24.293-27.272-25.674-43.755 0 0 2.569 1.902 3.744 2.692 1.654 21.264 21.082 35.672 22.263 36.562M87.774 100.88l45.984.418-12.259 23.293 6.417 7.623s16.042-24.854 24.109-37.873l-2.774-1.669-23.024 35.971-.908-1.013 22.699-35.943c-1.353-.892-3.914-2.323-3.914-2.323s-39.163.523-56.185.408c.558-2.349.689-6.513.689-6.513 2.5 3.611 5.181 6.837 11.043 3.311 0 0 6.922.253 7.177-.076.85-1.368 2.363-5.672 4.126-10.532 6.679-.429 6.022-3.659 6.785-4.716-.486-9.492-5.822-4.396-5.354-7.845 1.521-6.144 9.247-20.042 8.28-21.264-1.981-1.322-21.659 2.498-27.385 3.188-.529-.205-3.348 8.922-6.306 12.82-3.218 4.24-4.373 8.793-2.748 13.094-1.71 4.72-4.959 4.227-7.575 5.557-2.97 3.201-2.167 8.117.651 10.025 1.963 1.329 4.981 1.268 8.063-1.221zm91.469-32.747-5.361-7.242 5.236-7.587c-2.05-3.27-5.431-8.275-4.812-12.234 1.35-7.849 11.938-6.668 12.839.846.492 3.488-2.06 7.756-4.651 11.388 1.695 3.11 2.426 3.619 4.893 7.186-1.479 2.594-5.075 7.668-5.075 7.668 2.224 3.765 5.321 7.917 5.086 11.74-.245 3.283-3.832 6.601-7.17 5.893-10.379-2.203-4.549-13.294-.986-17.658z" style="fill:#e2cf00" transform="matrix(.7547 0 0 .75972 -1.49 3.286)"/><path d="M60.45 21.262c2.152 4.069 8.264 15.048 8.264 15.048 14.533-3.035 26.755-3.807 39.6-.974l9.175-14.007Zm1.896.826h2.627l5.154 10.678 8.893-1.79-1.516-8.866 2.516.014 1.273 8.526 13.065-.334 1.693-8.229 2.41.03-1.73 8.363 10.347 1.404 5.063-9.796h3.476l-7.696 12.096c-13.693-2.686-27.295-1.784-38.68 1.037zm4.956 0h7.67l1.84 7.207c-.941.496-4.459 1.342-5.636 1.223-1.406-2.479-2.857-6.062-3.873-8.43zm14.794 0h11.673l-.997 6.137-9.79.314zm18.506 0h8.995l-3.55 7.452-6.784-.93zm34.25 7.459a7 7 0 0 0-1.458.136c-2.334.493-3.556 2.298-3.577 5.245-.009 1.35.98 3.738 2.484 5.996a20 20 0 0 1 1.222 2.115l-3.915 5.793 4.165 5.478s-.648.765-1.033 1.315c-1.91 2.72-2.794 5.262-2.671 7.348.132 2.252 1.437 3.971 3.881 4.796 1.342.452 3.254-.101 4.54-1.274 1.038-.947 1.56-2.178 1.582-3.623.032-2.064-.958-4.564-2.932-7.292-.536-.74-.798-1.322-.798-1.322s2.762-3.96 3.804-5.77l-3.775-5.46c3.002-4.54 3.607-5.546 3.69-8.337-.135-2.765-2.128-5.127-5.21-5.144zm-.376.333q.195-.005.39.012c3.428.265 5.238 2.83 4.784 6.121-.466 3.14-3.277 6.064-3.727 7.074 1.352 2.212 3.9 5.355 3.9 5.355-1.081 1.98-3.874 5.815-3.874 5.815s.161.318.34.57c2.915 4.16 3.717 6.126 3.516 8.619-.158 1.967-1.7 3.721-3.624 4.077-3.047.565-5.546-1.612-5.854-4.551-.187-2.573 1.46-5.074 2.742-7.026.542-.817 1.008-1.6 1.008-1.6l-4.15-5.485s.297-.472.489-.752a88 88 0 0 1 2.156-3.019c.873-1.143 1.39-1.933 1.39-1.933s-.617-1.002-1.19-1.915c-2.277-3.619-2.912-5.473-2.562-7.474.43-2.46 2.325-3.856 4.268-3.889zm.309 1.855c-1.267.035-2.476.974-2.959 2.333-.696 2.55 1.97 6.409 3.183 7.445 2.273-2.63 3.72-5.582 2.88-7.648-.552-1.25-1.839-2.164-3.104-2.13m.312.826c2.295.048 3.154 2.79 1.384 5.91-.612 1.066-1.513 2.178-1.513 2.178s-.84-1.055-1.346-1.852c-2.052-3.233-1.522-5.756.997-6.208a3 3 0 0 1 .478-.03zM89.42 33.987c-6.008.032-14.037 1.04-21.093 2.652-.612 3.81-2.512 7.631-4.584 10.666-1.995 3.281-2.716 6.139-2.049 8.096.625 1.833-1.08 4.57-2.954 4.74-2.329.214-3.81 1.847-3.782 4.171-.067 3.724 2.487 6.007 5.953 4.74a.75.75 0 0 1 .581.186l-.202 21.315c-1.951.308-3.253.735-4.912 1.622l-.699-.756c-.384-.416-.87-.948-1.081-1.186a5 5 0 0 0-.85-.733 3 3 0 0 1-.769-.788c-.408-.66-2.143-2.338-3.09-2.989-.162-.11-.57-.46-.91-.774l-.617-.57.003-7.078c.003-3.893-.037-7.119-.088-7.17s-.843.288-1.762.756c-3.159 1.39-6.176 3.31-8.492 4.866-1.026.692-1.128 1.076-.743 2.826.216.982.163 1.088-.64 1.286-1.654.407-2.172 3.06-.773 3.959.656.421.659.444.235 1.404-.654 1.484-.63 4.322.048 5.507.387.676.36.894-.151 1.23-1.762 1.154-1.642 3.624.198 4.085.471.118.594.321.438.726-.575 1.495-.051 3.768 1.27 5.49.685.894.684.883.231 1.295-1.482 1.349-.68 3.765 1.339 4.03.693.09.696.092.777.626.231 1.533.336 1.96.673 2.681.425.908.935 1.521 1.891 2.27.78.611.78.62.365 1.523-.77 1.668.454 3.324 2.406 3.255.994-.035.995-.037 1.067.319.35 1.742 2.407 3.785 4.095 4.066.868.145 1.004.353.71 1.093-.474 1.192-.167 1.96 1.03 2.578.803.414 1.037.43 1.917.126.995-.344 1.005-.34 1.85.8 1.192 1.605 1.983 2.008 3.97 2.022 1.311.01 1.36.043 1.369.974.02 2.203 2.335 3.122 3.826 1.519.538-.578.537-.575 1.015-.222 2.098 1.547 3.96 1.947 3.786.5-.406-3.389-2.841-5.456-2.841-5.456l3.043.8c.134 3.578.26 7.891 1 10.874l-13.56 21.744s-.823-.506-1.69-1.108a119 119 0 0 0-3.793-2.53c-.49-.309-1.115-.686-1.607-1.104-.473-.395.291-.918.453-1.337 3.123-5.612 8.01-12.36 11.567-18.917l-3.444-1.341c-2.634 4.175-4.575 7.535-7.027 11.385-2.443-18.04-14.95-33.877-30.081-40.547l.051 4.723c15.885 8.18 27.223 25.061 26.92 44.972-.061.076-1.33-.689-3.042-1.837-.904-.605-2.721-1.802-2.947-1.918.735-22.05-20.99-35.09-21.027-34.474l-.199 4.17c9.257 6.244 16.53 17.603 17.266 27.711.009.083-4.344-2.733-4.344-2.733 2.59-1.299 1.877-4.663.01-5.574-.583-.264-.617-.392-.327-1.185.597-1.63-.498-4.082-2.005-4.493-.661-.18-.77-.354-.802-1.288-.06-1.708-.998-2.825-2.69-3.2-.467-.103-.47-.108-.497-.696-.142-3.309-3.357-4.656-5.769-2.418-.269.25-.551.726-.551.726l-.018 3.59c.823-.457 2.073-2.016 2.586-1.953.567.067.292.45-.983 1.56a63 63 0 0 0-1.63 1.477l.052 4.726c1.373-.898 2.748-1.912 4.036-2.815 1.11-.778 1.677-1.032 1.813-.807.153.253-.094.583-.724.963-1.692 1.134-3.66 2.465-5.08 3.585l-.005 3.256.273.403.08 2.852-.253.063.004 3.593 33.41 21.484 17.002-27 .28.286-17.006 26.885s.7.605 1.362.955c.674.381 1.518.888 2.24 1.37.34.562.936 1.057 1.575.986.586-.643 3.14-1.323 3.385-1.62 9.513-.14 36.818.046 36.818.046l.155 4.397c-1.228-4.263-5.186-5.143-8.297-3.234l-5.11.008c-.04 0-3.024 5.475-3.462 8.333-2.148-.294-5.006 1.814-5.15 3.952-.349 3.043 1.638 5.262 4.234 4.83.047.019-.408 3.015-1.876 5.355-1.949 4.131-2.953 6.442-4.143 9.967-.805 2.214-.53 2.608-.394 2.662 7.624-.11 14.638-.853 21.873-3.203 0 0-.133-.52-.198-.812-.261-1.179.723-3.592 3.506-8.577 2.15-3.85 2.765-5.32 2.98-7.137.11-.92.09-1.157-.228-2.874-.02-.16-.144-.39-.11-.563.226-1.155 1.972-3.186 2.013-3.136 0 0 .634-.119.887-.141 3.942-.279 5.163-5.671 1.836-8.103-1.621-1-2.576-1.076-4.293-.622l-.03-20.915 2.396.09 2.634-1.308c4.231 3.637 6.991 7.355 11.546 10.155l-.074.185-3.385-2.336.007 13.703c3.919-2.053 7.57-3.946 11.093-6.818l-.71-.619.03-1.959c3.31.263 3.628-3.979.908-4.485 0 0 .063-.342.324-.882.835-1.723.939-3.348.331-5.14-.37-1.094-.355-1.369.085-1.366 2.01.01 1.825-3.581-.224-4.367-.706-.27-.656-.046-.512-2.274.109-1.674-.298-2.809-1.527-4.278-.464-.555-.425-.821.173-1.19 1.716-1.054.472-4.098-1.637-4.01-.824.035-.823.033-.894-.797-.188-2.181-1.399-4.262-2.985-5.133-.49-.27-.563-.49-.286-.863 1.35-1.818.087-4.304-1.818-3.577-.369.14-.759.281-.865.314-.15.047-.271-.165-.563-.99-.792-2.243-1.495-2.946-4.018-4.014-.495-.21-.525-.358-.301-1.381.386-1.767-2.031-3.412-3.338-2.27-.532.465-.55.46-1.148-.311-1.192-1.381-3.133-2.344-4.86-2.526-.826-.075-.95-.14-.883-.46.458-2.165-1.634-3.575-3.374-2.274-.835.626-1.05.645-1.909.16-1.803-1.019-2.594-1.057-2.781-.137-.058.766.11 1.673.294 2.238.44 1.52 1.008 2.085 2.252 3.155 0 0-2.065-.576-2.587-.681.051-.055-.15-7.217-1.505-11.273l13.205-21.156 7.564 5.023-12.097 19.263 3.52 1.44s4.702-7.863 7.164-11.719c1.612 19.147 16.316 35.936 29.636 40.918-.045.023.043-2.753.1-4.097-14.054-6.228-27.421-23.634-26.579-44.524l5.644 3.637c1.638 16.743 8.884 26.555 20.96 34.85v-5.129c-8.316-6.196-15.227-14.29-17.06-27.24 0 0 2.82 1.794 4.084 2.644 0 0-.357.206-.541.36-1.509 1.264-1.055 3.858.934 5.325.323.239.326.24.022 1.056-.604 1.62.327 3.579 1.898 3.988.902.236.896.224.913 1.263.031 2.017.839 2.947 2.98 3.43.293.065.303.096.298.999-.012 2.23 2.116 3.73 3.97 2.796.58-.292 2.406-1.829 2.406-1.829v-3.589s-.827.68-1.424 1.24c-1.046.982-1.375 1.103-1.372.504.002-.434.483-1.004 1.486-1.755.52-.39 1.31-1.223 1.31-1.223v-4.181s-.466-.745-.437-1.637c.016-.486.15-1.223.15-1.223l.501.012-.007-4.841-.607-.478.025-3.208L111.2 72.424 93.99 99.971l-.43-.507 17.226-27.373-4.576-2.945-2.763 1.37s-19.122-.303-37.771-.062c0 0-.045-.519-.037-1.982.01-1.84.094-2.097.43-1.322.755 1.74 2.628 2.79 4.802 2.689 1.227-.056 1.398-.107 2.763-.848.507-.276.599-.284 2.99-.267 2.564.019 3.025-.076 3.028-.622.893-2.044 1.772-4.416 2.281-6.2.245-.864.355-1.246.556-1.422.155-.137.278-.106.65-.13 1.642-.106 2.098-.213 3.28-1.374 2.368-2.396 1.01-7.27-2.422-7.289-.908-.005-.287-2.44 1.633-6.388 1.988-4.086 2.266-4.713 3.293-7.452.672-1.791.993-3.074 1.074-3.856h-.577zm-.18 1.182c.475.4-.713 3.352-2.852 7.818-1.766 3.687-2.556 5.53-2.932 6.866l-.345 1.233c-.116.412-.268.615-.674.907-.288.208-.69.513-.894.678-.579.467-.715.319-.573-.622.263-1.746.95-3.63 2.538-6.908 1.259-2.608 2.49-5.404 3.448-8.255.215-.665.315-1.342.673-1.588.515-.29 1.059-.234 1.611-.13zm-2.576.17c.327.228-1.226 4.27-3.915 9.881-3.355 7.002-3.533 11.907-.515 13.108 2.38.946 4.776-1.694 3.308-3.619-.705-.925-2.228-1.003-2.755-.044-.288.524.112 1.127.622.393.742-1.068 2.228.165 1.87 1.43-.247.867-1.454 1.565-2.2 1.414-3.297-.662-2.676-5.342.743-5.6 3.271-.246 4.759 4.177 2.384 6.708-.753.82-1.636 1.228-3.172 1.226-2.13-.003-4.12-1.773-3.918-3.415.282-1.503.325-2.717-.18-3.9-.163-.38-.36-.758-.35-1.236.03-1.331 1.119-3.397 3.547-8.5.87-1.829 1.937-4.998 2.464-7 .187-.585.095-.75.314-.83.543-.12 1.318-.285 1.754-.014zm-2.808.07c.498.022-.648 3.704-2.093 6.84-1.098 2.403-2.595 5.488-3.709 8.342-.357.605-.595.652-1.324.259-.805-.433-.566-1.121 1.332-4.922 1.431-2.887 2.806-6.153 3.771-9.44.087-.396.22-.737.545-.927.495-.218.978-.174 1.48-.152zm-2.67.415c.265.353-1.475 5.317-4.166 10.915-.575 1.188-.964 2.275-1.542 3.489-.277.28-1.348.424-1.883.533-.553-.074-.03-1.118 1.544-4.322 1.283-2.612 1.648-3.351 2.322-4.94.491-1.164 1.206-3.163 1.876-5.03.054-.15.106-.485.25-.563.5-.212 1.109-.298 1.598-.081zm-2.628.31c.044.12-.056.366-.092.556-.423 1.998-1.39 3.857-2.097 5.767-.085.26-.859 1.885-1.722 3.61-.862 1.726-1.654 3.373-1.758 3.663s-.392 1.06-.636 1.71c-1.549 3.345.117 5.98 2.167 6.164 3.199.267 3.501-4.247 1.244-4.682-.851-.144-1.787.326-1.792 1.312-.06.515.57 1.113.56.373-.033-1.346 1.833-1.284 2.064-.14.448 2.226-2.065 3.314-3.563 1.566-.616-.72-.61-1.542-.496-2.278.31-1.992 2.592-3.433 4.705-1.93 2.892 2.058 1.895 6.608-1.843 7.348-1.277.335-2.888-.093-3.896-1.137-.642-.665-1.063-1.644-1.225-2.86-.09-.676-.125-1.473-.022-2.218.303-2.336 1.996-5.748 3.48-8.636 1.147-2.397 2.048-5.564 3.091-8.111.295-.217 1.877-.418 1.833-.078zm-2.822.32c.17.052-.703 2.82-1.95 5.81-1.371 3.034-3.151 6.504-4.161 9.49-.318.732-.55.71-1.454-.138-.477-.447-.208-1.113 1.464-4.551 2.574-5.288 3.53-7.544 3.915-8.804.181-.591.328-1.318.714-1.548.494-.235.981-.408 1.472-.259m-2.572.662c-.272.89-1.163 3.53-2.69 6.656-.956 1.973-1.89 4.159-2.836 6.196-.528 1.256-.543 1.256-1.443 1.444-1.516.318-1.516.302-.176-2.433.398-.813 1.164-2.305 1.703-3.315.995-1.86 2.533-5.483 3.09-7.289.15-.484.358-.937.6-1.185.156-.083 1.35-.442 1.752-.074m-3.314.334c.27-.01.514.039.63.19.066.62-1.6 4.592-2.624 6.432-.313.565-.624 1.296-.975 1.948-1.305 2.09-2.874 6.107-3.279 7.774-.642 2.649 2.365 4.651 3.925 2.726.99-1.166-.04-3.263-1.467-2.678-.498.205-.295.429.386.487 1.123.095 1.208 1.837.018 2.22-1.323.408-2.297-.747-2.293-1.93.01-2.424 2.646-3.316 4.295-1.99 1.646 1.379 1.908 4.658-.585 5.928-2.429 1.24-5.421-.44-6.022-3.378-.459-2.241.038-4.296 2.182-7.75 1.231-1.99 3.145-5.425 4.124-8.438.192-.51.362-.933.538-1.147.163-.19.695-.377 1.147-.393zm65.14 7.055-3.263 4.177c.94 1.37 3.179 4.063 3.179 4.063L138 48.723zm.03 2.337 1.35 1.763-1.545 1.837-1.45-1.715zm.121 9.081s-3.946 4.353-3.04 7.581c.81 2.877 5.11 3.576 6.156-.633.074-.335.016-.789-.03-1.352-.09-1.714-3.086-5.596-3.086-5.596m0 .86s1.133 1.653 1.931 3.118c.894 1.393 1.129 5.288-2.046 5.167-1.72.178-3.363-2.105-1.994-4.896.372-.85 2.108-3.39 2.108-3.39zm-65.121.7c.22-.035.439.441.577.788.188.47-.35 1.828-.916 2.504-.108.114-.833.176-1.91.73-.003-.51.305-1.623.508-2.116.734-.73 1.358-1.6 1.648-1.859zm-7.863.244c.484.552.961 1.031.942 1.374-.029.5-.614 1.12-1.056 1.559-.555.552-1.663.224-1.66-.492.002-.265 1.584-2.442 1.774-2.441m16.7.718c.469.253.944 1.114 1.005 1.504-.687 3.722-3.228 8.27-3.142 8.1 0 0-1.558.28-2.219-.06 1.712-2.39 2.857-5.433 3.635-7.925.333-1.074.485-1.615.721-1.618zm-1.442.522c.262-.015.363.198.143.775-1.006 4.115-3.267 8.442-5.044 9.23-2.334 1.033-4.654.175-5.651-1.593-1.08-1.914-.888-4.935 2.707-5.596 2.115-.218 4.282 1.46 3.154 4.16-1.256 2.001-4.632.886-3.643-1.697.748-.947 2.314-.125 1.803.944-.26.543-.008.877.375.5 1.231-1.206-.793-3.277-2.16-2.24-2.227 1.69.524 5.404 3.117 3.81.79-.485 2.22-3.21 2.755-5.196.231-.855.44-1.666.986-2.185.52-.494 1.12-.892 1.457-.91zm-5.905.163c.127.005.277.068.482.17.26.13.566.364.53.666-.04.35-.24 1.113-.64 1.482-.241-.084-.907-.351-1.361-.474-.286-.078.094-.695.268-1.037.281-.551.437-.782.666-.804zm-7.347.14c.336-.006.867.369 1.218.42.067.51-.578 1.604-1.63 2.895-.863 1.06-.858 1.061-1.431-.104-.374-.759-.383-.738.68-2.07.573-.717.848-1.045 1.097-1.134zm3.337.374c.016.274-.123.875-.239 1.226-1.192 3.586-3.978 7.139-6.277 8.012-3 .987-5.747-.604-5.816-4.27.076-4.321 5.185-5.518 6.729-1.579.696 1.78-1.203 4.454-2.844 4.008-1.657-.45-2.349-3.053-.983-3.696.895-.422 1.821.285 1.627 1.24-.068.332-.05.377.143.342.851-.16.402-1.882-.603-2.311-1.9-.812-3.335 1.764-2.053 3.685 1.535 2.3 3.949 1.858 5.339-.978a8.8 8.8 0 0 1 .997-1.537c.842-.98 1.11-1.366 1.854-2.663.41-.714.63-1.165.839-1.4.333-.022.561.07 1.287-.077zm6.73.19c.36.003.636.238.629.74-.007.42-.605 2.191-.883 2.615-.107.163-.357.732-.394.607-.351-1.178-.978-1.543-1.067-1.852-.105-.362.212-.71.353-1.037.3-.694.899-1.078 1.361-1.074zm6.343.559c.434-.004 1.05.197 1.177.522.397.7-2.29 7.231-2.388 7.251l-2.005-.089c1.204-2.604 2.268-5.184 3.043-7.67zm26.902 10.336 2.55 1.527L93.217 99.14l-2.443-1.881zm-41.932.556c15.698.058 37.318.03 37.318.03l-.912 1.744s-23.613-.232-36.406-.208zm-21.192 1.1-.033 8.837s-.118-.052-1.615-1.056c-1.797-1.204-3.77-2.445-4.404-2.77-.936-.479-.813-.71.986-1.863a465 465 0 0 0 5.066-3.148m67.215.877 1.578 1.004-17.66 28.295-.983-1.94zm-46.02.393h2.458v2.796h-2.458zm5.63 0h2.984v2.796h-2.984zm6.52.03h3.068v2.796h-3.068zm6.398.011h3.102v2.797h-3.102zm6.446.018h3.061v2.797H90.54zm6.45.06h3.131v1.97l-.475.826H96.99zm16.877.91 29.952 19.508-.018 2.692L112.619 76.6zm-1.965 2.282.257.185-1.269 1.956-.261-.148zm-46.27.288h33.621l-1.012 1.715-32.609-.048zm-27.6.875c.226-.015.666.186 1.353.574 1.654.934 2.694 2.904 1.98 3.615-.636.633-2.124-.722-3.047-2.659-.49-1.026-.617-1.508-.287-1.53zm59.488 1.689L86.674 97.269c-2.452-3.383-5.2-6.305-11.202-4.326-3.13-2.435-6.438-2.811-9.96-.744l.04-12.322zm-55.835.007.846.737c-.25.481-.365 1.176-.526 1.796-.013-.85-.086-1.696-.32-2.533m68.76.182 33.419 22.133v2.052l-34.585-22.43zm-73.193.504c.432-.009.855.177 1.173.563.506.611.298 1.732-.412 2.21-1.413.954-3.108-.892-1.986-2.163.35-.398.793-.602 1.225-.61m5.533.262 1.825 1.47c-3.168 18.185 5.881 36.543 25.372 42.044l.22 2.33c.037.11-8.28-2.487-11.913-5.223-4.967-3.382-9.163-8.145-12.056-13.685-1.975-3.572-3.058-7.506-3.757-10.684-.827-5.454-.803-10.854.31-16.252zm-2.072 2.467c.7.03.776.537.214 1.511-.722 1.254-1.805 2.127-3.561 2.87-.968.41-1.22.225-1.108-.815.169-1.56 1.248-2.704 3.117-3.307.448-.125.901-.262 1.338-.259m5.372.196.724.619a1.53 1.53 0 0 0-1.03 1.448c0 .847.682 1.533 1.523 1.533a1.52 1.52 0 0 0 1.497-1.274l.729.63a2.395 2.395 0 0 1-2.226 1.522 2.405 2.405 0 0 1-2.395-2.411c0-.882.474-1.647 1.177-2.067zm1.218 1.207q.125.002.239.038l.53.456a.857.857 0 0 1-.769 1.226.857.857 0 0 1-.854-.86c0-.474.383-.859.854-.859zm-5.751.556c-.199 2.345-.136 4.797-.063 7.251-.45-1.945-1.453-3.4-3.123-4.396 1.153-.802 2.36-1.779 3.186-2.856zm8.782 1.84 1.623 1.411c-1.395 19.25 15.364 26.555 15.813 26.233l.707 2.178c-11.572-3.964-19.571-16.005-18.143-29.822m93.346 46.15-.085 2.424c-13.13-5.13-28.097-24.053-27.907-42.184-3.37 5.203-5.266 8.676-8.16 13.362l-2.304-1.103c3.789-5.682 7.39-11.76 11.19-17.342.433-.63.788-.919.807.46-.002 6.238 1.92 31.903 26.459 44.383M36.91 88.544c.422-.027 1.026.178 1.788.693 1.201.81 2.548 3.315 2.082 3.874-.419.502-2.2-.096-3.083-1.037-1.751-1.866-1.867-3.461-.787-3.53m10.239.252a2.4 2.4 0 0 1 2.395 2.408 2.404 2.404 0 0 1-2.395 2.411 2.404 2.404 0 0 1-2.396-2.411 2.4 2.4 0 0 1 2.396-2.408m5.36.23 1.564 1.844c.306 16.156 12.974 21.138 12.855 21.177l.383 1.737c-.707.1-15.673-6.76-14.801-24.758m-5.36.644c-.842 0-1.523.687-1.523 1.533 0 .847.682 1.533 1.523 1.533s1.523-.687 1.523-1.533c0-.847-.682-1.533-1.523-1.533m0 .674c.47 0 .853.385.853.859s-.382.86-.853.86a.857.857 0 0 1-.854-.86c0-.474.383-.86.854-.86m8.094 1.463c.193 0 1.097 1.322 1.097 1.322s-.993.35-1.42-.085c-.426-.433-.197-1.24.323-1.237m69.364.596 2.347 1.615c1.096 10.9 7.299 20.842 16.652 27.74l-.06 2.7c-11.392-7.748-17.717-18.277-18.94-32.054zm-87.948.186h.114c1.436.024 2.045 2.245.508 2.881-.966.4-2.017-.178-2.12-1.167-.072-.696.443-1.442 1.141-1.648q.185-.055.357-.066m19.588 1.455c.376.002.785.219 1.173.66 1.03 1.169 1.02 1.508-.066 1.951-1.528.624-2.798-.243-2.288-1.562.267-.694.697-1.05 1.18-1.049m-15.64.056a.9.9 0 0 1 .345.055c1.126.442-1.315 4.944-2.93 5.4-1.024.29-1.24-.113-.904-1.692.373-1.756 2.289-3.738 3.488-3.763m7.181.104a2.4 2.4 0 0 1 2.396 2.407 2.404 2.404 0 0 1-2.396 2.412 2.405 2.405 0 0 1-2.395-2.412 2.4 2.4 0 0 1 2.395-2.407m0 .874a1.53 1.53 0 0 0-1.523 1.533c0 .847.682 1.533 1.523 1.533.842 0 1.523-.686 1.523-1.533s-.682-1.533-1.523-1.533m-5.986.13c.213 2.23.573 4.292 1.556 7.037-.922-1.485-2.238-2.223-3.499-3.064.884-1.325 1.907-2.649 1.943-3.974zm5.986.545c.471 0 .854.385.854.859s-.383.86-.854.86a.857.857 0 0 1-.854-.86c0-.474.383-.86.854-.86m13.554.263c2.497-.054 4.263 2.016 4.154 4 .073 2.303.155 3.778-.033 6.64l-2.028-3.737c-.028-1.059.15-1.86.07-2.915-.23-2.834-2.988-2.44-3.12-2.159l-.871-1.426a5 5 0 0 1 1.829-.403zm8.797.285c2.34-.003 3.696 1.324 3.767 3.685.137 4.52-.103 14.84-.103 14.84l-5.063.004-2.763-6.896s-.11-.663-.088-1.144c.176-2.212.066-4.673.14-6.67.29-2.118 2.02-3.816 4.109-3.819zm-11.715.714c.325-.003.628.096.858.33 1.174 1.195 1.167 1.98-.022 2.519-1.574.713-2.392.578-2.93-.482-.526-1.039.931-2.352 2.094-2.367m73.805.326 1.284.834s-.27.425-.416.677c-.729 1.263.51 2.004 2.226 1.334.31-.121.573-.293.573-.293l1.06.727s-.764.415-1.597.825c-2.142 1.056-3.68.607-4.198-1.218-.205-.725 0-1.632.401-2.163.205-.271.666-.723.666-.723zm-54.305.152c1.96-.067 3.867 1.474 4.32 3.544.187.97-.056 13.792-.056 13.792l-7.774-.004.136-13.451c-.051-.85 0-1.693.453-2.296.854-1.071 1.895-1.55 2.921-1.585m-8.072.59c-1.57.072-2.462 2.632-.846 3.84.675.504.689.599.327 2.303-.412 1.945.015 4.608.98 6.107.739 1.242.588.607.21-.5-.488-2.075-.25-3.6.941-6.01 1.063-2.032 2.094-5.155-1.288-5.719a1.5 1.5 0 0 0-.323-.022zm64.518.584.703.478-.257.237c-.281.274-.84.318-1.012.107-.285-.349.566-.822.566-.822m-56.004.992c-1.688-.057-2.8 3.095-.64 3.856.49.319.573.736.269 1.326-.41.792-.819 2.673-.754 3.458.09 1.128.378 2.6.603 3.112.566 1.407.452.845.305-.782-.056-1.818.307-3.13 1.358-4.867 1.247-2.083 2.966-5.47-.975-6.088zm-29.037.012a2.4 2.4 0 0 1 2.396 2.407 2.404 2.404 0 0 1-2.396 2.412 2.404 2.404 0 0 1-2.395-2.412 2.4 2.4 0 0 1 2.395-2.407m11.1.244c.413-.004.724.273 1.1.837 1.035 1.553.916 1.87-1.077 2.975-2.112 1.169-3.524-1.772-1.505-3.133.61-.412 1.044-.64 1.399-.674l.084-.004zm-21.92.115c2.228.023 5.708 3.224 4.01 3.69-.242.065-.547.11-.677.103-2.798-.171-6.005-3.82-3.333-3.792Zm10.82.515c-.841 0-1.523.687-1.523 1.533 0 .847.682 1.533 1.523 1.533.842 0 1.523-.686 1.523-1.533s-.682-1.533-1.523-1.533m88.228.452 1.11.76s-.678.314-1.478.744c-2.173 1.168-2.804 2.025-2.053 2.789.268.272.585.39 1.155.173 1.507-.588 2.911-1.625 4.316-2.444l.835.578c-.019-.039-3.321 2.363-5.125 3.374-2.832 1.463-4.45-1.529-2.873-3.526 1.215-1.216 2.517-1.615 4.113-2.448m-88.228.222c.471 0 .854.385.854.86a.857.857 0 0 1-.854.858.857.857 0 0 1-.853-.859c0-.474.382-.859.853-.859m89.964.804.607.41s-.065.032-1.92 1.105c-2.019 1.167-2.108 1.187-2.22 1.003-.098-.055.04-.532.66-.952 1.086-.735 3.007-1.629 2.873-1.566m-52.513.059a3.98 3.98 0 0 1 3.577 2.037c.407 1.068.443 2.06.437 3.181l-.033 7.53h-7.83s-.362-5.132 0-9.404c.356-2.146 2.082-3.31 3.85-3.344m-24.316 1.114c.497-.036.864.455 1.336 1.52.468 1.053.116 1.649-1.354 2.288-.186.08-.398.14-.47.133-1.487-.143-2.095-1.867-1.027-2.915.662-.649 1.129-.997 1.516-1.026zm79.574.77.68.427s-.348.318-2.877 2.174c-2.041 1.5-2.335 1.907-1.91 2.748.345.68 1.092.591 2.124-.207 1.43-1.107 3.683-2.981 3.683-2.981l.074 1.281c-1.482 1.2-3.271 3.244-4.695 4.022-2.748 1.362-4.72-2.378-2.208-4.222 2.165-1.59 5.13-3.241 5.13-3.241zm-54.96.005c-2.047-.018-2.808 3.04-.607 3.689.633.342.58.517.158 2.04-.256.923-.338 2.06-.198 2.782.164.92.367.9.283-.09.003-.54.555-1.983 1.107-2.888 2.04-2.864 1.505-5.506-.744-5.533m-47.683.037c1.35.009 2.106 1.902.934 2.718-.83.578-2.566-.128-2.56-1.04.004-.78.612-1.52 1.35-1.652q.141-.026.276-.026m3.885.16c.425-.002.67.625.666 1.866-.005 1.78-.633 3.33-1.715 4.237-1.566 1.312-1.916-2.264-.453-4.63.61-.985 1.126-1.473 1.501-1.474zm100.192.47c.386-.006.326.29-.121.604-.347.242-.936.728-2.76 2.277-.33.281-.805.648-1.052.815-.607.41-1.122.304-.827-.17.29-.465 4.414-3.52 4.76-3.526m-91.752.081a2.4 2.4 0 0 1 2.396 2.407 2.404 2.404 0 0 1-2.396 2.412 2.405 2.405 0 0 1-2.395-2.412 2.4 2.4 0 0 1 2.395-2.407m0 .874c-.841 0-1.523.687-1.523 1.533 0 .848.682 1.534 1.523 1.534.842 0 1.523-.687 1.523-1.534 0-.846-.682-1.533-1.523-1.533m-28.643.044c16.2 8.245 26.297 23.67 28.79 41.24l7.87-12.566 2.127.807-11.468 18.815-.496-.156c-.048-18.38-9.149-35.768-26.858-45.31Zm28.643.63c.471 0 .854.385.854.86a.857.857 0 0 1-.854.859.857.857 0 0 1-.853-.86c0-.474.382-.859.853-.859m-6.685.1a29.7 29.7 0 0 0 2.903 5.123c-1.351-1.278-2.828-1.223-4.29-1.415zm19.26.342c.252-.013.503.094.7.367.662.916.785 1.767.323 2.226-.631.629-1.636.38-2.09-.516-.471-.93.313-2.04 1.068-2.077m79.442 1.274.026 1.426s-.302.365-.622.666c-.903.85-2.137 2.206-2.226 2.552-.287 1.124.818 1.537 1.906.71.375-.284.916-.718.916-.718v1.756c-.918.785-1.834 1.558-3.087 1.304-.73-.225-1.37-.803-1.505-1.541-.523-2.212 1.606-3.446 3.256-4.926.533-.478 1.336-1.23 1.336-1.23zm-88.643 1.244h.122a2.4 2.4 0 0 1 2.395 2.408 2.404 2.404 0 0 1-2.395 2.411 2.404 2.404 0 0 1-2.396-2.411 2.407 2.407 0 0 1 2.274-2.408m48.095.541c1.306-.005 1.996 1.764.946 2.767-.413.394-1.345.674-1.873.304-1.455-1.02-.384-3.003.927-3.07zm-2.605 1.404c.756.806 1.328 3.15.883 3.593-.984 1.022-3.845-2.38-3.673-4.603.304-1.334 2.511.712 2.79 1.01m-35.004-1.278c.547.003.65.497.526.789-.117.278-.545.3-.886.16-.58-.24-.308-.953.36-.949m-10.364.208c-.842 0-1.523.686-1.523 1.533s.682 1.533 1.523 1.533 1.523-.687 1.523-1.533c0-.847-.682-1.533-1.523-1.533m-11.402.673c2.889.004 5.936 2.294 3.285 2.748-1.968.338-3.244-.054-4.776-1.463-.779-.716-.5-1.096.916-1.256q.285-.03.574-.03zm11.402 0c.47 0 .853.386.853.86s-.382.859-.853.859a.857.857 0 0 1-.854-.86c0-.473.383-.859.854-.859m4 2.182h.124a2.4 2.4 0 0 1 2.396 2.407 2.404 2.404 0 0 1-2.396 2.411 2.405 2.405 0 0 1-2.395-2.41 2.403 2.403 0 0 1 2.27-2.408m47.067.122c.683-.012 1.283.118 1.63.437.425.39-.212 1.14-1.512 1.777-1.518.745-4.165.642-4.161-.162.006-1.07 2.297-2.023 4.043-2.052m-57.66.633c1.327.007 1.687 4.152.533 6.137-.598 1.03-1.403.342-1.98-1.692-.47-1.669.435-4.45 1.447-4.445m10.717.119a1.53 1.53 0 0 0-1.523 1.533c0 .847.683 1.533 1.523 1.533.842 0 1.523-.687 1.523-1.533s-.682-1.533-1.523-1.533m49.63.27c.112.002.255.059.445.152 1.449.717 2.503 4.061 1.747 5.552-.795 1.57-2.583-1.451-2.568-4.34.005-.944.067-1.325.328-1.359l.047-.004zm-64.111.215h.092c1.311.033 2.263 1.856 1.03 2.793-.54.41-1.37.475-1.88.148-1.004-.642-.95-2.208.096-2.755.224-.117.448-.176.662-.186m14.481.19c.471 0 .854.385.854.859s-.383.86-.854.86a.857.857 0 0 1-.853-.86c0-.474.382-.86.853-.86m-8.947.288c.717 1.075 3.622 3.91 4.024 4.156-1.283-.418-2.605-.24-3.926-.063.15-.982.307-2.592-.1-4.093zm46.693.245c19.694 4.64 31.718 25.678 26.965 45.413 0 0-1.659-.932-1.921-1.377.696-3.415 1.126-8.823.253-14.263-1.479-9.226-8.907-22.763-25.183-27.407-.18-.596-.114-2.366-.114-2.366m10.612.144c.223 1.35.437 2.71.768 3.924-1.387-1.003-2.96-1.866-4.568-2.562 1.149-.243 2.198-.449 3.8-1.362m5.68.433c.783-.02 1.58.543 1.563 1.515-.007.428-.46 1.197-.813 1.378-1.308.672-2.652-.608-2.074-1.978a1.44 1.44 0 0 1 1.324-.915m-49.482.522a2.4 2.4 0 0 1 2.395 2.408 2.404 2.404 0 0 1-2.395 2.411 2.404 2.404 0 0 1-2.396-2.411 2.4 2.4 0 0 1 2.396-2.408m0 .875c-.842 0-1.523.686-1.523 1.533s.682 1.533 1.523 1.533 1.523-.687 1.523-1.533c0-.847-.682-1.533-1.523-1.533m-40.754.23c9.786 5.813 18.564 18.178 19.216 32.16l-2.37-1.558c-1.02-9.418-5.81-19.666-16.923-28.066zm54.19 0h12.65v2.743l3.793-1.967v6.07l-3.793-2.31v2.648h-12.65v-2.785l-3.873 1.884.043-6.04 3.83 2.167zm-13.435.444c.47 0 .853.385.853.859s-.383.859-.853.859a.857.857 0 0 1-.854-.86c0-.473.383-.858.854-.858m4.974.481h.047l.151.875-.074-.004c-.841 0-1.523.687-1.523 1.533a1.528 1.528 0 0 0 2.097 1.422l.147.878q-.343.11-.721.11a2.405 2.405 0 0 1-2.396-2.41 2.4 2.4 0 0 1 2.27-2.405zm28.572.304h.126a2.4 2.4 0 0 1 2.395 2.408 2.41 2.41 0 0 1-1.854 2.344l-.144-.867a1.53 1.53 0 0 0 1.126-1.477c0-.847-.682-1.533-1.523-1.533l-.103.003-.147-.867zm16.796.815c2.954.016 4.18 1.723 1.758 2.448-1.121.336-2.59.158-4.04-.488-1.209-.54.456-1.97 2.28-1.96zm-61.74.163c.714-.002 1.405.108 1.916.352 1.235.588 1.206.989-.114 1.755-1.84 1.07-6.177-.013-4.868-1.215.616-.564 1.874-.888 3.065-.892m16.497.263.192.022.265 1.562a.84.84 0 0 1-.457.133.857.857 0 0 1-.853-.859c0-.474.382-.86.853-.86zm28.58.307a.856.856 0 0 1 .846.86c0 .374-.238.69-.57.807zm5.21.615a2.4 2.4 0 0 1 2.395 2.408 2.404 2.404 0 0 1-2.395 2.41 2.405 2.405 0 0 1-2.396-2.41 2.4 2.4 0 0 1 2.396-2.408m-46.627.607q.215-.012.475.2c1.435 1.181 2.15 3.681 1.586 5.54-.54 1.774-2.777-1.376-2.763-3.889.006-1.158.277-1.827.702-1.852zm62.013.211c.198.002.408.154.614.5.892 1.494.852 4.58-.073 5.54-.525.546-.72.443-1.266-.67-.934-1.9-.23-5.377.724-5.37zm-15.386.056c-.84 0-1.523.686-1.523 1.533s.682 1.533 1.523 1.533 1.523-.687 1.523-1.533c0-.847-.682-1.533-1.523-1.533m-44.725.41c1.808 1.15 3.66 2.198 5.585 3.07-1.802-.429-3.134.18-4.507 1 .263-1.516-.25-2.75-1.078-4.07m54.342.325c1.348.192 2.682.414 4.246.118a13.4 13.4 0 0 0-.262 4.083c-1.163-1.515-2.46-2.938-3.984-4.202zm-9.617-.061c.47 0 .853.385.853.859s-.382.859-.853.859a.857.857 0 0 1-.854-.86c0-.473.383-.858.854-.858m-49.382.592q.4.007.842.226c1.108.547 1.14 1.9.063 2.607-1.356.889-3.123-.67-2.278-2.01.325-.515.76-.792 1.258-.82zm54.187 1.007a2.4 2.4 0 0 1 2.396 2.408 2.404 2.404 0 0 1-2.396 2.411 2.404 2.404 0 0 1-2.395-2.411 2.4 2.4 0 0 1 2.395-2.408m14.01.404c.231-.005.471.048.71.174.852.449 1.03 1.587.354 2.252-.75.736-1.773.609-2.278-.281-.576-1.017.215-2.125 1.215-2.145m-23.101.355c11.788 4.04 19.683 17.242 17.782 29.951l-1.472-1.4c1.12-7.202-2.81-20.964-15.939-26.614zm9.091.115c-.841 0-1.523.687-1.523 1.533 0 .847.682 1.533 1.523 1.533s1.523-.686 1.523-1.533-.682-1.533-1.523-1.533m0 .674c.471 0 .854.385.854.86a.86.86 0 0 1-.854.859.857.857 0 0 1-.853-.86c0-.474.382-.859.853-.859m-44.823.152c.601.053 1.616-.055 1.854.515.268.722-1.203 1.97-3.069 2.215-.759.045-2.387.24-2.73-.311-.321-.688 1.874-2.398 3.945-2.418zm-37.426.422c1.593-.07 3.39 2.076 1.778 3.826-1.29 1.345-3.933 3.178-3.933 3.178v-1.177s2.589-1.906 2.63-2.763c.006-.996-.808-1.558-1.718-.96-.18.119-.89.7-.89.7l.059-1.974c.481-.531 1.332-.797 2.074-.83m40.71.504c1.182.046 3.921 4.296 3.224 5.167-.552.689-2.777-.839-3.613-2.481-.448-.882-.314-2.453.228-2.66zm18.22.515s.122 9.892-.43 10.826c-2.214 4.035-6.995 1.935-7.403-1.089-.294-1.823-.118-9.718-.118-9.718zm.699 0h7.638s-.034 13.923-.342 14.722c-.25.65-1.36 1.77-2.057 2.078-2.243.987-4.641-.413-5.235-3.056-.428-1.905-.004-13.744-.004-13.744m8.278 0h5.07s.175.739.376 1.345c.351 1.058 1.547 4.092 1.685 4.278.619.832.65 9.933.037 10.97-2.236 3.376-5.958 2.393-7.318-1.345-.34-1.198.151-15.247.151-15.247zm5.913.344c9.093 4.348 16.052 13.567 15.18 25.396l-1.67-1.677c.609-8.165-5.565-18.37-12.77-21.404zm12.52.278a2.4 2.4 0 0 1 2.396 2.408 2.404 2.404 0 0 1-2.396 2.411 2.404 2.404 0 0 1-2.395-2.411 2.4 2.4 0 0 1 2.395-2.408m8.97.245c.89.013 1.977.322 2.789.996.971.806 1.106 1.444.353 1.677-1.456.452-3.204.015-4.301-1.074-1.02-1.011-.141-1.619 1.16-1.6zm-8.97.63c-.841 0-1.523.687-1.523 1.533 0 .847.683 1.533 1.523 1.533.842 0 1.523-.687 1.523-1.533 0-.847-.682-1.533-1.523-1.533m-47.91.193c1.275.007 1.861 1.815.883 2.73-.4.375-1.496.455-1.972.144-1.31-.856-.543-2.883 1.089-2.874m16.862.46c-.422 1.222-1.101 2.6-1.664 3.543-1.505 2.528-1.31 4.222.28 5.078 2.334 1.257 4.029-2.117 1.729-3.44-.807-.465-.807-.47-.515-1.723.364-1.562.428-3.426.169-3.459zm31.048.021c.471 0 .854.386.854.86s-.383.859-.854.859a.857.857 0 0 1-.853-.86c0-.473.382-.859.853-.859m-22.862.497c-.106-.007-.025.621-.033 1.736-.013 1.8-.163 2.348-1.307 4.763-1.46 3.084-1.265 5.19.545 5.874 1.406.53 2.773-.552 2.781-2.204.005-.786-.344-1.403-.879-1.563-.484-.03-1.02-.259-.982-.492.296-1.842 1.881-5.31-.126-8.114zm30.206.248c1.182.748 2.398 1.459 4.158 1.548-.75 1.81-.673 3.132-.798 4.574-.753-1.942-1.915-4.092-3.36-6.121zm-90.184.281.283.018c1.13.177 2.084 1.634 1.781 2.719-.265.947-.348 1.106-3.985 3.551-2.018 1.357-2.23 1.415-2.23 1.415l-1.08-.733s.915-.616 2.365-1.597c2.791-1.888 3.201-2.337 2.914-3.181-.312-.917-1.355-.724-3.006.555-2.442 1.893-2.696 2.019-2.696 2.019v-1.13s1.07-.858 1.534-1.259c1.133-.81 2.697-2.363 4.12-2.378zm72.263.492c.274-.003.485.255.39.5-.045.118-.206.194-.42.193-.437-.002-.46-.629-.025-.689zm24.522 1.315c.516 1.782-.595 4.753-1.274 5.133-.724.722-1.177.033-1.334-1.833.004-1.514 1.726-6.245 2.608-3.301zm-29.076-1c.221 2.568.301 4.7-.895 6.786-1.55 2.703-1.148 5.021.512 5.533 1.653.51 3.115-.682 2.822-2.3-.09-.495-.766-1.304-1.178-1.41-.508-.132-.569-.45-.279-1.468.56-1.972.372-4.47-.475-6.274-.077-.27-.388-.876-.507-.866m5.562.856c1.395.008 2.053 1.832 1.009 2.797-.582.537-.952.293-1.56-1.022-.565-1.22-.39-1.78.551-1.774zm12.988.374a2.4 2.4 0 0 1 2.396 2.407 2.404 2.404 0 0 1-2.396 2.412 2.404 2.404 0 0 1-2.395-2.412 2.4 2.4 0 0 1 2.395-2.407m0 .874c-.841 0-1.523.687-1.523 1.533 0 .847.682 1.533 1.523 1.533.842 0 1.523-.686 1.523-1.533s-.682-1.533-1.523-1.533m0 .674c.471 0 .854.385.854.86a.86.86 0 0 1-.854.859.857.857 0 0 1-.853-.86c0-.474.382-.859.853-.859m-10.276.634c.196-.009.386.025.563.11 1.262.614 1.124 2.373-.269 3.423-.881.664-1.253.435-2.074-1.281-.446-.931.724-2.208 1.78-2.252m-73.127.2q.192.006.364.055c1.301.36 2.125 1.888 1.8 3.048-.718 1.79-3.146 2.392-4.99 3.14l-.957-.703s1.352-.772 2.664-1.381c1.229-.57 1.427-.796 1.336-1.515-.18-1.403-.853-1.353-3.907.304a34 34 0 0 0-2.156 1.27l-.677-.559c1.01-.67 1.618-1.04 2.722-1.8 1.844-1.27 2.897-1.818 3.668-1.855l.132-.004zm97.15 1.039c.445 1.36-.462 2.553-1.828 2.018-.742-.29-1.267-1.244-.806-2.128.614-.97 2.337-.803 2.635.11zm-27.415-.473 2.153 3.893s.028 1.083.047 1.685c.083 2.528.62 3.363 2.09 3.119.105-.018.63-.17.63-.17l.934 1.585s-1.01.445-1.273.5c-1.732.365-4.128-.943-4.5-2.692-.36-1.693-.08-7.919-.08-7.919zm-70.507 1.6c.65.048.373.548.074.711-1.265.648-2.46 1.353-3.78 2.118l-.882-.551s.681-.383 1.151-.674c1.446-.895 2.92-1.582 3.437-1.604m86.497.5a2.4 2.4 0 0 1 2.396 2.408 2.404 2.404 0 0 1-2.396 2.411 2.404 2.404 0 0 1-2.395-2.411 2.4 2.4 0 0 1 2.395-2.408m-10.132.33c.55-.016 1.01.222 1.31.722.64 1.07-.038 2.374-1.59 3.07-.866.39-1.01.309-1.935-1.07-.624-.932-.62-1.1.07-1.693.775-.664 1.521-1.012 2.146-1.03zm-84.059.211 34.302 22.358-.98 1.675L23.3 139.865zm101.921.289c2.085.04 4.805 2.47 3.842 3.43a.66.66 0 0 1-.442.17c-2.976-.178-6.26-3.656-3.4-3.601zm-7.73.044c-.841 0-1.523.687-1.523 1.533 0 .847.683 1.533 1.523 1.533.842 0 1.523-.687 1.523-1.533 0-.847-.682-1.533-1.523-1.533m-45.81.426.91 2.378L55.45 168.24l-1.678-1.085zm45.81.248c.471 0 .854.386.854.86s-.383.859-.854.859a.857.857 0 0 1-.853-.86c0-.473.383-.859.853-.859m6.27.285c.836 1.565 2.228 2.523 3.812 3.196-1.495 1.243-2.248 2.853-2.19 4.537-.378-2.528-.707-5.043-1.622-7.733m-90.247.826c.366.003.695.08.957.26 3.199 2.205.26 4.389-.012 4.218l-1.089-.693c.375-.625 1.225-1.472-.143-2.263-.777-.34-1.642.068-2.396.596l-1.144-.788s2.241-1.342 3.827-1.33m75.446 1.248a1.6 1.6 0 0 1 .353.026c1.806.351 1.68 2.28-.206 3.174-1.074.509-1.264.405-2.2-1.215-.44-.76.888-1.946 2.053-1.985m-76.024.708c.193.005.438.174.467.333.093.506-.838 1.015-.838 1.015l-1.071-.715c.457-.253.936-.597 1.442-.633m96.207.462c.262-.02.453.104.53.419.366 1.498-1.288 4.278-2.814 4.73-.891.263-1.15-.16-.857-1.401.41-1.744 2.208-3.674 3.141-3.748m-55.327.115 2.778 2.03-16.667 26.517-2.885-1.726zm45.353.215a2.4 2.4 0 0 1 2.396 2.408 2.404 2.404 0 0 1-2.396 2.41 2.404 2.404 0 0 1-2.395-2.41 2.4 2.4 0 0 1 2.395-2.408m0 .874c-.841 0-1.523.687-1.523 1.534s.682 1.533 1.523 1.533c.842 0 1.523-.687 1.523-1.533 0-.848-.682-1.534-1.523-1.534m0 .674c.471 0 .854.386.854.86s-.383.859-.854.859a.857.857 0 0 1-.853-.86c0-.473.382-.859.853-.859m-38.297.09c1.809 2.052 3.841 6.642 10.935 4.477 2.417 1.982 5.755 3.11 9.868.91l.03 12.37-31.498.034zm-57.527.314 31.019 20.55-.971 1.727-30.078-19.352zm87.082.018.077.008c1.586.39 1.765 1.985.291 2.596-.789.326-.95.245-1.703-.871-.3-.445-.47-.815-.428-.926.106-.273 1.319-.813 1.763-.808zm19.905 1.689c.555.004 1.106.3 1.365.881.389.874.164 1.608-.636 2.092-1.325.804-2.807-.672-2.12-2.11a1.51 1.51 0 0 1 1.392-.864zm-19.422 1.677c.731.004 1.345.707.99 1.134-.237.283-.54.202-.928-.249-.456-.528-.482-.887-.062-.885m8.892.308a2.4 2.4 0 0 1 2.396 2.407 2.404 2.404 0 0 1-2.396 2.412 2.404 2.404 0 0 1-2.395-2.412 2.4 2.4 0 0 1 2.395-2.407m6.748.133c1.805.01 4.307 3.046 3.882 4.71-.14.544-1.151.25-2.355-.68-1.626-1.259-2.678-4.036-1.527-4.03m-6.748.74c-.841 0-1.523.687-1.523 1.534s.683 1.533 1.523 1.533c.842 0 1.523-.687 1.523-1.533 0-.847-.682-1.533-1.523-1.533m5.803.311c.498 1.47 1.009 3 3.26 4.063-3.494 1.638-4.16 4.397-3.636 7.933l-.816-.503c.749-3.17 1.315-6.778 1.192-11.493m-5.803.363c.471 0 .854.386.854.86s-.383.859-.854.859a.857.857 0 0 1-.853-.86c0-.473.382-.859.853-.859m-.445 3.87a2.4 2.4 0 0 1 2.396 2.408 2.42 2.42 0 0 1-1.078 2.015l-.773-.581a1.536 1.536 0 0 0-.544-2.967c-.802 0-1.455.624-1.516 1.415l-.777-.585a2.4 2.4 0 0 1 2.292-1.705m10.898.308c1.14.006-.632 3.188-2.259 4.056-1.238.66-2.373.711-2.369.107.009-1.582 2.888-4.173 4.629-4.163zm-10.898 1.24c.471 0 .854.386.854.86s-.383.86-.854.86c-.468-.052-.848-.422-.853-.86 0-.474.382-.86.853-.86m10.53 2.9c.56.009 1.118.254 1.354.73.305.616.19 1.168-.372 1.726-1.377 1.371-3.25-.036-2.35-1.766.244-.47.807-.698 1.368-.69m-4.404 1.293c1.919.06 3.37 2.463 3.024 3.822-.304.36-2.417-1.254-2.645-1.418-.27-.482-.286-1.26-.379-2.404m-2.616 1.489 6.012 3.637-5.997 3.877zm-53.532 1.8 32.293.118.003 1.367-33.179.018zm-1.317 2.137h2.17v2.663h-2.98v-1.47zm31.03.063h2.613v2.663H98.98zm-25.632.018h2.973v2.663h-2.973zm6.185.022h3.212v2.663h-3.212zm6.57 0h3.091v2.663h-3.09zm6.602.044h2.943v2.663h-2.943zm-26.888 3.281 35.816.085v1.597l-36.84-.085zm30.56 3.363c3.646-.04 5.77 4.056 2.92 6.933-2.62 2.645-6.99-.733-4.808-3.707 1.219-1.661 4.213-.323 3.465 1.448-.492 1.165-2.106.622-2.056-.64.003-.508-.37-.161-.412.377-.055.683.642 1.439 1.453 1.44 2.116.005 2.433-2.818.394-3.855-1.822-.926-3.74.255-4.183 2.6-.049.255-.349.895-.578 1.347-.674 1.362-.89 2.149-1.228 3.704-.156.194-.628.505-.957.67-1.04.523-.996.302-.607-1.4 1.12-4.904 2.952-8.062 5.192-8.704q.732-.209 1.405-.215zm10.783.255c2.251-.048 3.947 1.819 4.243 3.26 1.294 4.39-4.494 7.078-6.511 3.101-1.127-2.273 1.207-4.984 3.346-3.928 1.75.866 1.638 3.554-.151 3.545-.971.046-1.562-.833-1.026-1.537.277-.278.61-.061.75-.526.059-.195-.216-.35-.879-.215-1.098.224-.986 2.452.287 2.896 1.897.66 3.52-1.353 2.616-3.344-1.086-2.395-4.024-2.405-5.368.1-.196.364-.501.884-.67 1.114-2.004 2.74-2.162 3.149-2.759 4.674-.059.152-.165.265-.346.245-.552 0-1.094.12-1.464.267-.25-.067.082-1.028.107-1.1 1.366-4.245 4.873-8.449 7.825-8.552m-17.446 1.193c-.476.833-1.905 3.542-2.896 7.544-.261-.163-.964-.458-1.472-.638-.192-.067-.036-.291-.047-.63.36-1.804 1.519-4.96 2.796-6.566.27-.2 2.013-.263 1.619.29m2.042.8c-1.223 1.572-2.5 5.748-2.767 7.903a8 8 0 0 1-.132.8c-.19.644-1.39-.74-1.383-1.596.01-1.455 1.61-5.888 2.755-7.581.399-.59.447-.688 1.299-.719 1.369-.034.767.5.228 1.193m-59.805-1.037a4.3 4.3 0 0 0-.899.118c-1.77.443-3.882 2.332-4.087 4.338-.097.06-.339 1.462-.184 2.174.585 2.69 2.145 4.516 4.054 7.185 0 0-2.398 3.742-4.044 5.47l3.893 5.67c-1.077 2.14-2.949 3.759-3.418 6.4-.734 3.477 1.075 6.865 4.923 7.178 2.872.086 4.754-1.867 5.11-4.826.145-1.967-.659-4.435-3.55-8.333-.143-.193-.423-.593-.423-.593s.325-.384.496-.64c1.017-1.385 3.668-4.77 3.668-4.77l-3.962-5.642s.172-.379.478-.8c3.234-4.44 3.837-6.697 3.264-8.903-.226-.87-.763-1.538-1.49-2.282-1.176-1.202-2.522-1.776-3.83-1.744zm-.093.545c1.265-.019 2.568.49 3.625 1.603 2.43 2.56 2.215 4.725-.942 9.46-.693 1.039-1.372 2.18-1.372 2.18l3.984 5.541s-.646.973-1.316 1.767c-1.822 2.154-2.841 3.703-2.841 3.703.69 1.067 1.812 2.207 2.516 3.489.851 1.452 1.358 2.9 1.509 4.225.317 2.788-1.483 5.757-4.563 5.83-2.988.02-5.264-2.486-5.198-5.634.03-1.403.605-2.699 1.306-3.962.717-1.286 2.396-3.785 2.396-3.785l-3.856-5.66 4.084-5.488s-2.97-3.661-3.882-6.3c-.74-2.997.647-4.705.832-4.966.905-1.282 2.288-1.983 3.72-2.003zm-2.526 7.95c.592 1.554 1.557 2.712 2.649 3.817 1.012-1.191 2.142-2.758 2.761-4.252 2.984-7.198-8.542-7.784-5.41.435m2.605 3.109c-1.463-1.713-2.496-3.137-2.596-5.396-.16-4.474 5.65-3.972 5.361.028-.324 2.178-1.46 3.556-2.765 5.368m72.015-7.034c.112.63.722 1.696.67 1.947-.284.661-.696.99-1.27 2.078-.12.232-.064.28-.386.222-.303-.043-.835-.21-1.119-.292-.162-.047-.349-.137-.272-.345.55-1.275 1.168-2.796 2.376-3.61zm-9.632 1.925-.684 1.785c-.065.192-.072.223-.273.182a5.3 5.3 0 0 0-1.119-.051c-.847-.105.749-3.294.989-3.778.346.059.86 1.421 1.086 1.862zm.643.411h.044c.348.046.866.235 1.25.404.213.088.22.094.126.36-.196.392-.437 1.525-.695 1.92-.008.058-1.208-.717-1.55-.867-.013-.215.38-1.757.825-1.817m10.18.212c.398.013.887.376 1.156.585.126.25.011.503-.43 1.27-.391.678-.799 1.411-.898 1.333-.297-.234-.847-.538-1.119-.915-.203-.28.183-.999.446-1.392.413-.62.612-.844.846-.881m-6.475-.09c.368.082-.215 1.985-.324 2.223-.347.523-.887 1.212-1.317 1.489-.22.141-.894-.264-.879-.74.01-.339.654-2.044.868-2.497.032-.066 1.242-.468 1.653-.476zm-14.978.727.247.004c1.442-.043 2.925.674 3.86 2.274.441.756.447.789.345 1.496-.238 1.662-.155 2.779.28 3.797.495 1.159.42 1.557-.791 4.136-1.217 2.597-2.693 5.76-3.815 8.693a31 31 0 0 0-1.24 3.844c-.188.732-1.077.512-1.961.478-.45.099.649-2.95 2.278-6.593 1.303-2.916 3.076-6.201 3.783-9.465.577-2.66.392-3.755.075-4.872-1.22-3.251-5.466-2.454-5.456.54.091 1.941 2.32 2.98 3.138 1.079.136-.875-.293-.366-.651.059-.77.91-2.088-.102-1.88-1.444.272-1.764 2.534-2.343 3.628-.948 1.197 1.527.935 3.103-.795 4.284-1.782 1.318-3.405.569-4.294-.8-1.9-3.073.698-6.483 3.25-6.563zm8.812 1.288c1.77.037 3.69 1.529 4 2.71.166.802-.09 1.745.194 2.52.237.62.465.977.295 1.529-1.456 4.715-4.893 9.743-6.59 15.326-.196.389-.375.437-.813.563-.678.194-.944.174-1.015-.182-.068-.34.16-.984.556-2.193.474-1.447 1.525-3.926 2.14-5.092 1.436-2.715 2.236-4.573 3.28-6.892.194-.433.25-.69.555-1.315 1.314-2.682-.17-5.326-2.892-5.34-2.157-.012-3.12 3.387-1.233 4.38 1.846.972 3.224-1.58 1.582-2.485-.396-.218-.498-.01-.18.374.73.884.074 2.073-.942 1.6-1.575-.732-.764-3.434 1.074-3.277 2.837.24 3.206 4.395.312 5.448-3.978 1.447-6.065-5-2.321-7.17a3.83 3.83 0 0 1 1.998-.504m8.381.13c1.047-.026 2.147.35 3.05 1.223 2.225 2.15 1.633 5.47-2.127 11.889-1.23 2.151-2.431 4.734-3.086 6.621-.163.47-.3.71-.67.915-.652.362-1.39.407-1.487.152-.244-.653 1.618-4.707 4.934-11.078.872-1.697 1.973-3.668 1.917-5.688-.219-1.604-1.544-2.758-3.319-2.234-1.194.353-1.682 2.05-.802 2.904.368.357.82.544 1.111.515.55.017 1.175-.53.11-.589-1.126-.006-1.51-1.431-.559-2.074 1.367-.924 2.936.165 2.826 1.963-.229 3.616-5.473 3.076-5.61-.648-.087-2.304 1.712-3.82 3.712-3.87zm-14.815 5.789c.792-.062-.572 4.237-2.955 9.059-1.3 2.67-2.285 5.54-3.297 8.333-.274.374-1.916.442-1.913.055 2.914-9.397 4.972-11.016 5.968-14.595.173-.619.3-1.512.323-1.589.736-.213 1.357-1.1 1.873-1.263zm-53.938.633-3.087 4.052 3.014 4.304 3.131-4.115zm66.844 1.252c-.002.486-.928 2.822-1.619 4.226-3.023 6.142-3.775 7.8-4.297 9.436-.095.296-.247.491-.438.563-.377.142-1.425.344-1.512.2.639-3.59 5.533-11.758 6.483-15.336.38-.017 1.351.565 1.383.91zm2.421-.373c.205-.016.287.069.228.344-.095.445-.623 1.493-1.542 3.31-2.547 5.04-3.883 8.025-4.309 9.56-.1.359-.16.641-.33.732-.351.188-1.576.685-1.634.149.383-2.278 1.874-3.76 5.728-13.26.18-.312.338-.464.508-.492.474-.078.885-.306 1.35-.344zm-10.449 1.56c-.097.586-.765 1.815-1.869 4.084-1.836 3.776-3.024 6.59-3.745 9.085-.117.406-.278.831-.434.94-.298.209-1.637.145-1.637.145-.203-1.033 1.412-4.881 3.212-8.93.979-2.202 2.113-4.396 2.875-6.37.521.077 1.526.582 1.599 1.045zm2.725-.972c.545-.006.123.916-1.183 3.512-1.059 2.106-2.747 5.06-3.838 8.455-.284.748-.62 1.677-.743 2.067-.16.503-.31.752-.515.855-.393.198-1.345.186-1.512-.018-.266-.326 1.143-4.147 2.516-7.081 1.212-2.466 2.066-4.446 3.112-6.726.287-.453.3-.484.59-.543.606-.048 1.233-.456 1.573-.521m-61.489.49 1.59 2.14-1.866 2.337-1.552-2.274zm-.239 9.232s-.675.783-1.368 2.023c-2.031 3.403-2.086 5.915.308 7.407 1.01.518 2.329.405 3.161-.326 2.713-2.382.697-5.655-1.056-7.874-.465-.651-1.045-1.23-1.045-1.23m.1.871c1.017 1.208 1.761 2.115 2.439 3.633.78 2.039.28 3.643-1.229 4.396-2.384 1.19-4.553-1.483-3.422-4.337a14.3 14.3 0 0 1 2.212-3.692m66.766 4.03c.224.429-22.693 5.765-39.6 1.185l-10.286 14.984 59.39-.104zm-.868 1.062s5.52 9.62 8.23 14.33h-3.808l-5.428-11.696a60 60 0 0 1-8.668 1.773l1.931 9.922h-2.851l-1.611-9.48c-4.16.322-8.397.445-12.723.321l-1.866 9.16h-2.984l1.913-9.097c-3.284-.446-6.553-.866-9.89-1.418l-5.596 10.514h-4.213l8.783-13.196c13.11 2.648 25.201 2.026 38.78-1.133zm-2.075 5.163 4.305 9.167h-8.153l-1.501-8.177zm-34.904.667 7.126.93-1.84 7.57h-9.625zm23.266 1.13.98 7.37H72.925l1.365-7.226z"/><path d="M-76.276 2.163c-.242-4.057-7.747-11.693-7.99-13.603-.241 1.909-7.746 9.545-7.988 13.603-.17 2.868 1.695 4.057 3.39 4.057 1.835-.022 3.35-2.801 3.873-3.341.242.716-1.603 6.682-2.18 6.682h5.812c-.576 0-2.421-5.966-2.18-6.682.458.496 1.798 3.257 3.875 3.34 1.694 0 3.557-1.188 3.388-4.056" style="fill:#000" transform="matrix(2.1626 0 0 1.9773 224.061 46.55)"/><path d="M92.254 3.338c-.242-4.057-7.747-11.693-7.989-13.603-.242 1.91-7.747 9.545-7.989 13.603-.169 2.868 1.695 4.057 3.39 4.057 1.835-.021 3.351-2.8 3.873-3.34.242.715-1.603 6.681-2.179 6.681h5.811c-.576 0-2.42-5.966-2.179-6.682.457.496 1.797 3.258 3.874 3.341 1.694 0 3.557-1.189 3.388-4.057" style="fill:#000" transform="matrix(-2.1626 0 0 -1.9773 306.925 197.523)"/></svg>