<svg xmlns="http://www.w3.org/2000/svg" xml:space="preserve" width="222.783" height="323.556" viewBox="0 0 167.087 242.667"><path d="M166.837 235.548c0 3.777-3.087 6.869-6.871 6.869H7.11c-3.775 0-6.861-3.092-6.861-6.87V7.12C.25 3.343 3.336.25 7.11.25h152.856c3.784 0 6.87 3.093 6.87 6.87z" style="fill:#fff"/><text xml:space="preserve" x="4.332" y="28.943" style="font-size:32px;font-style:normal;font-weight:400;line-height:125%;letter-spacing:0;word-spacing:0;fill:#df0000;fill-opacity:1;stroke:none;font-family:Bitstream Vera Sans"><tspan x="4.332" y="28.943" style="font-style:normal;font-variant:normal;font-weight:400;font-stretch:normal;fill:#df0000;fill-opacity:1;font-family:Arial;-inkscape-font-specification:Arial">J</tspan></text><path d="M3.676-9C.433-9 0-5.523 0-5.523S-.433-9-3.676-9C-5.946-9-8-7.441-8-4.5-8-.614-1.42 3.294 0 9 1.352 3.299 8-.614 8-4.5 8-7.441 5.946-9 3.676-9" style="fill:#df0000;fill-opacity:1" transform="matrix(1.11218 0 0 1.0409 11.309 41.753)"/><text xml:space="preserve" x="-163.013" y="-213.345" style="font-size:32px;font-style:normal;font-weight:400;line-height:125%;letter-spacing:0;word-spacing:0;fill:#df0000;fill-opacity:1;stroke:none;font-family:Bitstream Vera Sans" transform="scale(-1)"><tspan x="-163.013" y="-213.345" style="font-style:normal;font-variant:normal;font-weight:400;font-stretch:normal;fill:#df0000;fill-opacity:1;font-family:Arial;-inkscape-font-specification:Arial">J</tspan></text><path d="M3.676-9C.433-9 0-5.523 0-5.523S-.433-9-3.676-9C-5.946-9-8-7.441-8-4.5-8-.614-1.42 3.294 0 9 1.352 3.299 8-.614 8-4.5 8-7.441 5.946-9 3.676-9" style="fill:#df0000;fill-opacity:1" transform="matrix(-1.11218 0 0 -1.0409 156.036 200.535)"/><path d="m192.456 36.83-11.514 7.505-.16 8.753c-6.828-3.276-9.796-8.642-10.87-14.928-1.932 2.436-1.548 14.734-1.548 14.734-1.755.911-2.396 2.099-3.517 3.168 1.102 1.819 4.219 4.914 4.219 4.914-.022-.055-1.429 12.805.273 13.317 1.556-5.481 3.628-10.263 11.255-15.277 0 0 .115 20.416-.373 40.14-3.227-2.221-10.05-6.211-14.459-10.293 5.716-7.372-.112-16.98-8.641-10.598-5.528-2.992-6.378-17.125-7.745-24.529-.263-1.485-1.55-5.839-1.55-5.839s-18.217-5.038-26.04-4.628c6.57 17.121 5.295 37.985-23.783 41.894-13.932 6.371-30.029 13.473-45.672 26.741-2.882 19.755-13.071 29.482-20.266 34.862.052 8.006-.053 15.93.276 24.01-.007.049 6.567-4.315 7.6-3.512 5.493 35.705 25.611 42.784 23.599 43.773-.324.159-6.592 6.602-6.592 6.602l-24.553-16.173c-.842 24.687-.354 49.86 0 74.589 4.335-2.45 12.303-8.312 12.303-8.312l.121-8.399c-.037-.798 11.165 6.997 11.192 16.282.872.593 2.783-13.362 1.043-14.873l4.592-4.737-4.945-4.761s1.255-7.903-1.308-12.455c-1.661 10.421-10.312 13.671-10.312 13.671s-.168-38.092-.392-38.125l15.432 9.77c-1.149.236-4.088 5.699-1.022 10.123 1.867 2.695 8.58 2.516 9.097-.586 9.491 8.844 5.837 19.417 9.988 31.964l26.931 4.941c-11.099-20.592.945-44.055 22.741-42.378 4.083-1.701 7.779-4.156 7.779-4.156s-2.71-4.429-6.132-8.54l-46.65-.77 21.746-40.773-14.303-.46s11.624-24.652 9.112-26.638c-.882-.697-.513-8.646-.513-8.646l12.776.475c.505-5.69-6.179-27.371-15.609-41.55l52.434.47-29.518 41.167 15.854.455-9.46 19.433 1.516 15.156-14.066.455c2.425 21.012 18.034 43.15 23.521 49.987 9.071-2.15 26.008-15.112 36.518-23.171 1.362-14.1 6.217-26.104 18.91-35.058l.039-23.213s-7.245 4.677-7.243 4.354c.03-5.024-2.59-15.483-7.421-24.805-5.184-10.003-13.694-19.063-15.651-19.631 4.501-6.81 6.422-7.42 6.358-7.528l24.517 15.723zM68.877 86.325s-4.768 1.815-8.912 1.758c-7.425.383-13.089.982-16.101 7.072-.612 1.854.729 2.537 1.715 3.022 5.598-6.95 20.473 2.23 23.298-11.853zm-32.962 31.891c0 .981 1.097 2.585 1.647.92.477-1.188.574-3.115.039-4.301-1.491-.839-1.668 2.42-1.686 3.381m80.411 33.625-7.251.034-.044 8.51 7.387.349zm71.227 42.368c-.159.846-.941 4.648.828 3.986 2.088-1.608.31-8.999-.828-3.986m-6.826 21.365c-.856-1.248-3.505 1.854-5.679 1.97-9.661.517-16.778-.776-17.982 9.331 5.571-3.557 13.378-1.935 18.406-3.085 3.635-1.207 7.806-4.498 5.255-8.216" style="fill:#e2cf00" transform="matrix(.75191 0 0 .75079 -1.112 3.453)"/><path d="M30.999 287.711c-1.036-88.613-.469-176.08-.117-263.701l163.552 1.007c-.634 87.448-.793 175.163.321 263.486zm7.087-170.475c.142-2.535-.9-3.586-1.806-1.842-.214.412-.919 4.818.749 4.966 1.095.097.996-2.035 1.057-3.123zm-2.648 2.973c-.01-.598-.379-.859.44-6.068-1.558-.602-2.906-3.132-1.77-4.73.443-.623.314-.761.133-1.285-.446-1.295-.209-2.35.993-3.175.768-.527.802-.667.556-1.362-.633-1.79-.038-3.536 1.674-4.13 1.186-.411.957-.471 1.082-1.222.28-1.683 1.211-2.7 2.899-2.529 1.57.159 1.673.16 1.809-.607.374-2.122 2.948-4.439 6.308-6.012 1.668-.781 4.434-1.334 9.732-1.317 3.035-.051 6.818-.454 8.942-2.318.35-.327.837-1.186 1.007-1.069.395.273.298 2.386-.478 4.312-2.262 5.613-5.321 7.159-13.963 7.103-2.577-.124-6.373.222-7.983 1.86-.479.508-.799.987-.62 1.248 3.58.51 7.256 2.128 9.392 9.194 6.496-4.599 16.849-11.644 29.687-18.009-1.537-8.444 5.786-9.743 9.891-8.06 0 0 .105-.551-.054-1.19a6.6 6.6 0 0 0-1.139-2.485c-.19-.382-1.343-1.109-1.116-1.683.373-.94.207-1.199-.579-2.065-.51-.562-.171-1.764-.046-2.249.162-.905.759-2.195.233-2.682-.813-.753-3.582-2.028-5.008-3.041-1.577-1.148-1.607-2.18.707-5.95 1.054-2.192 2.05-4.547 2.89-6.122 1.271-2.382 1.403-3.952.634-5.319-1.004-1.785-.836-3.901-.813-3.846 0 0-9.478-13.501-13.382-18.808l-44.374-.169-.492 101.452 7.915-7.292-2.073-2.455c-.294 1.425-.029 2.819-1.786 2.899-.599.019-1.152-.231-1.247-.821zm26.295 135.285c.255-4.011-1.662-10.58-4.552-15.131.123 3.455.369 7.679-.327 11.057zm70.018 10.507c-.349-.113-3.262-.292-5.091-.39-6.065-.325-10.001-3.236-12.628-7.261-.646-.99-.378-.945 1.054.175 4.025 3.148 7.793 5.031 11.102 4.561 4.692-.666 7.222 1.055 6.571 3.059-.114.351-.152.133-1.009-.144zm-15.883-8.958c-.938-.815-1.008-1.18.106-.438 3.404 2.268 7.513 5.97 12.595 3.806 1.054-.675.085-.586-1.679-.4-2.696.285-5.98-1.086-10.019-3.878-1.972-1.363-1.103-2.513 1.118-1.444.686.33 1.381.573 1.824.601 2.187-1.451 6.784-1.431 6.677-1.423.524-.45-1.193-1.167-3.748-2.134-1.66-.628-2.061-.885-.825-.933 1.079-.041 2.778.498 4.002 1.291 2.043 1.315 3.072 2.043 3.682 2.129 1.003.08 2.026.225.304 1.022-.782.362-.713.455-.624 1.333.14 1.372.222 1.357.855 2.133 1.067 1.177 1.531 3.367.009 1.996-.328-.152-.362.139-1.259.501-5.266 1.483-9.188-.838-13.017-4.162zm9.719.397c.294-.386.736-1.374.796-1.65-.101-.64-.67-.44-.958-.08-.492.603-1.18 1.49-.615 1.793.267.144.528.264.777-.063m-1.798-.416 1.172-2.085c-.289-.135-4.254.681-3.633 1.25.55.504 2.461.835 2.461.835m4.467-6.997c-1.805-.967-2.33-3.049-.981-4.431 1.135-1.161 3.057-1.061 5.356.356.809.499 1.306.752 1.86.548.928-.341 1.282.179 1.206.906-.169 1.6-2.662 1.991-4.233.163-2.078-2.416-4.339-.732-3.677 1.014.337.889.992 1.028 1.744 1.362-.001.175-.75.362-1.275.081zm-8.226-10.763c2.992-.805 7.438 2.362 9.851 1.932 1.046-.223.898 1.283-.188 1.828-1.269.637-3.073.207-6.898-1.791-3.151-1.704-5.703 1.117-3.597 3.223.452.426 1.11.683 1.918.645 1.066-.049 1.379.242.005.594-.79.203-2.259-.119-2.969-.838-1.696-1.719-1.277-5.022 1.88-5.594zm-63.305-9.276c-.087-3.556 1.814-5.53 1.862-5.545l-13.441-9.128.18 36.431c6.664-4.226 8.854-9.555 9.24-16.435 13.145 14.739 9.03 32.67.809 42.877-.334-6.25-2.196-13.637-9.789-17.426l-.018 7.456-12.608 8.929.072 8.237 29.651.109 14.352-20.931c-2.589-9.498-2.195-17.401-3.947-21.747-1.314-3.573-3.813-8.189-5.429-7.474-5.467 4.323-10.831-.727-10.935-5.352zm11.312 4.21c4.656 3.356 5.895 8.837 6.847 13.709.032.041 2.436 16.514 2.512 16.735.312.904.207 1.805-.592 2.491-4.304 5.896-12.718 18.543-12.718 18.543l82.406.53c-4.393-6.398-7.824-12.723-11.997-17.984.176-.28-.324-3.872-1.02-5.034-.716-1.196-.881-1.823-.395-2.917 1.206-2.694 2.444-5.615 3.56-8.087 2.134-4.737 2.379-4.776-.532-6.317-3.449-2.011-4.064-2.665-3.339-4.958.264-.835.298-1.168-.771-1.387a49 49 0 0 1-2.506-.614c-2.329-.736-1.655-.279-2.507.323-.649.32-1.207-.91-1.967-2.364-.873-1.671-1.095-1.711.351-.85 2.679 1.595 7.435.978 5.76-.867-.817-.9-1.574-1.362-1.487-3.399.086-2.021.118-2.614-1.254-2.896-2.746-.564-5.731-.331-8.287.306-7.779 1.937-14.023 8.681-16.392 13.693-.533.874.691.83 1.219.833 2.549-.226 4.356 3.837 2.687 5.658-.772.812-1.541.313-.717-.742.94-1.746-.459-4.056-2.511-3.469-2.584.738-2.658 4.078-2.98 6.405-.884 6.704 2.518 15.67 3.35 17.499 0 0 .182.272.12.272s-.472.378-.646.18c-.597-.679-2.104-6.165-2.92-10.084-1.58-10.838 1.229-20.802 10.249-26.458 7.991-5.758 12.013-4.515 16.548-4.779 1.548-.556 3.698-1.4 5.326-2.197 7.99-4.359 14.465-8.076 21.255-11.768 6.59-3.583 11.011-8.702 17.036-11.899.274-.145.557-.484.838-.622 7.496-6.506 14.903-12.894 19.373-17.345.542-.544.99-1.28.99-1.28l-.737-37.564s-.753-.626-.749-1.224c.008-1.304-.475-1.055-3.156.829-3.369 2.368-3.598 2.249-3.598 2.249-1.773-17.235-11.083-34.187-22.374-44.103l.465-.634s3.777 2.497 5.663 3.685l.001-2.403-4.548-2.852s-.405-.329.038-.931c.244-.331.866-.085.866-.085l3.644 2.69.001-2.194-2.946-1.88.944-1.189 1.578 1.025c-.669-1.737.278-1.675 1.25-.524.404.527.925 1.204 1.146 1.843.084.244.336.843.336.843l2.583 1.924s-.099-.937-.007-1.224c.436-1.362 3.554 3.036 3.162 3.139l2.645 1.909c.627-.955 2.984.949 3.081 1.888.208.408 9.118 6.147 9.118 6.147l.099-3.167.961-1.25.473-73.167-11.84 7.559-.135 8.858c-5.59-1.811-10.428-9.913-11.134-14.965-.364-.199-1.989 9.962-1.135 14.41-1.479 1.1-3.969 3.67-3.95 3.684l4.481 4.908s-.9 7.512-.693 11.244c.181 1.771.216 1.951.746 1.954.429.003.816-.461.818-.867 1.056-4.468 4.519-11.438 10.506-13.81.396-.012-.054 39.861-.054 39.861l-14.848-10.141c-.74-.636.97-.594 2.016-3.969 2.696-8.702-6.639-11.783-10.247-6.745-.593-.004-3.07-3.068-3.44-4.348-2.744-5.537-3.267-11.811-3.797-16.843-.321-2.288-1.159-6.04-1.853-8.299-.371-1.206-.408-2.077.395-3.2 3.682-4.967 7.247-10.187 10.349-15.279 2.831-3.715 2.279-3.903 2.279-3.903l-82.623-.313 13.199 17.407 1.337.521c-2.286.293-1.51 2.292-.624 4.441 1.089 2.642.968 3.187-1.802 8.627-4.062 7.975-4.28 7.274-.233 9.746 2.499 1.602 2.953 1.951 2.584 4.124s-.471 1.501 1.593 1.679c1.104.095 1.983.295 2.48.521.564.256.984.612 1.71.375 1.223-.4 1.252-.104 1.301.791.021.382.597 1.169.776 1.463.47.772.25.9-.612.357-2.656-1.675-7.098-.962-5.465.858.672.749 1.348 3.242 1.405 4.481.102 2.216 1.541 3.002 4.564 2.548 5.806-.429 18.902-7.629 21.956-15.722-6.706 2.28-5.324-5.949-2.934-5.688 0 0-.643 1.459-.664 2.292-.074 2.943 2.391 3.172 4.09 1.089.739-1.094 1.638-5.161 1.2-9.753-.531-5.561-2.781-11.782-3.188-13.326 9.577 22.895.765 32.955-12.713 39.516-5.162 2.152-5.87 2.139-8.911 2.279-2.081.167-3.959 1.2-5.957 1.856-11.532 5.496-25.705 12.35-38.385 22.58-9.098 6.732-16.325 12.784-23.511 20.562l-.052 40.386c2.16-.335 5.667-2.436 7.744-3.645 2.37 15.086 10.118 32.558 22.961 43.011l-.311.565c-1.829-1.216-3.657-2.426-5.43-3.359l-.094 1.922 4.322 2.975c.114.462-.742 1.106-.742 1.106l-3.568-2.468-.029 1.957 2.762 1.763c.746.748-.905 1.137-.905 1.137l-1.636-1.187s.117.951.067 1.119c-.428 1.445-2.791-1.748-3.217-3.34l-2.325-1.379c.33.942-.503 1.073-1.162.837-1.747-.887-1.649-2.376-2.013-3.258l-3.094-1.965c-.534 2.949-3.678-1.206-3.18-2.2l-3.968-2.704c.219.082-1.514.44-2.1.056-.675-.441-.911-2.241-.911-2.241l-2.379-1.475-.001 2.579 24.47 17.105-.353.664-25.526-17.484.993 75.824 12.454-8.605c-.237-2.838.288-5.372.055-8.605 6.395 3.985 8.546 6.694 11.362 15.057 1.828-4.758 1.51-9.325.693-13.551 1.636-1.337 3.229-2.636 4.052-4.654-1.538-2.119-3.042-2.714-4.661-4.679-.126-2.395 1.281-9.528-.6-11.882 0 0-3.445 10.362-10.855 13.473-.219-10.943.052-38.454.052-38.454s7.611 5.259 11.493 7.396c1.824.975 3.096 1.587 3.119 2.28.012.353-.721.802-1.043 1.298-.2.308-1.045 3.268-.718 5.583.148 1.706.952 2.786 1.721 3.604 2.441 2.594 6.916 1.374 8.688-.626zm14.748-19.358 29.309-40.95c3.476 15.077 9.35 28.886 17.016 41.405zm14.505-43.051s2.046-4.05 2.984-6.198l-3.587-.002 2.147-2.405 5.34.003-2.86 6.086 2.267.001 3.138-6.086 8.321.005-2.914 6.086 1.917.001 3.117-6.086 7.737.004-2.725 6.086 1.813.001 1.591-3.071.385 5.591-7.686-.004 3.042-6.198-2.477-.001-3.436 6.198-7.2-.004 3.126-6.198-2.737-.002-3.433 6.198zm23.727-21.802 3.108-6.557-2.457-.001-3.438 6.42-7.675-.004 3.024-6.347-1.912.005c-1.297 2.001-3.368 6.066-3.368 6.066l-8.139-.004s2.304-4.312 3.213-6.42l-2.008-.001-1.636 2.605c-.575-.973-.194-3.557-.29-4.654l7.672.004-3.085 6.293 2.448.001 3.364-6.293 8.101.004-3.303 6.293 1.918.001 3.274-5.948 8.242.005-2.892 5.948 2.545.001-1.124 2.585zm-7.576-11.433-1.554.291c-1.979-16.999-11.376-34.332-15.353-41.49l46.802.684zm55.007-98.11s-4.467 5.736-4.77 15.364l4.253-3.393c-.264-9.77.517-11.972.517-11.972zm-4.723 16.087c-.075 7.164 1.801 11.732 4.174 15.309.043-4.615.51-9.286.785-10.51zM47.78 193.536l-15.128-10.432-.001 2.285 17.98 12.228zm-2.724-5.596c-4.053-2.037-12.403-8.342-12.403-8.342l-.001 2.084 13.293 9.35c.261.257.612.192.735-.095-.523-.884-1.153-2.086-1.624-2.997m-3.709-9.052-8.69-6.071-.001 1.887c2.228 1.998 9.561 6.753 9.561 6.753zm-8.689-7.451 8.176 5.291-.507-2.341-5.807-3.948zm147.014-73.201.458-37.67c-8.524 4.025-10.22 15.777-9.936 16.142-8.478-8.747-11.665-27.598.24-40.267.892 4.066 1.189 9.963 9.603 15.357l.221-7.979 11.797-7.526-.093-9.066-28.285-.236c-4.391 5.556-8.78 11.879-13.123 17.774-1.63 2.21-2.038 3.25-1.726 4.406 2.848 10.257 2.27 22.883 8.257 28.857 8.039-7.551 15.561 3.828 9.311 10.839zM57.369 261.061c1.085 3.431.333 10.351.263 10.351 1.298-.705 4.832-10.723 3.951-14.489m41.038-183.947c-2-.569-3.506-1.429-5.619-1.229-1.663.171-2.228-.379-1.213-1.284 1.327-1.123 2.613-1.585 5.07-.298 7.394 3.873 7.624-1.777 4.295-2.178-.945-.114-.901-.717.041-.564 5.167.209 3.589 7.053-2.574 5.554zm-8.644-5.647c-.978-.357-2.159-.955-2.594-.838-1.098.294-1.135-.309-1.004-1.024.317-1.725 2.081-1.411 4.412.074 3.34 2.128 4.621-.928 1.582-2.58-1.022-.556-.706-.709-.109-.733 1.583-.064 3.073 2.092 2.652 3.855-1.066 2.827-3.651 1.718-4.94 1.247zm9.792-5.216c-2.161-.376-5.29-3.284-6.744-3.484-.816-.093-1.776.006-2.037-.323-.798-1.004 1.464-1.003 1.618-1.367.006-.847.059-1.377.025-1.666-.399-.541-1.97-2.704-1.915-3.751.038-.065.824.58 1.229.582 3.861-2.032 6.498-1.128 9.755.311 1.346.595 4.818 3.29 4.862 3.717.074.723-1.473-.634-2.682-1.445-2.978-2.073-5.658-3.547-9.398-2.321-.583.2-.482.307 1.434.192 1.872-.113 3.406.462 5.796 2.023.594.388 1.311 1.05 1.739 1.254 3.008 1.436 3.663 2.846 1.748 2.463-.41-.082-1.204-.509-1.985-.786-1.375-.487-.888-.34-2.212.276-.465.216-1.583.672-2.501.78-.704.117-2.986.097-1.977 1.061 1.071 1.073 2.848 1.865 4.069 2.355.879.392.202.306-.824.128zm.259-4.671c1.409-.521.308-1.703-1.488-1.965-.411-.06-1.291 1.88-1.31 2.288-.014.304 2.026-.038 2.798-.324zm-3.889.207c.323-.205 1.407-1.769 1.408-2.018.006-1.004-1.28-.725-1.577.32-.362 1.271-.393 2.054.169 1.698m-4.497-8.096c-1.158-.513-2.731-2.754-.931-2.375.388.09 2.409.196 3.714.202 4.441.022 8.866 2.036 11.679 4.964 1.566 1.629 1.666 2.834.078 1.712-5.629-5.058-9.085-4.119-14.54-4.503m43.767 174.266-1.572.835c.003.871.317.736 1.013 1.353 0 0-.965.156-1.67.109-1.148-.077-1.411-.058-.904.75.234.374.556.925.556.925s-.623.134-1.56-.123c-1.42-.39-2.148-.195-1.611.595l.433.628c-1.036-.236-2.94-1.163-2.94-1.163l-1.343.407c2.676 5.234 12.206 1.939 9.598-4.316m46.476-7.441c1.473-1.235.759-2.751-1.392-3.863-.895-.463-.807-.469-2.259.383-1.79 1.05-1.916 1.104-.642 2.456 1.537 1.632 3.21 1.932 4.293 1.024m-5.465-3.496c1.355-.6.852-.499.761-1.914-.394-1.631.529-1.745.987-3.267.189-.833-.515-.525-1.884.747-1.129.947-1.464 1.178-1.461.717.127-.385-.774-1.375-1.583-1.509-.684-.114-.619-.271.05-1.135 1.16-1.499 1.638-3.391.861-5.058-.982-2.108-1.306-2.417-3.481-.578-1.114 1.024-2.686 1.81-3.446 3.076-.544.932-.23 1.835.629 3.668 2.144 4.574 5.46 6.63 8.567 5.255zm7.611.044c2.389-.934 1.427-3.513-2.304-6.113-2.249-1.567-2.887-1.552-.978.146 1.221 1.086 1.412 1.47.888 2.251-.437.651-.896 1.417-.463 2.013.683.939 1.849 2.097 2.856 1.703zM53.57 208.565l-2.602-1.645-.001 2.248 2.602 1.556zm130.1 2.103c.516-.363.961-1.382.964-1.834.118-1.046-1.585-.796-2.399.36-.915 1.3.166 2.365 1.435 1.473zm5.831-3.536c1.187-1.242.61-2.566-1.825-4.145-.94-.616-1.419-1.019-1.304.202.035.373-.374.865-.637 1.159-.844.944-.47 1.114 1.935 2.64 1.225.777 1.16.844 1.83.143zm-135.929-2.465-2.602-1.573-.001 2.04 2.602 1.758zM47.88 206.7l.035-2.046-3.371-2.244-.049 2.281zm132.632-.754c-.435 1.171 1.313.641 1.414.522.303-.592.035-.648-.113-.711-.307-.129-1.497.075-1.3.189zm.763-1.479c.6-.193.67-.117.587-1.198-.125-1.631.12-1.762 1.204-2.479.866-.573.873-.487.859-1.487-.016-1.208.067-1.727 1.655-1.973.65-.1 1.022-.259 1.076-.772.091-.862-1.294-2.319-3.017-3.16-.254-.002-4.108 3.348-5.185 4.506l-.657.707.785 1.473c1.224 2.297 1.023 3.143.301 6.188-.148.815.481.697.646-.284.217-.916.343-1.25 1.745-1.521zm5.876-8.122c-.298 1.85.66 2.988 1.566 2.07.493-.5.909-4.584.567-5.233-1.858-1.99-2.059 2.718-2.132 3.163zm-29.949 30.618c6.911-4.041 15.788-.73 20.792-4.045 2.334-2.57 4.681-4.208 3.359-5.982-1.029-1.381-1.698-1.593-1.698-1.593.073.098-3.647 3.228-9.041 2.5-8.992-.314-13.244 2.507-13.412 9.119zm11.811-9.624c4.4.155 7.977-.607 9.613-1.882 1.016-.792 1.17-.931-.422-1.06-3.417-.277-6.875-4.241-7.957-8.084-.22-.79-.48-1.649-.48-1.649-9.108 7.261-29.153 18.695-29.153 18.695 1.326 6.186-3.157 9.873-9.225 7.673-1.056-.096-.919 1.263-.721 1.821.33.915 1.064 1.682 1.207 1.805.903.775 1.071 1.286.935 2.028-.135.732-.121.707.391.982.912.489.864 1.184.366 2.619-.537 2.019-.574 2.527.876 3.488 1.867 1.201 5.532 2.515 4.99 4.32-1.229 4.089-3.244 7.609-5.017 11.434-.658 1.059-.518 2.809 0 3.625.642 1.251.567 2.747 1.398 3.896 4.598 6.834 8.558 12.846 12.747 19.019l43.865.439-1.036-101.167s-6.766 6.655-6.745 7.125c.025.561 1.587 1.438 2.259 1.55.028-.303-.003-1.502.084-1.922.062-.609 2.014-.45 2.66.08.452.371.312 2.792-.147 4.763-.376 1.612-.324 1.634.368 2.566.842 1.136 1.133 2.099 1.022 3.382-.061.703-.056 1.258.143 1.723.468 1.094.329 2.634-.187 3.35-.749 1.039-.761 1.198-.598 1.753.612 1.926.382 3.566-1.766 4.399-.275.107-.576.582-.752.992-.938 3.081-2.695 3.076-5.097 2.187-1.704 6.629-8.623 8.291-13.606 8.092-5.192-.207-10.472.179-12.823 3.573.554-8.043 4.156-11.919 12.808-11.614zm15.675-13.348c.883-.329.993-1.249.252-1.84-1.138-.907-2.445.014-1.912 1.326.299.735.803.834 1.66.514m-136.66-2.995-3.456-2.397.019 2.146 3.445 2.214zm6.521 1.766-2.445-2.936c-7.21-4.414-13.459-9.351-19.455-13.327l-.047 2.719 1.715.865s.146-.598.263-.943c.221-.648 2.203 1.177 2.834 2.639l.499 1.177 2.311 1.277s.035-.656.036-.838c.009-1.392 2.48.525 3.606 2.801.273.552.631 1.137.631 1.137l2.174 1.323c.859-1.172 3.045.434 3.604 1.858.708 1.807 1.958 1.964 2.007 1.97zm-13.019-.402.006-2.084-3.603-2.372-.047 2.113zm148.404.252c.094-.547-.444-2.675-1.253-2.795-.506-.075-1.298.691-1.301 1.226-.004.694 2.452 2.161 2.554 1.569m-2.931-2.53c.788-.86-.205-1.981-1.409-1.592-1.43.462-.936 1.757.664 1.785.357.006.572-.004.745-.193m-145.658-1.613.015-1.987-3.329-2.203-.07 1.942zm-6.548-.705.034-1.912-2.187-1.526-.001 2.29zm.082-5.729-2.233-1.458-.001 2.073 2.334 1.336zm9.08-6.299c-.231-.613-1.174-2.551-1.174-2.551l-10.131-7.08-.001 2.177 11.334 7.632zm-4.734-16.813-.119-.886-.903.481zm-2.148.22-1.418.766 4.281 2.787-.344-1.98zm148.709-23.382 1.105-.799-1.95-1.322-.147 1.34zm1.977-1.271 1.451-1.197-4.851-3.424.343 2.128zm3.44-1.789.001-1.462-7.867-5.318.542 2.672c1.387.802 3.081 1.974 4.853 3.221 1.123.793 1.127 1.098 2.471.888zm.001-2.707.001-2.319-9.1-6.049.738 2.722zm.002-3.483.005-2.431-11.016-7.287 1.204 3.217zm.003-6.107-13.887-9.304 1.776 3.564 12.11 8.103zm.002-3.552-17.428-11.607 1.956 3.247 15.471 10.473zm.002-3.77-.652-.003c-.053 1.662-1.853.456-2.529-1.373a53 53 0 0 1-.625-1.533l-3.51-2.375.276 1.86-2.365-1.445s-.682-2.286-.704-2.301l-4.039-2.748c.086.468.153 1.239-.11 1.292 0 0-1.228-.525-1.79-1.343-.584-.851-.672-1.707-.672-1.707l-3.296-2.136-.821.088s-.444-.301-.862-.64c-.782-1.399-1.697-1.61-2.79-2.18 0 0 2.319 2.71 3.558 4.311a15.5 15.5 0 0 0 2.518 2.534l18.411 12.298zm.002-3.791-1.423-.855.103 2.244 1.319.897zm-143.583-5.016c.087-.141-.277-.303-.676-1.183-.99-2.18-1.087-2.94-.556-5.229.253-1.092-.739-1.562-1.196-.397-.355.906-.907 1.416-1.435 1.349-.498-.063-.604.146-.388.834.264.952-.311 2.192-1.11 2.529-.807.207-.954.718-.728 1.458.376 1.228-.951 2.266-1.992 2.207-1.609-.092-.979 1.373.96 2.769.718.517 1.039.797 1.604.536 1.468-1.386 4.199-3.369 5.517-4.872zm139.632 4.573-.08-2.139-4.046-2.736.497 2.863zm3.952-.895.001-2.155-1.665-1.071.084 2.29zm-152.359-3.421c.388.393.773.428 1.389.058.71-.37.439-.932-.304-1.297-.694-.366-1.667.745-1.085 1.239m-1.208-.946c-.055-.451.496-1.058.876-1.081.832-.049.685-.493-.266-1.069-.446-.27-1.236-.902-1.525-1.111-1.421-1.033-2.796.559-1.741 1.907.884 1.128 2.188 1.798 2.655 1.355zm149.217 1.418-.312-2.381-3.655-2.432.287 2.622zm-132.894-5.875c.199-.33.26-.645.24-1.044-.074-1.498-.846-3.259-1.927-4.732-.805-1.097-1.782-2.034-2.772-2.585-2.796-1.439-6.528-.822-5.986 1.03.386 1.252.295 2.3-.779 2.929-.731.428-.824 1.004-.051 1.006.561.001 2.048-.512 2.669-1.488.875-1.376 1.376-2.176 1.178.071-.083.94.035.87 1.492.795 1.976-.101 1.61.269.454 1.159-1.683 1.295-2.017 3.488-1.169 5.353.525 1.154.888 1.768 1.572 1.614 1.48-.971 3.895-2.922 5.079-4.106zm126.438 2.848-3.597-2.37.14 2.534 3.884 2.295zm-138.093-2.394c-1.318-1.665-2.867.46-1.867 1.39.726.638 2.559-.014 1.867-1.39m-3.118.23c-.164-.519.79-1.351.94-1.682.437-.964-3.467-3.649-4.682-2.06-.838 1.095-.258 2.191 1.998 3.692 1.361.905 2.014.905 1.744.05m140.863-1.529-3.325-2.073.057 2.188 3.531 2.131zm-5.865 1.955.001-2.235-3.349-2.338-.056 2.314zm-130.268-2.713c.608-.601.403-.796-.773-.736-.743.038-.971-.086-1.021.254-.111.753 1.169 1.099 1.794.482m-2.788-.847c.061-.155-.36-.461-1.045-1.037-1.308-1.098-1.456-1.781-.197-2.636 1.795-1.218-.086-2.954-2.169-2.25-1.683.569-1.689 2.263-.69 3.354 1.37.913 3.854 3.548 4.101 2.568zm133.059-2.161-3.294-2.261-.001 2.2 3.294 1.924zm-132.438.071c1.468-.747 1.548-2.623.077-1.937-.606.283-1.401 1.051-1.403 1.398-.004.676.576.92 1.326.539m1.08-4.306c1.903-1.021 1.612-1.971-.283-3.159-2.312-1.327-3.934 1.215-2.029 2.947.997.906 1.228.794 2.312.213zm2.468-1.842c3.094-3.321 5.144-3.15 9.228-3.059 10.532.101 13.763-4.931 13.432-8.461-5.12 2.539-9.687 1.172-14.559 1.905-8.407 1.872-9.395 5.824-9.982 8.086zm42.229-11.295c2.714.026 2.592.109 1.477-2.123 2.642.363 3.707 1.629 2.836-1 1.401.5 2.241.885 3.688 1.362l.919-.532c-5.587-5.443-11.79-.837-10.159 4.651l2.077-.992z" style="fill:#131f67" transform="matrix(.75191 0 0 .75079 -1.112 3.453)"/><path d="m101.076 286.004 1.303-6.298 11.602.57s1.345 3.955 1.89 5.736zm-26.793-.168 6.161-10.162 8.74 2.376-2.016 7.946zm17.003.162 2.654-10.85c-5-1.104-9.716-1.83-15.234-3.322l-8.967 14.149-5.39-.146c4.647-6.184 13.135-18.674 13.135-18.674 19.45 6.703 39.062 7.843 58.81 4.319 0 0 7.27 9.601 9.874 14.807l-5.13-.255-6.368-10.678c-4.439.479-8.805 1.068-13.436 1.258l3.166 9.411-5.095-.003-2.885-9.384c-5.555-.218-10.224.213-16.881-.832l-2.353 10.199zm36.712.024-1.751-6.674 6.262-.728s2.901 5.09 4.49 7.403zm-56.155-62.033c7.794-11.832 35.318-49.98 35.318-49.98l4.004.384s-24.445 34.054-36.319 51.326zM32.14 205.554l9.587 6.911.039 53.764-9.75 6.854zm39.862-87.935 5.799 11.364c-24.679 23.356-19.855 50.782-6.651 70.35 0 0-1.711 4.375-5.436 9.02-17.872-11.8-23.294-42.444-23.157-42.772 19.712-17.562 22.371-23.157 29.445-47.962m100.748 83.809c1.283-17.301 9.752-28.605 19.238-35.51l.475 17.599c-6.211 5.954-12.779 12.102-19.714 17.911zm-25.746-17.442c21.613-20.162 22.365-48.81 6.64-69.848l6.445-8.99c9.123 9.775 18.069 20.018 21.866 43.813-13.686 10.775-25.784 28.586-29.01 46.57zm-29.753-23.488-.035-8.245 8.079-.036-.235 8.232zm-17.081-.074-.111-8.216 7.988.062-.129 8.329zm13.845-21.991s26.796-37.463 37.313-50.985l2.232 1.644-35.635 49.552zM51.49 112.19c-.034 14.787-9.52 26.499-19.206 34.138l.141-16.835zm5.654-26.906c-37.11 155.556-18.555 77.778 0 0m135.061-44.371.02 65.632-9.045-5.454.798-55.039zm-43.131 3.863c-20.423-5.322-39.031-6.922-58.596-2.74-2.548-3.042-11.109-15.711-11.109-15.711l4.945.075 6.993 11.206 13.335-1.735-3.428-9.115 5.497.027 2.734 8.938c-.028-.07 10.848.113 16.891.833.963-3.318 2.754-9.911 2.754-9.911h6.056c-.78 3.169-2.873 10.706-2.873 10.706 4.959.692 14.158 3.036 14.242 3.137 3.23-4.56 6.233-9.12 9.154-13.68l5.901-.025c-1.74 2.944-12.17 18.142-12.497 17.995zm-3.764-7.87-9.023-2.109 2.361-7.951h12.613zm-51.817-2.905-4.192-7.383 8.073.004 2.67 6.502zm18.328-1.493-1.219-5.878 14.662.008-1.502 6.26z" style="fill:#d40000" transform="matrix(.75191 0 0 .75079 -1.112 3.453)"/><path d="M57.737 22.971 67.54 37.1c.046-.046 5.494-1.084 10.85-1.346 5.324-.26 11.673.072 11.728.233 0 0 1.675 5.05 2.243 7.531.75 3.314.672 7.128-.12 9.659-1.16 3.708-1.772 4.82-4.363 7.367-1.921 1.86-4.637 3.884-7.438 4.965-3.88 1.618-4.276 1.61-6.562 1.716-1.512.07-1.666.13-2.494.558-.254.088-.42.354-.648.43-.191.065-.555-.007-.555-.007-12.611 5.519-22.483 11.673-29.94 17.168l-.226.416c-.611.499-1.173.877-1.768 1.332l-.347.013c-8.774 6.75-13.745 12.222-15.573 13.803l.18 31.427s3.994-2.05 6.043-3.298c1.439 12.168 7.517 23.989 17.114 32.198l-4.162 5.732-19.187-13.19.266 57.986 10.202-7.073v-6.116c3.04 2.043 6.007 2.84 8.165 12.15 1.726-3.27 1.575-8.14.802-11.394.013 0 2.59-2.127 3.38-3.757l-3.791-3.356s.982-8.13-.805-9.768c-1.414 3.69-2.542 7.6-7.826 10.448l-.066-28.245c2.634 1.666 5.125 3.542 7.728 5.25l.359-.071 2.693 1.843s-.285.576-.546.97c-3.273 4.957 2.18 11.037 6.617 7.38 1.737-1.433 4.997 4.522 5.613 10.251.626 3.7.963 8.296 1.97 11.51.31.937.189 1.464-.474 2.033-3.4 4.776-10.234 14.4-10.234 14.4h4.924l.356-.563h-3.63c3.126-4.154 6.11-8.993 9.353-13.048 12.086 4.542 31.881 5.59 43.836 2.836 2.47 3.458 4.87 7.083 7.244 10.605h-3.438l.474.738h4.65l-9.797-14.401c-6.753 2.006-23.216 1.224-22.916 1.058 0 0-.045-.112-.616-1.745-2.826-9.111-3.088-17.198 4.002-23.733 3.767-3.344 7.974-5.55 12.67-5.131 2.101-.042 2.14-.155 3.017-.55.483-.217 1.482-.443 1.482-.443l4.759-2.635.628-.125 1.369-.72.283-.335 2.21-1.122.249.02 2.99-1.717.04-.243 1.177-.724.28.295c.327.027 11.721-7.44 16.473-11.602l.295.11c5.55-4.484 13.095-11.554 15.333-14.238l-.12-13.452-.19-.163-.076-14.896h-.433l-.019-1.838c-2.453.908-5.154 3.183-5.335 3.089-1.563-12.611-7.379-24.228-16.881-32.76l4.046-5.578 18.79 12.623.05-3.688h.234c.23-14.14.357-50.792.357-50.792l-.186-.018-.003-2.927-9.604 6.123-.135 6.185c-4.258-1.389-6.954-6.496-7.848-11.047-1.241.497-1.817 5.29-1.359 11.36-1.316.785-2.159 1.642-2.965 2.68 1.043 1.312 2.2 2.387 3.476 3.487-.267.572-.83 8.673-.27 9.678.256.741 1.143.635 1.147-.144 1.296-6.318 7.297-10.464 7.633-10.082l-.146 29.13-10.662-7.461c2.238-2.524 2.71-6.781-.11-8.864-2.828-2.089-5.596-.317-6.25 1.011-3.463-2.252-4.627-10.599-5.133-13.866-.126-1.59-.533-3.748-1.005-5.695-.295-1.22-.646-2.387-.692-3.48-.02-.515.042-.737.51-1.382l10.365-14.684-5.292-.018-.05.09 4.162.012-9.35 13.255c-14.063-4.412-28.646-5.479-44.247-2.68L58.768 23.22l3.504-.014-.138-.233zm8.132.124.15.266 6.057-.018-.091-.225zm8.982.033.117.32 4.133.014-.127-.313zm21.102.113-.042.146 4.555.007.04-.146zm-13.956.004.044.185h10.987l.04-.174zm21.157.098-.044.152 9.484-.007.08-.146zm40.015 8.077.03 1.993-6.37 4.043c-.16 8.525-.405 41.316-.405 41.316l-1.527-1 .299-41.061s5.636-3.617 7.972-5.292zm-16.717 1.604h.215l.065.461h-.371zm.452 1.203.167.626-.932-.004.156-.604zm16.08.324v1.302l-5.496 3.43V37.99zm-16.965 1.083 1.438.018.24.72h-1.81zm-35.3.385.962.144c2.202 5.247 2.772 9.754 3.154 14.443.879 6.085 2.65 12.186 3.882 14.779l-1.41-.014c-.163-.021-3.138-8.832-3.758-14.034-.166-1.03-.1-1.987-.153-2.942-.313-4.023-.865-7.046-2.677-12.376m1.806.212 1.228.125c.857 3.727 2.107 7.244 2.615 10.987.812 5.988 1.245 12.103 4.138 18.005l-1.148-.011c-1.755-3.99-2.84-8.152-3.54-12.652-.547-2.58-.552-4.518-.841-6.851-.352-2.802-1.433-6.363-2.452-9.604zm1.865.173 1.227.182c.808 3.7 2.194 7.772 2.56 11.117.748 6.812 1.819 13.16 3.97 17.663l-.859-.025c-3.324-6.43-3.377-12.159-4.308-18.184-.548-3.548-1.712-7.097-2.59-10.753m1.956.288 1.085.167c.753 3.682 2.107 7.85 2.422 11.583.557 6.61 1.732 11.614 4.196 16.95l-1.016.018c-2.976-5.197-3.375-11.576-4.301-18.037-.512-3.569-1.666-7.16-2.386-10.681m46.637.008v1.61l-5.496 3.525v-1.59zm-44.863.313 1.132.174c.73 3.55 2.087 7.34 2.408 10.797.547 5.908 1.636 11.875 4.075 17.372l-1.045.066c-2.58-5.551-3.704-10.604-4.192-16.983-.274-3.578-1.653-7.938-2.378-11.426m29.934.018.393.956-2.633.128.033-1.073zm-28.07.334 1.348.262c1.427 5.664 1.801 11.027 2.774 16.41 1.215 6.688 2.495 10.05 3.541 11.297l-1.114.037c-2.72-5.791-3.684-11.55-4.316-17.515-.373-3.519-1.53-6.987-2.233-10.491m2.055.383 1.027.207c1.225 4.628 1.777 8.958 2.316 13.148.98 7.958 3.634 14.01 4.2 14.29l-1.133-.051c-2.456-3.39-3.366-9.162-4.574-17.306-.531-3.58-1.06-6.95-1.836-10.288m1.653.33 1.151.284s1.038 4.073 1.821 9.478c.653 4.504.997 13.367 5.9 18.463 2.449 2.544 6.76 4.754 9.703 2.353 1.258-1.07 2.067-2.785 1.312-4.619-1.271-3.07-5.573-2.544-4.141.677.16.772-.85.805-1.555.05-.74-.805-.556-1.724-.03-2.569 1.105-1.78 4.068-1.963 5.806-.372 2.778 2.716 1.576 7.378-1.941 8.856-4.052 1.718-9.274-1.83-11.341-5.215-3.422-5.899-3.95-11.497-4.753-17.452-.408-3.216-1.193-6.592-1.93-9.932zm1.734.477 1.17.284c.003.016 1.28 5.74 1.704 9.132.523 4.192 1.101 9.13 2.9 12.943 1.117 2.37 2.743 4.366 4.388 5.527 1.414 1 2.683 1.63 4.564 1.222 2.172-.473 2.265-3.829.193-3.837-1.059-.004-.37-1.022.51-1.05 3.122-.104 3.213 4.812.272 5.909-3.367 1.256-7.007-1.112-9.262-4.085-3.944-6.116-3.788-11.695-4.654-16.627-.232-2.597-1.697-9.296-1.784-9.418zm23.633.172.714.952-3.966-.018.018-.905zm-21.892.316 1.118.389c.031 0 1.122 4.443 1.8 9.695.804 5.063 1.066 9.278 3.693 12.935 1.092 1.522 3.155 3.551 4.454 3.793.804.173 1.638-.004 1.843-.615.335-1 1.194-.54 1.213.367-.004.635-.471 1.295-1.26 1.524-3.86.667-7.393-4.172-8.465-6.626-1.452-3.569-2.073-7.558-2.702-12.524-.266-2.102-1.54-8.805-1.694-8.939zm35.816.178-.018 1.603-5.478 3.448v-1.56zm-34.134.313 1.252.341s1.045 3.908 1.668 8.736c.633 4.896 1.99 10.583 4.527 13.524.231.282.39.482.488.648.182.4-.034 1.075-.221 1.076-4.52-2.348-5.589-11.785-5.977-14.976a76 76 0 0 0-1.737-9.35m17.576.757 3.989.112.95.935-5.28-.047c-.558-.575-.21-.509.341-1m16.558 1.301v1.332l-5.496 3.476v-1.36zm-16.42.422 5.836.102 2.046 1.215-8.915-.073zm16.42 1.688v1.596l-5.496 3.44V47.24zm-18.579.302 9.914.105.026 1.073-10.752-.276zm-1.293 1.836 11.214.03.03 1.185-10.199-.098zm19.87.182v1.665l-5.495 3.4V49.51zm-17.762 1.746 8.596.04-.933.992-6.483-.065zm17.763.585v1.57l-5.496 3.452v-1.549zm-11.294 1.2-1.041 1.011-4.455-.061.153-.92zm11.294 1.102v1.684l-5.496 3.353v-1.458zm-16.852.615 3.675.08-.561.771-3.216.015zm-33.048 1.342c.554 4.235 3.632 12.774 3.63 12.771l-1.212.012c.06.081-2.2-5.38-3.016-10.525-.1-.491.238-2.146.597-2.258zm32.808.244 2.83.05-.616 1.092-2.305-.004zm17.093.258v1.473l-5.496 3.375V56.62zm-17.184 1.491 1.876.058-.444 1.011-1.454-.043zm17.184.793v1.57l-5.496 3.405v-1.517zm-51.06.335c.553 3.085 2.897 9.28 3.075 9.688l-1.038.014c-.047.141-2.436-5.556-2.692-7.994-.122-.51.148-1.52.656-1.71zm33.857.654 1.11.051-.189.579-.899.021zm.099 1.39.579.014-.139.548h-.36zm17.103.029v1.268l-5.496 3.474v-1.204zm-52.435.138c.834 2.473 1.668 4.992 2.655 7.404l-1.23-.03c-.817-1.738-1.39-3.692-2.026-5.61-.175-.801.199-1.486.601-1.764m-1.227 1.65 2.047 5.71h-1.162c-.478-1.148-1.016-2.432-1.392-3.614-.386-1.226-.35-1.266.507-2.095zm53.663.357v1.506l-5.496 3.396v-1.298zm-54.52 2.21 1.122 3.161-1.434-.036c-.42-.995-.678-1.865-.784-2.833-.039-.47-.124-.94.204-1.137.648-.366.575-.064.892.844zm-1.524 1.294.596 1.854-1.34-.033c-.394-.876-.545-1.506-.426-2.424.806-.93.866-.443 1.17.603m56.043-1.088v1.574l-5.496 3.298v-1.462zm-57.946 1.13.561 1.826-1.209-.029c-.2-.428-.073-.95-.08-1.433zm-1.584.935.04.014c.173.808.004.858.014.851l-1.69-.011s1.37-.868 1.635-.855zm59.53.473v1.258l-5.496 3.422V68.31zm-65.35 1.993 33.027.094 1.1 1.553s-3.213.087-13.739.022c-8.86.114-26.663-.19-26.663-.19l1.734-.814c2.398-.056 4.575-.678 4.541-.665m65.35.185v1.385l-5.496 3.324V70.45zm-92.935 1.33c-2.656 1.175-5.134 1.464-6.986 1.314-3.988-.322-10.09 1.343-11.316 5.168-.385 1.35-.39 1.388.342 2.077.363.341.715.6.782.574.642-.568 1.493-1.623 2.404-1.931 1.199-.362 1.848-.411 3.813-.499 4.234-.186 5.19-.364 6.243-.643 2.317-.613 4.654-2.888 4.795-5.424a2.4 2.4 0 0 0-.079-.636zm-.113.347c-.447 5.29-6.187 5.98-8.708 5.83-5.112-.306-7.125 1.218-7.935 2.164-.267.254-.422.194-.38-.037.594-2.93 5.335-3.04 7.721-3.007 5.85.266 7.33-2.55 7.165-2.578-.443.199-.773.374-1.222.586-.194.08-.153-.037-.658-.33-.009.04-.586 1.349-1.333.107.019.062-.531 1.103-1.552.13.007.105-.616.997-1.613.084-.937.802-1.384.36-1.787-.203-.295.177-1.165 1.348-1.889.088-.772.49-1.094 1.022-1.758.7-1.55.277-2.892 1.866-3.438 3.32-.17.5-.516.578-.557.03-.184-1.518 2.318-4.147 4.83-4.873 1.952-.565 3.284-.972 7.575-.809 2.441.093 5.54-1.202 5.54-1.202m62.655.4 1.548 1.047-26.94 37.09-2.379-.062zm-43.217.025h3.063v5.055h-2.64l-.944-1.4c.244.144.527.23.83.23.906 0 1.643-.736 1.643-1.641a1.64 1.64 0 0 0-1.643-1.637 1.64 1.64 0 0 0-1.643 1.637l.018.236-.987-1.462s.42-.249 1.42-.694c.259-.115.881-.324.881-.324zm9.44 0h5.19v5.055h-5.19zm11.37 0h5.373v5.088l-5.372-.033zm11.6 0h5.369v5.055h-5.369zm41.12.12.08 1.579-5.496 3.335v-1.56zm-38.632.524c-.96 0-1.741.774-1.741 1.732a1.74 1.74 0 0 0 3.478 0c0-.957-.779-1.732-1.737-1.732m-22.851.091a1.733 1.733 0 1 0 0 3.466 1.734 1.734 0 1 0 0-3.466m11.32.033a1.733 1.733 0 1 0 0 3.466 1.734 1.734 0 1 0-.001-3.466m5.848.208a1.456 1.456 0 1 1 0 2.91 1.456 1.456 0 1 1 0-2.91m-23.028.021a1.455 1.455 0 1 1 0 2.91 1.456 1.456 0 1 1 0-2.91m34.52.051c.345 0 .66.132.898.346l-1.588 2.153a1.344 1.344 0 0 1 .688-2.498zm-22.808.008a1.455 1.455 0 1 1 0 2.91 1.456 1.456 0 1 1 0-2.91m-17.59.105c.6 0 1.084.485 1.084 1.083a1.086 1.086 0 1 1-1.085-1.083m-3.333.058c9.256 11.77 14.174 23.7 16.338 36.704l-1.551-.073c-2.573-14.142-8.362-26.271-16.215-36.06Zm37.92.011a1.15 1.15 0 0 1 1.152 1.146 1.151 1.151 0 0 1-2.302 0c0-.634.515-1.146 1.15-1.146m-22.85.09a1.15 1.15 0 0 1 1.151 1.147 1.151 1.151 0 0 1-2.302 0c0-.634.516-1.146 1.151-1.146m11.32.034c.634 0 1.15.512 1.15 1.146a1.151 1.151 0 0 1-2.302 0c0-.634.516-1.146 1.152-1.146m28.8.822c.61 4.658-.594 7.666-4.151 8.154-4.537.621-5.125.962-5.15 5.25-.03 5.084-.783 6.552-4.389 6.954-4.057.452-5 .931-4.636 5.968.265 3.674-1.185 5.238-4.309 5.92-2.442.533-4.557 1.35-5.463 3.808l-2.233.029c.58-3.871 4.477-5.72 6.975-5.848 2.693-.637 3.255-1.54 2.819-6.251-.329-3.548.975-4.626 5.15-5.437 3.337-.656 4.155-1.613 3.974-4.338-.39-5.844-.005-6.723 3.32-7.434 1.696-.4 4.455-.58 5.508-1.873 1.197-1.47.892-2.722.783-4.527zm21.442.156v1.527l-5.496 3.386v-1.487zm-80.778.906c-1.176 5.066 2.865 6.167 5.325 7.022 2.86.995 3.555 2.435 3.23 7.47-.246 3.807.174 4.649 2.644 5.956 3.778 1.946 4.792 4.712 3.114 8.761-1.035 2.496-.491 3.196.164 5.375l-1.832-.018c-.134.042-1.68-2.718-.36-5.688 1.563-3.519 1.519-5.286-1.968-6.87-2.697-1.225-3.525-2.38-3.693-4.902-.07-1.061-.063-1.59.186-3.898.313-2.91-.725-4.161-5.034-5.76-1.92-.713-3.224-2.37-3.616-5-.11-.737-.012-1.586-.012-1.586zm64.436.548 16.385 10.885-.113 2.422-17.383-11.598zm-10.559.24a1.433 1.433 0 1 1 0 2.865 1.433 1.433 0 1 1 0-2.865m-51.55.626a1.3 1.3 0 0 1 0 2.6 1.3 1.3 0 1 1 0-2.6m78.403.153-.055 1.458-5.394 3.33v-1.457zm-85.509 1.018c4.955 6.448 9.825 13.093 13.581 25.613l-1.602.615c-3.101-10.077-7.87-18.45-13.494-25.373Zm12.942-.062h37.33l-.958 1.288-35.663-.364zm72.615 1.211v1.596l-4.134 2.513-1.217-.793zm-87.749.171.733.96s-.793.621-1.69 1.263c-2.445 1.745-2.762 1.943-2.926 3.08-.386 2.7 2.393 4.03 5.183 2.47 1.001-.457 3.195-1.845 3.195-1.845l.63.928s-3.145 2.348-4.99 2.883c-4.048 1.175-7.07-3.947-4.08-6.99.458-.464 1.424-1.089 2.193-1.585a99 99 0 0 0 1.752-1.164m16.663.637 34.395.203-21.965 29.977-.976-.055c-1.703-11.212-5.926-21.008-11.455-30.126zm-14.999 1.269 2.01 2.804s-1.31 1.252-3.474 2.432c-1.735.948-3.612-.774-2.52-2.327 1.121-1.541 3.984-2.91 3.984-2.91m86.085.287v1.462l-2.382 1.458-1.09-.694zm-86.336 1.124c-.954.05-2.535 1.13-3.074 2.062-.231.4-.148.736.066 1.011.325.418.71.394 1.853-.215 2.336-1.242 2.773-1.98 1.745-2.71a.9.9 0 0 0-.503-.149zm-.077.6.47.018c.404.166.28.668-.142.785-.092-.146-.793-.165-.746.546-.171.403-.164.373-.678.43a.555.555 0 0 0-.634.302c-.354.189-.79.13-.87-.084-.079-.207.212-.805.458-.803.12.01.33-.167.547-.313-.008-.39.45-.445.583-.444.13.027.568.033.78-.324a.32.32 0 0 1 .232-.112zm86.413.35v2.254l-1.727-1.102zm-95.438.283c6.264 7.386 10.776 15.246 13.647 26.125l-1.256.866c-1.898-7.627-4.82-15.688-13.464-26.166Zm73.29.124c2.836 2.405 14.459 13.328 16.674 32.715l-1.555.952c-1.25-10.232-5.28-21.964-16.124-32.362zm-5.606.673c.793 0 1.435.642 1.435 1.432a1.434 1.434 0 0 1-2.87 0c0-.791.643-1.432 1.435-1.432m-69.428.56s1.316 1.351 1.315 1.672c-.005.637-.511.998-3.536 2.099-.51.185-2.746.7-2.746.7l-.082-1.083c1.14-.41 4.202-1.143 4.426-1.792.11-.255-.436-.902-.32-.902zm20.87.274c.72 0 1.3.584 1.3 1.302a1.3 1.3 0 0 1-1.3 1.302 1.303 1.303 0 1 1 0-2.604m52.725.373c9.469 9.235 14.68 20.647 15.898 32.432-11.028 8.954-18.52 20.213-21.496 34.296-1.47-2.448-2.723-5.263-4.083-8.015 14.714-12.911 17.81-36.163 5.084-52.462zm-57.91 1.76.664 1.025s-.139.126-2.2 1.404c-3.016 1.87-3.513 3.088-2.507 5 1.03 1.956 2.177 2.06 5.416.495 1.144-.552 2.116-1.134 2.116-1.134l.518 1.073s-1.45 1.178-4.243 2.2c-2.627.961-5.11-.677-5.577-3.706-.34-2.202.623-3.383 4.455-5.553.43-.228 1.358-.804 1.358-.804m45.118.487a1.433 1.433 0 1 1 0 2.865 1.433 1.433 0 1 1 0-2.865m-58.514.054.867.816s-.373.549-2.509 1.832c-1.92 1.153-2.117.966-1.161 1.773 1.782 1.503 4.253 4.831 4.24 5.69-.013.829-.756 1.592-2.181 2.233-.78.35-3.867 1.45-4.32 1.528-.902.099-1.156.46-.254 1.278 1.532 1.754 2.839 5.509 2.313 6.653-.592 1.289-1.302 1.507-6.974 1.766-.647.03-.955-.153-.605.673.255.6.522 1.424 1.028 3.971.45 2.271.373 3.292-.51 3.76-.508.269-4.453.174-6.082-.146-1.866-.365-2.069-.39-1.767.822.391 1.676.635 6.164-.634 7.03-.527.343-1.096.26-3.412-.52-1.478-.497-2.758-1.066-2.758-1.066l.026-1.392c1.204.495 4.506 1.919 5.444 1.469 1.114-1.593-.432-7.179-1.023-8.375-.713-1.429.032-1.74 1.675-.854.863.606 8.29 3.53 7.868.915-.452-2.483-1.26-5.308-2.827-7.083-1.449-1.641-.728-2.313.885-1.593 2.854 1.274 8.752.961 8.458-.358-.39-2.147-2.342-5.056-5.015-7.312-.743-.628-.771-.896.105-1.05 2.497-.199 9.641-.932 8.642-2.607-.857-1.37-2.001-2.886-2.976-3.702-1.6-1.34-3.215-1.921-3.93-2.2l.045-1.027c3.253-.27 4.945-1.247 7.34-2.923zm-7.877 1.011c-1.167 12.213-6.284 22.275-16.845 29.293l-.058-1.367c9.286-6.964 13.743-16.861 14.951-26.438zm22.5.768.008.003s1.7 3.05 1.697 3.328c-1.008.933-3.656 2.299-4.738 1.978-1.67-.531-1.932-2.31-.328-3.36 1.385-1.008 3.11-1.884 3.344-1.946zm-13.533-.19.868.777s-.223.338-1.473 1.336c-.973.747-.633.453.03 1.342.59.706 1.639 2.124 1.639 2.124l-.314 1.887c-1.099-1.563-2.01-2.7-3.642-4.37-.829-.854-.783-.877.4-1.492.887-.49 1.61-1.084 2.492-1.604m23.71 1.216a1.3 1.3 0 1 1-1.304 1.298 1.3 1.3 0 0 1 1.304-1.298m-10.533.108c-1.24.327-2.456 1.433-3.139 1.92-.249.178-.053 1.069.186 1.375.306.394.871.328 1.548-.047a20 20 0 0 1 1.136-.57c.953-.44 1.353-.769 1.318-1.135-.153-.493-.543-1.577-1.049-1.542zm.07.564c.348.014.6.462.487.727-.597.323-.929.05-.852.502 0 0 .06.703-.815.72-.214-.093-.585-.077-.765.105-.612.253-1.146-.281-.48-.586.18-.081.624-.22.746-.494.063-.34.344-.61.652-.422.164.012.53.037.648-.222-.045-.291.162-.316.31-.327zm-25.034-.09c.268 1.37-.56 3.777-1.03 5.134-2.777 3.628-6.805 5.483-10.635 6.75-.85.282-1.994.139-1.994.139 5.3-5.443 9.843-9.433 13.659-12.024M27.71 89.8c.038-.305-1.359-.675-1.493-.483-.258.241-.668 4.022-.4 4.294.372.379 1.399.482 1.497.032.321-1.484.242-2.592.397-3.843m23.75-.112.907 1.123c-1.92 18.222-14.957 33.986-28.874 40.236l-.04-1.207c15.922-8.35 25.504-22.252 28.007-40.152m62.99.076 1.727 2.371-2.473.077zm-87.2.44c-.014.623-.085 1.918-.326 2.64-.15.562-.586.435-.75-.084-.171-.538-.029-2.067.294-2.694.345-.591.618-.492.782.138m13.173.331c.854 0 5.39 2.786 4.783 4.175-.482 1.104-4.278 1.194-6.018 1.04l.262-1.065s.53.184 2.552-.03c2.124-.141 1.968-.869-.466-2.407a74 74 0 0 1-1.29-.816zm12.568 1.495c1.405 2.365 2.734 5.03 3.984 8.015C39.831 116.2 41.161 138.2 51.971 152.64l-4.658 6.277c-9.314-8.874-14.385-19.79-16.098-31.385 13.595-9.766 19.983-24.34 21.776-35.5zm63.667.716 1.023 1.953-2.458-.04zm-10.617.978a1.43 1.43 0 1 1 0 2.862 1.43 1.43 0 1 1 0-2.862m-39.892.386.488 1.109c.023.138-3.468 1.24-4.593 2.654-1.037 1.307-.94 2.67-.357 3.612.996 1.34 1.701 1.528 3.38 1.014 1.37-.419 2.375-.985 3.733-1.677l.215.56c.003-.029-1.95 1.145-3.437 1.983-.559.314-1.231.446-1.814.432-3.387-.081-5.182-4.445-2.389-7.022.41-.378 1.793-1.135 2.957-1.734.776-.4 1.818-.931 1.818-.931zm44.837.687c11.183 16.104 3.527 33.752-3.693 39.996l-.193-1.895c12.157-13.827 7.928-29.974 2.862-37.152zm7.197.723.877 1.99-2.597-.273zm-45.073.652a1.3 1.3 0 1 1 0 2.6 1.3 1.3 0 0 1 0-2.6m36.543.254c9.801 14.217 4.335 36.886-14.36 43.792l-.095-1.59c19.062-7.957 20.935-29.14 13.275-41.093zm-42.484.087 1.238 3.339c-1.558 1.042-2.17 1.22-3.915 1.643-1.376.314-2.448-2.062-1.391-2.97 1.206-1.04 2.504-1.488 4.068-2.012m-31.788.011c.23-.01-.013.559-.605 1.99-1.304 3.152-1.39 3.218-4.673 3.738-1.708.27-2.981.339-4.196.221-1.831-.175-2.614-.693-1.427-.942 3.441-.755 7.246-2.535 9.72-4.258.645-.462 1.023-.742 1.18-.75zm62.296.388a1.61 1.61 0 1 1 0 3.219 1.61 1.61 0 0 1 0-3.219m-48.722.446-.138 1.24s-1.988 1.049-2.929 1.444c-.72.29-.77.355-.538 1.021.465 1.33 1.362 2.979 1.362 2.979l-.83 1.879c-.508-1.69-1.041-3.476-1.974-5.05-.885-1.233-1.05-1.386.327-1.643 1.777-.598 3.16-1.03 4.72-1.87m17.755.403c-.973.043-3.004.86-3.205 1.64-.115.44.012 1.058.385 1.197 1.012.375 3.042-.456 3.577-1.215.167-.234-.087-.72-.266-1.022-.137-.23-.11-.616-.492-.6zm.051.665h.051c.165-.014.765.744.091.68q-.348-.033-.634.262c-.023.364-.545.502-.797.379-.188-.093-.45.098-.478.21-.378.273-.856.26-.918.066-.128-.136.254-.693.587-.673.071.005.307-.155.527-.345.106-.38.508-.315.761-.295.288.116.55-.257.809-.283zm52.654.058.717 1.992-2.568-.229zm-11.037 2.296c-.532.676-1.021.683-1.796.647.634.75.915 1.787.296 2.468-.94.956-2.753-.51-2.619-.644l3.254-4.329c.863.245 1.341 1.05.864 1.858zM37.73 99.65s3.954 3.402 3.983 4.926c.011.581-.176.77-.64.924-1.554.514-5.878-.809-5.878-.809l.556-1.052c.68.187 4.03 1.053 4.318.627.3-.443-2.798-3.46-2.804-3.463zm19.628 1.422.474 1.644-1.618-.4zm63.15.295.423 2.272-2.59-.603zm-49.364.036.385 1.335c-17.177 7.953-22.192 26.217-13.235 41.29l-1.013 1.389c-11.99-19.4.154-39.09 13.862-44.014zM55.667 102.8l.234 2.026-1.996-.117zm-23.639-.053c.34.004.405.188.403.387-.001.274-1.735 2.483-2.296 2.981-1.218.491-5.919-1.47-6.62-2.987-.138-.444.325-.248 1.366-.037 2.637.75 5.309-.28 7.147-.344m45.764.026a1.3 1.3 0 1 1-1.3 1.298c0-.718.58-1.298 1.3-1.298m-54.109 1.6c1.308 1.174 3.229 2.144 4.933 2.483 1.06.233.753.342-.231 1.357-.92.96-.844 1.08-1.781.607-1.564-.791-3.264-2.59-3.194-3.568.028-.407.099-.88.273-.878m97.568.22.324 2.16-2.448-.847zm-68.016.78.798 1.934-2.171-.061zm55.163 1.847c-.002.27-.066.728-.066.728 1.277-.811 2.972-.145 2.921 1.166-.071 1.847-.976 1.865-2.455 1.62.81 1.34-.15 2.632-1.673 2.138-1.388-.45-1.12-1.912-.472-2.778-3.273.533-4.148 5.183-.368 6.564-.76-1.174-.948-2.576.7-2.812 1.532-.22 2.18.94 1.519 2.336 1.438-.5 2.794.323 2.36 1.723-.523 1.689-2.027 1.572-2.915.543.637 1.532-.837 2.635-1.95 2.042-1.754-.936-.887-2.605.288-3.05-4.517-.464-5.565 5.773-2.235 6.663-.855-.535-.952-2.992 1-2.655 1.916.385 1.46 2.163.231 2.971 1.484-.316 2.874.978 1.97 2.288-1.065 1.543-2.532.443-3.077-.608.171 1.409-.727 2.305-1.88 1.777-1.982-.907-.518-3.177 1.03-3.031-3.142-1.855-7.415 2.034-4.898 5.255-.098-1.463.632-2.663 1.638-2.498.886.1 1.661 1.107 1.412 1.9-.232.676-1.004 1.195-1.812 1.357 2.404.267 2.609 1.964 1.612 2.8-1.69 1.421-2.476-.22-2.868-1.178-.344 2.384-3.159 1.573-3.256-.15-.095-1.886 2.084-1.847 2.487-1.741.052-.065-1.687-1.783-3.542-2.027l.011-1.095c7.314-4.58 9.829-12.576 7.508-20.156l.441-.506c1.193.91 2.389 2.86 4.595 2.145 0 0-.513-.36-.767-.61-1.135-1.117-.498-2.433 1.082-2.505 1.023-.048 1.421.741 1.428 1.385zm-49.616-.004.758 1.11c-11.09 12.972-9.069 27.816-2.692 37.642l-.929 1.12c-5.644-7.225-10.252-24.743 2.863-39.872m9.451 1.793c-.015.29.006.522.006.522s.239-.296.432-.65c.947-1.582 2.986-.672 2.65 1.143-.157.852-1.594 1.184-1.985.941.373 1.014 1.381 1.253 2.609 1.692.43.082 1.165.292 1.165.292l.03.687c-6.653 4.184-10.419 11.28-7.98 20.983l-.736.992c-1.342-3.223-2.565-3.152-4.772-3.279 0 0 .548.386.864.759.669.789.372 2.166-.554 2.31-2.145.331-2.166-1.187-1.882-2.216 0 0-.385.322-.572.444-.851.553-1.911-.021-2.01-1.116-.094-1.031.259-1.698 1.321-1.826.357-.043.907.047.907.047l-.328-.633c-.508-.996.608-1.848 1.632-1.634 1.617.39 1.49 1.782.553 2.877 2.508.188 3.823-1.449 3.638-3.074-.225-1.983-1.139-3.055-3.112-3.4 0 0 .318.498.454.74.505.894-.22 1.992-1.282 1.986-1.088-.007-1.785-1.003-1.365-1.986.102-.24.51-.54.448-.568-.043-.018-.603.154-.758.178-1.308.204-2.147-.944-1.599-2.09.388-.813 1.556-1.032 2.404-.634l.324.197c.025-.04-.085-.307-.12-.495-.269-1.05.237-1.61 1.377-1.538 1.595.102 2.19 1.4 1.118 2.571a68 68 0 0 1-.703.749c.054.23 2.277.398 3.413-.79 1.314-1.372 1.52-4.239.2-5.174l-.656-.462c.629 1.26-.529 2.71-1.55 2.439-2.043-.492-1.867-2.162-.523-2.69 0 0-1.362-.508-1.755-1.055-.555-.774-.368-1.488.298-2.031.838-.673 2.03-.232 2.604.598.348-1.056.837-1.77 2.284-1.194 1.012.482 1.004 1.83-.11 2.564-.358.235-.993.454-.993.454s.958.546 2.123.558c2.25.026 4.028-2.62 3.122-4.643-.185-.411-.644-.941-.644-.941s-.05.706-.19.978c-.52 1.009-1.713 1.027-2.42.39-.642-.577-.454-1.352.044-1.879.377-.4.718-.478 1.246-.723-.6-.202-1.266-.348-1.557-.967-.27-.59-.08-1.315.637-1.765 1.295-.676 2.312.469 2.253 1.36zm-44.6-1.632c.916.528 1.527 1.325 2.382 2.021.66.535.653.63.107 1.138-1.228 1.182-1.918-.53-2.315-1.23-.487-.937-.537-1.894-.174-1.929m98.194.327.152 2.287-2.552-.978zm-70.358.134.918 2.08-2.371-.01zm49.543.004c2.229 8.223-.905 14.127-6.85 18.75l-.66-.862c4.648-3.942 8.126-8.589 6.588-16.866zm-27.315.036 26.14.48-.783 1.374-2.037.012-4.039 7.127-18.786-.003zm-38.246 5.948c-.912 1.437-6.341-1.656-6.27-1.819l.68-.654c.862.35 3.547 1.828 4.14 1.594.208-1.345-1.374-3.087-1.97-4.246l.664-.832s3.443 4.451 2.756 5.957m8.91-5.232-.905 1.632c-.846.259-3.399.304-3.605.473.308.837.647 3.293.647 3.293l-1.006 1.286a60 60 0 0 0-1.113-5.044c-.338-1.243-.243-.97 2.408-1.175a23.6 23.6 0 0 0 3.573-.466zm5.36 1.967 1.075 1.906-2.179.021zm-26.175.128c.118-.049.792.706.908.923-.05.496-.819.767-.938.59-.048-.072-.061-1.184.015-1.491zm98.602.025-.022 2.386-2.59-1.146zm20.56.539-.037 1.545c-9.39 4.58-23.396 16.874-27.392 38.927l-.82-.902c3.993-21.055 17.775-33.505 28.248-39.57M48.25 113.38l1.169 1.757-2.11.23zm73.948.673-.207 2.113-2.55-1.411zm-49.055.44c.01.502.054.863.084 1.363-5.786 3.74-7.742 9.627-6.778 17.034l-.801 1.182c-1.883-6.717.018-14.992 7.495-19.58zm67.088.436c.59.346 2.501.909 2.501.909l-.02 1.404-3.938-1.41zM27.11 120.906c-.847.69-2.8-.458-3.688-.926l-.026-1.185s.677.347 1.359.618c1.4.62 1.404-.119.637-2.189-.27-.728-.537-1.57-.537-1.57l.92-.872s2.205 4.956 1.334 6.124zm19.767-4.446 1.507 1.574-2.101.48zm91.908.19c1.334 0 3.907 1.083 3.907 1.083l-.017 1.558c-1.307-.377-2.824-1.103-4.205-1.306-1.091-.151-1.027.46-1.034 1.998-.008 2.086.517 3.97 1.516 6.056.827 1.727.396 2.189-.955 1.418-2.43-1.666-7.611-2.923-8.409-1.954-.82.997.795 5.962 2.662 8.329.758.962.806 1.115.452 1.49-.288.304-.751.323-1.57.062-2.694-.856-6.592-1.048-7.715-.323-1.114.72 1.787 5.69 4.221 7.294 1.58 1.125 1.275 1.685-1.278 1.742-4.169.02-7.375.948-7.197 2.084.303 1.93 3.002 4.58 6.1 5.986 1.897.773 1.104 1.08-.156 1.528-2.109.71-4.135 1.849-6.119 2.912l-.954-1.219s1.996-1.266 4.166-2.483c.51-.286.484-.39-.229-.986-2.312-1.936-4.008-4.096-4.363-5.55-.345-1.413.361-2.305 2.462-3.102 1.297-.493 1.776-.638 2.92-.895 1.651-.37 1.678-.42.973-1.688-.317-.568-.835-1.506-1.151-2.083-2.459-4.199-1.163-5.714 4.545-5.8 1.402-.074 1.669-.079 1.592-.562-.304-1.978-1.18-4.25-1.055-5.925.262-2.527 2.865-3.138 7.44-1.998 1.06.264 1.133.21.947-.644-.886-3.848.037-7.32 2.502-7.026zm-16.79.268-.401 2.451-2.437-1.618zm-91.122.578 6.72.44-1.067 1.25-4.061-.076-.153 3.462-1.3 1.113zm43.552.266h5.533l-.044 5.84h-5.513zm6.592 0h5.15v5.84l-5.106.055zm6.166 0h5.521l-.05 5.84h-5.467zm48.221.465c-.13 1.502.185 4.217.312 5.383-.09.347-.33.297-1.776-.03-1.002-.334-3.782-.433-3.782-.433l1.165-1.232c.952.114 1.704.105 2.69.227-.014-.984.027-2.86.027-2.86zm-89.406 1.157 1.544 1.552-1.977.506zm75.46.505-.615 2.499-2.237-2.008zm21.181 1.327.009 1.275-2.2-.988c-.024 1.454 1.265 4.08 1.265 4.08l-1.046.492c-.905-1.477-1.534-2.804-1.586-4.468.011-.602-.072-1.621.472-1.649 1.118-.026 2.054.352 3.087 1.258zm-97.395 1.262 1.836 1.09-2.036.823zm75.511.56-.899 2.571-1.963-2.225zm-97.345.818 4.953 1.677-.881.934-4.115-1.298zm69.494.68.408 9.11-26.172-.214.91-1.288 1.702-.014 4.48-7.543zm-48.01.71 1.946 1.37-2.021.892zm97.864.803.004 1.491c-6.32 4.662-13.151 12.695-14.314 26.9l-1.704 1.455c.831-13.87 6.616-23.432 16.014-29.846m-23.055.055-.918 2.313-1.817-2.153zm17.807 3.145-.609.68c-.171.058-2.581-1.231-4.476-1.534.62 1.226.914 2.14 2.287 4.08l-.885.874c-.267-.06-3.7-5.123-2.792-6.267 1.476-.992 5.053 1.089 6.475 2.168zm-10.277-2.719c-.038 1.375 1.076 5.643 1.076 5.643-1.723.084-3.393-.113-5.254.408l.876-1.56s.81-.084 1.518-.225c1.465-.29 1.313-.115.973-1.386-.32-1.196-.337-1.445-.337-1.445s1.043-1.443 1.148-1.435m-96.59 1.476c2.262 13.676 7.666 23.068 16.19 31.518l-.868 1.131c-10.02-9.156-15.49-20.81-16.92-31.77Zm14.103.574 1.843 1.004-1.894 1.102zm97.987.04-.011 2.007-1.154-1.163a7 7 0 0 1 1.166-.844zm-24.293.41-1.256 2.302-1.64-2.18zm24.158 5.208c-.258-.405-2.56-1.834-3.603-2.433-.066-.177 1.617-1.678 1.951-1.781 1.672.232 2.208 3.565 1.652 4.215zm-97.827-2.502 2.084 1.014-1.89 1.331zm69.309-.002 2.674.252-1.42 2.204zm24.748.98c.348.001.737.147 1.224.417 1.883 1.048 2.872 2.196 2.767 3.215-.048.469-.31.562-.615.222-.55-.614-2.403-1.412-4-1.724-1.209-.237-1.32-.34-.957-.898.55-.848 1.003-1.237 1.58-1.233zm-32.214.966c2.896 10.95 7.988 19.376 14.379 26.311l-1.326 1.128c-4.853-5.56-10.191-12.066-14.55-26.133zm5.782.586 2.676.404-1.567 1.992zm-37.734.116c.31.01-.92 4.671-5.171 4.993-2.691.446-2.994.898-3.034 5.08-.055 5.67-.972 6.996-5.613 7.346-3.073.232-3.477.857-2.957 5.262.495 4.193-1.092 6.332-5.008 6.328-3.39.28-4.792 1.86-4.79 4.996.002 1.272.022 1.579.022 1.579l-2.192.17s.006-2.065.171-3.068c.668-4.06 2.41-5.685 6.079-5.667 2.836-.215 3.277-.675 3.18-4.968-.11-4.366-.169-4.336.972-5.48.734-.737 1.574-1.068 3.063-1.208 4.639-.436 5.005-.745 4.994-5.495-.43-3.945.662-6.362 3.172-6.56 5.08-.402 4.959-3.155 4.735-3.27l2.364-.036zm10.387 0c2.98 16.042 12.405 31.065 17.577 36.61l-1.01.534c-7.539-9.349-14.39-20.086-17.78-37.118zm-5.379.008 2.357.025-27.145 38.145-1.431-1.077zm3.293.025c2.55 9.247 4.556 18.289 12.575 30.384l-34.017-.221zm9.393.036c.197-.091.997 4.678-.194 6.881-1.071 2.98-.548 4.66 1.782 5.746 4 1.865 5.009 3.727 4.501 8.306-.355 3.206.617 4.755 3.631 5.785 3.596 1.23 5.169 3.16 5.15 6.324-.003.486-.186 1.04-.186 1.04l-2.006 1.178s.024-.43.102-.945c.523-3.508-.143-4.46-4.29-6.113-3.918-1.562-4.889-3.369-4.222-7.874.218-1.469-.083-2.954-.692-4.073-1.024-1.822-3.29-1.804-4.92-3.469-1.346-1.426-1.496-3.417-.349-6.825.711-2.113.818-2.914.265-4.674-.364-1.16-.506-1.262-.506-1.262zm-47.245.51 2.309.636-1.737 1.8zm91.647.477c.793-.022 2.324.255 3.578.879 2.877 1.43 3.4 2.604.877 1.97-1.422-.356-3.465-.276-5.437.212-2.085.514-2.04.537-1.322-.72.909-1.593 1.146-2.31 2.304-2.341m-5.222 1.69-.523.898c-1.144-.189-2.345-.749-4.087-.611.715 1.364 1.56 2.07 2.696 3.273l-.423.902c-.101.121-3.317-2.557-3.962-4.356-.291-.814-.027-1.167 1.143-1.197 1.746-.026 3.504.471 5.156 1.09m-42.968-.883c.862 0 1.559.697 1.559 1.556a1.56 1.56 0 1 1-3.118 0c0-.86.697-1.556 1.56-1.556m21.969.422 2.634.472-1.756 1.964zm-49.25.02c.623-.05 1.585 1.155 1.582 1.158l-3.192 4.403c-1.518-.305-1.194-2.602.197-2.673.321.003.909.057.909.057s-.428-.234-.675-.56c-.932-1.125-.05-2.288 1.18-2.386zm59.575-.394s2.54 5.019 2.38 5.21c-1.576.693-3.296 1.051-5.027 1.681l.333-1.458s.576-.042 2.511-.778c.926-.352-1.01-2.924-1.01-2.924zm-17.579 1.483c3.708.03 3.755 4.573 3.045 6.077-.516 1.03-1.302 1.602-3.675 2.672-2.057.928-2.287.866-2.287.866l-.492-1.095s1.198-.527 2.487-1.047c2.667-1.075 3.315-1.897 3.023-3.822-.414-2.726-2.523-3.151-6.603-1.324a18 18 0 0 1-1.071.426l-.28-.55c.064-.053 3.267-1.729 5.062-2.145q.42-.06.79-.058zm-57.348.494 2.098.691-1.53 1.502zm93.452.586c1.854-.005 3.38.307 3.376.967-.002.313-.073.34-1.738.571-2.53.351-6.759 2.507-9.138 4.508-1.409 1.186-1.045.909-.45-.81.59-1.708 1.47-3.749 1.948-4.06 1.192-.778 3.901-1.17 6.002-1.176m-30.313.237 1.784.388-1.162 1.124zm-5.98.967c.639-.01.954.29 1.205.901.543 1.32.007 2.094-2.062 2.979-.937.419-1.774 1.009-2.8 1.196l-1.3-3.483s.41-.151 1.762-.71c1.541-.636 2.555-.874 3.194-.883zm-6.031.421c4.128 11.66 9.179 19.233 14.524 25.508l-1.293.807c-5.678-6.706-10.902-14.565-14.667-26.133zm5.725.415c-.5.014-1.25.316-2.25.702-1.457.56-1.582 1.238-.93 2.077.285.365.58.284 1.978-.27 1.428-.565 2.044-.815 2.13-1.323.126-.74-.285-1.203-.928-1.185zm40.13.16c-.004.488-7.427 7.514-11.672 11.09-1.934 1.63-1.868 1.618-2.033 1.416-.104-1.21.718-5.534 1.217-6.287 2.836-2.998 7.21-5.437 11.466-6.354.669-.133 1.084-.119 1.021.134m-39.999.233a.525.525 0 0 1 .496.534c-.002.227-.33.446-.67.444a.96.96 0 0 0-.601.258c-.184.266-.303.521-.634.458-.193-.037-.549-.048-.688.073-.652.567-1.3.096-.998-.473.076-.143.34-.216.554-.215.185.001.609-.042.67-.269.073-.271.49-.346.78-.337.315.042.57-.116.651-.247.118-.106.255-.212.386-.222zm-56.135.123 2.364.32-1.49 1.906zm22.564-.032a1.56 1.56 0 0 1 1.562 1.557 1.56 1.56 0 1 1-3.121 0c0-.86.697-1.557 1.559-1.557m24.618 1.234a1.557 1.557 0 1 1 0 3.112 1.557 1.557 0 1 1 0-3.112m-46.126 1.759 2.564.163-1.468 1.96zm13.537.374a1.557 1.557 0 1 1 0 3.113 1.557 1.557 0 1 1 0-3.113m64.057.971c1.07-.017 2.31.091 2.31.091l-.3 1.198c-1.303.124-2.978-.238-4.377.346.52.849 3.564 2.049 3.9 2.348.031.126-.25 1.269-.25 1.269.081.291-5.152-2.121-5.326-4.156.005-.691 2.26-1.067 4.043-1.095zm-17.995 1.244c2.973.027 4.44 4.172 3.285 6.008-.458.83-1.49 1.814-2.852 2.68-.655.417-2.389 1.266-2.389 1.266l-.78-1.203s.692-.277 1.344-.633c1.638-.924 4.96-2.892 3.354-5.572-.901-1.45-2.252-1.733-5.055-.313-2.092 1.061-2.567 1.16-2.567 1.16l-.532-.96c.139.08 4.178-2.349 6.191-2.433zm-58.048.433 2.335.003-.998 2.103zm67.627-.277c1.42 2.743 3.848 4.815 4.512 5.313 0 0-2.42 1.551-3.864 2.54l-.848-.997 2.075-1.778-2.337-3.255zm22.779.661c-.263 1.355-.306 2.792-.417 4.375.512.467.972.7 1.375.673.452-1.422.776-3.039.56-4.703-.426-.333-.988-.295-1.519-.345zm1.17 1.03c-.007.894.117 2.009-.266 2.87-.218.49-.714.307-.731-.36-.024-.902.16-1.658.212-2.48.03-.468.233-.748.513-.64.29.14.266.348.272.61m-33.706.615c1.533.114 2.124 1.394 1.558 2.313-1.385 1.767-2.801 2.087-4.618 3.11l-1.813-3.387s3.529-1.989 4.873-2.036m-.042.756c-1.014.119-1.655.612-2.507 1.03-1.043.51-1.383 1.3-.675 2.015.78.868 3.506-1.202 3.957-1.702.277-.43.23-.822-.158-1.131a1 1 0 0 0-.617-.212m-55.912.143 2.284.025-1.235 1.742zm56.12.356c.39.276.356.77-.192.91-.277.07-.755.072-.766.441-.008.275-.429.378-.67.34-.244-.04-.66-.061-.74.246-.21.418-.368.425-.662.133-.315-.319-.168-.722.449-.79a.77.77 0 0 0 .586-.421c-.014-.262.17-.413.459-.353.409-.005.677-.156.969-.537a.58.58 0 0 1 .568.031m-13.36.045a1.557 1.557 0 1 1-.001 3.117 1.56 1.56 0 0 1-1.558-1.56c0-.86.698-1.557 1.559-1.557m-33.293 2.865c.861 0 1.562.7 1.562 1.56s-.7 1.556-1.562 1.556a1.557 1.557 0 0 1-1.559-1.556c0-.86.697-1.56 1.559-1.56m-37.307 1.382 17.858 12.193-1.22 1.779-16.586-11.263zm89.658.396c1.162.001 2.058.67 2.925 2.015 1.721 2.672.858 4.78-2.706 6.935-1.656 1-1.668 1.011-1.668 1.011l-.841-1.036s1.206-.708 1.704-1.022c2.93-1.848 3.754-3.483 2.466-5.324-1.242-1.774-2.545-1.632-6.163.665-.732.465-1.606.83-1.606.83l-.794-1.077s2.048-1.051 2.746-1.495c1.603-1.022 2.911-1.503 3.937-1.502m13.312-.46.011 1.173c.04.052-2.427 1.138-3.872 1.792-.468.255-.286.752-.257 1.264l-.697.47s-.961-.701-1.087-1.15c-.353-1.42 4.174-3.12 5.902-3.548m-25.782 1.26a1.56 1.56 0 0 1 1.563 1.556 1.56 1.56 0 1 1-3.121 0c0-.86.697-1.556 1.558-1.556m-48.377.437a1.557 1.557 0 1 1 0 3.113 1.557 1.557 0 1 1 0-3.113m60.781 1.243c.592-.02 1.037.364 1.279.953.62 1.506-.224 2.62-3.275 4.327l-.798.437-2.247-3.099s.79-.543 1.537-.989c1.671-1.091 2.743-1.601 3.504-1.629m-.298.742q-.215.005-.502.171c-.784.45-2.092.94-2.71 1.757-.361.5-.197.996.488 1.637.58.383 3.574-1.819 3.649-2.458-.254-.678-.493-1.118-.925-1.106zm-89.166.167.5.335-.5.393zm89.642.543c.221.27.088.726-.381.807-.237.04-.586.105-.7.454-.094.23-.417.426-.735.418-.368-.085-.56.137-.581.299-.181.308-.629.358-.902.068-.213-.226.168-.876.42-.866.044.02.32.083.654-.363.068-.324.445-.523.719-.51.278.094.441-.214.552-.383.256-.136.774-.135.953.076zm-88.454.236.717.483-1.905 1.35v-1.088zm1.39.91.977.65-3.555 2.542v-1.378zm1.822 1.16 1.03.68-5.43 3.662v-1.411zm1.955.988v1.178l-6.355 4.43v-1.193zm.718.848 1.369.934.342 39.93-8.563 5.873.008-1.745 7.19-5.19zm103.293 1.08c-1.92 2.188-4.496 2.336-6.742 2.276-6.052.084-9.81.407-10.588 7.613 2.466-1.84 5.08-2.078 8.108-1.99 3.834-.006 5.558-.257 7.117-1.034 2.503-1.247 4.086-3.48 3.783-5.047-.297-.339-1.075-1.736-1.678-1.82zm-104.01.349v1.382l-6.356 4.251V169.1zm72.569.128a1.56 1.56 0 0 1 1.562 1.557c0 .86-.7 1.556-1.562 1.556a1.557 1.557 0 1 1 0-3.113m-41.488.16c11.229.348 35.076.214 35.076.214l1.271 1.83-37.495-.393zm72.867 1.2c-1.344 1.315-2.737 1.958-7.153 1.88-4.666-.084-6.485.652-7.692 2.727-.351.603-.344.838.164.381.426-.506 1.396-1.48 1.797-.558.792-.518 1.477-1.307 1.892-.31.23-.05 1.575-1.395 1.894-.204.642-.717 1.192-.942 1.494.076.913-.432 1.398-1.252 1.917-.12.736-.526 1.294-1.183 1.723-.181.628-.185 1.267-1.334 1.63-.418.067.022 2.336-1.34 2.978-2.688.526-1.19 1.01-.4.411.815-1.537 2.974-4.167 4.06-10.205 4.069-3.664.004-5.18.362-6.33 1.032-1.85 1.077-.854-1.633.441-3.276 1.633-2.072 3.494-2.684 8.592-2.499 2.786.017 4.568-.368 5.321-.974.64-.515 1.102-.864 1.445-.887.344-.023.39.44-.32 1.134zm-82.506-.504c.861 0 1.562.7 1.562 1.56s-.7 1.556-1.562 1.556a1.557 1.557 0 0 1-1.559-1.556c0-.86.697-1.56 1.559-1.56m-21.443 1.154v1.404l-6.355 4.332v-1.437zm30.728.673h4.931v5.197h-4.93zm11.05 0h5.307v5.197h-5.307zm11.811.167h5.12v5.03h-5.12zm11.094.102 3.41.117s1.892 2.404 2.691 3.513l-2.52 1.291-3.58.008zm-31.584.353a1.733 1.733 0 1 0 0 3.466 1.734 1.734 0 1 0 0-3.466m11.339.172a1.733 1.733 0 1 0 0 3.465 1.734 1.734 0 1 0 0-3.466m11.596.045a1.733 1.733 0 1 0 0 3.465 1.733 1.733 0 1 0 0-3.466m-27.677.351c.342.244.568.639.568 1.09a1.347 1.347 0 0 1-2.06 1.143zm4.742.018c.635 0 1.151.512 1.151 1.146a1.151 1.151 0 0 1-2.302 0c0-.634.516-1.146 1.151-1.146m34.48.047a1.733 1.733 0 1 0 0 3.466 1.733 1.733 0 1 0 0-3.466m-28.853.051c.77 0 1.395.624 1.395 1.393s-.625 1.393-1.395 1.393a1.39 1.39 0 0 1-1.39-1.393c0-.769.62-1.393 1.39-1.393m22.978-.054a1.394 1.394 0 1 1 .003 2.787 1.394 1.394 0 0 1-.003-2.787m-61.704.149v1.396l-6.355 4.434v-1.375zm44.438-.022a1.148 1.148 0 1 1 0 2.295 1.148 1.148 0 1 1 0-2.295m11.596.045a1.148 1.148 0 1 1 0 2.295 1.148 1.148 0 1 1 0-2.295m-5.814.144c.77 0 1.395.624 1.395 1.393a1.394 1.394 0 0 1-2.79 0c0-.769.624-1.393 1.395-1.393m17.358.273a1.148 1.148 0 1 1 0 2.295 1.148 1.148 0 1 1 0-2.295m-49.43 1.203c2.96-.034 6.163 1.467 7.969 3.957 2.734 3.65 4.56 8.304 5.39 14.412.41 3.026 1.824 12.11 2.626 14.256l-1.104-.21c-.149.07-1.566-5.714-2.459-13.354-.33-2.83-.933-6.482-2.578-9.815-1.878-3.807-5.069-7.84-9.324-8.16-2.481-.188-4.811 1.365-5.062 3.552-.358 1.728.658 3.337 1.988 3.876 1.308.53 2.87.135 3.045-1.643.03-.292 0-.587-.11-.858.606-.099 1.066.174 1.312.684.128.015.005 2.58-2.014 3.083-2.436.797-5.249-1.612-5.467-4.065-.166-2.067 1.41-4.621 3.395-5.314a7.5 7.5 0 0 1 2.392-.4zm-18.148.797v1.426l-6.355 4.378v-1.436zm18.286.905c3.555-.1 7.017 3.856 8.483 6.462 1.529 2.721 2.74 7.041 3.158 11.107.71 6.915 2.036 12.569 2.316 12.826l-.968-.21c-.202.135-1.54-6.107-2.353-13.056-.456-3.897-1.905-7.762-3.627-10.74-1.59-2.747-3.734-4.8-6.272-5.098-1.59-.16-3.226.3-3.547 1.97-.17.983.344 1.946 1.511 2.03.275.02.538.042.586.051.618.11-.352 1.11-.99 1.022-2.279-.317-3.33-3.357-1.533-4.975 1.051-.946 2.15-1.358 3.238-1.389zm7.612 1.015 39.92.404s.034.714-2.45.596c-2.114-.1-3.477.195-4.878.643l-31.365-.069zm-25.899.461v1.324l-6.355 4.44v-1.462zm18.553.56c.767-.01 1.549.188 2.137.528 4.945 2.86 6.834 9.958 7.485 14.426.888 6.618 1.914 12.766 2.2 12.917l-1.078-.244c-.144.006-1.324-5.732-2.058-12.161-.594-5.197-2.374-10.416-5.904-12.612-2.266-1.539-2.71-1.695-3.759-.796-.905.775-1.825-.392-1.067-1.342.523-.488 1.276-.706 2.043-.716zm-18.553 1.793v1.088l-6.355 4.418v-1.288zm29.056.03c.082-.075 3.435 5.609 4.494 14.568.558 4.717 2.155 12.761 2.412 12.826l-1.162-.123c-1.188-4.745-1.845-9.234-2.48-13.281-.719-4.578-1.295-8.645-4.153-13.953l.885-.03zm.761.047 1.038.014c1.775 3.376 3.664 8.619 4.316 13.874.563 4.54 1.134 9.157 2.76 13.965l-1.114-.306c-1.397-3.902-1.892-8.619-2.644-13.507-.83-5.402-2.135-10.107-4.356-14.04m6.406.008c1.816 4.696 2.998 6.936 3.828 12.717.644 4.486 1.555 10.097 3.624 16.04l-1.051-.044c-1.534-4.103-2.709-9.598-3.246-14.876-.731-7.168-3.955-13.86-3.985-13.819Zm-1.788.018c.098-.146 3.464 6.576 4.243 13.964.52 4.916 1.671 9.78 3.252 14.478l-1.074-.024c-1.24-1.433-2.17-8.222-3.194-14.56-1.045-6.468-2.518-10.448-4.152-13.848h.92l.005-.011zm-2.713.007.954.004c2.495 5.446 3.532 8.687 4.3 13.953.973 6.66 1.907 12.669 2.94 14.234l-1.165-.077c-1.608-4.8-2.333-9.597-2.903-14.397-.618-5.199-2.114-9.652-4.126-13.718zm5.266.044 1.132.018c1.953 3.949 3.577 8.753 4.149 14.244.314 2.978.863 7.549 3.103 14.6l-.907-.057c-1.835-4.73-2.937-10.296-3.595-15.15-.663-4.897-1.834-8.937-3.882-13.655m6.979.033c1.07 2.739 1.952 5.459 2.53 8.258l-.64 1.247c-1.005-3.695-2.136-6.573-3.26-9.487zm-5.168.003 1.38.033c2.372 5.495 3.59 11.307 3.923 13.256 0 0 .328 1.725.35 2.291-.08 4.802.752 8.227 2.542 13.39l-.82-.058c-2.077-6-2.637-10.263-3.168-14.335-.44-5.12-2.108-10.395-4.207-14.576zm3.186.044c1.413 3.522 2.49 6.918 3.471 10.317-.044.772-.12 1.617-.622 2.24-1.152-4.157-2.125-8.476-3.904-12.55zm2.608.03 1.092.017 2.179 6.23-.852.942c-.64-2.063-1.295-4.33-2.418-7.19zm6.377.043.798 1.873-.86.727s-.877-1.752-1.107-2.578zm1.62 0 .401 1.08-.721.549-.56-1.607zm-6.257.022 1.125.007c.455 1.309 1.665 4.513 1.665 4.513l-.808.848s-1.524-4.052-1.981-5.368zm1.744 0 .998.01c.3.851 1.235 3.204 1.235 3.204l-.688.655zm5.22.043.987.047-.117.244-.616.306zm-32.371 1.385c4.134 2.176 5.273 8.694 5.722 12.278.783 6.253 1.66 11.34 1.846 11.477l-.918-.145s-.678-3.213-1.147-6.27c-.39-2.543-.692-4.673-.798-5.648a20 20 0 0 0-.225-1.574c-.578-2.569-.764-3.157-1.508-4.72-.715-1.501-.967-1.877-2.156-3.215-.457-.514-.901-.89-1.057-1.219-.222-.47.24-.964.24-.964m-20.928.335v1.23l-6.355 4.48v-1.404zm0 2.156v1.415l-6.355 4.186v-1.255zm0 2.411v1.313l-6.355 4.422v-1.356zm10.614 1.328h.56l.04.92-.866-.056zm-10.614 1.134v1.404l-6.355 4.19v-1.31zm9.958.535 1.344.014-.015.964-1.726-.058zm-.78 1.545 2.207.04v.917l-2.735-.044zm-9.178.2v1.473l-6.355 4.219v-1.48zM38 189.188l3.23.036-.017.767-3.858-.025zm-8.053.854v1.44l-6.355 4.062v-1.294zm6.705.684 4.437.062-.11.742-5.058-.022zm-6.705 1.568v1.385l-6.355 4.132v-1.331zm5.041 0 5.839.134 1.23 1.117-9.086.055zm-1.766 2.044 10.037.124.7.647-10.77.04zm-3.275.316v1.469l-6.355 4.156v-1.341zm3.286 1.291 11.123.051-.805.891-10.333.03zm-3.286 1.113v1.345l-6.355 4.306v-1.546zm3.009.702 9.615.033-1.13.883-6.643.153zm-3.009 1.662v1.284l-6.355 4.546v-1.44zm5.82.164 5.646.025.105.757-4.855-.011zm1.563 1.56 4.334.043.204.979-3.858-.051zm-7.383.684v1.193l-6.355 4.43v-1.32zm12.016.978.051.931-2.586.098-.728-.974zm-.022 1.651-.022.978-1.803.03-.404-.943zm-1.602 1.742 1.42.011-.12.753-1.1.014zm.426 1.807h.692l-.117.59h-.353zm14.059 9.957-.332.426h9.936l.109-.426zm12.809 0-.175.574h4.484l.124-.574zm7.324.113-.138.542H86.28l-.19-.542zm13.713 0 .233.658h3.857l-.255-.658zm13.306 0-6.77.003.245.735h7z"/><path d="M80.247-9.217c-3.243 0-3.676 3.477-3.676 3.477s-.433-3.477-3.676-3.477c-2.27 0-4.324 1.559-4.324 4.5 0 3.886 6.58 7.794 8 13.5 1.352-5.701 8-9.614 8-13.5 0-2.941-2.054-4.5-4.324-4.5" style="fill:#df0000;fill-opacity:1" transform="matrix(2.28884 0 0 2.14214 -131.678 47.048)"/><path d="M3.676-9C.433-9 0-5.523 0-5.523S-.433-9-3.676-9C-5.946-9-8-7.441-8-4.5-8-.614-1.42 3.294 0 9 1.352 3.299 8-.614 8-4.5 8-7.441 5.946-9 3.676-9" style="fill:#df0000;fill-opacity:1" transform="matrix(-2.28884 0 0 -2.14214 123.18 195.045)"/></svg>