<svg xmlns="http://www.w3.org/2000/svg" xml:space="preserve" width="222.783" height="323.556" viewBox="0 0 167.087 242.667"><path d="M166.837 235.548c0 3.777-3.087 6.869-6.871 6.869H7.11c-3.775 0-6.861-3.092-6.861-6.87V7.12C.25 3.343 3.336.25 7.11.25h152.856c3.784 0 6.87 3.093 6.87 6.87z" style="fill:#fff"/><text xml:space="preserve" x="3.665" y="26.562" style="font-size:32px;font-style:normal;font-weight:400;line-height:125%;letter-spacing:0;word-spacing:0;fill:#000;fill-opacity:1;stroke:none;font-family:Bitstream Vera Sans"><tspan x="3.665" y="26.562" style="font-style:normal;font-variant:normal;font-weight:400;font-stretch:normal;font-family:Arial;-inkscape-font-specification:Arial">J</tspan></text><path d="M50.291 22.698s2.375-1.9 2.375-4.534c0-1.542-1.369-4.102-4.534-4.102s-4.534 2.561-4.534 4.102c0 2.634 2.375 4.534 2.375 4.534-2.638-2.055-7.34-.652-7.34 3.455 0 2.056 1.68 4.318 4.317 4.318 3.165 0 4.534-3.455 4.534-3.455s.402 3.938-1.943 6.046h5.182c-2.345-2.107-1.943-6.046-1.943-6.046s1.37 3.455 4.534 3.455c2.64 0 4.318-2.263 4.318-4.318 0-4.107-4.703-5.51-7.34-3.455" style="fill:#000" transform="translate(-37.015 15.927)scale(1.00122)"/><text xml:space="preserve" x="-163.026" y="-215.78" style="font-size:32px;font-style:normal;font-weight:400;line-height:125%;letter-spacing:0;word-spacing:0;fill:#000;fill-opacity:1;stroke:none;font-family:Bitstream Vera Sans" transform="scale(-1)"><tspan x="-163.026" y="-215.78" style="font-style:normal;font-variant:normal;font-weight:400;font-stretch:normal;font-family:Arial;-inkscape-font-specification:Arial">J</tspan></text><path d="M50.291 22.698s2.375-1.9 2.375-4.534c0-1.542-1.369-4.102-4.534-4.102s-4.534 2.561-4.534 4.102c0 2.634 2.375 4.534 2.375 4.534-2.638-2.055-7.34-.652-7.34 3.455 0 2.056 1.68 4.318 4.317 4.318 3.165 0 4.534-3.455 4.534-3.455s.402 3.938-1.943 6.046h5.182c-2.345-2.107-1.943-6.046-1.943-6.046s1.37 3.455 4.534 3.455c2.64 0 4.318-2.263 4.318-4.318 0-4.107-4.703-5.51-7.34-3.455" style="fill:#000" transform="translate(203.706 226.415)scale(-1.00122)"/><path d="M62.491 280.158c-.837 1.196-4.464-7.149-6.793-13.474-1.144-3.107-2.673-5.669-2.042-6.486 1.658-1.677 5.953-.176 9.075 2.218 3.337 2.56 5.693 6.324 5.693 6.324zm-29.269-6.186-.101-4.657c2.874-2.585 6.976-6.32 11.154-11.146l-10.841.068-.851-4.049-.114-176.932s11.885 12.302 12.19 12.305c.178.002.02 73.459.087 122.58.098.232-6.264.087-6.682 3.301-.276 2.124 6.9 1.83 7.013 1.972-.015 22.079-.32 37.931-.167 37.932 5.448 0 6.592.216 6.592.216-6.146 6.349-12.533 11.543-18.281 18.41zm38.732-22.732c-.959-1.906-2.484-9.233-3.652-9.058-5.361 1.775-7.088-6.126-1.541-6.533 2.101-.154 4.446 2.58 5.762 5.981.632 1.782-.019 10.323-.569 9.61m1.209-10.988c-1.582-2.578-3.095-12.001-5.976-11.467-2.63.598-4.314-1.704-4.057-3.72 1.349-5.662 10.987-.283 13.516 1.022-1.253 2.843-3.024 9.933-3.483 14.164zm-20.214-25.845c-.688-.282 1.071-3.125 1.089-6.4.02-3.713-1.672-7.812-1.472-8.408 6.308-4.943 14.883-10.268 16.442-7.438 1.604 12.045.775 18.741-1.025 27.733l-1.188.622s-1.993-.375-3.472-1.137l-7.767-3.903zm101.45-90.915c-1.168-9.278-.319-23.716 1.337-29.428.636-1.933 12.647 6.065 13.606 6.662.898.558 1.332.474.788 2.914-.628 2.819-.53 6.135.358 9.91.332 1.41.589 1.958-.295 2.575-.92.642-15.489 8.305-15.794 7.367M148.7 84.986c.249-.595 1.241-7.54 1.547-7.567 1.007-.087 2.483 6.801 5.049 9.075 4.845-.559 5.413 2.72 4.465 4.304.235.696-1.564 2.208-3.244 2.063-4.177-1.629-9.81-3.071-7.817-7.874zM83.903 79.33c-1.366-.962 1.225-7.884 8.601-6.295 3.173-5.973 3.346-19.441 4.88-20.276 2.309-.852 25.845-7.382 25.143-1.69-.753 6.111-1.967 35.552-10.83 42.785-.89 1.057 14.025 11.141 14.025 11.141s15.73-9.79 14.832-9.644c-.388.105-.694 8.329-.925 21.627-.222 12.835 1.657 22.024 5.568 35.601-.497 1.643 2.994 9.854 6.898 17.996 4.427 9.233 10.417 18.553 10.417 18.553-10.297-3.466-19.757-2.116-31.304-6.081l-.564 45.627s5.976 3.118 7.128 4.553c.563.701.627 1.677.691 2.561.249 3.445-2.664 7.543-8.205 6.193-1.737 6.077-4.229 20.368-4.325 20.363-8.459 1.138-17.032 2.362-25.601 1.904 0 0 1.281-4.59 1.773-11.49.179-2.515.306-5.221.601-8.1 1.084-10.606 4.206-22.189 9.246-22.932-.994.394-12.788-9.773-14.396-10.5-6.631 3.458-15.343 9.26-15.343 9.26s1.148-8.403 1.2-17.211c.055-9.441-.613-19.876-.91-22.591-2.287-15.558-8.645-29.717-13.781-40.312-2.064-4.258-5.151-11.069-5.151-11.069 7.573-.872 16.149-.458 29.531 3.537 0 0-.752-46.048-.757-45.792.122.41-3.439-1.466-6.701-3.537-1.747-1.11-1.568-4.06-1.738-4.18zm66.79-10.323c.055-.468.271-5.669.271-5.669 2.095 2.455 3.784 9.652 4.201 9.531 0 0 2.69-.422 3.527.468 2.729 2.903.046 6.331-2.681 5.69-2.713-.696-5.696-5.334-5.317-10.019zm27.829 156.123s-.713-81.265-.699-122.196c2.919-.476 5.94 1.464 8.673-2.687-1.447-2.995-5.573-2.082-8.677-2.687l-.028-37.739s-5.178-.09-5.183-.43c-.004-.311 2.669-2.827 7.727-8.113.609-.636 1.641-1.738 2.293-2.45 2.553-2.782 6.606-7.415 6.799-7.227 1.591 1.349 1.425 3.542-5.961 10.4-5.383 4.998-5.591 4.665.364 4.581 5.678-.104 6.4-.576 5.603 1.468.012.834.661 1.485.508 1.616-.165.141.037 177.542.037 177.542zM161.175 35.855c.039.104.784.387 1.585 1.272 3.273 5.36 4.972 12.15 7.544 16.835-5.327 2.366-12.715-2.886-14.498-7.479-2.165-5.782 4.17-13.815 5.369-10.628" style="fill:#e2cf00" transform="matrix(.73948 0 0 .76758 1.521 .818)"/><path d="m31.266 285.931 161.109.24-.693-258.135-160.624.295m50.493 2.084L95.77 54.186c-.855 6.228-3.069 18.282-3.069 18.282-1.305-.315-5.708-.729-8.087 2.681-1.135 1.627-1.74 3.844-.21 7.34l.001.001c.218.415.575 1.014.575 1.014s-.389.1-.66.277c-18.643 6.895-38.806 22.258-39.154 22.71l.356-17.005L33.02 76.495l.048-46.08M175.3 135.524l1.842-2.332-3.247.148 2.23-2.417-3.592-.083 2.801-2.378-3.78-.044 2.81-2.339-4.138.187 2.965-2.544-4.091.017 3.051-2.56-4.002-.055 2.6-2.299-3.494-.041 3.948-2.772c1.686.737 3.949 1.155 6.225 1.204l.048 18.664zm2.832-32.363c9.233.031 11.206-4.9.048-5.685 0 0-.873-24.473-.622-34.604.002-1.237.119-2.627.119-2.627l-6.077-.155s16.293-17.586 17.829-19.016c1.392 59.111 1.33 196.356 1.33 196.356l-12.45-12.454-.138-38.806c-4.167-4.221-6.554-10.378-9.035-14.365l-6.808-3.307 1.6-5.47-.685-1.555-2.125 7.738 7.448 3.539.789 1.601-1.254 7.291 7.049 2.418 1.221 1.677-.442 7.12 1.458.447.014 1.411-1.463-.123-.522 7.994 1.99.584-.005 1.805c-.002-.032-1.16.007-1.729-.043-.786-.425-2.08-2.109-2.08-2.109l.703-8.878-8.935-1.791-.665-.941 1.643-8.873-9.381-2.869c.963 2.369 2.239 4.584 3.301 6.916-1.288.373-2.634.457-3.938.736-.352 11.987.055 24.46-.318 35.734-7.551.545-4.008-.174-7.291-.123a2.327 2.327 0 0 0-1.258 4.285l-1.301.465-2.275-2.575 4.755-4.56-.028-1.311-5.904 5.904 2.555 2.95-1.52.788-2.332-2.456s-5.02 5.136-4.707 5.23c.156.047.434.306.622.57 3.574 7.715-1.303 11.4-7.197 9.266-1.499 7.1-2.928 13.507-4.106 20.862-4.406 1.663-25.122 2.625-25.351 2.243 0 0-.525-.501-.547-.75.094-.329-.594.684-.594.684 0 .438-18.059-.45-26.966-2.147 0 0-.182-.854-.109-1.981.146-2.26-.029-2.238 2.028-1.909 4.2.281 7.459-1.16 8.754-4.854.726-2.07.386-3.934-.722-9.471-1.076-5.377-1.087-4.798-.96-5.524.15-.853 1.071-1.805 2.394-2.878.997-.809 1.097-2.337.295-1.492-.552.805-1.524 1.093-2.394 1.544-2.044 1.069-1.976 2.101-.77 6.517.566 2.072 1.159 4.304 1.178 4.565.061.811-.231.48-1.449-.356-.78-.57-1.679-1.041-2.479-1.51-2.446-1.304-1.362.124.993 1.691 1.851 1.372 2.158 1.963.56 1.306-1.646-.673-4.009-.381-5.857.314-.363.203-.631.179-.689-.152-.082-.517.234-1.816.37-4.817.346-7.588 2.133-15.675 7.181-20.349 7.226-6.69 19.101-2.151 25.689 4.047l.713-1.083c-4.423-3.712-12.089-8.343-19.556-7.443 3.122-2.603 10.008-6.916 10.008-6.916 4.723 3.424 8.206 6.842 13.39 10.55l.902-.599-14.259-11.305-15.361 10.127s.638-9.715.878-13.267l-6.664 5.89 5.139 7.609-5.448 5.605s.92-.129-.086 1.601c-1.534 3.11-2.46 8.121-3.168 13.21.138 3.801-.799 8.005-1.088 11.354-.504-3.136-1.099-4.783-2.26-7.63-1.066-2.742-1.483-2.721-2.685-2.321-6.518.547-3.568-12.025 4.134-3.802.339.349.895.775.921.693.16-.504-2.044-7.126-2.897-8.652-.901-1.613-.909-1.84-2.247-1.702-2.505.258-3.353-.634-3.606-3.27.333-4.985 5.728-2.879 9.183-1.347.312.239-1.621-1.76-2.313-2.465-.941-.958-1.093-1.572-1.093-1.572l.204-2.646 5.287-4.826-4.346-6.417.18-2.294 4.646-5.572-4.95-5.372-.062-1.914 4.023-5.353-5.391-4.322-.261-1.724s3.461-6.403 3.368-6.636c-.078-.196-5.843-4.175-5.843-4.175l-.58-2.693 2.503-6.835-5.99-3.42-1.097-3.087 1.686-6.332-6.213-2.869-1.772-3.567 1.154-6.655-6.963-2.062-1.848-2.926.242-5.852-1.705-.176.024-1.444 1.9.014s-.148-.215.062-3.107c.356-4.915.39-4.726-.784-4.93-2.472-.43-1.906-1.949.622-1.667.388.043.716.076.993.128.666.125 1.178.988 1.178.988l-.556 9.077 8.906 1.487.846 1.14-1.492 8.412 8.36 2.418 1.126 2.038-2.37 8.749 8.426 3.705.556 1.625-3.577 7.766 7.742 3.762.484 1.862-4.299 8.008 8.925 6.493s-.239-.635-.594-1.696l-7.078-5.054 3.586-6.835s.285.499.589.394a41 41 0 0 1-.404-3.41l-3.653-9.519 11.817-7.946c-5.063-3.049-11.452-2.947-17.318-4.09 0 0-.257-.816-.698-1.548-1.707-2.737-3.242-6.217-5.146-9.808 1.403-.662 2.01-.576 3.517-.87 0 0 3.806-23.85 6.787-35.505 0 0 .459.139.685.146a2.625 2.625 0 0 0 1.715-4.608q.487-.14 1.031-.271c.479-.007 2.418 2.133 2.418 2.133l-4.983 4.912-.028 1.625c1.988-2.069 6.355-6.536 6.355-6.536l-2.631-2.764 1.301-.608 2.133 2.346 4.783-4.916 1.226.836c-1.612 2.116-2.661 2.805-5.073 5.306 1.26 1.491 6.142 6.194 6.142 6.194l-.014-1.625-4.812-4.665 4.679-4.669.271-.309s3.714 1.605 3.95 1.602c-1.579-1.299-4.414-2.412-5.955-3.535-6.98-4.116-.35-12.632 6.088-10.517.183.686 3.55-17.964 3.172-18.992.341-2.888.415-2.48-.586-4.135-2.997-6.907-11.742-19.979-11.742-19.979l78.693-.503c-.819 1.598-1.645 2.895-2.267 4.761 0 0 4.422 4.606 6.04 10.663.903 3.379 2.199 6.543 4.473 8.792.036.08-.08.181-.218.275-6.222 2.192-13.313-3.116-15.492-9.171l-3.571 5.82c1.613.182-23.764-2.88-29.99-2.106.552.109 1.203.566.836 2.313-.633 3.011-1.762 13.894-1.762 13.894-1.251 10.589-2.216 23.894-9.204 28.294 0 0 1.07 1.14 1.993 1.721.022-.015-.823-.869-.85-.969.004-.308.18-.503.385-.665 1.48-1.2 3.286-3.687 3.221-3.752 5.767 5.008 14.791 9.319 20.23 7.529 2.146-.45 3.098-2.519 4.237-.841-1.478 9.109-1.378 19.129-.803 26.999.89 17.542 4.764 27.594 8.601 40.021-1.973.697-12.102 7.487-12.102 7.487-.062.864 12.219 3.682 17.036 3.183 0 0 .991.965.995.761l-.095-.19a2.33 2.33 0 0 0 1.197-2.038 2.324 2.324 0 0 0-3.017-2.224c-.605-1.484-1.121-2.784-1.121-2.784l6.821 2.969-2.223 7.462.746 1.658 2.712-9.719-8.707-3.729-.589-1.724 3.61-7.372-7.785-4.612-.328-1.468 4.189-7.913-7.538-5.79 5.515-7.125-6.788-5.7.076-.945 5.624-6.474-5.814-5.976-.162-2.418 6.337-5.633-5.472-7.947c2.281-1.532 3.555-3.279 5.049-5.021l1.335.584-4.859 3.681 5.192 7.5 5.477-4.945-2.969-4.84 1.81.822 1.658 2.594-.271 2.651-5.41 4.926 4.65 6.736.038 1.235s-2.892 3.324-4.997 5.795l5.895 6.503-4.821 6.151 6.066 5.163-.171-1.548-4.474-3.776 3.434-4.161c.246-2.508-.298-6.811.983-8.7-2.07-2.026-.989-6.908.029-8.49-1.978-2.341-.847-7.481.415-7.698-1.51-1.893-.909-5.729.353-6.977.404-.216-5.391-2.305-9.046-4.816 3.042-5.66 2.332-10.985 3.291-12.904 1.316 3.797 3.001 7.837 4.456 10.745.153.302.477.234.959.242 6.044.538 5.469 5.52.936 6.796 0 0 9.218 6.864 13.889 7.625.049.122.014.284-.142.608-.663 1.371-1.046 3.742-1.145 5.828-.337 3.104 1.164 7.866 1.164 7.866l-1.914 1.183c-.381 1.639-2.52 1.673-2.726 2.841.452 5.015 10.246 24.22 12.313 26.39.784-13.704-.713-28.579.036-42.257zm-2.235 34.947 1.588-1.305-.038 2.074zm1.55 3.176-.8-.596.806-.894zm-98.489 24.459c.149.944.325 1.881.518 2.798a2.62 2.62 0 0 0-1.957 2.536 2.63 2.63 0 0 0 2.627 2.627c.207 0 .405-.031.599-.076a85 85 0 0 0 1.116 3.61l.532.38c-1.436-4.996 1.347-7.682-2.765-11.832-.061-.207-.362-.149-.67-.043m84.86-135.495 25.611.168v9.451L169.693 60.85l7.609.094-.081 35.991c-2.086.867-4.075 2.211-5.999 3.51l-12.003-6.64-.864-.442s.331-.094 1.035-.556c1.357-.89 1.876-3.078 1.259-4.721-1.008-2.687-3.091-2.203-4.826-2.209-1.441-1.113-2.674-4.836-3.686-7.32-.468-1.079-.914-1.906-1.031-2.532-.107-.578-.104-1.084-.104-1.084s.234.073.574.771c1.912 4.028 6.38 5.975 8.754 2.166 1.203-2.335.372-5.002-1.648-5.748-.618-.228-2.722.014-2.722.014-.123.074-1.525-1.977-3.505-8.716-.813-2.783-1.026-8.822-.252-9.69 1.312-1.592 1.65-3.828 2.76-5.434.504-1.009.478-.38 1.268.746 2.695 3.836 7.434 6.809 11.771 6.622 3.079-.133 4.029-1.184 3.301-2.071-1.69-1.726-2.794-4.148-3.349-6.27-1.29-4.938-2.658-9.343-6.127-13.181zm-13.002 23.448c.324.306.068.777.009 1.629-.149 2.164-.196 2.189-1.439 1.643-2.386-1.046-5.76-.131-7.795 2.076-2.566 2.784-2.647 5.649-1.045 11.305 1.83 6.362 1.786 7.202-.408 8.502-1.32 1.124-2.672 3.48-2.166 3.472.07-.001.253-.143.404-.314s1.356-1.141 2.285-1.776c2.548-1.743 3.346-2.633 2.175-5.852-1.156-3.176-2.087-6.281-1.605-6.474.23-.092 1.109.942 1.653 1.254 1.114.639 3.464 1.821 3.752 1.819.398-.003-.027-.288-1.173-1.04-3.067-2.014-4.323-3.837-1.363-2.684 1.585.618 3.262.257 4.208-.052 1.102-.361 1.678-.724 1.795-.309.16 1.959.007 3.978-.114 5.947-.036.126-.185 1.466-.333 2.974-.56 5.724-1.537 10.546-4.052 13.652-8.415 10.392-17.99 7.363-28.747-.955 4.012-11.115 3.735-19.777 4.726-23.303.928-.279 2.017.266 2.693.646 1.499.852 3.203 1.365 4.84 1.454 1.524.083 1.789-.134 1.653.318-.105.348-2.562 1.069-4.066 1.382-2.737.569-2.536 1.202-.232.994 2.424-.219 4.765-1.182 7.247-2.833 1.72-1.143 1.782-1.145 1.321-2.579-.111-.345-.344-.863.475-1.164.85-.312.73-.66.247-1.045l-.546-.214c-.153-.12.011-.659.009-.731-3.13-2.648-8.651-2.711-13.188.006-.227-.082-.463-.437-.241-.923.477-1.044 5.359-2.295 8.825-2.351 1.581-.025 1.89.175 4.27.902.979.299 1.526.377 1.615.228.203-.338-.15-1.347-.902-1.886-2.542-1.821-6.243-1.677-11.296.328-2.704 1.073-2.422 1.441-1.548-3.895.242-1.481.522-2.611.522-2.611s23.643.841 27.532 2.459zm-3.639 5.011c1.25.008 2.393.321 3.059.969.974 1.077-.049 1.414-1.596.827-1.98-.751-4.231-.324-5.976.76-1.12.696-1.36.323-.418-.674 1.141-1.207 3.104-1.893 4.93-1.881zm-17.979 1.857c2.18-.015 4.177.376 4.997 1.297.749.841.027.926-1.843.195-2.634-1.03-6.146-.704-9.044.736-1.489.74-1.947.89-1.748.048.874-1.366 4.452-2.254 7.638-2.275zm17.437.679c2.077.005 3.842.481 3.515 1.567-.117.387-.219.154-1.705-.304-1.484-.457-3.382-.285-5.287.271-1.778.518-2.118.636-1.321-.133.969-.934 2.964-1.406 4.798-1.401m4.231 1.044c2.104 3.241 2.475 7.995 4.713 10.569 4.14-.77 6.099 3.123 2.616 5.715-1.771.984-3.93.243-5.518-2.356-1.513-2.476-1.931-3.975-1.979-5.547.137-3.299-.049-5.066.168-8.381m-24.238 1.488.917.109c.666 2.256 2.156 2.393 3.05.028l.693.114c-1.054 2.897-3.696 3.017-4.66-.252zm-1.42.043c.382-.021.7.381.869.912.357 1.201-.049 1.049-.879.541-.84-.511-1.486-.849-1.002-1.054.362-.193.647-.324 1.012-.399m7.876.769c.317.393.388.694-.019.978a8 8 0 0 1-1.078.48c-.369.112-.596.023-.442-.508.097-.456.384-1.108.598-1.363.359-.065.743.189.941.413m11.12-.275.727.052c.762 2.063 2.544 2.003 3.23.214l.651-.005c-1.227 3.194-3.722 2.617-4.607-.261zm-1.311.271c.697-.001 1.375 1.002.993 1.515-.386.322-2.104-.044-2.256-.679-.06-.383.567-.835 1.264-.836zm6.726.195c.337.08.314.334.323.375.177.845-.832 1.14-1.059.817-.125-.178.407-.853.736-1.192m-16.005 9.034c-1.702.476-2.493 1.946-2.386 3.586.087 1.327.776 2.408 1.784 2.636 2.031.46 3.435-.957 5.509-1.529.897-.234.687-1.39.113-1.892-.737-.645-1.868-.243-3.386.919-2.977 2.279-3.693-2.103-.979-2.877.421-.12.227-1.09-.657-.842zM45.588 174.718l1.158.333-1.157 1.37s.005-1.184-.002-1.703zm3.224 4.687-2.384 2.682 3.24-.244-2.197 2.282 3.371.136-2.478 2.563 3.314-.067-2.45 2.474 3.127.089-2.066 2.265 3.44-.264-2.511 2.708 3.685-.065-2.793 2.526 3.676-.026-1.104 1.257.979.492c1-.465 6.764-2.258 6.955-3.608-1.273-.341-5.021 1.566-5.269 1.249-1.503-6.629-7.985-21.289-12.26-25.564l-.291 41.465c-.101.094-.22.131-.337.186-.639.305-1.472.126-2.035.353-2.168-.113-5.79 3.509-3.897 4.228.99.218 6.468 1.157 6.484 1.43.672 12.008-.414 24.08.086 36.898 1.532.227 6.541.513 6.541.513s-18.369 19.167-18.729 18.781c.429-20.543.204-60.704-.157-60.852.003-1.205.425-3.743.425-3.743l-.396-127.761s-.107-.571-.328-.936c-.377-.623-.405-.783-.432-2.698-.147-1.184.024-1.492.024-1.492l12.567 13.272.149 37.117s11.759 17.582 14.497 25.692c6.002 12.075 5.352 29.672 8.992 36.409l.223-.009c.088.982.099 1.376.242 1.529.273 2.196.57 5.196.57 5.196l-1.316 2.09 1.468 1.881.009 5.016-1.957 1.99 1.791 2.27-.499 4.683-1.396 1.244.793 1.069s.131 1.688-.185 3.619c-.215 1.312-1.509 1.135-4.199-.233-3.812-1.445-7.714-4.031-10.726-5.98.18-2.438 3.2-7.999-1.002-14.131-1.554-1.164-6.065-.736-6.46-.912l.035-18.888m-.006-2.181 2.034-.355-2.053 2.055zm96.847-94.285c-.166.019-.374.174-.641.475-.282.317-.733.231-1.876.162-1.224-.074-1.535-.04-2.342.252-.919.333-.939.333-1.577.062-.997-.424-1.621-.474-2.536-.214-1.124.319-1.834.232-2.527-.109-.702-.345-.924-.276-1.168.361-.102.267-.601 1.305-.831 1.658-.75 1.147-.569 1.338 1.002.855 1.08-.332 3.069-.542 4.55.071 1.126.467 2.467.317 4.071-.38 1.407-.612 2.794-.806 4.142.328.785.66.743.16.542-1.206-.225-1.528-.383-2.362-.808-2.313zm-53.328 4.821a2.625 2.625 0 0 0-2.627 2.622 2.63 2.63 0 0 0 2.627 2.627c.686-.571 1.042-5.143 0-5.249m50.692.021c-1.597.543-3.792 1.27-6.265.544-1.943-.593-1.478.867.632 1.05 1.466.127 1.367.126.223 1.197-.964.902.243.836.902.275.777-.662 2.889-.49 4.08.052.523.238.58-.751-.043-.969-1.568-.548-1.192-.589.519-1.146.634-.144.658-1.244-.049-1.004zm-50.692.858c.829.312.311 3.355 0 3.491a1.746 1.746 0 1 1 0-3.491m-14.003.109c.67-.229 1.14.884 1.14 1.634 0 .964-.78 1.748-1.743 1.748-1.179-1.15-1.394-2.432-.03-3.154zm6.902 2.57-5.61 5.671 5.505 5.577 5.515-5.7zm66.443 2.247a1.457 1.457 0 1 1-1.458 1.458 1.46 1.46 0 0 1 1.458-1.458m-66.491 1.905a1.457 1.457 0 0 1 0 2.912 1.457 1.457 0 0 1 0-2.912m59.627 1.392 4.018 5.41-4.926 4.417.252-2.745a2.33 2.33 0 0 0 1.909-2.294c0-.993-.622-1.837-1.496-2.171zm-66.918.299-.057 1.472 5.063 5.016-5.011 5.201.043 1.439 6.237-6.64zm14.312.005-6.189 6.351 5.971 6.522.076-1.653-4.688-4.845 4.779-4.745zm89.314 1.016c1.261-.002 2.34.411 2.669 1.235.259.463.397.863.774 1.035.735.337 1.733.105 1.781-.142.087-.001-1.173-.121-1.387-.314-.985-.887-.818-1.446.58-1.335.45.02 1.708.039 1.737.531.279 1.697-1.978 2.941-4.867 2.713-2.061-.34-2.07.454-2.213 1.553-.09.361-.407.944-.665 1.406-.729 1.306-.969 1.124-.461 1.629.493.642 1.131 1.44 1.121 2.19l-.023 6.886s-4.322-.019-5.825-1.105c-1.574-2.871-2.643-9.061-.333-12.459.808-1.018 1.991-1.505 3.354-2.584 1.05-.832 2.497-1.238 3.757-1.24zm-24.439.774-.157 1.99a2.33 2.33 0 0 0-1.938 2.289c0 1.021.662 1.885 1.577 2.199l-.138 1.729-3.206-4.603zm-12.587 1.344a1.55 1.55 0 0 1-.261 2.821zm-66.885.727c-2.219 1.153-1.455 5.619 0 5.249a2.625 2.625 0 0 0 0-5.249m14.487.067a2.625 2.625 0 0 0-2.627 2.622 2.63 2.63 0 0 0 2.627 2.627c1.927-.607.836-5.163 0-5.249m64.761.665-.228 2.864a1.548 1.548 0 0 1 .228-2.864m-79.249.147a1.746 1.746 0 0 1 0 3.491c-.574.113-.94-3.189 0-3.491m14.487.067c1.169.095.198 3.069 0 3.491a1.746 1.746 0 1 1 0-3.491m58.848 1.658-5.79 5.771 5.719 6.303 4.76-5.785zm-65.849 1.097-5.553 5.719 5.249 5.425 5.538-5.847zm-36.489 3.13 2.028 2.152-2.095.019zm101.888.214a1.457 1.457 0 0 1 0 2.912 1.457 1.457 0 0 1 0-2.912m-65.427.788c.803 0 1.458.65 1.458 1.454a1.46 1.46 0 0 1-1.458 1.458 1.457 1.457 0 0 1 0-2.912m7.177 1.7-6.137 6.341 5.928 6.313.081-1.496-4.75-4.779 4.816-4.93zm-14.431.009.062 1.605 4.926 4.883-5.178 5.206.209 1.401 6.365-6.583zm66.244 1.738 4.441 4.417-4.427 4.93-.005-2.56a2.33 2.33 0 0 0 1.568-2.204 2.32 2.32 0 0 0-1.572-2.195zm12.245.228.048 1.805a2.33 2.33 0 0 0-1.739 2.247c0 1.123.799 2.061 1.857 2.28l.038 1.43-3.515-3.876zm-102.676.812s1.483 1.581 1.986 2.228a2.6 2.6 0 0 0-.637 1.7 2.63 2.63 0 0 0 2.627 2.627c.417 0 .809-.102 1.159-.275.269.4 1.454 2.038 1.454 2.038l-6.982-1.121zm38.584 1.05a2.625 2.625 0 0 0-2.627 2.622 2.63 2.63 0 0 0 2.627 2.627c2.636-.537 2.116-5.123 0-5.249m-14.62.1a2.625 2.625 0 0 0-2.627 2.622 2.63 2.63 0 0 0 2.627 2.627 2.625 2.625 0 0 0 0-5.249m78.779.651.081 2.912a1.552 1.552 0 0 1-.08-2.911zm-64.158.128c1.698.618 1.18 3.607 0 3.491a1.746 1.746 0 1 1 0-3.491m-14.62.1a1.746 1.746 0 1 1-.005 3.491 1.746 1.746 0 0 1 .005-3.491m66.471.166a1.552 1.552 0 0 1 .004 2.703zm-87.899.746 2.042 2.627a1.75 1.75 0 0 1-2.351-1.639c0-.368.114-.707.309-.988m94.515 1.192-4.797 5.766 5.895 5.23 4.18-5.178zm-65.559.694-5.885 5.976 4.156 4.318-2.299-.252-3.325-3.391-.076 1.126 1.81 2.071-1.931-.067.337.898c4.767.134 9.303 1.537 13.927 2.453l.283-.622-1.715-.439 1.62-1.938-.019-1.472-2.802 3.002-.95-.218 3.971-4.095-.266-1.249-4.883 4.997-1.42-.323 4.964-5.063zm65.802 3.439a1.453 1.453 0 1 1 0 2.908c-.804 0-1.458-.65-1.458-1.454s.655-1.454 1.458-1.454m-66.001.755a1.453 1.453 0 1 1 .001 2.91 1.453 1.453 0 0 1-.001-2.91m-32.965.418s-.377 4.781-.589 7.082l7.605 2.033.945-7.638zm-3.315.361 1.059.038-.133 4.408-1.073-1.054zm14.069 1.933s.765 1.229 1.639 2.584a2.6 2.6 0 0 0-.76 1.843 2.63 2.63 0 0 0 3.392 2.513c.342.646.978 1.672.978 1.672l-6.517-1.909zm81.591.489 5.116 4.166-3.976 4.893-.266-2.099a2.324 2.324 0 0 0-.565-4.503zm-88.497.071a1.457 1.457 0 0 1 0 2.912 1.46 1.46 0 0 1-1.458-1.458c0-.803.655-1.454 1.458-1.454m102.253.461a2.327 2.327 0 0 0-2.332 2.323 2.336 2.336 0 0 0 2.332 2.332c.508.373.648-3.996 0-4.655m0 .779c.138.693.307 3.26 0 3.097a1.556 1.556 0 0 1-1.553-1.553c0-.855.698-1.544 1.553-1.544m-93.214 1.548a73 73 0 0 1 1.696 2.798l-.323.028a1.75 1.75 0 0 1-1.748-1.748c0-.408.14-.781.375-1.078m79.867.399a1.544 1.544 0 0 1 .366 2.897zm6.93 1.363-4.323 5.8 6.56 5.116 3.714-6.346zm-98.672 2.361 4.888 1.43-.922 5.002c-.078-.292-.351-.82-.717-1.449a2.62 2.62 0 0 0-2.289-3.895l-.209.009zm7.244 1.216-1.591 7.975 7.353 2.959 1.791-8.426zm92.264.062a1.453 1.453 0 0 1 0 2.908c-.804 0-1.458-.65-1.458-1.454s.654-1.454 1.458-1.454m-98.14.736a1.744 1.744 0 0 1 1.335 1.696l-.033.318a86 86 0 0 0-1.301-2.014zm104.38.217-3.941 7.425 6.701 4.679-.459-1.587-4.793-3.515 2.787-5.107zm-95.241 2.685a1.457 1.457 0 0 1 0 2.912 1.457 1.457 0 0 1 0-2.912m6.94.741 1.563 2.722a2.62 2.62 0 0 0-1.064 2.104 2.63 2.63 0 0 0 2.627 2.627c.217 0 .426-.031.627-.081l1.131 2.399-6.826-2.988zm89.822.024c-.612-.142-1.198.249-1.616.653a2.328 2.328 0 0 0 1.616 4.003c1.757-.425.814-4.466 0-4.655zm-14.122.641 5.548 3.966-3.24 6.251s-.325-1.263-.736-2.959a2.328 2.328 0 0 0-.993-4.432h-.028a67 67 0 0 1-.551-2.826m14.122.138c.964.294.638 2.997 0 3.097-.845.132-1.548-.694-1.548-1.548s.694-1.548 1.548-1.548zm-87.875 2.736 1.42 3.016-.242.019a1.75 1.75 0 0 1-1.748-1.748c0-.51.221-.969.57-1.287m74.48.741a1.544 1.544 0 0 1 .655 2.86 184 184 0 0 1-.656-2.859zm7.32.793-3.8 7.51 7.021 4.28 3.23-7.263zm-94.012 1.444 4.327 1.966-1.221 4.465-.527-1.093a2.613 2.613 0 0 0-1.933-4.005zm6.835 2.119-2.123 7.51 6.745 3.51 3.078-7.557zm-5.681.271c.566.288.955.874.955 1.553q-.002.178-.038.347zm94.107.608a1.46 1.46 0 0 1 1.458 1.458c0 .803-.654 1.454-1.458 1.454s-1.453-.65-1.453-1.454.65-1.458 1.453-1.458m6.407.414-3.22 7.86 7.394 4.079-.556-1.433-5.465-3.154 2.343-5.689zm-92.126 2.621a1.453 1.453 0 1 1 0 2.91 1.453 1.453 0 0 1 0-2.91m94.449 1.164a2.33 2.33 0 0 0-2.328 2.328c0 1.285 1.043 2.375 2.328 2.328 2.336-.053 1.145-4.674 0-4.655zm-87.22.261c.443.8.775 1.636 1.078 2.494a2.62 2.62 0 0 0-1.154 2.171 2.63 2.63 0 0 0 2.47 2.622l.295.038.418 1.582-5.805-3.045c.814-2.186 1.51-3.7 2.698-5.861zm87.22.518c.679.284.861 3.01 0 3.097a1.549 1.549 0 1 1 0-3.096zm-14.307.902 5.705 3.268-2.864 6.18-.85-2.831a2.32 2.32 0 0 0 1.021-1.924 2.33 2.33 0 0 0-2.299-2.328zm-71.526 1.948.907 3.021c-.922-.047-1.492-.79-1.492-1.724 0-.516.227-.978.584-1.297zm72.48 1.226a1.547 1.547 0 0 1 .794 2.646zm-85.129.199 4.413 2.579-1.99 5.149-.58-1.857a2.618 2.618 0 0 0-1.335-4.246zm92.112.104-2.674 7.168 7.738 4.066 1.933-7.334zm-91.257 2.627c.449.315.746.838.746 1.43 0 .211-.041.411-.109.599zm5.781.356-3.14 7.272 6.531 4.303 3.401-7.581zm87.903 1.183a1.453 1.453 0 1 1 .001 2.91 1.453 1.453 0 0 1-.001-2.91m7.654 3.196c-.651.417-1.037 1.227-1.037 2.057a2.324 2.324 0 0 0 2.328 2.328q.43-.004.773-.085c.67-.898-.28-4.341-2.063-4.3zm-93.605-.209a1.457 1.457 0 0 1 0 2.912 1.457 1.457 0 0 1-1.454-1.458c0-.803.65-1.454 1.454-1.454m95.241 3.745a.65.65 0 0 1-.345.069c-.854-.04-1.548-.694-1.548-1.548 0-.487.225-.922.577-1.206 1.337-1.003 1.533 2.885 1.317 2.685zm-86.643 1.238c.267 1.193.561 2.326.85 3.382-.118.025-.24.043-.366.043a1.75 1.75 0 0 1-1.748-1.748c0-.797.534-1.468 1.264-1.677m81.092.855-2.023 8.061 7.742 2.821 1.482-7.628zm-94.387.109 4.109 2.836s-1.328 3.203-2.451 4.912l-.318-1.482a2.62 2.62 0 0 0 1.126-2.152 2.62 2.62 0 0 0-2.137-2.579zm86.878.385c.855 0 1.544.689 1.544 1.544 0 .56-.167.792-.613 1.064-.34-.765-.807-1.523-1.23-2.551.126-.033.163-.057.299-.057m-86.341 2.128a1.744 1.744 0 0 1 .594 2.779zm6.17 1.178-3.729 6.479 5.472 4.185 4.275-6.484zm90.283.218c.803 0 1.454.655 1.454 1.458s-.65 1.454-1.454 1.454a1.456 1.456 0 1 1 0-2.912m6.697 2.014.95 1.472a2.3 2.3 0 0 0-.475 1.401 2.33 2.33 0 0 0 2.332 2.328q.262.001.508-.052l.765 1.183-4.854-1.738zm-95.864 1.729a1.453 1.453 0 1 1 0 2.908c-.803 0-1.458-.65-1.458-1.454s.655-1.454 1.458-1.454m97.28.465 1.434 2.228h-.043c-1.356-.026-1.929-1.142-1.392-2.228zm-90.302.1-5.282 7.006 7.006 5.192-.109-1.548-5.12-3.657 3.895-5.187zm77.135 2.37 6.973 2.19-1.492 6.916-1.643-2.731a2.324 2.324 0 0 0-2.342-3.891zm-75.962 1.202a2.626 2.626 0 0 0-2.361 2.608 2.63 2.63 0 0 0 2.627 2.627c.668.079.764-.941 0-.879a1.75 1.75 0 0 1-1.748-1.748c0-.926.723-1.68 1.634-1.738l-.128-.869zm85.433.746-1.211 8.004 7.899 1.686.589-7.258zm-98.767.195 3.729 2.755-2.831 3.962-.152-1.135a2.63 2.63 0 0 0 1.116-2.152 2.62 2.62 0 0 0-1.734-2.461zm91.537.997a1.545 1.545 0 0 1 1.178 2.545l-1.506-2.508a1.5 1.5 0 0 1 .328-.038zm-25.052 1.05c.168.062.646.098.57.252-.063.129-1.325 1.515-1.325 1.515l.142 1.292 2.242-2.541.903.333-3.149 3.201-.147 1.192 4.194-4.118 1.791.494-4.878 4.802 5.619 5.695 5.624-5.733-3.995-4.365 1.976.185c.833.95 1.751 2.461 3.282 3.268l-.152-1.14c-.078.054-1.859-1.675-1.577-1.957l1.572.114s2.27-.661-.575-.66c-3.733.001-7.758-1.27-10.963-2.223-.357-.107-.903-.394-1.168-.404-.655.656-1.463.517.014.798m-66.215-.019a1.734 1.734 0 0 1 .333 2.489zm101.389 1.392a1.453 1.453 0 1 1 0 2.91 1.453 1.453 0 0 1 0-2.91m-95.584.142-4.541 5.771 5.144 4.935 5.268-6.175zm101.973 1.477.361.062.019 3.938-.584-.123zm-35.449 1.829a1.453 1.453 0 1 1 0 2.908c-.803 0-1.458-.65-1.458-1.454s.655-1.454 1.458-1.454m-65.821.413c.803 0 1.454.655 1.454 1.458a1.453 1.453 0 1 1-2.908 0c0-.803.65-1.458 1.454-1.458m7.011 1.145-5.866 6.992 6.299 6.503-.019-1.454-4.893-5.13 4.584-5.344zm65.593.641-6.037 6.099 6.018 6.237.143-1.401-4.646-4.688 4.351-4.494zm-13.271.632.009 1.658 3.786 3.852-3.876 3.957.024 1.681 5.496-5.667zm30.927.727 7.111 1.344-.437 6.716-1.71-2.066a2.326 2.326 0 0 0-2.883-3.483zm-95.831 1.197 3.505 3.686-3.349 3.786-.028-1.287a2.63 2.63 0 0 0 1.587-2.413c0-1.12-.699-2.07-1.686-2.446zm12.996.931a2.626 2.626 0 0 0-2.038 2.555c0 1.246.872 2.292 2.038 2.56v-.917a1.75 1.75 0 0 1-1.159-1.643c0-.757.485-1.397 1.159-1.639zm51.523.247c-1.079.711-.597 4.72 0 4.655a2.324 2.324 0 0 0 2.323-2.328 2.324 2.324 0 0 0-2.323-2.328zm13.77.38a2.327 2.327 0 0 0 0 4.656c1.022-.338.605-4.422 0-4.655zm20.644.299c.855 0 1.548.689 1.548 1.544 0 .279-.08.543-.209.769l-1.843-2.232q.238-.081.504-.081m-34.414.1c.855 0 1.544.694 1.544 1.548s-.689 1.548-1.544 1.548c.078-.554-.291-3.161 0-3.097zm-64.472.356c.477.311.789.846.789 1.458a1.75 1.75 0 0 1-.727 1.425zm78.242.024c.193.627.435 3.206 0 3.097a1.549 1.549 0 0 1 0-3.096zm-7.039 2.256-5.667 5.638 5.785 5.914 5.472-5.838zm-65.37.304-5.073 5.477 4.888 6.346 5.733-5.71zm-27.502.199c1.56.002 3.017.269 3.61 1.306 2.389 3.199 1.702 9.772.047 12.032-3.718 3.374-5.82 4.267-10.013 3.496.481-1.896-1.533-2.918-1.824-2.498-.037.006-.193.338-.005.361 1.445.177 1.331 1.901 1.16 1.908-1.597-.05-2.635-.022-2.798-.734-.101-.438.157-1.116 1.088-1.878 1.093-.875 6.127-.855 6.127-.855.019.008-.012-1.431.494-2.256.444-.725 1.059-1.529.636-1.862-.726-.336-1.217-1.15-1.321-2.09-.196-1.969.114-6.709.043-6.759.848-.08 1.819-.172 2.755-.171zm92.862 3.657c.804 0 1.458.65 1.458 1.454a1.456 1.456 0 0 1-2.911 0c0-.804.65-1.454 1.453-1.454m-65.322.565a1.457 1.457 0 0 1 0 2.912 1.46 1.46 0 0 1-1.458-1.458c0-.803.655-1.454 1.458-1.454m72.252 1.368-5.923 6.042 6.313 6.531-.199-1.772-4.546-4.679 4.446-4.636zm-13.381.114-.162 1.672 4.194 4.408-3.809 3.914-.057 1.9 5.605-5.909zm-64.852 2.28 3.349 4.698-3.985 3.496.104-1.335a2.63 2.63 0 0 0 2.019-2.555 2.62 2.62 0 0 0-1.634-2.427zm12.54.926c-.078.974-.131 1.761-.18 2.479a2.63 2.63 0 0 0-1.881 2.518c0 1.055.626 1.962 1.525 2.38a85 85 0 0 1-.299 2.631l-4.004-5.857zm94.672.275.157 16.43 11.87 12.355.128 46.115-49.02.297-12.611-21.399-.888-.674 3.738-19.964c5.886 2.71 10.837-4.3 7.624-9.98 18.142-6.626 39.002-23.18 39.002-23.18m-28.946.09a2.324 2.324 0 0 0-2.328 2.323 2.33 2.33 0 0 0 2.328 2.332c1.285 0 .799-.795.799-2.08s.487-2.575-.799-2.575m-13.552.138c-.646.735-1.015 4.687 0 4.655 1.285-.04 2.328-1.047 2.328-2.332a2.324 2.324 0 0 0-2.328-2.323m13.552.641c.855 0 .465.837.465 1.692s.39 1.405-.465 1.405a1.553 1.553 0 0 1-1.549-1.553c0-.855.694-1.544 1.549-1.544m-13.552.138c.855 0 1.544.689 1.544 1.544s-.689 1.548-1.544 1.548c.092-.257-.389-2.987 0-3.092m-64.933.613a1.743 1.743 0 0 1-.242 3.092zm12.507 1.558c-.072 1.115-.124 2.031-.199 2.959a1.74 1.74 0 0 1 .199-2.959m58.948.537-5.524 5.524 5.752 5.976 5.467-5.785zm-65.712 1.434-5.785 4.646 3.724 5.71 1.297.779 5.296-4.532zm-23.226.385 13.617 7.268s-3.532 1.479-3.434 3.838c.14 2.638 1.722 4.794 4.859 3.985.72-.104 1.049.194 1.743 1.815 1.329 3.101 2.641 6.508 2.128 6.403-1.671-1.334-1.421-1.407-3.387-2.29-3.668-1.011-5.899 2.401-4.74 5.163 1.08 2.548 2.877 2.693 4.679 2.432.264.06.487.35.665.684.572 1.16 1.44 3.224 2.118 6.398 1.046 4.895 1.281 11.023.518 12.564-1.056 2.131-2.513 5.016-2.513 5.016-2.84-5.414-9.029-10.158-15.984-8.479-.234.146-.282.91.033 1.358 2.256 2.96 2.637 5.673 3.444 8.583 2.067 7.459 6.238 11.729 6.18 10.966l-2.184 3.958s-18.91.094-26.65 0v-9.087l20.273-20.765-8.031-.34.278-35.796c2.936-.612 6.388-3.676 6.388-3.676zm89.038 2.294a1.457 1.457 0 0 1 0 2.912 1.46 1.46 0 0 1-1.458-1.458c0-.803.655-1.454 1.458-1.454m-66.429 1.472a1.456 1.456 0 1 1 .004 2.912 1.456 1.456 0 0 1-.004-2.912m59.926 1.335.142 1.434 3.985 4.175-3.691 3.752c-.538.737-1.914.576-2.347.627-.002.047.091.544.418.689.344.152.756.124.922.218.384.219.632.252.632.252l5.363-5.486zm.062 3.244c-.967.304-.796 4.418 0 4.655a2.328 2.328 0 0 0 0-4.656zm13.666.632c.097.381.241 3.062 0 3.097a1.549 1.549 0 0 1 0-3.096zm-13.666.147a1.549 1.549 0 0 1 0 3.096c-.209-.357-.554-3.046 0-3.097zm-47.918.746c-.232.087-.551.033-.803.033-.808.002-1.812-.57-2.033-.465-.253.119-.168.649-.154.886.028.22.643.293.895.459.407.268.296.361-.166.47-.41.096-.741.123-1.002.494-.162.231-.177.634.1.63 1.613-.024 3.66-.688 5.591-.041 1.103.395 1.822.64 1.999.488.367-.315-.925-1.55-2.161-1.781-1.246-.233-1.693-.138-1.289-.509l.51-.256c.057-.386-.227-.785-.565-.84-.363-.059-.647.321-.922.431zm6.94 3.876c-.131.002-.32.094-.575.299-.736.488-1.887 1.143-4.665.38-1.527-.502-3.24-.063-4.237.217-.777.219-1.892.432-2.783.025-.871-.419-1.825-1.054-1.648-.399.045.167.097 1.126.109 1.696.028 1.34.12 2.457 1.088 1.406.419-.455.924-.459 1.872-.085.675.267 1.149.447 1.672.104.741-.485 1.381-.606 2.75-.142.649.22 1.33.24 2.152-.266 1.365-.84 2.231-.023 2.755.836.415.681.622-.29 1.387-2.308.394-.964.516-1.767.123-1.762zm-6.539 7.504c-.743.42-1.781.546-2.535 1.042-1.595 1.1-.1 2.016 1.008 1.787.453-.103.978-.329 1.559-.714 1.997-1.325 3.103-1.131 3.292.473.204 1.734-2.467 2.516-2.218 3.322.335.525 1.631-.197 2.434-1.285 2.381-3.227-.24-6.488-3.539-4.625zm10.34 9.099c-2.708.307-6.785 1.614-8.831 3.152-1.609 1.253-2.049 1.567-1.368 2.066.624.457 1.103.473.247 1.349-.305.312-.823.966-.822 1.093.009.628 3.83 2.492 6.023 2.784 1.691.225 4.427-.032 5.9-.627 1.942-.784 2.008-1.319.173-.78-1.432.421-3.162.738-4.866.614-1.533-.11-3.037-.578-3.985-.917-2.347-.839-1.938-1.817.432-.983 2.731 1.179 6.268 1.16 9.41-.256 1.268-.572 1.623-1.021 1.853-.827.056.048.185.359.218.447.08.207.088-.533.199-1.71.093-.977.185-2.285.185-2.285s-.189.552-.185.812c.025 1.709-.804 1.717-3.149.409-2.756-1.514-4.096-1.366-6.715-1.351-1.147.007-1.199-.324.415-.857.769-.254 1.949-.664 3.707-1.226 1.453-.465 1.846-.985 1.16-.907zm-20.773 3.447c.998 0 1.891.848 2.147 2.494l-.993-.071c-.331-2.454-2.113-1.898-2.812-.437l-.874.024c.686-1.35 1.651-2.009 2.532-2.009zm2.536.152c.404-.037 2.284.874 2.399 1.154.125.307-.59.638-1.216.822-.72.211-.574.242-.801-.184-.318-.597-.875-1.767-.382-1.792m-4.793.119c.02.265-.552 1.229-.964 1.354-.487.147-.87-.498-.47-.826.359-.186 1.36-.905 1.434-.527zm19.318.128c1.263-.051 2.438 1.223 2.536 2.731l-.636-.014c-.589-3.139-3.002-2.428-3.543-.19l-.75-.214c.625-1.621 1.53-2.278 2.394-2.313zm-2.479.223c.346-.023.301.258-.114 1.093-.196.394-.336.617-.679.603-.467-.069-.779-.219-1.017-.589-.162-.366.217-.651 1.026-.907.37-.117.627-.189.784-.199zm5.306.233c.222.002.625.144 1.259.423 1.621.714 1.813 1.009.964 1.415-.377.18-.689.316-.941.399-.76.253-.737-.172-.94-.698-.116-.297-.256-.568-.404-.884-.206-.442-.214-.657.062-.655m-23.755 2.66c.27-.002.854.354 2.028.774 1.686.602 3.386.381 5.624-.333.923-.294 1.239-.479.874.057-.288.424-1.861 1.202-3.144 1.52-2.404.596-5.58-.535-5.581-1.767.018-.178.077-.251.199-.252zm7.956 2.028c.244.005.006.371-.503.941-.79.882-1.996 1.488-3.225 1.705-2.587.458-4.73-.247-4.75-1.696-.015-1.043.167-1.058 1.444-.399 1.084.56 3.519.694 5.481.062.645-.17 1.306-.564 1.42-.594zm19.884 1.401c-1.963.518-4.047 1.04-5.952 1.406-2.041.4-5.016.033-6.569-.731-1.147-.565-1.549-.232-1.045.864.329.716.827 1.467 2.299 1.981 2.138.746 7.15-.465 10.873-2.389 2.165-.962 1.749-1.544.394-1.131m-32.324 14.749 3.35-5.691c22.684 4.392 47.228 1.203 54.739.163 0 0 8.202 13.57 11.151 18.334.278.507 1.04 2.223 1.04 2.223l-77.453-.062c1.084-2.181 2.114-4.999 2.114-4.999-2.366-.949-4.203-4.485-5.339-7.468-.997-2.618-2.724-9.013-4.997-12.128 3.975-2.254 13.971 2.777 15.395 9.628" style="fill:#131f67" transform="matrix(.73948 0 0 .76758 1.521 .818)"/><path d="m138.367 284.414-76.713.002 9.995-19.979c18.648 2.823 37.032 2.471 55.205-.404l11.512 20.382zm-104.83-15.925-.227-9.645 9.958.02zm83.343-63.297-.113-31.106 14.038 9.235-.512 31.584zm-33.572-7.334c.504-11.125-2.158-21.506-4.209-32.031l14.536-9.549.794 35.118zm-38.271-29.235.394-40.11c13.077 18.807 21.025 37.534 23.304 63.322-3.556 1.434-7.024 3.017-10.67 4.295-4.199-9.639-8.435-18.971-13.028-27.507m132.497 17.268c-12.084-15.352-19.374-36.405-23.178-61.603l11.062-5.37c3.672 8.896 7.243 17.949 11.888 25.332zm-47.712-27.344-1.176-33.665 11.073-6.727c.588 11.551 2.413 22.384 4.595 31.483zm-24.086-17.968-11.951-6.952.678-30.433 10.927 8.563zm74.605-84.388c.856-3.187 6.618-7.254 9.085-9.447l-.102 9.013s-8.545.604-8.983.434m-83.765-4.873L84.177 30.16l77.718-.652-9.985 21.305c-20.582-3.763-38.191-2.064-55.334.505" style="fill:#d40000" transform="matrix(.73948 0 0 .76758 1.521 .818)"/><path d="M99.278 186.286c.131.042 1.908-1.205 2.83-3.043.996-2.03.095-4.026.391-4.033 1.834.568 1.306 4.197.668 5.32-.54.979-1.577 1.637-2.648 1.825-1.057.186-1.24-.07-1.24-.07zm2.988-7.934c-.369.005-.53-.06-.773-.321-.338-.364-.744-.608-.959-.576-.29.044-.423-.01-.425-.17-.001-.132.127-.154.604-.11.29.027.904-.449.904-.449l.006-34.301c2.598 1.118 6.482 1.762 9.466 2.13l.2 30.573s4.378-2.38 5.968-3.331l.057-27.368 3.101-.351-4.897-10.33c-.688.548-10.328-.387-12.735-2.012l8.796-5.697c-.894-2.829-1.706-5.532-2.453-8.396l-.209-.167c-.181-.698-.31-1.013-.48-1.717l-.016-.475c-1.895-6.776-3.189-15.756-3.451-23.794.028-.076.307-.011.307-.011l-.056-4.911-.312.216.03-2.223.318-.326c.008-.43.037-1.243.037-1.243l-.407-.264.21-3.724.42-.064.23-5.895-11.14 7.484s-7.27-5.403-10.45-8.205c3.5-2.47 4.427-7.284 5.294-11.279.886-3.954 1.178-7.218 1.43-10.526.276-3.646.858-8.308 1.324-10.606.28-1.389.271-1.54-.123-1.565-.136-.008.004-.053.313-.102 7.142-.296 14.812.808 21.624 1.727 0 0 1.685-3.259 2.27-4.46 0 0 .343 1.102.708 1.869.828 1.626 2.718 3.351 4.334 4.28.604.413 2.34 1.016 3.513 1.222.69.118 1.801-.109 2.624-.448.282-.122.504-.277.505-.43.003-.156-.22-.313-.505-.594a4.3 4.3 0 0 1-.724-1.032c-.494-1.042-1.25-2.792-1.672-4.43-1.187-3.256-2.068-7.187-4.797-8.92l1.883-3.91-59.281.016 9.173 16.037s.277.478.368.648c.271.505.382.433.382.433a171 171 0 0 1-2.57 16.552s-.119-.432-1.861-.406c-5.098.076-6.884 5.957-2.62 8.56.402.248 1.085.723 1.76 1.09.194.105 2.638 1.593 2.638 1.593l-2.93-1.368-.21 35.29s-6.11-1.905-10.136-2.085l.04-30.598-5.624 3.15-.255 27.357-3.08.206s1.166 2.577 1.426 3.12c.52 1.084 1.83 3.495 2.725 5.02a146 146 0 0 0 1.058 1.738c4.105.113 8.306.753 12.123 2.514l-8.836 5.967c3.69 10.793 8.292 26.585 5.728 52.074l.62-.408.17-2.746 10.998-7.856 13.568 11.342s-.985-.028-1.205-.037c-3.46-.127-5.898 3.547-6.734 6.614-1.474 5.407-1.667 6.741-2.346 15.314-.268 3.39-.915 6.661-1.573 9.892-.348 1.623-.296 1.785-.296 1.785 6.9.228 14.108-.528 19.514-1.768 0 0 2.282-11.244 3.096-16.016.77.457 1.452.657 2.144.641 5.352-.604 4.893-8.22 2.134-8.434zM78.448 24.213l2.806 10.216-6.87.66-5.705-10.791zm42.236-.142-7.062 15.55c-14.817-2.158-23.369-2.363-40.567.165l-8.94-15.506 2.353-.021 6.74 12.38 10.011-1.037-2.767-11.329 2.645-.084 2.738 11.117 15.495-.086c.501-3.724 1.474-11.009 1.474-11.009l2.861.033L103.76 35.5l9.153 1.191 5.288-12.583zm-19.872.144-.903 9.456-12.817.102-2.05-9.565zm15.53-.181-4.351 11.223-6.341-.88 1.732-10.187zM41.038 42.303c.99.806 1.3 1.014 1.133 1.35-.188.379-.412.304-1.25-.426-2.504-2.208-5.185-2.72-7.47-2.08-6.436 2.337-7.556 10.062-3.075 15.324 4.456 4.087 12.286 1.619 13.545-4.774.035-1.182 1.022-1.64 1.023-.113-.493 5.35-2.923 9.963-4.978 13.372h11.845c-2.872-4.454-3.837-7.063-4.684-13.712.04-1.045.695-1.204.92-.223.681 4.714 4.217 8.455 8.898 7.697 9.53-1.995 9.578-15.433 1.245-17.607-2.075-.446-4.572.121-6.494 1.9-.698.647-.946.75-1.19.502-.272-.274.056-.548.846-1.275 4.4-3.368 4.2-9.513.197-12.95-3.765-2.72-8.205-2.487-11.394.422-4.136 3.996-2.742 9.779.882 12.591zm83.122-7.272c.28.959.568 1.897.636 2.09 1.034 2.91 1.46 3.87 2.136 4.837.111.16.145.142-.019.278-3.114 1.58-8.743-2.308-10.098-5.87.17-.343.923-1.79.923-1.79.393.796.099 1.583.357 2.298.063.305.707-2.06.707-2.06s.622 1.05.697 3.068c.012.31.809-1.354.809-1.354 1.002 1.4.946 3.83.946 3.83 1.129-1.423.425-2.24 2.17 1.387.2-.377.103-.778.367-.672.767.308 1.843.865 2.236.753-.512-.665-1.504-1.015-1.776-1.898 0 0 .787.07.838.03-.891-.504-1.748-.939-2.418-1.906.2-.076 1.006.067.971-.021-1.207-1.132-3.018-2.047-.398-1.791-1.703-1.244-3.6-2.103-.643-2.01-2.11-1.034-2.679-1.672-2.286-1.848.221-.1.853.295 1.859-.038-1.696-.718-2.395-1.046-2.462-1.282-.081-.287.723-.444 1.276-1.064 0 0-.683.161-.981-.168 0 0 .332-.991.586-1.563 2.159 2.033 3.008 4.912 3.568 6.764zm18.185-3.947s-9.538 10.666-14.26 15.958l4.614.071.21 28.881c1.608.225 4.396.005 5.451 1.116.655 1.006-1.88 2.985-3.307 2.57-.952-.267-2.13-.056-2.13-.056l.097 32.182c-3.044-5.867-5.372-9.58-8.743-19.767.977-.705 1.98-1.25 2.149-1.368-1.296-3.243-2.192-8.344-.383-12.788l1.246.771c-.914 2.713-1.25 6.724.244 10.43l.344-.373s-.37-.74-.608-1.556c-.213-.728-.517-1.667-.52-2.64-.06-1.723-.009-3.203.383-4.587.135-.451.328-1.123.429-1.33s.197-.399.197-.457c-3.67-1.542-6.3-3.8-9.464-5.414l-.3-.159c-.4-.231-.295-.31.332-.57 1.32-.546 1.86-1.208 1.83-2.538-.041-1.892-1.016-2.629-3.147-2.505-.774.046-.824.034-.963-.24-.322-.643-1.435-3.195-1.436-3.297-.002-.06-.233-.634-.517-1.275-.437-1.024-.943-2.08-1.15-3.149-.104-.531-.4-.74-.477-.191-.563 4.073-1.082 6.223-2.097 8.67-.3.729-.53 1.342-.505 1.364.097.09 1.793.907 2.588 1.247 3.099 1.323 4.508 2.14 4.03 2.337-.334.138-.453.377-.538 1.061-.222 1.793-.198 2.71.09 3.278.304.595.297.638-.2.973-.431.292-.338.293-.455 1.79-.138 1.778-.044 2.908-.044 2.908l.772 1.028-.785 1.014-.18 4.656 1.06.835-.991 1.015.354 4.247s-.13.392-.301.587c1.678 17.959 8.162 36.058 17.876 48.394l.097 29.502 9.52 9.888zm-.746 1.899v2.326l-8.084 9.036 8.084.146v1.971l-12.41-.025zm-.125 3.948.02 6.512-6.041.008zm-55.44 3.281 1.26-.054c-.049 1.312-.55 7.374-1.15 12.68-.675 5.985-2.057 11.147-2.322 11.147l-1.217-.765c2.015-6.866 2.552-15.7 3.43-23.009zm5.717-.187c-.178 3.705-.926 6.296-1.155 10.677-.283 5.35-1.169 12.012-3.488 17.538-.78 1.86-2.224 3.608-4.249 4.432-3.55 1.445-6.564-3.123-4.163-6.482 1.897-2.655 4.866-2.621 5.768.065.744 2.22-1.649 5.008-3.559 4.142-1.327-.602-.988-3.084.502-3.668.618-.242 1.141.572.837 1.302-.24.575-.266.934.059.69 1.348-.986.333-3.338-1.34-2.458-2.233 1.173-1.858 4.62.391 4.77 2.847.29 5.043-3.348 6.45-10.257 1.542-7.733 1.158-14.656 2.637-20.727zm-3.638.13 1.496-.047c-.119.575-.14 1.187-.242 1.89-.59 4.056-.939 9.977-1.544 14.618-.852 6.548-2.38 10.529-2.42 10.043-.17-.794-.654-1.438-1.024-2.066 1.542-4.355 2.164-8.317 2.56-12.048.463-4.36.594-8.404 1.174-12.39m-6.396.375 1.314-.07c-.511 8.681-1.737 16.552-2.462 19.93-.224 1.019-.299 1.46-.485 1.545-.207.093-.55-.25-1.387-.733 1.272.186 2.294-14.761 3.02-20.672m2.048-.125 1.425-.145c-.212 3.14-.722 8.073-1.293 12.522-.692 5.378-1.597 10.145-2.048 10.074l-1.188-.428c.795.258 2.753-15.788 3.103-22.023zm-2.704.153c-.931 6.572-1.02 14.252-2.95 20.389l-1.334-.645c.365.124 1.314-3.993 1.636-8.65.28-4.056.985-8.467 1.193-10.912zm-2.201.241c-.531 2.32-.53 5.741-.928 8.593-.493 3.533-1.018 10.707-1.804 10.542l-1.363-.717c.715.223 1.962-13.369 2.721-18.196zm-3.589.576 1.384-.195c-.666 5.306-1.871 17.68-2.584 17.772l-1.297-.715c.505-2.174 1.787-9.563 2.497-16.863zm-.86.206c-.573 5.833-1.11 11.74-2.308 16.276l-1.42-.664s.985-4.989 1.453-8.493c.46-3.459.53-3.952.678-4.853.324-1.987.413-2.061.413-2.061zm60.785 5.98-.137 28.008-1.573-.062.064-27.99zm3.717.221c.593 0 1.074.499 1.074 1.116 0 .616-.48 1.12-1.074 1.12s-1.076-.504-1.076-1.12.481-1.116 1.076-1.116M113.57 58.06c1.113 2.115 1.968 2.89 2.95 3.294 1.77.73 4.212-1.067 3.324-3.583-.468-1.323-1.653-1.52-3.157-1.256 0 0-.648-.478-1.41-2.875-.902-2.837-2.318-5.756-2.318-5.756-.09 3.56-.896 7.264.61 10.175zm26.934-7.678c.594 0 1.078.499 1.078 1.116 0 .616-.484 1.116-1.078 1.116s-1.075-.499-1.075-1.116.48-1.116 1.075-1.116m-2.95.044c.593 0 1.075.498 1.075 1.116 0 .616-.481 1.119-1.076 1.119-.593 0-1.078-.503-1.078-1.12 0-.616.485-1.115 1.078-1.115m-24.114-.268c.999 2.147 1.21 3.765 2.177 5.711.424.85.805 1.578.805 1.578 3.161-1.543 4.377 2.343 1.813 3.583-2.524 1.222-5.365-3.42-5.089-8.416.076-1.378.294-2.456.294-2.456m25.529 2.9c.594 0 1.074.498 1.074 1.116 0 .616-.48 1.119-1.074 1.119s-1.075-.503-1.075-1.12c0-.616.48-1.115 1.075-1.115m2.848 2.097v2.386l-5.62 5.66v-2.309zm-73.889 1.837c1.074.015 1.59.345.878.638-2.359.973-3.408 2.523-3.537 5.232-.006 1.37.152 1.549-.66.784-2.075-3.012.914-6.672 3.32-6.654m1.972.98q.392-.016.78.109c.632.206.4.22-.665.955-2.032 1.4-2.651 2.772-2.74 5.575-.026.422.058.773.023.95-.028.134-.185.09-.28.086-.388-.067-.626-.493-.739-.852-1.288-2.67 1.094-6.724 3.621-6.823m2.201.927a.95.95 0 0 1 .453.091c.497.257.314.295-.596.969-1.616 1.195-2.416 2.952-2.603 4.915-.12 1.259.816 2.756-.84 1.522-1.164-1.003-.932-3.61.304-5.398.761-1.104 2.34-2.087 3.283-2.098zm69.716-.546v2.717l-5.62 5.542V63.83zm-67.91 1.416c.637.007.924.432.178.92-1.819 1.186-2.913 3.45-2.806 5.814.103 1.428.155 1.684-.723.74-1.416-1.52-.418-5.646 2.325-7.19.372-.203.735-.288 1.025-.284m1.861.792c1.048-.026 1.194.523.257 1.202-1.789 1.297-2.983 3.58-2.954 5.655.013.965-.06 1.085-.47.759-2.067-1.638.148-7.35 2.946-7.602l.221-.015zm36.956.179c.256.019.715.963 1.433 2.939.693 1.905 1.81 4.307 2.048 4.396.073.028.388-.086.698-.255 2.359-1.284 4.018 2.36 1.694 3.715-1.654.964-3.214-.07-4.655-3.088-1.697-3.558-2.162-6.2-1.342-7.624q.051-.089.123-.083zm-35.038.97c.284-.013.56.043.819.182.61.327.521.57-.414 1.141-.965.588-1.345.956-1.9 1.827-.866 1.359-1.01 1.881-1.012 3.631q.002 2.14-1.23.238c-1.415-2.186 1.424-6.913 3.738-7.02zm2.354 1.28c.926-.022 1.536.37.65.856-2.818 1.546-4.003 3.766-3.464 6.497.17.856-.772.131-1.345-1.036-.835-1.703.707-4.996 2.81-6.001.441-.21.928-.308 1.35-.317zm31.806 2.512c.177.013.38.5.833 1.698.294.782.688 1.717.878 2.079.19.361.323.7.292.754-.16.275-1.465-.192-1.905-.681-.678-.756-.893-2.446-.435-3.413.134-.282.231-.445.337-.437m27.068 2.06c.594 0 1.075.499 1.075 1.116 0 .616-.481 1.119-1.075 1.119s-1.075-.503-1.075-1.12c0-.615.48-1.115 1.075-1.115m-110.318 1.8c.594 0 1.075.503 1.075 1.12 0 .616-.48 1.116-1.075 1.116-.594 0-1.075-.5-1.075-1.116s.48-1.12 1.075-1.12m44.444.336c1.175-.043 1.538.533 1.736 2.385.135 1.271.4 1.39 2.325 1.054 2.033-.355 2.714.218 2.86 2.402.114 1.734.1 1.72 2.412 1.736 2.276.016 2.52.255 2.782 2.676.195 1.799.129 1.748 2.367 1.717 2.48-.035 2.702.156 2.87 2.431.136 1.846.254 1.965 1.82 1.831 1.534-.131 4.364-.145 4.893-.025 1.32.298 1.374.242 1.658-1.604.374-2.432.837-2.736 3.717-2.436 1.415.147 1.58.117 1.78-1.175.267-1.724.6-2.23.6-.736.002 3.772-.25 3.948-2.675 3.277-1.82-.504-1.85-.116-2.041 1.704-.168 1.605-.43 2.262-.998 2.519-.441.2-1.928.029-2.525-.147-.226-.067-1.641-.102-3.316-.084-4.035.044-4.077.054-4.074-2.887.002-1.238-.26-1.505-2.371-1.439-2.65.083-2.51.157-2.961-3.144-.157-1.145-.245-1.189-2.438-1.156-2.39.035-2.933.071-2.793-2.02.128-1.899-.318-2.398-2.311-1.917-2.124.513-2.53-.422-2.737-2.121-.192-1.574-.32-1.18-1.334-1.262-1.123-.09-.992-1.402.2-1.524.204-.021.388-.049.555-.055zm67.536.573c.594 0 1.075.499 1.075 1.116 0 .616-.48 1.116-1.075 1.116-.594 0-1.075-.5-1.075-1.116s.48-1.116 1.075-1.116m-3.028.062c.593 0 1.075.503 1.075 1.119s-.48 1.116-1.075 1.116c-.594 0-1.076-.499-1.076-1.116 0-.616.481-1.12 1.076-1.12m-107.34 1.859c.594 0 1.078.499 1.078 1.116 0 .616-.484 1.116-1.078 1.116s-1.075-.499-1.075-1.116c0-.616.48-1.116 1.075-1.116m-3.02.025c.593 0 1.074.5 1.074 1.116s-.481 1.116-1.075 1.116-1.075-.499-1.075-1.116c0-.616.48-1.116 1.075-1.116m56.21.95L94.58 81.83l10.585-7.354-.064 2.683-10.509 7.254s-8.944-7.189-13.267-10.66zm55.657.13c.593 0 1.074.502 1.074 1.119 0 .616-.48 1.116-1.074 1.116s-1.076-.5-1.076-1.116.481-1.12 1.076-1.12m-18.317 1.462 2.652 4.473-2.648 1.994 2.41 3.199-2.6 2.765 2.857 1.883-2.67 3.862-3.699 1.705 3.698-5.044-3.06-2.18 2.903-3.247-2.605-3.544 2.696-2.187-2.917-4.966.19-.24zm-49.03-.988 19.65 15.258s1.815 1.418 2.335 1.76c1.104.726 1.324.435 2.425-.35 2.482-1.53 8.493-5.775 8.493-5.775l-.048 2.197s-6.045 4.695-9.392 6.643c-.474.272-.984.014-1.341-.267-7.297-5.999-14.766-11.816-22.164-17.693zm45.152.242c.083.154.347.21.475.415.871 1.398 2.45 3.885 2.45 3.885l-2.764 2.275 2.537 3.458-3.17 3.343 3.238 2.288s-2.01 3.195-3.53 4.656l-.038-2.483 1.3-1.625-1.49-1.065-.005-3.413 1.515-1.657-1.388-1.456.247-3.732 1.324-1.087-1.092-1.553zm-88.226.762c.593 0 1.078.499 1.078 1.116 0 .616-.485 1.116-1.078 1.116s-1.075-.499-1.075-1.116c0-.616.48-1.116 1.075-1.116m112.97 4.07-5.466 5.244v-2.382l5.466-5.57zm-109.845-2.56v2.874l-5.837 5.595v-2.775zm109.847 3.296v2.853l-5.466 5.332v-2.825zm-6.432.448.113 92.741 6.347 6.97.005 2.314-8.032-8.638-.184-93.31zm-103.415-.276v3.229l-5.837 5.527v-3.038zm39.935.593 7.72 6.238-.031 21.747c-3.127-2.44-5.636-3.895-8.009-5.131zm67.37 7.033c.595 0 1.075.499 1.075 1.116 0 .616-.48 1.116-1.075 1.116-.594 0-1.078-.499-1.078-1.116 0-.616.484-1.116 1.078-1.116M81.737 88.44l.028 22.19-1.52-1.442-.089-22.008zm-52.723.213c.593 0 1.074.5 1.074 1.117 0 .616-.48 1.119-1.074 1.119s-1.079-.503-1.079-1.12c0-.616.485-1.116 1.079-1.116m111.484 1.583c.594 0 1.075.5 1.075 1.116s-.48 1.12-1.075 1.12c-.594 0-1.075-.503-1.075-1.12 0-.616.48-1.116 1.075-1.116m-3.063.138c.594 0 1.075.5 1.075 1.116s-.48 1.117-1.075 1.117c-.594 0-1.075-.5-1.075-1.117 0-.616.48-1.116 1.075-1.116M82.6 90.267l4.709 4.57-4.851 4.777-.04-2.205 2.7-2.702-2.713-2.92zm1.792.404 3.927 3.009-.615.773zm-53.787.674c.594 0 1.075.499 1.075 1.116 0 .616-.48 1.116-1.075 1.116-.594 0-1.075-.5-1.075-1.116s.48-1.116 1.075-1.116m-3.15.054c.593 0 1.074.503 1.074 1.12 0 .616-.48 1.115-1.075 1.115-.593 0-1.075-.499-1.075-1.116 0-.616.48-1.119 1.075-1.119m77.172.405c.757 8.878 1.281 15.023 3.49 23.394L97.96 121.94l.093-25.713zm27.995 20.314-.04 30.49c-9.587-14.16-14.755-30.71-16.42-46.395 0 0 5.147-2.46 7.645-3.97 2.647 6.438 1.505 6.43 8.814 19.875zm6.57-19.023c.594 0 1.076.502 1.076 1.119 0 .616-.481 1.116-1.076 1.116-.593 0-1.075-.499-1.075-1.116s.48-1.12 1.075-1.12m-110.135 1.2c.594 0 1.074.498 1.074 1.116 0 .616-.48 1.119-1.074 1.119s-1.075-.503-1.075-1.12c0-.616.48-1.116 1.075-1.116m59.931-.103 3.73 2.955.01 2.24-4.462-4.455zm-1.278 1.183 4.664 4.786-4.89 5.065-4.823-4.745zm35.121.168-4.497 1.914c1.72 16.18 6.184 28.308 12.203 38.14l.137-22.695c-3.107-5.104-5.46-11.253-7.843-17.36m18.906.334v2.546l-5.598 5.329v-2.535zm-54.031 1.4-2.971 3.012 2.992 3.004 2.88-3.004zm-55.948-.333v2.707l-5.557 5.57v-2.877zm62.58 1.517.045 25.897-1.236.607.087-27.054zm-6.688.391 1.349 1.407-1.412 1.473-1.328-1.407zm54.087.271v2.936l-5.598 5.426-.093-2.8zm-61.941 11.01c5.777 5.189 10.216 13.065 15.09 17.468 1.97 1.773 6.791 4.54 9.392 5.392 2.957.968 5.258 1.364 8.226 1.418 2.343.043 2.353.058 2.353.058l.993 1.83-1.64-.023-.108 6.463c1.738.087 3.44-.012 5.118-.228l.606 1.177c-11.95 1.681-23.63-3.02-30.656-9.026-3.203-2.734-5.807-6.072-8.976-10.932-6.1-9.875-16.844-14.643-26.849-14.754l-.83-1.338 1.673.058s.17-1.242.19-3.353c.026-2.377.012-2.795-.168-2.863-1.211-.146-4.865-.068-4.758.093l-.752-1.396c11.928-1.276 23.665 3.034 31.095 9.955zm-48.038-9.747v2.655l-5.557 5.441v-2.659zm61.092.226-.147 2.373-2.65 2.72 2.82 2.841-.068 1.983-4.97-4.785zm-36.304.844c-.256 0-.41.023-.439.073-.066.114-.03 1.134-.245 4.823-.08 1.353-.17 1.357.922 1.494.917.032 2.969.578 4.333.745 1.15.159.91-.205 1.234-1.159.353-1.043.545-1.969.985-3.458.401-1.364.217-1.408-2.373-1.91-1.79-.348-3.65-.607-4.417-.608m25.853-.226 4.499 4.659-4.43 4.669-.077-2.256c.855-.79 1.873-1.687 2.624-2.578l-2.61-2.766zm-22.56 1.51.483.824 1.159.199-.202.838.59.865-.726.565.025 1.043-.907-.033-.79.586-.623-.823-.91-.03.05-1.17-.589-.517.704-.654-.091-1.037 1.12.195zm-7.304 1.405.715.486-.727.52-.033.798-.444.393-1.632-3.315 1.062.447.81-.559zm13.095-.767c-.57.01-.645 1.105-1.264 3.178-.862 2.891-.924 2.623.731 3.227.736.268 2.146.762 2.891 1.126 1.817.886 1.827.882 2.505-.321.3-.534.872-1.845 1.272-2.525.997-1.697 1.023-1.615-.808-2.53-1.078-.538-1.73-.759-3.996-1.712-.63-.265-1.032-.446-1.33-.441zm1.813 1.917.793.517.892-.386.178.995.976.393-.277.98.429.733-.83.167-.604 1.357-.912-.664-.967.363-.269-.747-.99-.497.36-.823-.494-1.109 1.133-.09zm19.946 1.018 4.965 5.05-4.52 4.704-4.964-5.067zm51.8.92c.595 0 1.076.5 1.076 1.117 0 .616-.48 1.116-1.076 1.116-.593 0-1.074-.5-1.074-1.116s.48-1.116 1.074-1.116m-65.06.245c-.288.005-.453.28-.702.81a33 33 0 0 1-1.285 2.332c-1.277 2.076-1.278 1.97-.004 2.782.54.344 1.785 1.408 2.854 2.41.99.93.882.71 3.013-1.503 1.39-1.443 2.248-1.848 1.706-2.609-1.317-1.172-2.398-2.029-3.826-3.15-.944-.73-1.43-1.076-1.757-1.072zm13.493.565-2.93 2.979 3.3 3.103 2.738-2.918zm-50.165-1.011.033 23.298c3.22 5.716 6.527 11.483 8.247 17.916l4.723-2.403c-2.259-19.035-7.516-29.589-13.003-38.81Zm-8.41 1.463c.593 0 1.075.499 1.075 1.116 0 .616-.481 1.116-1.076 1.116-.593 0-1.075-.5-1.075-1.116s.48-1.116 1.075-1.116m58.61 1.243 1.411 1.346-1.3 1.465-1.426-1.531zm52.849.219c.594 0 1.078.499 1.078 1.116 0 .616-.484 1.116-1.078 1.116s-1.075-.499-1.075-1.116c0-.616.48-1.116 1.075-1.116m-2.888.113c.594 0 1.078.499 1.078 1.116 0 .616-.484 1.116-1.078 1.116s-1.075-.499-1.075-1.116.48-1.116 1.075-1.116m-62.826-.073.816.628.96-.428.069 1.172.873.446-.55.83.332 1.093-.945.032-.735 1-.66-.657-1.285.09-.205-1.139-.557-.453.433-.753-.317-1.003 1.1-.078zm-47.327 1.243c.593 0 1.075.498 1.075 1.116 0 .616-.48 1.116-1.075 1.116-.594 0-1.076-.5-1.076-1.116s.481-1.116 1.076-1.116m3.094.033c.594 0 1.075.502 1.075 1.119 0 .616-.48 1.116-1.075 1.116-.593 0-1.075-.5-1.075-1.116s.48-1.12 1.075-1.12m62.256 2.662-2.565 2.485 2.528 2.735-.076 2.096-4.484-4.641 4.557-4.644zm-25.35-.54-9.624 6.626-.585-1.657 8.578-5.831zm71.583-.54c.595 0 1.075.503 1.075 1.12 0 .616-.48 1.116-1.075 1.116-.594 0-1.074-.5-1.074-1.117 0-.616.48-1.119 1.074-1.119m-57.691.674c-.445.032-.9.579-1.764 1.532-.847.935-1.846 2.032-2.06 2.188-.669.488-.636.606.527 1.961.354.412 1.02 1.253 1.483 1.87.462.619 1.198 1.393 1.344 1.552.472.514.731.406 2.901-1.21 2.636-1.964 2.623-1.673.2-4.92-1.393-1.867-2.06-3.015-2.631-2.974zm-52.342.686c.593 0 1.074.5 1.074 1.117 0 .616-.48 1.116-1.074 1.116s-1.079-.5-1.079-1.116.485-1.117 1.079-1.117m56.44.405 1.738 1.936-.156.193zm56.216.431v3.355l-5.357 5.137v-3.069zm-59.99.98.65.93 1.104-.073-.162 1.096.586.445-.572.83-.046 1.046-.912-.225-.747.932-.734-.893-.865.104.03-1.087-.884-.52.624-.708.019-1.22 1.285-.05zm26.501.07.536 1.693-13.393 9.045-1.17-1.395zm-35.06 1.133 1.066.833-14.057 9.382-.423-1.223zm-41.115-.36v2.79l-5.93 5.93v-2.88zm55.664.67.172-.147 4.596 4.581-.869.959zm-12.695 1.345.127 27.058-1.225-.88.092-25.672zm.755.624.998.912-.955.97zm65.94-.23v2.743l-5.357 5.28v-2.869zm-109.664 1.318v2.58l-5.93 5.882v-2.605zm55.267.352c-.154-.003-.32.1-.562.299-.22.18-.76.569-1.198.864-1.613 1.089-2.982 2.108-3.042 2.26-.124.31 1.494 2.504 3.742 5.132.883 1.033.858 1.234 1.745.313.705-.83 3.287-3.105 3.213-3.713-.143-.697-1.03-1.489-3.235-4.583-.293-.39-.466-.569-.664-.572zm-9.959.282 3.526 5.236-.47.487-4.325-4.43zm-6.889.618.008 25.245-6.619 4.88c.122.066-.812-15.168-3.343-23.292zm16.458.89.649 1.255.98-.17-.128 1.154.83.677-.816 1.173.108.835-.962-.226-.878.942-.602-1.198-1.265.021.177-1.15-.882-.77.963-.59.134-1.05.83.074zm5.743.195.109 1.031-.59-.533zm-16.92 1.833-.009-1.477 4.22 4.227-4.31 4.192.03-1.992 2.453-2.425zm34.872-.817.599 1.882-8.668 5.54-1.748-.943zm28.558 3.11c.594 0 1.078.5 1.078 1.117 0 .616-.484 1.119-1.078 1.119s-1.075-.503-1.075-1.12c0-.615.48-1.115 1.075-1.115m-55.171 3.632-3.046-3.164.383-.431zm7.846-2.844c-1.032.915-3.235 3.557-3.231 3.993.003.435 3.05 3.168 4.883 4.382.575.38.803.393 1.025.047 3.166-4.908 3.3-4.743 2.047-5.701-1.274-1.011-2.763-2.516-3.78-3.034-.428-.218-.502-.083-.944.313m-11.414.24 5.02 4.996-4.656 4.66-4.832-5.29zm-51.264.377c.594 0 1.076.499 1.076 1.116 0 .616-.481 1.116-1.076 1.116-.593 0-1.074-.5-1.074-1.116s.48-1.116 1.074-1.116m63.434 1.005.845.78 1.007-.272.226 1.032.97.37-.52 1.052.072 1.324-.978-.19-.68 1.086-.992-1.038-1.14.099.064-1.159-1.007-.505.639-.761-.4-1.042 1.205.198zm47.998.465c.594 0 1.076.499 1.076 1.116 0 .616-.481 1.116-1.076 1.116-.593 0-1.078-.5-1.078-1.116s.485-1.116 1.078-1.116m-62.806 2.633 2.972 3.157 2.735-2.722-2.9-3.178zm59.842-2.59c.594 0 1.075.5 1.075 1.116s-.48 1.12-1.075 1.12c-.594 0-1.075-.503-1.075-1.12 0-.616.481-1.116 1.075-1.116m-109.95 1.163c.594 0 1.075.503 1.075 1.12 0 .616-.48 1.116-1.074 1.116s-1.076-.5-1.076-1.117c0-.616.481-1.119 1.076-1.119m3.151.011c.594 0 1.076.503 1.076 1.12 0 .616-.481 1.115-1.076 1.115-.593 0-1.075-.499-1.075-1.116 0-.616.48-1.119 1.075-1.119m49.779.249 1.352 1.447-1.252 1.37-1.398-1.493zm18.367.992c-.692.515-2.573 4.214-2.896 5.027.002.196.908.792 2.041 1.342.966.468 4.1 1.773 4.388 1.846.63.159.738-.09.843-.515.056-.226.305-1.086.582-2.02.971-3.273 1.262-3.118-.182-3.616-.498-.17-2.061-.718-3.046-1.19-.975-.466-1.416-.88-1.73-.874m40.1.593c.594 0 1.079.499 1.079 1.116 0 .616-.485 1.119-1.078 1.119s-1.075-.503-1.075-1.12c0-.615.48-1.115 1.075-1.115m-51.35 1.532.169 21.945-1.655-1.343-.045-22.018zm-7.399 3.74-4.567 4.825-.029-2.458 2.557-2.404-2.603-2.826.053-1.9c1.666 1.416 3.089 3.157 4.589 4.763m-51.186-4.21c.594 0 1.075.498 1.075 1.115s-.48 1.12-1.075 1.12c-.593 0-1.078-.503-1.078-1.12 0-.616.485-1.116 1.078-1.116m70.49-.048.92.797.773-.481.444.821 1.107.16-.496 1.255.65.969-1.08.207-.269 1.337-1.059-.653-.804.361-.586-1.133-1.253-.052.684-1.23-.645-.973.91-.062zm-14.097.087-.008 1.935-1.987 2.091 1.995 2.254-.01 2.25-4.131-4.365zm21.19 1.271c-.415.013-.419.47-.738 1.954-.07.322-.29 1.184-.488 1.917-.602 2.222-.679 2.264 1.179 2.646 1.075.167 5.729 1.291 5.824.521.117-1.308.192-4.386.209-5.433.04-.351-.039-.682-.377-.723-2.122-.264-4.482-.842-5.609-.882m-18.128.094c2.643 1.873 5.2 3.781 8.238 5.49l.076 22.568-8.333-6.441zm53.037.065v2.766l-5.554 5.506v-2.643zm-32.54.96.481 1.07 1.012-.349-.006 1.28.902.59-1.088.52-.095 1.556-1.102-.352-.907.583-.803-.876-.984-.02.361-1.383-.635-.632.923-.47.075-1.236.987.614zm-76.942-.206v2.667l-6.047 5.777v-2.332zm84.513 1.672 1.357 2.38-.49.963-.91-.46-1 .382.154-1.273-.771-.637.78-.743-.036-.935zm-35.817.786 4.636 4.987-4.723 5.062-4.636-5.058zm60.785 3.122-5.554 5.355v-2.605l5.554-5.467zm-109.482-2.179v2.602l-6.046 5.882v-2.411zm48.707.93-3.011 3.093 2.986 3.111 3.017-3.035zm.04 1.774 1.29 1.374-1.232 1.328-1.329-1.341zm-5.17 1.9 4.598 4.9-.528.646-4.074-3.285zm9.868.397.122 2.21-2.508 2.223 2.29 2.494.064 2.298-4.358-4.656zm53.564 2.244c.595 0 1.076.5 1.076 1.117 0 .616-.48 1.116-1.076 1.116-.593 0-1.074-.5-1.074-1.116s.48-1.117 1.074-1.117m-109.89 1.35c.594 0 1.076.499 1.076 1.116 0 .616-.481 1.12-1.076 1.12-.593 0-1.075-.504-1.075-1.12s.48-1.116 1.075-1.116m22.01.684-3.392 5.265 2.673 1.86-2.533 3.53 2.634 3.288-2.651 2.36 2.69 4.781c-1.07-.22-2.157-.96-3.141-1.473l-2.029-4.006 2.333-2.083-2.367-2.852 2.483-3.054-2.49-1.814 2.716-4.335zm89.166.701c.594 0 1.075.5 1.075 1.116s-.48 1.116-1.075 1.116c-.594 0-1.075-.498-1.075-1.116 0-.616.48-1.116 1.075-1.116m-66.71-.086 23.41 18.73-.095 2.486-23.417-18.68-9.942 7.286.089-2.652zm63.844.236c.594 0 1.075.499 1.075 1.116 0 .616-.481 1.116-1.075 1.116s-1.075-.499-1.075-1.116c0-.616.48-1.116 1.075-1.116m-54.492 2.391-.246.048-2.554-1.935.557-.65s1.675 1.92 2.243 2.537m-52.226-1.078c.594 0 1.078.502 1.078 1.119 0 .616-.484 1.116-1.078 1.116s-1.075-.5-1.075-1.116.481-1.12 1.075-1.12m-2.898.014c.594 0 1.078.5 1.078 1.116s-.484 1.116-1.078 1.116-1.075-.499-1.075-1.116c0-.616.48-1.116 1.075-1.116m111.196 1.473c.595 0 1.076.503 1.076 1.12 0 .616-.48 1.115-1.076 1.115-.593 0-1.074-.499-1.074-1.116 0-.616.48-1.119 1.074-1.119m-109.9 1.236c.594 0 1.075.503 1.075 1.12 0 .615-.48 1.115-1.075 1.115-.594 0-1.074-.499-1.074-1.116 0-.616.48-1.119 1.074-1.119m112.373 2.079v2.464l-5.25 5.281v-2.378zm-70.866.74c.781-.008 1.827.033 3.235.083 1.206.043 2.54.07 2.961.059 1.67-.047 2.215.541 2.245 2.413.027 1.664.02 1.659 2.118 1.75 2.529.11 3.197.784 3.231 3.263.013.966.765 1.344 2.238 1.127 2.321-.343 2.772-.012 3.042 2.227.224 1.87.104 1.773 2.23 1.757 2.288-.017 2.798.382 2.824 2.21.016 1.06.265 1.379 1.149 1.462.945.088 1.352.591.885 1.09-.085.09-.522.146-1.212.156-1.458.022-1.938-.453-2.21-2.187-.188-1.204-.307-1.267-2.244-1.21-2.472.07-2.665-.085-2.933-2.324-.229-1.922-.54-2.119-2.666-1.702-1.545.303-2.363-.404-2.563-2.21-.225-2.025-.312-2.1-2.505-2.18-2.197-.08-2.809-.481-2.828-1.852-.03-2.123-.287-2.316-2.989-2.231-1.31.041-2.653.016-3.424-.066-1.637-.176-1.628-.184-1.791 1.448-.244 2.438-.589 2.662-3.696 2.425-1.297-.1-1.39-.037-1.479.988-.11 1.283-.568 2.074-.92 1.59-.183-.254-.184-.277 0-2.155.207-2.102.23-2.118 2.87-1.907 1.79.143 1.703.21 1.894-1.477.232-2.052.196-2.525 2.539-2.548zm-38.528-.193v2.704l-6.135 5.913v-2.62zm19.06 3.178 1.336 1.893-.432 3.52-1.135.887.804 1.673-.257 2.057-.32.189-2.226-4.489 2.636-2.407-2.702-3.42 2.552-3.57-2.65-1.934 3.184-4.864c.551-.695.584 2.065.584 2.065l-1.319 2.072 1.475 1.321h.004l.005 3.28zm1.685-1.594.144-4.414-1.15-.925.887-1.531-.06-3.91-.268-.19c-2.212-27.992-15.413-44.531-17.48-48.283 0 0-.459-.382-.374-1.344.037-.417.054-2.884.038-5.483-.083-13.268.025-22.358.025-22.358l-9.705-10.737.056 3.929.476.356-.001 17.888-.404.023s-.125 4.809-.093 8.112l.578.017-.035 12.292-.492.06.028 7.964.535-.002s.126 8.35-.066 12.41l-.398.025.027 7.916.451.036.03 11.321-.556.088.15 7.474.454.026c.163 4.618.086 12.6.086 12.6l-.52.025.128 7.42.372.026-.11 13.026-.338.042.13 7.694.366.035-.061 6.399-.251.045-.06 2.392.268.634.017 8.525-.204.093-.06 4.281 15.05-15.795-5.54-.173.004-5.104c.002-8.424.109-15.224-.134-23.44-.072-.074-.621-.165-1.222-.2-2.851-.174-3.626-.414-3.635-1.124-.013-.879 1.28-1.967 2.353-1.983.242-.004.65-.254.65-.254L32.695 70.5l-6.734-7.32.029-2.325 8.297 9.116.312 93.426.315-.155.023-31.374c4.252 6.601 6.637 13.144 9.002 19.685 0 0 .837-.3.871-.317l-.299-.11c-2.412-8.361-5.466-14.424-9.426-20.75l.057-30.407c10.14 14.867 15.042 28.236 17.079 47.507l-5.132 2.66-.497.692-3.876 2.01-.371-.642-2.35 1.69c1.814 3.287 1.748 8.012.268 10.515l.637.41c.043.182 2.435-5.116-.24-10.504l1.751-1.12c2.526 5.42 1.354 11.257.164 12.761 0 0 1.829 1.21 3.142 1.949 1.428.805 2.697 1.541 4.409 2.114 1.054.445 1.725-.078 1.721-.09l.513-3.025-.815-1.153.95-.793.431-4.632-1.019-1.069zm88.649 1.237v2.983l-5.25 5.164v-2.936zM32.21 162.482l-6.135 5.845v-2.43l6.135-5.98zm107.306 3.976c.595 0 1.078.503 1.078 1.12 0 .616-.483 1.115-1.078 1.115-.594 0-1.074-.499-1.074-1.116 0-.616.48-1.119 1.074-1.119m-104.857 1.808.006 27.535-1.62.002.075-27.874zm-5.418-.251c.593 0 1.075.499 1.075 1.116 0 .616-.48 1.116-1.075 1.116-.594 0-1.076-.5-1.076-1.116s.481-1.116 1.076-1.116m108.744 1.064c.594 0 1.075.5 1.075 1.116s-.48 1.12-1.075 1.12c-.594 0-1.078-.503-1.078-1.12 0-.616.484-1.116 1.078-1.116m2.898.048c.594 0 1.076.499 1.076 1.116 0 .616-.481 1.116-1.076 1.116-.593 0-1.078-.499-1.078-1.116 0-.616.485-1.116 1.078-1.116M30.92 170.804c.594 0 1.078.503 1.078 1.12 0 .616-.484 1.115-1.078 1.115s-1.075-.499-1.075-1.116c0-.616.48-1.119 1.075-1.119m55.386.033c5.604.72 4.12 6.822 1.757 8.09-3.217 1.556-5.793-1.576-3.738-4.75 1.507-2.329 4.375-.788 3.266 1.764-.624 1.437-1.917 1.27-1.906-.184.462-1.382.038-.89-.323-.403-1.133 1.532 1.155 3.156 2.33 1.645.721-.928.873-2.03.626-2.909-.422-1.503-2.094-2.382-3.984-.99-2.26 2.812-3.467 6.45-4.134 10.52-1.42 8.663-1.492 17.776-2.712 20.088l-1.327-.033c1.93-9.914 1.939-18.399 3.999-26.214 1.02-3.875 3.62-6.632 6.145-6.623zm-58.326.048c.594 0 1.075.502 1.075 1.119 0 .616-.48 1.116-1.075 1.116-.594 0-1.075-.499-1.075-1.116s.481-1.12 1.075-1.12m22.74.152c-1.478.031-2.977 1.302-2.862 2.924.14 1.97 1.265 2.849 3.115 2.65.99-.105.964-.121 1.63 1.117.6 1.113 2.182 5.871 2.192 6.592-.76-1.047-2.535-2.99-4.173-2.91-1.758.133-3.24 1.864-1.91 4.314.707 1.202 1.965 1.436 3.243 1.039 1.913 3.09 2.274 6.184 2.883 9.776 0 0 .756-7.687.985-10.753.435-4.7 1.053-7.743 2.805-11.469-1.46-.875-3.026-1.56-4.598-2.19-.625-.25-1.282-.254-1.902-.674a2.35 2.35 0 0 0-1.408-.416m88.914.627c.594 0 1.075.499 1.075 1.116 0 .616-.48 1.119-1.075 1.119-.594 0-1.075-.503-1.075-1.12 0-.615.48-1.115 1.075-1.115m-85.886 2.465c1.107 1.869 2.187 4.564 2.283 6.262.037 1.123-.177 2.503-.36 3.793-.091.638-.324.015-.743-1.362-1.742-5.718-2.202-6.813-3.413-6.527-.69.162-1.407.19-1.876-.08-1.535-.878-1.676-3.824.565-4.387 1.77-.4 2.91 1.233 3.543 2.3zm-.04-1.421c2.233.913 3.659 2.29 3.252 4.528-.179.843-.299 1.537-.516 1.448-.251-.104-.597-1.114-1.29-2.853-.158-.563-1.75-3.112-1.445-3.123zm36.958.097q.176-.025.554.343c1.761 1.8.806 5.855-1.54 7.024-.964.689-2.741.576-2.75-.09-.004-.26.052-.33.3-.333 1.972.015 4.069-2.83 3.488-5.86-.071-.456-.205-1.06-.052-1.083zm-61.38.986c.594 0 1.076.499 1.076 1.116 0 .616-.48 1.119-1.075 1.119-.594 0-1.079-.503-1.079-1.12 0-.616.485-1.115 1.079-1.115m63.23.343c.123-.02.55.171.834.526 1.66 2.074.312 5.608-2.295 6.82-.996.56-1.834.174-1.623-.401a5.52 5.52 0 0 0 3.276-5.45c-.067-.95-.372-1.467-.192-1.494zm-35.159.377.604.297-.25.542c-.116-.325-.113-.45-.354-.84m37.045.225c.133-.003.429-.05.708.233 1.072 1.082 1.242 4.114.212 5.613-.483.703-1.983 1.98-2.43 2.109-.521.067-.883.147-1.75-.263-.29-.01.13-.294.677-.622 1.942-1.164 3.23-3.24 2.893-5.188-.209-1.206-.561-1.876-.309-1.882zm1.967.978c.515.046.914.515 1.158.914 1.275 1.9.216 5.898-2.393 6.727-1.738.552-2.385.03-.978-.822 2.021-1.224 3.069-3.616 2.486-5.515-.28-.908-.545-1.284-.272-1.303zm2.105 1.392c.608.008 1.078.492 1.293.99.502 1.227.424 2.947-.231 4.157-.654 1.205-1.904 2.21-3.292 2.356a1.86 1.86 0 0 1-.952-.143c-.61-.274-.4-.314.748-.938 1.83-.993 2.911-3.057 2.634-5.337-.104-.856-.436-1.083-.2-1.086zm-66.264-.415v2.946l-5.97 5.852v-2.878zm50.74.381c.113.122.788 1.794.872 2.139-1.398 2.088-1.794 5.515-2.01 8.112-.79 7.358-1.61 16.243-1.969 16.324l-1.555.037c.593.41 1.352-12.202 2.557-20.193.093-.627 1.384-6.792 2.103-6.419zm18.066 1.305c2.05 1.44.955 5.937-1.896 7.05-1.036.413-1.416.466-1.885-.007-.295-.298-.577-.399.176-.675a4.44 4.44 0 0 0 3.242-4.989c-.043-.577-.566-2.102.363-1.378zm14.211.382c2.428 2.994 4.143 7.513 4.724 10.757.276 1.623.42 3.147.294 3.508-.224.641-.572.513-.784-.248-1.983-9.853-12.37-10.184-15.633-1.804-2.983 8.068 5.38 15.36 11.633 10.09.874-.737 1.175-.99 1.423-.69.163.197-.242.772-1.018 1.443-7.127 6.848-.743 14.81 5.99 14.412 7.978-.472 10.701-10.341 4.06-15.152-.44-.357-.717-.5-.693-.752.051-.526.41-.451 1.219.256 6.415 5.94 14.35-.492 13.204-7.436-1.945-11.79-14.489-8.816-16.405-.566-.31 1.017-.83 1.166-.843.203-.008-.663.068-1.437.216-2.279.49-4.62 4.907-11.742 4.907-11.742zm-30.802.863.933.623c-1.007 3.113-1.379 6.784-1.79 10.339-.497 4.3-.936 8.725-1.54 12.947l-1.427.054c.745-2.61 1.089-9.895 1.827-16 .43-3.09.9-7.339 1.997-7.962zm1.619 1.017 1.196.72c-.423 1.736-.923 3.64-1.17 5.463-.55 4.051-.765 8.965-2.028 16.527l-1.294.113c.326-2.428.942-7.837 1.468-12.814.61-5.78 1.57-10.15 1.828-10.009m-53.833-.195v2.892l-5.971 5.707v-2.664zm55.856 1.11s1.029.601 1.159.671c-.776 3.192-1.157 6.16-1.539 9.053-.516 3.903-.899 7.7-1.612 11.99l-1.379.09c.686-3.29 1.472-11.019 2.089-16.468.359-3.164 1.1-5.398 1.282-5.337zm-32.875 6.496c.018 2.18-.442 5.56-.442 5.56-.182.108-.746-4.95-2.714-7.238-2.398 1.185-4.467-1.595-2.832-3.506 3.193-2.85 5.988 3.236 5.989 5.183zm34.674-5.627 1.669.8c-.206-.038-.6 1.156-.983 3.017-1.17 5.672-2.33 16.85-2.519 16.846l-1.287.11c.417-3.003.99-7.746 1.589-11.943.679-4.754 1.313-8.806 1.53-8.83zm2.319 1.088 1.268.79c-.11-.083-.569 1.325-.791 2.306-1.142 5.657-1.658 10.618-2.363 16.106l-1.383.187c-.104.158 1.194-10.8 2.264-16.335.366-1.89.903-3.118 1.005-3.054m1.977.984 1.36.697c-1.478 4.341-1.616 8.494-3.032 17.207l-1.436.27c.578-5.578 1.398-11.57 2.576-17.03.162-.733.517-1.129.531-1.145zm1.943 1.02 1.53.636-3.202 15.998-1.291.181c.803-4.612 1.22-9.945 2.303-14.149.23-.89.358-1.892.66-2.667zm-66.589 2.533c.594 0 1.079.499 1.079 1.116 0 .616-.485 1.116-1.079 1.116-.593 0-1.075-.499-1.075-1.116 0-.616.481-1.116 1.075-1.116m1.406 2.617c.593 0 1.078.503 1.078 1.12 0 .616-.485 1.115-1.078 1.115s-1.076-.5-1.076-1.116.481-1.119 1.076-1.119m-2.8.07c.594 0 1.078.498 1.078 1.115s-.484 1.119-1.078 1.119-1.075-.503-1.075-1.12c0-.616.481-1.115 1.075-1.115m1.342 2.573c.594 0 1.074.503 1.074 1.12 0 .616-.48 1.115-1.074 1.115s-1.078-.499-1.078-1.116c0-.616.484-1.119 1.078-1.119m9.728 3.728L26.294 210.6l-.04-2.71 8.841-9.012-8.91-.14.022-1.835zm-5.912 2.586-6.911 6.847-.058-6.963zm7.382.5s-.038.25.61 1.43c1.886 3.402 2.322 6.545 3.988 10.19.83 1.995 2.698 4.01 3.116 4.124l-2.076 3.943 58.578-.127-9.377-16.99c-14.883 2.86-28.255 2.358-40.824.072-.72 1.005-1.51 3.05-2.267 4.529-1.877-5.243-7.88-8.628-11.749-7.17zm2.132.457c3.095-.046 5.675 1.481 7.966 4.721.73 1.032 1.012 1.498 1.01 1.932-.077.501-1.037 2.103-1.037 2.103s-.557-1.59-.688-2.36c-.832 3.18-1.164-.506-1.485-1.478-1.016 3.073-1.562-1.152-1.511-2.292-1.382 1.972-1.293-1.266-1.967-1.867-.016 1.708-.984.54-2.238.175.656.955 1.932 1.596.302 1.806 1.626 1.166 2.44.987.862 1.63 1.217.697 3.22 1.535 1.005 1.994 1.353.885 3.529 1.257 1.19 2.103 1.767 1.122 4.119 1.042.81 1.943 1.2.727 3.313 1 .948 1.632.365.17.998.611.998.611l-1.022 1.675s-.368-.03-.619-.304c-1.085-1.176-2.14-3.34-3.086-6.373-.695-2.23-1.522-4.588-2.436-6.544-.492-1.035-.447-1.087.998-1.109zm52.315 3.825 8.095 14.379-1.92.03-7.149-12.31-9.643 1.13 3.176 11.006-2.866.082-2.845-10.827c-5.384.225-10.52.288-14.997-.085l-1.517 10.982-2.735-.094 1.733-10.87-9.05-1.202-4.909 12.192-2.827.056c1.825-3.195 6.381-13.512 7.232-14.528 19.713 3.275 29.948 1.51 40.22.059zm-1.893 3.334 6.13 11.062-9.846.046-3.308-10.242zm-36.84.324c1.943.588 4.033.715 6.138.796l-1.79 9.897-8.724-.018zm24.559 1.165 2.315 9.611-16.424.087 1.354-9.58c4.31.267 8.522.02 12.754-.118z"/></svg>