<svg xmlns="http://www.w3.org/2000/svg" xml:space="preserve" width="222.783" height="323.556" viewBox="0 0 167.087 242.667"><path d="M166.837 235.548c0 3.777-3.087 6.869-6.871 6.869H7.11c-3.775 0-6.861-3.092-6.861-6.87V7.12C.25 3.343 3.336.25 7.11.25h152.856c3.784 0 6.87 3.093 6.87 6.87z" style="fill:#fff"/><text xml:space="preserve" x="3.402" y="27.808" style="font-size:32px;font-style:normal;font-weight:400;line-height:125%;letter-spacing:0;word-spacing:0;fill:#df0000;fill-opacity:1;stroke:none;font-family:Bitstream Vera Sans"><tspan x="3.402" y="27.808" style="font-style:normal;font-variant:normal;font-weight:400;font-stretch:normal;fill:#df0000;fill-opacity:1;font-family:Arial;-inkscape-font-specification:Arial">J</tspan></text><path d="M3.243-4.725C1.126-7.59 0-10.5 0-10.5s-1.126 2.91-3.243 5.775C-5.361-1.862-8 0-8 0s2.639 1.861 4.757 4.726C-1.126 7.59 0 10.5 0 10.5s1.126-2.91 3.243-5.774C5.361 1.861 8 0 8 0S5.361-1.862 3.243-4.725" style="fill:#df0000" transform="translate(11.157 42.827)scale(1.12825)"/><text xml:space="preserve" x="-163.695" y="-216.5" style="font-size:32px;font-style:normal;font-weight:400;line-height:125%;letter-spacing:0;word-spacing:0;fill:#df0000;fill-opacity:1;stroke:none;font-family:Bitstream Vera Sans" transform="scale(-1)"><tspan x="-163.695" y="-216.5" style="font-style:normal;font-variant:normal;font-weight:400;font-stretch:normal;fill:#df0000;fill-opacity:1;font-family:Arial;-inkscape-font-specification:Arial">J</tspan></text><path d="M3.243-4.725C1.126-7.59 0-10.5 0-10.5s-1.126 2.91-3.243 5.775C-5.361-1.862-8 0-8 0s2.639 1.861 4.757 4.726C-1.126 7.59 0 10.5 0 10.5s1.126-2.91 3.243-5.774C5.361 1.861 8 0 8 0S5.361-1.862 3.243-4.725" style="fill:#df0000" transform="translate(155.94 201.48)scale(-1.12825)"/><path d="m30.553 289.154-.511-263.565 163.48.308.205 263.152zM89.159 69.535c-5.847-1.594-5.705 4.213-1.424 4.43 4.797.413 6.85-7.762 4.56-10.984 0 0-1.994 6.159-3.137 6.555zm-37.937 32.831-7.022 3.132-.028 5.241c2.928-2.328 5.217-5.169 7.05-8.374zm47.925 157.492c-1.382-.698-3.048-2.196-2.792-2.459.127-.131.876.106 1.555.411 5.487 2.312 9.746 2.162 16.29-.212.495-.18 1.235.764.959 1.283-2.897 4.286-12.274 2.762-16.011.976zm-2.893-6.431c-1.26-1.893.411-.458.972.078 4.06 3.775 9.56 5.054 14.282 1.497.219-.244.249-.47.184-.64-.134-.348-.136.023-2.155.724-4.532 1.696-8.352.303-12.076-2.548-1.534-1.183-2.247-1.764-2.247-2.074 0-.284.287-.46.803-.372.32.055 1.212.241 1.865.294 1.134.093 1.047.044 2.209-.492 2.483-1.146 4.771-1.565 7.366-1.1.601.108 1.356.306 1.459.272.582-.194-.276-.96-2.475-2.703-.433-.343-.971-.637-1.15-.935-.277-.462.025-.585.339-.581.904.011 4.968 3.407 6.36 5.423.424.613.716.678.718 1.316-.081.662-.187 1.296.53 2.223.514.665 1.011 1.735 1.016 1.786.005.058-.102.393-.573.083-.214-.04-.319-.27-.711-.213-.342.049-.898.318-1.509.607-5.693 3.661-10.936 1.875-15.204-2.647zm12.471-.256c.115.011-.393-2.093-.966-2.714-1.13-1.224-2.854-1.447-3.896-.194-.586.705-1.23 2.669-1.23 2.669s.913.269 1.168.269c.036-.44.039-1.671.945-2.392.446-.351 1.407-.34 1.781-.049.743.364 1.057 1.84 1.067 2.414.406.126 1.342.012 1.131-.003m-6.883-3.032c-.803.358-1.846.599-2.085 1.136-.316.709.799.923 1.379 1.161.802.387.82.245 1.079-.373.162-.386.376-.889.58-1.352.6-1.159.002-.998-.953-.573zm8.686 2.015c.462-.462.549-.767.137-1.291-.187-.237-.719-.479-1.298-.674-.744-.25-1.068-.554-.602.453l.667 1.439c.343.689.643.506 1.096.073M34.57 202.997c.282 0 3.084-.919 4.081-1.362.989-.378 1.107-.367.714-.914-.147-.205-.266-.783-.195-1.416l.075-.883c-1.727-.352-4.305.604-5.192 1.813-.631.772-.566 2.489.518 2.763zm-.352 4.309c.525.525.67.544 2.244-.041.551-.369 1.705-.83 2.514-.883 1.897-.504 1.898-.305 1.36-1.52-.247-.559-.328-1.022-.251-1.538.092-.612.165-.696-.181-.804-.907-.284-5.128 1.295-5.885 2.523-.532.864-.461 1.605.198 2.264zm99.127 37.289c-.276.412-.754 1.143-.955 1.637-.346.853-.136 1.016.002 2.689.08.97.101 2.476.104 3.285.005 1.55-.017 2.031.457 2.122.418.08.609-.234.809-1.041.1-.403.34-.825.413-1.081.298-1.744.849-4.654 2.105-5.878.175-.144.686-.235 1.613-.246 1.135-.014 1.498-.046 1.85-.309 1.987-1.739.421-3.986-1.352-4.143-2.053-.179-4.883 2.657-5.047 2.965zm7.888-.729c.126 2-1.867 3.363-3.893 2.899-.821-.207-1.068-.019-1.618 1.153-1.195 3.216-1.668 6.44-1.985 8.55-.137 1.898-.834 6.838-.329 8.413 5.775 7.137 11.855 14.506 18.513 21.852l39.596.054.239-46.614-11.5-10.877.022-17.242c-12.31 5.8-24.584 11.681-36.87 17.532 2.678 8.587-6.401 10.388-8.392 4.632-1.723 1.58-3.136 10.105-2.501 10.527 0 0 .228.308.61-.371.628-1.116 1.449-1.939 2.328-2.483 2.56-1.585 5.606-.803 5.781 1.974zm-31.514-.87c-1.943-1.544-.903-3.9.712-4.606.855-.374 2.228-.323 3.74.21 1.327.61 2.12.524 3.48.356.903-.1.735 1.79-.208 2.277-.665.344-2.188.181-4.041-.874-3.197-1.82-4.601.539-2.621 2.669 1.098 1.174-.782.234-1.063-.033zm-65.816-28.233c1.709-1.1.999-3.04-.593-3.364-2.144.045-2.689 2.506-1.155 3.357 0 .299-.763.055-1.175-.253-.639-.478-.056-2.35-.651-2.425-.454.008-4.881 1.574-5.358 1.887-1.989 1.129-.122 3.677 1.032 3.386 2.398-.605 5.657-1.144 7.899-2.587zm-9.895-3.641c.041 1.135.358 1.639 1.104 1.65 1.558-.27 3.008-1.013 4.462-1.484 1.136-.372 1.597-.791.732-1.501-.262-.3-.495-.731-.368-1.55.298-.936.07-.983-.327-1.029-.395-.046-1.3.333-3.619 1.224-1.22.468-1.455.671-1.771 1.343-.142.514-.23.83-.211 1.347zm12.909 14.646c.268-.315.863-2.293.863-2.782-.121-.814-.726-.999-1.262-.473-.652.583-.477 1.465-.863 2.14-.135.235-.277.561-.238.692.21.711 1.085.841 1.501.422zM51.995 215c19.843-21.132 32.135-50.375 10.631-90.706-2.412-1.027-3.156 2.894-3.387 3.054l-2.748 2.394c14.556 25.1 12.028 53.974-5.769 74.505l.019 1.303c.042 2.867.868 2.743 2.074 1.402 1.278-1.348.423-.25-.099.305-.45.477-1.166 1.426-1.357 1.673.234 1.72 1.317 4.926.635 6.071zm-1.317-6.35c-.204-.57-.421-1.875-.532-2.878-.068-.654-.096-1.271-.13-1.909-.211-1.27-.729-4.185-1.15-4.827-.454-.693-1.563-1.199-2.801-1.278-1.058-.068-1.145-.049-1.371.296-.387.591-.122 3.576.272 4.67.443 1.283.183 1.981-.177 3.253-.125.46-.17.492.056.525.99-.069 1.32-1.284 1.711-.922.132.132-.211 1.129-.674 2.136-.488 1.062-.633 2.526-.053 4.326.324 1.008.187 1.327-.01 1.935-.131.406-.36 1.652-.368 2.891.462 1.553.23 2.249-.042 2.762-.591 1.318-1.047 3.105-.729 4.108.139.44.504.063.771-.691.416-1.489.902-1.82 2.125-1.82.891 0 .975.312 1.269-.086.669-.904 2.301-4.108 2.333-5.001.631-2.277.663-4.234-.501-7.487zm9.489 14.959c.539-.205 1.368-1.345 1.369-1.738.002-.433-3.327-3.669-4.712-4.562-.628-.404-.926-.117-2.035 1.376-.986 1.327-1.115 1.339-.932 1.594.22.307 3.611 2.512 4.736 3.137.389.216 1.049.392 1.574.192zm6.235-5.759c-.496-.381-4.478-4.796-5.66-5.015-.449-.083-1.889 1.557-1.889 1.929 0 .256 2.486 2.787 4.248 4.324.503.439 1.059.799 1.235.799.56-.287 1.996-1.446 2.067-2.037zm4.23-4.164c0-.262-.439-.8-1.511-1.853-2.731-2.682-4.252-3.909-4.731-3.905-.523.174-1.468 1.765-1.525 2.319.178.332 4.746 4.475 5.337 4.877.73.705 2.328-.938 2.429-1.437zm4.284-4.278c.117-.394-.111-.73-.69-1.284-.41-.393-1.867-1.819-3.237-3.169-2.873-2.83-2.879-2.833-3.801-1.51-.95 1.361-.945 1.372 1.855 4.104 2.986 2.913 3.685 3.503 4.147 3.503.709-.327 1.48-.872 1.725-1.644zm-32.015-2.555c-.5-.15-.96-.062-1.353.252-2.117 1.8.885 4.115 2.12 2.671.822-.811.789-2.554-.767-2.923m36.411-1.884c0-.301-.617-.977-2.751-3.015-5.281-5.042-5.044-4.85-5.629-4.537-.366.196-1.075 1.551-1.075 2.054 0 .377.507.9 4.422 4.556 2.295 2.143 2.975 2.684 3.37 2.684.626-.31 1.636-.98 1.663-1.743zm-36.277.19c1.037-.451 1.23-1.574.642-2.461-1.128-.994-2.696-.173-2.722 1.109.195 1.201 1.214 1.708 2.08 1.352m40.617-4.423c0-.602-9.043-9.059-9.687-9.059-.437 0-.75.354-1.16 1.312-.356.831-.32 1.322.128 1.754.654.629 2.397 2.235 4.054 3.736.98.888 2.107 1.948 2.504 2.355.93.955 1.954 1.694 2.346 1.694.56-.327 1.339-.77 1.815-1.791zm-41.091-1.09c.009-.34-.079-.686-.321-.944-.621-.661-1.775-.313-2.064.562-.264 2.059 2.301 2.15 2.386.382zm6.698-65.82 1.769-5.408 5.404-.139.758-5.376 5.562-.801.089-5.554 5.321-.727-.329-5.948 4.934-1.168-.245-5.507 4.483-1.375-.18-4.793.771-.604-1.939-1.972-1.67.542-.03 4.926-4.477 1.441.472 5.45-4.526 1.032-.057 5.927-5.2.584-.372 5.229-5.072.999-.756 5.122-4.922.335-1.502 4.502-3.252.038v3.013zm58.798 96.752c-.17-.406.274-.345 1.046.143.808.511 1.986.936 2.823.938.349 0 1.596-.222 2.771-.494 1.404-.515 2.649-.546 4.107-.23 1.084.146 2.175.264 2.426.262.724.101 1.953-.793 2.281-1.356.892-1.525.68 1.246.683 1.562.016 1.419.194 3.051-.823 2.292-.601-.311-1.651-.587-2.49-.027-.844.564-1.542.684-2.531.089-.812-.32-1.24-.388-1.848.177-.677.629-2.318.405-3.198.116-1.512-.251-2.358-.471-3.371.33-.54.31-.679.079-1.086-1.118s-.728-2.533-.791-2.682zm3.848-1.001c-.096-.155.715-.949 1.263-1.233 1.608-.832 4.803-.795 7.087.049 1.191.44 1.374 1.192.216 1.034-2.411-.506-5.435-.921-7.764.188-.183.098-.757.035-.802-.038m2.04-3.766c-1.649-.612-2.458-1.263-2.458-1.47 0-.223.354-.182 1.65.172 1.766.655 3.853 1 5.595.39 1.253-.463 1.878-.756 1.878-.478 0 .295-.518 1.062-1.378 1.503-1.714.699-3.974.367-5.287-.117m35.784-4.579 1.223-.168-.425-5.105 4.507-1.337-.316-5.077 4.803-1.653-.286-5.715 4.991-.983.651-5.001 4.712-.335.976-5.441 5.061-.174 1.043-4.523 3.368-.021-.015-2.54-5.246.016-1.111 4.895-4.951.143-1.051 5.377-5.191-.038-.664 5.796-4.882.8.004 6.241-4.709 1.222.364 5.336-4.704 1.716.532 5.093zm31.463-119.794c-.673.479-.928 1.429-.72 2.203.663 1.751 2.997 1.205 3.273-.069.139-.552-.228-1.386-.865-1.567-.112-.032-.507.005-.714-.207-.149-.153.779-.629 1.326-.449.683.225 1.242 1.129 1.242 1.911 0 .303-.085.753.025.904 1.129-.028 2.422-.649 3.632-.984 2.045-.567 2.784-1.74 2.331-3.113-.378-1.145-1.55-1.599-3.089-1.02-2.114.795-4.594 1.175-6.441 2.392zm-87.314 125.34c6.926-4.866 11.004-7.646 19.892-8.126-3.171-1.304-3.689-3.018-4.58-4.658-11.012 1.041-16.859 4.557-22.09 7.84 2.161 1.018 4.419 2.202 6.778 4.944m38.604-6.748c-3.359-2.373-7.355-3.808-11.5-4.916l-3.178 3.292c-.185-.117 9.2.095 14.678 1.624m32.245-31.231c-21.66-33.283-7.11-62.571 7.951-81.233.484-.612.601-.643.492-1.13-.144-.642-.321-3.877-.211-5.745-27.84 27.591-28.553 63.535-11.091 92.062 1.248-1.116 3.765-2.601 2.859-3.954m3.248-2.847c-3.556-5.921-22.493-37.981 6.432-73.748 0 0-.099-1.824-.315-2.509-.388-1.228-.992-1.723-.992-1.723-12.148 18.237-29.805 41.056-7.753 80.685zm-16.562-60.341c.433-.353 1.062-1.636 1.062-2.165 0-.472-.341-.867-3.604-4.178-4.35-4.413-5.1-5.088-5.657-5.088-.526 0-1.899 1.302-1.899 1.801 0 .239 1.28 1.618 4.301 4.634 5.606 5.596 5.341 5.368 5.797 4.996m4.007-8.128c0-.266-.403-.793-1.356-1.774-2.514-2.588-6.101-5.869-6.416-5.869-.401 0-1.498.888-1.787 1.446-.203.392-.199.482.039.853.444.693 6.055 6.018 7.65 7.358.958.879 1.824-1.344 1.87-2.013zm2.168-3.302c.444-.238 1.287-1.814 1.186-2.216-.048-.188-1.471-1.72-3.163-3.403-3.347-3.331-3.542-3.451-4.376-2.705-.756.676-1.229 1.352-1.135 1.624.114.332 5.124 5.425 6.148 6.25.81.652.904.684 1.341.45zm25.541-.247c1.573-1.51-.21-3.167-1.505-2.402-.551.34-.879 1.084-.71 1.577.28.819 1.391 1.266 2.215.825m3.115-.385c2.663-.699 3.938-1.166 4.495-1.996.386-.574.43-.928-.004-1.865-.401-.864-.868-1.128-2.536-.214-1.145.628-3.696.928-4.588 1.455-.357.307-.183.304.104.486.642.408.956.685.886 1.225-.152 1.174-.031 1.354 1.644.91zm-2.819-4.174c1.293-.661 1.032-2.257-.412-2.891-1.906-.502-3.133 1.792-1.573 2.91.418.293 1.478.241 1.986-.018zm4.297-.647c1.869-.641 2.588-1.142 3.127-2.176.427-.818.245-1.184.188-1.976-.086-1.2-.689-1.063-2.431-.435-.85.329-4.92 1.474-4.977 1.891 1.965 1.123 1.463 1.715 1.479 3.148.103.326 1.024.092 2.613-.453zm-25.483-1.911c0-.542-5.223-5.657-5.777-5.657-.863 0-2.098 1.341-1.914 2.077.084.334 4.982 5.264 5.593 5.629.856.5 2.043-1.232 2.097-2.048zm3.002-3.189c.225-.177.624-.635.888-1.017.563-.818.523-1.274-.15-1.706-.246-.158-1.341-1.149-2.434-2.202-1.092-1.053-2.127-1.967-2.299-2.031-.901-.12-2.528 1.322-2.359 2.061.097.386 4.1 4.329 4.994 4.918.577.381.855.376 1.361-.022zm7.073-7.62c0-.146-.909-.73-2.364-1.521-4.448-2.417-4.524-2.434-5.915-1.301-.477.388-.867.831-.867.983 0 .155.964 1.189 2.193 2.352 2.551 2.413 3.178 2.934 3.534 2.934.735-.54 3.305-2.777 3.418-3.447zm6.226-2.272c.549-.657 1.166-2.937.873-3.395-.27-.27-.963-.228-1.295.073-.343.31-1.189 3.174-1.059 3.513.133.346 1.006.184 1.482-.191zm-48.593 97.008c.421-.056 1.245-.571 2.444-1.601 1.281-1.1 5.34-3.549 5.781-4.534.197-.56.054-1.363-.37-1.424-.322-.046-.39.2-3.089 2.145-1.82 1.312-5.019 3.658-5.5 4.155-.209.532.263 1.203.733 1.259zm-.378 15.677c2.778-1.928 5.029-3.924 8.651-6.156.28-.369.323-.918.152-1.367-.211-.555-.503-.336-1.599.426-2.669 1.799-5.416 3.917-7.715 5.488-.738.5-1.359.776-1.203 1.057.207.373 1.347.486 1.715.553zm2.702 1.183c1.827-1.495 4.014-2.922 5.965-4.367.273-.273.344-1.192.064-1.568-.221-.298-.038-.243-.578.064-.79.448-5.516 3.67-6.397 4.399-.513.424-.94.636-.813.784.591.38 1.218.615 1.759.688m2.297 1.158c.378-.253 3.626-2.329 3.887-2.605.299-.316.212-1.729-.078-1.841-.82.653-5.153 3.291-5.161 3.717.441.396 1.024.761 1.352.729m3.473.289c.499-.457.598-.535.609-1.047.019-.928-.211-.888-1.533.057-.924.598-1.486 1.018-1.321 1.376.656 1.027 1.588.217 2.245-.386m.358 1.895c.259-.096.261-.229.224-.554-.041-.361-.094-.345-.487-.345-1.052.039-.103.992.263.899m-12.647-5.193c.477-1.576 1.146-2.823 2.239-4.004 4.369-3.872 3.034-8.637.275-12.517a333 333 0 0 0 10.202-15.144l-.011-7.887.412.043c-.142 17.212.643 45.434.643 45.434l3.549 2.707-.478.237c.584-.091-10.333-6.926-16.832-8.868zm3.208-1.965c3.022-2.28 5.962-4.074 8.959-6.503.319-.263.507-.277.516-.873.017-1.136-.209-1.148-1.33-.346-.496.355-2.314 1.626-4.039 2.79-1.8 1.215-3.467 2.296-3.802 2.684-1.686 1.955-2.31 2.875-2.137 3.155.181.292.523-.024 1.832-.907zm3.296-5.527c1.553-1.022 5.268-3.602 5.606-3.92.588-.553.692-1.435.16-1.537-.259-.049-3.135 1.868-5.566 3.71-1.183.897-1.446 1.104-1.446 1.949 0 .512.31.413 1.246-.203zm1.548-4.016c4.762-3.385 4.639-3.099 4.536-4.36-.035-.426-.129-.619-.319-.655-.148-.028-.99.577-1.937 1.243s-2.077 1.561-2.644 1.955c-1.655 1.148-2.203 1.457-2.203 2.115 0 .649.175 1.058.462 1.058.108 0 1.055-.61 2.104-1.356zm-.683-2.622c2.193-1.549 4.61-3.297 4.939-3.712.4-.504.328-1.601-.182-1.601-2.201 1.471-4.85 3.404-6.712 4.93-.241.212-.547.416-.643.693-.019.358.432.831.611.846.363.002.921-.404 1.987-1.157zm-1.428-5.242c1.675-1.135 3.197-2.483 4.86-3.627 1.249-.855 1.603-1.12 1.529-2.195-.043-.62-.588-.264-2.704 1.146-1.551 1.034-2.264 1.442-2.814 2.149-.386.892-1.658 1.73-1.726 2.75-.002.378.25.199.855-.223m5.141-6.818c1.286-.852 1.408-.871 1.269-2.003-.175-1.416-.32-1.333-1.549.544-.808 1.234-1.085 1.592-.962 1.821.21.392.441.168 1.243-.363zm-4.684-10.422c-.136-.63-.329-.494-.977.075-1.191 1.046-1.379 1.803-.637 2.2.394.211.699.187.933-.33.505-1.114.646-1.507.681-1.945m-6.673 9.902c-.154-.576-.857-1.359-1.392-1.636-.531-.274-.853-.223-1.36.421-.467.594-.25.947.452 1.835.514.651.723.857 1.127.857.491-.192 1.275-.853 1.172-1.478zM99.65 203.872c-.34-.657-1.062-1.35-1.393-1.234-.351.123-.692.626-.697.942.145.645.69 1.082 1.108 1.094.789-.112 1.269-.249.981-.802zm3.149-1.001c-.68-.718-2.025-2.3-2.245-2.3-.344 0-1.165.862-1.165 1.216 0 .418 1.224 2.132 1.632 2.269 1.03-.096 2.921.02 1.778-1.185m3.887.201c-.071-.346-3.899-4.416-4.182-4.416-.365 0-1.086.801-1.086 1.171 0 .297 1.236 1.91 2.379 3.103.569.594.62.68 1.316.571.76-.119 1.75.046 1.573-.428zm6.765-.909c0-.821-.43-1.272-2.158-3.142a161 161 0 0 1-2.355-2.621c-1.292-1.475-1.845-1.927-2.36-1.928-.407-.002-1.029.659-1.029 1.079 0 .27 3.182 3.918 6.063 7.014.639.687.926.887 1.539.561.353-.241.3-.648.3-.962zm-4.981-9.773c-.647.532-.888.749-.891 1.104-.004.541 5.487 6.575 5.977 6.575.288 0 .244-.039.413-.688.34-1.969-.195-2.547-1.618-3.846-.954-.871-2.878-3.869-3.881-3.144zm9.685-4.037c-1.533-1.833-2.381-2.676-2.692-2.676-.213 0-.532.205-.876.586-.573.542-.518.523-.155 1.168.188.335.716.995 1.172 1.465.845.872 1.277 1.149 1.685.731.36-.37 1.25-.807.867-1.274zm-.8-4.574c-.374-.004-1.002.67-1.002 1.036 0 .31 1.244 1.869 2.111 2.646.702.629 1.033.798 1.521.383.365-.53.283-1.014.055-1.419-.621-.707-1.978-2.615-2.685-2.646m4.309.449c-.009-.535-1.578-2.574-2.075-2.778-.413 0-1.289.961-1.289 1.405 0 .238.336.768.905 1.429 1.12 1.3 1.407 1.586 1.651 1.382.399-.332.818-.915.809-1.439zm1.771-2.297c.103-.448-.174-.909-.801-1.696-.783-.984-1.168-1.05-1.906-.288-.272.281-.4.527-.4.663 0 .375 1.643 2.463 1.948 2.463.705-.087.921-.6 1.158-1.142zm-2.891 5.172c-.147.674-.431 1.114-1.081 1.427-5.017 3.615-4.855 9.506-5.926 14.945-8.124-.082-20.968 3.251-20.888 3.426l43.175-43.555s.536.133.208.515c-3.494 2.512-3.277 7.396-5.575 9.842-3.84 4.64-7.408 8.665-9.912 13.401zm-23.434 17.79c.07-.492-.383-.626-.779-.23-.388.388-.235.691.318.627.291-.034.426-.15.461-.397m13.306-1.83c.159-.414-.219-.802-2.533-3.369-2.343-2.6-2.874-3.208-3.279-3.208-.344 0-1.183.851-1.183 1.2 0 .16.368.687.818 1.171s1.305 1.434 1.899 2.112c1.023 1.167 1.51 1.731 1.899 2.003.382.267.671.253 1.284.253.841 0 1.023.028 1.096-.16zm4.002-8.173c.159-.511.386-.963.388-1.155.003-.357-2.955-3.372-3.455-3.695-.599-.387-1.724.877-1.444 1.615.077.204.957 1.238 1.955 2.299 1.268 1.349 1.903 1.984 2.109 1.952.211-.032.24-.35.447-1.016m1.237-3.168c.216-.318.393-.738.393-.933 0-.221-.495-.821-1.203-1.617-1.319-1.483-1.657-1.654-2.38-.962-.719.689-.475 1.007.789 2.44 1.583 1.794 1.762 2.011 2.4 1.072zm11.307-14.158c.492-.585.503-.875.052-1.409l-.618-.736c-.406-.487-.943-.406-1.497.225-.265.301-.44.605-.439.709 0 .104.285.52.632.925.78.91 1.262 1.009 1.87.287zm1.732-2.234c.335-.511.184-1.072-.442-1.643-.593-.541-.887-.564-1.304-.101-.557.618-.467.825.131 1.487.676.748 1.22.861 1.615.258zm1.389-1.854c.463-.463.454-.858.039-1.386q-.584-.74-1.199-.409c-.711.381-.636 1.034.064 1.771.425.448.624.495 1.096.023zm-33.035 92.906c8.842.991 18.342 1.683 35.088-.919l.084-5.683c-5.223 4.073-12.08 1.281-12.475-3.408-.047-4.179 1.069-8.999 2.01-12.436.7-2.555.9-3.54.245-4.037-1.445-.814-4.008-.917-4.664-2.614-.314-.896-.343-1.854.115-1.171.211.314 1.879 1.089 3.181 1.38 2.268.506 2.632.675 2.89 1.607.162.588-.211 2.617-.809 4.449-.428 1.311-.927 3.416-.927 3.824 0 .443.348.516.737.392.168-.053.965-.851 1.467-1.299 2.179-1.944 2.811-1.886.95.016-.74.756-1.761 1.8-1.761 1.879 0 .402.378.356 1.214.054 1.288-.465 4.309-.409 5.653.266 1.671.839 1.741.802 1.703-1.742-.301-4.755-1.075-10.38-2.624-14.77-2.363-6.696-7.269-12.908-14.519-12.629-8.836.46-14.169 3.979-20.18 8.194 3.631 8.055-1.617 14.225-3.518 15.039-.183.079 2.38 8.188 3.474 12.308.994 3.743 2.666 11.3 2.666 11.3m37.616-194.285c-.205-.53-5.121-16.548-6.496-23.248-13.289-.773-23.116-1.876-34.817 1.446 0 0-.254 4.513-.131 4.732.119.557.522.544.851.362 5.405-2.97 11.262-1.632 11.669 5.692.155 2.797-.785 4.768-.956 7.421-.149 2.317-1.972 5.405-.867 7.165.142.216.92.643 1.984 1.098 1.984.85 2.761 1.63 2.907 2.927.216.895-.332 1.497-.497.577-.105-.584-.207-1.098-2.657-1.937-2.388-.818-3.031-1.765-3.269-2.265-.328-.688-.267-1.176.041-2.274.654-2.335 1.298-4.716 1.239-5.841-.021-.404-.47-.208-1.043.28-.728.619-3.841 2.669-3.929 2.582-.041-.041.514-.867 1.385-1.7 1.057-1.011 2.373-2.236 2.373-2.46 0-.398-.155-.121-1.18.183-1.787.492-3.846.422-5.23-.19-1.174-.517-1.998-.816-2.172-.534-.435 7.134.625 14.488 3.618 20.224 2.681 5.212 8.254 11.739 16.634 10.275 8.659-1.513 17.082-8.478 16.78-8.486-3.231-7.316.451-12.765 3.764-16.029zM66.026 266.856c-3.837-3.842-13.508-8.022-20.155-9.94-.532-.115-1.056-.368-1.06.262l-.078 13.187-11.878 11.133.209 5.432 25.202-.122 16.73-24.528s.807-.145.896-.295c-3.071-13.025-7.695-23.428-10.633-28.642.049.064-4.224 3.453-7.982-.76-2.109-2.364-.815-6.514 1.186-8.036-1.688-1.242-5.185-3.493-7.478-4.143-.477-.117-1.187.848-1.42 1.721-.419 1.419-1.116 2.688-1.583 4.118-.514 1.195-1.009 1.375-1.776 1.04-1.195-.354-1.511-.478-1.511-.478l.039 15.502c9.169 3.182 18.607 11.333 21.294 24.548zm38.112-165.67 2.717-2.95c-4.298-.527-8.804-1.296-14.076-2.951 3.661 2.721 7.494 4.406 11.359 5.901m-14.929-8.3c4.791 1.597 10.852 5.322 18.422 3.92-6.9-2.737-12.139-9.132-14.371-22.152-.488 2.527-1.497 7.782-3.086 8.351-2.233-8.641-11.21-3.616-7.61 3.432-9.098 6.251-20.037 9.778-29.958 14.599 0 0-1.493 4.583-8.925 10.862-1.403-7.361.269-18.283-.601-25.679L31.429 75.215c.179 2.095.097 3.396.004 5.85.32.428.762.652 1.21.919.753 42.406-.26 84.325-.25 122.842-.116 23.604.509 48.198.163 70.484l-.435.806.018 5.327 11.897-11.328s-.553-8.038.071-14.18c7.508 1.512 14.51 5.04 20.788 8.909.79.22-3.853-15.432-20.737-22.384 0 0-.023-4.889-.023-15.516 0-10.252-.16-11.337-.387-11.504-.683.743-9.324 3.654-9.761 3.162.231.077-2.437-18.147-.13-20.916l8.266.174c2.364 1.908 1.414-.416 2.787-.798.823-.222 4.646 1.268 4.646 1.268 15.754-18.596 14.179-49.178 2.874-66.385-2.896 2.352-5.976 5.54-8.88 6.908-.035-.1-.053-9.487-.053-9.487 15.053-9.662 31.426-37.649 30.382-37.743 0 0 4.661 4.54 6.47 7.107L65.49 120.251c3.404 6.853 6.847 13.068 9.08 19.094.302.815 1.233.792 1.468 1.65.2.733-.694 1.751-.571 2.56 3.136 11.993 3.847 24.718.753 36.247-.652 2.595.543 4.699 2.14 6.65.132.17-1.488-1.403-1.633-1.49-.556-.334-1.482.837-1.677 2.314.128.905.619 1.064 1.27 1.798 1.147.953 5.703 5.439 7.709 7.488 1.782 1.82 2.243 1.902 3.444.611.339-.316.691-.747 1.019-1.015.061.099.505-.363.657-.511l26.834-26.192c3.117-3.042-26.795 27.482-26.795 27.482s-14.505 14.24-18.063 17.75c-3.675 3.626-4.172 4.419-4.319 4.689-.262.481 1.185.468 1.844.37.053-.008-.553.14-1.165.135-3.778-.844-5.065 3.332-7.446 4.172-6.3 4.474-2.064 11.659 3.955 9.286l1.466-.705c3.648 6.776 8.91 19.12 11.38 29.849l-.995.46-15.872 23.81h90.014c-6.466-6.436-11.965-14.339-17.567-20.254-8.977 2.685-36.121 2.137-35.692.97 0 0-4.11-16.639-6.434-24.813 7.379-6.32 6.623-16.29-4.089-20.766 7.799-6.157 15.649-8.244 23.303-8.744 2.486 6.314 8.323 6.712 11.078.93.018-.065 10.35 3.176 14.159 6.683-5.648-.585-11.226-1.709-16.878-1.979 4.975 1.964 10.04 7.095 11.663 12.962.795 2.095 2.01 9.013 2.331 9.038 0 0 1.885-7.99 3.347-7.55 3.728 7.78 10.156 1.928 7.448-4.27 9.495-4.532 20.178-9.593 28.913-13.794 2.549-3.844 8.817-11.144 9.228-11.176 0 0 11.529-66.048 11.527-88.128-.383-26.544.532-56.092-.612-80.919l-.011-7.136-24.35.01-17.383 25.562s-.131.405-.128.581c2.372 10.314 5.416 19.091 10.193 28.62 6.591-4.978 12.145 3.219 7.202 7.979-.928.894-.68 1.119.249 1.741.915.613 7.171 3.76 7.462 3.76 1.131-1.68 1.459-4.163 2.222-6.059.192-.722.738-.811 1.828-.683 1.401.165 1.394.747 1.347-8.167l-.04-7.657c-8.451-3.892-19.639-13.788-20.161-24.08 4.886 3.555 16.113 8.724 19.111 9.186 1.317.368 1.114-1.927 1.155-2.848.357.239.486 3.784.486 3.784-4.96-1.499-7.559-1.193-19.938-8.367 2.124 10.122 12.261 18.106 19.611 21.747 0 0 .307 4.807.292 10.193-.047 16.424.117 17.148.117 17.148 0-.008 4.045-1.031 5.168-1.588 2.005-1.606 5.219-.375 5.664.808.652 6.198.025 11.945-.113 17.865-3.426.244-5.303.965-6.993 1.034-1.099-.147-1.766-.154-2.328-.779-1.636-3.534-1.53-1.293-1.729 1.361-.15.785-4.246-.582-4.655-.818-17.688 20.361-16.181 43.802-4.168 65.511 1.985-1.339 5.402-3.895 8.818-5.573.082 2.762.129 8.447.129 8.447-13.847 10.159-30.43 37.075-29.869 37.149l-5.626-6.717s3.541-5.629 4.789-7.118c.145-.171.239-1.916.239-1.916l8.597-12.431c-3.887-6.885-6.542-12.773-9.307-19.544-.157-.567-.832-3.001-.684-3.231-5.735-25.912.479-38.802.022-39.783 0 0-.076-.518-.198-.62-.188-.156.049-.306.26-.676.409-.718 1.061-2.19.838-2.626-.164-.322-4.815-4.973-8.803-8.802-2.098-2.014-2.014-2.245-3.098-1.145-.402.408-1.39 1.569-1.39 1.569-14.407 13.329-25.841 25.467-40.299 39.656l-.694-.631c21.032-20.905 42.259-41.602 63.087-62.709l-3.664.062c.104-.265.256-.513.468-.585 1.964.002 3.984-.594 5.444-1.423 2.971-2.207 7.235-5.162 7.569-8.072-.214-5.602-4.939-6.414-8.351-3.675-4.743-8.519-8.498-18.768-10.509-28.336-.095-.475-.763-1.294-.864-1.836 1.016-3.178 17.124-25.127 17.124-25.127H75.393l17.215 20.5c0-.818 24.535-3.715 35.771-.293l6.843 24.308c-6.216 6.01-8.054 15.893 3.379 21.039.222.482-1.084 1.275-1.084 1.275.182-.296.498-.603.37-.876-3.081-1.347-6.381-4.757-6.381-4.757-6.878 5.373-13.307 8.364-19.605 8.63 0 0 3.325 2.254 3.967 4.731 0 0-.309-.038-.39-.137-.682-.834-2.251-3.533-3.574-4.328-2.242-.538-3.568-.147-5.337 1.073l-2.395 2.314c-5.495-1.672-11.599-4.405-14.961-8.556Zm-.92 59.494 2.508-2.474c.287-1.837.785-4.172 2.904-6.716 2.351-2.821 4.95-5.474 6.863-7.986 2.298-3.018 3.546-5.748 2.942-7.014 3.426-.617 6.57-3.64 6.67-9.127.04-2.882 1.431-7.086 1.536-7.028 0 0 23.909-.813 40.356-16.493 0 0 1.152.25.882.459-6.232 6.241-12.86 10.844-20.693 13.774l-43.205 43.157zm4.783-4.952c.646-.646.791-.857.426-1.161-.557-.462-1.63.492-1.63 1.45 0 .61.483.431 1.203-.29zm2.237-2.199c.514-.492.495-.85.07-1.275-.584-.584-1.433-.225-1.718.717-.288.949.842 1.331 1.649.558zm1.969-1.991c.265-.301.481-.61.481-.686 0-.334-.825-1.091-1.188-1.091-.464 0-1.292.778-1.292 1.214 0 .364.831 1.111 1.236 1.111.155 0 .499-.247.763-.548m1.856-3.708c-.588-.495-.975-.498-1.459-.014-.564.564-.505 1.183.167 1.773.511.533.73.481 1.421.055.58-.593.684-1.146-.129-1.815zm2.178-.331c.636-.535.545-.974-.148-1.667-.729-.729-1.292-.735-1.811.038a1.33 1.33 0 0 0-.23.663c0 .282 1.203 1.354 1.52 1.354.174 0 .408-.167.67-.388zm2.095-2.069c.54-.564.471-.967-.304-1.765-.652-.671-1.105-.722-1.679-.19-.594.55-.47 1.131.199 1.801.678.678 1.181.783 1.784.154m2.373-2.402c.397-.42.29-.386.009-.841-.435-.703-1.703-1.868-2.064-1.868-.454 0-.851.726-.847 1.441.004.711.35 1 1.253 1.71.599.471.416.514.877.244.256-.15.604-.458.773-.686zm1.883-1.721c.85-.968.688-1.154-1.363-3.316-.696-.733-.84-.817-1.337-.775-.472.04-.505.156-.748.654-.448.918-.116 1.384 1.175 2.757 1.328 1.413 1.524 1.534 2.274.68zm2.103-2.258c.328-.288.548-.624.548-.837 0-.377-1.661-2.22-2.255-2.559-.42-.24-.859-.104-1.404.364-.327.281-.319.349-.241.659.127.506 2.263 2.758 2.616 2.757.146 0 .435-.12.736-.385zm2.086-2.024c.353-.36.632-.795.632-.986 0-.406-1.791-2.478-2.345-2.768-.471-.247-.745-.144-1.209.509-.535.752-.326 1.096.736 2.319 1.008 1.161 1.331 1.513 1.518 1.513.062 0 .32-.232.668-.587m1.97-2.119c.452-.275 1.043-.854.803-1.327-.254-.484-3.389-3.807-3.727-3.987-.662-.354-.642.156-.642 1.802v.854l1.443 1.413c2.103 2.059 1.633 1.557 2.123 1.246zm2.549-2.34c.249-.249.485-.669.482-.825-1.301-1.585-5.086-6.595-5.769-6.41-.072.019-.1.023-.149.166-.17.503-.239 1.54-.121 2.38 1.195 1.148 4.011 4.886 4.648 5.118.381.147.549-.069.909-.429m2.033-2.133c.239-.229.435-.539.435-.689s-.421-.677-.869-1.204a134 134 0 0 1-1.947-2.372c-3.566-4.447-3.824-4.779-4.369-4.328-.357.297-.444 1.344-.264 1.736.31.676 4.204 5.372 5.459 6.584.798.771.956.847 1.554.273zm2.051-1.966c.304-.287.554-.668.554-.846s-.575-.902-1.177-1.609a189 189 0 0 1-2.229-2.68c-1.6-1.968-1.613-2.039-2.807-2.162-1.809-.186-1.568.213.482 2.605.496.579 1.433 1.722 2.082 2.54 1.52 1.915 2.19 2.62 2.491 2.62.133 0 .299-.18.604-.467zm2.092-2.049c.927-.78.744-1.036-2.272-4.15-.989-1.021-1.059-1.183-1.827-1.183-.773 0-1.022.159-1.022.534 0 .23 3.929 4.899 4.215 5.013.387.155.432.186.906-.213zm2.197-2.25c.247-.265.45-.607.45-.761 0-.335-.853-1.419-1.652-2.119-.375-.329-.846-.668-1.149-.668-.513 0-1.392.29-1.544.535-.098.159 1.069 1.6 2.216 2.809.76.801 1.057.87 1.679.205zm1.929-1.914c.486-.486.481-.93-.015-1.581-.36-.472-.469-.518-1.209-.518-1.403 0-1.443.359-.357 1.52.807.863 1.03 1.131 1.581.58zm2.066-2.032c.546-.694.079-1.075-.817-.667-.212.097-.326.349-.371.465-.277.721.663.869 1.187.202zm-34.49 5.863c-1.994 1.26-5.347 3.649-7.626 5.245-.06.342-.104 1.215.002 1.894 1.292-.879 5.445-3.531 7.33-5.026.095-.56.233-1.549.294-2.113m3.658-5.787c-.067-.339-.29-.125-.881.375-.773.654-7.332 5.513-9.073 6.735-.662.465-1.285.857-1.356 1.02-.067.154-.131 1.474.12 1.807 1.421-1.085 8.164-5.607 8.265-5.764.697-1.112 2.252-3.053 2.925-4.173m-.751 14.646s-8.044 9.67-10.632 14.487c0 0-.017 5.51-.092 8.683l-.438.123s-.038-8.505-.146-17.735c-.271-23.065-.498-28.665-.498-28.665l-2.612-1.913-.109-.907s11.591 8.116 17.248 9.41c-4.132 6.476-7.954 8.974-2.72 16.517zm-9.546 11.565c.161-.389.052-.37-.281-.355-.244.011-.382.236-.393.483-.013.282.013.349.232.307.158-.03.364-.247.442-.434zm1.935-2.866c1.157-1.426 2.115-2.35 2.286-3.399-.741.123-5.009 3.114-5.076 3.431.041 1.584-.32 1.774.982 1.076.572-.31 1.035-.693 1.808-1.108m.365-3.533c1.244-1.034 5.781-3.474 6.3-4.676.201-.552-.446-1.071-.547-1.02.083.073-6.496 4.014-8.895 6.081-.214.266-.159.721-.016 1.097.263.692.788.13 3.159-1.482zm-1.509-1.902a510 510 0 0 0 5.349-3.667c1.353-.941 1.623-1.256 1.135-1.953-.195-.278-.459-.443-.906-.246-3.917 2.728-4.255 3.189-7.229 5.101-.201.537-.151 1.338.159 1.622.226.013.604-.264 1.493-.857zm-.015-2.944c3.569-2.581 5.494-3.887 5.62-4.171.14-.314.181-1.542-.052-1.674-1.328 1.011-4.878 3.183-7.304 5.151-.063.404-.137 1.312.059 1.508.492.203.639-.063 1.677-.814m-.425-9.319a183 183 0 0 1 7.703-5.41c2.291-1.522 2.674-1.86 1.795-2.315-.302-.156-.913-.404-1.303-.272-3.046 2.458-6.429 4.81-9.656 7.199-.079.356 0 1.057-.019 1.372-.031.488.612.071 1.481-.573zm-.357-2.749c.213-.187 1.573-1.089 3.022-2.137 3.886-2.812 4.345-3.086 4.345-3.385 0-.817-1.121-.99-2.142-.159-1.874 1.526-6.346 4.306-6.357 4.7-.016.581-.113 1.154.056 1.408.215.323.529.052 1.076-.427m1.122-3.81c3.954-2.758 3.797-2.63 3.797-3.125 0-.431-.385-.238-.99-.282-.57-.041-.581.119-1.666.938-2.307 1.744-3.152 2.221-3.394 2.735-.076.162-.13.802.011.943.278.278.599-.063 2.241-1.209zm.261-2.743c.774-.644 1.395-1.117 1.446-1.252.113-.294-.472-.817-.912-.817-.477 0-.849.247-2.031 1.265-1.044.898-1.255.71-1.173 1.217.048.294.053.943.151 1.061.252.304.793-.036 2.519-1.473zm-1.601-1.781c.836-.703 1.012-.848.402-1.458-.552-.552-1.195-.689-1.534-.35-.188.248-.005 1.704-.026 1.994-.033.467.587.293 1.158-.187zm17.907-15.177c0-.301 1.454-1.366 2.546-1.608 1.391-.309 3.138-.149 4.36.461 1.053.526 2.196 1.79.504 1.021-1.554-.691-4.885-.7-6.092-.142-.895.454-1.317.57-1.317.268zm-1.081-5.329c.113-.113 1.567.262 2.368.473 2.147.566 3.911.233 6.162-.416.528-.152.791.213.465.48-1.143.792-2.626 1.253-3.904 1.372-2.813.262-5.839-1.174-5.09-1.909zm-13.794-4.152c1.2-.587 2.666-8.822 2.194-10.238-1.469 2.245-3.117 3.252-5.464 2.863-3.843-.637-3.986-5.366-1.016-5.843 1.186-.19 2.637.592 2.875.408 1.265-.594 2.257-4.845 2.566-6.221.227-1.348.562-5.087.612-6.277.107-2.53.005-6.263.005-6.263l-18.7-22.371-40.958-.176s-.13 31.336-.033 47.367l11.597 11.129.147 17.99c12.958-5.655 25.501-11.594 37.78-18.018-1.424-1.702-1.383-5.989 1.213-7.611 3.822-2.388 6.997.773 7.182 3.261m10.266 3.813c.087-1.014.841-1.848.894-2.88 0-.229.186-.496.795-.172.795.422 1.039.125 1.938-.289 1.595-.734 2.051-.718 3.279-.226.795.425 1.039.423 1.783.037 1.02-.673 2.103-.892 2.999-.577 1.337.466 1.802.723 2.565.353.384-.186.865-.883.949-.831.549.815.438 2.099.789 2.822.621 1.226.378 2.104-.353 1.501-1.537-1.267-2.735-1.299-4.941-.752-1.291.32-1.94.568-3.37.399-4.432-.525-4.732-.393-5.633.209-.875.585-1.547.645-1.694.407zm11.897-8.032c-1.279-.32-2.742-1.483-3.801-1.171-1.306.088-2.051-1.452-1.38-2.296 1.146-1.116 2.926.009 3.618.533 1.501 1.14 1.716 1.231 2.323 1.231 2.492-.049 2.015-2.378.811-3.227-.715-.749-.785-1.235-.633-1.418.247-.297.958-.047 1.737.774 1.492 1.401 1.527 4.193-.303 5.037-.911.508-1.509.752-2.37.537zm5.201-8.072c-1.16-.84-3.224-2.726-3.763-3.398-.912-1.135-1.276-1.861-1.162-2.773.089-.709.197-1.132-.259-1.366-.484-.249-.949-1.321-.855-1.884.026-.156.572-.063.903.35.419.068.332-.181.787-.482 4.739-3.181 8.542-2.568 13.038-.382 1.305.627 4.711 3.209 2.886 2.371-.109-.05-1.304-.567-2.509-1.176-3.899-1.866-8.243-2.997-11.78-.598-.609.426-.977.753-.503.753 1.989-.387 3.954-1.214 5.997-1.085 3.045.04 4.887 1.543 7.171 2.58 2.479 1.107 2.957 1.486 2.054 2.4-.255.282-.46.274-1.657.182-1.287-.099-1.394-.062-2.118.402-1.898 1.216-4.364 1.88-6.553 1.696-2.58-.217-2.856-.423-2.909-.052-.034.238.52.649 1.284 1.348.58.531 1.359 1.312 1.427 1.433.215.38-.767.193-1.477-.321zm-.724-4.128c-.005-.305-.574-1.633-.913-1.976-.326-.329-.581-.201-1.274.287-.521.367-.577.657-.097 1.083 1.02.906 2.294 1.133 2.285.605zm3.885.183c1.041-.504 2.101-2.29 1.62-2.87-.286-.345-.535-.018-1.081.951-.262.464-.712 1.051-.905 1.186-.851.596-1.974.039-2.446-1.275-.285-.794-.585-1.298-.918-.997-.6.544.08 2.507 1.273 3.014.705.3 1.727.344 2.458-.009zm3.239-.293c1.056-.326 1.56-.801 1.472-1.262-.073-.382-.834-.831-1.35-.831-.232 0-.685-.01-.847.206-.359.478-.93 1.93-.955 2.087.123.32.48.171 1.681-.2zm3.65-7.87c-5.266-2.014-9.426-2.822-14.435-.686-1.604.697-2.52.769-2.6.201-.068-.479 1.087-1.899 2.335-2.554 3.497-1.599 7.695-1.75 11.213-.062 1.315.643 5.004 3.266 5.004 3.505 0 .262-.333.058-1.517-.404m61.641 59.01c1.255-.662 1.831-1.962 1.063-2.73-.225-.225-.54-.224-.801-.224-.439 0-3.733.883-4.372 1.225-.417.223-.265.613.132.972.184.167.32.522.349.912.037.5-.063.953.268.875.672-.154 1.733-.302 3.361-1.03m-4.683 1.206c.358-.65.206-1.542-.733-2.09-.489-.253-.876-.118-1.27.444-.933 1.701 1.384 2.432 2.003 1.646m-4.7.798c.201-2.174.103-8.597.103-8.597s-1.17.988-1.907 1.022c.27-.939.564-1.284.984-2.205.241-.975.374-2.7.307-3.686-.074-1.08-.835-1.109-.05-3.049.401-.991.473-2.035-.047-3.263-.224-.606-.296-.954.287-1.722.542-.714.328-1.071.318-2.56-.014-2.063-.002-2.398-.626-.734-.933 1.378-1.362 1.114-2.783.949-1.375 3.081-2.982 6.311-3.046 8.966-.04 1.665-.062 1.924.977 5.425.387 1.303.52 1.737.542 3.313.021 1.504.134 2.034.363 2.864.407 1.478 2.063 3.922 4.578 3.276zm-47.817 138.553.006-3.097s-4.955 1.528-7.469.588c-2.589-.7-2.581-.829-2.53-.548.091.5 2.012 1.515 3.791 1.931 1.251.293 3.757-.003 4.986-.367.698-.207.772-.012.493.202-3.038 2.375-6.89 1.281-9.311-.689-1.293-1.267-2.16-1.274-1.462.428 3.324 6.737 11.579 2.762 11.496 1.553zm-3.344-4.603 1.127.021s-.346-1.963-.93-2.536c-1.195-1.171-2.883-.993-3.954.158-.491.527-.865 2.391-.865 2.391l.906.019c.336-.87 1.765-4.952 3.716-.053m-4.509-2.969c-.64-.175-2.045.463-2.729.908-.253.28-.256.32.046.717.657.865 1.66 1.278 1.731.954.291-.456 1.019-2.403.952-2.579m7.445 2.184c.148-.604-.421-1.636-1.308-1.998-.384-.095-.763-.172-.651.251.125.473.39 1.249.638 1.768.18.39.295.586.673.438.297-.099.547-.192.648-.459m48.351-41.061.01-5.247c-2.65 2.685-6.112 7.191-7.161 8.878zM99.297 66.039c1.122-.481 1.946-1.948 1.662-2.689-.176-.46-.643-.091-1.114.59-.758 1.096-.95 1.215-1.617 1.215-.709 0-.991-.183-1.478-1.137-.335-.902-.573-1.044-.886-.65-.147.177-.135.432.056 1.089.5 1.719 1.786 2.263 3.376 1.582zm3.058-.543c1.245-.428 1.499-.565 1.44-.979-.062-.434-1.052-1.013-1.613-.906-.406.245-1.458 1.91-1.398 2.207.144.232.56.026 1.571-.322m-7.18-.726c-.043-.384-.096-.761-.202-.888-.399-.481-1.243-.141-1.243.47 0 .465.662.991 1.197.991.377 0 .323.092.248-.573m7.035-3.136c1.771.667 2.669.741 1.705-.164-1.324-1.469-7.394-3.147-10.651-.749-.232.331-.184 1.597.07 1.527 2.65-1.787 6.043-1.692 8.877-.614zm-6.062-5.066c-1.488.495-2.885 1.274-3.064 1.998-.288 1.167.234 1.179 2.18.567 2.506-.821 5.31-.449 7.446.785 1.622 1.18 2.102.789 1.828-.202-.907-3.281-5.977-3.872-8.391-3.149z" style="fill:#131f67" transform="matrix(.75172 0 0 .75767 -.756 2.453)"/><path d="m191.662 35.502-10.944 10.844.153 12.834c1.1 2.016-16.891-5.751-19.731-8.101.33 8.573 12.03 18.34 19.638 21.914l.208 27.222s3.062-1.187 4.747-1.773c1.248-.433 4.102-.392 5.042-.843 1.493-18.661 2.768-42.939.886-62.097zm-60.871 13.432c-1.066.018-1.705.307-1.69.993-.321-.053 4.044 16.023 6.03 22.737-3.867 3.907-7.903 10.695-2.126 16.977 1.233 1.341 3.49 2.476 5.638 3.764.957.929-11.745 9.117-23.051 9.121-3.624-7.947-8.687-3.553-11.48-.78-2.181-.192-10.323-5.041-14.488-7.818-.067-.044-.023-1.194-.015-1.405.29 1.894 16.316 5.981 17.04 4.083-.463 0-7.189-4.549-9.121-9.038-2.466-5.063-4.442-12.017-4.442-12.017-.897 2.572-.59 6.136-3.061 7.411-.74-8.37-12.692-4.101-6.742 4.083-3.342.981-6.201 2.71-9.445 4.151 6.789 9.236 16.132 15.38 26.001 19.002-1.301 2.773-8.987 9.014-2.674 16.372.285.226-6.033 7.117-9.14 12.507-2.339 4.057-1.633 7.17-1.366 7.27 8.559-9.809 13.369-18.106 13.369-18.106-.073 1.141 10.159.523 9.988-8.69.226-2.486.676-5.181 1.632-7.488 15.612.734 29.036-4.827 40.382-16.508 0 0 2.311.659 3.768.886.731.114 1.767-.362 1.938-.412.657-.034 1.605-.162 2.49-.659 1.211-.68 2.435-1.853 3.73-2.901 1.698-1.375 3.393-2.701 3.996-4.117.677-1.575.147-3.473-.431-5.154-3.642-4.288-6.058.323-7.673-.276-5.603-7.617-10.276-29.165-11.039-29.334-3.13-.631-13.837-4.726-18.019-4.655zM92.332 63.64c-.418.028-1.92 6.727-3.25 6.675-5.635-3.629-5.756 3.883-.911 3.541 4.093-.289 6.381-6.895 4.18-10.211zM32.1 76.384c.187 40.73.92 81.447 1.875 122.164 3.681-.909 6.358-1.602 9.968-.024.339-11.575-.679-40.786-.436-69.072 13.759-10.7 23.423-22.502 30.21-37.927l-21.007 9.838s-6.865 9.84-9.058 10.472c-.312-1.401-.663-18.058-.378-25.202zm46.679 25.192-4.127 5.972s.096 20.512.334 30.395c.17 1.968 1.959 3.773.528 5.536.873 0 4.687 26.611 1.061 37.399-.65 1.932-.041 3.297.974 3.739l7.866 7.982c2.481.824 4.898.502 6.98 0 7.447-6.812 18.024-18.745 18.024-18.745l-27.963-26.432c-2.398-6.411-3.676-45.846-3.676-45.846Zm101.908 85.541c-20.245 15.134-28.948 36.671-29.082 36.527.071.251-.101 1.135 1.167.436 5.24-2.838 18.711-8.956 18.711-8.956 3.2-3.844 5.66-7.555 9.324-11.213 0 0 .396 16.689.073 25.062 3.305 2.457 11.15 10.133 11.15 10.133-.002-.002 2.166-118.574-2.509-121.583-4.54.88-6.82 2.538-8.514-2.727-1.197 24.141-.013 48.367-.321 72.322zm-43.966-66.733c-4.883 3.991-21.673 20.46-21.637 20.63 4.452 7.466 22.038 22.425 30.467 30.787l1.221 42.601c1.24-1.668 2.142-3.238 3.487-4.907 0 0-.22-21.57-.741-31.683-.154-2.99-.84-5.347-.625-5.619-2.372-12.274-3.356-25.833.002-38.993-7.963-6.858-10.493-11.418-12.174-12.816m1.307 48.656-.039.029c-4.122 5.871-12.004 18.615-12.57 18.585-.167-.381-8.145-.025-9.654 4.994-1.267 3.736-1.363 7.176-2.286 11.029-16.008-.523-27.727 4.538-40.068 15.912-3.51.138-6.583.426-8.743 1.225-1.809.67-2.782 1.877-3.894 2.683-3.132 2.27-3.98 4.207-3.827 6.578.279 4.296 7.87 4.907 8.259 1.879.385 0 7.428 16.091 8.113 18.832 1.661 4.432 3.441 12.725 3.652 12.739 2.836.182 18.755 4.647 18.813 3.027 1.5-.644-5.536-23.668-5.536-23.668 12.299-10.317-1.26-21.343-4.447-20.94 7.003-4.985 15.038-8.343 23.899-8.785 1.372 4.924 7.731 7.455 10.932.911 0 0 13.774 4.93 13.717 6.563-5.672-.856-10.335-1.302-16.013-1.845 10.881 5.906 11.215 13.69 13.437 21.438.302-1.372 3.173-7.367 3.173-7.367 3.69 8.184 10.709 2.505 7.813-4.103l8.733-4.049c1.006-.51-13.054-16.326-25.841-18.566.644-1.178.899-2.286 1.565-3.245 3.206-3.145 5.692-7.751.79-13.262 3.236-4.522 10.739-15.436 10.264-15.631 0 0 .146-5.101-.242-4.965zM32.886 219.344c-.123 0-.349 37.848-.084 56.636-.314.778-.518 4.936-.518 4.936l11.644-10.937.349-14.139c3.04-.727 21.991 8.893 20.475 8.84 1.446-.609-8.748-19.86-20.639-21.995-.221-10.906-.332-23.253-.644-26.573-4.129.788-10.582 3.258-10.582 3.233zm103.383 22.768c-3.261.972-4.621 7.825-3.565 11.15.195.615.072.747.591.145 1.271-1.865.87-5.58 3.115-7.542 5.928 1.788 5.34-5.921-.14-3.754z" style="fill:#e2cf00" transform="matrix(.75172 0 0 .75767 -.756 2.453)"/><path d="m60.83 286.751 15.415-23.287c18.404 6.15 37.191 6.262 56.178 3.227l16.97 20.06h-6.938l-10.68-15.252c-3.871.894-7.893 1.284-11.901 1.835l4.998 13.417h-5.44l-3.927-13.271c-9.212.357-15.486-.463-21.882-1.212l-2.304 14.484h-5.536l3.737-14.955c-4.352-.815-8.743-1.515-12.388-2.683l-11.316 17.638zm17.653-13.704 6.399 1.733-3.125 11.971H70.05zm16.527 13.704 1.809-10.575c4.298.847 9.906 1.018 15.818.958l2.781 9.617zm30.291-9.805 5.048-1.337 7.568 11.142h-9.198zm39.958 7.95c-5.335-10.728-12.621-20.061-20.542-28.941 7.734-8.13 14.254-17.528 20.516-28.211 6.214 10.783 13.38 20.774 21.276 28.629-8.686 8.64-15.337 18.043-21.25 28.523M51.656 209.651c24.624-28.638 21.348-58.701 7.745-82.95l2.892-2.974c15.73 25.849 19.078 62.602-9.911 91.085-.305-1.717-.726-5.161-.726-5.161m98.19-32.118c3.537 6.021 5.7 12.116 9.438 18.171l-8.869 11.986zM43.907 196.501c-.23-18.896.057-57.183.057-57.183l8.308-6.355c9.941 12.067 15.366 43.872-2.486 65.04-1.298-.946-4.833-.552-5.879-1.502m117.956-3.813c-22.786-38.433-11.198-66.46 10.762-91.346.064 1.918.208 3.828.382 5.739-18.854 21.587-26.394 53.514-7.908 82.398zm-41.262-5.583 10.377-14.14s1.967-5.624 3.624-7.286l1.903-1.684c.634.611 1.84 1.385 1.804 2.088-.039.664-1.019 4.173-1.019 4.173l-12.136 17.746s-3.683-.646-4.553-.898zm55.196-68.633c.328-.37 4.447 1.348 4.447 1.348l.264 58.106-8.246 5.298c-2.393 1.215-21.09-36.918 3.536-64.753zm-86.876 24.477c3.755-5.115 7.71-9.542 11.349-14.24.94.324 3.412.378 3.412.378.261.14-.832 3.897-3.524 6.487-2.706 2.758-9.149 10.315-9.338 14.122-.058 1.174-2.693 2.519-2.693 2.519l-1.875-1.976c.574-2.895 1.472-5.114 2.668-7.29zM65.503 120.66l8.263-10.72.824 28.482ZM37.264 57.495c7.867-8.374 14.82-17.984 21.389-27.917 5.995 9.861 12.643 19.944 20.961 28.118-7.574 8.306-14.752 18.271-21.015 28.15-6.014-9.619-12.738-19.575-21.335-28.352Zm55.284-9.084L76.187 27.962h7.922l9.743 14.471 11.67-1.332-4.107-13.139h4.835l3.415 12.928c7.158.17 14.154.727 20.946 1.407l3.491-14.335h4.924l-4.469 15.001 13.178 3.459 11.742-18.46h5.834l-16.642 23.834c-21.756-6.535-39.23-5.786-56.123-3.385Zm47.168-8.559 3.728-11.902 11.15.012-8.534 13.596zm-26.985-2.895-2.356-8.995h19.658l-2.538 10.056c-5.192-.877-9.932-1.044-14.763-1.062zm-23.565-8.995h7.846l3.056 9.308-4.526.513z" style="fill:#d40000" transform="matrix(.75172 0 0 .75767 -.756 2.453)"/><path d="m54.59 22.641 14.242 17.173c2.967-1.07 17.922-2.79 26.895-.726 1.563 6.173 3.217 12.407 4.966 18.027 0 0-.56.66-.965 1.079-5.73 6.655-1.674 13.083 3.569 15.18-.945 1.978-10.993 6.906-17.111 6.32.01-.062-1.88-4.523-5.709-3.015-1.308.515-1.848 1.508-2.861 2.477-3.655-1.11-8.482-3.533-10.99-6.196 4.694 2.356 9.317 3.624 13.959 3 0 0-.576-.484-1.23-.786-.392-.182-1.337-.755-2.1-1.274-2.158-1.465-3.59-3.232-5.068-6.253-1.701-3.061-1.978-6.356-2.91-9.26-.493 1.488-.706 5.42-1.995 6.235-.334.22-.396.154-.645-.679-.983-3.023-4.583-2.64-5.77-.488-.603 1.85-.516 2.663.245 4.383L58.93 69.06l-.004.363-1.343.647-.28-.191c-6.246 3.04-12.368 6.204-18.74 9.117 0 0-3.385 5.66-6.482 7.91l-.12-19.218-9.172-8.35-.044 4.573.66.697c.125 32.173.02 63.824.04 93.033l.042 26.889-.56.033-.029 3.136.631.143-.088 4.428-.328.022-.047 2.804.5.08-.01 15.826-.495.643.011 4.518 9.577-9.172.213-10.43c7.554 1.436 15.45 6.908 15.45 6.908-1.33-8.737-10.518-15.937-15.795-17.374l.016-20.7s-3.922 1.649-5.86 1.902c-.96.137-1.329-.01-1.787-.709-.334-.508-.343-.973-.04-2.026.141-.491.136-.62-.04-1.115-.247-.695-.249-1.008-.008-2.235.254-.72.142-1.105-.124-1.773-.285-.715-.307-.848-.185-1.259.32-1.083.34-1.259.171-1.743-.33-.946-.34-1.629-.036-2.243 1.412-2.389 4.578-1.8 6.296-1.714.87.977 1.39 1.521 1.47.107.61-1.69 2.974.04 4.078.757 9.396-12.69 14.032-29.873 2.244-51.377l-6.558 5.289.015-6.62c8.695-5.632 18.479-18.438 22.715-28.536 1.408 1.664 3.026 3.3 4.55 4.977l-.996 1.68-.293-.168c-2.698 5.187-10.024 14.999-10.142 14.899 2.712 5.064 5.126 10.179 7.179 15.354l.537-.243.482 1.559-.95.286c3.21 10.608 3.315 20.43.9 29.487l.566 2.407s3.395 3.314 4.31 4.289l5.058 4.94 3.099-3.057-.18-.26 27.161-27.18 1.694 1.632c-16.636 16.886-45.53 46.04-45.53 46.04l-1.001.147c-.57.085-1.412.122-1.948.084-.883-.062-.991-.042-1.7.297-.8.383-1.458.95-2.342 2.015-.403.487-.68.697-1.129.858-5.663 3.405-.543 10.258 4.274 6.65 3.53 6.798 6.52 14.717 8.168 22.549 0 .057-.634.275-.634.275l-12.693 18.97h4.883l.51-.874h-3.66l11.677-17c14.856 4.08 28.49 4.66 42.329 2.232l12.045 14.768h-4.778l.682.874 6.182.099-14.157-16.84c-5.07 1.366-18.44 2.465-26.827 1.033-1.283-6.28-3.399-13.105-4.964-18.537 8.005-6.314 1.995-14.65-2.945-15.813-.24-.457 10.018-6.741 17.325-6.305 2.093 5.065 6.674 4.315 8.318.546 3.03 1.121 6.964 2.241 10.086 4.743-4.163-.92-8.988-1.422-12.958-1.484 7.552 2.951 9.67 9.17 10.6 15.036.164.973.681 2.229.681 2.229.644-2.118 1.17-4.306 2.436-6.12.582 2.075 2.726 3.686 4.886 2.452 1.253-.915 1.69-2.485 1.293-4.657-.11-.603-.166-.934-.166-.934l1.678-.915.218.187s1.84-.791 2.752-1.239c.143-.07-.168-.358-.168-.358l16.966-8.064c-.065-.037 4.277-6.01 6.769-8.313.075 7.157.057 10.1.053 18.597l.958.944c.85.836 2.702 2.57 6.878 6.437.94.87 1.597 1.3 1.597 1.3l-.129-125.179h-.139l-.002-2.408.196-.01.003-6.264-.176-.103-.001-1.974.233-.172.015-16.908-.269-.047-.016-4.056-9.457 10.081.072 9.506c-4.22-.55-9.442-3.271-13.036-5.468-1.161-.713-1.81-.904-1.773-.495.505 5.66 8.633 14.316 14.88 16.58l.011 21.293c0 .011 1.476-.744 2.376-1.125l.136.378 2.014-.84.163-.438 1.745-.223c.02.36.08.31.08.31 1.554.438 2.243 1.507 1.616 2.708-.219.403-.261.974-.08 1.123.674 1.072.85 2.017.036 3.031-.314.519-.311.811.011 1.362.841 1.71.363 1.598-.27 2.617-.142.77.696 1.272.42 1.996-.129.479-.63 1.038-.969 1.292-.397.29-.724-.249-.724-.249s-1.26.545-2.167.719c-.891.291-2.425.813-2.956-.396-.305-.693-.06-1.325-.08-2.1l-1.308-.143-.047 3.516c-.748.4-3.721-1.13-3.721-1.13-12.758 16.666-12.4 35.15-2.939 50.637.093.249 6.667-4.532 6.667-4.532s-.013 3.92.044 6.045c-8.358 6.966-16.432 16.34-22.204 27.898l-3.576-4.271c.616-.548.64-1.417.627-2.074l2.596-3.901.022-1.013 6.75-9.504c.106.568-6.964-12.76-7.906-17.098l.467-.128c-3.173-12.1-2.522-20.574-.23-30.442l-.654-.637-8.907-8.965q-1.084 1.011-2.163 2.028l-.764.146a417 417 0 0 0-13.653 13.495l-.036.731c-4.467 4.637-9.098 9.038-13.619 13.668l-1.65-1.587c16.007-16.13 46.165-46.091 46.165-46.091s.13-.238.339-.246c.839-.032 1.589-.224 2.417-.466.994-.232 1.155-.306 1.573-.74a9 9 0 0 1 .932-.83q.655-.485 2.996-2.54c.954-.838 1.543-2.056 1.523-3.145-.037-1.938-1.31-3.59-2.95-3.828-.68-.098-2.017.26-2.693.72-.516.35-.759.51-.98.354-3.268-6.678-6.447-15.077-7.795-22.007-.072-.438-.033-.566.32-1.116.22-.341.698-1.095 1.067-1.677 2.92-4.256 6.307-9.427 9.485-14.093.528-.775 1.55-2.267 1.55-2.267l.776-1.282h-5.038l-.621.997h4.146L110.94 41.527c-22.73-7.489-41.356-2.742-41.802-2.64L56.85 23.634h5.62l-.682-.998zm11.062 0 .625.998h5.895l-.334-.999zm9.83.998h3.635l-.21-.998H75.18zm6.504-.998.23.998h14.778l.262-.998zm18.068.998h3.701l.279-.998h-3.723zm7.327-.998-.318.998h8.395l.629-.998zm35.896 6.905.13 2.774-6.05 6.428.007 8.976-1.762-.412-.07-9.276zm-1.697 5.912c.051 2.75-.39 5.385.332 8.187.354 1.38 1.075 2.998 1.165 4.628l-1.997-.048c-.252-.823-.35-1.731-.65-2.745-.738-2.499-1.335-5.131-.79-7.78zm-43.566 4.484c.073.136.311 1.298.532 2.375 1.048 5.914 2.453 10.302 3.885 14.768 1.82 5.627 4.516 12.71 7.136 15.993.348.41.518.876.394 1.08-.212.344-1.281-.137-2-.9-.293-.312-.859-1.187-1.273-1.97-.916-1.728-2.147-4.242-2.27-4.64-.049-.16-.531-1.402-1.073-2.76-.948-2.372-1.51-3.996-2.301-6.635-.629-2.094-1.207-4.283-1.908-6.489-1.147-3.606-1.81-6.475-2.447-9.791-.093-.487-.254-1.056-.196-1.171.362-.264 1.348-.159 1.521.139zm.641.225c-.112-.096 1.04-.114 1.41.198.11.11.305.804.473 1.696 1.044 5.44 2.614 11.063 4.44 16.39 1.458 4.256 3.051 8.353 5.035 11.67.623 1.106 1.464 2.287 2.538 3.563.601.716.65.816.488 1.013-.199.242-.546.211-1.216-.11-.625-.298-1.302-.953-1.938-1.878a94 94 0 0 0-.735-1.057c-2.927-5.101-4.703-9.946-6.314-14.867-1.65-5.046-3.134-10.15-4.143-16.03l-.036-.588zm3.677.766c.257.263.404.766.627 1.817 1.219 5.045 2.216 9.552 3.656 13.693.774 2.228 1.444 4.453 2.275 6.55 1.327 3.353 2.95 6.405 4.945 8.948.658.837 1.852 1.87 2.854 2.47.695.416.8.522.754.764-.06.217-.739.307-.961.29-1.098-.189-2.72-1.046-3.182-1.68-3.356-3.655-5.755-9.635-7.503-14.542-3.003-8.448-5.425-19-4.964-18.672-.03-.246 1.202.036 1.5.363zm1.443.306q.163.003.367.058c.627.173.708.26.86.958 1.072 4.824 2.209 9.077 3.477 13.123 1.29 4.118 2.617 8.001 4.686 12.075 1.517 2.973 3.437 5.026 5.502 6.066.593.299 1.122.585 1.176.639s.04.21-.033.345c-.109.205-.234.247-.739.238-.936-.015-1.593-.31-2.6-.99-2.636-1.833-4.942-5.985-5.96-8.339A95 95 0 0 1 107.1 56.3c-1.847-5.84-2.997-9.704-3.84-14.632 0-.284.19-.436.516-.43zm39.52 7.883-.018 1.71c-6.64.444-13.449-2.386-18.921-4.933 4.123 5.512 8.523 10.402 18.92 11.411l.02 1.766c-13.544-.193-23.082-14.017-22.58-17.462 5.57 3.627 15.633 7.82 22.58 7.506zM105.92 41.88c.326.014.765.153.936.326 1.107 4.164 1.913 8.788 3.743 13.428 2.248 5.703 3.495 10.735 7.664 15.432 1.297 1.343 3.838 1.304 3.838 1.304s-.321.726-.754.848c-.893.136-1.54.176-2.192-.035-2.415-1.029-4.26-3.628-5.214-5.39-.893-1.32-3.072-6.76-4.868-12.305-1.955-6.038-3.567-12.315-3.383-13.579a.5.5 0 0 1 .23-.03zm2.232.7q.242 0 .626.184c.272.13.39.211.532.726.092.336.076.855.24 1.7.941 4.348 2.24 7.879 3.529 11.318 1.224 3.268 2.538 6.476 4.158 9.377.818 1.46 1.63 2.827 2.141 3.343 1.395 1.407 3.763 1.476 4.461.081.386-.793.307-2.049-.458-2.7-.594-.571-1.938-.33-1.974.36 0 .183.335.102.82.043 1.353-.157 1.777 2.258.036 2.661-2.204.51-3.734-2.493-1.788-4.334 3.298-2.254 5.815.826 5.036 3.788-.753 1.75-2.015 2.643-3.681 2.705-2.151.07-3.042-.601-5.247-3.832-2.528-4.09-3.626-8.082-5.407-12.554-1.686-4.23-2.807-8.74-3.336-12.68q.072-.183.314-.183zm2.091.699c.195.007.605.11.785.223.108.067.264.217.264.217 2.966 10.906 5.438 17.439 7.955 22.05 0 0-.04.848-.208 1.089-.3.432-.446.325-.837-.356-1.584-3.09-3.092-6.502-4.497-10.02-1.654-4.138-3.121-8.423-3.743-12.5.033-.524-.084-.672.282-.702zm20.004 6.234c.42 0 .76.341.76.764a.765.765 0 0 1-.76.767.765.765 0 0 1 0-1.53m-61.616-.14c-.88 1.208-1.6 5.53-2.514 5.582-1.006-.015-2.23-.597-3.02.32-.96 1.115-.37 2.346.812 3.024.543.271 1.7.335 2.403.132 2.878-.973 3.97-5.678 2.32-9.057m64.492 1.135c.606 0 1.096.497 1.096 1.108a1.1 1.1 0 0 1-1.096 1.105 1.1 1.1 0 0 1-1.096-1.105c0-.61.49-1.108 1.096-1.108m-64.44.525c.983 2.492-.105 5.473-1.304 6.477-1.103.924-2.835 1.043-3.823.143-.824-.78-.457-2.653 1.078-2.513.517.016 1.131.49 1.478.99 1 .104 2.152-5.007 2.571-5.097m68.264.61c.684 0 1.238.558 1.238 1.247s-.554 1.248-1.238 1.248a1.243 1.243 0 0 1-1.238-1.248c0-.69.554-1.248 1.238-1.248m4.384.88c.698 0 1.263.57 1.263 1.274s-.565 1.274-1.263 1.274c-.699 0-1.264-.57-1.264-1.274s.565-1.274 1.264-1.274m-40.8 5.791c.19-.001.322.181.445.547.257.76.251.849-.15 1.358-3.886 5.422-.343 10.966 5.287 11.568.476.034.714.573.966 1.2-.035.296-.037.296-1.315.32-.835.014-1.505-.038-1.923-.152-1.973-.535-4.39-2.332-5.378-3.996-1.139-1.919-1.328-3.902-.626-6.547.451-1.698 1.023-2.82 1.908-3.744.353-.369.598-.553.786-.554m36.842.602.065 18.603-1.966.723.08-19.785zm3.72.718c2.45 6.129 2.558 11.747.346 16.858l-2.233.326c3.063-7.2 1.76-12.355.029-17.331zM23.616 60.656l7.952 7.564.277 84.266-1.267-.452-.506-82.883-6.456-5.966Zm77.658.243.04.004q.319.039.587.807c.21.603.207.62-.03 1.219-1.091 2.695-.2 5.26 2.494 6.07.64.204.746.31 1.122 1.109.244.52.353.706.259.822-.14.103-.483.15-1.497-.07-4.01-1.38-5.465-5.8-3.641-9.307q.34-.603.626-.65zm-31.925-.334s.838 2.982.758 3.658c-.212 1.307-2.056 3.396-3.667 4.159-1.495.577-3.753.287-4.697-.716-3.432-4.048 2.97-8.112 4.58-3.898.968 2.765-2.968 3.42-3.142 1.296-.001-.548.175-.72.681-1.075.45-.317.399-.599.011-.599-1.486.546-1.52 1.927-.851 2.797 1.339 1.411 2.995.59 4.137-.446 1.537-1.395 1.839-3.397 2.19-5.176m33.202 3.076c.077 0 1.65 3.788 1.858 4.328-.052.38-.463.352-1.164-.142-.713-.502-.926-.855-1.227-2.018-.09-.414-.244-1.918.534-2.168zM70.627 65.24c.346 0 .706 1.281.543 1.938-.283 1.136-3.237 3.056-5.313 3.453l-.99.187c-.43.077-.93-.164-1.453-.7-.368-.379-.543-.755-.455-.845.072-.072 1.024.094 1.831.082 2.262.027 4.007-1.608 5.35-3.557.204-.307.424-.558.488-.558zm-44.95.948s1.531 1.396 2.337 2.197c-.086 3.715-1.447 7.743-1.445 11.065.032 2.89 1.887 5.295 2.075 7.809.112 1.627-.362 4.042-1.158 5.872-.74 1.704-1.13 3.52-1.129 5.285.094 4.105 3.02 8.593 1.992 12.653-.965 3.815-2.064 6.019-1.773 8.045.562 3.908 2.624 7.372 2.076 10.624-.51 3.028-1.868 6.052-1.723 8.782.168 3.153 1.338 5.789 1.668 8.665.215 1.873-.31 4.787-.31 4.787l-2.145.178c1.18-4.428-.578-8.433-1.252-12.69-.574-3.625 1.038-6.51 1.518-9.601.299-1.92-.039-3.75-.983-6.195-1.866-4.516-1.195-7.46.15-11.391 1.662-4.188-.624-7.504-1.195-11.517-.293-3.458-.065-5.902 1.223-8.977.961-2.96 1.232-4.675-.2-7.516-.905-1.795-1.141-2.855-1.143-5.219.468-4.689 1.723-7.318 1.416-12.857zm45.973 1.87q.5-.001.5.716c0 .875-1.295 1.983-3.584 3.068-1.187.563-1.876.646-2.57.316-.648-.31-.617-.58.094-.789 1.79-.526 3.059-1.246 4.505-2.554.459-.416.935-.756 1.056-.756zm-10.356.603c5.904 6.37 11.693 9.648 16.12 11.18l-.697 1.664c-5.815-2.27-11.748-5.429-16.773-12.217Zm11.375 1.041c.16 0 .761.768.761.973 0 .12-.219.505-.488.852-.39.504-.735.764-1.712 1.303-1.322.73-2.12.908-2.694.601-.57-.303-.378-.558 1.045-1.401.735-.436 1.716-1.138 2.178-1.56s.87-.767.91-.767zm-15.639.94c4.837 6.67 11.065 11.102 18.388 13.466l-1.151 1.569c-6.69-2.323-13.231-6.525-19.208-13.925Zm16.892.822c.242 0 .79.621.79.9 0 .132-.107.376-.237.542-.259.332-1.609 1.355-2.185 1.656-.45.235-.787.23-1.278-.015-.582-.292-.482-.537.467-1.152.464-.302 1.166-.86 1.562-1.24.394-.38.791-.69.88-.69zm-19.458.486c-.137.174-7.12 16.296-21.916 27.727l-.07-2.678c8.195-6.55 14.153-15.52 18.648-23.352Zm20.863 1.158c.224-.006.381.147.539.448.187.36-.018.68-.845 1.31-.518.393-.71.47-1.136.462-1.101-.02-1.074-.287.134-1.376.627-.565 1.02-.837 1.308-.844m28.572.796 3.084.239c.83.583-12.055 9.082-20.987 8.32l.237-2.037c7.842.225 17.88-6.154 17.666-6.521zm-26.456.796c.709.4 1.592.873 1.372 1.028-.329.207-2.421.073-2.902-.187-.36-.195-.34-.296.156-.859.61-.688.714-.352 1.374.018m-27.491-.506c-4.888 8.69-10.709 16.622-17.446 21.79l-.09-4.597c6.413-4.975 11.267-14.063 11.28-14.096zm61.212.553 1.494.88c-9.319 8.694-19.384 12.441-29.057 11.502l.779-1.761c15.695 1.25 26.117-10.454 26.783-10.621zm2.265.309s.5-.064.448.04c-3.095 3.056-7.343 6.318-10.125 8.139-13.177 13.639-24.456 24.402-35.934 36.551l-1.835-1.935 1.661-1.772c.005-3.5 4.258-7.426 6.78-10.448 1.052-1.195 3.028-4.269 2.804-5.56-.077-.295-.088-.408-.088-.408 3.99-.802 4.943-4.061 5.029-6.943.186-1.926.441-3.676 1.084-5.259 18.05 1.458 29.68-11.935 30.176-12.404zm-31.454 2.011c2.047-.006 3.594 1.626 3.59 3.942-.017.968-.356 1.703-1.658 4.265-1.26 2.189-1.426 3.521-1.921 6.05l-1.282-1.162-2.334 2.12.033-3.089s.805-1.031 2.107-2.504c1.649-1.846 3.143-4.222 3.074-5.557-.044-1.336-1.443-2.423-2.875-1.55-1.244.876-1.818 2.462-2.55 7.2-.13.84-.251 1.829-.32 2.044-.183.584-1.982 2.298-1.982 2.298-.153 0-.863-3.478-.863-3.478l-1.818.302c2.106-2.304 3.74-5.083 4.802-7.992.976-1.796 2.218-2.87 3.998-2.889zm-39.547.738s-3.618 7.577-9.972 12.505l-.041-2.966c3.69-2.885 6.504-7.857 6.5-7.847zm87.098.193c-12.561 13.11-28.955 37.25-8.61 71.162l2.688-3.126c-16.384-30.67-4.772-46.568 6.012-62.52zm-67.924 1.081c3.678 2.635 7.518 5.252 12.481 6.915-.264.891-7.09 6.68-2.192 12.032.205.28-.316.962-1.113 1.928-2.34 3.223-4.675 5.518-6.63 9.145l-.08 6.816-1.956-1.74zm67.442.627.083 3.887c-18.664 22.863-16.563 43.449-6.012 62.41l-2.022 2.066c-17.291-29.998-6.503-52.612 7.95-68.363zm-46.045 2.3c-.824 2.19-4.424 5.943-4.424 5.943s.477-3.655.778-4.808c.229-.88.746-2.07 1.256-2.639 1.453-1.61 2.903.217 2.39 1.502zM58.235 79.95l.35 30.631-2.623-2.665-.387-23.423zm-3.543 5.995.522 20.798c-2.619-6.231-6.3-13.052-6.373-12.986 0 0 3.012-4.027 5.85-7.812m20.72 6.507s.4-.339 1.027-1.065c1.36-1.386 1.484-1.395 1.358.474-.048.719-.007 1.64-.007 1.64.796-.466 2.674-2.7 3.205-2.298.41.389.74 1.198.749 2.457-.047 2.462-1.429 4.723-3.62 5.46-6.047 1.888-10.103-5.142-5.904-9.6.418-.443 1.607-1.263 2.178-1.1.708 1.302.683 2.748 1.013 4.032zm60.004-2.21c.352.97.801 1.93 2.027 2.364-.188 29.782-.048 82.51-.048 82.51l5.943 5.62-.04 2.456-7.875-7.266s-.422-62.182-.007-85.683m5.9 1.38c.212 2.88-.271 5.915.219 8.874.484 2.047 1.218 3.891 1.278 5.905.055 1.841-.064 2.89-.845 5.46-.545 1.796-.6 2.081-.725 3.876-.294 2.498.507 4.762 1.122 6.753.817 2.64.59 5.83-.717 10.04-.47 1.516-.56 2.154-.492 3.527.18 2.882 1.203 5.623 1.722 8.452.281 1.621-.007 3.742-.997 7.34-.37 1.338-.757 3.67-.758 4.55 0 .946.3 2.726.59 3.495 1.374 3.64 1.442 4.292 1.513 6.48.01 1.642-.461 3.303-1.04 4.75-.962 2.31-.33 4.681 0 7.277l-2.368-2.04a8.9 8.9 0 0 1 .195-5.956c.921-2.595 1.152-2.836 1.14-4.328-.018-1.98-1.143-4.32-1.61-5.713-.827-2.471-.83-4.895-.008-7.508.404-1.284.987-3.8 1.118-4.823.252-1.965.061-3.515-.918-7.457-.477-1.923-.578-2.665-.612-4.58-.03-1.773.225-3.617.79-5.755.814-3.397.805-5.436-.254-8.587-.857-2.605-1.096-4.371-.878-6.445a10.2 10.2 0 0 1 1.002-3.457c1.014-2.554 1.17-4.997.415-7.435-1.299-4.99-1.278-7.526-1.149-12.031zm-6.656 1.633c-.206 20.41.003 43.777.003 43.777s-5.999 4.233-5.974 4.013c-7.73-12.846-10.676-31.771 2.826-48.84 0 0 2.173.934 3.145 1.05M43.425 98.12c10.94 20.588 12.363 41.387-5.725 62.725.583 1.886.487 3.644.197 5.365 3.526-2.767 31.806-31.236 7.99-70.877zm55.75-1.676 5.372.318.362 4.66-1.737 1.735s-.031-.963-.054-1.824c-.028-1.053-.176-1.973-.273-1.94-.09.03-.189 1.258-.266 2.597l-.08 2-.601.606c-.802.807-.963.743-.994-.393-.067-2.47-.062-2.639-.24-2.458-.101.101-.159.947-.183 2.223-.02 1.014-.09 1.986-.156 2.158-.136.354-1.158 1.274-1.416 1.274-.25 0-.236-.358-.237-1.893-.002-1.297-.135-2.009-.342-1.53-.049.112-.135 1.4-.153 2.447-.018 1.046-.086 2.003-.15 2.122-.223.42-1.278 1.319-1.463 1.247-.266-.103-.333-.872-.324-2.157.005-.63.102-1.162-.138-1.332-.24-.172-.284.557-.219 2.407l-.018 2.01-.674.742c-1.067 1.108-1.14 1.055-1.143-.859.047-1.514-.006-2.179-.302-2.058-.296.12-.178.852-.12 2.345.052 1.334.035 2.002-.055 2.173-.072.134-.418.528-.768.873s-.783.822-.834.822a687 687 0 0 1-.219-5.068l-5.604-.25s1.147-1.372 1.635-1.636c.253-.137.649-.153 2.054-.091.957.041 2.245-.04 2.36-.084.42-.163-.457-.309-1.693-.39-.826-.059-1.04-.037-1.956-.172l.816-.848.612-.613 1.787.059c1.082.036 1.886.03 2.01-.04 1.059-.21.067-.454-1.14-.456-1.176-.002-1.842-.004-1.842-.264 0-.265 1.318-1.47 1.693-1.549.194-.04 1.153-.08 2.13-.088 1.68-.013 2.29-.038 2.196-.319-.094-.28-1.207-.198-1.947-.23-2.057-.004-2.152-.082-.747-1.322l.681-.602 1.29.036c1.945.056 2.887-.023 2.887-.209 0-.167-1.267-.33-2.342-.33-.642 0-1.165.011-1.165.011.48-.63.995-1.141 1.558-1.703l1.737-.033c1.268.019 2.047.068 2.068-.165.02-.234-.454-.231-1.037-.235-.79-.006-1.726-.074-1.85-.199-.134-.134.115-.508.666-1.005l.568-.518zm-53.198.06c15.03 24.748 9.605 51.49-7.155 68.135l-.491-3.248C54.153 142 56.915 121.975 44.116 98.416zm27.954 3.324c-2.699 4.09-6.825 8.124-8.382 11.463-.319.376-.422 1.223-.918 1.392-.246 0-.328-.472-.266-1.563.047-.822.123-1.099.517-1.9 2.13-3.92 4.598-6.735 7.323-10.457zm.632.396 2.494.16c-.554 1.778-1.302 3.047-2.185 4.202-1.132 1.48-2.494 2.972-4.08 4.792-2.297 2.637-3.448 5.322-3.341 6.503-.575.61-.974 1.03-1.704 1.657l-1.454-1.35c1.079-5.576 6.302-10.7 10.27-15.964m30.517 2.265.808.047c2.767.164 4.492.335 4.592.456.062.075.143.503.182.95.06.681.002 1.133-.353 2.753-.234 1.066-.497 2.011-.583 2.1-.319.326-.445.001-.594-1.512-.09-.913-.125-1.58-.244-1.505-.057.035-.181 1.016-.146 1.747.093 1.903.08 2.37-.506 2.944-1.028 1.005-1.084.903-1.161-.882-.033-.74-.207-1.82-.259-1.871-.222-.224-.297.802-.298 2.536v1.85l-.488.535c-.636.696-.844.802-1.078.565-.145-.146-.091-.463-.091-1.519 0-1.239-.215-1.952-.448-1.714-.044.045-.055 1.243-.058 2.287s-.017 1.967-.03 2.052c-.037.25-1.203 1.43-1.412 1.43-.245 0-.44-1.362-.44-2.477 0-.744-.157-.875-.314-.466-.039.103-.069 1.147-.069 2.085v1.703l-.685.712c-.915.955-1.064.899-1.066-.408-.002-1.125-.077-1.72-.303-1.72-.129 0-.16.532-.16 1.797 0 .868-.056 1.727-.124 1.909-.067.181-.368.58-.666.888-.298.306-.604.557-.68.557-.127 0-.308-1.067-.26-1.526.01-.097.01-.769 0-1.494-.024-1.73.093-1.656-2.646-1.743-3.215-.102-3.262-.121-2.295-1.065.92-.895.79-.862 2.92-.719 1.712.115 1.919.108 2.09-.066.106-.106.165-.22.131-.253-.032-.032-.684-.093-1.449-.135-2.117-.119-2.3-.272-1.406-1.175l.506-.513h2.167c1.462 0 2.456-.065 2.51-.154.141-.228-.438-.286-1.83-.368-.746-.044-1.45-.106-1.561-.14-.354-.104-.222-.464.375-1.027l.575-.543h1.912c1.774 0 2.643-.117 2.643-.352 0-.167-.352-.234-1.263-.246-1.29-.017-2.149-.143-2.207-.32.315-.612.75-.956 1.257-1.468l1.944.07c1.957.07 2.571-.002 2.571-.345 0-.18-.837-.308-1.923-.242-.698.042-1.544-.126-1.544-.374 0-.107.28-.479.626-.823l.63-.623 1.904.077c1.063.043 2.195.033 2.28-.026.316-.218-.417-.388-1.614-.458-1.844-.108-1.965-.252-.99-1.182zm-66.4 1.027c9.866 17.807 8.388 34.582-2.119 48.858-1.206-.707-2.492-1.094-3.867-1.24l-.266-42.994Zm70.562 6.959c.198-.031.194.297.138.987-.044.555-.127 1.136-.186 1.292-.113.3-.202.314-1.16.175-1.092-.156-1.076-.355.123-1.544.58-.576.911-.883 1.085-.91m-52.968.8s1.3-.009 1.95.015c0 0 .1 3.331.366 5.254l4.229.204-1.642 1.72-3.207-.102s-.975-4.73-1.696-7.092zm50.39 2.014c.596-.01 2.16.26 2.342.444.143.144.147.5.022 2.65a94 94 0 0 0-.103 3.7c-.018 2.28-.018 2.29-.28 2.326-.345.05-.384-.072-.477-1.574-.053-.846-.169-1.586-.266-1.618-.113-.038-.103.707-.103 2.25v1.992c-.336.282-.648.654-1.034.851-.237 0-.364-.374-.48-1.416-.117-1.035-.23-1.765-.368-1.535-.032.054-.019 1.181.047 2.107l.12 1.684-.742.752c-.762.775-.858.837-.98.639-.283-.768.118-4.282-.568-4.727-.11-.058-1.021-.083-2.08-.129-1.784-.076-2.798-.106-3.047-.323-.15-.132.693-1.117 1.126-1.314.312-.141.665-.15 2.137-.051 1.704.115 2.564.102 2.338-.117-.059-.057-.926-.186-1.606-.254-1.37-.137-1.853-.275-1.853-.531.319-.57.71-.907 1.18-1.395l.663.07c.364.037 1.226.129 1.915.209s2.08.092 1.518.043c.182-.183-.528-.372-1.514-.495-1.86-.232-2.028-.444-1.093-1.373l.575-.569c.977.075 1.963.1 2.931.25.71.112 1.093.072 1.093-.17 0-.169-.354-.163-1.21-.334-.31-.062-1.91-.038-1.936-.513.377-.528 1.054-1.488 1.733-1.531zm-43.33 4.041c.285-.016.298.681.328 2.521.032 2.016.065 2.364.237 2.536.164.166.574.222 2.33.313 2.69.137 2.758.177 1.81 1.097-.66.64-.688.559-1.23.495-1.422-.167-3.499-.129-3.58.004-.14.229.012.274 1.311.374 1.581.121 2.014.178 2.014.448 0 .119-.27.469-.597.778l-.597.562-1.664-.066c-1.75-.072-2.65-.097-2.65.143 0 .145 1 .305 2.585.462.41.041.832.048.855.117.056.174-.744 1.174-1.238 1.545-.402.303-.538.134-2.294.096-1.793-.04-1.948.03-1.613.364.08.08.375.088 1.044.135 1.098.077 1.624.243 1.624.518 0 .262-.99 1.294-1.453 1.515-.409.195-.584.205-1.49.077-.712-.1-.848-.25-.829-.925l.117-4.378c.106-4.065.14-4.272.673-4.195.228.033.281.31.342 1.688.065 1.467.126 1.758.368 1.758.09 0 .104-.582.047-1.996-.089-2.195-.092-2.521.571-3.157.296-.283.531-.51.67-.304.281.866.2 1.81.284 2.679-.008.874.33 1.057.408.223-.04-1.32-.05-2.505-.058-3.915l.808-.808c.427-.427.696-.695.867-.705zm-5.24 1.644c.322-.053 2.122-.023 2.382.036-.452.722-1.417 1.66-2.075 2.074-.166.01-.338-1.75-.306-2.11m50.966 3.99.383 2.712-2.939-.202zm-39.594.44.051.007c.212.082.272.605.357 3.123.04 1.186.12 2.114.194 2.202.084.103.45.154 1.132.154.553 0 1.595.035 2.316.077 1.572.09 1.614.158.677 1.09l-.634.631-1.97-.08c-2.02-.083-2.355-.05-2.355.23 0 .19.345.282.99.265a16 16 0 0 1 1.427.077c1.18.11 1.204.2.324 1.156l-.633.687-.616-.084c-.99-.137-3.59-.104-3.74.047-.242.244.073.35 1.256.422 1.836.113 2.156.168 2.156.379 0 .102-.26.449-.575.766l-.571.576-2.33-.121c-1.634-.028-2.192 0-2.228.106-.064.185.204.242 1.89.418 1.617.17 1.852.337 1.237 1.109-.675.847-.929.942-2.202.818-1.401-.136-2.833-.14-3.04-.008-.323.206.008.344 1.004.419 1.509.112 2.388.276 2.388.499 0 .251-.499.898-.983 1.27l-.397.304-1.722-.183c-1.715-.184-2.593-.092-2.348.154.071.072.71.173 1.416.223 1.294.094 1.937.263 1.937.532 0 .08-.33.475-.732.878a5 5 0 0 1-.866.678l-5.301-.48s-.27-.953.261-3.545c.48-2.336.677-2.86.907-2.426.064.12.123.688.168 1.075.106.937.336 1.527.473 1.527.154 0 .154-.557-.047-1.868-.28-1.827-.311-1.9.379-2.635.591-.63.926-.779 1.11-.492.052.08.123.909.193 1.604.124 1.222.196 1.503.354 1.344.101-.103.177-.453.065-2.265l-.142-1.762.776-.796c.709-.728.79-.778.932-.591.098.129.207.886.258 1.787.077 1.334.183 1.772.375 1.579.091-.092.047-3.12-.05-3.82-.065-.458-.032-.526.542-1.175.684-.774 1.043-1.093 1.23-1.097.247-.005.381.755.383 1.765.002 1.078.086 1.505.186 1.64.257.348.286-.87.225-2.073l-.069-2.195.707-.712c.668-.674.722-.703.91-.514.156.157.145.529.208 1.637.094 1.53.391 2.278.477 1.214.045-.24.038-.71-.014-1.042-.053-.334-.096-1.09-.095-1.678.002-.896.045-1.136.262-1.49.315-.512 1.239-1.31 1.53-1.34zm30.626 1.67s1.183 1.018 1.183 1.31c0 .129-.468.689-1.103 1.317-1.17 1.157-1.28 1.356-1.417 2.598-.05.464-.282 1.077-.823 2.173-.414.84-1.012 1.82-1.012 1.82-1.868 2.25-3.63 4.31-6.905 9.059-.187.436-.197.873-.388 1.235-.147.269-.478.489-.623.55-.216.091-.648.361-.961.602q-1.834 1.41-2.367 3.722c-.192.833-.306 1.582-.641 4.15-.138 1.056-.597 2.896-.597 2.896-7.036-.1-13.622 1.127-19.493 4.468zm9.402 1.09 1.566 7.167-1.614-.033-.16-5.204-5.032-.484 1.8-1.754zm-7.636.657c.432.442.969.928 1.359 1.409-1.346 4.533-5.606 10.415-9.839 16.25l-3.102-.34c-.055-.129 4.297-6.245 6.38-8.562.793-.968 1.332-1.887 2.04-3.313.255-.516.703-1.852 1.046-3.246.732-.888 2.12-2.185 2.116-2.198m1.672 1.588 2.344 2.397.573 33.934c-3.617-2.86-7.879-4.98-12.424-6.593l.793-1.824.874-.947c3.09-3.371 2.402-7.001.051-9.568 2.865-4.21 5.46-7.347 7.643-11.457l-.03-2.819c-.025-2.598.175-3.123.175-3.123zm-28.055 1.417c.245-.025.276.603.338 2.382.058 1.663.127 2.451.237 2.624.146.232.288.252 2.235.312 2.056.063 2.483.123 2.483.345 0 .063-.264.383-.586.708l-.586.591-1.832-.03c-.975.032-2.128.013-2.159.041-.161.152.448.358 1.34.36.556.001 1.439.1 1.54.14.347.133.184.479-.571 1.21l-.754.734-1.664-.033c-.914-.017-2.026.01-2.17.058-.506.17-.255.308.582.32 1.4.019 2.366.136 2.407.355.02.107-.239.498-.583.87l-.622.671-2.447-.103c-2.313.018-2.626.191-.695.386.737.074 1.9.258 1.94.264.042.007.108.094.147.195.08.214-.85 1.272-1.347 1.53-.256.134-.434.142-.878.04-.52-.118-2.762-.097-3.004.049-.203.122.237.262.86.275.936.019 2.053.292 2.053.517 0 .185-.474.777-.98 1.222-.233.206-.788.022-2.337.074-1.06.035-1.766.135-1.766.205 0 .065.526.274 1.201.323.67.048 1.588.209 1.65.271.157.16-1.034 1.577-1.034 1.577l-5.087-.072-.47-5.432.433-.503c.974-1.134 1.186-.97 1.38 1.064.143 1.49.249 1.945.463 1.729.078-.08.047-.93-.033-2.18a97 97 0 0 1-.12-2.084c0-.284 1.156-1.509 1.383-1.465.223.043.347.55.467 1.941.098 1.143.15 1.455.375 1.23.104-.105.118-.704.014-2.15l-.138-1.89.491-.588c.986-1.179 1.18-1.047 1.3.866.081 1.291.204 1.97.44 1.97.08 0 .082-.964.034-2.422l-.073-2.187.615-.631c.34-.346.685-.627.765-.627.24 0 .376.549.527 1.845.17 1.453.226 1.703.364 1.563.06-.059.047-.938-.033-2.07l-.171-2.165.75-.767c.414-.42.828-.748.92-.73.226.044.373.698.39 1.626.017.865.163 1.61.354 1.801.094.096.122-.437.098-1.982-.037-2.377-.097-2.559.965-3.674.284-.297.469-.489.597-.503zm27.467.972.023 3.318c-1.32 2.846-4.37 7.018-7.46 11.495l-1.614-.881c3.868-5.11 7.1-9.872 9.05-13.932zm-44.158 1.043.244.007c.834.05.857.34.08 1.072-.325.307-.695.55-.837.55-.24 0-.252-.036-.178-.668.09-.777.184-.957.691-.961m50.396 2.393 2.28 2.26.57 24.303-2.399 3.943zm2.855 3.203c2.055 4.873 4.19 9.444 6.554 13.149l-6.094 8.671zm-20.5 7.575c2.802-.04 5.382 2.196 5.706 4.467.612 2.607-.72 5.416-2.907 6.28-.762.274-1.209.293-1.209.293-.265-1.573-.151-3.087-.505-4.684 0 0-1.311 1.744-2.05 2.354-.382.212-.553.27-.504-.235.026-.883.092-2.842.092-2.842l-3.237 3.376s-.263-.367-.575-1.208c-1.016-2.743.304-5.609 2.388-6.925a5.15 5.15 0 0 1 2.8-.877zm43.068-.205.061 2.97c-5.08 3.97-12.327 12.335-18.536 23.238l-2.735 1.163c4.212-10.148 13.107-20.482 21.21-27.371m.055 3.906.054 4.428c-4.483 4.344-8.378 8.83-11.767 14.607-1.979.958-5.645 2.778-5.645 2.778-.459-.112 9.986-16.501 17.358-21.812zm-45.219 3.792c.205-.003.194.397.13.974-.145 1.307-.297 1.782-.772 2.419-1.641 1.954-4.25 4.61-4.605 7.082-.18 1.32.843 2.557 1.847 2.43 3.121-.393 3.457-5.983 3.72-8.741.11-.684.16-1.257.273-1.472.658-.847 1.366-1.67 2.253-2.34l.382 4.274 1.758-.592c-4.959 6.793-3.533 7.219-6.15 10.002-2.43 2.585-7.146-.36-5.94-4.292 1.05-2.645 2.672-5.3 3.11-8.133.12-.842.19-1.426.19-1.426l1.127 2.37c.573-.57 2.247-2.455 2.678-2.555zm45.404 1.466-.011 3.05c-2.312 2.625-4.308 4.64-6.67 8.267l-3.752 1.725c2.45-4.703 6.468-9.103 10.433-13.042M89 156.662s.249 1.424-.3 4.01c-.26 1.226-1.431 4.806-3.282 3.963-1.572-1.4.343-3.994 1.308-5.221.746-.881 1.556-1.833 2.273-2.751zm-4.939.366-1.023 2.206c-9.193.034-18.121 3.347-26.067 10.114l-2.01-.665c8.419-8.025 18.855-11.927 29.1-11.656Zm9.663 1.696c10.36 3.496 15.144 8.598 19.062 13.948l-1.638.847c-4.106-5.356-9.174-10.258-18.61-13.092Zm-11.87 3.3-.44 1.89c-5.802.175-11.924 2.25-17.882 6.419l-2.148-.345c5.996-4.742 12.844-7.45 20.47-7.964m26.515 12.767-1.84.875c-5.49-7.18-10.455-9.224-16.096-11.052l.608-1.593c7.58 2.028 13.142 5.906 17.328 11.77m-76.563-8.466.16 19.16-1.324-.267-.189-18.529zm-3.065 1.04c-2.524 9.53-.567 11.997.345 17.558l-2.09-.337c-2.034-5.633-2.243-10.76-.527-16.742Zm63.498 1.462c.158.152-.128.62-.517.852-.377.224-.293.19-.896-.03-.587-.213-1.333-.771-1.333-.983.427.008 2.37-.014 2.745.161zm1.78.136c.347.042 1.346.023 1.409.338.023.188-.37.493-1.171 1.045-1.22.84-1.634 1.005-1.992.606-.34-.378-.24-.769.331-1.3.556-.516.878-.692 1.424-.69zm-41.614.209c.698 0 1.948.87 2.702 1.879.764 1.205 1.643 2.443 2.352 3.663 1.613 2.771 2.858 5.584 3.9 8.463 2.73 6.845 4.332 13.483 5.662 20.078-.025.555-.503.545-.896.414-.204-.066-.407-.203-.448-.308-.565-1.615-.76-3.267-1.19-4.889-1.078-4.055-1.464-6.378-3.54-12.096-1.077-2.967-2.637-7.098-4.34-10.272-1.092-2.035-2.355-3.916-3.995-5.578-.434-.435-.972-.832-.972-.918 0-.28.272-.436.765-.436m44.273.22c.647.16 2.21.345 1.617.866-2.196.851-2.907 1.773-4.07 2.713-.177 0-.871-.867-.871-1.08.944-1.169 2.134-1.668 3.324-2.499m-41.097.008c.918-.033 1.815 1.162 2.239 1.915 2.823 4.187 5.24 10.158 7.228 16.008 2.14 6.298 3.498 12.354 4.09 16.65-.051.134-.317.184-.62.181-.578-.004-.66-.14-.808-.602-1.472-7.108-3.448-14.445-5.84-20.673-1.285-3.32-2.743-6.652-4.792-9.997-1.397-2.065-2.191-3.149-2.13-3.31.042-.11.273-.165.542-.165zm-6.31.125c1.238-.004 3.287 1.477 4.678 3.38 2.95 4.075 4.639 8.837 6.39 13.458 2.012 5.293 3.463 11.178 4.33 15.81.147.664.389.955-.233 1.163-.941-.271-.92-.244-1.187-1.398-.367-1.24-.479-2.493-.827-3.754-1.988-7.212-4.216-15.217-7.916-21.73-4.444-7.17-5.737-5.176-6.452-6.441.055-.286.55-.486 1.217-.488m10.694 1.75c3.82 6.698 5.503 10.81 6.664 14.856 1.761 6.13 3.845 11.027 4.762 18.185 0 0-1.004.019-1.406-.147-.166-.167-.343-.882-.448-1.469-.917-5.054-2.41-11.035-3.998-15.748-1.71-5.245-3.745-10.234-6.754-15.054-.788-1.298-.938-1.81-.455-1.831.862.059 1.242.727 1.635 1.207zm39.79-.716c.177.002.248-.024.571.088.506.176.667.286.695.488.042.294-.271.39-1.248.62-.769.182-2.267.988-3.31 1.861-.483.406-.9.84-1.016.84-.24 0-.812-.634-.812-.899.799-1.229 3.339-2.916 5.12-2.998m-52.626.165c3.233.1 5.763 3.884 7.09 6.438.516.998 1.187 2.085 1.692 3.226 2.625 5.913 4.851 13.33 5.939 18.067.523 2.28 1.128 3.951.914 4.397-.266.17-.829.04-1.088-.18-.167-.14-.256-.663-.55-1.614-.754-2.442-2.002-9.42-5.257-16.754-.073-.164-1.648-4.804-4.37-9.204-1.108-1.792-2.9-2.917-4.533-3.285-.822-.134-1.067-.037-1.016-.484.033-.285.121-.362.561-.503q.294-.094.619-.103zm20.209 15.124c-.222 0-.417-.425-.565-1.123-.073-.343-.171-.587.466-.99 4.011-4.3.562-10.612-4.479-11.161-.467-.072-1.07-.074-1.245-.14-.256-.145-.725-1.06-.93-1.427 6.968-1.702 14.36 8.35 6.753 14.841m34.703-14.045c.415.106 1.318.95 1.205 1.135-.135.22-.916.228-2.042.43-2.396.427-3.423 2-4.537 3.17-.247.076-.467-.097-.687-.477-.164-.28-.295-.617-.295-.749 1.245-1.827 4.58-3.675 6.357-3.509zm-56.55.54c2.037 0 4.072.995 5.218 2.617 4.18 6.307 8.878 20.326 9.998 27.242-.113.222-.41.246-.99.077-.323-.095-.284-.199-.487-.84-1.314-5.038-2.753-9.93-4.446-14.416-.873-2.312-1.899-4.571-2.866-6.602-.612-1.284-1.841-3.57-2.308-4.268-1.1-2.082-3.321-2.692-4.722-2.02-1.448.79-1.631 2.677-.528 3.514.915.644 2.36.538 2.89-.46.181-.353.124-.791.007-.903-.113-.107-.318-.076-.36.04.074 1.226-1.477 1.305-2.154.822-1.082-.815-.361-3.394 2.586-2.356 1.137.602 1.519 1.743.98 2.954-.552 1.239-1.407 1.803-2.728 1.795-1.602-.029-3.42-1.162-3.434-3.2.005-1.522.704-2.786 2.014-3.633.486-.314.675-.364 1.33-.364zm17.248.947c4.943.229 7.213 6.092 4.614 9.63-.663.845-1.083.692-1.366-.4-.139-.449-.293-.515.106-.862 2.314-2.236.413-6.582-3.401-6.757 0 0-.712-1.044-.783-1.6.255-.093.598-.011.83-.011m41.214.404c.375.092 1.169.86 1.169 1.13 0 .32-.156.258-1.034.106-2.079-.375-4.161.838-5.9 3.483-.843 1.588-.947 1.438-1.39.07-.228-.702-.231-.687.652-1.982 1.65-2.133 4.085-3.107 6.503-2.807m1.933 2.69c1.74 1.591.928 5.099-1.423 5.461-2.072.241-3.913-2.016-2.607-3.553.848-.928 1.91-1.022 2.563-.224.675.824.39 1.947-.571 2.063-.112.04-.204.128-.204.195 0 .205.853.149 1.143-.088.585-.65.595-1.644.073-2.353-.462-.628-1.448-1.127-2.239-.804-1.394.503-2.814 2.408-3.626 4.808-.229.675-.363 1.308-.459 1.457-.198.305-.184.297-.367.18-.161-.104-.459-1.573-.459-2.133 0-.424.364-1.548.845-2.51 1.51-2.828 4.904-4.724 7.333-2.5zm-42.38-.713c2.024.123 3.626 3.012 2.745 5.024-.272.37-.664.622-.847.389-.065-.084-.377-1.028-.808-2.03-.43-1-.828-1.98-.95-2.224-.322-.694-.554-1.166-.14-1.159m-13.751 1.677c2.305 4.116 4.234 8.836 5.833 13.443 1.247 3.59 2.267 7.112 2.854 10.225.056.314.134.479-.003.617-.227.228-1.328-.34-1.328-.34-1.928-6.695-3.485-13.409-8.076-21.937 0 0-.199-.337-.252-.559-.062-.534.092-1.209.416-1.587.13-.14.305-.15.555.139zm-25.87 7.774c10.902.74 19.337 5.37 23.842 17.601-1.6-.91-9.72-7.189-23.719-8.021l-.022-1.696c10.035-.083 19.824 5.182 19.62 5.105-3.733-7.758-13.114-10.9-19.75-11.106Zm75.644 2.473c-.688 1.085-.657 1.04-.987 1.978.038.304.093 2.2.138 3.306.058 1.41.098 2.025.208 2.158.187.228.567.263.732.059.066-.082.178-.385.255-.676.9-3.426 1.324-4.71 1.686-5.133.24-.31.32-.282 1.307-.17 2.223.2 2.978-2.47 1.526-3.545-1.943-1.09-4.005.738-4.864 2.023zm2.346.728c-1.588 1.317-1.635 3.214-2.117 4.96-.258 1.175-.622 1.794-.768.022-.27-2.458.07-4.294 1.128-5.738.654-1.062 1.73-1.777 2.695-1.845 2.08-.147 2.293 1.514 1.715 2.406-.42.648-1.585.93-2.653.195m-75.107.79c.784 0 1.42.642 1.42 1.432s-.636 1.431-1.42 1.431-1.42-.64-1.42-1.431c0-.79.636-1.431 1.42-1.431m4.526.98c.7 0 1.27.57 1.27 1.278 0 .706-.57 1.28-1.27 1.28s-1.267-.574-1.267-1.28.566-1.278 1.267-1.278m4.126 1.402c.57 0 1.03.467 1.03 1.043s-.46 1.042-1.03 1.042-1.035-.467-1.035-1.042.463-1.043 1.035-1.043m2.927 1.868c.44 0 .797.363.797.807a.8.8 0 1 1-1.599 0c0-.444.36-.807.802-.807m-10.257 2.568c-.304 1.552-.067 3.148.287 4.247.809 2.37.441 6.61.441 6.61l-2.366 2.389c.169-2.226.432-4.563.31-6.433-.085-1.24-.642-2.4-.786-3.645-.134-1.152.068-3.459.068-3.459zm3.835.715.083 10.115-8.102 7.913-.011-2.088 6.908-6.904-.146-9.373zm19.978 23.067-.532.874h9.14l.193-.874zm11.83 0-.216.874h4.231l.141-.874zm6.932 0-.134.874h15.708l-.233-.874zm18.359 0 .251.874h4.183l-.346-.874zm6.995 0 .306.874h7.19l-.596-.874z"/></svg>