<svg xmlns="http://www.w3.org/2000/svg" xml:space="preserve" width="222.783" height="323.556" viewBox="0 0 167.087 242.667"><path d="M166.837 235.548c0 3.777-3.087 6.869-6.871 6.869H7.11c-3.775 0-6.861-3.092-6.861-6.87V7.12C.25 3.343 3.336.25 7.11.25h152.856c3.784 0 6.87 3.093 6.87 6.87z" style="fill:#fff"/><text xml:space="preserve" x=".566" y="27.601" style="font-size:30.33362198px;font-style:normal;font-weight:400;line-height:125%;letter-spacing:0;word-spacing:0;fill:#df0000;fill-opacity:1;stroke:none;font-family:Bitstream Vera Sans"><tspan x=".566" y="27.601" style="font-style:normal;font-variant:normal;font-weight:400;font-stretch:normal;fill:#df0000;fill-opacity:1;font-family:Arial;-inkscape-font-specification:Arial">K</tspan></text><path d="M3.243-4.725C1.126-7.59 0-10.5 0-10.5s-1.126 2.91-3.243 5.775C-5.361-1.862-8 0-8 0s2.639 1.861 4.757 4.726C-1.126 7.59 0 10.5 0 10.5s1.126-2.91 3.243-5.774C5.361 1.861 8 0 8 0S5.361-1.862 3.243-4.725" style="fill:#df0000" transform="translate(11.157 40.197)scale(1.12825)"/><text xml:space="preserve" x="-166.353" y="-215.104" style="font-size:30.33362198px;font-style:normal;font-weight:400;line-height:125%;letter-spacing:0;word-spacing:0;fill:#df0000;fill-opacity:1;stroke:none;font-family:Bitstream Vera Sans" transform="scale(-1)"><tspan x="-166.353" y="-215.104" style="font-style:normal;font-variant:normal;font-weight:400;font-stretch:normal;fill:#df0000;fill-opacity:1;font-family:Arial;-inkscape-font-specification:Arial">K</tspan></text><path d="M3.243-4.725C1.126-7.59 0-10.5 0-10.5s-1.126 2.91-3.243 5.775C-5.361-1.862-8 0-8 0s2.639 1.861 4.757 4.726C-1.126 7.59 0 10.5 0 10.5s1.126-2.91 3.243-5.774C5.361 1.861 8 0 8 0S5.361-1.862 3.243-4.725" style="fill:#df0000" transform="translate(155.762 202.508)scale(-1.12825)"/><path d="M29.779 25.096c.085 78.891.924 175.843.982 261.766l163.23-.038-1.088-261.348zm48.25 1.675c28.162.764 56.498-.062 84.868.159 0 0-10.308 17.954-13.432 23.605-.684 1.243-.754 2.122-.385 2.637.57.797.523 2.146-.115 2.926-.274.334-.398.551-.419.751s.158.418.303.78c.504 1.721-.798 2.913-2.161 3.465-.914.371-2.949.615-4.452.544-9.415-.447-27.879-8.403-35.487-9.023-5.279-1.474-12.101-.959-17.724-.64-1.062.064-.876-2.411-.876-2.411-.886-8.174-6.675-15.29-10.121-22.792Zm86.399.746 26.613.029.12 4.298-11.199 11.478c-1.054 1.073-1.887 1.964-1.887 1.964l-.067 10.357c-7.634-4.102-9.155-9.003-10.549-14.394-12.761 9.414-13.358 30.016.573 40.622.114-4.607 3.625-13.66 9.846-14.332l.087 35.887-7.652-7.474-16.637.217c2.742-4.45 2.805-7.985 1.03-12.156-2.991-6.815-7.606-22.373-7.252-22.32 0 0 .133-.335.51-.419 1.379-.307 2.256-1.639 1.862-3.239-.075-.515-.072-.394.279-1.064 1.354-2.31-.26-4.817-.26-4.817zm-88.266.217 9.986 18.052s-.13.828-.077 1.314c.078.699.312 1.321.712 1.973.265.431.46 1.02.52 1.564.099.896.099.897 1.41 2.079.275.248.328.401.226.659-.434 1.097-.18 3.339.679 6.016 1.084 3.381 1.364 3.337-.654 7.859-.421.945-.93 2.205-1.477 3.364-2.492 5.118-2.877 6.507 1.4 9.235 1.204.768 1.557 1.434 1.256 2.965-.237 1.204-.285 1.973.294 2.652.375.44.715.512.621.852-.064.231-.344 1.232-.25 2.074.252 2.268-2.369 5.61-4.76 6.781-.478.339-.615-.075-.885-.549-2.477-4.338-8.643-2.58-9.052 2.594-.108 1.368-.066 1.961-.419 2.252-.12.099-.481.303-.481.303s-9.227 6.001-15.097 9.086c-.383.201-.726.533-.996.587-.312.063-.543.006-.736-.188-2.166-4.12-.965-8.987-.78-10.713-.047-.611-.569-.722-1.357-.732-1.334-.016-3.255 1.338-3.672 2.599-.355 1.072-.583 1.766-.905 1.761-.324-.005-.481-.437-1.285-1.983-1.672-3.216-1.93-3.623-3.494-5.491-1.247-1.49-2.31-1.687-3.532-.578-.85.772-.822.101-1.545-.289-1.248-.85-3.125-.089-3.171 1.107-.039 1.003-.047 1.758-1.064 1.824-1.132.074-1.623 1.535-1.304 3.619.168 1.097.201 1.273-.135 1.675-1.094 1.311-1.237 2.217-.635 4.047 1.716 5.218 4.203 8.73 6.54 13.475 0 0-5.937 3.369-9.461 5.327l-.091-97.083Zm115.38 5.159.14 84.334-12.743-12.527s-.248-16.161-.236-22.768.108-13.214.082-14.442c-.027-1.229.066-6.457.106-11.824.084-11.245-.945-9.855 1.145-12.012zm-24.905 10.111.703 2.036c-5.34 3.061-11.874 20.111.12 32.629l-.241 2.579c-12.571-11.403-10.245-27.756-.582-37.244m.914 2.406c1.833 3.783 3.918 7.132 6.762 9.182-1.531 3.655-2.19 7.686.404 13.124-1.819.998-4.347 3.648-6.964 9.076-9.465-9.561-7.358-23.423-.202-31.382m-70.412 7.147c5.249.009 10.724.865 15.742 2.377 3.165 16.001 8.724 26.758 8.701 33.023 0 0-.438-.074-1.372-.746-2.286-1.651-5.289-.73-6.896 1.372-1.524 1.992.011 4.762-.77 5.924-1.478 2.166-5.282 6.172-5.919 6.04-.463-.096-.389-.299 1.242-2.801 1.698-2.606 3-4.967 2.44-5.544-.238-.245-.364.273-1.631 2.474-2.975 5.166-5.591 8.361-6.627 7.945-.485-.194-.234-.622 1.968-3.532 2.488-3.286 3.178-5.342 2.931-6.251-.19-.699-.575.431-1.607 2.45-1.1 2.137-3.089 4.518-4.697 6.805-.51.828-1.164 1.307-2.002 1.684-.621.269-1.611.709-2.185.635-.295-.038-.092-.211.313-.606 3.173-3.268 5.901-6.912 7.45-10.409.239-.459-.104-1.112-.496-.63-2.374 4.178-5.68 9.39-9.269 11.69-.77.493-1.929.911-2.974.823-1.767-.051-1.142-.444.467-1.477 3.444-2.212 8.277-8.573 9.057-10.823.184-.532-.021-.836-.361-.799-2.834 4.533-6.577 9.521-10.929 11.608-2.345 1.125-5.302 1.346-6.757.635-1.066-.521-.798-.701 1.092-.823 4.55-.449 9.882-4.72 12.522-9.24 1.546-2.502.461-1.928-1.304.486-3.013 4.12-8.996 8.07-12.705 7.758-3.752-.222-5.911-3.129-5.428-5.621.292-1.508 1.362-3.044 3.46-3.484 3.593-.754 5.945 4.937 2.656 6.011-1.12.366-1.546.088-1.141-.361 2.439-1.067 1.355-3.998-.703-4.298-1.295-.188-2.795.683-2.859 2.69.038 1.496 1.269 2.958 3.739 2.993 2.929.041 7.423-2.067 10.15-5.948 1.935-2.966.153-1.965-1.29.014-1.273 1.747-5.385 4.19-5.698 4.1l.14-2.012c.063.348 6.33-3.943 5.963-7.137-.235-2.318.104-3.027 2.517-2.998 1.804.022 4.098.654 4.764 1.482.687.819 1.457 1.077 1.117-.303-.553-2.241.109-2.61-1.189-2.185-.896.293-1.691-.426-2.589-1.064-.988-.702-2.238-1.002-3.73-.948-1.114.04-1.617-.027-1.439-1.078.125-.741.268-1.415.053-1.901-.349-.79-1.744-1.606-3.321-2.767-1.861-1.371-1.517-1.452 2.45-10.592 1.665-3.838 1.672-4.626.674-7.459-1.578-4.478-1.826-6.271 1.131-6.896 1.674-.192 3.4-.287 5.149-.284zm16.791 2.594 1.535.438c.012.001 4.793 16.366 7.532 24.356.835 2.438 1.472 5.732 1.631 8.826-.075 4.26-2.474 7.317-5.4 7.652-2.071.237-4.318-.838-5.347-3.143-.868-2.192-.214-4.777 2.286-5.669 4.327-1.544 7.496 3.979 3.253 5.679-2.195.879-4.281-.706-3.292-2.551.693-1.293 2.643-1.153 3.104.183.376 1.422.998.751.732-.212-.805-3.068-4.746-2.345-5.063.481 0 3.502 3.834 4.325 6.122 2.358 1.772-1.572 1.958-4.412 1.516-6.877-.608-5.119-3.506-11.759-5.563-19.337-1.027-3.784-2.515-8.295-3.046-12.185zm61.085.183 2.883 1.141-.067 9.5-2.445.842c-3.199-4.888-.539-11.478-.371-11.483m-58.429.616 2.113.813c1.157 6.706 6.612 19.525 8.537 29.092.536 5.75.622 7.437-3.272 10.501v-.043h-2.108s-.008-.129.914-.818c5.101-3.815 2.056-12.221.13-18.682-3.356-10.319-6.355-20.875-6.314-20.862zm-19.746.669a19 19 0 0 0-.813.029c-3.187.171-3.71.375-3.72 1.068-.019 1.305.516 1.884 3.479 1.564 2.565-.277 6.281.121 8.841 1.222 2.92 1.257 3.614 1.553 4.663 2.093 2.635 1.356 2.175.007-.207-1.559-4.865-3.2-8.228-4.466-12.243-4.418zm22.989.462 1.983.756s.524 1.546.712 2.43c1.929 8.56 7.177 18.188 7.791 28.201.139 3.282-.424 6.341-2.83 7.82h-1.814c1.94-1.929 3.232-2.486 2.69-9.192-.858-8.612-6.539-19.372-8.533-30.016zm3.518 1.391 1.829.674c2.106 11.56 12.546 28.833 5.9 37.167h-1.66c1.483-2.313 2.094-4.344 1.872-7.464-.646-10.504-6.005-20.699-7.941-30.377m3.066 1.064 1.968.602c2.672 11.712 12.941 30.906 5.621 36.214l-1.444-.038c5.516-10.31-2.846-20.979-6.146-36.777zm3.431 1.092c.605.336 1.468.497 2.127.688 2.071 8.856 5.857 17.566 7.58 25.814.58 4.516-.411 7.897-3.248 9.182h-.606c2.546-3.844 2.066-8.693.707-13.932-1.827-7.046-5.376-14.799-6.559-21.753zm-31.012.154a9.2 9.2 0 0 0-2.883.452c-1.036.392-.909 1.208.053 1.04l1.285-.226c2.361-.412 5.271.439 8.797 2.575.852.516 1.777 1.013 2.007 1.184.648.483 1.339.481 1.102-.135-.095-.247-1.454-1.3-2.656-1.973-2.571-1.554-4.962-2.89-7.705-2.916zm34.356.77 1.983.303c3.73 17.14 11.916 27.79 4.914 34.149h-1.752c1.916-1.957 2.782-5.021 2.146-8.643-.648-3.697-2.559-9.566-4.144-14.726-1.837-5.982-3.316-11.041-3.147-11.083m2.844.481 1.68.313c1.968 6.967 5.309 15.603 7.32 22.797 1.237 4.424.74 9.872-2.021 10.876l-1.42.024c2.344-3.131 2.678-6.393 1.607-10.612-2.197-8.658-5.524-16.214-7.166-23.398m10.366.01c1.697 7.223 5.77 18.241 7.233 22.046 1.947 3.885 1.363 9.639-1.564 11.916l-1.386.029c1.674-1.566 2.249-4.202 1.983-6.935-.753-7.723-6.221-18.434-8.2-26.661zm-7.368.342 1.732.159c1.735 7.555 5.11 14.899 7.301 22.455.408 1.706.764 3.789.621 5.323-.299 3.215-1.631 5.751-2.801 5.751h-1.194c2.438-2.905 2.319-6.865 1.275-11.122-1.724-7.035-5.896-15.518-6.935-22.566zm-45.108.038c-.722.004-.735.665.419 1.675.706.618.651.412.611.804-.172 1.673.092 3.205.78 1.482.184-.46.453-.979.722-.914.508.157.25 1.091.496 1.564.415.834-.026 1.038-1.035.78-.726-.186-.767.207-1.218.707-.789.876-.66 1.398.553 1.126.2-.045.369.012.525.048.379.087.725.327 1.627 1.015 1.159.884 2.8 2.063 3.864 2.243 1.705.288 1.325-.528-.072-1.064-1.197-.458-2.681-1.732-2.676-2.084.003-.271.38-.11 2.536-.703.936-.257 2.251-.832 2.806-1.088.915-.422.959-.418 2.392-.375 2.441.073 2.813-.01 1.102-1.28-3.458-2.566-8.073-4.236-10.52-3.171-.742.323-.725.125-1.261-.183-.701-.402-1.273-.584-1.651-.582m49.501.231c2.397 9.234 7.034 17.508 8.162 26.267.255 2.505-.165 4.953-2.247 7.07l-1.405.024c-.206.003 1.962-3.349 1.776-6.218a16.3 16.3 0 0 0-.549-4.793c-2.724-7.787-5.406-14.845-7.488-22.267zm-43.288 3.032h.038c.654.103.676.363.486.703-.282.504-.78 1.473-.78 1.473s-.663.13-.799-.038c-.239-.347.635-2.086 1.054-2.137zm1.66.298c.073-.001.162.036.303.091.628.248 1.717.757 1.246 1.15-.558.466-2.718.676-2.613.481l.722-1.333c.153-.283.221-.388.342-.39zm-6.617 8.071-.14.038c-.125.075.158.577.573 1.145 1.912 2.579-.735 3.344-2.608 1.964-1.779-1.383-4.525-1.253-4.129.197.14.511.003.76.996.775.882.013 1.11.062 1.906.606 3.042 2.081 6.973-.705 5.053-3.691-.362-.564-1.259-1.057-1.651-1.035zm7.508 4.028c-1.105 0-1.802.824-.419 1.071 4.942.887 1.628 6.011-1.858 3.371-3.141-2.835-7.342-2.815-7.392-.804-.007.506.016.523.76.664 1.751.331 4.365 1.127 5.366 1.631.589.297 1.208.574 1.376.616 2.093.761 4.778-.228 5.309-1.991.486-1.613.093-4.559-3.143-4.559zm-61.99 16.488c.662.008 1.365.587 1.867 1.434 1.16 1.958 2.57 5.25 3.47 7.065.227.457.236.866.221 1.083.071 1.064.427 1.466 1.059.987.621-.471 1.482-1.259.472-1.386-1.016-.766-1.582-1.89-.953-2.575.463-.504.282-.831-.091-.852-1.424-.021-3.546-4.256-2.546-5.169 1.35-1.231 2.843.294 6.02 6.598 1.4 2.784 1.465 5.831.265 4.322-.408-.38-.325-.183-.804 1.015-.36.901-.655 1.329-2.026 2.647-1.67 1.605-2.682 2.874-2.719 3.152-.072.532.902.036 1.612-.89 1.587-1.55 1.646-1.963 1.631.091-.013 1.858-.108 2.197.226 2.185.522-.02.801-1.489 1.044-3.263.291-1.597 1.121-2.403 2.502-3.292.379-.244.386-.412.313-1.117-.255-2.257 1.028-6.464 1.612-5.424.082.234.336.781.472 1.165.109.594.483 1.264 1.054 1.309.709.531.707.818.953 2.762.08.635.361 1.587.558 2.093.367.942.695 1.495.491 1.776l-.404.399-11.569 6.858s-.908.502-1.237.64c-.917.414-1.474.108-1.925-.578-2.452-3.651-4.134-7.753-5.857-11.536-1.034-2.245-.022-3.731 1.314-1.92.519.704.254 1.152-.005 2.512-.047.246.182.152.611.221.676-.073 1.002.531.977 1.554-.427 1.467.163.675.443.602.535.008.653.329.953.938.187.859.565.61 1.117.043.456-.468.457-.457-.462-1.554-1.588-1.72-3.79-5.605-4.36-7.97-.157-.652-.1-1.174.019-1.521.717-1.615 1.716-1.621 2.806.635.185.384.55 1.003.808 1.376.419.606.678 1.125.664 2.089-.322.807-.374.823-.096.934.691.273 1.918 1.521 1.973 2.637.056 1.134.248 1.737 1.141 1.064 1.018-.767.584-1.076-.419-2.06-1.051-1.251-1.115-2.336-.491-3.239.102-.303.059-.389-.327-.351-1.221.118-2.408-1.428-1.559-2.604.391-.689.345-.866-.207-.885-.288-.01-.762.045-.996-.087-.361-.677-1.115-1.622-1.107-2.397.356-1.089.908-1.528 1.492-1.521zm72.51.058c2.006 1.23 3.992 2.51 6.247 3.094-5.223 9.406-13.622 14.447-20.65 16.415.239 1.204.409 2.404 1.574 3.143-.04-.182-.556-2.318-.443-2.758 9.683-2.472 18.206-11.958 20.386-16.849l42.552-.462c-31.545 30.26-32.802 72.849-7.065 108.546l-2.96 1.728c-19.832-29.707-19.631-58.328-13.682-77.496 4.218-13.59 11.786-23.972 17.537-29.905 0 0-23.071-.317-34.554.106-1.668 2.552-3.22 4.636-5.462 7.045 0 0 5.834-5.634 5.684-6.612 10.642-.006 21.616-.621 32.244.12-12.437 14.884-18.567 30.249-19.63 44.703-.04 1.88-.153.83-.775 1.521l-1.964 3.046-1.574-3.167c-1.07-.346-3.174.212-4.067-.111-4.375 19.52.046 43.078 5.804 58.453 0 0-1.446.81-3.224.674-1.947-.432-2.423.105-4.11.448-1.94.369-2.617.366-3.046.857a4.5 4.5 0 0 1-1.16.919c-4.725 1.716-10.27 8.152-10.27 8.061l-5.202-2.334c4.793-9.413 10.419-12.801 20.309-16.979l-.919-4.206c-10.533 3.924-17.236 8.621-22.523 17.748-6.414-.091-32.395-.274-32.422-.193 10.597-12.051 18.953-30.228 19.866-44.4.224-2.76-.162-1.433 1.059-2.257l1.92-2.286 1.506 2.252s1.091 1.388 1.781.231c1.933-19.763-.112-42.297-9.635-58.005 1.69-.112 3.372-.158 4.991.799 3.725 8.435 5.92 18.855 6.872 26.666 1.206 9.886 1.036 21.037-.193 30.506l.635.087c1.856-12.306 1.227-25.395-.476-36.835-.874-5.968-3.69-15.302-5.626-19.611-.535-1.191-.95-1.498-.443-1.675 11.605-.976 16.939-4.849 21.108-11.03zm-32.176 1.04a1.607 1.607 0 1 1 0 3.214 1.607 1.607 0 0 1 0-3.214m87.222.818c-3.397 3.075-6.127 6.262-8.995 9.659 8.486 11.67 17.917 24.321 25.848 34.429 0 0 2.745-1.626 2.733-1.829-.006-.107-.219-.644-.27-.525-.118.281-2.223 1.458-2.223 1.458l-25.097-32.937s1.36-1.629 1.781-2.142c1.95-.641 7.376-7.362 7.642-7.224 4.252 3.257 17.074 17.063 22.012 21.295l.063 38.322c-.511 1.533-14.181 7.442-23.836 29.486-4.855 2.72-10.234 4.184-15.236 6.55 0 0 1.273 2.002 1.896 2.551-.764-1.651-.899-1.967.833-2.671l36.127-14.726-.067 2.974-.587 5.135c-9.832 6.063-18.13 8.604-31.661 17.748-.966.225-1.745 1.153-2.762 1.203-34.568-50.909-12.47-89.265 7.676-108.536zM55.683 99.091c.943.016.705 2.203.356 2.96-.697.547-1.391.061-1.376-.963.004-.334-.06-.649-.144-.703-.523-.334.352-1.307 1.165-1.295zm21.112 1.367c.794.603 1.088 1.406 1.381 2.209-1.071-.168-3.94-.991-2.594-1.631zm-5.222 2.844c24.932 37.705 23.816 77.752-4.009 108.108l35.203-.053c4.481-8.842 11.946-14.231 21.497-17.551l.833 2.777c-10.977 3.524-16.531 9.366-20.949 17.46H62.164c16.131-17.356 23.52-32.017 24.683-51.85 1.108-18.888-3.698-36.138-18.292-56.893zm7.026.433 5.881 2.777-.871 6.035-6.16-2.839zm-10.602 1.694c31.444 47.566 17.958 81.023-7.147 108.868l-4.625.077-10.78-10.015.197 60.854s-10.511 10.296-11.718 11.531c-1.193 1.149-2.089-.616-2.089-.616l.029-80.672.467-3.162.144-17.383 6.699-3.532 25.121 32.927s-1.009 1.488-1.477 1.752c-.305.172-.082.467.173.433.705-.093 2.718-2.343 2.296-2.705-9.113-11.289-26.055-33.394-26.055-33.394l-7.055 3.682s.204-14.432.077-19.972c.271-1.307 1.251-.957 1.911-1.54 8.124-5.222 13.849-11.595 17.383-17.777.26-.462 1.823-3.237 1.978-3.489.551-.898 1.918-3.707 2.714-5.501.445-1.003.918-2.217 1.097-2.363 4.888-1.592 10.019-3.851 14.928-5.881l-7.07-10.612zm-19.269.606c-.265-.004-.94.303-1.853 1.131-1.685 1.529-3.906 4.041-3.913 4.519.452.163.852-.097 1.213-.462 1.409-2.08 3.588-2.894 4.865-4.716.198-.337-.011-.476-.313-.472zm15.838 2.209s4.878 7.107 6.126 8.995c-12.855 5.09-26.306 11.812-38.221 16.16v-2.849l1.882-5.116zm19.125 4.697 4.808 2.483-1.357 5.424-4.851-2.714zm3.966 9.023 3.951 2.878-1.805 4.601-3.98-2.738zm-32.239 3.374s-.609 2.133-1.631 4.042c-4.889 8.495-9.673 16.044-19.558 22.599-.376-.335-1.453-2.219-1.453-2.219l-.096-2.517c5.24-4.21 9.763-7.3 16.704-19.654l2.012-.818 1.713.741 1.16-2.069zm20.564.019c-4.555 9.664-9.038 19.631-16.295 27.162l19.861 27.725c6.535-19.575 4.109-37.922-3.566-54.887m-24.991 2.108-.953 1.651 1.651.953.953-1.651zm-2.695.178c-3.598 8.045-8.999 14.235-16.088 18.687l-.274-11.805zm1.266 2.401-.953 1.651 1.651.953.953-1.651zm40.593.346 3.58 3.398-2.127 3.749-3.672-3.037zm54.853 1.67-.01.01c-6.293 19.558-4.403 38.24 4.23 54.502 4.236-10.541 7.713-17.595 15.982-28.817-5.092-6.667-19.691-25.905-20.203-25.694zm-96.852.313-1.001 1.622 1.622 1.001 1.001-1.622zm27.455 2.281c5.673 13.56 5.172 25.787 2.156 36.383l-14.168-17.898c5.191-6.443 8.638-12.543 12.012-18.485m-28.918.048-1.073 1.574 1.574 1.078 1.073-1.579zm-1.583 2.252-1.174 1.506 1.502 1.174 1.174-1.506zm46.676 1.603 3.21 3.046-2.026 3.951-3.258-2.979zm-48.529.741-1.232 1.449 1.449 1.232 1.232-1.449zm103.488.428 14.293 18.442c-4.781 5.69-8.754 12.394-12.306 19.621-3.982-12.478-5.78-24.739-1.988-38.062zM41.25 141.593l-1.319 1.376 1.376 1.319 1.319-1.376zm33.389 1.843-6.54 9.457 7.498 9.572c.807-5.182.988-11.197-.958-19.029m-35.521.308-1.405 1.29 1.29 1.405 1.405-1.29zm-2.065 1.843-1.482 1.203 1.203 1.482 1.477-1.203zm55.859.977 2.685 3.138-2.724 3.229-2.551-2.868zm34.14.563 1.824.067c-2.992 29.506 2.888 44.435 8.09 57.418 0 0-.012.52-.188.674-.847.292-2.562.607-3.937-.602-6.998-17.988-8.525-40.145-5.789-57.557m-92.4.38-1.545 1.117 1.117 1.545 1.545-1.117zm114.316 1.049c-.464 0-.867 12.139.881 18.066l6.579-8.913zm-17.007 2.002 2.199 2.955-2.334 3.181-2.387-3.013zm-99.094.804c.11-.017.291.29.645.534.329.344.281.318-.087.611-.575.459-.747.385-.736-.332.049-.59.092-.8.178-.813m60.175 2.219 2.43 3.479-2.69 3.46-2.3-3.643zm38.726 4.408 2.56 3.119-2.199 3.422-2.796-3.268zm59.28.659.226 3.595-.885-1.314-1.627 1.246 1.136 1.506 1.42-1.107.087 1.449c-9.017 6.516-12.906 14.001-16.565 19.616l-1.627.688-1.853-.587-.905 1.603-1.574.371c-.048-.01 3.159-6.881 8.648-13.874 4.887-6.228 13.493-13.248 13.518-13.191zm1.044 5.626.077 12.782-16.137 6.233c4.188-7.136 9.126-13.758 16.06-19.015m-4.009-1.554-1.473 1.208 1.27 1.458 1.468-1.208zm-2.267 1.925-1.42 1.266 1.323 1.41 1.42-1.275zm-53.886.707 3.042 3.239-2.228 3.826-3.167-3.037zm51.595 1.362-1.333 1.362 1.458 1.4 1.333-1.362zm-2.098 2.151-1.28 1.415 1.55 1.343 1.28-1.415zm-2.108 2.411-1.189 1.492 1.612 1.246 1.189-1.497zm-46.344 2.291 3.802 2.469-1.858 4.524-3.797-2.892zm44.506.019-1.117 1.55 1.718 1.174 1.131-1.603zm-1.718 2.445-1.035 1.603 1.737 1.117 1.03-1.655zm-1.535 2.421-.953 1.651 1.8 1.025.953-1.67zm-1.386 2.502-.953 1.651 1.992.861.789-1.574zm-37.807 1.02 3.893 2.637-1.723 4.74-4.11-2.907zm56.455 4.663.193 97.54-42.865.149s-2.004-3.527-6.199-11.675c-1.776-3.45-3.277-4.915-3.431-7.647.161-1.604-.581-3.425-1.896-4.158-.442-.246-1.181.051-.934-.635.272-.756-.562-1.919-.789-2.166-.259-.437-.098-.544-.125-2.17-.027-1.572-.111-2.23-.448-3.417-.852-3-1.041-4.498-.553-6.054 1.266-3.945 2.586-6.972 4.293-10.65.993-2.153.841-2.994-2.204-4.557-2.28-1.171-2.583-1.158-2.296-2.868.135-.801.26-1.306.091-1.694-.103-.236-.481-.566-.703-.756-.298-.254-.208-.779.096-1.169.299-.383.301-.93.005-1.843-.623-1.92.787-4.465 3.451-6.223 1.177-.777 1.145-.616 2.373.674 3.589 3.769 8.922 1.401 8.932-3.913.003-1.656-.561-1.558 1.006-2.339 5.31-3.379 16.208-9.524 16.136-9.355.71 1.446.947 2.682 1.396 4.24.388 1.336.337 1.438.193 4.038-.131 2.35-.201 2.896.351 3.046 3.145.346 3.863-.766 4.466-2.796.261-.897.763-.715 1.073-.337 1.197 2.178 2.711 4.443 3.706 5.992 1.243 1.977 3.336 2.96 4.432 2.026.231-.768.421-.792 1.809-.476 1.684.383 2.644-.561 2.806-1.8.065-.494-.296-.474.606-.963 2.237-1.656 1.384-3.917 1.049-5.279.029.072.956-.564.977-1.838.107-6.619-5.63-16.152-5.501-15.905zm-54.121 3.812 4.553 2.199-1.073 5.438-4.678-2.103zm44.299 2.021c2.622 3.04 4.518 8.109 5.496 11.41.483 1.645.542 3.522.111 3.783-.426.258-.624-.018-.544-1.001.067-.819.091-1.453-.26-1.444-1.017.263-1.057-1.279-.953-1.641.07-.242.195-.412.25-.544.251-.597-.404-.516-1.083-.525-.6.014-.755-.35-.727-.919-.017-.631-.853-.508-1.328-.029-.434.438-.343.953.245 1.314.846.518 1.645 1.791 3.614 6.179 1.143 2.548.805 4.356-.558 4.336-.945-.028-2.046-2.616-2.936-4.524-.23-.493.346-1.044.549-1.309.523-.686.444-.903-.332-.914-.726-.011-1.035.054-1.473-.842-.165-.337-.284-.852-.226-1.179.374-.988-.395-1.227-1.141-.847-.94.392-.933 1.231.5 2.604.923 1.515.682 1.41-.193 2.43-.183.36-.073.582.313.587 1.109-.339 2.318 1.659 1.988 2.344-.34.294-1.269 1.36-.371 1.155 1.827-.497 2.938 2.178 1.862 3.085-1.605.805-1.985.553-4.456-4.384-.768-1.533-1.691-3.181-1.805-3.349s-.164-.622-.159-.987c.108-.893-.273-1.096-1.049-.741-.583.139-1.109.618-.371 1.073.862 1.487 1.167 1.726.693 2.103-1.078.858-.61.823.597 1.064.591.178.891.482 1.054.847.624 1.4 1.729 3.375 1.838 3.778.366 1.027-.295 1.488-1.198 1.444-.946.023-1.379-.724-1.838-1.362-1.719-2.389-2.957-4.756-4.711-7.469l.236-2.536s.46.1.717-.024c.505-.243.805-1.035 1.092-2.089.461-.916 3.184-3 4.225-4.12.192-.127.354-.336.356-.462-.007-.41-1.181-.136-1.954.751-1.135 1.008-1.619.662-1.583-.626-.112-1.59-1.082-.793-1.131.76-.125 1.227-.551 1.975-1.41 2.661-1.621 1.296-1.351.968-1.275 2.767.131 3.138-1.08 5.719-1.872 4.009-.281-.607-.611-1.297-1.319-1.328-.501-.022-.749-.513-1.025-1.728-.41-1.965-.983-3.229-1.506-5.039zm-40.353 6.762 5.246 2.089-.982 5.486-5.197-1.988zm39.997.505-.12.029c-1.478 1.117-2.841 2.37-4.452 3.33-.604.357-1.31 1.279-1.314 1.526-.004.24.717.235 1.42-.072.667-.291 4.471-3.863 4.476-4.192.262-.289.237-.637-.01-.621m-48.168 6.66c1.24-.003.517.365-2.19 2.243-2.642 1.833-6.997 7.629-7.503 9.779-.23.977.39 1.052 1.088-.289 3.208-6.166 9.276-11.8 14.832-11.55 2.722.123 4.192.857 1.939 1.179-6.176.758-10.792 4.28-14.832 11.3-.003.157.366.15.789-.12 3.698-4.521 7.864-10.509 15.183-10.024 5.279.318 6.779 6.596 2.397 8.739-3.821 1.868-7.344-2.681-4.177-5.38 1.028-.876 1.671-.492.683.404-2.119 1.923.479 5.347 3.061 4.047 1.571-.658 2.208-2.908.823-4.606-3.081-3.777-9.717-.905-14.341 5.197-.485.642-.905 2.037-.496 1.887.718-.296 1.151-.859 1.574-1.492 1.651-2.289 2.919-3.438 5.154-4.668 1.727-.951 1.833-.772 1.189.876-.272.694-.489.925-1.16 1.357-2.816 1.923-4.565 4.499-4.634 6.141-.051 1.198.826 2.764-.125 3.085-1.613.762-6.012.14-7.199-1.376-.854-1.091-1.185-.459-.544 1.314.424 1.171.405 1.833 1.044 1.713.808-.428 1.363-.328 2.931.529.756.413 2.095.798 2.912.987 1.488.343 1.799.198 1.766.842-.01.197.058.753.014 1.102-.242 1.94 1.378 2.599 3.585 3.874 1.29.745.781 1.512-.712 5.202-.776 1.67-1.439 3.916-2.397 5.611-.895 1.905-.971 3.99-.395 6.367 1.071 4.411 1.841 6.653-.067 7.05-4.912.743-15.762.713-21.685-1.564-1.515-11.369-9.543-28.238-8.513-32.6 2.055 3.098 10.67 2.278 8.075-6.381 0 0 .706-1.056 2.108-2.478 3.616-3.668 4.508-4.275 2.791-1.044-1.32 2.484-3.004 5.724-3.042 6.353-.03.5.36.617.664.217.225-.296.493-1.017.727-1.564 2.155-5.045 5.839-9.594 8.379-10.689.654-.282.621.018.168.573-2.988 3.717-5.269 7.155-6.891 11.641-.072.463.584.656.794.217 2.802-5.873 3.64-7.206 7.084-11.343 1.354-1.626 2.613-2.447 3.619-2.358.87.077.613.22-.193 1.078-.615.656-1.524 1.567-2.993 3.417-2.592 3.262-5.2 8.57-4.24 8.292.165.442.983-.968 1.675-2.315 1.895-3.181 3.906-7.384 8.406-10.148.94-.389 1.967-.612 2.874-.622zm-87.02 1.025 8.013 8.008 16.117-.207c-2.658 4.13-1.239 10.532.226 14.274 2.871 7.335 7.08 19.444 6.771 19.621 0 0-2.344.602-2.555 2.089-.314 2.203.641 2.039-.736 4.028-.31.447-.11 1.292.221 1.964.219.492.427 1.233.019 1.809L59.984 284.37l-26.979.13v-5.072l13.509-13.677-.164-10.063c7.368 2.19 9.898 9.792 10.53 15.424 13.309-12.146 12.98-30.431.404-41.902-2.451 12.125-11.232 14.644-11.04 14.404zm100.23 1.439c.862.062 2.026.201 2.815.626-.535.32-.915.701-1.27 1.092-.432-.766-1.013-1.184-1.545-1.718m22.34.087c.718-.002 1.598 2.098 1.092 2.589-.285.277-1.21.382-1.54.173-.423-.314-.207-2.76.448-2.762m-25.42 3.643a1.675 1.675 0 1 1 0 3.35 1.675 1.675 0 0 1 0-3.35m-70.883 2.387 1.208.029c-2.196 2.935-2.492 5.463-1.713 9.124.875 4.121 7.553 19.609 7.984 23.875.02.193.038.736.038.736l-1.641.111-.173-.611c-2.297-7.723-4.582-13.612-6.179-18.114-1.591-4.855-4.028-12.052.476-15.15m8.826.029.029.005 1.16.01c-.043.026-1.731 3.646-1.853 5.842-.138 2.49.464 5.202 1.29 7.878 1.949 5.79 4.801 12.24 6.386 19.548l.193.794-1.718-.231-.188-.852c-1.186-6.429-4.495-13.105-6.468-19.433-1.011-2.876-1.714-6.412-1.352-9.115.255-1.907 2.168-4.409 2.522-4.447zm14.028.014c-1.228 1.902-2.347 4.286-2.425 6.155-.071 3.478.942 6.413 1.954 9.485 3.115 9.459 4.626 14.45 6.184 22.036l-1.655-.707s-.064-.426-.101-.549c-.884-4.751-.94-4.336-6.136-20.314-1.218-3.835-2.378-7.197-2.151-10.39.051-1.819 1.638-5.42 3.311-5.708zm1.988 0h1.545s-.851.901-1.097 1.237c-2.698 3.743-1.918 7.759-.578 12.546 1.844 6.587 5.253 13.954 7.036 23.995.033.186 0 1.155 0 1.155l-1.838-.741c-1.67-9.206-5.791-18.752-7.777-27.032-1.168-4.862-.835-7.935 1.862-10.583.676-.522.847-.578.847-.578zm-18.851.053h1.155s-1.931 3.172-1.93 5.039c-.323 3.342.887 7.035 2.276 10.905 2.135 5.948 4.957 13.14 5.823 16.926.034.149.149.828.149.828l-2.016-.106s-.106-.916-.226-1.338c-2.327-8.141-4.594-13.406-7.267-20.838-.405-1.125-1.05-5.573-.289-8.456.598-2.263 2.324-2.96 2.324-2.96zm-3.094.005 1.246.034s-.187.339-.664 1.155c-2.274 4.118-1.255 7.877.154 12.065 1.88 5.588 4.832 12.412 6.675 18.87.104.364.245 1.463.245 1.463l-1.8-.024s-.366-1.315-.39-1.458c-1.013-5.986-6.483-15.963-7.907-23.557-.78-4.073-.11-6.596 2.44-8.547zm16.695 0s-1.967 3.409-2.146 5.308c-.352 3.723.829 6.806 2.18 11.006 2.331 7.246 5.621 15.749 5.915 19.635l.058.602-2.026-.722-.13-.549c-1.766-7.032-3.854-14.036-6.66-21.931-.692-2.663-1.601-5.343-1.521-7.633.411-3.057.932-3.882 2.753-5.693zm8.913.005 1.631.034s-.487.261-1.651 1.502c-6.436 5.881 4.006 22.486 6.415 37.605l.101.732-1.795-.645c-.17-.753-.297-1.67-.505-2.493-1.951-7.729-4.555-15.675-6.944-22.883-1.341-5.252-1.831-9.878.578-12.464.754-.893 2.17-1.386 2.17-1.386zm-16.781.01 1.737.048c-1.256 1.574-1.992 4.027-2.06 6.208-.067 2.58.623 5.089 1.473 7.743 1.742 5.444 4.23 11.361 5.939 18.706.096.486.177.798.221 1.011.071.337.265.871.265.871l-1.834-.366s-.189-.476-.313-.727a7.7 7.7 0 0 1-.505-1.429c-.888-3.832-4.156-12.527-6.146-18.624-1.578-3.842-2.008-10.558 1.222-13.441zm21.69.067c2.222-.082 4.231 1.804 4.707 3.576.461 1.881-.129 4.005-2.199 5.053-3.357 1.7-6.971-2.823-4.322-5.313 2.008-1.887 4.978-.49 4.331 1.925-.417 1.572-2.802 1.674-3.196.087-.108-.528-.373-1.056-.563-.765-1.234 2.899 2.916 4.257 4.639 1.559 1.022-2.162-.924-4.947-3.787-4.418-3.927.726-4.378 5.709-2.748 11.521 2.274 9.187 7.7 21.543 7.69 27.215l.019.308-1.723-.515-.024-.178c-1.033-7.921-6.917-21.036-8.605-31.118-.731-4.597 1.059-7.933 5.087-8.845a3.7 3.7 0 0 1 .693-.091zm-17.036.072c-1.208 1.615-1.998 4.042-2.036 5.775-.036 2.538.874 5.009 1.627 7.652 1.904 6.526 6.351 18.577 6.189 20.833l.168.991-1.718-.51s-.068-.108-.197-.419c-.573-2.24-3.296-11.838-6.348-20.136-1.174-3.336-1.745-5.936-1.665-8.148.248-3.052 1.122-4.326 2.459-6.025zm32.715 10.819c-4.453.254-4.025 5.683-1.266 6.603.987.272 1.566.037 1.723-.178.178-.245-.021-.618-.669-.712-1.872-.615-2.541-2.819-.85-3.743.923-.484 2.398-.173 4.176 1.144 3.177 2.353 7.072 2.501 6.564.12-.123-.578-.372-.655-2.7-.972-1.89-.257-2.742-.855-3.566-1.299-1.299-.7-2.443-.991-3.412-.963M57.728 231.1c11.505 11.236 9.8 28.846-.029 37.663-.202-.712-.632-2.456-.679-2.406 7.392-7.691 10.873-20.298.173-33.221.056.049.238-.933.534-2.036zm72.106.299a1 1 0 0 0-.289.043c-2.979.815-3.597 3.76-1.665 4.971 1.184.743 2.094.288.621-.611-1.263-.77-.64-2.795.89-2.772.669.01 1.124.301 2.825 1.554 1.4 1.032 2.718 1.114 3.017-.284.179-.834-.101-1.205-.991-.987-.394.097-.625-.134-1.16-.505-1.189-.826-2.488-1.427-3.248-1.41zm-73.294 2.204c10.37 12.037 7.041 24.59.048 31.945-1.92-5.666-6.627-9.201-6.627-9.201 1.774-3.935 2.831-8.045-.486-13.234 3.086-2.788 5.643-5.853 7.065-9.509zm67.38 4.394c-.487-.009-.328.46.818 1.261 2.733 1.859 2.967 2.195.318 2.151-.671-.04-1.724.436-2.32.635-3.458 1.153-3.625 1.062-5.279.674-.551-.129-1.111-.36-1.352-.14-.374.34-.793.566-.322 1.073.343.37.981.653 1.757 1.097 4.015 2.3 4.38 2.851 9.1 2.974.541.014.818-.266 1.136-.27.771-.009 1.175.179 1.954.89 1.427 1.302 1.493.356.645-1.352-.445-.896-.834-1.109-.616-1.79.498-1.553-.211-1.862-1.141-.486-.696 1.077-.775 1.052-1.434-.332-.873-1.729-.463-2.527.861-1.4 1.004.854 1.26.219 1.651-.457.513-.889.436-1.686-.481-1.617-.527.04-1.02-.203-1.434-.654-.812-.886-2.368-1.997-3.86-2.257zm1.136 4.678c.109.006.185.05.221.164.009.569-.382 1.733-.703 2.344-.103.272-.278.306-.525.356-.828.153-.885-.103-.736-.616.303-.792.554-1.918 1.622-2.243l.12-.005zm-2.103.395c.335-.025.346.115.212.419-.239.513-.659.998-.972 1.4-.663.429-1.743-.883-1.266-1.222.666-.264 1.168-.535 1.862-.578zm-74.291.857q.268-.002.549.115c2.51 3.388 2.339 8.544.39 11.396-.145.213-.294.251-.539.168-.839-.496-1.904-.681-2.7-.967v-9.919c.82-.174 1.527-.796 2.3-.794zm66.133.808c-.192.009-.271.139-.029.39 3.659 2.648 8.695 5.717 13.34 4.529.426-.092.77-.326.688-.765-.051-.274-.523-.51-1.035-.375-1.065.281-3.108.317-3.946.183-3.194-.524-6.016-2.567-8.47-3.763a.9.9 0 0 0-.549-.197zm-1.068 2.527c-.164-.008-.151.156-.048.462.515 1.534 5.694 5.108 9.784 6.29 3.512 1.015 8.556.017 8.263-1.651-.153-.87-.792-1.078-3.032-.794-4.934.959-9.683-1.059-13.287-3.301-.971-.612-1.469-.996-1.68-1.006m-32.311 2.098c2.155-.026 4.292.149 6.603.534 4.496.767 9.707 2.16 14.115 4.201 7.492 2.812 16.911 4.981 24.905 4.687 1.951.054 5.477-.112 6.16-.337 1.782-.4 2.274-.021 2.7 2.19.075.481.223.621.842 1.04.947.641.789 1.275.674 2.69-.097 1.191.623 1.859 3.508 7.185 3.284 6.061 6.487 13.104 6.487 13.104-28.787-.02-56.251-1.088-85.706-.173 2.649-6.281 9.872-17.607 14.398-26.698-1.095-2.798.257-3.273-.31-3.936-.917-1.555-.255-3.736 1.682-4.227a39 39 0 0 1 3.941-.26z" style="fill:#131f67" transform="matrix(.73594 0 0 .75982 1.285 3.488)"/><path d="M61.595 285.101s9.47-19.057 13.456-24.765c5.733-7.24 31.53 3.209 44.365 5.831 5.217 1.016 17.314.566 17.314.566l10.078 18.243zm-19.553-21.709-.291-59.382 2.951 1.849.568 59.648-12.791 12.202-.064-3.582zm7.741-6.762c3.052-6.116-.329-13.597-.329-13.594 1.763.438 6.696-8.881 7.132-8.611 7.506 9.24 8.785 22.989-.422 31.492-2.309-5.926-6.352-9.288-6.381-9.288zm5.692-41.987c5.727-5.831 10.268-10.373 14.811-16.902.372-.531-24.059-31.68-23.678-32.225 3.785-4.168 8.855-7.227 12.804-12.261 0 0 20.035 26.326 20.497 26.095 2.05-8.223 3.554-15.669 3.181-24.269-1.199-22.004-10.576-35.49-10.65-35.225-3.216 20.209-34.519 50.77-40.667 48.577l-.009-14.126c.371.708 19.818-12.461 24.972-29.901.37-1.253 15.45-6.048 15.345-6.233-.635-1.639-7.211-10.978-7.211-10.978s2.666-1.236 2.961-1.231c8.527 10.642 14.951 24.654 17.121 37.989 2.636 14.363 4.308 41.359-24.538 70.786zm86.383-36.988c-4.48-13.992-4.33-28.469-2.24-38.574 3.195-18.311 14.795-31.405 24.098-41.389l4.028.009-6.58 6.784c-3.013 3.444-7.383 10.632-7.383 10.632l23.971 31.451 13.701-2.935s-.439 14.049-.014 14.05c-10.66 8.791-18.325 16.751-23.839 29.577-3.368 1.238-14.535 6.029-14.535 6.029-5.302-1.306 15.846-34.329 11.837-34.897-1.649-1.366-19.895-26.074-20.252-26.024-8.479 25.8-.303 52.925 14.496 71.887-1.686 1.088-3.211 1.934-3.071 1.679-6.338-8.827-11.886-19.362-14.216-28.281zm-43.872-13.024c.948 1.473 5.283-31.496-5.904-57.913 1.071-.808 10.343-2.564 10.343-2.564l2.48 7.908-6.328 2.666 1.16 3.707c4.913-2.372 15.549-5.867 22.108-16.717 0 0 31.772-.214 32.448-.157.659.056-6.493 6.885-13.289 20.722-3.104 6.32-5.58 14.501-6.11 24.103-.105 1.898-7.253-8.935-7.253-8.935 1.804-9.138 6.598-18.129 11.376-27.12 0 0-7.305-.429-12.41-.289-7.954 8.66-12.939 13.222-24.914 17.343 4.339 13.989 31.024 20.757 25.089 19.469-1.212-.288-2.774 12.848-1.516 27.654.226 11.838 6.559 31.582 6.784 31.424 0 0-4.247.948-4.586.267.716-.171-6.319 1.597-6.319 1.597l-2.502-7.359 6.811-3.119-1.093-4.153c-.027.002-15.026 4.509-22.392 17.572l-32.836-.022c12.689-13.718 17.879-27.299 20.662-45.262 2.686.487 8.191-.822 8.191-.822m80.973-118.483c4.135-3.447 12.438-12.429 12.438-12.429l.1 4.61-9.422 9.763-.015 60.384-3.176-3.055zm-4.387 22.093c-1.695.804-5.078 4.766-6.696 9.223-10.877-9.754-6.358-27.635-.387-31.348 1.723 3.909 6.726 9.097 6.61 8.988-1.159 4.088-2.05 8.235.472 13.137zM78.18 27.528l84.029.301c-4.81 9.429-9.222 17.049-14.334 26.331-2.657 3.193-60.015-10.436-60.287-9.089z" style="fill:#e2cf00" transform="matrix(.73594 0 0 .75982 1.285 3.488)"/><path d="M164.687 283.688c-5.486-10.735-12.538-20.469-20.632-28.882 8.09-8.802 14.839-17.924 20.61-27.89 5.909 9.943 12.403 19.331 21.481 28.415-9.03 8.856-15.818 18.524-21.459 28.358zM32.309 273.027l-.415-79.287 9.535 9.296.456 60.889zm43.856-15.284c-1.977.298-.855-1.53-.491-3.269.203-.969-.733-1.883-.728-2.179.028-1.721 1.319-2.445 7.162-2.367 13.773.981 20.886 5.404 28.784 7.468 7.563 1.977 15.064 1.951 23.414 1.774.61.353 2.838 6.122 2.421 6.699-18.896 3.687-42.973-10.224-60.563-8.127zm34.119-40.993c-1.988-1.446-3.855-1.716-5.7-2.033 3.25-5.692 7.182-10.877 13.74-14.115l3.035 7.548c-3.857 1.974-7.645 4.325-11.075 8.599zm-39.757-19.661s-2.836 4.617-5.508 6.86C57.106 193.298 39.41 170.62 39.41 170.62l-7.534 3.797s-.022-4.384.149-4.691c20.349-10.438 34.335-30.212 40.511-48.742 0 0 3.267 3.346 2.834 4.758-5.524 14.615-14.95 29.264-28.793 40.238zm25.395-21.53 25.665.083 1.12 8.924c-9.834 3.275-17.957 9.987-25.555 17.755l-12.173-.234c4.007-8.737 9.568-17.598 10.942-26.528zm95.09-37.414c.826 2.517-.015 5.229.303 5.116-30.77 15.147-39.616 48.5-39.616 48.5s-2.91-4.626-2.776-5.34c15.977-35.337 26.625-36.37 28.677-40.207l-24.144-31.364 5.488-7.435 25.896 33.825c2.582-1.184 4.055-2.176 6.172-3.094zM175.77 183.87c5.23-9.366 10.618-14.806 15.982-18.545l-.283 12.372zM32.112 146.81l.156-12.003 15.848-6.786c-4.396 9.536-10.349 14.64-16.004 18.789m70.567-10.663-.921-8.445c9.621-4.175 18.124-9.768 24.994-17.43 7.366-.34 12.396.168 12.356.068.013-.015-7.025 10.267-11.702 26.466zm79.807-88.54 8.766-8.825.131 78.9-8.773-8.379zm-77.018 64.105-2.762-7.828c4.37-1.628 7.683-5.187 10.769-8.712 2.085 1.873 4.778 2.535 5.713 2.897 1.28.302-8.876 12.45-13.72 13.643M37.885 57.564c9.388-9.128 15.495-18.762 21.398-28.34 5.142 10.56 12.597 19.805 20.591 28.743-8.273 8.96-14.564 18.558-20.605 28.222-5.902-10.208-12.117-19.78-21.384-28.625m51.287-5.124s-1.091-.634-.969-1.524c.364-1.153-1.16-3.767-1.16-3.767 18.644-5.619 45.749 10.339 61.859 7.022-.137 1.124.046 2.466-.412 3.525.503 2.254.861 2.328-1.342 3.7-11.32 3.181-23.231-3.667-34.276-6.951-9.011-2.856-16.335-2.146-23.7-2.005" style="fill:#d40000" transform="matrix(.73594 0 0 .75982 1.285 3.488)"/><path d="m77.222 26.414 3.392 6.416-.589.398c.924 1.546 1.708 3.284 2.653 4.817l.684-.077c1.114 2.144 1.565 2.937 3.023 5.478l-.66-.004c.338 1.129 1.209 1.88 1.225 2.69.007 1.007-.254 2.029.364 2.713.732.809.819 1.033.668 1.506-.402 1.256.734 2.65 1.89 2.527 8.148-1.074 16.447-.135 24.741 2.388 5.964 1.893 11.258 4.01 16.27 5.501 1.58.475 4.775 1.225 7.526 1.432 7.63.573 11.915-.974 10.635-4.15l-.35-.572c-.037-.242.001-.503.435-.857 1.254-1.276.557-2.208-.204-3.625 0 0 9.832-17.487 14.742-26.201zm84.842 1.729-7.175 12.334c-3.822-.7-4.726 2.514-4.785 2.966-4.963-1.282-4.212 5.157-1.722 5.597.159.934-4.085 2.087-6.317-.105 3.435.466 4.66-4.077.465-5.094 5.54-4.103-4.829-10.279-4.968-1.772-4.879-.868-4.257 5.582-1.162 6.089-1.587 1.743-6.243 1.783-8.67-1.902 4.136 2.158 6.386-3.388 2.088-4.949 5.316-4.645-5.069-8.955-4.84-1.434-3.913-2.329-6.618 3.585-1.39 4.503-.3 1.065-7.149 1.06-8.882-1.696 4.854 1.117 5.089-4.795.804-5.284 4.312-5.451-6.602-8.232-4.783-.779-4.216-1.676-5.819 3.58-1.714 5.277.226.837-6.656 1.537-9.059-1.487 5.29-.784 3.449-5.913.023-5.509l.244-.646c1.627-5.142-7.068-5.588-5.874-.13.192.503.404 1.172.404 1.172-2.396-.493-3.863.481-3.694 2.73.591 2.987 2.169 2.77 4.188 2.179.845.886-4.876 3.832-8.459 1.186 4.397-1.255 2.18-6.408-1.498-5.72-.149-1.644-1.931-3.953-4.262-2.832l-2.456-4.852Zm7.062 68.609-5.163.067c-3.633 3.695-29.935 27.834-25.58 64.377 1.863 15.63 6.202 29.157 17.839 45.149l3.121-1.824.476.32 32.365-18.539.027-5.648-37.557 15.675c-.743-.794-1.179-1.678-1.805-2.655l15.051-6.364s.362-.913.479-1.333c4.967-12.5 15.028-21.538 23.785-28.518-.024-12.316-.034-38.101-.034-38.101l-22.57-22.56c-2.904 2.646-5.481 5.368-8.058 8.322l25.898 34.219-2.304 1.494-25.625-34.041c3.049-3.653 6.357-6.836 9.654-10.04zm23.024 22.26s-.017-58.669-.136-87L178.515 45.81l-.057 59.468zm-.996-81.416-9.537 9.805-.004 60.447-2.442-2.416.108-58.82 11.915-12.438zm-92.637-1.625c.284.502.159 1.197-.299 1.764-1.951 2.411 4.156 6.619 8.557 5.898 3.35-.549 6.208-2.555 4.98-4.087-1.001-1.248-.343-2.507.861-2.497 1.239.011 2.232.998 1.156 2.346-2.395 2.999 1.242 6.529 6.813 6.612 3.94.059 5.254-.909 5.046-3.716-.097-1.315.162-1.677 1.077-1.875 1.462-.316 2.196 1.36.982 2.635-2.621 2.753.344 6.815 5.291 7.085 1.81.099 2.168.003 4.19-1.133 1.58-.888 2.14-2.233 1.368-3.28-.993-1.348.352-2.953 1.901-2.288 1.107.475 1.651 1.326.423 2.764-1.613 1.889-.854 3.451 2.245 4.509 2.413.825 4.086.726 5.218-.303.352-.32 1.136-.989 1.124-.784-.762 1.311-1.438 2.528-1.438 2.528-5.062 2.247-9.003-1.983-8.873-2.14-5.217 2.997-9.836 2.355-13.731-2.704-1.016.561-8.287 1.872-13.523-3.896-5.299 2.647-10.219 1.524-14.587-1.455-3.238 3.045-6.646 3.521-10.183 2.05l-1.045-2.111c.265-.099 1.402 2.117 6.944 1.096 1.861-.343 5.067-3.463 3.277-4.99-.819-1.162-.842-1.685-.116-2.388.714-.692 1.931-.333 2.341.363zm-13.576 2.741c.308.599.347 1.594.008.996-.179-.316-1.115-1.725-1.07-1.768.436-.036.869.416 1.062.772m106.214.675-.081 78.006-8.092-8.057-.278-61.11zm-93.886 3.605 2.55 1.61-4.571-.036zm14.348 1.369 2.14 2.086-4.504-.953zm40.151 1.154-.961 1.962c-.551-.619-.71-1.93.961-1.962m16.139 32.459c1.634-3.65 3.819-8.297 7.345-9.77-2.613-5.217-2.263-10.426-.397-13.279-2.657-2.482-5.383-5.454-7.07-9.725-8.422 7.409-9.801 22.655.122 32.774m-.194-31.348.576 1.427c-7.505 9.151-5.215 21.185.197 27.615l-.782 1.616c-6.616-7.003-9.491-21.786.009-30.658m-44.776 5.102c8.672 2.562 15.614 6.543 25.653 3.026l.043 1.953c-6.392 4.087-19.105-.267-27.692-3.454-13.804-5.124-24.554-4.846-32.235-4.278-.676-.134-1.21-1.9-.127-1.91 14.362-.132 12.045-1.928 34.358 4.663m1.967-3.451 2.844 3.028c-2.139-.675-4.218-1.425-6.152-2.355Zm43.491.825.557.771c.241.334-1.577.504-1.271.113zm-48.97 5.443c10.35 3.908 21.748 7.811 29.239 4.343 0 0 .045 1.482-.812 1.9 0 0-.791.637-3.433.995-12.112.972-19.964-4.056-29.733-7.037-3.706-1.131-9.66-2.503-15.776-2.768-3.632-.172-9.189.339-9.189.339-1.21-.103-1.191-.818-1.201-1.518 10.532-1.385 20.212-.319 30.905 3.745zm50.093-3.637q.202-.008.404.025l1.056 1.355-1.26 1.995s-1.106-1.022-1.667-2.025c-.309-.649.531-1.308 1.466-1.35zM139 51.233l3.276 2.482c-2.466.117-5.242.203-7.987-.893zm27.779 1.312c.258-.006.529.268.846.81.609 1.043.528 1.242-.658 1.621-1.557.497-1.679.387-1.173-1.008.345-.95.652-1.416.985-1.423m4.981.648 2.214 1.865c-1.23 3.184-2.039 7.226.41 13.036-.273.018-1.87 1.587-2.37 1.855-1.404-.591-4.474-12.1-.253-16.756zm-2.527 2.432-.57 3.522c-.047.289-2.45-1.673-2.224-2.651.431-1.162 1.896-.911 2.793-.871zm-3.981 1.23c.291.003.747.708 1.306 1.629.437.719.346.99-.624 1.862-1.429 1.44-1.709.969-1.388-1.485.158-1.212.377-2.009.706-2.006m2.945 3.198c.194.004.363.051.486.15l.157 3.432c.014.31-2.678-.127-3.03-1.435-.446-.838 1.341-2.171 2.387-2.147m-3.561 2.894c.193-.027.796.375 1.366.715.991.59 1.012.849.155 1.945-1.006 1.287-1.504 1.08-1.654-1.163-.055-.823-.115-1.462.133-1.497m3.951 1.32q.13-.002.231.082c.476.409 1.2 3.85.892 4.209-.438.51-2.736-.174-3.247-.983-.487-.77 1.285-3.309 2.124-3.308m-2.821 4.045c.264-.018.739.165 1.458.513.432.209 1.153.603 1.312.937.28.589-.188 1.46-.793 2.183-.4.478-.772.121-1.542-1.485-.619-1.292-.874-2.118-.434-2.148zm4.639 1.547.144.034c.782.435.649 1.724-.279 2.676-1.114 1.142-2.078.278-1.307-1.172.488-.919 1.071-1.53 1.442-1.538m-64.654 31.885c-.677.029-1.735.64-2.197 1.233-.584.749-1.093.65-1.739.594-.769-.013-1.939.155-3.525.874-.899.408-1.308.499-2.624.563-.859.042-1.72.156-1.911.256s-.81.315-1.373.479c-1.15.335-.742.662-.085 2.145 3.34 8.608 5.726 18.636 6.587 26.802.966 9.368.648 20.725-.678 29.397-3.212.016-5.229-.153-8.612-.102-2.341 18.753-8.63 33.636-21.166 47.009l33.823.148c3.894-10.328 21.593-18.179 22.173-17.597l.925 3.774s-12.725 1.795-21.322 17.922c.877-.528 4.067-.155 6.17 2.036 4.217-5.327 11.125-8.8 11.17-8.718l.232-.643s1.266-.428 2.379-.637c.357-.067 1.089-.204 1.575-.373.751-.261 1.124-.54 2.282-.439 2.411.235 4.833-.46 4.781-.473-7.143-19.814-8.808-37.692-5.965-58.451 2.645.025 8.445.136 8.445.136.594-5.833 1.344-11.669 3.146-17.174 2.314-7.068 5.101-13.637 9.579-19.64 2.53-3.771 4.737-6.453 7.352-9.987l-33.11.016c-4.395 7.356-12.849 13.491-19.639 16.041-2.311.863-2.637.734-3.017-.352-.68-1.941-.648-1.859 1.16-2.371.604-.171 2.535-1.184 5.55-2.589 6.398-3.233 10.804-9.165 13.396-13.169 1.031-1.582.34-1.225-1.418-1.244-1.61-.129-2.345-.628-3.789-1.98-.532-.498-.761-.853-1.005-.825-1.895 2.71-5.074 6.285-7.551 7.341zm7.782-6.255c1.485 1.596 3.249 2.531 5.573 2.839-3.725 5.822-8.271 10.371-13.49 13.133l-2.637-7.462c6.504-3.014 8.247-6.041 10.555-8.51zm53.963 2.471c-35.076 32.309-33.091 73.126-8.63 106.322l-2.572 1.54c-22.974-30.904-27.057-76.565 8.189-108.005Zm-22.083 3.908 8.584-.002-5.858 7.564-7.841-.043zm-1.345.06-4.788 7.518-12.878.142c-7.723 9.485-16.008 14.104-24.44 17.251l-1.629-8.115s13.346-3.193 22.012-16.939zm-13.087.599-2.99 3.297 3.094 3.158 2.836-3.196zm6.758-.065-3.029 3.138 2.353 3.167 3.139-3.065zm-14.908.545-.524 4.942 3.887 1.283.576-4.225zm23.659.228-2.831 4.407 4.25.075 2.98-4.388zm-44.435 1.046 2.741 7.641-2.421 1.162-2.439-7.978zm-3.263 1.219 2.825 7.904-2.379.78-2.594-8.226zm3.346 31.192c.297 10.986.442 17.608-1.412 27.261-.097.504-2.069.054-2.069.054.249.084 1.131-10.91 1.076-17.816-.106-13.152-2.312-26.167-7.45-39.21.985-.6 3.412-.903 3.412-.903 3.239 9.89 6.107 20.528 6.443 30.614m-34.324-30.521c11.277 15.018 19.319 35.381 17.931 55.454-1.338 23.342-10.213 36.78-25.786 52.918l-4.011.086c18.432-17.609 26.601-32.693 27.28-52.612.78-22.909-6.189-38.159-17.944-54.42zm-36.196 20.551.029 5.463 38.543-16.447-5.54-8.193zm90.295-17.729-4.193.204.132 4.231 4.371-.098zm37.373-.735 24.898 32.772-6.184 4.576-23.736-30.796zm-19.565 2.199 7.47.129-2.897 4.787-7.22-.071zm-1.38.115c-3.446 6.382-8.198 13.656-10.88 25.423l-24.592-.024c-.04-2.688-.384-5.376-.779-8.064 10.604-3.859 18.823-9.641 24.874-17.292zm4.547.346-3.209 1.842 1.955 2.256 3.536-1.346zm-29.276 2.3-1.067 4.166 3.983 1.543.746-4.952zm22.925 3.156 7.167.056-3.029 6.021-7.1-.119zm17.066-.758 23.561 30.657-2.217 1.748-23.026-29.967zm-14.347 1.249-3.235 2.685 2.426 2.811 2.984-2.372c.063-.05-2.175-3.123-2.175-3.123zm-31.345.164-.999 4.051 4.142 1.11.749-4.345zm-5.738 2.685-.85 3.989 3.902 1.061.83-3.844zm-32.23-.459c.2-.04-.661 4.748-1.918 5.609-.601.411-.911.32-1.43-.243-.358-.388-1.977-3.039-1.977-3.039l1.388-.695c1.678 2.695 1.679 1.393 2.321-.9zm-6.478 2.747c.55-.003 1.215.681 1.965 2.006 1.085 1.916 1.049 2.04-.741 2.588-3.222.846-4.42 1.048-3.425-1.075 1.071-2.286 1.495-3.515 2.201-3.519m9.587-.362 2.197 3.776c-8.878 22.483-23.16 38.597-42.796 48.327l-.038-3.738c23.154-13.123 32.667-28.658 40.638-48.365Zm60.079 1.737 6.955.138-1.868 5.315-7.393-.066zm-71.757-.364c-5.686 13.481-13.443 25.237-28.928 35.146l-.055-3.584c17.388-10.436 24.932-30.029 24.931-30.035Zm87.911.138c4.118.12 8.44 4.618 7.994 8.318-.314 2.607.182 4.543.894 3.477 1.573-2.356 6.193-.78 6.146 2.053-.025 1.508-1.033 1.754-1.608.392-.85-2.012-3.25-2.067-3.608.04-.336 1.975 1.337 3.429 5.81 5.055 5.243 1.24 8.392 5.947 6.522 8.647-.649.713-1.04.888-1.161.518a24 24 0 0 1-.282-1.238c-.59-2.834-1.945-4.026-3.596-3.057-.828.486-.724 1.132-.243 1.984.64 1.135.237 1.574-.912.995-1.814-.915-2.41-3.078-.648-4.071 2.094-.833 1.386-1.014-1.286-1.923-5.688-1.955-8.124-5.527-8.411-12.323.115-3.098-.307-4.203-1.763-4.629-1.333-.39-2.847 1.302-1.891 2.196.519.486.943.928.667 1.195-.886.857-3.097-.541-3.072-2.037.016-.978.387-1.179 1.853-2.326.407-.318.062-.92-.533-.93-2.239.717-2.075-2.242-.872-2.336m-12.895.761-3.481 1.992 1.806 2.534 3.853-1.801zm-67.656 1.84a.725.725 0 0 1 .725.723.73.73 0 0 1-.728.725.727.727 0 0 1-.721-.728.72.72 0 0 1 .723-.721zm7.127.326c7.309 16.03 9.021 34.347 3.881 52.64l-19.771-25.82c7.619-8.546 12.749-18.337 15.89-26.82m-26.804 1.127-17.697 7.397-.122 13.259c9.892-6.724 14.096-13.619 17.819-20.656m16.998-.079c1.743-.051.874 4.651-1.391 6.252-.831.636-1.39.557-1.662-.719-.141-.661-.834-2.061-1.708-3.188-1.017-1.311-1.005-1.343.484-1.434 1.644.028 2.994-.759 4.277-.912zm-1.726 1.996c-1.285-.021-1.672.579-.907 1.404.643.694 1.155.547 1.589-.454.265-.61.029-.938-.682-.949zm-31.926 17.142.064-11.254 15.134-6.34c-3.046 6.57-8.673 13.079-15.198 17.593zm134.328 9.338-2.019 2.022-19.476-25.485 1.229-3.21zM59.785 129.663c.655.011 2.135 2.283 2.549 3.913.307 1.209-.021 1.464-2.314 1.801-.95.258-3.515.002-3.306-.68.374-.985 2.84-5.038 3.071-5.034m70.726.389 7.124.09-1.642 5.84-7.461-.124zm3.147.362-3.321 2.29 2.619 2.59 3.518-2.164zm11.171 2.534 19.702 25.668c-5.906 7.484-11.799 16.083-15.683 27.455-7.001-16.459-9.546-32.473-4.019-53.123m-80.215 2.034a.725.725 0 0 1 .725.723.73.73 0 0 1-.728.725.727.727 0 0 1-.721-.728.72.72 0 0 1 .723-.721zm-2.274.973c1.233.09.062 4.014-1.797 5.443-1.465 1.126-2.093.601-2.427-1.465-.121-.747-.903-2.017-1.592-3.019-.77-1.12-.451-1.298 1.503-.844 1.365.267 3.051-.054 4.313-.114zm66.002 1.08 7.469.059-1.166 8.871zm-72.777.278c1.175 1.099 2.655 4.952 1.892 5.227-.888.321-4.903-.153-5.351-.616-.309-.319-.31-.321.349-1.198a89 89 0 0 0 1.535-2.139c.435-.507.918-1.884 1.576-1.274zm4.158.139c-1.138.036-1.214.192-.676 1.419.438 1.001.743 1.091 1.501.436 1.054-.911.614-1.9-.825-1.855m131.103 1.011.262 4.376c-28.738 14.189-39.552 47.793-39.707 47.792l-2.077-3.883c13.234-32.441 30.774-41.81 41.522-48.284zM55.521 143.39c1.71-.033 2.209-.148 2.199.485.017 1.704-1.58 4.12-3.528 5.028-1.311.612-1.341.626-1.486-.917-.112-1.188-.496-2.716-1.109-3.935-.192-.452-.933-1.488 0-1.192.932.296 2.858.55 3.924.53zm3.836-.389a.722.722 0 1 1-.003 1.445.722.722 0 0 1 .003-1.445m-9.151.981c.31-.009.604.629.955 1.566.763 2.038.996 3.142.768 3.621-.351.738-5.062.252-5.862-.574-.153.114 3.474-4.205 4.138-4.613zm3.393.512c-.676.045-.319.452.18 1.632.345.817.814.949 1.352.378.719-.764.817-1.372.365-1.699-.665-.268-1.156-.306-1.897-.311m137.409 4.678.022 1.466c-1.118-.336-1.809-.81-3.084-1.237-.781-.264-1.242-.451-.551-1.273 1.084-1.287 2.245-2.091 3.565-2.888l.004 1.66c-2.109.93-1.906 1.792.043 2.272zm-82.994-1.642 7.932.015-.01 5.237 6.204.011-.492 5.968-5.723-.01-.01 5.237-7.932-.015.01-5.237-5.665-.01.468-5.968 5.208.01zm17.915.051c-4.054 19.896-.407 41.034 5.758 58.261l-3.128.339c-4.805-13.776-8.609-33.384-4.657-58.592 0 0 1.4-.023 2.027-.008m58.877.494a.722.722 0 1 1-.003 1.445.722.722 0 0 1 .003-1.445M45.258 149.49c.263-.007 1.069.342 1.785.542 1.076.301 1.925.432 2.906.453 1.972.042 2.23.024 1.378 1.644-.613 1.167-1.993 2.708-2.956 3.176-1.365.725-1.887.626-1.804-.716.011-.91-.381-2.492-.893-3.621-.399-.878-.854-1.466-.416-1.478m8.341.655a.725.725 0 0 1 .725.723.73.73 0 0 1-.728.725.727.727 0 0 1-.721-.728.72.72 0 0 1 .723-.721zm133.471.149c.559-.011 1.517.333 2.391.76 2.317 1.131 2.254 1.39-.892 3.613-2.285 1.727-2.825 1.92-2.901-.809-.078-2.3.172-3.54 1.402-3.564m-143.003.397c.92.015 1.93 4.809 1.102 5.234-1.289.663-5.276-.64-5.258-1.733.005-.355 3.75-3.508 4.156-3.501m140.229.06c.55-.023.622.408.569 1.936-.028.809.108 2.129.163 2.744.115 1.277.004 1.365-1.003.792-.645-.367-1.957-.968-3.377-1.094-1.164-.103-1.248-.582-.886-1.348 1.031-1.698 2.895-2.889 4.533-3.03zm-136.813.471c-.803-.007-.605.42-.109 1.622.351.852.963.934 1.593.21.882-1.014.71-1.551-.57-1.748a9 9 0 0 0-.914-.084m135.746 1.39c-.334.03-.792.294-1.012.436-.756.472-1.063.812.032 1.189.974.336 1.492.482 1.416-.358-.046-.506-.005-1.24-.436-1.267m-74.455.484-.01 5.218 6.315.012.01-5.218zm68.812.579a.722.722 0 1 1-.003 1.445.722.722 0 0 1 .003-1.445m-118.219.597 19.876 25.607-1.33 3.331-20.47-27.031zm131.758.121.038 3.342c-2.254 1.643-16.566 11.974-23.993 29.394l-3.874 1.641c5.477-14.994 17.155-27.824 27.829-34.377M39.568 155.53c1.296.397 2.533 1.301 3.757 1.465 1.407.174 1.892.085 1.51.811-.856 1.626-2.47 3.328-4.171 3.882-1.216.396-1.79.246-1.597-.508.36-1.413.424-2.572.378-3.86.194-.701-.404-1.686.124-1.79zm-1.522.296c.826.709.653 5.176-.271 6.137-.483.502-1.882.04-3.979-1.153-1.371-.78-1.626-1.255-.94-1.73 1.162-.702 4.566-3.422 5.19-3.254m142.332.357c.43-.008.962.067 1.602.215 2.482.562 3.034 1.13.914 2.808-.784.62-1.615 1.391-1.856 1.686-1.141 1.394-1.932.38-2.177-2.156-.171-1.775.098-2.785 1.516-2.553zm-3.11.235c.403.001.662.212.653.714-.011.641.444 3.415.7 4.179.445 1.3.12 1.592-.955 1.024-.783-.424-2.857-.748-3.98-.662-1.277.098-1.24-.244-.864-1.316.666-1.899 3.235-3.94 4.445-3.939zm-136.491.674c-.485-.002-.507.652-.177 2.151.105.477.515.448 1.29-.094.917-.641.88-1.045-.151-1.666-.425-.256-.741-.391-.962-.392zm5.646.174a.722.722 0 1 1-.003 1.445.722.722 0 0 1 .003-1.445m128.479 3.042c.346.338 1.627.327 1.848.124.339-.311.184-1.761-.098-1.935-.721-.247-2.182 1.276-1.751 1.811zm-119.58 2.539c.432 2.067 3.337 1.958 3.014-.197-.189-1.258-.234-1.232.397-1.203 3 .152 2.471 4.88-.985 4.508-.721.085-.818.38-.208.635.606.253 2.928.854 3.286.853 3.761-.006 9.177 5.787 9.034 10.919-.093 3.356 1.04 5.774 2.203 6.05.925.219 2.269-.619 2.155-1.647-.158-1.418.994-.973 1.656.046 1.01 1.409-.3 3.437-2.711 3.273-1.026.198.752.853 2.071 1.236 1.196.071.183 1.542-.04 1.805-.678.784-2.893.18-4.628-1.226-2.131-1.727-3.043-4.038-3.286-8.574-.157-2.916-.373-3.509-1.223-2.308-1.53 2.679-5.178 1.36-5.629-1.474-.253-1.5 1.07-2.58 1.494-1.22 1.127 2.828 3.898 2.154 3.452-.653-.294-1.852-2.144-2.877-5.803-3.914-4.398-1.247-5.703-2.756-6.554-6.366-.377-1.598-.315-2.434.531-3.267.418-.412.95-.831.95-.831s.583 2.429.826 3.554zm115.095-2.079a.722.722 0 1 1-.003 1.445.722.722 0 0 1 .003-1.445m-138.1.433c1.309.477 2.434 1.182 3.784 1.644.876.3.635 1.001-.275 1.995-1.014 1.193-2.01 1.779-3.414 2.442l.018-2.02c1.707-.592 2.794-2.011-.07-2.471zm141.505 1.387c.496.005 1.199.025 2.023.196 2.087.435 2.331.621 1.074 2.086-.466.543-1.159 1.362-1.539 1.821-1.238 1.717-1.901 1.126-2.472-1.097-.709-2.322-.87-3.212.914-3.007zm-134.963.581a.722.722 0 1 1-.003 1.445.722.722 0 0 1 .003-1.445m132.854 1.816c.198.733.498 1.668.728 2.329 1.128 2.501.413 1.533-1.616 1.309-1.364-.151-3.537.073-4.074-.305-.234-.305-.016-1.107.423-2.011.619-1.273 1.74-2.357 2.577-2.848 2.118-.974 1.623.268 1.962 1.526m-121.974-1.112 22.701 30.129-1.789 2.541-23.35-30.978zm142.614.374c-11.845 8.527-16.407 18.893-17.332 20.247l17.355-6.659zm-22.587.939c-.649.177-1.582 1.378-1.183 1.851.239.247 1.193.281 1.651.114.705-.257.227-1.967-.468-1.965m-99.784 32.356-4.858 6.099-25.196-32.715 6.381-4.59zm121.107-31.53.158 11.229-14.845 6.157c4.982-8.382 9.857-13.561 14.687-17.386m-101.43.766 5.927 7.746-7.259-.178zm75.123.771a.722.722 0 1 1-.003 1.445.722.722 0 0 1 .003-1.445m4.351 1.838c2.717.042 3.624.191 2.831 1.525-1.057 1.301-1.682 2.539-2.834 3.742-.665.674-1.492-.72-2.182-2.951-.557-1.801-.272-2.254.792-2.267s1.245-.051 1.393-.049m-3.143 2.43c.221.712.739 1.882 1.15 2.597.412.715.874 1.509.845 1.647-.07.335-.387.36-1.102.089-1.547-.701-5.188.03-5.283-.314-.539-.771.275-2.87 1.806-4.322.748-.709 1.432-1.17 1.827-1.176s.466.541.757 1.48zm-126.934-.785 25.637 33.421-1.782 2.161-25.925-34.066s-4.107 2.002-5.315 2.671l.131 17.262-.703-.035-.055 87.429 14.366-14.273-.078-59.324c3.037 2.868 5.635 5.926 9.113 8.738l5.964-.036c15.598-15.806 24.149-29.342 26.065-53.606 1.282-16.232-4.075-36.658-18.345-56.469l-3.497 2.115 6.883 10.414-14.633 6.453c-5.846 12.266-12.77 23.584-25.408 30.049l-.1 15.89-.221.328.158 4.989zm125.644 1.37c-.682.05-1.753 1.52-1.265 2.024.576.274 1.464.257 1.837-.236.255-.482.192-1.505-.572-1.788m-76.668 3.297 7.547.057-1.985 6.47-7.35-.153zm71.693.103a.722.722 0 1 1-.003 1.445.722.722 0 0 1 .003-1.445m-38.451.127.96 8.409c-8.237 2.978-17.122 8.04-24.902 17.362-1.326-.09-11.912.07-11.912.07.265.038 9.841-17.952 10.954-25.766zm-29.893.728-3.465 2.371 2.7 2.888 3.586-2.419zm72.028.167c.736-.002 1.722.089 2.513.231 1.275.25 1.463.274 1.031 1.326-.577 1.396-1.875 3.912-2.202 4.112-1.171.722-3.758-4.478-2.871-5.375.235-.184.732-.292 1.53-.294zm-3.312 1.592c.334-.029.779.622.91 1.183.159.681 1.334 2.398 2.075 3.221.932 1.035.883 1.18-.455 1.284-1.593.124-3.149.434-4.046.759-1.391.502-1.58.391-1.398-1.234.273-2.445 1.911-5.128 2.914-5.213m-1.229 5.057c.173.474 2.33-.392 2.451-.96-.02-.255-.863-1.732-1.372-1.8-.863.133-1.228 2.089-1.079 2.76m-72.826-.466 7.133.08-2.35 5.873-7.052-.032zm3.192.794-3.421 2.155 2.657 2.58 3.277-2.251zm72.539 1.198c.606-.005 1.247.055 1.381.277.378.625-1.172 4.109-1.172 4.109l-2.516.992c-.539-1.114-1.461-2.272-1.683-3.478-.088-.527.179-.719.761-1.044.868-.485 2.22-.848 3.229-.856m-6.735.273a.722.722 0 1 1-.003 1.445.722.722 0 0 1 .003-1.445m-32.53.041s1.526 8.712 1.611 7.752c-11.905 4.458-18.875 11.057-22.184 17.501l-22.32-.057 4.996-7.721 13.214-.042c6.401-7.739 14.292-13.905 24.684-17.433zm-2.861 2.045-1.109 3.517 3.332 2.134 1.263-3.776zm36.562.135c.283-.026.562.451 1.133 1.47.422.753.978 1.847.978 1.847l-.999.37c-.8-2.752-1.54-1.731-1.631.697l-1.369.542s.153-2.34.937-3.706c.45-.785.701-1.198.95-1.221zm-72.759 2.273 6.917.099-2.904 5.987-7.032-.205zm30.17.537-.557 4.447 3.724.796.518-4.225zm-27.23.003-3.422 2.203 2.238 2.955 3.292-2.203zm21.879 3.934-.715 4.095 3.493.801.802-4.119zm-75.946.101 8.73 8.685.371 60.482-8.713 8.706zm47.579 2.301c-.031.048 6.976.213 6.976.213l-2.814 5.057-2.395-.112 3.157-2.146-2.017-2.588-3.243 2.107 1.8 2.617-4.732-.11zm45.112 1.58 2.361 7.852-2.856.491-2.132-7.387c.876-.451 1.751-.673 2.627-.955zm-22.438.449.04 4.708 3.812.329.157-4.414zm18.949.786 2.159 7.46-1.813.513-2.583-7.082a7.4 7.4 0 0 1 2.237-.89zm-3.311 1.533 2.779 7.305c-3.86 1.557-7.865 4.897-10.882 8.232-2.229-1.644-3.542-1.818-4.918-2.192 3.81-7.067 8.301-10.772 13.021-13.346zm-42.143 1.753 7.335.235-5.116 7.61-8.298-.025zm21.837.324-.485 4.456 3.923 2.327.605-4.576zm-4.733.617-2.797 2.946 2.959 3.389 2.726-3.528zm-6.243.143-3.322 3.036 2.631 3.446 3.039-3.455zm-42.259 2.76.217 59.086-12.207 11.787-.085-3.178 9.706-10.098c.048-19.986.021-39.971-.01-59.957zm32.424-1.849-3.373 4.581 3.99.017 2.901-4.437zm-20.803 28.554c-1.336 4.772-7.462 9.938-7.571 9.851 3.02 4.346 2.907 10.533.231 13.577.013-.068 4.861 3.971 5.539 6.065.383.834.535 1.85 1.02 2.678.128.219.538.765.538.765 11.883-12.006 6.261-26.111.243-32.936m.176 1.248c11.49 14.309 3.874 27.373-.151 31.014l-.765-1.269c8.576-9.93 4.972-22.155-.004-27.948zm-1.252 2.779c.076.232.523.906.191.862l-.577-.117zm-.09 1.593c.25 0 .459.079.572.251.234.391-.962 3.674-1.696 2.907-.221-.434-.481-.811-.684-1.261-.239-.536-.081-.795.469-1.327.379-.367.922-.571 1.339-.57m1.654.894c.582.046 1.407 1.88 1.481 3.189.036.136-1.965-.311-2.496-.924.065-.536.57-1.899 1.015-2.265m-4.508 1.487c3.455 6.978 3.228 12.423.165 17.424l-2.388-2.05c1.615-3.804 2.419-7.867-.28-13.046zm2.336 1.748c.24-.02.981.091 1.636.301 2.319.746 2.403 2.265.167 3.375-.926.46-1.214.255-1.743-2.068-.262-1.149-.46-1.574-.06-1.608m4.476 2.68c.447-.001.652.844.703 2.302.049 1.384-.245 1.493-1.358.503-1.203-1.07-1.41-1.324-.304-2.2.324-.257.756-.604.959-.605m-3.167 2.281c.22-.019.861.391 1.486.869 1.584 1.212 1.231 2.041-.573 2.622-1.25.403-1.188.454-1.152-1.706.018-1.068-.044-1.761.239-1.785m21.002 2.005c-1.938.488-2.754 2.214-2.114 3.77.291.707.735.714.213 1.145-.583.67-.894 2.223-.256 2.79.754.434.949-.311.152 1.147L60.278 285.63l87.571-.002-10.489-19.732c.024-.028.848-3.251-.835-3.643-.541-.126-.849-.629-.958-1.11.14-1.371-.482-1.956-1.005-2.665-8.327 1.16-15.557.562-21.527-.793-8.601-1.951-14.744-5.313-18.741-6.373-5.512-1.462-12.166-2.105-17.372-1.306zm4.717.194c6.785-.028 14.377 2.063 19.689 4.373 5.511 2.288 11.351 3.996 17.252 4.879 4.871.622 9.731.323 14.391-.038.509-.075 1.037-.005 1.416.4.964 1.075.305 1.746-2.112 1.965-3.88.313-8.691.167-12.957-.481-6.756-.789-13.915-2.845-20.091-5.418-7.719-2.912-14.811-3.895-20.418-3.051-3.079.464-3.532.537-3.518-.29.027-1.613 1.363-2.348 6.348-2.337zm-22.242 4.637c-.299.683-2.405-1.558-2.383-2.189.045-.278 1.756-1.39 2.434-1.842.328-.251.307-.12.31.175.01.843-.061 3.02-.362 3.856zm-3.246-1.656c.974.133 2.57 2.765 1.159 3.169-1.249.358-2.385.588-2.536-.25.647-2.055.89-2.869 1.261-2.915l.116-.005zm56.612 9.082c6.214 1.086 14.372 1.745 19.705 1.338 3.058-.302 3.701-.202 3.68 1.072-.013.798.074.779-3.871.768-3.279.213-6.231-.145-9.405-.314-6.567-.338-12.532-1.474-18.044-3.399-6.115-1.598-11.41-4.657-17.396-5.298-5.49-.548-10.43.415-11.467.988-.346-.005-.525-.518-.504-.991.021-.462.194-.833.58-1.127 15.744-3.941 24.154 4.577 36.721 6.963zm-54.563-5.357c.524.007.356.782-.505 2.425-.732 1.396-1.02 1.389-1.429-.046-.438-1.533-.395-1.702.48-1.924.515-.123.951-.391 1.454-.455m-3.674.773c.615.01 1.482 2.795 1.034 3.318-.355.413-1.634.13-2.006-.36-.599-.788.173-2.972.973-2.959zm27.511.803c2.441-.02 4.874.245 7.109.634-1.289.474-2.571.911-3.91 1.681a23.5 23.5 0 0 0-3.2-2.315zm3.166 3.384c8.636-4.794 12.266 1.853 13.51 2.926 7.545-1.655 9.02-.83 13.22 3.723 7.559-3.679 11.214-.533 14.363 1.459 3.705-3.449 8.394-3.536 10.834-1.797.456.765 1.089 1.737 1.141 2.026.04.226-.305-.038-1.154-.647-4.43-3.182-11.797.757-9.838 4.945.527 1.128.442 1.614-.35 2.064-1.126.759-2.506-.506-1.72-1.794 1.312-2.15.331-3.953-2.849-5.622-4.481-2.353-11.814.26-10.312 3.721.963 1.106.067 1.883-1.207 1.841-1.442-.048-1.929-1.013-1.002-2.043 1.156-1.315.855-2.65-.485-4.174-4.017-5.744-12.171-3.485-11.101 1.544.471 1.25-.877 1.751-2.274 1.193-.889-.355-.754-1.73.221-2.214 1.121-.111 1.282-1.733 1.151-2.775-.192-1.516-2.424-3.013-4.633-3.809-1.599-.576-3.085-.702-4.258-.597-2.477.222-3.863 1.901-3.459 4.422.238 1.487-.181 3.028-1.925 2.207-.954-.449-.712-1.529.265-2.523 3.435-3.342-3.462-7.43-7.635-4.63-.708.58-1.223.68-1.223.68 2.626-6.502 10.799-.393 10.723-.127zm11.363-.856 5.205 1.971c-1.202.235-2.048.572-2.9.908zm-13.609 2.091c-4.806-.92-5.077 4.452-1.946 5.334-4.321 5.913 6.961 8.232 4.904.922 5.717 1.041 4.694-5.469.442-5.417.999-2.423 8.846-.571 8.504 1.23-5.308.553-3.196 5.392-.9 5.402-5.559 5.244 5.537 10.108 5.257 2.187 4.454.945 4.989-4.969.707-5.366 1.573-2.204 7.172-.802 8.721 1.724-4.423.578-4.153 4.462-.694 5.096-4.395 5.575 6.393 7.659 5.284 1.166 3.865 1.337 5.997-3.819.989-5.303 5.138-3.048 10.703 1.52 10.099 1.611-5.856-.357-4.701 5.514-.462 5.203-2.708 6.089 7.977 6.448 5.279.123 4.806.097 4.395-5.473-.209-5.854 2.903-2.109 6.173-2.288 8.273-.306-4.385 1.145-2.573 6.242 1.838 4.84.4 4.263 3.867 3.365 3.945 3.237l3.09 5.791-84.024-.019 7.196-13.222c4.239.225 4.095-3.855 3.909-3.956 2.815 2.018 5.856-2.979 1.734-4.42 3.375-3.519 8.365-.254 8.066-.001zm-27.353-.419c-.176.179-.221.287-.51.018-.731-.84 1.262-.906.51-.018m17.37 2.249c.37.304.114 1.133-.187 1.416-.759.81-1.014.745-.345-.654.197-.423.384-.767.533-.762zm36.811.443 4.367 1.064-2.077 1.166a26 26 0 0 0-2.29-2.23m13.651 1.784 4.75.312c-.629.426-1.245.822-2.015 1.599-.597-.636-1.729-1.274-2.735-1.911m15.819 4.874c.263.551 1.308 2.47 1.21 2.52-1.537.265-1.944-2.022-1.21-2.52" style="fill:#100f08" transform="matrix(.73594 0 0 .75982 1.285 3.488)"/></svg>