<svg xmlns="http://www.w3.org/2000/svg" xml:space="preserve" width="222.783" height="323.556" viewBox="0 0 167.087 242.667"><path d="M166.837 235.548c0 3.777-3.087 6.869-6.871 6.869H7.11c-3.775 0-6.861-3.092-6.861-6.87V7.12C.25 3.343 3.336.25 7.11.25h152.856c3.784 0 6.87 3.093 6.87 6.87z" style="fill:#fff"/><text xml:space="preserve" x=".459" y="27.082" style="font-size:30.88908005px;font-style:normal;font-weight:400;line-height:125%;letter-spacing:0;word-spacing:0;fill:#000;fill-opacity:1;stroke:none;font-family:Bitstream Vera Sans"><tspan x=".459" y="27.082" style="font-style:normal;font-variant:normal;font-weight:400;font-stretch:normal;font-family:Arial;-inkscape-font-specification:Arial">K</tspan></text><path d="M50.291 22.698s2.375-1.9 2.375-4.534c0-1.542-1.369-4.102-4.534-4.102s-4.534 2.561-4.534 4.102c0 2.634 2.375 4.534 2.375 4.534-2.638-2.055-7.34-.652-7.34 3.455 0 2.056 1.68 4.318 4.317 4.318 3.165 0 4.534-3.455 4.534-3.455s.402 3.938-1.943 6.046h5.182c-2.345-2.107-1.943-6.046-1.943-6.046s1.37 3.455 4.534 3.455c2.64 0 4.318-2.263 4.318-4.318 0-4.107-4.703-5.51-7.34-3.455" style="fill:#000" transform="translate(-37.015 15.927)scale(1.00122)"/><path d="M50.291 22.698s2.375-1.9 2.375-4.534c0-1.542-1.369-4.102-4.534-4.102s-4.534 2.561-4.534 4.102c0 2.634 2.375 4.534 2.375 4.534-2.638-2.055-7.34-.652-7.34 3.455 0 2.056 1.68 4.318 4.317 4.318 3.165 0 4.534-3.455 4.534-3.455s.402 3.938-1.943 6.046h5.182c-2.345-2.107-1.943-6.046-1.943-6.046s1.37 3.455 4.534 3.455c2.64 0 4.318-2.263 4.318-4.318 0-4.107-4.703-5.51-7.34-3.455" style="fill:#000" transform="translate(203.706 226.415)scale(-1.00122)"/><text xml:space="preserve" x="-166.887" y="-215.176" style="font-size:30.88908005px;font-style:normal;font-weight:400;line-height:125%;letter-spacing:0;word-spacing:0;fill:#000;fill-opacity:1;stroke:none;font-family:Bitstream Vera Sans" transform="scale(-1)"><tspan x="-166.887" y="-215.176" style="font-style:normal;font-variant:normal;font-weight:400;font-stretch:normal;font-family:Arial;-inkscape-font-specification:Arial">K</tspan></text><path d="m161.435 30.248-80.596.392 10.235 19.389c20.947-1.884 39.304-.209 58.428.415zM106.391 98.42c-.084.113-3.353.957-3.02 1.699 8.535 18.271 12.347 33.138 15.912 51.916 1.802-1.462 4.716-1.403 4.716-1.403-1.438-6.973 7.354-7.843 7.411-.547 1.688.391 3.424.397 4.947 2.102.685-20.52 8.049-41.752 17.56-56.463-10.839 4.289-26.741 14.979-26.741 14.979s-13.233-5.465-20.786-12.281zm65.878 2.185c-14.425 13.69-20.07 51.694-19.035 52.218-18.593-.62-24.229 19.872-8.112 30.922-.637 2.143-2.211 3.887-3.431 5.78 1.662.952 3.477 1.155 5.29 1.354 1.376 1.63 2.729 3.512 4.223 3.666 1.621-1.021 2.774-2.516 4.124-3.808 1.685-.429 3.356-.903 4.955-1.633-1.416-1.975-3.095-3.973-3.138-5.823 14.013-9.876 12.09-23.306-.543-30.181 3.763-22.617 9.253-37.064 15.624-47.338zm-99.344 17.474c-1.832.894-2.832 2.781-4.162 4.261-1.826.083-3.584.707-5.323 1.482 0 0 4.18 5.772 3.921 6.082-13.554 8.874-13.443 21.845-.429 30.389 2.205 18.46-13.487 47.673-14.279 46.824l-.028 6.04c10.919-12.077 17.098-34.015 18.181-52.034 22.301-1.484 23.091-23.023 7.739-31.125-1.18-1.082 3.86-6.087 3.86-6.087-1.28-1.26-3.42-1.402-5.294-1.557-1.183-1.413-2.214-2.821-4.186-4.275m94.323 14.907c3.154 7.011 14.673-1.532 16.671 2.199 1.622 2.116 5.156 2.333 4.964-1.232-.664-3.53-2.989-4.312-12.212-2.775-3.499.583-4.934.929-4.912-.665-2.42-2.921-4.496 1.052-4.511 2.473m10.699 10.232c-2.586-.002-3.026 10.106-2.988 13.14-7.487 11.82 15.359 10.476 5.479-2.4.344-1.683-1.259-4.426-1.215-5.639-.81-.103-1.165-4.667-1.275-5.101zm-131.711 6.076c-4.052.102-8.506 3.821-2.01 9.169.433.149-.218 1.276.005 3.011 1.831 3.95 1.336 9.798 2.699 8.9 1.576-1.038 2.893-5.402 2.553-11.495-.022-.4-.552-.823-.453-1.255 3.646-6.013.564-8.413-2.793-8.329zm41.459 11.325c-1.04 19.742-5.879 39.112-16.843 55.91 9.438-4.397 18.597-10.071 27.46-14.928l20.712 12.816c1.2-.52 2.03-.777 2.825-1.562-9.545-13.956-12.499-34.042-16.657-52.213-1.582 1.121-4.558 1.685-4.558 1.685-.213 6.303-6.826 8.345-8.176.125zm-49.99 15.402c-2.209.14-3.871 5.608 2.388 6.417 4.417.624 10.072-1.549 12.877-.543 3.262 5.201 6.19-2.455 1.831-3.704-4.683-1.342-14.22 2.159-15.275-.816-.542-1.016-1.203-1.393-1.821-1.354m37.566 85.513-12.495 22.065 79.888-.481-10.443-21.046c.179-.233-34.892 4.169-56.951-.538z" style="fill:#e2cf00" transform="matrix(.74528 0 0 .77291 -1.01 -1.334)"/><path d="m92.687 52.754 1.294 3.098c17.165-2.053 35.122-4.178 53.092.415 0 0 1.322-2.861 1.302-3.068-16.744-4.281-54.2-3.224-55.688-.445m17.31 43.5 16.318 10.583s7.828-5.515 11.164-7.849l-2.02-2.974c-6.926 15.215-19.051 3.16-23.594-4.009 0 0-1.24 2.773-1.868 4.249m43.856 5.166c1.132-.023 1.758.414 2.326 1.567.641 1.301.886.981.475-.641-.648-2.558 2.07-4.219 4.627-2.508 1.846 1.235 1.762 4.218-.258 4.768-1.631.444-1.674.872-.242.804 2.571-.122 3.249 3.307 1.418 4.982-2.105 1.925-4.784.555-5.026-1.863-.111-.684-.256-.674-.482-.287-.65 1.115-.712 2.565-.587 3.878l-3.794-2.36c1.353-.667 2.177-1.071 3.156-2.084.128-.132.224-.229.223-.287-.001-.103-.423.034-1.197.114-2.295.236-4.058-1.253-3.585-3.412.403-1.837 1.355-2.637 2.946-2.67zm-16.821 59.563c4.137-4.72 9.27-7.746 16.399-7.312.931-19.796 7.82-37.392 18.837-53.238l-12.088-7.287-4.857 2.921c-11.693 16.538-18.89 37.533-18.29 64.916zm-90.613-46.377s-8.197 6.122-12.005 9.079l.114 54.59 1.057.364c.075.117-.091-.81.394-1.232.397-.346 1.026-.738 1.4-.873 1.053-.382 1.101-1.083.119-1.691-.762-.472-1.051-1.199-.962-2.408.063-.853.027-1.039-.328-1.619-.441-.721-.477-1.631-.1-2.576.175-.439.159-.557-.152-1.15-.396-.755-.442-1.568-.146-2.443.113-.334.196-1.066.186-1.631-.037-2.174 1.76-3.614 5.076-4.065 1.296-.176 1.336-.23.742-1.317-3.35-6.137 4.198-9.322 4.761-8.34zm103.31 3.177a5.547 5.547 0 1 1 .147 11.094 5.547 5.547 0 1 1-.147-11.094m.051.99a4.44 4.44 0 0 0-4.382 4.499 4.442 4.442 0 1 0 8.885-.118 4.44 4.44 0 0 0-4.504-4.381zm.113 1.41a3.013 3.013 0 1 1 .084 6.024 3.013 3.013 0 0 1-.084-6.023zm-110.15 2.139c.226-.004.466.031.709.109 1.382.441 1.864 1.659 1.113 2.812-.589.906-.522.983.508.602.81-.3 1.223-.204 1.86.428 1.912 1.898-.942 5.08-2.814 3.147-.927-.957-1.016-.676-.374.968.208.532.551 1.359.551 1.359l-2.748-.043.626-1.611c.477-1.244.493-1.426-.499-.645-2.238 1.763-4.769-1.262-2.709-3.235q.627-.603 2.024-.05 1.019.402.252-.56c-1.11-1.398-.08-3.255 1.5-3.281zm56.942 4.965c-1.127 7.314-.165 17.582-.195 23.068 2.978.571 3.009 2.601 3.464 5.124 1.449-.503 4.612 1.64 5.046 1.453.339-7.422-3.493-28.973-8.314-29.644zm49.423 7.395c4.229.344 3.415 3.61 2.153 4.95-.597.688-.487.997.168.602 1.788-1.077 3.204-.296 3.777 1.564.98 3.177-3.199 5.907-5.057 3.054-.629-.967-1.016-.749-.863.262.094.974 1.043 2.993 1.043 2.993l-4.149-.377s1.271-2.107 1.494-2.675c.464-1.178.22-1.492-.668-.544-2.598 2.371-6.19-.674-4.511-3.82.828-1.551 2.352-2.051 3.996-.813 1.108.725 1.348.412.357-.467-1.851-1.643-.232-4.933 2.258-4.73zm-106.183 2.457.142-.002c.355.007.728.106 1.099.316 1.03.581 1.311 1.725.664 2.719-.373.572-.265.933.168.559.579-.5 1.857-.165 2.354.615 1.277 2.006-1.227 4.625-2.821 2.954-.704-.737-.973-.768-.892-.284.228.908.824 2.458.824 2.458l-2.874.046s.623-1.628.761-2.454c.107-.654-.154-.559-.84.213-.667.751-1.272.828-2.12.264-2.093-1.391-.411-4.952 1.772-3.752.752.413.858.175.27-.603-1.048-1.39.025-2.98 1.493-3.05zm149.209-1.082c-4.658 4.801-3.196 1.961-1.043 5.628.005 2.416 1.412 4.309.29 8.12-.359.744-.391 1.099-.196 1.849-.347 4.212-3.721 4.153-7.002 4.803.544-.035 5.187 8.569-3.497 9.231l.054 34.955 13.628-10.02.01-54.563zM86.939 154.381c-3.863 2.483-9.294 8.692-16.112 7.333-.853 21.808-8.032 38.683-18.26 53.18 3.522 2.089 7.399 4.595 11.002 6.203 3.05-1.568 4.762-2.221 7.757-4.679 12.298-18.944 16.217-39.665 15.614-62.036zm32.045 4.03c.675 11.201 2.484 21.811 8.299 30.327l.425-23.803c-2.076-.5-3.775-1.844-4.376-5.65zm-42.117 6.554 3.893.097s-.886 1.759-1.269 2.742c-.466 1.202-.246 1.447.643.612 1.157-1.086 2.999-1.185 3.966-.213 2.57 2.581-.127 6.778-3.168 4.931-1.302-.791-1.52-.526-.488.592 2.009 1.869-.095 4.553-2.445 4.562-1.699-.009-2.799-1.369-2.93-2.866-.064-.942.41-1.886 1.228-2.344.853-.478.243-.79-.683-.293-3.024 1.622-5.041-2.556-2.758-4.93 1.317-1.369 2.708-1.239 4.043.07q1.398 1.373 1.005-.247c-.264-1.216-1.037-2.714-1.037-2.714zm105.091 3.412 2.789.007c-.275.69-.631 1.393-.854 2.075-.241.743-.065.838.675.12 1.924-1.288 3.974.006 3.554 2.05-.289 1.41-1.472 2.101-2.836 1.486-1.203-.542-.817-.31-.134.514.813.98.604 2.123-.473 2.878-1.905 1.336-4.416-.891-3.154-2.83.744-1.153.403-1.028-.273-.471-1.016.741-2.548-.312-2.577-1.769-.114-2.096 2.003-3.273 3.492-1.788.71.599.887.526.567-.344-.293-.632-.387-1.309-.777-1.929zm.13 15.243 2.924-.03s-.041.224-.493 1.069c-.531.994-.451 2.022.103 1.325.934-1.177 2.914-.846 3.562.595.754 1.679-.722 3.53-2.252 2.824-.994-.459-1.062-.361-.403.595.642.93.355 2.071-.691 2.737-2.055 1.308-4.513-1.311-2.8-2.983.458-.448.315-.666-.241-.365-2.268 1.229-3.936-1.836-1.974-3.627.836-.763 1.473-.709 2.844.241.427.296.509-.008.202-.758-.523-1.277-.782-1.623-.782-1.623zm-108.531 1.695a5.887 5.887 0 0 1 5.967 5.811 5.892 5.892 0 1 1-11.783.156 5.89 5.89 0 0 1 5.816-5.967m.066 1.052a4.84 4.84 0 0 0-4.777 4.901 4.842 4.842 0 1 0 9.683-.129 4.84 4.84 0 0 0-4.906-4.773zm.053 1.859a2.98 2.98 0 1 1 .074 5.96 2.98 2.98 0 0 1-.074-5.96m-7.424 14.266 3.399 1.667s-1.61 1.307-2.251 1.98c-.819.868-.763 1.274.342.86 2.108-.79 4.216.399 4.252 2.586.049 2.918-3.404 4.318-5.059 2.107-.492-.658-1.08-.932-.85-.395.559 1.307.214 2.951-.764 3.625-.783.54-2.215.697-2.936.322-2.481-1.29-2.606-4.151-.23-5.278 1.194-.567 1.235-1.099.06-.808-2.446.606-3.868-2.355-2.102-4.385 1.874-2.155 4.925-1.705 5.258 1.488.059.568.447.158.621-.712.209-.646.258-3.057.258-3.057zm31.698 4.84s-12.464 7.071-12.085 7.371c.073.043 2.756 3.828 2.756 3.828 6.197-13.993 20.981-2.379 23.342 4.772.514.317.602.227 1.16.478.053-.504 1.086-5.468 1.086-5.468zm-20.039 51.451c-.625.78-2.715 2.992-2.453 3.076 18.299 3.958 37.177 3.669 56.395 1.608l-1.461-4.617c-18.981 4.811-52.482-.067-52.482-.067z" style="fill:#d40000" transform="matrix(.74528 0 0 .77291 -1.01 -1.334)"/><path d="m31.99 29.174.794 257.327 160.633-.362-.634-257.069zm48.85 1.896 80.116-.225c-3.769 9.751-14.611 25.15-14.098 25.187-16.662-2.775-33.839-4.186-53.056-.107zm-46.998.567 44.959-.001 14.794 26.597s.869 1.66.346 3.394c-.57 1.893-1.059 2.733-1.571 3.699.052-.551-4.271-1.104-3.914 2.598.242 2.506 3.411 3.927 5.775 1.981.377-.031.374.319.291.931-.22 1.435-1.75 5.989-2.796 6.29-5.318-4.372-7.227 3.597-3.64 5.191 2.077.923 5.273.166 6.77-2.33 1.145-1.909 1.018-1.594 1.375.726.133.863.321 1.862.418 2.312.303 1.406-.002 1.678-2.368 2.313-1.905.739-3.835 1.146-5.798 1.568-3.589.584-5.426 3.288-5.52 6.581-.02.712.004 1.041-.149 1.253-15.187 5.742-31.328 13.783-48.266 27.527zm101.851 63.238c-.574-.931-2.406-5.815-2.907-7.853-1.305-9.878-1.54-21.601-2.936-30.796l1.854.21s.694 2.663 1.435 9.855c.367 3.565.746 10.976 1.052 14.383.462 5.063 2.739 13.16 4.153 15.205 2.307 3.335 6.954 1.186 5.406-2.773-.803-2.054-3.925-1.725-3.495.405.007.38.297-.271.754-.671 1.349-.509 2.866.897 2.072 2.586-.986 2.157-3.895 1.168-4.857-1.553-1.149-3.251 2.739-5.682 5.643-3.696 3.235 2.212 3.234 7.808.625 9.571-4.39 1.595-7.369-1.606-8.798-4.874zm10.843 4.131c-.177-.105.006-.444.225-1.252.815-3.019.307-5.377-1.644-7.6-1.087-1.239-1.496-1.457-.926-1.681 1.209-.474 3.877 1.468 4.609 3.376.722 1.873.901 3.809-.122 5.924-.71.453-1.814 1.362-2.142 1.233m3.309-2.007c-.002-.353.237-1.468.292-2.013.214-2.107-.769-4.248-2.51-5.923-1.462-1.406-1.596-1.551-.211-1.572 3.572-.056 5.842 5.722 4.19 8.565-.425.45-1.72 1.371-1.762.943zm3.027-1.95c1.058-4.922-3.699-8.209-3.795-8.055.239-1.103 2.129-.466 2.773-.036 2.405 1.619 3.784 5.845 2.303 8.244-.161.294-.359.463-.618.622-.497.311-.79.562-.891.343-.076-.166.201-.882.229-1.117zm-41.87-16.025c.498-.488.647-.501 1.603-.139 2.994 1.135 5.39-1.011 4.686-3.271-.255-.818-1.376-1.708-2.067-1.78-1.129-.118-1.152.477.064.934 1.494.56 1.643 2.147.326 2.86-1.547 1.042-4.075-1.611-5.932-1.389-.888.264-1.457 1.093-.951 2.108.395.712 1.73 1.144 2.272.678zm-3.323-.328c-1.038-.484-1.434-.475-1.234-1.608.132-.746 1.202-5.766 1.71-7.706 1.522-5.81.103-9.034-4.185-10.339-2.906-.884-5.41-.441-8.374 1.13l-.531-1.644c12.422-3.232 33.613-2.485 33.537-2.359.416 1.672.573 3.343.735 5.015 0 0-3.968-1.953-6.039-2.604-3.19-.982-8.235.084-9.131 1.914-.508 1.038-.245 1.731 1.9.579 3.511-1.885 10.676-.436 13.199 1.571.581.462.552.563.562 1.104.016.825.064.874-1.084.258-6.019-3.087-11.166-2.736-12.946 1.304-.409-.124-1.97-.395-1.97-.395l1.674 2.482.315 2.596s2.738 1.523 4.248 2.169c1.486.632.631-.04-1.192-1.312-1.338-.934-.272-1.231.611-.873 1.817.419 4.475.952 7.553-.997.956-.605 3.142-.076 3.176.198 0 0 .288 2.27.571 7.006.134 2.24.406 5.167.561 6.369.469 3.63.604 3.837-1.303 2.094-.64-.585-1.706-1.555-1.719-1.497-.244 1.125 2.571 3.106 3.226 3.785.994 1.031 1.79 3.668 1.391 3.823-.253.099-2.926-2.175-5.03-4.219-.788-.766-1.962-1.793-1.996-1.758-.436.29 1.331 2.288 2.986 3.783 1.931 1.744 2.155 1.901 1.504 2.162-1.201.483-2.28-.121-5.19-2.534-.283-.235-1.386-1.019-1.438-.963-.266.354 2.419 2.902 3.029 3.122 1.133.408 1.458 1.504.564 1.932-.597.286-2.82-.936-4.601-2.483-.319-.277-1.206-.75-1.264-.686-.354.227 1.638 1.953 3.538 3.101 1.861 1.124 2.159 1.401 1.683 2.333-.443.96-4.528-1.269-6.57-3.561-.434-.488-.778-.698-.691-.534.887 2.469 3.815 4.241 5.994 4.948.389.128.953.286 1.207.488.62.494.482 1.007-.191 1.295-2.325.649-5.988-2.171-8.606-5.123-.304-.126-.123.26-.043.388 2.183 3.493 6.368 6.154 8.891 5.662 1.475-.288 2.659.158 2.67.652.009.405-.805 1.051-2.391 1.162-3.588.251-9.189-3.681-12.461-8.684-.102-.156-.223-.213-.231-.119-.09 1.059 1.945 3.661 3.507 5.149 4.641 4.422 9.031 5.92 12.46 3.437 1.934-1.495 3.805-4.765.929-5.863-1.523-.581-2.49 1.515-1.186.918 1.713-.204 2.1.705 1.876 1.558-.438 1.466-1.891 1.697-3.071 1.079-2.054-1.116-1.613-4.931 1.049-5.594 2.399-.576 4.489 1.46 4.761 3.388.423 2.996-2.96 6.233-5.671 7.036-9.247 2.738-16.451-10.115-16.492-10.405-.463-.893-1.02-1.366-1.373-.326-.38 1.506-2.472 5.921-3.588 5.893.349-1.558 1.816-4.176 1.464-6.471-.619 1.884-1.925 5.903-4.417 8.041-.646.587-2.54 1.276-1.235-.234 1.576-2.209 3.638-5.231 3.216-8.071-.418.637-.648 2.253-1.127 3.319-1.198 2.669-3.813 5.835-5.537 6.346-1.273.377-1.154-.052.151-1.423 1.399-1.469 3.878-5.785 3.717-7.648-.069-.822-2.575 7.11-7.268 9.276-1.267.461-1.986-.122-1.986-.122 1.845-1.059 6.944-6.073 6.471-11.777 0 0-.273.844-.675 2.11-1.734 5.442-5.448 9.016-8.34 9.309-2.309.234-3.919-.699-3.346-1.11 2.993.026 5.454-1.005 7.379-3.92 1.957-2.962 2.691-7.725 1.514-12.768-1.061-4.548-1.291-8.637-1.658-13.008 3.277 1.124 6.576 1.873 9.77.63-.322 1.302-.855 1.463-1.699 2.445-.612.718-.403.889 1.984-.792.695-.489.946-.882 1.071-.75.203.213-.115 1.554-.812 4.225-1.043 3.995-.774 4.282 3.064 5.793.716.282.983.557 1.234.857l.806 1.316c.14.094.105-1.157.028-1.473-.205-.84-.658-1.471-1.055-1.72-.753-.695-1.84-.758-2.537-1.078zm72.423 52.223.044-4.15 4.028 2.865-.051 1.37zm-6.891.893-.05-76.755s3.097-2.052 4.645-3.068c.962 3.044.948 9.57.581 12.475-.608 1.892-.889 10.313-.207 14.6.543 3.417.435 9.066-.085 11.77-.203 1.056-.054 6.008.32 10.589.286 3.501.198 6.684-.227 8.505-.335 1.435-.226 6.58.151 8.554.555 2.904.639 12.23.388 12.736-.665.752-5.865.851-5.516.594m6.233-80.316s3.114 2.062 4.615 3.093l.017 3.307-4.5-2.946zm-46.526 5.284 1.927.122c.763 3.998 1.09 8.542 1.39 13.097.089 7.024.946 14.432 2.589 19.29l-1.419 1.484c-2.405-5.567-2.584-14.344-3.115-20.285-.227-6.681-1.317-13.665-1.372-13.708m46.894-.64L184 58.982l.039 3.597-4.219-2.807zm-44.113.908 1.692.186c.509 4.746 1.294 7.967 1.588 13.195.38 6.762 1.545 12.315 2.267 17.597l-1.268.42c-.849.39-2.248-5.853-2.858-18.505-.185-3.829-.828-8.136-1.421-12.893m2.56.182 2.021.365c.878 12.013 2.277 23.296 3.748 29.762l-1.758.114c-2.168-9.242-2.296-19.932-4.011-30.241m2.919.43 1.857.324c2.2 27.473 3.579 27.12 4.009 28.201l-2.012.813c-2.164-7.897-2.588-19.026-3.854-29.338m8.4 26.993c-.319.925-1.072.838-1.894.932-.917-2.526-1.451-5.536-1.833-8.482-.839-6.473-1.137-12.542-2.012-18.93l2.216.23c-.072.049 1.544 22.527 3.524 26.251zM101.93 60.447c2.921.145 5.342 1.459 5.573 3.378.052.432-.29.222-.685-.082-2.51-1.928-5.368-2.532-8.821-1.294-.753.27-1.369.695-1.705.636-.302-.193-.395-.661-.163-1.047.807-1.345 4.356-1.662 5.801-1.59zm-6.778 3.844c.059 3.026-.68 4.693-2.268 5.39-1.917.841-4.372-.969-3.175-2.989.905-1.527 2.455-1.065 2.749.542l2.441-5.417s.247 1.717.253 2.475zm88.921-.372-.031 3.118-4.488-3.008.304-2.998zm-79.692-.508c2.212.879 3.023 1.951 3.105 2.427-.128.355-.349.112-1.964-.762-2.487-1.529-5.73-1.782-8.583.151-.711.139-.783-.264-.07-1.028 2.174-1.698 5.174-1.718 7.513-.789zm16.808-.562c1.947-.059 4.275.439 6.239 1.428.869.437 1.649.71 2.215 1.212.453.237.487 1.265.155 1.343-.296.041-.781-.19-1.505-.697-4.668-3.039-8.03-2.67-10.734-.806-.15.103-.614.209-.798.195-.515-.039-.541-.25-.326-.529 1.252-1.411 3.122-2.09 4.753-2.144zm58.377 2.258 4.498 3.152-.006 3.093-4.782-3.334zM98.3 66.26l.657.02c1.527 3.715 3.452 1.803 4.252.318l.8.131c-1.259 4.971-6.356 2.363-5.71-.469zm-1.12.494c.744.09.717.932.949 1.545.519 1.37-1.454.209-1.792-.125-.572-.604.243-1.359.843-1.42m22.283-.116c1.937 2.955 3.059 1.209 4.167-.076l.527.169c-.142 2.12-3.713 4.375-5.402-.042zm5.968.341c.208.004.625.153 1.008.308 1.061.431 1.005.745-.172 1.266-1.881.834-2.535.941-1.971-.239.325-.54.54-1.255 1.135-1.336zm-7.375.441c.473.348.783.733.837 1.359.038.441-1.429-.069-1.426-.772.047-.447.289-.808.589-.588zm-13.008.152c.964.359.848.818.176 1.234-1.207.671-1.724.538-.942-.518.36-.487.439-.706.767-.715zm74.21 1.651 4.871 3.433-.047 3.146-4.867-3.326c-.225-1.348-.01-2.255.043-3.253m-84.262 4.762c.231.006.322.77.374 1.888.088 1.858-1.807 4.442-3.719 5.33-2.303 1.07-4.766-.438-4.351-2.667.383-2.055 3.303-2.136 3.411-.237-.285.499.113.918.276.874.751-.201 2.524-1.792 3.247-3.573.282-.694.453-1.409.654-1.571zm84.125-.472 4.868 3.561.018 3.126-4.827-3.33c-.189-1.393-.105-2.387-.058-3.357zm-59.122 4.875c-.369.618-.068 1.727.688.784 1.944-2.257 4.752.574 3.245 2.369-1.367 1.629-3.046 1.102-6.592-.257-2.583-.99-2.991-.654-3.629.058-.525.586-.26 1.768.42 1.755 2.094.478 3.907.943 6.074 1.397 4.581.946 7.383-4.952 3.2-7.126-1.001-.52-3.074.151-3.406 1.022zm-20.223.654c-1.789 1.599-.329 5.812 2.301 6.191.551.079 1.373.058 2.307-.21 1.841-.529 3.87-1.615 3.954-2.249.381-2.881-3.913-.303-4.481.038-1.354.819-2.786.711-3.505-.265-1.622-2.2 1.294-4.719 3.06-2.027.446.679.29-.471-.196-1.253-.686-1.104-2.462-1.035-3.44-.224zm79.661-.806 4.575 3.242-.03 3.01-4.436-3.207zm.337 4.407 4.333 3.125.07 3.129-4.548-3.001c.091-1.126.113-2.185.145-3.252zm-24.316 1.766c3.813.068 5.957 5.704 3.943 8.045-.599.697-1.077.883-1.347.622-.058-.056.038-.686.078-1.398.127-2.271-.354-3.826-2.013-5.553-1.244-1.295-1.715-1.696-.661-1.717zm-46.953.838c-.721.256-1.483.775-2.073.646-.583-.127-.862.161-1.09.617-.875 1.747-.606 2.312 1.126 1.322.822-.47 1.109-.301 3.305.117 1.57.298 2.638.27 4.02-.086 1.718-.443 2.742-.477 3.61-.001s1.462 1.132 1.485.599c-.096-.624-.638-2.221-.763-2.751-.06-.255-.488-.031-.892-.002-1.424.101-3.121-1.181-4.221-.506-.881.541-.998.683-2.204-.027-.899-.529-1.522-.204-2.302.073zm45.926.45c2.579 2.159 3.238 4.073 2.986 5.642-.13 1.142-.216 2.403-1.336 3.088-.206.098-.514.159-.8.2.872-3.242-.147-6.147-3.793-9.251 1.063-.524 2.145-.347 2.943.32zm-58.234-.08c.115 0 .241.019.369.061.448.148.517 1.32.164 1.687s-.638.064-1.045-.869c-.303-.508.016-.879.512-.88zm-2.385.909c.943-.018 1.299.845 1.46 1.533.137.586-.039 2.336-.539 1.725-.12-.371-.63-1.568-1.04-1.879-.912-.693-.82-1.362.119-1.38zm-2.655.866q.207-.006.529.05c1.471.248 2.595 2.592 2.251 3.92-.781 1.428-1.068.464-1.323-.832-.2-.538-.802-1.38-1.171-1.816-.766-.903-.884-1.306-.287-1.322zm88.487-.568 4.477 3.217.003 3.437-4.686-3.158c.106-1.203.161-2.355.206-3.497zM88.245 88.1c2.195.007 4.065 2.561 3.37 5.019-.861 2.564-5.133 2.011-4.42-.546.205-.735.991-1.273 1.74-.811 1.082.667.965-.416.277-.801-1.061-.594-2.521-.237-2.847.963-1.139 4.183 4.239 5.617 7.172 1.297 1.072-1.579 2.239-3.268 2.883-3.988.579-.647.702-.579.607.256-.378 3.888-3.096 8.744-8.18 8.471-4.941-.476-6.479-5.72-2.743-8.987.628-.549 1.288-.819 1.928-.866l.212-.008zm26.185.245c-1.81.873-3.449 1.203-5.228.425-1.315-.574-1.295.047-.724.559 1.651 1.409 4.659.776 5.948-.014.418-.257.557-1.001.004-.97m69.699 6.304.01 3.126-4.998-3.358c-.078-.748.007-1.885.173-3.059zm-4.824 1.038 4.76 3.142.122 3.099-4.625-2.876zm.327 4.346 4.546 3.153.061 3.382-4.504-2.972zm-110.969 3.414-2.796 8.41 1.823.113 1.228 2.221 1.268-2.273 1.919-.143zm111.152 1.265 4.382 3.019.063 3.124-4.552-3.155zm-.183 3.824 4.492 3.253.085 3.319-5.091-3.401zm-100.594 1.749-2.769 9.004 1.555-.209 1.453 2.411 1.472-2.162 1.393.081zm-20.758.643-2.638 8.95 1.76-.004 1.484 2.26 1.307-2.179 1.996-.05zm120.761 1.803 5.272 3.708.039 3.524-5.11-3.432zm5.205 8.376.055 3.086-4.436-3.165-.477-3.428zm-94.191.411-3.235 9.095 2.162.023 1.308 2.187 1.052-2.194 1.737.019zm90.1 1.022 4.115 2.828-.036 3.169-4.052-2.721zm-78.11 36.72-2.344-2.258c-.029-.184 1.92-1.125 3.119-.523 1.583.795 2.393 3.646.618 5.145-1.413 1.192-3.565.196-3.607.056zm-2.084-3.722c.046-3.484-1.788-4.38-3.304-5.088 0 0-.225-22.076-.192-22.736.001.096-.386-2.391-.43-2.538l-.364-.094c.061 2.238.178 25.177.142 25.326-2.84.324-3.636 2.245-3.896 4.826-2.215-.169-3.658 1.163-3.703 1.384-.817-1.125-.205-2.779-.849-3.952-1.972 6.862 1.841 10.974 5.173 10.595.526 6.591 7.784 7.792 7.548-.202 8.783-.504 5.818-8.582-.125-7.521m-41.228-27.767-3.19 8.91 2.229-.251.81 1.646c3.574-3.141 5.37 1.718 3.559-2.449zm120.847 16.016c.41-.03.95.341 1.057.845.076 1.505-1.947 1.164-2.01.214-.045-.675.568-1.031.953-1.059m1.309 9.789c.873-.715 2.261-.308 2.282.77.019.956-1.078 1.269-1.935.731-.664-.406-.705-1.162-.347-1.501m.12 2.653c4.781.37 8.342-2.873 6.822-5.206 1.286-1.613.24-2.541.592-3.466 1.016-1.039.17-3.278-.084-3.287-.204-3.003-1.076-3.389-2.372-4.99-.389-.464.911-.916 1.411-1.713-1.322.506-2.618-.476-2.611-.699l-.562-.699c-8.855.401-16.806 1.009-16.521 13.014-1.28 5.094.872 9.635 7.054 8.241 1.354-1.207.466-2.959.301-3.801-.525-2.317.086-3.821.258-4.905.53-3.355 2.993-6.467 3.254-1.207.432-.66.229-.757.94-1.03 1.698-.61 1.693 1.105 1.345 1.797-.224.355-.56.325-.906.285-.494-.06-1.138-.243-1.148-.424-.134.546.895 1.563.787 2.075-.137.486-.224.447.227.125 2.132-1.52 3.461 1.885.38 1.492 1.517.812-.733 3.182.835 4.399zm-3.129-18.326c1.679-.083 2.081-.098 2.002.783.316 1.626.723 2.381 2.843 2.213 2.137-.275 2.815-.408.663.88-1.086.477-1.439.57-2.726.452-1.297-.118-1.198-.249-1.939.193-.414.247-.867.547-1.204.608-.499.09-1.378.281-1.378.281-.503 2.524-1.264 3.794-2.312 4.993-1.482 1.68-2.233 1.973-.419 1.849.671.042.324-.294.614 2.428.101.953.278 2.059.419 2.43.47 1.241.533 1.857-1.261 1.943-4.478.333-5.517-4.025-4.918-6.251.052-.35.258-1.509.303-2.429.025-.502-.076-.928-.063-1.442.107-4.151 1.093-5.244 4.782-7.938 1.113-.813 3.109-.977 4.594-.993m3.932.229c2.067-.04 4.062.955 3.065 1.598-.644.416-2.969.24-3.614-.22-.832-.594-.519-1.357.549-1.378m-92.168 3.407-.821 1.45-.864 6.756.15 1.371 1.688 2.218 1.341-2.296 2.105.039zm96.636-.55c1.338.27 1.389 1.491 1.048 2.243-.75 1.653-5.759 2.446-5.759 2.447-.039-.71.061-1.394-.459-2.194 0 0 3.336-.868 4.042-1.51.472-.429.758-.972 1.128-.986m.986 3.764c.485.007.743.359.873 1.074.062.383-.083.71-.396 1.129-1.274 1.38-4.848 2.332-6.138 1.979-.091-.12.131-1.574.225-2.221 1.718.054 4.614-1.466 5.435-1.96zm-50.947 8.44c-1.704-2.465-5.492-2.109-5.086-1.936.03-2.109-.327-5.006-3.528-5.319-3.228-.249-4.893 4.008-3.67 5.813-1.992-.83-4.983 1.24-4.983 1.435-.254.008-2.546 6.04 4.364 6.359.625 2.85 1.701 4.229 3.909 5.404l.025 23.253.779 1.056.1-24.368c3.537-.152 3.978-4.198 3.717-5.132 1.571.07 2.998-.244 4.201-1.158l.408 3.973s.831-1.4.65-2.144c-1.51-22.839 6.783-47.533 17.65-63.533.581-.671.759-1.474 1.046-1.479 2.647-1.422 4.319-2.378 4.319-2.378 4.359 2.101 12.14 7.17 12.14 7.17l.085 32.542c-.12-.32 14.514-1.614 14.294-1.219 0 0-1.282-.503-1.3-1.359l-.284-76.151-6.396-4.189s-5.268 3.432-6.741 4.606l.104 44.833-11.331-6.657s.184-1.585.201-2.1c-.173-6.118-3.175-8.174-8.896-6.367-.767.242-1.3.455-1.674.141-2.399-7.041-3.458-25.538-3.455-25.538l16.173-27.317 27.377-.116.339 104.452.921 54.75-13.986 10.158-.159-35.072s-2.001-.959-2.525-1.025c-.197-.015-.452.425-.096.652.513.328 1.776.788 1.776.788l.252 34.761s-5.437 3.649-7.868 5.169c-1.812 1.123-7.543 4-10.937 5.656-1.317.643-2.647 1.158-2.769 1.258-4.623 1.979-8.791 3.364-12.645 5.409-2.659 1.084-2.538.019-3.103-.851-5.539-5.49-12.698-5.824-18.502-3.299-.899.332-2.013.621-2.765 1.141-.217.16-.596.339-.844.398-.509.12-1.066.345-1.534.714-.835.658-1.391 1.733-1.87 2.8-.296.66-1.187 3.742-1.305 4.656-.02.153.296.119.307.134.04.056.897-3.732 1.235-4.449.723-1.53 1.633-2.446 2.115-2.589.22-.037.41.304.112.843-.593 1.071-1.078 3.35-1.223 4.377-.13.948-.156 1.709.021 1.742.031.03.873-2.87 1.252-3.893.987-2.669 1.608-3.774 2.556-4.342.972-.583 1.203-.5 1.01.12-1.449 2.816-2.048 4.947-2.335 7.949-.044.598.259.616.499-.375.796-3.15 1.887-7.411 4.456-8.68 1.096-.494 1.583-.469 1.465-.116-3.062 3.857-3.832 8.144-3.798 9.529.011.462.198.37.592-.629 1.04-3.804 2.579-7.039 4.403-8.625.706-.614 1.56-.782 2.274-.87 2.159-.265 2.232.535.351 1.627-2.142 1.244-4.624 5.775-4.903 9.18-.097 1.178.32 1.306.617-.264 1.278-6.766 7.086-11.233 11.734-9.154 2.091.935 2.469 2.231.648 1.653-3.686-1.171-7.783 1.436-9.476 5.08-1.53 3.294-1.5 5.025-.433 9.44.726 4.078 2.146 9.289 1.67 13.281-.508.776-2.108-.322-3.998-.557-1.14-.215-2.533-.271-3.725.183-1.039.396-1.628.494-1.819-.064-.062-.18.802-1.058 1.187-1.543.615-.776.263-.901-.604-.058-.424.412-1.336 1.377-1.586 1.428-.547.11-.568-.506-.125-2.075 1.556-6.089 1.142-6.192-1.512-7.429-2.63-1.006-1.797-1.51-2.961-2.508-.822.641 1.068 3.587 3.21 4.233 1.752.529 1.537 1.424.767 3.834-.783 3.373-2.117 7.838-1.352 10.835 1.607 6.298 8 6.178 12.899 3.639l.595 1.606c-4.142 1.671-25.963 3.075-33.316 2.221-.566-1.988-.622-2.499-.849-4.838 0 0 4.54 2.057 6.807 2.415 2.83.448 7.19.474 8.31-2.131.343-.764-.007-1.41-.985-.969-1.797.812-4.867 1.41-7.346 1.254-2.081-.131-5.047-.97-6.329-1.744-.609-.368-1.123-1.086-.644-1.987.423-.093.979.375 1.308.544 3.753 1.9 5.812 2.27 8.263 1.547 1.859-.549 4.364-2.55 3.747-3.119-.628.217-2.712 1.963-4.148 2.342-2.956.781-6.105-.425-9.172-2.417-.946-.823-.513-1.422.646-.763 4.595 2.32 6.51 3.858 10.914.616.984-.727 1.532-.633 2.108-.191 2.282 2.049 2.276.9.605-1.227-.38-.483-.723-1.16-.95-1.88-.168-.532-.205-1.065-.509-1.416-.518-.597-1.452-.887-2.519-1.359-1.541-.68-2.054-.354-.917.202 1.992.974 2.961 2.017.486 1.452-2.245-1.008-5.997-.45-8.121 1.02-1.667.81-2.402 1.679-2.793-.159-.819-3.837-.009-9.039-1.105-15.734-.209-1.276-.465-2.086-.198-2.26.343-.224 1.197.604 2.256 2.094.482.679 1.441 1.986 1.436 1.714.038-1.417-2.163-4.08-3.981-5.13-.999-.577-1.675-3.239-.532-2.652.882.431 5.471 4.475 6.343 5.915.405.669.749.243.32-.544-.257-.472-1.336-1.859-2.383-2.884-1.859-1.819-2.075-1.735-1.717-2.106.708-.736 2.22.215 4.915 2.66.691.874 1.605 1.664 1.493 1.23.277-.68-2.42-3.586-4.021-4.366-.299-.188-.34-.386-.312-.747.154-1.371 3.252.647 5.822 3.001.963.882.166-.776-.949-1.903-.876-.886-2.289-1.988-3.248-2.367-.952-.394-1.011-1.225-.263-1.572 2.579-.106 5.238 2.533 6.823 4.607.437.57.839 1.009.384-.069-1.466-3.246-4.521-5.077-6.638-5.451-1.72-.303-1.68-1.856-.064-1.678 1.778.196 4.689 1.804 7.155 4.292.717.724 1.924 2.366 1.676 1.403-.005-.262-.762-1.29-1.636-2.281-2.017-2.008-4.363-3.784-6.852-4.315-1.163-.331-4.619.331-4.638-.268-.009-.442.362-.707 1.463-1.071 4.271-1.415 10.516 2.261 13.928 7.904.244.404.707.576.735.485-1.644-4.61-6.766-8.794-10.844-9.515-2.774-.449-5.571.256-6.904 2.123-1.499 2.101-.917 4.916 1.33 4.693 1.179-.107 1.086-.776 1.064-.798-.08-.079-.766.242-1.19.158-1.536-.304-1.372-3.082.877-2.805 2.586.319 2.946 4.398.055 5.252-2.669.788-3.645-.431-4.373-1.878-1.066-2.118.085-5.529 1.972-6.836 5.279-3.656 11.946-.578 15.711 3.059a16.7 16.7 0 0 1 4.076 6.242c.219.536.616.505.474-.07-5.284-13.531-21.102-15.012-23.466-4.64 0 0-.082.317-1.601-1.848-2.461-3.509-6.144-4.295-10.683-1.91-4.586 1.716-6.133 2.811-9.313 4.45-.464.163-3.404 2.187-3.875 1.765-4.497-2.99-8.421-4.013-10.555-6.203.074-.402-.298-6.467-.298-6.467l.138-26.15c.032-.255-2.383.17-6.404.795-10.692 2.12-9.75-3.5-11.164-3.898-.747-.15-.692.17-.87-19.991-.052-5.856-.155-16.15-.232-22.877s-.093-12.331-.033-12.45.661-.633 1.354-1.122c2.607-1.842 4.071-2.957 9.777-7.299 1.292-.983 1.618-1.149 1.618-1.149.639 12.113.036 24.833.344 35.246l.481.003-.142-34.965c-.983-.259 22.493-13.956 35.354-18.392.241-.083.842.185.842.185 7.367 9.052 26.784 6.339 28.363-4.667 3.208 6.715 17.323 19.772 23.8 4.063 0 0 2.334 4.518 4.342 4.819 4.512.605 5.013-.107 14.952-4.911-11.378 17.214-17.664 35.448-18.494 57.539zm-6.031-4.303c.247.761.33 1.745.116 2.521-.291.606-.723.597-.723.597l-2.197-1.883-2.154 1.992s-1.315-1.328-.589-3.166c1.379-2.567 4.529-2.099 5.547-.062zm56.828-.231c1.408-.087.678 1.532-1.406 2.627-1.308.687-2.392.88-2.861.631a2.34 2.34 0 0 1 .123-1.763c.889-.455 3.332-1.253 4.144-1.494zm-90.901 2.935c1.563-.036 2.917 1.079 2.964 3.052.019.804-.394 1.6-.394 1.6l-2.61-1.928-1.998 2.125c-.34.119-1.561-1.407-.718-3.065.612-1.205 1.686-1.758 2.756-1.783zm37.767.954c2.196.999 2.573 4.071.435 5.252-1.016.561-2.615.873-3.361-.266l2.163-2.352-2.477-2.089c-.097-.097 1.901-1.155 3.241-.545zm52.744-.74c.379 0 .475.145.583.499.307 1.004-.478 2.012-1.831 2.33-1.251.294-1.132.44-1.722-.678-.463-.876-.587-.839.14-1.115a37 37 0 0 0 2.83-1.036m-62.498 1.427s-1.561 1.582-2.244 2.244l2.344 2.451c.113.298-2.708 1.57-4.189-.357-.961-1.251-.416-3.628.952-4.442 1.397-.831 3.398-.137 3.138.104zm3.361-.272a2.51 2.51 0 0 1 .067 5.016 2.508 2.508 0 1 1-.067-5.016m-34.29 4.177-2.253 2.352 2.43 2.651s-1.925.312-2.609.183c-3.311-.624-2.982-4.507-.419-5.531 1.082-.378 1.885-.25 2.851.345m-44.16.743s.436 4.99.839 6.694c-.269 1.944-1.528 3.266-2.097 5.262-.303.888-1.438 2.081-1.655.829-.816-1.547-.032-3.457-.707-4.559-.341-1.028-.238-1.621-.465-2.698-.498-.876-.899-1.29-.83-2.085-.13-3.527-1.012-2.829-2.578-2.543-1.291.424-3.033.593-4.055 1.347-2.219 1.558-1.014 2.455-1.852 4.81.131 1.033.382 1.405.2 2.296-.861 4.209.718 3.862.67 3.927-.659.967.15 3.144.465 3.033 1.926.475 1.226 1.881 1.852 2.628.628.722.595 1.087 3.234 1.156 4.768.379 12.346-.32 13.991-6.132 1.032-8.196 2.534-15.416-7.012-13.966zm47.407-.743a2.42 2.42 0 1 1 .065 4.84 2.42 2.42 0 0 1-.065-4.84m-45.32 1.214c.901-.01 1.963.181 2.836 1.02 1.869 1.796 1.948 3.423 1.109 10.326-.236 1.945-.923 3.57-1.831 4.277-1.824 1.42-4.055 2.432-5.894 2.882-.97.237-1.814.242-2.47.236-.709-.006-1.122-.334-1.173-.928.158-1.607-1.483-1.766-2.434-1.676-1.695.065-1.868.243-.81-.575 1.208-.933 3.989-.943 4.516-.395 1.086-1.084 2.217-1.21 3.602-1.369-.205-.301-.699-1.506-.37-2.279.719-1.259 1.927-3.481 3.195-4.314 1.255-1.636.19-.897-.587-.87-.444.015-.406-.131-.478-.428-.308-1.276-.75-3.662-.752-5.082-.001-.685.64-.813 1.542-.823zm-7.981 1.758c.489.436.482 1.043-.033 1.494-.589.516-1.756.23-1.784-.744.079-.982 1.224-1.258 1.817-.751zm84.495 3.564c-2.032.099-3.703-2.077-2.934-4.243.42-.586.601-.502.601-.502l2.311 2.069 2.222-2.318c1.825 2.208.253 4.832-2.2 4.993zM40.769 160.2c-.167.634.051 1.266.078 1.574-.403.286-2.119.785-3.039 1.237-.639.219-1.102-.382-1.012-.93.243-1.021 1.747-1.686 2.838-2.001.337-.082.892-.112 1.136.12zm.373 2.923c.619-.074.435 1.273.202 1.962-.231.492-.913.471-1.525.506l-3.033 1.106c-.194-.09-.332-.603-.352-.93.129-1.798 3.118-2.454 4.708-2.644m3.267 1.878c-.207.301-.871.446-1.426.293-.908-.25-1.046-1.555-.248-2.003 1.409-.464 2.254.858 1.675 1.71zm89.804-2.855-1.235 1.876-1.874-.037 3.016 9.295 1.406-3.629c.191-1.669.414-3.335.59-5.006zm-39.864.732 2.394 1.958 2.058-2.098c1.525 3.41-.239 4.968-2.113 4.925-2.068-.048-4.269-2.01-2.338-4.784zm-52.608 3.456c.759-.143.432 1.908.326 1.967-.485.178-2.575.449-3.456 1.189-1.876 1.466-2.675.569-1.804-1.189.823-1.022 3.846-1.949 4.934-1.967m2.385.101c.836-.077 1.42.848.909 1.727-.693.643-1.907.169-1.901-.742-.004-.573.47-.956.992-.985m-1.238 5.203c.114.479-.053.331-.931.588-.484.142-1.245.464-2.037.862-1.162.585-1.488.9-1.9.832-.327-.072-.705-.214-.806-.546-.403-1.326.679-2.676 3.195-3.601.523-.192 1.459-.347 1.779-.382.854.004-.06 1.313.7 2.247m1.489-1.992c1.216-.016 1.442 1.598.532 1.881-2.13.548-1.947-1.884-.532-1.881m-1.507 5.943c.342.329.389.867.006 1.147-.703.346-3.4.047-3.417-.71-.01-.5.892-.667 1.731-.683.838-.015 1.407-.017 1.681.246zm121.773.983-2.226 2.97 2.973 7.469 2.736-9.036-2.141.845zm-125.753 7.51c.485 22.993.331 75.68.331 75.68l6.538 4.456 6.896-4.942c-.049-16.584-.101-28.024-.147-43.378l10.089 5.558s.309.447.26 2.522c-.705 5.729 4.831 9.455 8.51 7.198 1.419-.594 1.535-.7 1.835-.252.825 1.234 1.75 6.513 1.901 9.881.228 5.074 1.55 15.42 1.872 15.49l-16.468 27.821-25.616.092-.16-103.544c1.329 1.57 1.935 2.599 4.159 3.418m95.35-2.095-1.235 1.881-1.487-.004 2.596 9.627 3.17-9.406-1.74-.218zM51.865 258.62s-3.2 2.291-4.223 2.949c-.537.201-.797.238-.924-.276-.156-.631.097-1.825.323-3.799.208-1.825.207-1.928-.093-4.53-.314-2.717-.351-2.831-.09-6.417.292-4 .352-7.884.038-10.289-.298-2.286-.287-7.501-.053-10.411.287-3.563.199-6.689-.264-9.275-.826-4.61-.962-6.198-.09-9.665.326-1.297.488-1.987.423-4.16-.072-2.416-.116-3.205-.974-8.556-.494-3.081-.532-3.504-.059-8.376.095-.983.128-1.641.503-1.953.438-.364 4.999-.623 4.999-.623zm-11.898-74.45 4.968-.048c-.385 1.555-.473 2.738-.514 3.863l-4.409-2.905zm.07 1.988 4.364 2.857c.003 1.203-.088 2.351.085 3.553l-4.424-2.944zm.002 4.525 4.671 3.202c.181 1.245.56 2.504.704 3.623l-5.295-3.593zm151.171 1.452.128 91.808-46.534.149-14.713-28.356s.153-2.606.52-3.936c.443-1.607.561-1.958 1.18-2.033 1.655.859 3.501-.278 4.068-1.532.698-1.544-.708-3.885-2.869-4.394-.953-.228-1.995.199-3.049 1.001-.612.51-.749.567-.87.123-.273-1 .618-3.718 2.209-6.05.885-1.297 1.124-1.67 1.409-1.175 1.153 1.998 3.632 1.588 4.574.461 1.14-1.364.906-4.477-1.671-5.305-5.042-1.62-7.363 3.438-7.3 3.425l-1.072-6.069c6.074-1.48 9.579-2.001 11.51-3.839 1.519-1.447 2.246-3.951 2.061-6.179 0 0 16.875-6.829 24.774-11.073 13.6-7.307 25.646-17.025 25.646-17.025zm-25.683.632-1.25 2.192h-1.77l3.568 9.269 2.746-9.669-1.706.15zm-125.274 2.499 5.352 3.7c.116 1.199.268 2.267.106 3.626l-5.634-3.737zm104.504-1.002-1.336 1.769-1.536-.164 3 9.178c.919-2.65 1.758-6.249 2.667-8.903l-1.424.066zm-104.605 5.718 5.538 3.678c.02 1.134.072 2.202-.324 3.002l-5.227-3.362Zm114.983.676-1.349 2.585-1.792-.245 3.194 8.797 3.514-8.707-2.169.114zm-114.978 3.599 4.801 3.535c.069.051-.271 1.609-.195 2.492l-4.568-2.823zm.124 4.364 4.477 3.084c.009 1.167.087 2.265.27 3.258l-4.861-3.164zm-.083 4.447 5.176 3.694.27 2.964-5.484-3.458zm42.644 1.29c4.969 1.86 9.619 11.319 9.46 23.558-.11 8.497 2.442 20.629 2.394 20.488 0 0-1.442.191-1.85-.129-1.865-6.241-2.48-12.835-2.769-18.273-.237-4.535-.492-8.985-.778-10.024-.812-3.658-1.692-7.925-4.026-10.707-1.819-2.098-3.894-2.466-5.138-.114-1.019 1.926 1.117 5.119 2.895 4.061.43-.241.687-.649.124-.638-1.844.271-3.08-2.281-1.911-3.495 2.058-2.138 5.647 2.636 3.976 5.26-.736 1.134-2.658 1.332-4.195.912-3.418-1.658-4.27-5.707-3.122-8.373.875-2.033 2.793-3.245 4.94-2.525zm-6.016 1.208c.404.019.128.764-.247 1.925-.883 2.784.761 7.112 3.045 7.977.685.467.648.644.19.901-1.493.836-4.196-1.681-4.907-4.482-.514-2.027-.384-4.417.591-5.431.533-.554.957-.845 1.244-.885l.085-.006zm-36.688 1.595 5.527 3.622c.256 1.129.141 2.331-.033 3.545l-5.532-3.865Zm33.382-.003c.41-.012.256.675.141 1.929-.268 2.905.63 5.019 2.68 6.775.865.741 1.102.973.729 1.361-.53.55-2.045-.19-3.233-1.431-2.175-2.272-2.891-6.558-1.192-8.108.373-.34.661-.52.876-.526zm61.529.583c2.364-.089 4.358.83 4.574 3.719.316 4.229-3.628 6.537-6.374 4.105-2.461-2.441.041-6.253 2.895-4.462 1.435.908-.282 2.97-1.442 1.901-.523-.482-.754-.183-.382.373 1.122 1.68 3.338.287 3.181-1.191-.308-2.906-3.879-2.874-5.225-1.737-1.842 1.555-3.466 3.846-4.677 5.516-.992 1.449-1.204 1.41-1.056-.381.393-4.733 4.818-7.704 8.506-7.843m-64.375.843c.376-.013.226.527.253 1.918.147 3.573 1.651 5.799 3.559 7.046.639.708-.181 1.208-1.385.864-2.743-.849-5.538-6.748-3.209-9.281.327-.355.584-.541.781-.548zm-2.67 1.168c.38-.024.164.766.198 2.256.071 3.137 1.04 4.645 3.37 6.562.759.625.854.555.553.9-.8.919-3.505-.387-4.657-2.267-1.371-2.238-1.568-5.611-.289-6.883.358-.356.624-.555.823-.568zm-2.656 1.508c.315.002.138.568.185 1.923.113 3.285.861 4.911 2.944 6.434 1.308.956 1.627.671 1.226 1.048-.702.661-2.62.09-4.058-1.127-2.155-1.824-2.755-6.317-.999-7.853.313-.274.537-.426.702-.425m-25.121.432 5.311 3.691-.154 3.111-5.284-3.586zm92.937 5.952c-2.164-.446-2.98-2.009-2.715-3.778.089-.591.435-.929.804-.156.317 1.227 1.133 2.928 2.251 3.26.45.134.073.759-.341.674zm-46.534-3.732c2.433 6.146 2.381 12.859 2.777 19.202.527 8.431 2.011 14.111 2.497 15.069 0 0-2.383.024-2.503-.321 0 0-2.235-11.183-1.889-16.711.032-6.187-1.165-11.627-1.898-14.072-.775-2.166-.811-.736 1.016-3.167m-46.438 2.34 5.11 3.349a45 45 0 0 0-.073 3.432l-5.008-3.554zm68.768-.198c.004.186.739.344 1.893.067 1.281-.308 2.556-.251 3.539.02 1.046.289 1.161-.049.216-.463-.461-.202-1.194-.661-2.293-.643s-3.362.614-3.354 1.019zm20.716-.103c.124.23.513.746.86 1.15.657.764.842.77.542 1.081-.69.717-2.137-.326-2.291-1.654-.134-.97.351-1.582.889-.577m-45.791.203c2.384 3.407 2.726 11.39 2.768 17.064.038 5.11 1.755 14.474 1.894 14.434-.492.289-1.154.187-1.775-.054-.613-.801-.987-3.044-1.692-9.118-.182-1.567-.536-6.551-.613-10.564-.067-3.54-2.035-11.205-2.035-11.205s.769-.545 1.453-.558zm-2.66.848c2.171 4.86 2.519 9.683 2.609 15.535.086 5.536 1.307 12.022 1.768 14.885-.735.075-1.511.135-1.818-.196-.196-.269-.35-.689-.446-1.232-.984-4.789-1.214-9.995-1.493-14.399-.417-6.824-.524-8.513-1.488-11.916-.546-1.93-.739-1.89-.324-2.261.315-.282.917-.423 1.192-.417zm24.472 1.148c.057 2.26.349 1.34 1.148.981.601-.05 1.092.279 2.209.69 1.422.524 1.294.699 2.294.21.617-.302 1.109-.406 1.404-.166 1.168.951 2.678.418 3.528-.35.663-.345 1.386-.156 1.947-.103.809.075.599-.441.7-1.463.09-.908-.257-.988-1.196-.683-.961.312-1.915.356-2.749.1-2.131-.654-3.693-.233-4.75-.068-2.497.389-2.63.137-3.195-.221-.422-.267-1.118-.76-1.359-.745-.241.014-.162.833.019 1.818m22.15-1.01c.238-.121.347.202.677.633.552.721.713 1.06.249 1.127-1.226.176-1.531.047-1.487-.715.035-.608.169-.845.561-1.045m-49.189 1.01c1.798 1.816 2.241 11.988 2.443 14.178.634 11.867 1.758 13.573 1.178 14.463-.681-.012-.919.24-1.363-.357-1.535-4.349-1.44-8.815-1.683-13.35-.344-6.006-.937-9.26-1.778-12.237-.559-1.98-.552-2.012.462-2.555.18-.096.58-.148.741-.142m-2.426 1.427c.632 1.442 1.897 7.995 2.063 13.65.132 4.491 1.193 13.272 1.391 13.32-.655.059-1.441-.075-1.758-.572-1.952-8.658-1.316-17.049-3.574-25.756.136-.422.855-1.117 1.878-.643zm-35.97 1.021 5.299 3.809.109 3.246-5.408-3.847zm78.829-.309c-2.996 1.158-3.772 2.111-3.302 2.949.396.706 1.587.46 4.779-.867 2.385-.992 3.132-.556 3.614.946-.026 2.217-2.178 2.473-3.391 2.166-.522-.021-.444.028.111.723 2.466 1.94 5.499-1.843 3.993-4.246-1.178-2.195-3.221-2.822-5.804-1.671m-18.797.876c-2.473 1.936-1.595 5.43.461 5.956.572.291 1.425.155 1.76-.066.309-.204.306-.537-.325-.642-1.908-.32-2.991-1.721-2.066-3.139.897-1.376 2.555-1.11 5.743.268 2.756 1.192 3.965.826 4.292-.6.144-.63-.03-1.22-1.353-1.271-3.679-.141-6.115-2.382-8.511-.507zm33.06 5.389c-.163-1.006-1.798.024-2.884 1.804-1.068 1.751-1.179 2.002-1.393.182-.32-2.714 2.499-4.832 4.256-4.898 2.116-.241 3.504.944 3.557 2.308.103 2.685-3.101 2.707-3.536.605zm-93.214-1.721 5.612 3.864s.187 2.068.065 3.178l-5.636-3.616zm67.437 1.382c-2.445 1.653-1.013 4.678.695 5.021 1.801.361 1.929-.896.139-1.269-.957-.377-1.201-1.289-.827-1.992.856-1.396 2.434-.49 3.352-.053 2.037.972 3.093 1.328 3.737.658 1.145-1.19.128-3.315-1.384-2.568-.408.202-.715.393-1.582.177-1.316-.277-2.895-.573-4.131.026zm-67.396 3.204 5.52 3.789-.173 3.344-5.182-3.812zm.108 4.597 5.192 3.71a20 20 0 0 0 .012 2.876l-5.251-3.399zm91.892.83c4.167.413 2.779 5.197-.128 3.901-.775-.585-1.009-.538-1.874 1.561-1.106 2.684-1.375 2.465-1.219-.637.115-3.038 1.513-4.803 3.222-4.825zm-32.832.687c.098.003.178.019.227.058.281.316-.566 1.565-1.283 2.297-.529.346-1.811-.592-1.499-1.047.365-.444 1.882-1.241 2.554-1.308zm5.557 2.472-.745.106c-1.122-2.507-3.459-1.936-4.183.39l-1.027-.118c1.041-2.851 4.743-4.596 5.955-.377zm20.98.599-1.26.074c-1.127-2.72-2.728-3.128-4.089-.444l-.976-.283c1.684-3.43 4.494-3.702 6.325.654zm-6.297-3.108c.645-.038.561.259-.111 1.175-.585.797-.727.922-1.312.486-.961-.715.638-1.61 1.424-1.661zm5.972.088c.123.008.267.02.43.06 1.299.323 1.894.939 1.256 1.728-.398.492-.785.684-1.046.354-.875-1.446-1.359-2.186-.64-2.142m-19.627.83c.135.538-.291.92-.765.472-.193-.182-.361-.494-.336-.723.298-.279 1.008-.046 1.102.251zm-65.704 1.764 5.338 3.844c.174 1.352.209 2.378.199 3.301l-5.495-3.651zm77.878 1.262c3.075 2.112 6.683 2.089 8.943.24.505-.413.945-.43.953-.033-.323 1.478-4.25 3.368-7.314 2.29-1.683-.592-3.066-1.179-4.169-2.753-.655-1.025.695-.363 1.587.256m-1.304 1.026c4.493 3.886 8.071 2.813 10.783.86.4-.099.406.261.495.931.113.858-.6 1.281-2.55 1.862-3.769 1.123-8.188-.118-8.981-2.645-.093-.497-.283-1.142.252-1.007zm-76.599 2.226 5.412 3.722-.176 2.839-5.272-3.574zm.081 4.35 5.109 3.472-.02 2.35-4.97-3.549zm37.139 1.151c21.809 4.963 37.272 2.639 52.448-.015l13.409 26.38-81.004.005c5.301-8.561 9.714-17.923 15.147-26.369z" style="fill:#131f67" transform="matrix(.74528 0 0 .77291 -1.01 -1.334)"/><path d="m58.355 21.37 3.008 5.832.006.275 1.663 3.367.25.167.375.734.042.357.929 1.54-.006.33 3.938 7.597c3.248-1.257 29.93-3.521 39.81.183l1.439-2.53.344-.002 2.538-4.616-.04-.388.854-1.01.124-.46 2.8-4.544.01-.732 3.501-6.055zm60.415.872s-1.827 3.642-2.768 5.114c-.762-.623-2.97-.2-2.838 2.214-3.6-1.415-4.468 3.039-1.685 4.04-1.428 1.294-2.793-.169-3.876-1.16-1.06.272-3.258 1.079-4.504-1.297 0 0 .52.292 1.04.609 2.944.928 3.181-3.192.992-3.866-.276-.075-.795-.106-.795-.106.737-3.169-3.99-4.275-4.08-.467 0 0-.561-.095-.988-.015-2.505.474-1.93 4.304.63 4.121.353-.025.669.04.669.04-.042.614-3.142 1.787-5.374-.324-1.059.836-2.735 1.884-4.92-.201 1.437-.06 2.815-.485 2.8-2.174-.011-1.1-.964-2.081-2.34-2.133-.078-1.229-.96-2.401-2.106-2.49-1.4.084-2.115 1.254-2.125 2.49-1.189.128-2.302 1.215-2.046 2.462.349 1.701 1.613 1.91 3.056 1.587-1.755 2.925-4.612 1.4-5.493.467-1.05 1.014-2.878 2.389-5.131.51 1.2-.213 2.535-.943 2.31-2.68-.177-1.369-1.66-1.775-2.304-1.703-.001-.905-.66-2.398-2.215-2.243-1.697.168-1.596 2.392-1.576 2.41-1.401-.12-2.418 1.59-2.019 2.68.487 1.329 1.505 1.741 3.376 1.383-2.183 2.124-3.57 1.3-4.761.853-1.055 1.146-2.464 1.516-3.908.5 3.23.16 2.716-5.762-1.115-3.615-.33-1.11-.825-2.478-2.831-2.159l-2.286-4.577Zm-73.96 3.786-.503.022c-6.187.41-8.471 4.87-8.18 8.819.197 2.665 1.599 4.94 3.636 6.175.874.69 1.058.95.904 1.273-.18.381-.426.344-.92-.128-7.079-7.022-17.046 1.227-12.636 10.332 3.505 7.24 13.343 5.565 15.452-2.582.168-.648.438-.93.728-.751.207.126.044.965-.123 2.243.012 4.612-4.616 11.87-4.877 12.116l12.136-.01c-2.784-3.943-4.418-7.81-4.755-13.437-.034-1.703.58-1.34 1.1.59 2.372 8.81 13.176 8.728 15.626.146 2.285-8.006-6.312-14.697-12.01-9.307-.82.775-1.375.919-1.386.354-.005-.24.76-1.132 1.463-1.7 1.422-1.149 2.608-3.3 2.62-5.481.025-4.406-3.134-8.735-8.275-8.673zm-6.52 37.519h-.014zm50.378-35.47a.95.95 0 0 1 .485.114c.506.266.6.732.292 1.419-.108.241-.264.518-.239.773 3.557 6.801 11.398 3.762 12.136.602.047-.2-.043-.42-.144-.635-.3-.52-.261-.946.13-1.302a.978.978 0 0 1 1.548 1.16c-.128.27-.262.566-.165.927 2.013 4.74 6.022 5.096 9.386 3.22-1.55 2.878-7.557 4.642-10.08-2.287-4.025 5.644-10.414 5.538-13.314-.835-2.608 6.519-10.476 6.673-13.339 1.258-2.606 6.194-8.652 4.79-10.364.912 5.616 4.214 9.316-.184 9.98-2.06 0 0-.13-.219-.308-.401-.719-.732-.7-1.592.045-1.933.954-.438 1.847.512 1.357 1.444-.137.261-.258.319-.168.543 1.747 4.224 10.354 5.452 12.097-.473.06-.339.026-.652-.123-.909-.409-.708.111-1.506.788-1.535zM63.545 30.47c1.358.08.978 1.29.706 1.382zm50.41.755c.009.023-.837 1.568-.837 1.568-.448-.742-.332-1.665.837-1.568m-4.59 7.809s-.866 1.989-1.153 2.156c-16.08-4.272-38.516-.558-39.069-.146l-.988-1.93c14.1-2.92 28.157-2.297 41.21-.08m-27.164 29.55c-1.552 6.209-5.31 6.841-9.85 7.596-5.622.935-9.287-1.189-11-4.435 0 0-8.042 3.151-10.976 4.982 6.101 2.899 14.162 9.318 18.744 16.606 1.633 2.222 1.55 1.72 1.548 6.593-.007 10.571.018 14.502.018 14.502 2.517.39 2.655 2.186 2.518 4.202 2.02-.925 3.965.207 3.956 2.184-.016 3.635-3.459 2.648-4.174 2.246 1.12 3.204-.195 4.53-1.537 4.687-1.655.194-3.552-.63-3-4.297-1.803.726-4.086-.594-4.403-2.801l-.088-3.739c4.46-8.703-1.139-15.781-6.397-18.108 0 0 1.488-3.19 3.411-4.085.196-.061-1.166-2.133-3.457-1.681-1.054.022-.809.015-1.8-1.32-1.96-2.64-2.884-2.82-4.794.004-.841 1.242-1.042 1.276-2.036 1.298-1.096.023-2.777.84-3.137 1.568-.083.167.347.337.918 1.029.821.995 2.088 2.361 1.888 3.753-4.33 1.827-11.512 9.843-3.96 20.107l-5.46.072-.26-36.537-3.799 2.192.169 28.62-1.083-.372c.083-9.129-.05-18.252-.327-27.376l-10.016 7.568.446 42.913 1.066.233c.79 5.847 11.959 1.758 12.61 2.265l.134 23.845-.489 1.182 8.887 5.037 8.152-4.384s1.1-.206 1.512-.43c3.38-1.848 5.9-1.434 7.737 1.276 1.134 1.671 1.326 1.918 1.326 1.918.687-4.822 4.81-6.599 8.81-5.339 2.94.927 6.96 3.967 8.19 7.677 0 0 .221.56.44.81l.168.077c-.01-.097-.195-.56-.264-.785-4.125-9.823-15.749-11.33-17.542-3.304l-1.645-2.392 8.655-5.504 11.827 8.072s-.556 2.837-.62 4.063l.204.098c.058-.154.142-.743.194-1.112.188-1.34.53-2.466.995-3.327.28-.518.605-.94.968-1.254.706-.425 1.361-.382 2.078-1.08l-1.727-1.339-.038-4.296 3.47 5.04c1.091-.262 5.343-1.578 7.864-.12.285.09 3.982-1.002 6.284 4.347l11.085-4.774s.706-.413.714-.522c-11.054-4.23-22.214-19.206-21.14-19.446 0 0-.032-1.537.053-5.307.09-4.203.041-8.492.11-12.709-3.762-1.245-2.828-4.389-2.828-4.389-2.26.515-2.622.059-3.194-.354l-.39-3.979c1.355-1.196 2.169-1.308 3.847-.927 0 0-.814-1.729-.074-3.15.623-1.126 2.28-1.836 3.605-1.044 1.711 1.209 1.165 3.742.921 4.096 1.778-.827 3.953.094 4.487 1.918.266-5.394.719-11.431 1.762-16.135 1.925-8.49 5.075-17.382 9.021-24.374.646-1.168 1.47-2.338 2.135-3.432.617-.974.91-1.605.91-1.605s-.843.483-1.737.74c-1.285.362-2.251.706-2.398.858-.94.82-2.173 1.428-3.18 1.882-3.55 1.433-5.937-.704-7.41-3.967-.821 4.144-4.484 7.65-9.885 5.472-3.052-1.68-4.012-2.754-6.865-7.136-.24-.449-.858-.963-.858-.963zm.118.676c2.02 4.14 5.044 7.075 7.982 8.247 5.248 1.784 8.709-1.7 9.684-4.9l1.013 1.778-7.944 5.85-11.99-7.905c.201-.19 1.273-2.975 1.255-3.07m36.078.285-3.559 2.174s-2.364 3.956-3.158 5.445c-4.152 7.605-7.268 15.878-8.894 24.086-.656 3.006-1.353 8.496-1.586 11.135-.37 4.21-.353 5.939-.246 9.8l.278.313s-.436.794-.749 1.463c-.85 1.818-1.057 2.846-1.006 4.953.119 4.849 2.961 9.491 6.977 11.382l.528.245s-.689 1.93-1.938 3.29c-.833.906-1.012.95-.717 1.396.41.62 1.732 1.16 3.376 1.134.581-.008.578-.01 1.653 1.204 2.099 2.37 2.73 2.32 4.639-.365.567-.798.89-.99 1.719-1.01 1.22-.03 3.445-1.051 3.436-1.528-1.502-.69-3.242-4.244-2.965-4.282 8.211-4.506 9.95-13.845 3.954-20.713l5.727-.095.211 37.256c1.122-.772 3.657-2.432 3.657-2.432l-.084-28.991c.393.077.795.37 1.56.499l.226 27.412s.745-.313 1.393-.751c3.2-2.187 9.467-7.243 9.467-7.243l-.215-42.245h-.837l.134 42.223-9.724 7.364-.063-26.241 1.055-.161c2.846-.413 4.165-4.177 2.275-6.634-.67-.873-.194-.81 1.232-1.095 2.528-.23 3.928-2.212 3.193-3.625-.315-.606.095-.54.362-1.116.175-.453.143-1.014.067-1.458-.099-.584.132-.842.275-1.214.223-.584.006-1.243-.366-1.791-.393-.578-.285-1.2-.289-1.583-.017-.858-.316-.981-1.192-1.81-.663-.626-.13-.763.844-1.283 1.534-.819 1.64-3.716-.4-4.95-1.091-.659-3.075-.605-7.375.099-1.631.267-3.545.445-3.545.445s-.014-16.517-.127-25.03zm0 .584s8.73 5.297 8.662 5.445c-2.932 4.165-13.87 20.76-13.948 40.827-8.02-1.043-11.304 5.459-11.694 5.434-1.054-24.562 8.558-42.136 13.484-49.594zm-5.508 3.232-.028.602-1.73 2.68-.046-2.68zm-2.672.933.063 4.318-3.545 2.808-.207-4.504zm-32.858.989 1.822 1.305-.064 4.286-2.743-5.175zm49.869 1.444.014 3.1c-6.99 10.225-10.657 21.903-11.778 36.691l-1.702-.058c.45-14.706 5.224-28.124 13.466-39.732zm-47.336.318 4.311 2.922-.186 4.887-3.914-2.604-.366-1zm26.102.208-.018 4.545-3.33 2.563-.156-4.511zm-40.366 1.189c.494.006.888.38.981 1.086.366 3.02 2.582 2.15 3.109 3.056.2.31-.274.58-1.79.453-2.782-.216-4.809-2.549-3.387-4.085.365-.348.75-.515 1.087-.511zm19.22 1.947 3.682 2.433-.01 5.018-3.609-2.283zm16.799.015.284 4.439-4.03 2.78-.144-4.41zm7.67.019-2.314 5.11-13.5 10.073-11.205-7.525-2.079-4.93 13.072 8.844zm-36.41 2.028c3.589-.046 6.342 3.903 7.284 7.363.685 2.288.79 3.111.862 6.744.074 3.7.186 4.34.855 4.862.412.322.531.235.583-.42.117-1.454 1.793-.558 1.822.974.033 1.7-1.774 2.248-3.109.94-.71-.695-.72-.689-.943.679-.148.916-1.177 6.652 1.453 8.078.495.05.614-.363.246-.842-.738-.961.736-2.07 1.938-1.458 1.452.74 1.305 3.167-.246 4.03-1.775.987-4.07-.135-5.142-2.513-.787-1.746-.783-4.166.014-7.761.368-1.657.53-2.712.612-3.983.027-.417.075-.87.106-1.01.086-.387-.098-.406-.735-.073-1.736.908-3.63.263-4.097-1.396-.558-1.984 1.575-4.034 2.891-2.78.5.476.44.95-.158 1.255-1.035.528-.682 1.92.42 1.644 3.626-1.125.31-11.68-3.774-12.411-2.7-.483-4.82 2.707-2.867 4.413.766.669 1.543.31 1.375-.634-.233-1.317 1.454-1.175 2.079.174 1.016 2.197-1.606 3.986-4.055 2.769-4.395-2.706-1.39-8.56 2.588-8.643zm16.266.838 3.619 2.52.031 4.899-3.594-2.21zm7.972.423.018 4.497-3.492 2.633v-4.785zm9.408 2.947-1.787 5.161-11.271 7.994-9.298-6.047-1.6-4.774 10.954 7.36zm-73.153.376-.004 26.124c-3.652.162-5.75 3.908-3.014 7.448l-1.034.146c-2.47.352-4.126 1.71-3.798 3.355.1.504-.001 1.014-.14 1.266-.22.676-.162 1.193.133 1.776.232.457.193.642.063.98-.28.731-.213 1.293.116 1.85.407.412.294.745.24 1.407-.065.934.096 1.31.664 1.674.732.47 1.005 1.238.173 1.174-.414-.032-1.868 1.422-1.868 1.422l-.137-41.924zm19.802 3.352c.654-.002 1.327.85 2.294 2.287.584 1.03.594.89 1.93.836 1.365.102 2.197.476 2.554.904.135.161-.223.204-1.087 1.112-.895.942-1.02 1.316-1.614 2.37-.214.38-.681.416-.9.07-.177-.28.276-1.192 1.125-2.268 1.199-1.2.947-1.32-.794-1.131-1.223.133-1.354.07-1.819-.7-1.384-2.855-2.12-2.759-3.446.087-.361.797-.218.745-1.786.62-1.235-.099-1.54.224-.845.897 1.088.927 1.512 3.112 1.453 3.086l-.84.08s-.258-.492-.37-.802c-.228-.628-.84-1.572-1.505-2.316-.942-1.055-.424-1.632 1.677-1.867 1.172-.132 1.199-.148 1.738-.966.95-1.443 1.583-2.297 2.236-2.298zm51.128 2.6-1.214 4.457-9.615 6.991-7.821-5.412-1.038-4.19 8.985 5.9zm-33.15 3.53s2.78 5.615 3.788 9.253c.877 3.165 2.096 12.329 1.776 12.893-.684-.972-2.941-.753-2.972-.744.192-1.074-.645-3.237-2.57-3.665zm31.634 2.054-.96 4.388-8.187 6.139-6.756-4.785-.886-4.242 7.476 5.18zm-47.597.245 1.062.382.2 7.926 8.191 1.411.186 1.356-9.484-1.586c-.1-3.38-.155-9.49-.155-9.49zm-4.157.237.229 9.216c-.09-.03-6.829.966-9.408 1.667l.151-1.263s4.685-1.056 8.078-1.462c0-2.577-.02-5.287-.024-7.915zm76.202 1.696s1.115.107 3.5-.329c6.147-1.115 7.812-.663 8.597 1.303.86 3.047-2.363 3.121-2.937 1.186-.365-1.254-1.686-.98-6.093.104-3.77.927-6.16.185-6.113-2.03.047-2.277 2.549-2.479 3.046-.235zm-50.523-1.667c.76-.011 1.389.62 1.4 1.408s-.597 1.437-1.357 1.447c-.76.012-1.386-.616-1.396-1.404s.594-1.44 1.354-1.451zm-19.972.252.97.303s.144 6.012.173 6.022c2.089.478 6.474 1.331 6.474 1.331l.232 1.189c-1.836-.447-7.688-1.441-7.688-1.441-.182-2.607-.162-7.404-.162-7.404zm-7.086.113s.004 4.798-.074 7.374c.033-.022-4.966.826-7.505 1.372l.197-.963c2.008-.47 4.193-.942 6.404-1.423-.044-1.886-.042-6.024-.042-6.024zm3.57 1.032c.61-.01 1.116.502 1.125 1.135.01.633-.483 1.15-1.094 1.16-.61.009-1.11-.494-1.118-1.127-.01-.633.476-1.158 1.086-1.167zm83.18 2.994c.68 1.045 1.25 1.014 1.92.912-.17.052-.96.537-.915.697.022.08-.334 1.4.207 1.455 2.04.204 1.008 2.401 1.252 2.74.552.65.955 1.064.577 1.877-.335.722-.818.7-.443 1.317.813 1.267-.31 1.53-.211 2.392.068.52.245 1.232.06 1.638-.559 1.22-2.532 1.918-4.724 2.013-.312.015-.075-.515-.22-.85-.543-.355-.246-.953-.064-1.345.18-.52.18-.52-.155-.784-.936-.603-.888-.882-.813-1.317.205-1.287.012-1.414-.362-1.604-.48-.245-.414-.788-.2-1.485.147-.482.043-.602-.183-1.04-.133-.256-.173-.396-.176-.562.067-.665-.507-.663-1.312-.01-.681 1.218-.916 2.818-1.343 3.83-.33.775-.383 1.587.01 3.377.755 2.736.195 3.192-2.775 2.608-2.232-.57-2.892-3.04-2.271-6.065.1-.49.073-.962.028-1.346-.243-2.082.276-4.082 1.678-5.449 2.34-2.28 3.495-2.629 8.331-2.309 1.893.14 2.036.263 2.036.263s.009-.944.068-.952zm-34.828.628-.562 4.242-4.54 3.322c-2.138-1.75-3.789-1.167-5.294.708-1.191-.627-3.572-2.335-3.572-2.335l-.609-4.81 6.601 4.748zm-48.254 1.006c.61-.01 1.11.498 1.119 1.13.009.634-.476 1.155-1.087 1.164-.61.01-1.116-.494-1.125-1.127s.484-1.158 1.094-1.167zm47.495 4.344-.25 4.085-1.614 1.258-1.625-.172-.383-2.53zm-47.522.032c.61-.009 1.116.502 1.125 1.135s-.484 1.15-1.094 1.16-1.11-.494-1.119-1.127.477-1.158 1.087-1.167zm4.452.128c.61-.01 1.11.494 1.119 1.127s-.477 1.154-1.087 1.163-1.113-.498-1.122-1.13c-.009-.634.48-1.152 1.09-1.16m-8.852.219c.61-.01 1.113.497 1.122 1.13s-.476 1.154-1.087 1.164c-.61.009-1.116-.498-1.125-1.131s.48-1.154 1.09-1.163m82.22.186c.312-.026.773.453.549 1.17-.3.82-.09 1.098.41 1.762.425.562.35.64.286 1-.098 2.358 1.367 1.338.73 3.053-.138.372.045.905.11 1.345-.144-.403-2.838-.366-3.067.044-.384-.06-.87-2.684-.482-3.03.05 0 .33.45.475.704.362.637.44.614.327-.124-.448-2.926-.18-5.905.661-5.923zm-68.904.204c.61-.01 1.112.498 1.121 1.13.01.634-.48 1.152-1.09 1.16-.61.01-1.11-.493-1.119-1.126s.476-1.154 1.087-1.163zm-17.908.212c.61-.01 1.11.498 1.119 1.13.008.634-.477 1.151-1.087 1.16-.61.01-1.117-.493-1.125-1.126-.01-.633.483-1.154 1.094-1.163zm43.355.331 3.313 2.229c.055.702-.033 1.708.19 2.05-2.162-.21-3.256 1.068-3.257 1.068zm-34 1.842c3.627.027 7.14.627 10.402 1.721l-.256 1.212a40.1 40.1 0 0 0-20.795.08l-.542-1.273a35.6 35.6 0 0 1 10.466-1.736zm-20.503 1.645c.95-.017 1.922.35 2.606 1.145 1.285 1.494.667 4.263-1.15 5.143-2.719 1.317-5.55-1.5-4.395-4.403.479-1.205 1.717-1.863 2.94-1.886zm67.28.354-.043 1.214-.826-.715zm-17.3.055c1.199-.018 2.185.978 2.202 2.221s-.94 2.266-2.139 2.283c-1.198.018-2.184-.974-2.201-2.217s.94-2.269 2.138-2.287m-49.921.072c-.292.005-.778.129-.999.34-.578.553.002.57.767.715 1.357.258 1.73 1.47 1.607 2.78-.113 1.189.273 1.17.583.729 1.265-1.798.185-4.417-1.958-4.563zm62.976.599-.06.036zm-42.884.707c1.624-.035 1.794 2.734.358 5.828-.431.93-.652.815-1.125-.59-1.167-3.463-.914-5.202.767-5.237zm3.756.08c.313-.016.616.108.865.401.873 1.032.202 2.703-2.124 5.274-.565.625-.857.863-1.065.868-.582.012-.58-.088.08-2.32.292-.983.58-2.064.641-2.4.194-1.071.914-1.787 1.604-1.823zm-5.876 2.477c.158.766.436 1.833.615 2.37.178.538.297 1.05.268 1.135-.143.413-1.18-.149-1.92-1.04-1.49-1.794-2.085-3.355-1.777-4.194.452-.67 1.608-.969 2.141-.381.55.606.632 1.904.673 2.11m10.272-1.787c1.57.96-.24 3.155-3.76 4.974-1.506.78-1.398.428-.256-1.108a16.4 16.4 0 0 0 1.308-2.13c.632-1.293 1.265-2.586 2.708-1.736m-15.685.007c.498-.004 1.009.548 1.955 1.97a22 22 0 0 0 1.523 2.002c.416.469.744.936.728 1.035-.163.996-5.064-2.158-5.416-3.486-.122-.81.493-1.534 1.21-1.521m70.146 2.888c.884 1.885.96 3.057.228 3.483-1.038.605-2.375-.318-2.402-1.66-.009-.45-.456-2.023-.865-3.045-.337-.84-.383-1.36-.106-1.401 1.084.18 2.687 1.737 3.145 2.623m-5.866-1.43c-.343 1.078-.705 2.76-.7 3.25.001.192-.111.586-.246.875-.898 1.916-3.022.353-2.24-1.648.704-1.805 2.496-3.684 3.203-3.747.483-.042.032 1.112-.017 1.27m1.43-1.034c.354-.036.651.766 1.108 2.118.618 1.825.592 3.25-.074 3.855-1.428 1.3-2.926-.587-2.349-2.958.461-1.895.913-2.974 1.315-3.015m-47.909.334c1.778 27.13-11.633 48.002-12.588 48.572l-4.564 2.588-8.005-4.522c8.295-11.795 13.253-25.314 13.629-41.014 7.673.773 11.62-5.595 11.528-5.623zm43.975.086c.56-.16.17.348-.386 1.178-.592.885-1.362 3.295-1.971 3.68-1.369.683-2.917-.617-2.087-1.747.765-1.04 3.01-2.704 4.444-3.112zm8.14.184q.324-.002 1.2.441c2.85 1.443 4.254 3.346 3.035 4.256-.857.64-1.772.143-2.627-1.54a15.4 15.4 0 0 0-1.175-1.888c-.64-.85-.79-1.268-.432-1.27m16.02.966c1.831-.028 3.335 1.485 3.362 3.384.027 1.9-1.436 3.463-3.267 3.49-1.832.029-3.336-1.492-3.362-3.39-.027-1.9 1.436-3.456 3.267-3.483zm-1.01.893c-2.154.99-1.505 4.498.352 5.004.784.227 1.738-.11 1.345-.502-2.453-.799-2.469-2.674-1.48-4.046.158-.22-.055-.531-.216-.457zm-89.75 4.825c-.083 1.982.331 4.282-.582 6.434-1.384 3.308-5.83 4.82-8.205 4.526-.495-.21-1.07-.41-1.559-.195a1.18 1.18 0 0 1-.974-.039c-.303-.147-.595.046-.89-.065-.343-.24-.905-.789-.84-1.196.107-.574.065-1-.583-1.189-.9-.261-1.081-.764-.816-2.239.057-.318.125-.463-.074-.602-.662-.46-.913-1.31-.479-2.207.283-.516.503-.88-.006-1.29-.202-.473-.167-.652.267-1.255.462-.573.543-.638.246-1.127-.665-1.099.089-1.91.985-2.363 1.2-.511 2.25-.775 3.517-.927.47.028.451.457.734.872.418.673-.171 1.646.169 1.99.491.236.714.705.675 1.106-.017.934.037 1.254.282 1.645.27.433.372 1.229.12 1.769-.225.481-.201.449.094.733.292.28.436 1.69.332 1.662l1.232-.117c-.129.143.464-2.633 1.868-4.78-.078-1.68-.696-3.226-.64-5.447 3.044-1.13 5.243 1.554 5.126 4.3zm47.285-3.778c.44.358 2.622.988 2.701.915-.068 1.084.568 3.188 2.842 3.892.028 3.02.004 16.963.004 16.963-3.168-5.504-5.13-12.61-5.546-21.77zm-52.984.492s.12.402.232 1.178c.194 1.586-.016 1.803-.422.719-.476-1.27-.501-.28.035 2.625.13.705.125.868-.043 1.342-.104.298-.29.99-.436 1.532-.428 1.595-.679 2.055-1.118.785-.225-.648-.412-.749-.252-1.256.2-.634.152-1.11-.251-1.728-.066-.101-.211-.332-.236-.988.124-1.474-.508-1.487-.633-1.868.021-.577-.238-1.974.144-1.937.316.031 1.455.064 1.995-.142.239-.091.984-.263.984-.263zm47.217.183c1.176-.018 2.142.957 2.159 2.177s-.924 2.221-2.1 2.239-2.145-.954-2.163-2.173.927-2.226 2.104-2.243m-32.89 1.345 1.615.318c.36.124.097 23.205-12.823 39.864l-.113-3.859c6.148-9.227 10.575-20.543 11.321-36.322zm27.372.486.295 5.514c-.91-.801-3.218-2.302-3.2-2.334l.01-2.039c.002.004 1.984.158 2.895-1.141m-12.443.076c.39.17.729.56 1.062.843l-1.055.736zm36.982.278c6.97 2.144 13.834 2.081 20.62.514l.464 1.35c-7.364 2.069-14.68 1.95-21.952-.457zm-33.754 1.031.372 2.379-3.932 2.64.191-3.61 2.05-1.38zm34.82 1.98c.635-.009 1.158.52 1.167 1.179s-.5 1.2-1.135 1.21c-.636.01-1.156-.518-1.165-1.177-.009-.66.498-1.201 1.132-1.211m17.907.099c.636-.01 1.158.518 1.168 1.178s-.5 1.2-1.136 1.21-1.155-.518-1.164-1.177c-.01-.66.497-1.201 1.132-1.211m-33.54 3.71c.516 1.884.403 6.141-.26 9.029-.199.867-.32 3.946-.32 3.946-.123.16 3.948-3.494 5.257 1.299.45 1.648-1.379 3.21-2.603 2.753-.239-.089-.167-.905.061-1.385.68-1.433-1.256-2.178-2.36-.908-2.547 2.935.075 10.365 4.07 11.087 3.317.6 5.977-2.825 3.763-4.865-.968-.892-2.516.337-1.807 1.473.757 1.213-.638 1.697-1.692.573-1.839-1.962.226-4.915 3.003-4.231 4.44 1.047 3.527 8.245-1.129 8.65-3.56.31-5.957-1.298-7.462-4.15-1.415-2.74-1.52-4.925-.872-9.73.384-2.854.068-5.258-.696-5.242-.42.01-.746.219-.813.73-.135 1.045-.25 1.24-.882.86-.802-.481-1.248-2.034.063-3.085 1.344-1.077 3.085.604 3.014.894.032-.053.168-.326.348-1.55.588-3.981-.717-8.187-2.328-7.513-.353.147-.31.314.151.583 1.073.626.128 2.23-1.22 2.069-1.908-.23-2.342-2.992-.66-4.213 2.647-1.48 4.805.838 5.376 2.927zm-13.03-3.317s3.386 2.142 3.567 2.691c.115.353.253 3.425.253 3.425l-5.877-3.815-8.424 5.401c.138-1.185.744-4.238.744-4.238l4.48-2.939c.023.177 3.1 2.283 5.259-.525zm42.072.204c.635-.009 1.158.519 1.167 1.178.01.66-.497 1.201-1.132 1.211s-1.158-.515-1.167-1.174.497-1.205 1.132-1.214zm-8.968.019c.635-.01 1.162.515 1.17 1.174.01.66-.503 1.205-1.14 1.214-.635.01-1.154-.519-1.163-1.178-.01-.66.497-1.2 1.132-1.211zm4.508.27c.636-.01 1.162.518 1.17 1.177.01.66-.5 1.202-1.135 1.212-.636.009-1.158-.519-1.168-1.178-.009-.66.497-1.201 1.132-1.211zm-11.289 1.691c3.051.659 6.11 1.335 9.034 1.667l.12 9.311-.855-.05-.123-8.32c-2.826-.21-5.49-.838-7.994-1.51zm22.687.303-.158 1.095s-5.279.947-8.035 1.316c-.044 1.874-.04 8.137-.04 8.137l-1.055.201-.003-9.479c3.13-.353 6.256-.718 9.291-1.269zm-51.078.525 6.214 4.26.732 4.515-7.245-4.993s-6.568 4.584-9.024 6.284l.749-4.257zm28.687.843c2.502.548 5.003 1.119 7.505 1.341l.106 7.492-1.15-.318-.092-6.08c-1.954-.175-3.96-.568-5.979-1.01zm22.131.222-.21 1.018s-4.005.626-6.071 1.01c-.183.044-.116 6.594-.116 6.594l-.989.157-.116-7.648zm-11.215.839c.636-.01 1.155.519 1.164 1.178.01.66-.497 1.2-1.132 1.211-.636.01-1.158-.516-1.168-1.174-.009-.66.5-1.205 1.136-1.214zm-39.697 2.703 7.346 5.142s.852 2.678 1.034 4.161l-8.455-5.66-10.579 7.272 1.224-4.493zm-44.53.157c.436.006.87.308 1.097 1.003.319.978.913 1.266 2.48 1.237 3.073-.17 6.295-1.668 9.196-.544 1.41.539 1.912 2.695.731 3.257-1.281.61-1.827.227-2.271-.817-.411-.443-.92-.374-3.675.117a50 50 0 0 1-3.845.489c-3.07.257-4.766-.746-5.148-2.64-.245-1.212.709-2.112 1.435-2.102m84.164 1.74c.635-.01 1.158.515 1.168 1.174.009.659-.5 1.205-1.136 1.214-.636.01-1.158-.519-1.168-1.178-.009-.66.5-1.201 1.136-1.211zm-22.508 1.455c.827-.012 1.507.675 1.52 1.532.011.857-.652 1.563-1.478 1.575-.827.012-1.504-.675-1.516-1.532s.647-1.563 1.473-1.575zm-17.116 1.087s6.046 4.189 8.845 6.123l1.547 4.61-10.297-6.944-12.6 8.501 1.512-4.74zm43.65 1.44c.549 1.532 1.544 2.7 2.596 3.884 0 0-.586 1.152-2.677 1.083-1.142-.037-1.203.148-1.593.952-.64 1.018-1.162 1.683-1.576 2.014-.732.584-2.104-.29-3.235-2.065-.412-.647-.583-.8-1.825-.773-1.908.041-2.598-.507-1.607-1.396.864-1.092 1.485-2.292 2.257-3.44l.858.102c.037.132-.667 2.336-1.656 3.232-.503.588.2.8 1.427.532.779-.242.978-.147 1.555 1.087 1.202 2.355 1.825 2.242 3.25-.146.497-1.066.478-1.171 1.846-.864 1.468.153 1.911-.038 1.308-.569-1.22-1.073-1.893-3.603-1.893-3.603zm-43.597 3.155s10.934 7.427 10.906 7.266l2.19 5.354-12.832-8.852-15.678 10.574 2.345-5.3zm.422 4.877 3.812 2.6-.01 4.679-3.894-2.714zm-.978.135.07 4.617-3.419 2.112-.19-4.333zm-4.336 2.976-.031.178.08.044.03.004.122 4.161-3.932 2.827.014-4.7zm10.069.05 3.583 2.48.148 4.954-3.89-2.64zm4.424 3.024 3.594 2.59.127 4.945-3.671-2.563zm-19.023.019-.018 4.57-3.576 2.59-.169-4.67zm37.827 5.897c-.71.768-.972.673-1.58-.594-.63-1.314-1.576-1.929-2.946-1.904-1.73.031-.599-1.145 1.234-1.284 3.17-.144 4.778 2.06 3.292 3.782m-42.396-2.68.095 4.584-3.559 1.918-.108-2.173 1.831-3.323zm-4.589 6.127.123.835-.657.263zm61.368 11.481-.014.015h.042zm.028.015c.46.314 4.554 6.47 4.84 13.122.158 1.762-.577 2.098-.943.423-.596-2.727-2.248-5.111-4.393-6.35-10.836-4.163-15.463 9.939-8.321 15.64 2.543 1.908 7.445 1.692 9.168-.945.536-.819 1.078-.74 1.147-.222.034.257-.091.434-.753 1.05-2.679 2.493-4.279 6.02-3.43 8.6 1.13 3.426 4.213 5.797 7.77 6.339 3.816.581 7.784-2.204 8.954-5.825 1.071-3.319.129-6.118-2.842-8.914-1.397-1.314-1.468-1.42-1.178-1.732.281-.304.465-.23 1.156.463 2.135 2.138 6.115 3.289 8.736 2.031 4.197-2.01 6.003-8.79 3.13-13.228-1.737-3.609-6.474-4.952-10.435-2.958-2.109 1.062-3.965 3.545-4.52 6.033-.247 1.118-.867 1.32-.96.313.292-4.048.84-6.698 5.125-13.83zM96.07 197.232c-14.977 3.324-29.336 2.149-39.641.172l-4.709 8.344-.323-.015-1.214 2.16.13.247s-3.912 7.787-5.56 10.241c19.25-.192 61.5-.288 61.5-.288l-2.575-5.369.141-.146-2.543-5.606-.826-.97s-.505-1.013-.883-2.1c-.347-1.001-1.84-3.742-1.84-3.742l-.21.018zm-39.1 1.174c.199.163 19.185 3.874 38.865.062l1.076 1.867c-17.223 4.11-42.144.184-41.16-.197zm.328 3.673c1.736-.064 3.495.903 4.68 2.517.378.513.996 2.028.996 2.028s.83-1.427 1.645-2.141c1.233-1.08 2.832-1.982 5.146-1.897 2.13.079 4.475 1.275 6.59 4.73.535-1.994 7.533-8.77 13.298-.32.66-2.246 3.744-6.73 8.739-3.597.341.758.693 1.59.693 1.59-2.948-2.14-7.808-.705-8.957 2.637-.103.408.027.619.18 1.014 1.518 2.252-2.434 2.198-1.263.376.219-.414.237-.755-.113-1.299-.927-1.44-3.717-3.233-5.764-3.187-2.364.053-4.984 1.68-5.859 3.158-.322.546-.396 1.091-.112 1.568.206.481.136.884-.211 1.178-.815.693-1.837-.106-1.445-1.13.258-.452.217-1.005-.31-1.773-1.058-1.543-3.531-3.168-5.682-3.122-3.08.074-6.19 2.374-5.993 4.268.086.832-.133 1.142-.788 1.046-.797-.117-.887-.896-.323-1.532.083-.203.218-.697-.039-1.057-3.252-4.56-8.12-3.23-9.235-2.21 1.084-1.927 2.597-2.789 4.129-2.846zm-2.895 3.166c1.22.01 2.534.967 2.95 1.714.303-.324 3.062-1.689 4.404.263-3.513-.274-3.557 3.593-.96 3.964-1.184 3.73 4.124 3.956 3.787.452 3.966.608 3.477-4.605-.256-4.055 1.956-1.477 3.287-1 5.637.693.79-1.066 4.013-2.064 4.804-.2-3.693-.237-3.064 4.199-.306 4.237-.82 3.074 4.607 4.205 3.77-.386 3.444.25 2.945-4.575-.356-4.176.245-.878 3.595-1.258 5.075.42 1.36-1.288 2.862-2.17 5.574-.33-3.698-.638-3.744 4.34-.31 4.042-.32 3.297 4.536 3.353 3.725-.456 3.697-1.035 1.664-5.139-1.052-4.009 1.21-1.49 3.262-.787 4.076-.485 2.516-2.987 4.709-.489 4.709-.489-4.38-.474-3.427 5.999.84 3.65-.004 1.333.548 2.486 2.29 2.674l2.071 4.446-58.698.401 3.239-5.907c.327.107 2.199.284 2.601-1.993 3.858 1.27 4.117-3.388 1.235-4.125a1.9 1.9 0 0 1 1.15-.346zm-2.29 1.686c.384.639.063 1.055-.597 1.072 0 0 .43-.647.598-1.072m48.29.824.38.827c-.41-.172-.461-.355-.38-.827"/></svg>