<svg xmlns="http://www.w3.org/2000/svg" xml:space="preserve" width="222.783" height="323.556" viewBox="0 0 167.087 242.667"><path d="M166.837 235.548c0 3.777-3.087 6.869-6.871 6.869H7.11c-3.775 0-6.861-3.092-6.861-6.87V7.12C.25 3.343 3.336.25 7.11.25h152.856c3.784 0 6.87 3.093 6.87 6.87z" style="fill:#fff"/><text xml:space="preserve" x="1.157" y="27.011" style="font-size:29.22270203px;font-style:normal;font-weight:400;line-height:125%;letter-spacing:0;word-spacing:0;fill:#000;fill-opacity:1;stroke:none;font-family:Bitstream Vera Sans"><tspan x="1.157" y="27.011" style="font-style:normal;font-variant:normal;font-weight:400;font-stretch:normal;font-family:Arial;-inkscape-font-specification:Arial">K</tspan></text><path d="M7.989 3.103C7.747-.954.242-8.59 0-10.5-.242-8.591-7.747-.955-7.989 3.103c-.169 2.868 1.695 4.057 3.39 4.057 1.835-.022 3.35-2.8 3.873-3.341.242.716-1.603 6.682-2.179 6.682h5.811c-.576 0-2.421-5.966-2.179-6.682.457.496 1.797 3.258 3.874 3.341 1.694-.001 3.557-1.189 3.388-4.057" style="fill:#000" transform="matrix(1.13877 0 0 1.0412 11.176 39.912)"/><text xml:space="preserve" x="-165.696" y="-215.474" style="font-size:29.22270203px;font-style:normal;font-weight:400;line-height:125%;letter-spacing:0;word-spacing:0;fill:#000;fill-opacity:1;stroke:none;font-family:Bitstream Vera Sans" transform="scale(-1)"><tspan x="-165.696" y="-215.474" style="font-style:normal;font-variant:normal;font-weight:400;font-stretch:normal;font-family:Arial;-inkscape-font-specification:Arial">K</tspan></text><path d="M7.989 3.103C7.747-.954.242-8.59 0-10.5-.242-8.591-7.747-.955-7.989 3.103c-.169 2.868 1.695 4.057 3.39 4.057 1.835-.022 3.35-2.8 3.873-3.341.242.716-1.603 6.682-2.179 6.682h5.811c-.576 0-2.421-5.966-2.179-6.682.457.496 1.797 3.258 3.874 3.341 1.694-.001 3.557-1.189 3.388-4.057" style="fill:#000" transform="matrix(-1.13877 0 0 -1.0412 155.676 202.574)"/><path d="M1025.792 1780.136h163.533l.299 261.366-163.966-.436s-.01-170.555.134-260.93m116.157 259.485c-6.089-10.986-15.715-28.883-15.999-29.025-3.559 1.886-39.847 6.72-57.301 2.039-5.969 8.924-11.831 17.762-17.028 26.608zm-55.731-32.861c-.913.02-1.931.574-1.743.092.109-.279.366-3.096.479-4.104.273-.448.658.727.614 1.818-.025.626.277.179 2.344.287 2.235.117 4.067.534 4.825.697 2.644.569 7.758.16 9.949-1.425 1.186-.858 1.635.069.412.99-5.523 4.161-9.902 2.574-14.7 1.877-.715-.104-1.439-.249-2.18-.232m2.348-3.948c-.343-.222-.569-.245-1.008-.041-1.695.787-1.252-.342-.031-1.478.558-.519.542-.783.118-1.329-.214-.276-.572-.31-.487-.724.367-1.783 2.885-4.481 5.7-5.686 1.171-.501 1.356.047-.124.912-2.277 1.33-3.013 2.465-1.725 2.003 2.497-.896 4.775-.263 7.97 1.321.913.453 1.331.541 2.107.459.574-.473 1.088.096 1.444.393.223.179.271.264.526.205 1.818-.424.729.727-1.756 2.53-4.451 3.127-9.306 4.601-12.732 1.436zm6.848.769c1.819-.545 4.038-1.683 5.398-2.87 1.654-1.443.718-1.223-1.182-.314-2.75 1.316-4.676 1.696-7.77 1.626-2.59-.059-2.509-.163-2.603.157-.331 1.125 3.233 2.276 6.157 1.4zm-5.025-4.396c.148-.485.261-1.131.129-1.341-.239-.38-.754-.099-1.409.722-.406.509-.35.578.047.98l.473.304c.553.234.642-.275.761-.665zm1.132.664c.797-2.693 2.58-2.641 3.852-.064h.897c-1.844-5.014-5.416-2.475-5.535.019.421.139.786.039.786.039zm6.662-.454c.842-.466.718-.783-.354-1.333-.762-.39-1.166-.469-1.304-.217.01.556.033 1.351.357 1.791.336.203.798 0 1.302-.241zm-11.801-7.67c-.154-.253-.127-.716.459-.985 3.611-1.66.98-5.165-1.808-2.536-.884.721-2.199 1.055-3.215.626-.955-.413-.973-1.573.296-1.82.416-.081 1.485-.307 1.879-.578 4.847-2.576 7.421 3.024 3.982 4.888-.707.41-1.457.639-1.593.406zm-13.578-5.085c-1.967-.885-2.237-3.958-.393-5.155 1.174-.797 2.373-1.014 5.605.574 2.283 1.122 3.59-.086 3.531 1.219-.036.794-.084 1.594-1.411 1.785-2.157.311-3.63-2.596-6.401-2.322-1.999.198-1.746 2.572-.301 3.055 1.925.643.758 1.405-.63.843zm36.168.446c-.361.168-.531-.616-.375-1.035.983-2.315 1.888-4.155 2.779-6.324.711-1.728 1.188-2.471 1.507-2.469.326 0 .477.255-.068 1.319-.824 2.146-3.838 8.692-3.843 8.509m-16.15-.6c-.87-.615-.723-1.528.267-.837 1.272.888 3.358-.737 2.933-2.271-.514-1.854-2.995-2.303-5.071-.642-3.276 2.619-6.871 2.752-6.871.705.01-.585-.077-.718 1.287-.81 1.585-.106 3.373-.827 4.262-1.365 3.986-2.412 8.226-.747 7.348 3.277-.396 1.898-2.739 2.818-4.154 1.943zm-14.614-5.939c-.323-.01-.915.314-1.084.188-.332-.246-.284-.96-.557-1.724-.484-1.357-.012-.933.84-.566 1.157.444 2.254.358 3.23.022 1.007-.347 2.328-.268 4.442.01 1.701.22 2.657.156 4.201-.282 1.676-.521 1.232-.334.953.693-.182.673-.411 1.576-.624 1.793-1.158-.645-2.038-.395-2.799.044-1.251.547-2.138.641-3.162.337-.964-.545-1.536-.5-2.31-.03-1.334.642-1.926-.419-3.13-.48zm24.986-2.821c.235-.41.576-.973.896-1.606 2.589-5.107 2.765-6.527.938-8.247-2.456-2.312-4.548-1.309-6.901 3.308-.571 1.121-.913 1.963-1.143 2.309-.266.399-.577.091-.73-.064-.29-.294 2.321-5.195 3.344-6.264 2.678-2.8 7.655-.56 7.338 3.248-.16 1.918-.527 2.969-2.293 6.485-.437.87-.817 1.608-1.048 1.963-.828.551-.639-.713-.402-1.132zm-24.401-.203c.409-1.819 6.279-2.66 7.826-.275.151.233.063.224-.601.043-2.985-.98-3.577-.926-6.436.196-.43.165-.736.232-.788.037zm22.398-.345c.001-.171.218-.843.55-1.494 1.957-3.842 2.497-4.769 1.9-5.488-1.163-1.4-2.726-.183-4.161 3.829-.537 1.5-.902 1.18-1.164.943-.501-.453 1.718-5.122 2.789-5.818 2.426-1.533 4.336.241 3.264 3.377-.837 1.416-1.528 3.593-2.309 4.739-.371.514-.871.362-.868-.089zm-8.778-6.241c-.118-.194.111-.454.952-2.244 1.156-2.46 1.514-3.372 1.045-4.776-.837-2.503-3.992-3.116-5.909-1.474-.627.53-1.052 1.264-1.348 1.923-.693 1.525-1.27 3.498-1.68 3.912-.359.359-.859.432-.827-.194.456-1.328.671-2.358 1.748-4.304 2.685-5.797 10.426-3.113 8.615 2.989-.674 2.215-1.448 3.893-1.907 4.438-.255.303-.678.04-.688-.269zm-1.796-1.065c.001-.191.291-.734.6-1.492 1.309-3.217 1.318-4.203-.59-4.244-1.141.146-1.311.611-2.313 3.148-.325.824-.505 1.411-.698 1.663-.208.27-.597.11-.757-.052-.409-.414 1.377-4.576 2.322-5.361 2.172-1.878 4.985.789 3.667 3.182-.618 1.673-1.15 2.809-1.512 3.326-.321.458-.722.393-.718-.171zm-46.229-37.503-6.596-.45c1.169 7.014 1.228 14.734.048 20.209-1.009 4.681-1.021 8.129-.72 12.188.351 4.722 2.361 8.726 2.868 13.738.367 3.632-.442 7.422-1.164 11.033-1.207 6.034-.958 6.664-.78 13.745.165 6.565-.451 6.33-.83 5.946-.057-.058-.11-1.219-.102-2.6.01-1.381-.077-4.757-.156-7.101-.158-4.683.366-8.821.745-10.524.772-3.466 1.64-7.017 1.105-10.853-1.086-4.842-2.616-9.677-3.153-14.344-.662-5.755.965-11.528 1.503-15.708.519-4.035-.031-11.016-1.094-13.921-.183-.966-1.052-2.227-1.052-2.227-.995-.141-1.993-.281-3.388-.272-.078 27.712-.001 55.435.021 83.15l6.151 5.679 6.32-5.978zm.444 31.789s9.385 5.377 19.734 10.66c-.985-6.045 2.14-6.957 5.074-7.658-.703-11.679 10.05-9.283 11.698.864h1.059c1.863-5.059 3.706-8.55 7.948-9.384 3.288-.646 6.53 1.426 7.352 6.306-.145-.343 10.901-6.451 11.206 6.454 5.016-3.099 8.596-.422 10.042 3.513 2.118-3.212 7.419-3.353 9.114-3.586.59-.677 1.631-1.064 3.524-1.052 1.622-.082 3.802-1.291 4.923.182 1.706.268 3.005-.039 4.463 1.082 1.16.877 2.454 2.834 4.385 1.485 3.682-1.765 7.82-2.56 11.112-4.688 0 0-.873-1.119-.618-.958.093.059.503.587 1.121.834.221.088 2.244-1.118 2.244-1.118-13.714-15.723-24.995-46.417-17.546-74.816.206-.483-.622-.669-1.029-.84.125-.218 2.138.075 1.284 1.88-.861 5.441-1.836 11.337-2.053 15.848 0 .55.046 1.041.046 1.041 30.75 14.114 26.979 44.686 19.08 55.327l1.245 1.651c.551.367 24.19-13.351 23.41-13.914l4.473-2.216-.725-59.947-17.691-1.346s.189-.503.412-.634c.162-3.66-.167-9.073.01-13.603.069-12.948.2-17.35.031-17.709-5.456-3.575-13.592-8.804-20.439-11.339.281.08-.111 5.365-.32 5.667-6.406 2.034-3.433 4.634-5.8 7.427-1.591 1.74-5.313 2.071-7.11-.016-2.148-2.068-3.155-6.813-3.155-6.813-3.389 3.606-2.693 7.963-7.231 9.604-7.294 3.601-9.61-7.165-9.186-6.915-2.796 2.682-10.639 4.863-11.486-6.461-3.526 3.231-7.48 1.627-9.157-2.349-2.153.076-4.567 1.754-6.746 2.662-2.022.891-4.608 1.414-6.528 1.374-2.401.289-4.379.278-6.543-.363-1.016.328-3.309-.654-4.016-2.061-1.082-1.265-2.026-1.339-3.054-1.111-3.504 1.837-7.262 2.281-11.399 4.204-.258.179.363.515.154.449-.088-.028-2.173 1.019-2.173 1.019 20.954 27.416 22.094 55.097 17.702 74.716-.172.68-.267 1.174.186 1.709-.665-.114-.675.08-.799-.344l2.179-16.468c.064-1.989.314-1.842-1.442-2.584-1.624-.686-3.16-1.347-4.5-2.168-5.109-3.768-10.884-8.405-13.698-14.192-8.03-12.437-5.38-27.278.634-39.037l-1.496-1.546c-17.563 8.757-27.933 18.199-27.933 18.199l.075 58.824 18.048 2.071zm-8.707-39.281c-.579-.637-2.052-.748-2.667-.264-.142.119-.445.743-.534.72-.818-.209-1.384-.378-1.492-1.065l.868-1.305c.687-1.033 1.677-1.4 3.346-1.788.592-.138 1.486-.264 1.802-.397 1.254-.539 1.69-1.706.421-1.183-.927.253-2.223.17-2.395-.674-.141-.693-.735-.965-1.397-.884-1.223.292-2.34.928-3.422 1.568-.48.288-1.39.94-1.39.94-.144.224-.673-1.41-.18-1.888.613.074 1.141.08 1.739-.157 1.492-.592 2.929-1.306 4.435-1.879.959-.375 1.047-.343.794-1.02-.125-.25-.235-1.08-.07-1.514.176-.462.156-.694-.142-.891-.678-.449-2.303-.031-4.588 1.062-.696.333-1.155.467-1.595.82.284-.72.119-.853.111-1.606.933.116 1.773-.252 2.518-.643.614-.32 1.303-.635 2.992-.85.461-.059.251-1.739-.274-2.226-.497-.46-1.541-.47-2.804-.098-1.128.258-2.531.519-3.307 1.725-.979.922.024-1.529 1.809-2.507.783-.017 2.509-.385 2.915-.475.689-.152.799-1.76-.202-2.449-.627-.544 2.277-.559 2.221-.393-.037.095-.064.782.158.958 1.251.375 1.24 1.392 1.349 1.821 1.436 2.346 2.143.874 3.132.066-.208 5.11 1.587 5.692 1.825 6.015-2.466 4.579-.606 4.691 1.706 5.744 0 0-.879.355-1.464.319-.92-.056-2.681 1.029-3.451 1.669-.425.353-.438.059-2.136.01-1.6-.046-1.718.073-2.448.394-1.44.635-1.432 1.234-.026.998 1.498-.252 2.966.654 3.138 1.887.119.233.013.645-.011.632-.312-.058-1.018.059-1.007-.09s0-.707-.276-1.1zm2.186-6.193c.406-.258.476-.993.123-1.291-.322-.271-1.689-.126-2.076.219-.873.684.723 1.829 1.953 1.071zm.876-3.076c.503-.39.564-1.328.129-1.873-.739-.924-2.669-.371-2.773.795-.111 1.241 1.593 1.895 2.645 1.079zm-.628-4.221c.091-1.019-.923-1.665-1.855-1.181-1.161.602-.456 1.871.998 1.796.806-.041.806-.041.857-.615m-3.399-4.135c-.542.265-.57.9-.056 1.309 2.037 1.12 1.417-1.879.056-1.309m142.28 6.091c-.894-3.281-3.36-.028-3.363.017-.087-3.362.552-4.858-1.98-6.007 2.541-3.832 2.011-4.361-.683-5.831.248.021 3.577-.721 4.147-2.614.126.089 5.224 1.339 5.86-1.431-1.538.698-4.563.802-4.598-2.176.286-.086 1.003.061.943.156-.402 1.91 3.093 2.383 3.664.874 0 0 1.174.783 1.69.904.057.038-1.589 2.313-3.092 2.656-2.708.893-3.642 1.133-3.645 1.669-.001.208.442.241 1.247.405 1.682.115 1.646.475 1.867 1.03.195.491.385.589.946.539 1.921-.635 2.882-.969 4.22-2.302.163-.032.352 1.401.456 1.45.016-.228-1.359.17-3.471 1.4-1.723 1.004-2.398 1.15-2.617 1.421-.162.201.256.834.3 1.522.037.578-.354.859-.066 1.039.332.208.846.17 1.521 0 1.49-.358 2.587-.941 3.925-1.765-.285.536.192 1.897.192 1.897s-.661-.463-1.205-.223c-1.048.458-2.742 1.082-3.2 1.189-.443.104-.635.161-.809.307-.213.18-.178.613-.181 1.249 0 .446-.131.858.151.992.626.201 1.888.137 3.174-.31.548-.238 1.711-.868 1.711-.868l-.364 1.881c-.488-.547-1.888-.144-2.826.224-.473.148-.615.444-.735.855-.209.702.239 1.186.755 1.416.344.154.874.091.874.091-2.428.92-1.945 1.26-3.362.561-.613-.66-1.213-1.358-1.447-2.214zm2.542.001c-.403-.464-1.105-.729-1.513-.546-.364.193-.233.595-.117.903.307.852 2.441.577 1.63-.356zm-1.417-2.345c.569-.743-.057-1.743-1.109-1.749-.731-.01-1.121.449-1.113 1.018.015 1.079 1.747 1.351 2.222.731m-1.169-2.832c1.055-.286 1.378-1.304.649-2.042-.518-.525-2.145-.59-2.58-.115-1.111 1.212.134 2.644 1.931 2.157m.877-3.725c.619-.315.739-.841.192-1.438-.993-.842-2.727-.185-2.167 1.042.274.601 1.22.781 1.975.396m-126.941-28.27c.931-.338 1.604-1.057 2.584-1.609.661-.36.462-.302-.384-.795-.666-.305-1.999-1.649-2.124-1.329-.302.573-.259 3.707-.076 3.733m23.55 32.822c.038-.64.116-1.603.098-2.309.126-1.346-.117-.953-.849-.513-.542.348-1.41.876-1.751 1.045-1.343.667-1.182.702.708 1.608 1.587.708 1.765.638 1.794.17zm-1.843-3.151c1.283-.805 1.709-1.22 1.771-2.124.01-1.04-.115-1.418-1.03-.698-3.123 2.456-6.338-2.362-3.479-5.039.583-.546 1.324-1.4 1.33-1.617.047-1.553-1.708-.045-3.143 2.087-1.588 1.938-2.577 4.364-1.184 6.692 1.114 1.704 3.595 2.041 5.734.699zm-7.097-3.136c-.056-.76.158-1.609.258-1.862.35-.889.336-1-1.256-.26-.635.209-1.392.378-1.684.376-1.3-.01-.975.399.888 1.945 1.872 1.554 1.935 1.695 1.794-.2zm4.427-7.443c.199-.468-.214-.648-.609-.56-.031.01-.713.513-1.514 1.141-2.427 1.903-4.208 2.125-5.412.675-1.221-1.47-.711-3.213 2.018-5.209 1.204-.881 1.493-.94.914-1.325-.44-.293-.467-.248-2.198.919-3.488 2.351-4.533 3.956-4.183 6.296.071.961.577 1.464 1.067 1.838 3.326 2.934 7.939-1.111 9.916-3.775zm3.52 1.388-.21-3.237c-3.547-3.044-6.909-8.242-8.072-12.548-1.185-3.829-.241-11.816-.063-11.223l-1.916-3.613c-1.668 3.834-2.396 9.681-.582 15.638 1.54 5.057 4.623 11.182 10.843 14.982zm-14.936-1.886c1.127-2.154 1.162-1.921-1.015-1.94-2.484-.021-2.207-.322-.807 1.79 1.124 1.696.935 1.844 1.822.15m1.492-2.952c1.431-.457 1.104-.352 3.004-1.582 2.18-1.411 2.271-2.183.083-1.096-2.81 1.396-5.278 1.039-6.193-.783-.816-1.624.888-3.65 3.693-4.442.959-.271 1.464-.499 1.466-.917.01-1.274-4.767.426-6.735 2.349-3.798 3.713-.474 8.118 4.683 6.471zm-6.141-5.781c.128-.194.469-.658.784-1.139 1.345-1.556.214-1.091-.98-1.516-.631-.232-1.278-.462-1.648-.406-.715.108.241 1.481.47 2.368.643 1.974.569 1.914 1.373.694zm5.085-3.558c2.408-.234 2.653-.466 2.656-.963 0-.493-.294-.398-1.503-.231-3.201.442-5.32-.368-5.778-2.067-.472-1.754 1.695-3.414 4.584-3.315 1.565.053 2.607-.485 1.654-1.003-.496-.27-4.806-.211-5.78.071-2.864.83-4.031 2.416-3.769 4.61.396 2.71 1.883 3.487 5.507 3.295.695-.037 1.58-.315 2.428-.397zm1.863-8.829c0-.423-.685-.484-2.957-.82-3.026-.447-4.378-3.235-2.554-4.912.691-.636 2.339-.909 3.257-.742 1.995.362 3.215.77 3.234.096 0-.601-.575-.644-4.32-1.431-5.658-1.191-8.765 4.338-4.24 7.042 1.719 1.027 7.575 1.611 7.581.768zm1.403-7.911c.001-.212-.182-.375-.611-.541-.623-.242-1.041-.287-2.445-1.229-1.868-1.253-2.434-3.697-1.189-5.058 1.21-1.271-.967-2.772-2.701-1.337-1.802 1.49-1.651 3.83.425 5.682 1.911 1.705 6.515 3.479 6.522 2.484zm-9.168-.331c1.967-.918 3.379-.39 1.874-1.657-.845-.779-1.566-2.995-2.153-1.116-.449 1.12-.78 3.095-.792 3.29.132.134.102-.096 1.071-.517m69.564-4.768c-2.24-.555-3.77-3.144-3.2-5.633.322-1.406 1.652-4.72 1.913-4.926.989-.78.853.258-.054 2.061-.827 1.841-1.472 3.321-1.216 4.416.364 1.559.998 2.749 2.627 3.145 1.145.278 2.223-.197 2.954-.711.966-.679 1.88-2.422 2.973-4.835.349-.679.818-2.763 1.399-1.491.28.658-2.05 5.037-2.921 6.147-1.096 1.396-2.948 2.215-4.474 1.827zm13.504-1.465c1.091 1.04 2.935 1.564 4.139 1.191 2.955-1.036 4.297-3.815 3.178-8.281-.566-2.504-1.051-4.061-1.54-4.37-.238-.15-.498.13-.73.478-.207.311.109.748.444 1.926 1.412 4.963 1.043 7.207-.68 8.156-2.5 1.376-4.642-.209-5.367-3.75-.116-.547-.459-1.663-.459-1.663-.191-.492-1.74-.383-1.177 1.265.169 1.275 1.35 4.317 2.191 5.047zm12.674-12.999c-.039-1.746-3.729-9.323-3.98-8.519 0 0-.016 1.771.129 2.468.055.263.246.507.404.787 3.207 5.691 2.712 9.702-.069 10.58-.947.428-1.153.849-.73 1.29.857.927 3.006-.907 3.424-1.572 1.052-1.493.906-4.218.822-5.034m-53.698-1.288c1.209-1.343 3.859-5.979 4.676-8.411 2.514-7.238 5.156-15.564 5.886-23.26.081-.971.132-2.449.18-2.575-.198-.212-1.444-.101-1.863.112-.201.26-.066.836-.138 1.587-1.125 8.652-3.202 16.534-6.281 24.558-1.347 3.486-2.598 5.78-4.221 8.204-.283.423-.644.859-.786 1.105-.41.589-.108.975.367.725.844-.475 1.572-1.388 2.178-2.045zm-4.121 2.105c3.855-5.281 6.596-11.622 8.726-19.105 1.346-4.844 2.531-9.745 3.241-14.739.146-1.066.263-1.78.054-2.099-.52-.14-1.492-.053-1.829.206-.206.311-.069.932-.259 2.37-.493 3.717-1.232 7.449-2.478 12.334-3.29 10.814-6.314 16.868-10.286 22.164-.321.446-.607.735-.578.924.042.277.427.255 1.059-.138.825-.645 1.768-1.209 2.35-1.918zm-5.873 2.807c1.886-1.066 5.206-5.703 7.553-10.698 2.632-5.896 4.835-12.556 6.278-18.324.626-2.528 1.516-8.84 1.389-9.255-.151-.494-1.994-.083-1.738.258 0 0-1.831 10.147-3.802 15.74-3.658 10.383-6.821 17.428-10.226 20.815l-1.325 1.313s.018.387.302.447c.679.125 1.131-.071 1.569-.295zm-2.887-.414c4.255-2.372 9.24-13.449 13.308-27.357.696-2.38 1.968-10.346 1.968-10.346s-1.696.063-2.023.418c-.329.481-.276 1.707-.751 4.618-1.83 8.798-4.589 16.822-8.737 24.753-1.794 3.514-4.775 6.824-6.656 7.767-1.052.527-1.36 1.108-.59 1.15 1.297.046 1.413.317 2.355-.188zm58.315 123.881c-3.191-.011-5.902 3.041-8.317 6.878-5.137 7.86-8.59 20.997-9.431 27.978l1.938-.365c-.291.133 3.623-18.582 9.586-26.595 3.224-5.056 3.088-5.132 4.897-5.596 2.288-.586 4.123 1.882 2.988 3.369-.411.503-.861.134-.734-.584.406-2.289-2.943-2.729-3.879-.48-1.076 2.586 1.785 4.894 4.581 3.876 2.498-.88 3.545-4.363 1.791-6.935-.902-.87-2.206-1.643-3.42-1.546m-16.8-.321c-3.822 4.785-5.714 9.702-8.061 16.415-2.345 6.708-4.029 13.268-4.759 20.797l2.062-.265c-.076-4.84 5.244-27.884 12.718-36.516.417-.547.753-1.001.721-1.127-.415-1.165-2.187.238-2.682.696zm8.443-1.787c-4.953 4.047-8.909 12.886-11.518 21.058-2.82 8.833-4.086 16.927-3.874 16.927l1.968-.289c-.147-.513 5.529-31.637 16.06-37.304.913-.454 1.105-.912.335-1.111-1.185-.166-2.139.223-2.97.717zm5.545.021c-10.815 1.42-17.882 34.506-18.118 37.252l-.04.256 2.153-.443.028-.158c1.483-8.453 2.928-14.38 6.298-22.021 2.628-5.663 6.252-12.902 11.668-13.605.44-.057.857.119.703-.392-.33-.811-1.949-.915-2.693-.89zm-64.453-10.419c-3.909 1.002-4.036 5.675-1.433 11.646.197.451.161.698.361.871.445.388.794-.153.844-.511.075-.543-.157-1.273-.571-2.334-1.611-4.133-1.224-6.514.371-7.568 4.088-2.101 5.189 2.213 5.807 4.199.151.484.203 1.149.47 1.185.816.111 1.205-.177 1.192-.177 0 0-1.083-3.716-1.743-5.112-1.068-2.259-3.609-2.732-5.298-2.2zm-28.358 4.412-.041 49.255-7.482 7.012c-3.211-2.747-7.429-7.048-7.429-7.048l.133-83.267-2.407-.192c-.589 35.775-.169 72.084-.197 107.929l22.124.163 18.311-28.541s.232-.34.305-.519c.225-.551.199-1.373.088-4.408-.045-1.233.094-2.181-.088-2.47-.184-.293-.575-.084-.94.08-.371.166-.592.107-.392-.33.113-.248.48-.792.797-1.31 1.028-1.684 1.28-2.224.932-4.091-.085-.459-.507-.848-.875-1.389-3.082-4.541-4.337-11.271-2.807-16.2.488-2.179.312-2.621-.741-4.319zm96.849-52.961c-2.011-1.031-1.973-1.008-1.985.943.011 1.459.039 1.812.587 1.616.793-.402 1.763-.772 2.495-1.082 1.398-.479-.377-1.093-1.097-1.477m7.964 5.073c-1.561-1.244-.985-1.101-1.427 1.704-.267 1.694-.611 1.738 1.144 1.178.997-.344 3.046-.127 2.127-1.295.01.021-1.538-1.327-1.844-1.587m-62.727 43.064c-2.395 1.447-4.841 8.458-4.841 8.458-8.369.996-11.872 9.215-12.246 16.068-.295 5.41-.663 11.727-.116 12.281 5.487-2.464 7.601.38 8.121-.387.238-.335-1.217-1.444-3.044-2.44-.424-.231-1.082-.647-1.33-.853-.666-.551 1.33-.077 2.592.78 1.609 1.094 1.88.866 1.181-2.331-.759-3.475-.884-3.901 1.791-5.278 1.07-.551 1.679-1.019 2.445-1.877.613-.686.77-.854.544.155-.391 1.747-1.947 2.509-3.348 3.218-.697.357-.985 1.075-.989 1.691 0 .629.719 4.025 1.054 5.11.31 1.031.424 2.065.664 3.115.629 2.728.669 3.263.351 5.242-.186 1.161-.281 1.823-.216 2.524l.147 1.505c0-.03-1.494-1.533-4.771-.245-2.362.929-4.229-.039-5.553-.727-.305 1.074-.236 2.241-.199 3.474 13.624 2.488 25.26 2.155 35.057 1.13.254-2.894 1.489-12.094 4.083-20.39 1.079-3.452 2.3-7.091 3.677-9.52.939-1.656 1.896-2.772 2.235-2.964.105-.064.115-.098.112-.142v-.259c-.034-.538-.164-1.371-.628-1.74-1.131-.901-2.935.259-3.528 2.268-.52 1.204-2.891 6.411-3.06 6.323-.14-.088-.469-.094-.35-.496.908-2.111 2.155-4.342 2.857-6.236.97-2.728 3.08-4.168 4.657-2.448.54.59.758 1.133 1.005 1.321.187.141.439.045.594-.188.594-.895-.784-2.926-2.262-3.334-2.134-.589-3.724.966-6.145 6.009-1.397 2.912-1.647 3.643-1.869 3.419-.049.02-.42.019-.286-.545.288-1.212 2.143-4.735 3.486-6.97 1.988-3.308 5.679-3.576 7.232-.705.237.391.249.903.513 1.252.476.615 1.26.493 1.454-.517-.211-.669-1.509-3.085-2.41-3.506-2.076-1.426-4.596-1.146-6.716.746-.481.429-.983 1.301-2.389 4.153-2.072 4.573-2.127 4.591-2.693 3.854.833-2.225 3.024-5.839 3.909-8.058.168-.331.202-.686.189-1.027-.051-1.613.212-4.463-3.202-6.488-2.911-1.567-6.754.081-8.063 3.167-1.002 2.363-1.735 3.986-2.24 4.321-.71.47-.577-.185-.507-.423 1.009-2.138 2.428-4.299 2.652-6.451.147-5.823-5.76-7.976-9.602-5.037zm-30.497-109.119c4.61-2.142 7.766-3.219 12.463-4.603.635-.278.736-.342.062-1.674-2.976-5.888 5.19-10.582 7.965-4.802.37.771.456 1.197.821.828.682-.894 1.493-2.164 2.336-3.613 3.123-4.838 4.537-10.356 6.203-15.227.691-2.861 1.655-5.853 1.928-8.921-6.197-10.783-10.514-21.157-17.093-30.757l-43.382-.031-.163 86.677c12.13-10.116 20.388-13.775 28.859-17.875zm48.833-3.185c.526-.555.982-1.477 2.868-5.346.337-.69.874-1.761 1.093-2.259.283-.911 1.343-1.48.827.15-.117.352-.319.827-.64 1.458-.628 1.128-1.224 2.509-1.67 3.411-2.412 4.832-2.298 7.648.398 9.745 2.013 1.924 6.242 2.141 8.492-.965.337-.5.637-1.144.735-1.38.978-2.372 1.699-3.558 1.885-3.793 1.001-1.27 1.162.304-.334 2.726-1.714 2.776-1.743 5.784-.262 7.901 2.196 3.137 6.366 3.226 8.984.709 1.361-1.594 2.442-3.622 3.313-6.214.193-.575.392-1.001.534-1.338.218-.519.532-.713 1.345-.868 5.572-1.067 10.248-6.783 10.912-13.024.087-.844.327-2.338.415-3.224.175-1.769.178-10.93 0-11.477-.094-.295-.26-.451-.623-.447-.278 0-.673.101-1.238.303-1.837.655-2.692.821-4.457.191-.583-.208-.986-.279-1.226-.259-.779.067.256 1.184 2.526 2.417.973.528 1.741 1.24.953 1.188-.229-.015-2.969-1.43-3.347-1.662-1.248-.765-.922.198-.279 2.732.863 3.402.366 4.358-2.322 5.69-.501.249-1.166.767-1.505 1.101-1.424 2.104-1.057.554-.339-.567 1.226-1.283.474-1.72-2.039-.831-2.867 1.014-4.163.274-4.964-1.319-.907-1.801.799-4.118 2.222-4.072.461.015.378.18-.301.643-.82.559-1.208 1.099-1.294 2.055-.174 1.948 1.221 2.775 3.169 1.468.92-.617 1.644-1.043 2.341-1.201.691-.157 1.728.1 1.724.652-.001.227-.033.786.016.909.183.617 1.17-.256 1.599-.566 1.467-1.096 1.42-1.313 1.019-3.091-.655-2.489-.986-4.764-1.611-7.287-.334-1.322-.39-2.815-.187-4.162.102-.675.365-2.063.418-3.013s-.01-2.308.029-2.307c1.457 1.114 2.049 1.309 3.471.77 2.2-.901 3.59-.807 5.444.079a17 17 0 0 0 1.311.559l.084-2.857s-1.716-.353-4.887-.77c-9.547-1.254-29.138-1.518-29.867-.366-.185.293-.37 2.334-.891 5.171-1.155 5.896-2.45 11.773-4.183 17.526-.355 1.172-.695 1.644-.513 1.679.075.014.429-.44.594-.63.929-1.071.217 1.473-1.185 4.537-.127.277-.231.58-.231.673-.001.185-.882 2.321-1.489 3.612-.378.802-.69 1.044-.687.531.426-1.766 1.552-4.049 1.715-5.622-.987 1.424-2.424 3.776-3.511 5.179-.201.378.012.495.187.962.654 1.744 2.236 1.9 3.151.321.51-.881 2.094-4.198 2.646-5.651.567-1.494.965-2.281 1.154-2.379.379-.196.452.653-.22 2.066-2.04 4.288-2.914 6.691-3.913 7.577-.775.688-2.116.644-2.862-.58-1.263-2.076-2.342-1.388-1.182.74 1.197 2.199 3.934 2.404 5.363.424.472-.654 2.692-4.889 3.39-6.611.39-.961.806-1.71.945-1.764.746-.287-.105 1.909-2.246 6.304-.694 1.697-1.808 3.478-3.316 4.029-3.664.802-4.16-1.135-5.434-3.341-.62-.549-1.181.329-.943 1.299.385 1.574 1.104 2.19 2.214 2.98 2.319 1.475 5.543.46 6.712-1.222zm16.346 9.196c-.332-.735-.285-1.481-.115-2.177a17.8 17.8 0 0 1 1.763-4.416c1.203-.569.284 1.694.134 2.03-1.451 3.024-1.588 4.194-.234 4.543 1.16.299 1.784-.41 2.881-3.122.563-1.391.788-2.007.987-2.088.422-.17.626.001.601.425-.726 1.78-1.293 3.652-2.484 5.13-1.166.976-2.923.981-3.533-.325m-10.884-2.323c-.505-.098-1.371-.75-1.972-1.3-2.05-1.876-1.712-4.47.83-9.346.197-.379.937-1.853 1.175-2.337.426-.867.844-.528.841.046-.001.161-.636 1.508-1.278 2.758-2.808 5.485-2.711 7.722.017 9.026 2.663 1.274 3.856.541 5.979-3.646 1.228-3.143 1.834-3.195 1.767-2 0 .446-1.489 3.459-2.449 4.86-1.391 2.031-2.595 2.392-4.91 1.94zm.202-2.646c-1.045-.646-1.472-2.255-.854-3.571.562-1.085 2.002-5.246 2.678-5.48 1.088-.037.507.873-.841 3.432-1.594 3.389-1.537 4.296-.307 4.814 1.139.48 1.679-.504 3.359-4.468.264-.622.632-1.269.848-1.134.267-.02.731.181-.152 1.977-.21.43-.565 1.33-.958 2.17-1.148 2.453-2.451 3.078-3.774 2.26zm18.871-7.195c-.46-.236-2.616-1.083-2.296-1.784.039-.066.165-.014.228.028 1.974 1.321 4.43 1.657 6.99-.177.431-.379.753-.123.512.354-.776 1.537-4.227 2.194-5.435 1.579zm-6.342-2.228c.06-.147.237-.587.395-1.177.237-.887.181-1.541.391-1.428.895.483 2.494.494 3.277.017.858-.523 2.6-.683 3.234-.271.907.589 1.368.315 2.004-.18.717-.558.73-.32 2.025.129.957.331 1.332.558 1.739.485l.573-.365c.311.056.346.938.633 1.944.254.891.109 1.105-.69.572-.594-.397-2.302-.584-4.079-.04-1.316.403-1.619.241-2.585.078-2.407-.406-4.144-.72-5.937.317-.958.554-1.306.842-.98-.082zm-5.987-4.398c-1.166-2.336 1.516-5.43 3.874-4.338.782.362 1.477 1.734.32 1.105-5.362-1.081-4.023 6.762 1.736 2.619 3.827-2.537 6.535-2.93 6.76-.475-.107.902-.909.758-1.517.84-1.586.221-2.173.478-4.011 1.265-2.797.88-5.53 1.599-7.163-1.017zm20.983 1.08c-1.308-.336-2.445-.852-3.809-1.099-1.351-.235-1.961-.94-1.717-1.888.254-.985 1.607-1.089 3.64.151 2.254 1.375 3.889 1.708 4.714 1.189 1.668-1.048.768-2.754-.823-3.191-1.195-.332-.316-.796.969-.414 2.073.785 2.117 4.526-.015 5.302-.713.26-1.97.189-2.959-.052zm-18.265-12.383c1.523-.94 2.993-1.779 3.517-2.34.275-.294 1.039-1.282.446-.981-3.105 1.863-6.709.316-9.321-.959-1.254-.586-.946-.326-1.909-.262-.653.043-1.178.18-1.295-.286-.052-.206-.417-.12-.651-.143-.965-.095-.355-1.371 1.672-2.777 2.391-1.658 4.476-2.741 6.547-3.187 2.151-.464 4.343-.201 5.952 1.345.618.594.563.99 1.128.625 1.289-.833 1.3.272.213 1.295-.747.702-.474.893.439 1.561.436.319.079.623-.165 1.087-.092.284-.02.596-.064.811-.204.998-4.756 4.527-6.404 5.13-1.134.211-.539-.642-.106-.92zm3.161-6.484-.756.01c-.86 2.623-2.449 3.517-3.77.372l-.602.061c-.027 2.664 4.562 4.336 5.128-.443m-4.97 2.46c-.312-.522-.663-1.721-.989-1.738-.887-.037-2.114.122-1.823.671.458.869 3.174 1.673 2.812 1.067m6.082-.468c.818-.492.992-.831.459-1.372-.689-.698-1.049-.342-1.265.773-.186.958-.052 1.115.807.599zm-11.092-1.844c5.48-2.476 7.559-2.796 9.785-2.183.516.142.973.43 1.261.413 1.066-.064.386-1.256-1.528-1.939-2.186-.78-3.572-.425-7.773 1.761-2.46 1.28-4.458 3.174-1.745 1.948m15.883-3.005c-.078-.148-.41-1.133-.504-1.493s-.179-.731-.282-.733c-2.543.406-4.778-.069-5.379-.212-3.846-.916-7.561-.73-10.335.354-.678.265-1.517.694-1.598.769-.219.205-.543-.028-.542-.284 0-.3 1.704-1.645 2.778-2.176 3.264-1.614 6.708-1.89 10.49-.874 2.464.943 4.052.79 5.627.102.773-.338.225.498-.02 1.607-.169.768.017 1.426.049 1.86.097 1.049-.023 1.575-.283 1.078zm57.289 221.437v-86.851c-14.418 10.619-41.688 21.696-41.688 21.696 3.434 6.986-4.131 12.964-8.47 5.87-4.465 5.005-10.616 22.536-10.834 28.358 0 0 11.878 20.706 17.673 30.927zm-79.415-28.598c.396-4.361 1.33-11.753 4.239-20.356 1.22-3.609 2.692-7.75 4.771-11.457.83-1.296.887-1.797 0-1.331-.557.293-3.098 3.154-3.444 3.877-3.899 8.212-5.703 18.078-7.129 25.611-.323 1.693-.419 3.798-.419 3.798zm2.852-.358c.928-10.593 4.832-24.895 10.697-34.216.551-.888 1.231-1.659 1.205-1.966-.077-.906-2.335.66-4.087 3.334-1.956 3.872-3.916 8.003-5.415 12.577-2.117 6.456-3.662 12.42-4.264 20.514zm5.637-.885c.588-6.104 2.486-11.704 4.077-17.314 1.945-6.86 4.542-11.909 7.569-16.455.971-1.458 2.116-2.823 3.205-4.213.139-.167.278-.468.247-.593-.699-.122-1.255.094-1.796.397-.755.422-1.817 1.487-2.437 2.276-4.31 5.488-6.63 11.895-8.782 18.368-2.067 6.217-3.556 12.195-3.847 17.825zm-38.714-4.679c.867-.068 1.425.095 1.677-.135.25-.228.168-.843.247-1.629.168-1.68-.01-1.588-1.058-.502-1.741 1.797-4.917 2.49-6.807 1.403-.953-.548-1.616-.928-1.706-.472-.105.532.04.938.448 1.222 2.289 1.042 4.462.326 7.199.112zm-2.046-1.287c1.206-.4 2.431-1.042 3.12-2.023.658-.936.647-1.07.149-.892-2.45 1.203-4.06 1.814-6.25 1.482-2.965-.45-3.088-.073-1.128 1.153 1.283.802 2.347.825 4.109.281zm-4.354-3.754c.46-.338.577-1.715.207-1.793-.375-.079-.92.604-1.054 1.161-.15.738.399.927.847.632m4.591-.059.788-.071c-.403-3.453-4.159-3.602-4.852.346l.595.088c.775-3.147 3.046-3.061 3.469-.363m2.476-.556c1.149-.639.752-1.432-.798-1.735-1.017-.239-.961.592-.434 1.718.262.559.445.455 1.232.017m-8.845-4.232c-.01-.385-.168-1.005-.351-1.379-1.324-2.707-2.055-5.906-1.905-9.881.108-2.849.143-3.73-.45-3.734-.829.398-1.319 5.699-.263 10.114.744 3.115 3.024 6.98 2.969 4.88m-.032-4.315c-.081-1.489.247-4.825.084-5.553-.215-.957-.783-1.821-1.103-2.051-.497-.357-.622.328-.45 2.116.404 4.196 1.079 7.373 1.469 5.488m.419-7.638c.327-.588.2-1.213-.521-2.616-2.839-5.527-3.208-9.305-.242-10.677l.763-.305c.935-.517.579-1.456-.819-1.069-3.864 1.071-4.626 4.68-1.369 11.358 1.659 3.332 1.916 3.799 2.189 3.309zm.703-3.134c.051-.232.151-1.135.189-1.32s-.351-.717-.769-1.783c-1.092-2.783-1.115-3.938.073-4.745.385-.225.783-.236.842-.496.093-.404.086-1.068-.157-1.26-1.704.012-2.491 1.003-2.79 1.947-.45 1.492.019 3.678 1.357 6.386.648.844.987 2.389 1.253 1.271zm1.303-3.601c.911-1.835.047-4.214-1.207-3.402-.814.526-.855 1.083-.356 2.611.608 1.861.968 1.991 1.563.792zm3.196-4.91c.365-.36.041-.878-.633-2.905-.577-1.737-.313-2.923.787-3.266 1.578-.388 2.136 2.186 2.468 3.271.171.838.723 1.069 1.213.486.137-.163.177-.299-.057-1.213-1.018-3.991-2.35-5.26-4.495-4.266-1.988.922-1.727 2.983-.286 7.318.193.58.321 1.01.461 1.07.114.049.34-.295.542-.495m1.761-1.355c.471-.465.443-.255-.096-1.92-.615-1.898-.938-2.294-1.599-1.642-.406.401-.201.841.262 2.395.538 1.805.682 1.908 1.433 1.167m82.417-6.5c3.138-2.158 1.844-6.033-2.286-7.469a17 17 0 0 1-1.193-.455c-1.897-.91-3.373-1.192-3.378-.48 0 .418.567.629 2.386 1.513 2.691 1.308 3.299 2.818 1.971 4.723-.957 1.373.836 2.945 2.5 2.168m2.847-4.715c.272-1.108.677-2.058.871-2.703.266-1.01-.077-.776-.748-.618-1.73.895-2.967.409-2.127 1.639.933 1.637 1.703 2.901 2.003 1.682zm-.215-3.872c2.155-1.287 2.633-4.641.627-6.239a7.3 7.3 0 0 0-2.315-1.192c-2.041-.621-4.987-.903-6.067-.576-.232.273-.241.702-.01.826.301.111.844.185 1.629.264 2.999.304 4.479 1.194 4.335 3.317-.148 2.187-1.902 3.028-5.068 2.337-1.703-.372-2.495-.192-1.812.205.812.472 2.559 1.092 4.28 1.429 1.472.258 3.15.357 4.399-.372zm-10.344-.552c2.426-5.429 3.704-19.669-10.158-29.963l.459 2.848c8.167 7.136 10.129 16.224 8.437 24.559zm12.376-9.733c-.868.561-1.593 1.143-2.708 1.639-.667.298-.684.371.222.864.438.238 1.16.677 1.437.974.48.516 1.045.714 1.257.526-.022-.808.255-3.479-.208-4.003m-4.102 1.029c2.808-.884 4.31-2.231 3.99-4.485-.469-3.306-3.242-4.004-8.436-2.712-2.498.621-2.721 1.791-.35 1.188 2.994-.761 5.345.389 5.027 2.574-.186 1.885-1.706 2.983-4.376 2.984-1.41 0-1.845.125-1.654.632.129.344 4.642.183 5.799-.181m-4.636-7.853c4.59-1.568 6.724-4.006 5.675-6.737-1.234-3.216-5.24-3.248-9.265-.255-1.88 1.372-1.592 1.88.23 1.182 2.362-1.082 3.881-1.249 4.848-.389 1.747 1.553.568 4.262-2.08 5.233-1.283.531-1.695.825-1.697 1.209 0 .607.23.461 2.289-.243m7.742-.05c.118-.952-.96-4.252-1.426-3.493-.123.201-.552 1.133-1.094 1.617-1.579 1.41-1.28.876.288 1.308.871.24 2.103.852 2.233.568zm-12.139-7.054c4.64-2.681 6.411-6.507 4.006-9.05-2.162-2.286-5.745-.955-9.073 3.201-1.526 1.906-.38 1.666 1.678-.146 2.396-2.111 5.444-1.092 5.428 1.544-.01 1.126-1.605 3.019-3.116 3.899-.469.273-.538.692-.372.964.179.294.555.104 1.449-.412m8.134-2.796c-.242-.72-1.988-3.813-2.363-3.707-.396.793-.425 1.836-.9 2.677-.647 1.264-.565 1.066 1.496 1.06 1.534-.01 1.719.209 1.767-.029zm-13.638-3.496c3.898-4.033 4.243-8.755.59-9.842-2.023-.602-5.258.856-5.267 2.362-.01.937.17 1.108.99.771 3.445-1.277 6.175 2.024 3.011 5.819-.77 1.099-.873 1.375-.649 1.602.263.266.476.166 1.325-.712m41.988-34.484v-106.886h-22.814l-18.121 28.218-.027 6.984c-.001.241.412.391.678.088 1.03-.794.632.04-.552 1.837-1.197 1.817-.831 3.314.478 5.254 2.775 4.112 4.222 11.66 3.041 15.65-.446 1.507-.545 2.115-.254 2.958.333.964.537 1.479 1.5 2.1.838.582 7.729 3.261 18.831 10.377l-.054-50.216 6.995-6.684 7.39 7.048.259 82.905c0 .877 1.721 1.276 2.649.368zm-4.002-83.036-6.187-5.744-6.117 5.659c-.032 27.005.155 82.428.155 82.428l6.079.436s.446-1.264-.123-4.533c-.854-4.905-.801-10.895.571-20.006.855-5.59.01-10.436-1.291-15.54-1.126-3.401-1.166-6.548-.961-9.59.432-4.851 1.772-8.514 1.936-15.493.093-3.978-.097-7.874.049-12.781.06-.658.339-.577.388.102.186 4.442.359 8.661.399 12.998-.133 5.64-1.517 11.445-1.669 16.608-.114 3.577-.172 4.814 1.343 9.169 2.381 6.844.814 17.358.786 17.545-1.009 6.736-1.744 15.353 1.662 21.8l3.301.294zm-42.568 50.943c1.826-.836 2.187-2.313 1.204-5.869a72 72 0 0 1-.444-1.677c-.211-.878-.606-.974-1.134-.276-.315.417-.024.514.46 2.469.733 2.955.307 3.933-.795 3.926-.977-.01-1.738-.809-2.017-2.726-.095-.655-.235-1.101-.393-1.363-.266-.439-.585-.36-.843.125-.334.628.293 3.214 1.126 4.467.904 1.264 1.526 1.523 2.836.923zm-.497-2.654c.389-.728-.093-2.519-.344-3.692-.232-.655-.495-.814-.93-.708-.647.158-.616.864-.381 2.025.477 2.366.735 2.665 1.656 2.375zm5.549-4.268c2.088-1.187 2.288-3.234.885-6.958-.575-1.527-1.292-2.601-1.687-2.613-.155.971-.298 1.489-.125 1.87.163.354.437.895.633 1.348 1.188 2.747.868 4.33-.279 5.188-1.071.801-.394 1.475.573 1.164zm-68.359-1.431c4.899-1.045 9.317-8.893 12.1-15.893 2.535-7.052 5.23-14.799 5.656-21.26 0 0-1.853.085-2.08.467-.21.376-.302 1.187-.498 2.341-1.277 5.944-2.292 10.458-4.52 16.044-1.547 3.878-3.234 8.268-7.423 14.164-1.376 1.648-2.95 2.669-4.929 2.944-.504.07-1.351-.024-1.565.126-.375.264-.037.863.931 1.105.868.216 1.748.075 2.328-.039zm67.499-.918c.748-.792.821-1.734-.017-3.724-.235-.558-.343-.874-.622-.796-.591.164-1.28 1.713-.873 3.023.532 1.708.842 2.207 1.511 1.497zm-69.208-1.247c1.435-.191 3.253-1.328 4.566-3.111 2.699-3.52 4.562-7.524 5.943-10.638 1.106-2.509 3.103-7.924 3.646-9.885 1.152-4.166 1.783-6.854 2.308-9.836.048-.274.094-.712.012-.854-.568-.155-1.814-.062-2.197.32-.688 4.783-2.287 9.581-3.455 13.569-1.971 6.784-7.59 17.637-10.653 18.148-1.647.275-3.535-1.152-3.231-2.617.186-.899.31-1.242.752-1.467 1.068-.374 1.689.35.518.823-1.357 1.176 1.086 2.974 2.586 1.718 2.543-2.13-1.193-6.209-4.252-4.334-3.388 2.077-2.518 5.674-.387 7.384 1.074.862 2.319.983 3.843.779zm23.994-4.87c2.093-2.141 3.666-4.914 4.809-8.38 2.478-7.784 4.533-16.707 5.278-23.697 0 0-1.788-.184-2.186.193-.281.266-.012.519-.773 5.627-1.277 7.447-3.139 14.842-5.832 21.244-1.104 2.589-1.417 2.906-2.196 4.25-1.088 1.899-.685 2.383.9.762zm46.444-16.227c-.194-.1-.177-.035-.26.022-.285.197-.099 1.191.549 2.726 1.707 2.745 1.906 8.074 1.795 10.076-.034.601-.096.946.087 1.481.181.524.499 1.134 1.01.112.561-3.945.12-8.075-1.397-11.419-.535-1.189-1.059-2.352-1.784-2.998m1.314 11.633c.299-1.061-.253-5.271-.939-6.75-.276-.596-.775-.642-.716.035.01 1.458-.153 4.232.01 5.054.746 1.715 1.326 2.807 1.649 1.661zm-3.864-17.005-.806.001c.028 2.753-2.422 3.518-3.325.212l-.725.167c.964 4.666 5.32 2.527 4.856-.38m-4.897 2.075c-.419-1.222-.245-1.668-1.307-1.119-.811.42-1.297.866-.155 1.414 1.016.429 1.727.477 1.462-.296zm6.135-.703c.336-.678.296-1.289-.21-1.292-.391 0-.5.308-.611.966-.198 1.174.293 1.391.821.326m.426-4.574c.31-.098.222-.534.139-1.089-1.327-1.839-4.611-1.276-5.791-.911-1.362.44-1.704.276-2.631-.147-.766-.142-.874.044-1.06.408-.164.321-.193.932-.246 1.995-.045.899-.013 1.316.301 1.035 1.216-1.088 2.623-2.447 4.676-2.532 2.489-.103 4.614 1.28 4.612 1.24zm-9.041 2.49c0 .371.315.14 1.125-.367 2.947-1.745 4.654-1.498 7.177-.666.562.185.91-.401.301-.9-2.997-2.455-6.688-.89-8.603 1.933m10.679-11.306 15.988-26.357-89.072-.065 15.124 27.984c12.333-2.846 32.634-6.479 57.96-1.561z" style="fill:#131f67" transform="matrix(.72983 0 0 .76856 -725.363 -1346.645)"/><path d="M1067.615 2014.889c1.887-2.806 11.229 2.193 11.724 4.174 5.529-4.34 12.244-4.656 17.647.776 5.556-6.055 11.503-5.641 17.69-2.134-.691-1.368 7.911-7.409 13.139-3.57l14.139 25.107-90.579.291c5.351-8.008 10.09-17.573 16.241-24.644zm-39.565-130.951c-.492-1.359-2.479-15.306 2.562-15.654 8.151 3.603 18.554 16.489 23.375 24.365 5.974 9.759 12.01 32.198 8.677 31.218-.481-.142 10.288 10.609 11.03 11.659 1.22 1.726-18.154 33.897-21.354 32.743-.967-.349-7.419-4.189-7.419-4.189l.185-10.734s10.139-19.959 10.701-26.628c.212-2.52-6.976-6.833-7.305-7.704-.819-2.17-.722-10.231-4.911-13.75-2.309-1.401-4.489-.954-6.832-.656-9.507-1.583-4.581-17.557-8.708-20.669zm158.992 7.165.057 3.96c-6.259 1.36-17.321-3.926-20.67 4.59.415 9.198 2.482 13.322 3.925 16.1 1.085 2.495 8.696-.352 11.377 2.165 7.691 9.44 5.876 22.01 5.944 33.336l-3.337 1.681c-23.059-13.562-40.766-55.69-43.219-67.684-.157-7.7 21.155-32.445 21.155-32.445.048-.054 7.765 4.684 7.765 4.684.186.075-.164 32.476-.163 32.326 6.094.313 12.001.906 17.167 1.287zm-46.847-29.615c-11.831 16.917-15.832 42.2-15.072 59.836 1.534 26.33 20.349 49.805 19.091 52.023-.214-.154-.711.107-.9-.06-4.333-3.843-7.361-3.17-9.577-3.205-4.236-.067-5.407 1.193-7.837 1.433-6.206.614-5.702.77-10.967-1.207-6.643-5.402-15.541-9.544-22.622-11.723-5.676.51-14.332 3.184-17.605 1.018 22.769-41.906 19.359-68.733-4.213-112.656 1.954.574 2.258 2.394 3.722 2.843 4.845 1.867 11.522 1.159 15.523-.582 4.344-1.951 8.446.906 8.39.811 8.554 6.023 18.906 9.909 24.294 12.594 1.592.82 3.604-.474 5.363-.829 3.602-.727 6.689-2.264 9.377-1.364.862.289 2.148.642 3.033 1.067zm-53.156-54.839c-1.159-2.151-13.015-24.645-13.015-24.645l88.19.53-13.231 21.701c-1.249 1.178-7.464 4.461-13.803-2.973-.119 1.068-9.407 7.675-17.391-.281-4.805 4.354-9.706 6.877-17.79 1.975-.18 1.367-6.485 7.498-12.96 3.693" style="fill:#e2cf00" transform="matrix(.72983 0 0 .76856 -725.363 -1346.645)"/><path d="M1096.687 2019.336c-8.545-7.99-17.44-.778-17.236-.321-3.382-3.429-6.689-6.237-11.147-4.858 0 0 .001-1.203.034-1.23 13.291 2.428 33.648 3.057 57.444-1.913l1.222 2.549c-6.382-2.264-9.671.79-12.499 4.355-10.243-6.378-12.741-.783-17.817 1.418zm19.929-92.925 6.045-.118c1.139 17.558 15.826 44.426 16.18 44.426-1.023-1.418-10.72-.3-10.648-.121-5.332-14.206-11.186-28.399-11.577-44.187m-35.257 41.653s-1.945-5.033-3.109-7.187c6.347-10.824 11.553-22.027 14.223-34.486l4.323.038c-1.281 17.199-15.064 43.32-15.437 41.634zm77.767-2.303c9.521-17.158 7.878-41.889-19.134-55.557 0 0 .704-18.128 2.713-18.169.453.14 12.226-.151 12.226-.151 3.084-7.56 8.048-16.702 14.983-22.876l.174 20.263c-5.133.506-8.263 2.141-9.818 6.151l-7.112 1.581c.523 20.356 8.192 39.163 30.937 56.056-5.435 4.665-24.014 14.137-23.942 13.971zm-113.969-12.789.202-21.101c3.449-.744 6.168.254 9.016-5.92 0 0 4.779 2.266 6.367 3.101-4.467 7.983-8.324 16.514-15.585 23.919zm45.283-37.358.234-10.712 10.183.293c-.865 3.632-1.135 7.265.02 10.897zm23.233-.13c.695-3.505 1.192-7.03-.25-10.75l11.027.188-.26 10.669zm-20.97-20.947c-1.834-21.011-16.249-44.792-16.451-44.286 1.698.272 4.689 1.112 6.335.333 1.993.33 3.719.105 3.813-.079.133-.735 13.4 30.506 11.629 43.983-.211.456-4.894.486-5.326.048zm25.486.184c1.556-9.706 5.573-27.461 15.059-41.86 1.078 2.557 1.983 5.185 3.463 7.575-7.153 10.394-11.56 22.274-14.234 34.401zm-65.935-5.232c-4.34-8.844-22.397-22.767-21.473-21.36 7.474-6.692 15.811-10.943 24.132-15.236 0 0 1.479 1.402 1.255 1.755-5.115 8.053-7.596 25.116-2.643 34.895 4.76 10.445 13.203 16.62 21.812 21.468-.666 6.531-.991 11.251-2.6 17.744 0 0-5.409-2.841-9.842-4.67-.705-12.332-3.26-23.363-10.641-34.595zm47.823-86.663c6.364 3.875 12.064 3.467 17.59-1.792 6.937 6.288 14.439 3.359 17.609.525 2.933 3.301 6.756 5.133 12.345 4.042l-1.384 2.903c.331-1.542-38.547-4.06-57.358 1.201 0 0-1.1-2.19-.977-2.209 1.637-.099 7.086 1.917 12.177-4.669z" style="fill:#d40000" transform="matrix(.72983 0 0 .76856 -725.363 -1346.645)"/><path d="m57.975 22.47 11.499 22.534.506-.1c15.938-3.277 28.562-3.725 42.12-1.217l12.053-20.978c-21.936-.263-66.178-.24-66.178-.24zm1.281.96 63.945.074-3.596 6.206c-2.155-.7-3.355.34-3.657 2.511 0 0-.266-.12-.765-.177-3.152-.358-3.55 4.01-.608 4.538.75.135.878-.022.878-.022-2.624 2.32-4.115.755-5.35-.01-.033.27-2.35 2.103-4.537-.09 3.13.33 3.617-2.971 2.121-4.227-.313-.324-.632-.577-.632-.577.737-.675.897-1.573.425-2.6-.95-2.066-3.925-1.946-4.38.31-.177.878-.182 1.032-.182 1.032-2.403.166-2.891 2.552-2.066 3.876.47.753 1.502.916 2.455.866-1.285 1.915-4.225 1.263-5.535-.315-2.082 2.573-4.454 2.26-5.638.88.805-.009 1.359-.021 2.097-.74 1.263-1.228.643-3.407-1.141-4.016a3 3 0 0 0-.615-.145c.013-.018.046-.139.123-.795.444-3.8-4.966-3.424-4.443.314.06.433.172.666.172.666s-.574-.034-.903.126c-3.004 1.457-.934 5.47 1.388 4.438.22-.098.82-.407.906-.403-2.876 3.75-5.29 1.092-5.926.684-1.942 3.03-5.314.963-5.384.75.21.062.842-.076 1.443-.4 1.9-1.041 1.363-3.724-.12-4.308-.453-.167-1.002-.185-1.619-.133 0 0 .047-.676-.014-.914-.934-3.653-5.252-1.83-4.19 1.257.094.27.345.543.345.543s-.585.375-.847.621c-2.06 1.952.037 5.171 2.444 3.832l.7-.514c-1.133 2.178-2.853 2.94-5.304 1.135-1.512 2.523-3.98 1.475-4.675.211 2.305.222 3.803-4.428-.628-4.579-.345-1.263-.328-3.186-3.137-2.855zm31.228 7.978c.508 0 .917.434.917.97 0 .534-.41.969-.917.969s-.92-.435-.92-.97.413-.969.92-.969m14.288.115c.538 0 .973.462.973 1.028s-.435 1.025-.973 1.025-.973-.458-.973-1.025c0-.566.435-1.028.973-1.028m-28.007 1.12c.518 0 .938.442.938.988s-.42.991-.938.991-.942-.445-.942-.991.423-.988.942-.988m40.121 1.217-.815 1.524c-.9-.83-.28-1.918.815-1.524m-51.308 2.1-.81-1.575c1.45.103 1.022 1.196.81 1.575m24.787-.858c5.487 6.584 10.41 4.637 13.627.259 1.38 3.731 4.456 6.311 9.75 3.802-.32.596-1.123 1.65-1.123 1.65-4.679 1.327-7-.992-8.806-3.2-4.759 4.16-9.24 3.152-12.939-.518-3.157 4.185-8.268 5.084-12.999 1.668-2.163 3.361-5.266 4.718-9.167 3.036 0 0-.828-1.37-.9-1.457.565.5 7.75 3.64 9.505-3.914 2.501 4.47 10.702 4.708 13.052-1.328zm.551 2.708c6.173 6.078 12.651.822 12.817.45.097.339 3.62 4.769 8.7 3.104l-.825 1.49c-9.559-1.703-18.351-2.796-38.488.322 0 0 3.214-1.002 4.84-3.702.905.619 7.89 4.725 12.957-1.664zM69.28 42.847s2.688.332 2.898.389c.236.192-2.263.914-2.273.861zm5.448 29.002c-.163.008-.366.198-.703.547-.729.756-.895.855-1.602.962-.533.08-1.66.763-2.343 1.42-.184.177-.537.326-.959.403l-1.12.204c-.25.045-.521.128-.604.181-.359.23-.943.266-1.599.1-.632-.16-.733-.155-1.43.07-1.014.33-1.678.33-2.177 0-.5-.329-1.292-.452-1.795-.281-.743.253-2.67-.961-2.666-1.68 0-.162-1.095-1.026-1.37-1.028-.976-.152-9.555 3.414-9.51 3.621 10.533 13.701 19.4 34.574 12.72 60.118l-1.18-.595c.993-4.643 1.385-9.316 1.69-14.063-19.772-8.989-21.474-29.893-13.8-43.09l-1.302-1.46c-4.65 2.612-9.376 4.096-20.87 14.25l.03 16.438c.03 14.86.022 29.338.022 29.338 4.16.485 8.74.881 13.259 1.291 0 0-.058 14.696-.161 20.443-.088 4.861.084 4.557.084 4.557l14.962 8.307c-1.052-4.375 1.543-6.114 3.716-5.932-.96-4.218 1.423-6.15 4.145-5.608 1.838.366 2.481 1.434 3.533 4.96.17.574.406 1.34.406 1.34l1.049-.04c1.312-2.969 2.189-6.746 5.278-7.236 4.042-.64 5.547 2.284 5.545 5.208 3.916-3.635 8.608-.822 8.303 4.607 1.97-1.334 5.31-2.54 7.414 2.604.791-.175 1.194-1.103 2.306-1.394.416-.091 1.36-.625 1.36-.625l.01-.178s.875-.319 2.047-.521c1.006.395.713.382 1.255-.322.603-.326 1.583-.54 2.338-.47.792.075 1.145.136 1.609-.077.722-.333 1.398-.418 1.826.085.307.36.752.187 1.229.167.954-.041 2.227.372 2.624 1.276.585.627 1.864 1.265 1.864 1.265l1.037-.252.12-.403 8.475-3.406c-17.282-19.928-16.832-46.364-12.76-59.745l1.563.792c-.83 3.965-1.77 8.039-1.647 13.951 15.562 7.307 23.305 26.194 13.87 42.679l.998 1.357c3.925-1.734 13.798-7.572 17.21-10.744l.727.063s2.069-1.411 2.982-2.164l.122-43.748-.723.2-.13-2.555-12.83-1.073c.163-.128.286-.18.323-.437l-.074-24.218c-.476-.768-11.222-7.397-15.219-8.947-.16 0-.05.283.008.976.196 2.375-1.327 4.49-3.091 4.494-.635 0-.745.286-.713 1.649.045 1.94-.621 3.243-2.56 3.98-2.3.873-3.856-.393-5.136-5.375-.335-1.308-.993-.98-1.622.806-.312.887-1.324 3.04-1.928 4.176-.466.872-1.202 1.26-2.202 1.724-.78.406-2.47.336-3.442-.186-1.764-.943-2.449-2.077-2.957-4.885-.067-.367-.296-.335-.868.118-3.115 2.472-7.496-.084-7.47-4.357.007-1.254-.042-1.304-.741-.702-2.113 1.817-4.984.895-6.133-1.968-.27-.67-.413-.969-.622-.961zm-17.906 1.516c.22-.01.907.951.907.951.632.737 1.483 1.11 2.367 1.657.083-.13 10.314 14.33 12.055 34.268l4.76.027c-.888-19.373-5.962-28.685-8.29-34.66l1.708-.57c3.827 7.723 8.493 23.397 8.338 37.12h-7.86c-1.11-13.745-6.186-27.147-13.284-37.312-.494-.781-.881-1.326-.738-1.465l.039-.015zm-3.01 2.045.797 2.634s.096-.615.341-.847c1.553-1.475 3.04.466 2.34 3.1-.16.81-.471 2.407-.471 2.407s-1.56-.843-2.347-1.114c-2.166-.969-2.887-2.879-1.232-3.095.277-.036.846-.063.846-.063-.688-.57-2.205-1.872-2.205-1.872zm7.271.296c.654.392 2.343.813 3.312.43.784-.311 1.38-.14 2.195-.068.467.043 1.398-.173 1.398-.173 4.653 10.31 7.854 22.541 8.387 33.728l-3.66.022c-1.382-11.884-5.75-23.956-11.292-32.911-.245-.39-.571-1.014-.34-1.028m15.29.178c1.417.018 2.899 1.505 3.705 3.939.448 1.355.624 1.273 1.226 1.054 1.546-.558 3.192 1.23 1.12 1.528-2.033.354-.873 4.543-1.047 4.912-.824.151-2.372-3.409-2.332-4.468.1-2.597-2.217-4.768-3.657-3.677-.681.517-.608.881-.818.695-.648-.572-.778-2.152-.02-3.048.547-.647 1.178-.944 1.822-.936zm42.098.895s.08 3.415-.042 4.169c-.242 2.276-3.065 2.515-3.176.695-.46.728-.778 1.632-.962 2.445l-2.002-1.45c.76-.575 1.485-1.08 2.048-1.79-1.485.118-2.314-1.234-1.32-2.386 1.102-1.318 4.153-1.46 5.454-1.683m-73.61 1.08.885 1.05c-7.89 14.725-5.108 33.548 13.933 43.438-.126 4.518-.676 9.087-1.7 13.326l-7.025-3.588c.048-16.648-8.904-32.52-23.195-42.953 5.185-4.387 10.922-8.241 17.101-11.273m57.517.126c.335 1.944 2.083 5.465 2.209 5.263-.018-.115-7.274 9.787-10.428 26.35l-2.694.01c1.766-11.036 5.29-21.45 10.913-31.624zm22.362.463 1.434.914c-7.52 6.63-12.47 15.033-16.108 24.096l-1.9-.947c5.639-13.147 11.21-18.985 16.574-24.063m2.006 1.469c.393.026.86.55 1.584.969.708.409.531.626-.8 1.701-1.577 1.272-1.725 1.216-1.712-.6.01-1.203.298-2.006.85-2.067l.078-.007zm-1.732 1.87a.19.19 0 0 1 .194.097c.115.48.103 1.58-.082 2.667-.148.715-2.17 2.51-2.89 3.222-.29.2-.421.127-.475-.23.023-.563.075-1.314.084-2.078 0-.235-.044-.482.159-.662.99-1.231 2.431-2.982 3.01-3.014zm3.755.585.028.008c.186.117.156 2.585.025 2.748-.586.16-2.163-.102-2.568-.329-.088-.287 2.137-2.442 2.515-2.426zm-70.432.8.548 2.418s.157-.324.197-.388c1.089-1.753 2.413-.726 2.391 1.708-.007.769-.67 3.843-.67 3.843s-4.087-2.066-4.408-2.973c-.316-.893.132-1.678.885-1.75.28-.033.576-.058.899 0l-1.756-1.89zm46.79.321 1.855.721c-3.867 6.625-7.858 13.169-10.765 28.092h-7.773c1.087-9.12 3.29-18.086 7.222-26.812 0 0 1.527-.493 2.388-.788 0 0-6.424 15.48-7.172 25.432l3.755.086c2.003-9.699 5.753-19.75 10.491-26.73zm-14.716.24c1.045-.04 1.815.733 1.756 2.105-.013 1.255-.122 1.437-.965.936-1.107-.658-1.983-.672-2.975.074-.546.411-1.082.751-1.082.751s.48-2.18 1.212-2.867c.702-.658 1.428-.973 2.054-.998m-3.986 3.227c-.075.737-.282 1.076-.467 1.705 0 0 .608-.249.899-.392 1.38-.678 2.82.578 2.8 2.049.062.981-.951 2.157-2.157 2.167-.42.008-.866-.136-1.296-.473.311 1.798.374 2.63-.875 3.532-1.044.733-3.246-.104-3.122-2.116l.078-1.239-1.058.145c-2.953.128-3.005-3.7-.622-4.302.952-.236 1.985.584 1.985.584-.453-.938-.462-2.553.147-3.299 1.5-1.836 3.873-.167 3.688 1.639m25.784-2.39c.161 1.433.702 2.994.548 4.33-.23 1.71-1.609 2.722-2.694 1.613-.133-.136-.375-.422-.375-.422-.49.652-.794 2.497-.794 2.497l-1.915-1.243s1.33-.982 1.696-1.543c.103-.156.151-.45.151-.45-1.065.35-1.969-.797-1.678-1.81.576-1.657 3.441-2.272 5.061-2.973zm13.379 1.035c.716-.023 1.826.191 2.7.289.674.123.3.523-1.207 2.07-1.385 1.422-1.341 1.288-2.41 1.27-2.492-.045-2.93.014-1.478-1.635.76-.865 1.425-1.645 1.97-1.934a1.7 1.7 0 0 1 .425-.06m-4.496.3.081.037c.165.162.11.902.091 1.997-.019 1.166-.007 1.166-.47 1.776-.59.778-1.08 1.573-1.697 2.322-.533.61-.516.545-.835-.92-.31-1.421-.138-1.864 1.602-3.925.588-.794 1.008-1.297 1.229-1.287zm7.787.81.02 2.881c-5.145 5.298-8.64 11.257-11.018 17.824l-1.79-.75c3.103-8.392 7.748-14.935 12.788-19.955m-44.6 1.742c-.85 0-1.538.725-1.538 1.62s.688 1.625 1.538 1.625 1.542-.728 1.542-1.624-.69-1.62-1.542-1.62m-.01.51c.587 0 1.064.503 1.064 1.121s-.477 1.12-1.064 1.12-1.06-.502-1.06-1.12.473-1.12 1.06-1.12m-57.16.685c16.05 10.843 23.245 27.651 23.213 42.09l-.906-.428c-.94-20.404-11.47-32.949-22.855-41.067zm95.016.155c.363 0 .857.06 1.573.148 1.329.075 1.492.163.576 1.27-.251.302-.732.935-1.071 1.412-.34.476-.753.974-.942 1.043-.28.101-2.611-.015-3.277-.11-.218-.032.069-.267 1.205-1.976.87-1.31.964-1.744 1.788-1.783l.148-.008zm6.684.555s.318 9.3.087 15.231c-3.66-.143-5.81 1.32-6.705 4.091l-3.846-2.004c2.822-7.633 6.595-12.943 10.463-17.317zm-11.331.214c.208 0 .327.457.386 1.35.242 1.6.215 1.785-.418 2.811a61 61 0 0 0-.96 1.606c-.366.65-.628.844-.72.529-.501-1.725-.659-2.793-.48-3.14.292-.572 1.658-2.616 1.85-2.882q.2-.276.341-.274zm-91.549.174c12.9 8.411 22.338 22.776 22.729 40.131 0 0-2.75-1.359-4.447-2.352l-.088-1.687.896-.03.288 1.902 1.97-.067-.523-4.745-3.083.306-.622-2.689.934-.21.516 1.734 2.006-.558-1.068-4.228-3.098.891-.99-2.855 1.028-.388.833 1.708 1.886-.691-1.78-4.239-2.85 1.417-1.447-2.767 1.114-.625.896 1.646 1.763-.961-2.182-3.898-2.704 1.59-1.36-2.145.84-.618.927 1.128 1.549-1.154-2.374-3.363-2.59 2.135-1.914-2.335.882-.787 1.317 1.242 1.472-1.353-2.82-3.24-2.466 2.367-1.837-1.68.9-1.046 1.145.92 1.218-1.52-3.07-2.663-2.3 2.397-2.205-1.534v-1.143c.716.291 1.474.63 2.153 1.01l1.141-1.82-3.294-2.341zm35.928.718.488 2.967c.463-.807.832-1.362 1.833-1.051 1.203.516 1.22 2.424.2 5.344-.189.542-.422 1.01-.422 1.01s-.527-.23-.878-.484c-.736-.53-1.975-1.13-2.61-2.182-.663-1.102-.678-2.643.541-2.511.243 0 .72.122.72.122l-1.828-2.46zm-36.637.884 2.234 1.516-.464.888-1.77-.84zm56.003.7c.648.952-1.63 3.76 1.35 4.882 0 0 .072.646-.549 1.039-1.457 1.116-3.55-.922-2.901-3.018.415-1.341 1.616-2.896 2.1-2.904m6.182.088s.899.69 1.078.873c1.659 1.674 1.674 4.076.172 4.915-1 .56-2.13.109-2.521-.702-.182-.375.117-.768.498-.766.716.008 1.262-1.438 1.05-2.959-.083-.602-.277-1.36-.277-1.36zm19.57.558s.198 2.053.482 2.963c.87 2.552-.242 4.106-1.869 3.251-.232-.122-.643-.677-.643-.677l-.161 2.933-2.314-.71c.5-.848 1.22-1.45 1.76-2.404 0 0-.347-.013-.65-.015-1.383.05-1.893-1.564-.443-2.892 1.08-.98 3.84-2.449 3.84-2.449zm12.1.68 1.11.023c1.469 0 1.846-.209 1.198.754-.252.376-.868 1.42-1.05 1.776-.37.722-.445.949-1.06 1.091-.893.186-1.905.058-2.926.108-.222-.012.234-.813.488-1.31.623-1.219 1.003-2.056 1.538-2.312.21-.1.423-.127.703-.129zm-4.538.943c.178-.01.31.326.478 1.017.394 1.616.495 1.656-.141 2.982l-1.093 2.27c-.576 1.203-.61 1.192-.973.115-.697-2.065-.757-1.852.394-4.172.719-1.448 1.075-2.197 1.335-2.212m-84.654.566 2.076 1.753-.59.603-1.148-.892-1.697 1.912 2.79 2.678 2.36-2.449 2.023 2.227-.619.551-1.187-1.206-1.777 1.598 2.651 3.3 2.673-2.146 1.676 2.312-.685.451-1.093-1.116-1.738 1.268 2.164 3.21 2.726-1.646 1.549 2.682-.86.437-.879-1.472-1.957 1.187 1.848 3.755 2.943-1.295 1.184 2.867-.9.384-.755-1.724-1.98.825 1.327 3.943 2.986-.902.723 2.93-.92.269-.453-1.624-1.9.481.793 3.957 3.038-.203.362 3.2-.945.044-.235-1.908-1.935.026c.01.672.084 2.045.084 2.045l-1.17-.57c-1.738-12.165-7.935-22.305-17.168-29.363l-.049-1.454 2.248 1.502s2.061-1.933 2.416-2.426zm88.683 2.837c.644-.008.36.521-.425 2.093-.875 1.755-1.03 1.791-2.669 2.212-1.993.512-1.935.627-.857-1.793.416-.934.72-1.75 1.1-2.061.499-.407 1.467-.251 2.518-.418q.197-.03.334-.033zm-93.238.518c9.588 6.514 15.65 19.989 16.402 28.158 0 0-.26-.183-.783-.436-.727-.351-.905-.581-1.117-1.694-1.9-9.99-7.254-18.468-14.46-24.452zm86.47 1.668c.405-.09 1.144 2.978.924 3.62-.159.463-1.586-.63-2.105-.861-.259-.116.906-2.7 1.18-2.76m-46.24.14-.046 3.181s.364-.455.551-.6c.713-.547 1.803.212 1.845 1.151.057 1.302-.13 1.831-1.12 3.64-.307.56-.77 1.272-.77 1.272s-1.17-.877-2.448-2.22c-1.381-1.449-1.118-3.385.092-3.391.362 0 .684.127 1 .233-.26-.937-1.232-2.755-1.232-2.755zm37.48 2.382s.626.868 1.344 3.151c.687 2.18-.37 3.822-1.805 3-.257-.148-.527-.466-.527-.466-.1 1.057.078 2.958.102 2.974l-2.314-.425s1.271-2.126 1.362-2.653c0 0-.143.119-.779.119-2.325 0-1.844-2.915.843-4.531.404-.243 1.773-1.169 1.773-1.169m13.332.037c.503-.024.266.49-.291 1.687-.616 1.324-.462 1.209-1.764.51-1.82-.936-1.712-1.083.594-1.738.729-.284 1.198-.447 1.461-.459m-33.009.388c1.823.012 3.168 1.905 2.898 4.598-.464 4.62-.197 4.336.28 4.797.871.84-.307 1.344-1.345.543-.721-.557-.957-1.108-.923-3.658.038-2.931-.112-3.678-1.107-3.422-.621.16-.817.716-.748 2.693.096 2.774-.078 3.473-1.078 4.36-1.079.88-2.243.096-1.257-.484.45-.533.535-1.212.362-2.889-.19-1.428-.981-6.564 2.918-6.539zm45.067 2.33c.229-.007.46 0 .691.008 3.508.138 12.378.898 12.378.898l.077 2.76c-.396.256-7.016-.807-11.885-.71-1.139.022-1.945.551-2.768.107.79.345.718 4.508-2.764 3.5-2.953-1.119-1.513-5.324 2.262-6.384.65-.093 1.322-.164 2.01-.178zm-19.518 1.85 7.579 3.935c1.061 14.985 5.973 30.816 22.704 42.816-2.711 2.042-9.51 7.058-17.28 10.493l-.636-.718c9.226-16.523 2.256-34.71-13.902-42.941.044-4.586.59-9.111 1.535-13.586m26.662 2.511c1.454-.06 1.832.116 1.957.81.117.656.579.81 1.127.6 1.334-.512 2.148 1.98 1.043 3.085-.686.686-.566.95 0 .954 1.393.01 1.352 1.93-.063 3.018-.588.452-.58.657.035.976 1.03.535.821 1.593-.485 2.464-.71.473-.734.59-.147.758 1.478.424-.03 2.642-1.648 2.249-.663-.161-1.294-.01-1.928.425-1.733.76-2.022.91-3.891.666-1.642-.318-2.376-.887-2.8-2.404-.963-3.087-2.001-6.506-2.013-9.876-.145-2.069 3.148-3.94 4.708-4.02 1.27-.201 2.727.283 4.108.296zm-103.674.052c1.743 0 3.155 1.487 3.155 3.321s-1.412 3.322-3.155 3.322-3.154-1.487-3.154-3.322 1.412-3.321 3.154-3.321m35.054.976-.285 2.903s.463-.38.572-.477c.82-.722 2.117.085 1.823 1.21-.095.99-1.72 3.936-2.367 4.553 0 0-2.605-2.988-2.884-3.573-.619-1.3.227-2.653 1.352-2.08.161.082.626.445.626.445l-.825-2.755zm-34.843.233c-1.114.04-2.172.76-2.03 1.72.095.41.689-.182 1.275-.57a1.51 1.51 0 0 1 1.5-.11c.453.17.647.609.91.95.222.287.466.522.604.381.116-.152.069-.342.038-.514-.24-1.308-1.268-1.889-2.297-1.857m84.939.45 1.128.607c1.517 21.176 11.686 33.625 22.37 41.04l-.85.54c-13.112-8.845-22.215-24.693-22.648-42.186m1.707.87s2.831 1.526 4.313 2.23l.057 1.916-.99.037-.338-1.801-2.058.155.643 4.43 3.32-.428.463 2.677-1.124.248-.576-1.646-1.904.488 1.233 4.305 2.992-1.017.938 2.815-1.004.384-.643-1.65-1.97.726 1.524 4.201 3.116-1.054 1.257 2.63-.945.44-.903-1.63-1.868 1.005 2.192 3.925 2.813-1.554 1.314 2.098-1.033.728-.938-1.283-1.513 1.05 2.423 3.484 2.424-1.912 1.812 2.2-.8.748-1.237-1.32-1.464 1.375 2.887 3.336 2.507-2.293 1.781 1.746-.527.584-1.197-.788-1.588 1.776 3.031 2.777 2.407-2.777 2.04 1.583v1.169l-1.823-.973-1.222 1.938 3.044 2.427-.02.954c-17.385-10.921-21.958-27.86-22.844-40.46zm-35.59.21c.752-.023 1.545.72 2.856 2.32 3.663 4.468 2.685 11.38-2.104 14.986-.698.526-.978.479-1.83-.292-4.913-4.444-5.196-10.388-.822-15.609.756-.902 1.316-1.386 1.9-1.405m17.558.615c.904 1.458 2.044 2.959 2.174 4.73-.065 1.752-1.186 2.074-2.346 1.055-.147.92.35 2.711.35 2.711l-2.1-.237s.824-1.515.857-2.463c-1.458 1.07-2.572-.325-2.374-1.45.417-1.913 1.91-3.204 3.438-4.346zm-17.495 1.142c-.172.015-.35.139-.625.37-1.28 1.08-2.285 2.425-2.806 3.82-1.102 2.947-.383 6.267 2.1 8.844 1.261 1.31 1.705 1.22 3.639-1.487a8.2 8.2 0 0 0 .959-7.738c-.487-1.24-1.37-2.45-2.427-3.328-.406-.338-.618-.5-.839-.481zm40.406.544 1.63.843c2.079 14.441 8.818 23.252 16.37 29.327l-.013 1.338-2.027-1.653-2.427 2.674-1.967-1.698.738-.754 1.12.75 1.434-1.69-2.82-2.648-2.459 2.245-2.048-2.22.622-.547 1.415 1.302 1.584-1.48-2.74-3.236-2.451 1.957-1.711-2.39.744-.465.896 1.294 1.89-1.239-1.999-3.236-2.849 1.538-1.457-2.767.83-.418.944 1.554 1.774-.899-1.785-3.816-2.912 1.013-1.071-3.003.833-.322.734 1.775 1.97-.665-1.338-4.11-3.01.895-.744-3.022.93-.21.488 1.63 2.07-.436-.76-3.913-3.08.41c-.102-.665-.557-2.455-.548-3.133l.948-.081.298 1.724 2.072-.074zm-40.297.314c1.13.163 2.508 2.453 2.82 3.285.595 1.645.645 3.55.102 5.026-.444 1.209-1.772 3.35-2.616 3.955-.681.388-1.251.1-2.223-1.292-1.921-2.75-2.293-6.056-.777-8.322 1.158-1.73 2.017-2.653 2.694-2.652m42.481.714.819.407c1.004 8.368 5.714 19.852 14.983 26.722v1.051c-7.209-5.448-13.827-14.845-15.802-28.18m-42.625.57c-3.228 2.562-2.711 6.573-.266 9.275 2.634-1.836 3.566-6.794.266-9.275m-49.26.17c1.821-.045 2.976.624 3.53 1.952.862 2.065.98 2.457 1.156 3.54.1.62.257 1.554.344 2.076.945 5.61.25 7.724-2.985 8.599-.966.261-2.312.346-3.253.107-.246-.062-1.15-.068-1.861-.092-1.411-.048-1.843-.205-2.55-.81-.256-.218-.501-.393-.808-.444-1.615-.269-2.096-1.826-.872-2.977.698-.656.767-.743.703-.855-.036-.063-.334-.116-.664-.118-1.627-.011-1.61-1.773.028-3.033.778-.599 1.13-1.163.614-1.025-1.484.37-2.007-1.915-.456-2.623.825-.486 1.419-.893.622-.938-.669.06-1.213-.459-1.009-1.072.248-.743 1.606-1.419 2.389-1.166.612.197 1.209.378 1.591.088.928-.702 1.344-1.019 2.143-1.132a10 10 0 0 1 1.338-.077m54.114.428 7.482.152-.221 7.726-7.046-.14s1.544-3.452-.215-7.738m-16.764.178 7.165.092c-1.18 2.912-.74 5.904-.306 7.59l-7.014-.115zm11.966.011c1.926 1.182 2.456 5.483-.22 7.694-2.545-2.754-2.035-6.107.22-7.694m-17.677 3.359 1.921.188-.684 2.896s.309-.343.41-.377c2.469-1.22 2.645 1.545.134 4.043-.555.55-1.447 1.305-1.447 1.305s-.7-1.113-1.254-2.12c-.631-1.012-1.06-2.094-.952-2.67.157-.835 1.11-1.387 1.717-.877.3.251.646.632.646.632zm34.302 2.123s.805.87 1.296 1.435c1.696 1.954 1.987 3.783 1.127 4.338-.738.356-1.197.112-1.79-.396.123 1.212 1.036 3 1.015 3.004l-2.533.429s.625-2.427.572-3.344c0 0-.52.42-.752.525-1.653.635-2.472-1.342-1.113-3.314 1.14-1.654 2.178-2.678 2.178-2.678zm34.592 3.661c1.7 0 3.077 1.45 3.077 3.24s-1.377 3.24-3.077 3.24-3.077-1.45-3.077-3.24c0-1.789 1.377-3.24 3.077-3.24m1.517 1.484c-.132.031-.24.352-.256 1.06-.153 1.454-1.301 2.04-2.556 1.366-.508-.272-.94-.676-.942-.366 0 .166.407 1.032.696 1.328 1.064 1.008 3.655.769 3.596-1.58-.027-1.104-.316-1.86-.537-1.808zm-55.863 1.216c.334-.024.758.122 1.029.418.842.605 1 1.378 1.054 4.294.047 2.573 0 2.636.4 2.948.987.764 1.582-.4 1.3-3.007-.271-2.51.587-4.333 2.027-4.324.709.008.84.443.302 1.002-.568.59-.705 1.312-.527 2.763.456 3.72.062 5.545-1.422 6.3-1.548.786-3.539-.117-3.888-2.176-.224-1.372-.222-3-.066-4.534.027-1.613-.008-1.797-.541-2.722-.377-.621-.096-.931.333-.962zm-38.93 1.206c.855 0 1.744.52 2.276 1.675 1.281 2.788-1.496 5.08-4.043 5.26-4.422.069-9.678-.603-14.116-1.225l.07-2.633c4.074.248 8.666.597 13.614.84-.563-2.449.772-3.914 2.199-3.917m23.258.54 2.462.574-1.566 2.696c.465-.212.786-.36 1.25-.182 1.003.382 1.017 1.72.281 2.97-.582.909-2.217 1.993-3.333 2.66-.627-1.418-2.012-3.9-1.461-5.257.292-.72 1.102-1.07 1.858-.677.25.158.727.414.727.414zm5.82.074 7.502.092c-1.09 7.988-3.225 18.654-7.428 27.349l-1.767.48c3.707-8.638 6.174-16.74 7.327-25.797H72.15c-2.158 9.72-5.35 18.73-10.26 26.556l-2.18-.747c5.245-8.757 9.401-18.53 10.557-27.932zm17.112.14h8.363c1.538 16.265 6.757 27.365 14.523 38.345 0 0-.49.116-.78-.015-.804-1.058-1.542-1.705-2.75-2.03-6.527-9.897-10.906-23.733-11.962-34.316h-4.973c.567 13.293 4.064 24.193 8.718 34.748l-2.525.488c-3.738-9.447-7.835-17.668-8.612-37.22zm13.012 2.009c.689.56 1.432 1.111 2.132 1.646 1.883 1.391 1.858 4.021.028 4.01-.194 0-.646-.03-.646-.03s.748 1.724 1.219 2.597c-.763.214-2.357.529-2.357.529s.229-1.694.183-3.096c0 0-.306.36-.559.484-1.214.534-2.24-.582-2.089-1.901.204-1.781 2.09-4.239 2.09-4.239m-55.87.318 4.117 2.153c-2.806 6.724-6.018 13.02-10.664 17.805l.12-15.538c2.536-.077 5.137-.102 6.427-4.42m28.148.245H75.2c-1.124 12.405-8.907 29.186-10.368 31.21l-.481.38c.029-.016-.997-3.804-2.164-5.167 4.391-6.237 8.992-18.222 10.48-26.423zm17.807 0H94.3c1.192 9.884 4.093 20.562 11.447 33.532 0 0-.737.078-1.307-.282-1.253-.817-2.123.266-2.872.223-1.17-.066-1.364-.14-2.571.162-6.068-13.478-7.79-24.086-8.521-33.635zm-41.315 2.22 1.366.676c-2.937 7.156-5.57 12.841-12.528 19.821l-.025-2.079c4.89-4.986 8.184-11.558 11.187-18.419m1.988.998c.647.256 1.38.677 1.992 1.024.204.086.15.279.15.481-.258.68-1.398.978-1.829 1.11-.521.156-1.035.266-1.127.288-.596.147-.408-.481.238-1.857.29-.62.405-1.033.576-1.046m2.729 1.516c.409-.026 2.06.934 2.413 1.28.125.407-.23 1.05-.752 2.238-.801 1.826-.961 1.866-1.201.365-.042-.258-.28-1.112-.425-1.679-.335-1.315-.367-2.071-.035-2.204m2.988 1.475s.96.492 1.272.707c-4.286 13.516-15.698 24.687-15.637 24.43l-1.78-1.102c7.594-7.226 13.16-15.76 16.145-24.035m-4.53.193c.414.009.053.545-.506 1.845-.53 1.273-.705 1.725-1.201 1.927-.712.271-1.734.28-2.642.447-.388.07-.225-.241.373-1.52.7-1.5.74-1.812 1.84-2.123.636-.104 1.491-.583 2.136-.577zm1.503 2.685c.442 1.674.433 2.004.137 2.585a66 66 0 0 1-1.478 2.708c-.5.862-.642.683-.938-1.413-.184-1.3-.345-1.883-.209-2.449.249-.64.993-2.149 1.412-3.032.602-1.884.924 1.435 1.076 1.602zm7.889-1.461 2.248.777-1.763 2.241s.739-.14.825-.104c1.77.124 1.475 1.976.105 3.096-.567.547-3.364 1.886-3.364 1.886-.3-1.657-.917-2.715-.77-4.416.104-.916.181-1.742 1.247-1.768.56-.031.787.573 1.152 1.058zm40.75 2.008s1.354.736 2.61 1.753c1.638 1.328 1.917 2.887.28 3.488-.188.07-.726.04-.726.04.451.827 1.521 2.057 1.521 2.057-.536.395-1.293.705-2.132.98 0 0-.208-2.057-.407-2.851 0 0-.217.45-.485.625-1.576 1.033-2.814-.914-1.967-3.377.515-1.496 1.307-2.715 1.307-2.715zm-17.333.345c3.936-.101 1.63 6.688-.338 6.25-.033-.061 1.625-4.016-.608-4.646-1.024-.289-.141-1.618.946-1.605zm-6.456.48c1.223-.007 2.114.901.945 1.472-1.839.9-.744 3.055-.702 4.276.025.747-1.638-.651-1.992-2.167-.457-1.961-.245-3.413 1.75-3.581zm-29.12.715c.271 0 .476.021.544.077.116.32-.434 1.322-1.236 2.604-.427.683-.61.874-.871 1.035-.62.368-1.491.272-2.217.325-1.082.015-.892-.008.306-1.97.535-.878.873-1.596 1.19-1.825.064-.043 1.47-.245 2.283-.247zm1.419 1.416c0 2.456.792 3.26.21 4.035-.71 1.207-1.619 2.527-1.949 2.944-.555.704-.494.57-.64-1.269-.105-1.333-.22-2.225-.055-2.64.476-1.204 1.041-1.78 1.63-3.06.46-1.03.804-.858.804-.01m31.077 1.232c1.143.016 1.85 1.296 1.798 2.471l-.049 1.124c1.477-.596 3.312-.017 3.393 1.51.138 2.587-1.672 2.287-3.203 2.179.155.06.38 2.338-.53 3.21-1.43 1.685-4.095-.037-3.425-2.508.14-.513.168-.836.168-.836s-.956.363-1.292.347c-2.899-.13-2.677-4.447.235-3.939.595.104.998.256.998.256l-.162-.659c-.423-1.662.467-3.178 2.07-3.155zm57.991.77 1.564.946v1.835l-2.223-1.731zm-93.69 1.228c.616-.008 1.1.044 1.004.2 0 .327-1.349 2.3-2.146 3.203-.68.768-.776.66-2.437.573-.652-.034-1.078-.04-1.06-.222.765-1.057 1.82-2.418 2.55-3.555.286-.092 1.298-.191 2.089-.2m1.52.861c.116 0 .151.26.148.832 0 .432.056 1.767.116 2.345.108 1.053.109 1.052-.32 1.68-.521.59-1.054 1.46-1.728 2.138-1.011 1.18-.907 1.247-.892-1.276.012-1.971-.129-1.97.25-2.434.208-.254.85-1.083 1.275-1.73.644-.985.984-1.552 1.152-1.554zm9.639.347 2.08 1.17-2.084 2.222s.521 0 .696.033c1.337.274 1.237 1.767-.11 2.881-.826.55-3.666 1.64-3.666 1.64-.098-1.257-.35-2.412-.302-3.758.02-.622.075-1.298.527-1.835.313-.364.836-.577 1.57-.078.385.362.587.77.587.77zm24.537.76c-.815 0-1.475.695-1.475 1.552s.66 1.554 1.475 1.554c.814 0 1.475-.696 1.475-1.554 0-.857-.66-1.553-1.475-1.553m23.244.365s2.722 1.077 3.948 2.26c1.145 1.005.606 2.662-.53 2.696-.083 0-.566-.074-.566-.074.385.616 1.675 2.13 1.675 2.13l-2.104.899s-.336-1.706-.597-2.663c-.733 1.783-2.543.623-2.662-.488-.292-1.629.365-3.22.835-4.76zm-23.244.137c.566 0 1.025.483 1.025 1.08 0 .596-.459 1.08-1.025 1.08-.567 0-1.026-.484-1.026-1.08s.46-1.08 1.026-1.08m-40.167 2.208c.733-.008 1.648.028 2.058.055.312.252-.341 1.036-1.602 2.43-1.01 1.119-1.16.963-2.385.973-2.055.017-2.107.032-1.163-1.098 1.034-1.238 1.636-2.035 2.114-2.293.161-.044.537-.063.977-.067zm2.504 1.087c.217-.045.158.539.122 1.86l-.06 2.242-1.598 1.62c-1.85 1.743-1.629 1.852-1.616.222.01-1.296 0-2.206.264-2.781.808-1.025 1.649-1.932 2.567-2.91.145-.151.248-.237.32-.252zm40.627.559c.445-.04 1.58 2.007 1.864 3.72.65 3.915 2.877 5.77 4.444 4.198.637-.923.708.085.678.566-.33 4.96-5.666 2.895-6.273-2.03-1.873 1.28-3.621-1.306-2.504-1.265 2.64-.884 1.918-3.437 1.79-5.19zm-6.182.037c.261 1.715-2.676 4.654-4.327 2.593-.841-1.048-.075-3.21.994-1.88 1.18.922 2.326-.147 3.333-.713m-40.35 2.352c.604-.013 1.478.107 1.859.052.538.058.154.33-1.012 1.45-1.003.964-1.29 1.393-1.405.973-.056-.652-.031-1.426-.028-2.345.093-.09.313-.123.587-.129zm13.691 1.14 1.791 1.375-1.777 1.724c1.594-.083 1.736 1.49 1.131 2.367-.391.615-1.902 1.262-3.414 1.52-.91.156-1.65.27-1.65.27s-.035-.738-.06-1.963c-.052-2.508.11-3.495 1.025-3.984.655-.35 1.765.2 2.037.84.09.21.327.58.327.58zm-11.527.136.014.008c.101.144-.264 4.224-.264 4.224l-2.595-1.539s2.626-2.64 2.845-2.689zm68.694.481c1.848.917 3.234.739 4.478 1.876 1.083.597.762 2.24-.028 2.607-.357.115-.948.052-.948.052.654.85 2.087 1.923 2.087 1.923l-2.277 1.002s-.31-1.616-.6-2.496c-.414 1.31-1.818 1.278-2.617.661-.566-.456-.8-1.987-.53-3.314.071-.35.435-2.311.435-2.311M97.195 198.67c-22.444 5.601-40.673 2.138-42.482 1.476l-1.43 2.245c-.174.382-.28 1.522-1.25 1.83l-1.454 2.286.285.319-1.289 1.183.313.396-.938 1.435-.369-.04-2.17 3.472.33.388-4.984 8.216 67.426.022c-3.92-7.785-8.112-15.419-11.988-23.228m-.408 1.01.401 1.173c-1.115-.144-2.417-.215-3.74-.277a34 34 0 0 0 3.34-.896zm-3.916 1.021c-2.145 1.036-3.43 2.282-4.415 3.595-1.227-1.003-2.788-1.714-4.65-2.16zm-37.89.57.955.114s-.32.261-.548.208c-.175-.042-.408-.322-.408-.322m42.951.584.608 1.265c-1.46-.816-7.707-2.682-9.48 3.857-1.864-2.655-9.555-6.504-13.455 1.68-1.11-2.218-7.567-8.596-13.456-.466-2.321-5.053-4.26-5.476-8.521-4.786 3.028-3.064 7.288.125 9.094 2.733 5.08-4.438 9.33-3.104 13.041.506 4.79-5.491 9.566-4.168 12.925-1.412 2.36-3.657 4.666-4.76 9.244-3.377m-39.229.033c3.02.429 6.039.624 9.058.78-1.747.675-3.54 1.256-4.963 2.614-1.078-1.585-2.576-2.506-4.095-3.395zm21.784.506c-1.648.817-3.424 2.046-4.847 3.336-1.537-1.317-3.117-2.456-4.84-3.028 3.16.163 6.66.016 9.687-.307zm19.331 2.596s-.608.109-.804.163c-2.666.747-2.086 4.702.657 4.702.26 0 .91-.108.91-.108-.053 2.678.72 3.332 3.319 3.181l4.404 8.293-65.154-.296 4.138-6.969c2.08.257 3.39-.962 2.926-2.822 0 0 1.281.412 1.64.414 2.355.016 2.964-3.79.705-4.449-.25-.073-.881-.147-.959-.17 1.033-2.716 3.87-1.112 4.682.015 1.83-1.583 3.851-.875 4.717 1.176 0 0-.34-.2-.446-.281-2.142-1.65-4.134 1.767-2.037 3.344.207.155.643.288.643.288s-.254.219-.488.632c-1.089 1.929.664 4.277 2.782 3.673 1.626-.67 1.649-1.956 1.647-3.373 0 0 .562.045 1.065.052 1.95.024 2.509-2.607 1.315-3.83-.645-.66-1.488-.609-1.905-.693 2.248-2.325 3.773-.72 5.36.35.24-.007 2.753-3.184 5.742-.062-1.45-.4-2.936.59-2.956 2.18.029 1.023.723 1.928 2.226 2-.162.513-.27.898-.278 1.397-.029 1.67 1.203 2.709 2.768 2.453 1.308-.176 2.274-1.75 1.808-3.06-.21-.59-.498-.805-.498-.805 3.521.464 3.46-4.234.722-4.519-.65-.067-1.15.23-1.804.86 1.61-3.467 4.556-2.772 5.658-1.353 1.513-1.158 3.6-2.738 6.095.077a3.3 3.3 0 0 0-1.494.028c-1.975.552-1.983 3.197-.418 4.002.441.227.981.358 1.563.335-.52 2.223 1.823 3.81 3.482 2.746 1.188-.762 1.5-2.564.214-4.207 2.164-.102 2.377-2.943 1.127-3.939-.98-.78-2.135-.41-2.97.621-.27-.815 1.87-3.651 4.892-1.608 1.6-1.414 3.188-1.848 5.005-.437zm.945 2.22.847 1.62c-.564.06-1.37-.576-.847-1.62m-10.923 1.646c.53 0 .959.452.959 1.01s-.43 1.01-.959 1.01c-.53 0-.959-.452-.959-1.01s.43-1.01.959-1.01m-39.545.06c.128.541.184 1.082-.752 1.187zm11.014.975c.485 0 .878.415.878.925s-.393.925-.878.925c-.484 0-.878-.415-.878-.925s.394-.925.878-.925m14.615.289c.514 0 .93.438.93.98 0 .54-.416.98-.93.98-.513 0-.93-.44-.93-.98 0-.542.417-.98.93-.98"/><path d="M91.717 10.734c-.242-4.057-7.747-11.693-7.99-13.603-.241 1.91-7.746 9.545-7.988 13.603-.17 2.868 1.695 4.057 3.39 4.057 1.835-.021 3.35-2.8 3.873-3.34.242.715-1.603 6.681-2.18 6.681h5.812c-.576 0-2.421-5.966-2.18-6.682.458.497 1.798 3.258 3.875 3.341 1.694 0 3.557-1.189 3.388-4.057" style="fill:#000" transform="matrix(2.26533 0 0 2.07121 -144.589 31.378)"/><path d="M-73.481-5.875c-.242-4.057-7.747-11.693-7.99-13.603-.241 1.91-7.746 9.545-7.988 13.603-.17 2.868 1.695 4.057 3.39 4.057 1.835-.021 3.35-2.8 3.873-3.34.242.715-1.603 6.681-2.18 6.681h5.812c-.576 0-2.421-5.966-2.18-6.682.458.496 1.798 3.258 3.875 3.341 1.694 0 3.557-1.189 3.388-4.057" style="fill:#000" transform="matrix(-2.26533 0 0 -2.07121 -64.354 177.748)"/></svg>