<svg xmlns="http://www.w3.org/2000/svg" xml:space="preserve" width="222.783" height="323.556" viewBox="0 0 167.087 242.667"><path d="M166.837 235.548c0 3.777-3.087 6.869-6.871 6.869H7.11c-3.775 0-6.861-3.092-6.861-6.87V7.12C.25 3.343 3.336.25 7.11.25h152.856c3.784 0 6.87 3.093 6.87 6.87z" style="fill:#fff"/><text xml:space="preserve" x=".919" y="25.969" style="font-size:29.22270203px;font-style:normal;font-weight:400;line-height:125%;letter-spacing:0;word-spacing:0;fill:#df0000;fill-opacity:1;stroke:none;font-family:Bitstream Vera Sans"><tspan x=".919" y="25.969" style="font-style:normal;font-variant:normal;font-weight:400;font-stretch:normal;fill:#df0000;fill-opacity:1;font-family:Arial;-inkscape-font-specification:Arial">K</tspan></text><path d="M3.676-9C.433-9 0-5.523 0-5.523S-.433-9-3.676-9C-5.946-9-8-7.441-8-4.5-8-.614-1.42 3.294 0 9 1.352 3.299 8-.614 8-4.5 8-7.441 5.946-9 3.676-9" style="fill:#df0000;fill-opacity:1" transform="matrix(1.11218 0 0 1.0409 11.309 38.466)"/><text xml:space="preserve" x="-166.471" y="-216.421" style="font-size:29.22270203px;font-style:normal;font-weight:400;line-height:125%;letter-spacing:0;word-spacing:0;fill:#df0000;fill-opacity:1;stroke:none;font-family:Bitstream Vera Sans" transform="scale(-1)"><tspan x="-166.471" y="-216.421" style="font-style:normal;font-variant:normal;font-weight:400;font-stretch:normal;fill:#df0000;fill-opacity:1;font-family:Arial;-inkscape-font-specification:Arial">K</tspan></text><path d="M3.676-9C.433-9 0-5.523 0-5.523S-.433-9-3.676-9C-5.946-9-8-7.441-8-4.5-8-.614-1.42 3.294 0 9 1.352 3.299 8-.614 8-4.5 8-7.441 5.946-9 3.676-9" style="fill:#df0000;fill-opacity:1" transform="matrix(-1.11218 0 0 -1.0409 156.082 203.924)"/><path d="m81.959 261.975 53.472 1.141c4.736 6.502 14.246 19.759 14.246 19.759l-86.392 1.136zm-22.377 4.526c2.31-4.632 2.757-9.096 2.318-15.53-.347-4.937 2.761-8.782 5.967-7.309 2.48 1.14 1.335 5.81-1.229 4.822-.981-.378-1.841-.035-1.711 2.184.229 5.468 1.694 11.626.434 16.868-.878 5.093-7.924 2.747-5.779-1.036zm-21.649-7.142c-2.722-4.059 2.156-7.862 5.21-5.989 1.448.673 1.243 2.139-.582 1.358-2.547-1.09-5.29 2.767-3.073 4.316 1.021.714 1.41.618.633-.275-2.066-2.388 3.219-3.444 3.066-1.871-.361 1.916-.406 2.722-.582 3.099-1.076 1.672-3.145.819-4.672-.639zm7.592-17.068c-2.94-3.648.431-6.517.387-6.412.872-.939-7.006-15.536-6.01-15.631 9.95-1.053 20.006-.258 29.976.051.003.001-5.316 9.503-7.436 14.206-.854 1.895 1.142 4.125.316 5.532-2.567 2.788-.971 5.877-2.571 6.016-4.489-.573-8.926-1.314-13.904-.323-.367 0-.406-2.083-.758-3.439m43.07-101.418c5.031 25.454-2.386 52.437-19.391 70.238-2.4-2.292-4.241-6.643-6.634-9.481-6.646-1.984-11.427.351-16.087 2.637-4.14-2.372-8.804-3.767-13.349-3.707l-.147-3.937c4.599-.099 9.457.324 13.553 2.843l6.408-2.585-19.982-20.606.271-3.521 24.247 24.319 3.122.111c-6.862-18.133-.859-46.935 27.989-56.31zm33.809 31.928 3.505 16.622s-18.533 19.844-29.991 29.265l-8.634-.781s11.794-20.853 9.631-19.259zm69.67 22.798c-8.23 9.161-18.064 14.986-28.986 21.405-4.366-4.849-9.665-10.182-12.726-14.963 9.527-5.061 18.61-8.982 27.94-17.841-.511.572-11.901 4.415-11.864 3.972-.411 1.891-.164 3.057-2.017 3.555-2.194-3.047-4.316-5.519-7.775-6.881-1.451.13-3.378-.823-3.378-.823.969-.198.542-11.888.003-12.022 0 0 .284-.347 2.818-.296 4.526-.309 7.45-5.752 10.259-7.616 8.775-.718 16.548.142 25.193-.09-.066 10.405.537 21.194.534 31.6zm-55.722-26.354c-.221-.441-2.435-17.683-.331-28.495.387-2.536 4.407-3.396 5.177-5.285 1.278-4.106-.642-9.178.371-13.78 1.031-4.685 3.257-7.32 5.205-10.803 2.11-3.772 5.131-8.479 8.48-11.292.983-.956 4.416 2.125 6.981 7.451 7.452 4.668 17.006-1.356 17.006-1.356s3.708 3.01 12.094 4.655l-.144 3.239c-.042.942-9.432-1.003-11.453-2.883 0 0-7.005 2.332-7.005 2.757.002 1.815 18.494 18.861 18.494 18.861l.104 4.203c-2.772-3.84-24.462-22.295-24.462-22.295 4.809 28.079-6.677 45.565-30.517 55.022zm-31.029-5.495-.416-16.536 15.804.187.65 16.708zm-72.315-17.874c.422-.587-.615-30.82-.549-30.82 10.058-9.956 19.895-15.52 29.758-21.573 4.46 4.395 8.25 8.103 11.536 13.428l-13.607 8.339c.517 2.032-.825 2.765 7.947 10.677.148-.542 3.038-2.152 3.542.257-1.188 5.086.527 9.41.753 12.144-1.198 1.602-3.876-.118-3.876-.118-1.733-1.797-8.523 7.076-10.461 8.068-8.458-.314-25.517.257-25.042-.403zm95.204-53.91c.111-.108 8.602.065 8.488.368-1.547 4.127-5.387 11.454-8.901 19.907-4.049 7.205-9.667 11.449-14.463 16.171-3.834 3.775-7.252 9.723-9.871 8.179-1.599-5.114-1.968-9.649-3.731-15.314-.808-3.357 4.095-5.544 28.479-29.311zm37.158-28.347c3.11 1.321 11.849.629 13.236.035 1.777 1.2.668 2.801.443 3.689 1.825 2.299 2.824 3.114.752 6.82-.473 0 6.369 15.335 6.553 15.346 0 0-7.231-3.416-9.781-5.723l-4.988 6.602-5.795-7.455c-.021.673-11.165 8.033-11.3 7.678-.35-.35 10.177-11.632 8.089-18.255-.503-1.596.649-3.218 1.436-4.625.54-.965-.186-2.831 1.356-4.114zm-5.785-1.374c.472-.539-2.703-14.406.739-20.003 1.458-2.035 4.094-2.139 5.195-.473.843 2.317-1.666 5.543-2.17 7.118-1.632 4.389.791 10.179-.392 14.327-3.542 9.061-9.815-.891-3.373-.969zm23.578-6.158c-1.867.081-.564-5.473-.256-7.064-.008-.315 3.417-1.111 4.651 1.073 1.993 3.265-.403 7.383-4.396 5.991zm-22.264-28.002-17.586 21.294c-17.782-2.038-35.627-3.332-53.81-.562l-14.624-20.31Z" style="fill:#e2cf00" transform="matrix(.7339 0 0 .77968 1.203 .058)"/><path d="m192.813 26.523-162.707.503 1.786 258.286 162.336-.96zm-37.435 1.582q2.676.001 5.353.009l-19.48 23.859-.479.16c1.298 3.786 3.151 8.506 4.92 12.09 2.818 5.793 9.9 16.44 5.481 24.956-.433.73-.836 1.086-1.377 1.083-.751-.004-.737-.442-.29-1.297.984-1.882 1.652-6.342 1.259-8.702-.251-1.507-1.091-3.829-2.688-7.339-7.403-13.611-9.716-20.867-9.296-20.867a1.7 1.7 0 0 0-.532-.209l-.727-.241c2.565 8.604 6.734 15.839 10.032 22.537 2.706 6.225 2.996 8.64 1.582 13.172-.548 1.755-1.539 2.878-2.513 2.874-.73-.003-.688-.15-.19-1.04 2.593-4.635 1.993-9.695-1.23-15.58-4.681-9.721-7.49-15.87-9.158-22.107-.042-.002-.854-.274-1.147-.344 1.389 6.491 5.268 13.977 8.88 21.638 2.986 5.899 3.846 10.199 2.769 13.595-.353 1.472-1.479 3.664-2.902 3.729-.557-.003-.644-.292-.119-1.05 2.213-3.778 2.605-7.263-1.354-15.195-3.64-7.293-7.293-15.455-8.541-22.586-.079-.585-1.662-1.278-1.32-.309 1.954 8.422 5.846 17.047 9.98 25.455 2.327 5.22 2.568 8.56.822 11.481-.976 1.633-1.225 2.004-1.957 2.02-.865.019-.85.051-.372-.942 2.111-4.39 1.765-8.257-1.058-14.601-3.87-8.7-7.13-15.899-8.521-23.555-.25-.071-1.56-.578-1.373-.195 1.935 7.294 4.413 14.063 7.605 20.909 1.112 2.375 2.914 6.995 3.496 9.31 1.103 4.407-1.385 10.458-4.641 10.764-1.214.114-1.063-.489.29-1.743 2.329-2.16 2.781-5.604 1.99-9.6-.594-3.077-1.616-6.378-3.021-9.733-2.841-6.784-5.933-13.883-6.911-20.145.032-.561-1.27-.563-.902.024.702 4.403 2.381 9.417 4.218 14.074 2.01 5.095 5.002 10.804 5.982 17.058.802 5.116-2.401 9.946-6.288 10.235-4.681.348-5.603-4.271-4.477-6.436 1.837-3.232 7.172-1.386 5.586 1.919-.913 1.902-3.7 1.403-3.581-.684-.032-.19.267-.762.214-.793-.097-.056-.506.318-.636.551-.947 1.689 1.898 3.956 3.876 2.598 6.628-3.579 2.152-14.494-.736-21.161-2.797-6.212-4.848-11.826-5.738-17.575-.242-.168-1.336-.444-1.183-.247.802 3.069 1.173 5.658 1.971 8.236 1.252 4.044 3.498 8.571 5.33 13.105 1.664 4.462 3.336 8.253 2.574 12.906-.071.43-.247.945-.541 1.259-.298.311-.544.263-.632-.921-.03-.161-.239-.374-.271-.58.163-1.748.044-3.481-.408-5.125-.387-1.377-1.126-2.783-2.684-5.458-.614-.996-2.222-4.042-1.658-1.937.324 1.19 1.427 3.836 2.575 5.751.712 1.189 1.462 4.436 1.24 5.063-.234.613-.777.648-1.031.437-.228-.19-.226-1.059-.285-1.596-.241-2.206-2.505-6.056-4.076-7.567-1.128-1.256 2.658 5.339 2.936 7.096.118.744.35 1.35.095 1.715-.168.24-.508.242-.841.157-.32-.082-.307-.302-.646-1.434-.581-1.937-1.299-2.913-2.788-4.66-.51-.598-.851.15-.038 1.121 1.125 1.771 1.97 2.903 2.256 5.182-.729 1.032-1.088.832-2.612-1.781-1.007-1.726-1.612-2.169-1.876-2.156-.668.032-.037.857 1.838 3.805.972 1.573.995 2.551-.109 2.546-.374-.002-2.472-2.303-2.997-3.301-.436-.828-.977-1.463-.978-.451 0 .402 1.299 2.52 2.19 3.548 1.404 1.621 1.807 1.947 1.986 2.665.085.342.255.941.375 1.33.36 1.167.177 1.5-.551.883-.329-.864-.597-.954-1.501-1.62-.762-.561-1.82-2.015-2.513-3.04l-.754-1.273c-.681-1.268-1.584-1.378-.93-.099.31.593.811 1.567 1.338 2.288.882 1.252.7 1.905-.347 1.9-.448-.002-1.701-1.64-2.484-2.921-.511-.835-1.309-1.426-1.211-.599.024.206.641 1.674 1.568 2.821 1.006 1.247 1.138 1.909.161 1.905-.666-.003-1.24-.637-2.09-1.928-.807-1.227-1.311-1.659-1.539-1.52-.289.177 1.158 2.61 2.347 3.938 1.124 1.256.3 1.972-.993.855-.701-.606-2.105-2.414-2.498-3.273-.704-1.536-1.157-1.117-.703.1.501 1.342 1.283 2.809 2.228 3.762.495.499 1.516.891 2.014 1.321 1.411 1.217 2.305 2.34 2.19 2.541-4.024.226-7.328-4.054-8.232-6.645-.642-1.704-1.375-1.955-.679.451 1.962 5.977 8.078 9.082 12.307 6.403 2.552-1.617.298-5.827-1.791-4.47-.567.369-.593 1.414.128.855 1.356-1.051 2.72 1.541 1.24 2.308-2.081 1.078-4.389-1.032-2.974-3.591 1.399-2.627 7.006-1.123 5.909 3.121-.665 1.905-3.576 4.285-6.071 4.332-4.637.087-7.838-3.456-9.623-6.954-.229-.45-.639-1.335-.978-2.057-.293-.624-.525-1.087-.549-1.082.516 4.248 4.587 9.5 8.233 10.368 6.059 1.419 7.716-2.18 11.68-5.899 0 0 2.896.375 2.997.314.267-.163 5.635-.402 5.795-.252-21.688 39.191-20.038 85.719-1.387 121.035 1.233 2.584 1.449 2.094-.594 1.567-2.11-.548-4.024.295-5.738-.1-3.545-.722-4.301 1.69-7.025 2.978-3.398 1.279-2.629 3.634-3.439 5.909-.255.352-.44.641-.301.594.225-.075.949-.743 1.004-1.331.139-1.506.678-2.697 1.292-3.296.585-.571.994-.86 1.135-.613.11.193.028.867-.261 1.411-.824 1.552.269 6.743.337 3.048.054-2.932 1.838-6.202 4.332-7.54 1.997-.974 2.616-.875.991.625-1.848 1.962-3.103 4.249-3.177 7.095-.031 1.18.44 2.165.608 1.107-.071-5.419 5.362-11.455 11.188-8.455.29.209.536.602.45.823-5.642-.943-10.551 2.129-9.828 9.403 0 0 .506-1.425.79-2.848.889-4.454 5.945-6.403 9.49-5.182.667.28 1.191 1.218 1.097 1.344-4.336-1.356-9.096 2.728-9.372 7.154-.09 1.439-.056 2.673.684.076 2.8-9.832 11.439-5.376 10.377-4.57-6.686-.795-9.106 3.689-8.952 8.873.096.474.34.632.541 1.073.891 1.953 1.296 3.628 1.368 7.172-.068.913.689 6.726-.074 6.481-2.429-.895-4.274-1.952-8.482-.066-.379.02-.503-.188-.373-.515.175-.44.833-1.31 1.98-2.595 2.585-2.746 1.1-2.01-1.025-.105-1.372 1.23-1.074.389.218-3.811.524-1.703.198-1.909-2.057-3.051-2.321-1.175-3.927-1.354-1.957-.123.773.471 1.597.965 2.473 1.313 1.028.56.91.794.152 3.249-1.473 4.768-1.985 6.51-1.908 9.716.188 7.8 7.646 7.026 11.891 5.272l.177 5.135 15.99 22.444s-55.895-.058-85.799.432c1.708-4.087 19.786-21.395 20.862-24.491.103.015-2.004-6.328-3.111-9.087-5.228-13.029-12.101-18.506-8.121-27.066.856-1.697 1.005-2.269 1.656-2.265.883.004 1.166.589.172 2.249-4.273 7.141 4.844 19.463 7.924 27.321.494 1.259 2.557 7.156 2.92 9.142.035.607 1.482.814 1.077.105-1.135-4.016-2.561-8.401-3.224-9.98-2.434-5.802-4.996-9.762-7.369-15.433-1.326-3.584-2.032-7.723.025-11.438.749-1.353.963-2.105 1.457-2.175.426.002.676.146.703.494.03.38-.205 1.003-.765 1.952-3.592 6.094 2.793 15.941 5.957 22.961 2.063 4.577 3.897 9.391 4.546 13.732.009.3.407 1.095 1.198.552-1.369-8.11-5.391-15.973-8.914-23.55-3.01-5.919-4.139-11.079-.117-15.952.35-.336 1.101-.281 1.154.218.028.339-.231.981-.86 2.28-3.544 7.385 1.943 13.383 4.517 20.425 2.511 5.887 4.847 10.832 5.785 17.105.71.269 1.062.605 1.138-.283-1.837-8.864-5.797-16.831-9.232-24.507-1.587-3.335-2.149-4.934-2.256-7.168-.148-3.072 1.403-6.958 2.794-7.983.361-.266.586-.313.915-.135.451.244.361.407-.532 2.09-1.705 3.214-1.852 6.826-.271 10.645 2.731 5.865 5.031 10.679 6.662 14.991 1.783 4.717 2.786 8.813 3.191 12.509 0 0 1.215.538 1.034-.266-.758-5.172-2.472-10.539-4.322-15.081-1.747-4.286-3.935-8.412-5.709-12.662-2.151-5.096-.37-10.668 4.042-13.451l2.03.044c-.118-.053-4.629 1.732-4.865 8.157-.225 6.123 2.684 9.886 4.788 15.072 2.565 6.255 4.86 11.741 5.405 18.425.201.233 1.312.282 1.293.184-.546-4.497-1.863-8.771-3.744-14.025-1.999-5.584-3.987-8.06-5.843-13.922-1.255-3.966-1.086-9.339 1.71-11.794 4.184-4.214 10.023-1.213 8.559 3.61-1.129 3.395-5.793 2.72-5.768-.461-.006-2.054 2.53-2.609 3.37-1.059.196.302.326 1.623.413 1.672s.35-1.039.351-1.283c.008-1.687-2.289-3.108-3.999-2.251-2.342 1.173-3.864 3.87-3.71 7.481.164 3.841.862 6.325 4.015 12.348 3.673 7.017 4.892 14.616 5.676 19.736.339-.142.746.04.878 0-.535-6.98-2.836-14.15-5.706-20.11-3.477-7.219-4.45-11.636-3.29-14.871.17-.476.332-.833.541-.864.389-.058.509.562.869 1.857.111.398-.029 1.023-.109 1.506-.303 2.961 1.779 9.119 3.714 11.856.567.78 1.291.754.665-.632-1.994-3.578-3.208-6.822-3.368-11.172-.047-1.279 1.447-.704 1.48-.063.108 2.078.316 4.525 1.313 6.267 2.022 3.447 3.147 3.597 1.078-.252-.459-.893-1.774-4.668-1.244-5.966.295-.264.654-.312.831-.048.585 2.134 1.395 4.247 2.826 5.89.751.856.874.469.48-.599-.659-1.236-2.721-5.367-1.772-6.298.306-.252.127-.115.96 1.24 1.16 1.887 1.792 2.626 2.356 3.178.75.734.932.24.157-1.05-1.548-2.576-2.428-4.716-1.884-5.255.537-.532.667-.286 1.889 1.788.544.923 1.331 2.282 1.601 2.603.267.319.512.402.518.138-.285-2.502-2.442-5.356-3.311-5.852-.125-.233-.081-2.209-.081-2.209 3.241 1.663 3.373 3.538 5.519 6.427.221.215.536-.048.442-.447-.075-.541-1.346-2.944-2.142-3.999-.627-.829-.655-1.305-.123-1.544.859-.386 2.057.884 3.334 3.154.593 1.053 1.384 1.664 1.387 1.111.002-.304-1.101-3.02-1.862-3.805-1.267-1.307-.641-2.221.827-1.012.666.549 1.568.961 2.498 2.959.543 1.167 1.009 1.316 1.012.385.003-1.046-1.763-3.601-2.95-4.308-.919-.548-1.441-1.159-1.183-1.567.805-1.179 4.065 1.829 5.177 4.627.328.826.904 1.247 1.045.883.25-.185-.41-2.201-1.088-3.135-1.119-2.134-3.763-4.196-5.329-3.947-.303.048-1.135-1.701-1.135-1.701 3.996-.643 7.878 4.122 8.569 5.904 1.311 3.383 1.977 2.986.831.019-2.239-5.798-9.197-9.047-13.058-6.242-2.199 1.598-.884 5.418 1.378 4.77.899-.335 1.77-1.248.189-.947-1.759.175-2.32-2.491-.526-3.025 2.885-.86 3.546 3.716 1.216 4.736-2.418 1.032-4.825-.507-4.598-3.149.428-4.995 6.592-6.439 12.678-2.399 1.711 1.136 3.817 4.841 4.541 7.187.239.776 1.045 1.047 1.144.949.231-.229-1.69-4.352-2.322-5.4-2.65-6.039-12.23-6.338-12.23-6.025 0 0-3.752 2.35-7.085 6.223l-8.563-.785c21.815-34.87 23.53-86.139 1.154-122.433.286.184 4.301 1.218 5.686.133 1.021-.487 1.314-.655 2.442-.252 1.27.454 2.607.052 3.99-1.206 1.042-.949 1.063-1.241 1.734-1.154 1.987.256 3.305-.901 3.714-3.752.161-1.12.271-2.284.109-2.114-.094.099-.324 1.068-.47 1.677-.402 1.676-.774 2.289-1.43 2.836-1.08.9-1.705.397-1.254-.969.427-.881.782-3.149.195-4.18-.103-.185-.127.517-.275 1.078-1.179 4.468-2.415 6.737-4.552 7.26-1.003.246-1.467.094-1.143-.482 3.771-3.999 3.519-8.431 3.235-8.052-.801 2.564-2.29 6.385-4.736 7.956-2.112 1.356-5.205 1.486-6.925.347-.977-.647.499-.838 2.711-.868 3.725-.05 7.206-5 6.628-9.174-.136-.771-.348.057-.651 1.325-1.374 4.519-3.731 7.692-9.115 6.745-.421-.074-.702-.35-.931-.508-.877-.605-.554-1.02 1.188-.793 3.895.506 7.284-3.128 7.263-7.519-.01-2.107-.314-2.082-.651-.513-.474 2.213-2.204 8.999-8.502 6.783-1.134-.612-1.753-1.395-1.349-1.51 3.674.737 7.04-.066 8.348-4.869.565-2.074.429-4.098-.145-5.795-.183-1.152-.572-2.031-.703-3.201-.351-3.136-.854-6.6-.703-10.032.301-.299.354-.233 1.411.465 2.076 1.372 3.646 1.056 5.757.242 2.716-.976 2.469-.8-.37 2.394-.592.666-1.191 1.479-1.259 1.605-.723 1.348.633.358 1.648-.912 1.411-1.765 1.707-2.172 1.986-2.171.094 1.908-.597 4.227-.955 5.79-.469 1.734-.463 2.134.646 2.579.481.193 1.408.572 1.924.817 2.323 1.105 2.109.206.257-.836-2.501-1.406-2.521-1.336-1.805-3.672.838-2.74 1.251-5.112 1.705-7.823 1.123-6.705-3.958-10.393-10.707-8.051-.386.193-.833-3.524-.769-4.508.059-.355-1.02-.277-1.905-1.359.27-.24-9.951-12.988-14.711-20.72 26.689-.033 53.498-.481 80.266-.475zm-16.597 23.954.105.076zm23.133-23.346h28.623l.413 61.655-2.536.062s-4.778-8.184-6.037-12.051c-.314-.966-.864-2.295-1.078-2.817-.486-1.183-.826-1.329-.18-2.052 1.293-1.447 1.038-4.375-.218-5.785-.389-.458-.59-.303-.57-1.415.017-.957.107-1.568-.147-2.062-.425-.824-.712-.883-.104-1.791.636-.951 1.482-2.493 1.838-3.705.576-1.956.17-2.322 1.454-1.862 3.221 1.021 5.918-1.267 5.834-4.502-.071-2.722-2.628-5.149-5.601-4.405-.685.171-.821.113-1.876-.546-.302-.189-.763-.588-1.154-.736-.49-.186-.894-.17-1.097-.518-.399-.684-1.643-1.77-3.159-1.7-.925.043-2.128-.29-2.446-.456-.528-.275-2.011-.051-3.895-.333-.838-.125-1.513.199-1.919.204-1.16.014-.687-.129-.907-1.007-1.454-4.578-5.701-4.032-7.647-.589-.714 1.351-1.232 3.355-1.501 5.425l-11.438-.171zm-88.521.133c4.273 5.413 8.361 11.479 12.668 17.005 5.3 6.693 5.476 7.462 4.052 14.198-.796 3.807-1.137 4.686-2.75 4.399-1.514-.27-2.796.916-3.002 2.418-.388 2.819 2.341 4.555 5.082 3.144 1.446-.744 1.493-.824 1.012 1.634-.69 3.522-2.074 6.554-2.964 6.455-2.298-4.858-7.889-1.402-6.033 3.649-.581.882.183 1.999.475 2.923 0 0 .012.109-3.182 1.162-15.681 4.623-35.104 16.691-45.709 28.02L32.32 29.08Zm89.984 11.566a2.57 2.57 0 0 1 1.814.66c1.367 1.223 1.046 2.933-.845 6.151-1.984 4.484-1.443 8.017-.988 12.725-.013 2.734-.94 5.332-2.418 6.455-2.394 1.82-5.346-.617-4.104-3.087.636-1.227 1.986-.512 2.304-1.672.114-.694.101-1.786.176-2.304-.285-2.064-.876-8.36-.879-10.545.025-1.883.644-4.247 1.501-6.018.837-1.477 2.183-2.334 3.439-2.365m3.771 7.316c-.543.45-1.448.46-1.554-.103.003-.589.465-2.47.785-2.677 1.961-.457 1.336 2.294.769 2.78m2.932-2.932c1.62-.063 2.688 4.067 1.282 6.484-.267.05-2.232.037-2.242.076-.033-.432.096-1.294.242-2.119.125-.706.199-1.242-.014-2-.532-1.892-.878-2.248.731-2.442zm3.087.057h.19c1.645.008 2.582 3.175 2.066 6.636-.074.497-.117 1.018-.299 1.135-.688-.186-2.597.493-2.631.488-.18-.183-.107-1.167.137-2.055.451-1.642.577-2.734.047-4.432-.38-1.468-.394-1.747.489-1.772zm4.099.912c1.808.303 1.925 5.295 1.183 6.916-.177.239-.859.181-1.102.271-1.537.439-1.195.668-1.016-1.772.123-1.674.152-2.974-.1-4.356-.122-.606-.171-1.029.271-1.069.257-.051.53-.043.765.009zm-9.02 1.952c.72.984.141 3.26-.409 4.105-.627.933-.879 1.01-.537 1.419.145.173.447 1.055.261 1.425-.345.685.54.808 1.344 1.226 1.304.68 1.937 1.935 2.91 4.218.339.795 1.035.545.698-.312-.289-.733-.402-1.813-.601-2.534-.208-.74.02-1.11.876-.893 1.287.326 1.109.021 1.58-.152 1.033-.57 1.726.237 1.102.684-.358.257-1.122.412-1.967.644-.718.197-.551.887.171.883.666-.003 2.578-.538 3.825-.915 3.573-1.079 3.693-1.653 3.358.375-.441 2.683-1.908 4.696-4.332 5.377-2.11.593-6.983.479-9.153-.214-2.061-.932-2.198-1.584-2.821-3.396-.853-2.48-1.356-6.679-.375-9.12.863-2.061.777-1.844 1.605-1.74.737.257 1.728-.029 1.948-.48.111-.215.392-.608.518-.601zm13.685 1.487c.204 1.104.222 2.238-.161 3.092-.222.401-1.474.379-1.957.385-.286.067-.264-3.729.043-4.142.728-1.09 1.668-.214 2.076.665zm-36.257-.655 3.539.043v.86l-4.175-.028zm12.383.147.005 1.116-5.329.009v6.992l5.961.019.033 1.454-7.98-.028.024-9.557zm27.089-.223c5.464 1.199 3.026 7.234.978 7.6-2.553.456-4.717.168-4.009-2.076.71-1.521.217-3.415.418-4.798.493-.456 1.778-.91 2.612-.727zm-41.192 2.119 5.258.052v1.154l-6.009-.014zm11.68 1.064a1.52 1.52 0 1 1-.001 3.041 1.52 1.52 0 0 1 .001-3.041m14.834.603c.978.107 1.062 1.603.664 2.04-.513.508-1.47.291-1.761-.487-.263-.702.326-1.584 1.097-1.553m-27.982.651 6.726.019v.936l-6.792.057-.181-.603zm37.862.404c.933-.022 1.504.762.921 1.43-.878.975-2.669-.517-.921-1.43m-71.672 2.044c-1.505 1.27-.299 2.519 1.7 1.316 4.301-2.587 10.645-.537 14.781 1.618.81.415.921-.552.124-1.221-3.82-3.362-11.963-5.291-16.605-1.713m65.175-1.768c1.05.005 1.035 1.314.361 1.781-.674.292-.792.211-1.24.036-.614-.239-.156-1.812.879-1.818zm3.721.02c1.245.061 1.107 2.566-.774 1.662-.682-.732-.239-1.667.774-1.662m-34.764 1.291 6.536.057v1.064l-6.113-.062zm-42.242 2.503c1.786 1.417 1.232 1.503-1.729.461-1.935-.431-3.861-.156-5.073.323-1.433.567-1.765.403-1.145-.556 1.667-1.87 6.261-1.493 7.947-.228m8.588 2.346-1.62-.199c-1.182.22-.84.276.408 1.696 1.25 1.421 1.658 1.757 1.582 2.304-.112.805.114 1.248.917 1.159.386-.043.844.404 1.434.941 2.045 1.858 3.078 2.782 3.743 3.068 2.708 1.169 1.489-.15-.242-1.344-2.885-1.991-3.888-3.318-1.838-2.608 2.178.755 5.643.327 7.348-.702.84-.506 1.371-1.283 2.555-.904 1.663.532 2.3-.448 1.838-.997-.755-.484-2.478-1.061-4.114-2.161-3.501-1.776-7.181-1.723-9.633-.294-1.445.842-1.948.25-.532-.584 5.683-3.063 10.179-.129 13.818 2.071.63.383 1.072.352 1.073.081-.096-.889-1.715-1.435-2.37-1.833-5.069-3.085-10.396-4.068-14.369.309zm34.509-2.712 5.681.005v1.121l-5.263-.024zm-46.222 1.43c1.573-.007 4.997 1.405 4.94 2.575-.066.444-.923.046-1.667-.408-1.439-.879-3.649-1.114-5.729-.727-1.597.298-2.105.561-2.332.37-.552-1.24 3.327-1.803 4.788-1.81m61.427.836.009 2.009c-3.084.225-3.718 3.651-1.74 5.559 1.622 1.565 4.302.948 5.65-1.27.236-.394.264-.633.408-.437.09.122.168.496.242.86.214 1.054-.09 1.325-.788 2.228-1.129 1.46-1.283 3.3-.575 4.669.195.377.602.915.532 1.164.395-.012-3.502 10.891-9.193 16.386-.953.633-1.643-.111-1.152-1.133 4.637-10.595-4.234-20.437-7.676-29.906zm-41.216 1.829.812.071c-.654 4.881-5.39 4.095-5.577.119l.684-.024c.923 3.699 4.091 2.184 4.08-.166zm-26.757.1s.342.545.342.85c0 1.136-.018 2.779-.048 3.277-.274 4.697-6.234 5.567-5.781 1.548.355-1.706 2.51-1.895 3.04-.351.774 1.942.912-.468.922-1.221.631-1.183 1.094-2.62 1.525-4.104zm28.718.333c.244.006.682.22 1.026.589.392.421.246.631-.67 1.102-.991.51-1.44.466-1.083-.565.222-.64.413-1.134.727-1.126m44.584.247c.135.006.48.184.399.694-.135.852-.871 1.336-1.064 1.135.123-.449.271-1.651.665-1.829m-51.699 1.648c-.117.345-.321.195-.841-.247-.574-.487-.544-.799.047-1.149.849-.512.901 1.079.793 1.397zm-18.045-1.273c.994 3.143 3.022 2.743 3.928.152l.869-.014c-.191 4.046-5.314 3.974-5.358.062zm-1.795.39c.303-.048.085 1.002.085 1.002s-.841-.434-.347-.893a.7.7 0 0 1 .261-.109zm7.524.266c.104-.006.3.073.513.214.498.33.412.523-.157.997-.876.73-1.271.324-.798-.655.176-.365.308-.548.442-.556m65.422.684c.37-.023.89.145 1.99.437 3.031.805 7.088.776 10.54-.176 1.09-.301 1.9 1.612 1.311 3.002-.26.614-.214.69.58 1.515 1.126 1.17 1.306 3.056.451 4.774-.622 1.25-.581 1.138.157 3.273.337.977.772 1.973.85 2.242.932 3.146 3.232 6.861 4.636 9.97 1.401 2.186-2.513.024-2.513.024s1.052 1.41 2.451 2.465c1.357 1.03 4.023.333 5.244 1.587.286.394-.278 8.737-.565 8.968-12.051-.56-32.153-.119-32.153-.119l3.767 5.871c5.925 2.367 11.591 1.775 17.01-1.634-.134.49 6.593 3.779 12.117 4.137l.033 3.952c-4.099-.459-8.252-.554-12.06-2.95 0 0-3.5 1.464-7.006 2.56l19.637 20.312.009 3.395s-8.383-7.824-17.01-16.644l.185 43.372 16.991.333c-.534 11.288-.319 18.464-.204 31.393-8.029 8.237-19.077 16.478-29.284 21.427-4.817-4.645-8.797-9.677-12.279-15.057l.278-.445-.82-.391c-2.123-3.161-7.056-11.926-6.275-12.131 1.509.104 8.506-.761 9.899-4.954.011-.266-.152-1.014.038-1.89.492-2.273.744-5.724-.09-7.918-1.504-3.955 3.02-2.687 3.173-2.422l-.005-14.939c-5.886 4.719-11.825 9.363-19.694 11.305-4.894-24.669 2.867-55.35 24.995-76.157l-1.213-.104c-22.734 23.522-28.696 49.389-24.817 76.631 0 0 .144.852.166 1.139.053.678-.11.936-.713 1.426-.575.378-1.097.784-1.045 1.249.098.875-.743.903-1.843.898-.507-.444-1.188.116-1.596.318-.57.084-.854-2.244-1.582-.537-.277 1.077-.803 1.158-2.019.622-.764-.223-.781.156-.048 1.04 1.014 1.091 1.871 2.722 1.705 3.211-.372 1.097-.211 2.202 1.339 2.831-.088.007-.936 3.345 1.468 3.249.765.008 2.703.399 2.703.399.126.638-.079 1-.38 1.282l-1.672-.836-.437 1.99-2.228-.157 5.42 6.693.632-5.22 6.337.803c1.017 2.639 7.419 17.32 19.655 28.243 0 0-6.689 2.911-8.564 3.824l-1.164-4.161-1.05 1.51-1.872-.48-.218 1.71-1.667.537 2.907 2.195-7.472 2.272c-21.345-34.428-31.005-82.249-4.422-132.821l6.716.085-1.311 2.242 1.909-.304.54 1.634 1.402-.662 1.41 1.767 1.604-4.72s4.759.108 5.352.048c.466-.053 10.058-8.1 9.851-8.408-.149-.222-10.446 7.304-10.792 7.016 0 0-1.034.246-.228-.717 1.446-1.729 2.466-3.044 3.933-5.529 2.424-3.299 3.514-7.325 4.085-10.051.009-.191.062-.629-.1-.95-.925-1.834-.72-3.032.94-5.196.581-.758.617-.945.451-1.411-.374-1.051-.015-1.95.75-2.655.304-.28.501-.414.788-.432zm-56.595 7.325c4.215 1.731.83 5.565-2.301 2.223-1.64-1.751-2.936-1.64-3.828-.361-.402.577.183 1.59.703 1.268.482-.298.979-.652 1.681-.005 5.331 4.908 9.159-1.963 4.565-3.672-.568-.262-1.376.318-.82.546zm-17.363-.166.147.057c.2.125.214 1.859.014 2.589-.666 3.696-3.301 12.283-8.707 8.08-2.147-1.669-.194-5.86 2.375-4.436 2.006 1.112.652 3.765-1.52 2.242-1.054-.739-.72.785.171 1.221 1.51.79 4.243-.563 5.524-2.974.511-.961.99-2.66 1.529-5.106.271-1.23.293-1.663.465-1.672zm.456 6.398c.445 2.672-1.589 7.351-4.484 8.042-2.216.529-4.956-.915-4.76-2.252.057-.388.215.124 2.223.456 2.804.463 4.589-1.05 6.204-4.536.51-1.1.728-1.685.817-1.71m6.978 1.278c-.002.302-.145 1.097-.271 1.625-.299 1.252-.486 1.727.883 1.107.905-.417 2.23-.831 3.6-.071 1.512.838 2.955.683 4.736-.071 1.546-.515 2.3-.52 3.163-.024 1.576.906 1.035.328.831-1.957-.141-1.608-.579-1.397-1.145-.788-.371.399-1.121.487-1.957.038-.996-.535-2.382-.281-2.85.1-.467.38-1.142.432-2.057-.185-.606-.409-.944-.195-1.686.138-1.223.548-1.692.252-2.356-.261-.603-.44-.886-.302-.893.351zm-6.071 1.919c.16-.002.177.615.067 1.857-.51 4.582-4.098 7.134-8.322 4.916-1.85-1.056-1.599-1.801.223-1.14 2.905 1.053 5.838-.419 7.272-4.185q.55-1.447.76-1.449zm10.308 3.268c2.088.864 4.404.589 4.993-.176.661-.859-.354-.718-.885-.589-1.828.437-3.083.278-3.824-.052-2.165-.836-2.028.07-.285.817zm-21.788 2.57c2.707 3.314 3.064 3.961 5.396 7.728 17.05 28.939 22.509 65.515 11.3 98.719-3.076 9.162-7.414 18.5-12.279 26.002l-5.838.062 2.005-2.285-2.717.199-.166-1.51-2.062.665-.993-2.28-1.867 5.22-10.82.028c25.343-24.627 30.334-54.472 25.607-78.432 0 0 2.118-1.325 2.413-2.099.072-.188.229-.988.375-1.107.942-.616 1.568-1.215 2.033-1.097.267.068.405.191.599.475.893 1.308 1.085 1.513 1.572.195.35-.946.2-1.288 1.349-1.107.673.357 1.568.347 1.487.214-.061-.099-1.015-1.22-1.468-1.857-1.07-1.505-1.376-1.777-1.278-2.437.15-1.005-.65-2.088-1.149-2.361.144-2.706-.895-2.976-3.838-3.582a2.5 2.5 0 0 1 .271-1.264l1.729 1.377.627-2.555 2.346.128-6.802-6.583c.034 1.857.122 3.735-.047 5.524-3.189-.174-6.335-1.202-6.383-1.007-4.682-11.024-11.816-20.347-19.348-27.621l7.524-3.615 2.133 4.066.522-2.304 1.867.328.314-1.477 2.062-.29-2.275-2.161zm44.807 4.755c.288.362.518.387.903.717l-.77.546c.036-.517-.009-.782-.133-1.264zm-50.06 1.359c-.638 0-1.159.521-1.159 1.159a1.157 1.157 0 0 0 2.313 0c0-.638-.516-1.159-1.154-1.159m6.278.184a1.16 1.16 0 1 0 0 2.318 1.16 1.16 0 0 0 0-2.318m-20.224.847c3.726 3.096 7.151 7.131 11.305 13.442l-.085.85 1.268.47s6.91 9.096 6.545 13.139c-2.373.495-4.208-.381-8.45 3.586l-2.727-.594-2.869.698s.037.899.75 1.202c.31.131.824-1.126 1.159-1.088 1.394.161 2.799.183 2.541.622-.293.125-1.042 9.162.413 11.086.812 1.959.23 1.943-.499 2.304-.791.518-3.282-.575-3.282-.575l.575 14.35c6.573-7.498 20.455-12.499 19.47-11.956 6.968 36.804-9.598 61.357-26.937 79.353l9.087.052s-7.834 12.566-8.417 16.041c.445 1.154 1.677 3.546-.404 5.225-.704.772-.779 4.275-.779 4.275-4.779.165-8.921-1.495-14.43.437-.57.192-.694-3-.722-3.577-1.693-1.584-1.961-4.806-.499-6.479.542-.616.312-.289-.142-2.375-.726-3.328-3.143-7.891-4.983-10.82-.603-.96-1.207-2.081-1.354-2.427-1.315-1.559-4.772-.839-5.192-1.249-.382-.32-.63-8.829-.242-9.034 13.619 1.08 34.931-.157 34.931-.157l-5.719-7.989c-7.044-2.746-16.724 1.943-16.258 2.19.023.028-7.737-4.232-13.119-3.626l.177-4.173c4.781-.019 9.193.871 13.044 3.143l6.543-2.436-20.055-21.038.233-3.467s5.122 5.484 10.692 11.343c4.778 5.026 6.564 5.871 6.564 5.871l.014-43.633-17.243-.043-.461-8.916-.447-.779-.204-6.398.48-.651-.166-2.736-.161-.39-.219-6.536.371-.551.057-4.114c8.332-8.156 29.844-21.874 29.844-21.874zm14.73 1.24 2.009 8.806 1.349-1.672 2.071.651.142-2.028 1.886-.655zm68.52 1.464a1.16 1.16 0 1 0 0 2.318 1.16 1.16 0 0 0 0-2.318m-5.425.725a1.16 1.16 0 1 0 0 2.318 1.16 1.16 0 0 0 0-2.318m-66.44 1.026a1.16 1.16 0 1 0 0 2.318 1.16 1.16 0 0 0 0-2.318m70.599.698-8.066 7.586 2.261-.095.405 2.213 2.024-.926 1.638 1.511zm3.432 2.549a1.16 1.16 0 1 0 0 2.318 1.16 1.16 0 0 0 0-2.318m-64.142 1.493a1.16 1.16 0 1 0 0 2.318 1.16 1.16 0 0 0 0-2.318m5.016.969a1.16 1.16 0 1 0 0 2.318 1.16 1.16 0 0 0 0-2.318m-4.55 1.724c.222 3.099.584 6.775.665 9.88l1.529-1.506 1.767.717.627-1.905 1.924-.095zm49.661 2.585a1.16 1.16 0 1 0 0 2.318 1.16 1.16 0 0 0 0-2.318m-52.986.203a1.16 1.16 0 1 0 0 2.318 1.16 1.16 0 0 0 0-2.318m57.581.282a1.16 1.16 0 0 0-1.159 1.159c0 .64.613 1.159 1.159 1.159s1.159-.519 1.159-1.159a1.16 1.16 0 0 0-1.159-1.159m-.687 2.503-6.686 6.877 2.19.204.688 1.952 1.402-1.187 1.7 1.244zm3.672 1.474a1.16 1.16 0 1 0 0 2.318 1.16 1.16 0 0 0 0-2.318m-52.718 2.144a1.16 1.16 0 0 0 0 2.318c.64 0 1.159-.613 1.159-1.159s-.519-1.159-1.159-1.159m-28.4.708-2.175 1.667.537-.081s1.316 1.531 1.316 1.639c0 .107.807-.028.807-.028zm33.882 1.012a1.16 1.16 0 1 0 0 2.318 1.16 1.16 0 0 0 0-2.318m-8.303 1.653a1.16 1.16 0 1 0 0 2.318 1.16 1.16 0 0 0 0-2.318m47.88 2.335a1.16 1.16 0 1 0 0 2.318 1.16 1.16 0 0 0 0-2.318m-4.574 1.701a1.16 1.16 0 1 0 0 2.318 1.16 1.16 0 0 0 0-2.318m46.693.287 2.408 2.617v38.294l-2.351.048zm-93.751.271c1.962.002 4.149.285 4.845 1.477 1.083 1.337-1.22.82-3.159 1.111-1.791.219-.752.584 1.776.731 3.485.206 4.854.297 5.373 1.1.294.748.079 1.253.141 2.059l-3.957-.185c-2.052.003-3.258-.036-3.866.119-.485.124-.346.513-.18.679.086.087 1.661.108 3.501.157 4.952.13 6.047.297 6.398 1.89.265 1.461-.926 1.239-6.013.684-2.264-.185-3.482.348-3.809.508-.558.274 1.617.543 2.328.427.444-.07 3.71.283 4.912.508 1.011.153.121.125-.39.741-.338.51-.231 1.095-.76 1.382-.649.343-1.935.337-4.242.337-2.638.001-3.868.641-.247.798 2.339.102 2.471.061 2.67.736.528 1.665-.598 1.958-2.983 2.337-1.14.196-2.831.086-4.109-.005-5.046-.359-6.794-1.562-7.476-3.786-2.545-8.297.596-13.362 7.947-13.77a23 23 0 0 1 1.302-.038zm51.002.37-5.698 8.289 2.196-.855 1.045 2.247 1.757-1.254 1.756 1.083zm-42.633 1.007c.295.361.166.631-.323.898-.412.225-1.117.058-1.582-.142-.613-.265-.675-1.359-.171-1.477.724-.145 1.622.192 2.076.722zm-41.273-.423L46 126.248l.095.114 4.104-1.615zm87.458 1.273a1.16 1.16 0 1 0 0 2.318 1.16 1.16 0 0 0 0-2.318M179 125.54s2.903 2.867 4.095 4.071l-1.078-.005.028 2.261 3.434.038 1.886 1.848-5.244-.024v2.308l6.493.005-.033-.988 2.565 2.323.304 25.678-12.374-.038c-.046-12.644-.011-24.833-.076-37.477m-84.887 2.784c-.178.555-.576.556-1.254.28-1.004-.409-.861-1.517-.1-1.634 1.436-.164 1.702.498 1.354 1.354m3.895.484a1.16 1.16 0 1 0 0 2.318 1.16 1.16 0 0 0 0-2.318m-4.08.888c.453.028.902.261 1.159.513.634.64.41 1.237-.299 1.605-.795.414-1.355-.15-1.587-1.093-.156-.636.215-1.005.727-1.026zm36.383 3.04a1.164 1.164 0 1 0 0 2.328 1.164 1.164 0 0 0 0-2.328m-38.302 1.411c.999.034 1.3 1.054.779 1.601-.748.741-1.911.424-2.076-.285-.052-.797.597-1.316 1.297-1.316m34.149.47a1.16 1.16 0 1 0 0 2.318 1.16 1.16 0 0 0 0-2.318m4.117.769-5.187 8.702 2.099-.831 1.273 1.677 1.311-1.145 1.981.969zm-40.703 1.454c.928.004 1.188.733.513 1.401-.458.454-.977.468-1.506.048-.802-.637-.187-1.454.993-1.449m44.336.107a1.16 1.16 0 1 0 0 2.318 1.16 1.16 0 0 0 0-2.318m-37.762.914c-.64 0-1.111.519-1.111 1.159a1.16 1.16 0 0 0 2.318 0c0-.64-.566-1.159-1.207-1.159m85.932.257v2.461l6.536.005v-2.461zm-85.847 2.185-2.503 9.144 2.095-1.192 1.306 1.335 1.216-1.496 2.185.57zm4.451.993a1.16 1.16 0 1 0 0 2.318 1.16 1.16 0 0 0 0-2.318m-8.16.465a1.16 1.16 0 1 0 0 2.318 1.16 1.16 0 0 0 0-2.318m89.552.722.005 2.209h6.536l-.005-2.195zm-53.786 2.888a1.16 1.16 0 1 0 0 2.318 1.16 1.16 0 0 0 0-2.318m53.791 1.235v2.38h6.536v-2.38zm-134.767.29 2.299.043.038 41.482-2.242-2.37zm-.96.081-.114 37.914-4.356-4.579 1.159-.014v-2.584l-3.771-.028-1.61-1.567 5.377.005v-2.536l-6.379-.024v1.534l-3.135-3.344.052-24.757zm82.107 1.158-3.489 9.021 2.195-1.249 1.135 1.116 1.173-1.059 1.995.974zm-91.787.433-.033 2.427h6.441v-2.427zm95.739.489a1.16 1.16 0 1 0 0 2.318 1.16 1.16 0 0 0 0-2.318m-7.888.13a1.16 1.16 0 1 0 0 2.318 1.16 1.16 0 0 0 0-2.318m-27.274.431a1.16 1.16 0 1 0 0 2.318 1.16 1.16 0 0 0 0-2.318m84.83.936v2.551h6.536v-2.551zm-84.973 1.439-.969 1.496-2.218-.755 3.026 9.153 3.795-9.547-2.18 1.244zm-60.434.665v2.422h6.408v-2.422zm145.407 2.171v2.527h6.531l.005-2.527zm-145.407 2.114v2.427h6.408v-2.427zm91.703.456a1.164 1.164 0 1 0 0 2.328 1.164 1.164 0 0 0 0-2.328m-34.893 1.211a1.164 1.164 0 1 0 0 2.328 1.164 1.164 0 0 0 0-2.328m7.438.218a1.164 1.164 0 1 0 0 2.328 1.164 1.164 0 0 0 0-2.328m81.159.162v2.28h6.531l.005-2.28zm-53.713 1.064-1.387 1.458-1.99-.565 4.513 8.417 2.28-9.053-1.99 1.268zm-91.694.855v2.755h6.408v-2.755zm60.477 1.249a1.164 1.164 0 1 0 0 2.328 1.164 1.164 0 0 0 0-2.328m-.076 2.399c-.496.352-.712.969-1.23 1.287l-2.118-.902 1.273 11.462 5.88-10.83-2.688.451zm-60.401.375v2.864h6.408v-2.864zm96.241 1.328a1.164 1.164 0 1 0 0 2.328 1.164 1.164 0 0 0 0-2.328m-7.524.133a1.164 1.164 0 1 0 0 2.328 1.164 1.164 0 0 0 0-2.328m-88.717 2.695v2.869h6.408v-2.869zm92.915.64a1.164 1.164 0 1 0 0 2.328 1.164 1.164 0 0 0 0-2.328m16.428.092c6.232.199 7.144 2.204 7.181 9.124.029 5.524-1.616 7.683-5.638 8.748-1.465.388-6.944.029-8.497-.469-.026-.474-.8-1.571-.975-2.415.395-.113 1.646.062 4.017.288 1.922.183 2.417-.125 1.81-.503-3.616-.853-6.078-.621-9.552-1.287-.049-1.039-.888-2.249-.888-2.249.189-.075 5.355.481 8.081.395 1.201-.05.478-.613-.007-.717-3.179-.455-5.244-.382-8.606-.806.092-.86-.346-1.642-.888-2.299 0 0 1.701-.015 5.206.038 1.845.028 3.451.105 4.257.077 1.355-.002 1.231-.634.057-.72-1.432-.16-7.069-.193-7.069-.193.419-.194.967-2.718.75-2.745 0 0 1.461.03 2.389-.005 4.517-.169 5.297-.098 5.382-.266.594-.543-1.009-.755-2.679-.75-.72.002-1.77.159-1.762-.233.007-.36-.01-1.099-.377-1.86 2.771-1.066 5.32-1.231 7.809-1.152zm-53.73 1.42a1.164 1.164 0 1 0 0 2.328 1.164 1.164 0 0 0 0-2.328m44.455.242c.768.004 1.01 1.386.29 1.601-1.106.33-1.711.07-1.672-.584.022-.371.885-1.019 1.382-1.016zm-36.855 1.202a1.164 1.164 0 1 0 0 2.328 1.164 1.164 0 0 0 0-2.328m33.141 1.306c2.634-.024 1.27 3.558-.755 2.266-1.004-.641-.298-2.258.755-2.266m-41.648 2.864c-.054-.005-.083.049-.076.18l.608 10.887 6.337-10.17-2.518.936-1.083-1.643-1.358 1.069c-.56.44-1.618-1.232-1.91-1.259m39.207 1.114c1.182.164 1.97 1.347 1.149 1.916-1.847.809-2.835-1.837-1.149-1.916m-2.838 2.389a1.164 1.164 0 1 0 0 2.328 1.164 1.164 0 0 0 0-2.328m4.476.985c1.006-.015 1.48 1.445.484 1.905-.212.098-.842.168-1.121-.038-1.175-.867-.566-1.775.636-1.867zm-43.574 1.795a1.164 1.164 0 1 0 0 2.328 1.164 1.164 0 0 0 0-2.328m88.893 1.458-4.313 1.449v2.04c1.883-.599 2.959-2.129 4.313-3.488zm-40.418.985c.748.314.951 1.327.308 1.668-.507.268-1.88.226-2.216-.216-.871-1.397 1.002-1.793 1.908-1.451zm-40.66.402a1.164 1.164 0 1 0 0 2.328 1.164 1.164 0 0 0 0-2.328m-4.768 2.011a1.026 1.026 0 1 0 0 2.051 1.026 1.026 0 0 0 0-2.051m48.375 1.731a1.164 1.164 0 1 0 0 2.328 1.164 1.164 0 0 0 0-2.328m-52.125.063-.057 10.284 6.859-8.417-2.38.518-1.016-2.085-1.468.955zm43.537 2.369a1.164 1.164 0 1 0 0 2.328 1.164 1.164 0 0 0 0-2.328m34.325.04-1.126 1.919 3.192-1.772zm-29.68 1.366a1.164 1.164 0 1 0 0 2.328 1.164 1.164 0 0 0 0-2.328m3.921 1.256-1.392 1.986-1.834-.589-.541 1.89-2.199-.081 7.149 6.223zm-55.719.795a1.164 1.164 0 1 0 0 2.328 1.164 1.164 0 0 0 0-2.328m107.195 1.671.58 85.272-40.646.085-16.734-22.851c-.345-3.722-.144-7.544 1.423-12.539 1.636 1.133 5.221.515 5.099-3.879-.08-2.877-4.515-4.349-6.724-2.185.114-2.781 1.243-6.96 2.869-8.192 1.117 1.014 1.364 2.516 3.889 2.096 1.794-.298 3.214-2.303 2.437-4.639a6.2 6.2 0 0 1-.304-1.795c.002-.482.047-1.339-.048-1.819-.124-.634-.171-1.321-.171-1.321 21.654-6.796 37.138-17.669 48.331-28.234zm-99.047 1.464a1.164 1.164 0 1 0 0 2.328 1.164 1.164 0 0 0 0-2.328m-5.488 1.137a1.164 1.164 0 1 0 0 2.328 1.164 1.164 0 0 0 0-2.328m57.586.56a1.164 1.164 0 1 0 0 2.328 1.164 1.164 0 0 0 0-2.328m-61.759 1.242-1.815 10.835 7.923-8.099-2.152-.048-.427-1.848-2.014.651zm53.87 2.311a1.164 1.164 0 1 0 0 2.328 1.164 1.164 0 0 0 0-2.328m5.135 1.264a1.164 1.164 0 1 0 0 2.328 1.164 1.164 0 0 0 0-2.328m-63.94 1.413a1.164 1.164 0 1 0 0 2.328 1.164 1.164 0 0 0 0-2.328m68.571.879-1.895 1.439-1.743-1.066-.408 2.301-1.487.779 6.237 4.37zm4.609 3.098a1.164 1.164 0 1 0 0 2.328 1.164 1.164 0 0 0 0-2.328m-65.808.393a1.164 1.164 0 1 0 0 2.328 1.164 1.164 0 0 0 0-2.328m-5.168 1.52a1.164 1.164 0 1 0 0 2.328 1.164 1.164 0 0 0 0-2.328m67.994 3.076a1.164 1.164 0 1 0 0 2.328 1.164 1.164 0 0 0 0-2.328m-4.878 1.042a1.164 1.164 0 1 0 0 2.328 1.164 1.164 0 0 0 0-2.328m-45.054 1.657.019.009c.131.141.535 1.199.176 1.738-.185-.088-1.022-.866-.807-1.131.099-.122.504-.618.613-.617zm-26.408 1.825s1.126.058 1.373.166c0 .287-.271.916-.575 1.62-1.519 3.517-1.752 7.459-.209 11.258 2.421 5.157 9.257 17.357 8.749 18.473l-15.105.062.065-2.297c4.244-.167 4.912-2.762 3.853-4.907-.733-1.486-2.79-2.336-4.67-1.556-2.715 1.126-2.882 2.468-3.851 4.547l-.432-.549c.816-1.084 1.088-2.124 1.021-3.311-.066-1.165-.1-.843.307-1.482 2.364-2.54.816-5.846.816-5.846-.282-2.031 7.074-14.987 8.658-16.177zm-34.542.333c4.296 3.418 8.014 14.932 7.79 15.11-.2-.162-3.462 3.699.052 7.296 0 0-.215 2.162.461 3.273-1.552 3.22-1.825 3.463-1.957 6.109-.029-.01-.269-.031-1.71-.038-7.118-.034-7.45 9.017-.337 9.514.974.068 1.308-.153 1.895.428.596.739 1.13 1.481 2.147 1.097.242.002.632.228 1.04.608.684.925 1.676 1.584 3.092 1.33.502.049 1.016.193 1.558.39.623.491 1.705.863 2.551.494.252-.11.736-.147 1.131.033 1.028.468 2.075.175 2.461-.119.954-.495 1.166.299 1.121 1.031-.487 1.675.583 3.246 2.204 3.862 3.418 1.056 5.141-1.046 5.876-5.215.182-.914.342-2 .342-2l11.443.299-16.43 19.043-27.968.342-.147-62.914c1.23-.072 2.157.029 3.387.028zm102.89 3.396c2.087.804 2.253 2.279.176 1.639-3.376-1.039-7.008 1.023-7.766 3.971-.14.544-.289.955-.375 1.059-.472.571-.449.05-.309-1.586.273-3.176 2.519-5.477 5.448-5.572.96.002 1.994.201 2.826.489m-1.035 2.247c.873 0 1.797.256 2.487.856.783.859.55 1.429-.051 1.399-2.828-1.18-6.423.249-7.831 3.818-.864 2.191-1.02 1.016-.637-.679.708-3.07 3.044-5.338 6.033-5.394zm-19.665.846c-1.234.005-2.405.248-3.002.812-1.133 1.071-.19 1.088 1.862.375.998-.347 2.919-.187 4.147.237 1.029.356 1.392.506 1.335.185-.054-.963-2.285-1.619-4.341-1.61zm23.051 3.583c.521 1.191.184 3.289-1.634 3.501-2.143.25-3.25-3.342.663-2.714-.507-1.437-2.263-1.039-3.128-.675-1.766.771-2.969 2.507-4.052 5.695-.321.945-.556 1.439-.679 1.344-.205-.158-.301-1.627.171-3.396.851-3.189 2.927-5.116 5.125-5.177 1.424-.218 3.083.39 3.534 1.422m-30.66-1.384c-.19.043.144.713.665 1.753.288.576.484 1.321.484 1.468-.003.565.432.705 1.069.342.736-.419.854-.735 1.895-.271.981.516 1.949.841 2.845.318.486-.284.808-.272 1.748-.024 1.122.296 1.271.341 2.109-.009 1.07-.448 2.342-.141 2.612.16.257.287.108-.11.69-1.459.27-.625.657-1.385.55-1.598-.144-.288-1.119.03-2.18.309-.574.15-1.122.106-2.223-.204-2.322-.655-3.785-.467-5.239.223-.812.385-2.849-.147-4.907-.983l-.119-.024zm4.568 6.218c-1.047-.016-1.997.643-2.432 1.548-.505 1.257.354 3.524 1.662 3.719 1.164.173 1.12-.538.534-.73-.887-.291-1.931-1.561-1.256-2.665.464-.759 1.866-.754 2.842.181 1.965 1.884 4.215 2.009 4.641.373.129-.654-.369-1.525-1.137-1.287-.594.184-1.967.239-3.116-.541-.596-.405-1.19-.59-1.738-.599zm20.743 5.985c5.014-.301 2.858 6.548-.036 4.79-1.034-.628-.575-2.935 2.172-2.893-2.695-2.099-4.532.457-3.873 3.325-.605.936-.773 2.72-1.169 3.729-.61 1.153-1.089-1.866-.473-4.783.596-2.824 1.605-4.062 3.38-4.168zm-28.362.237c-1.035.012.029 1.126.19 1.259 3.123 2.451 4.65 3.966 2.137 3.159-4.081-.971-5.133.183-8.241 1.553-.571.274-.732.104-1.42-.1-2.731-.808-2.531.905.323 2.451 4.309 2.334 7.867 2.861 11.215 1.111 2.152-1.124 2.262-.388.261.855-3.426 1.997-7.032 1.694-12.569-1.753-1.789-1.114-2.039-.369-.209.803 4.181 2.525 9.81 4.814 14.407 1.088.904-.804 1.086-1.221 1.781-.874 1.838.917 1.234-.68-.019-2.185-.443-.532-.77-.962-.741-1.325.104-1.306-.618-1.301-1.278-1.268-.788.039-.701-.226-1.667-1.287-1.411-1.55-3.134-3.209-4.17-3.486zm-41.729 6.944c-1.735.137-2.133.215-1.71 3.772.08.669.378 2.672.461 3.425 1.029 9.313.196 13.433-2.399 14.573-.933.411-1.852.26-2.536-.014-1.642-.657-2.319-2.651-1.126-5.026.321-.64.709-1.629.864-2.199.155-.571.505-1.823.774-2.784.653-2.335 1.008-5.888.622-9.281-.261-2.304-.204-2.498.37-4.052 1.26-2.297 2.075-3.472 4.729-3.501 2.968.311 3.799 4.803-.051 5.088zm63.807-.204-.812.038c-.978-3.256-3.021-2.202-3.361.083l-.69-.007c.119-4.347 5.556-3.168 4.863-.114m-76.271-2.431c5.543.548 6.553 1.926 6.99 8.62.04 3.24-.174 5.195-.671 5.933-.83.399-1.625-.347-2.808.403-.65.398-.526.439-.806.007-.263-.406.045-2.115.47-3.48.405-1.301-.289-2.059-2.124-3.728-.497-.452-.932-1.08-1.377-1.976-.955-2.562-1.439-1.434-.644.774.393.952.485 1.422-.71 1.012-.703-.243-1.317.044-1.859.332-1.521.387-2.832-.444-1.513-.944.803-.304 2.243-.744 2.688-.742.323.002.48-.072.48-.223.003-.641-2.931-.571-5.169.2-2.748 1.265-2.906 1.04-2.652-.928.643-4.991 5.289-5.6 9.706-5.26zm54.207.436c1.417-.063 2.719 1.561 2.461 2.94l-.675-.043c-.317-2.595-2.771-2.707-3.425.199l-.974.024c.619-2.243 1.643-3.077 2.612-3.121zm16.479.052c.56.331.171 1.23-.425 1.41-.225.056-.939-.441-.768-.744.322-.365.81-.556 1.193-.667zm6.352.44c.391 0 .895.199.964.724.022.767-.561.609-.755.54-.387-.359-.533-1.235-.209-1.264m-19.43.614c1.039.122 1.415 1.428.238 1.51-.526.108-.551-1.197-.238-1.51m-6.322.142c.124.002-.068 1.073-.328 1.23-.513.312-1.169-.028-1.145-.351.058-.773.994-.884 1.472-.879zm18.131 2.603c1.979.75 4.552 1.477 6.973.632.883-.333 1.59-.73 1.588-.355-.002.392-.701.988-1.966 1.342-2.607.73-4.494.448-6.284-.896-.506-.38-.682-.729-.31-.723zm-.817 1.118c3.21 1.873 6.108 2.059 8.717.694 1.056-.366 1.09-.031 1.087.647-4.7 4.13-10.575-.157-9.804-1.341m-78.802 2.853c-.796 1.605-1.224 5.56-2.523 6.732-8.87-.51-3.165-12.208 2.523-6.732m54.967-1.311c-.502.263-.058 1.522.732 1.862 6.784 2.919 10.263 3.267 14.122 1.924 1.598-.556 2.472-1.864 2.551-2.498.094-.756-.938-.829-2.745-.029-5.501 2.157-8.952.475-13.394-1.196-.412-.155-.831-.209-1.265-.063zm-25.978.09-.024 9.889-6.46-.114.076-1.463 4.835.143-.076-7.063-5.61-.052-.009-1.311zm1.501.024 6.446.009.323 1.007h-6.769zm-26.006 3.14c-.424.38-1.163.464-1.468.157-.682-.689.007-1.955 1.097-1.947s1.183 1.061.37 1.79zm2.97-1.608c.975.005 1.297.914.556 1.648-.502.457-.759.487-1.211.152-.57-.5-.272-1.768.655-1.8m-6.361.245c.256-.009.481.016.646.271.593 1.213-1.352 2.052-1.758 1.15-.299-.732.456-1.396 1.112-1.42zm36.451.132.375 1.273-7.429.033v-1.273zm-26.592.366c1.108.133.937 1.247.423 1.743-.883.817-1.74.552-1.515-.546.141-.687.586-1.184 1.092-1.197m-5.974 3.647c-.391 1.393.443 4.21.194 4.505-.542.642-1.413.312-1.8.093-1.342-.862-1.427-5.916-.128-6.218.835.419 1.395-.33 1.777-.439s.126.579-.043 2.059m19.637-2.076a1.325 1.325 0 1 1 0 2.65 1.325 1.325 0 0 1 0-2.65m5.876.171h7.6c.455.633.409 1.062.28 1.501l-7.88.009zm-22.319.172c.347-.004.52.739.288 1.587-.419 1.531-.397 3.616-.109 4.52.193.624.383 1.053.271 1.23-.393.621-1.597.197-2.109-.622-1.248-2.315-1.049-6.633.442-6.298.56.281.881-.159 1.218-.417zm-6.699.583c-.368.586-.105 3.875-.142 4.147-.047.343-.987.166-1.51-.071-1.29-.605-.939-2.141-.689-3.382.281-.974.902-1.047 1.667-1.136.423-.048.981-.011.674.442m10.338.181c.41-.015.467.288.374 1.505-.073.953-.109 1.766.047 2.665.331 1.91.371 2.429-.109 2.803-.57.444-1.338.31-1.933-.214-1.22-.967-1.3-5.708-.342-6.118.891.222 1.451-.482 1.963-.641m26.247 1.434-1.092 1.501H74.82l.005-1.496zm-23.103 2.008c1.011.011.844 1.799.3 2.921-.462.678-.799.747-1.492.111-.787-.722.148-3.037 1.192-3.032m21.213.5-.912.836-4.75.005v-.831z" style="fill:#131f67" transform="matrix(.7339 0 0 .77968 1.203 .058)"/><path d="m48.697 226.208-7.876-6.176c9.367-.205 18.731.012 28.097.172l-9.354 6.665c-1.915-2.093-3.046-4.903-5.764-6.26-2.023.835-3.407 3.716-5.103 5.599m69.08-2.151c-.16-.025-.289-.038-.384-.098-.215-.135-.354-.437-.512-1.429-2.338-10.903-13.829-10.131-13.752-9.81-.086-.43 14.282-13.403 22.728-23.581 2.552 7.778 10.29 25.549 9.968 25.485 0 0-2.239.018-8.043-.126-5.283 2.385-8.959 4.708-8.786 8.072-.029 1.184-.315 1.677-.71 1.575zm25.801-35.093c7.475-.117 8.884-3.768 9.736-4.208 4.91-.807 7.944 2.388 10.095 5.808 2.747 1.654 2.404.127 2.973-2.45l6.841-2.005-.008 2.179c-2.112 1.137-5.247 4.051-5.247 4.051l-2.082-.123-1.194 1.591c-4.753 2.571-9.412 5.634-14.425 7.621 0 0-6.004-7.764-6.69-12.464zm-93.131.684-.077-43.104c3.092-.218 8.784-.19 8.784-.19 2.38-4.201 5.626-6.176 8.971-8.616.469 5.314.649 10.388.541 15.705-8.858 10.812-13.779 24.119-8.316 44.007l-3.278-.364zm48.948 2.416c2.522-8.991 4.482-18.113 5.294-27.532l16.864-.25.337 5.775zm57.423-19.628-.313-16.127c12.307-14.703 13.035-27.526 8.471-43.737 4.065.936 6.158 4.104 10.032 8.473l.003 42.055c-2.692.401-9.366.793-9.366.793-.202 1.97-5.841 6.682-8.827 8.543m-52.112-25.418-.751-7.111 21.913-20.93c-1.809 9.069-3.997 18.382-4.635 28.036zm-36.357-22.213c-1.564 1.026-7.329-4.965-8.272-8.992 1.445-1.953 14.133-8.169 14.133-8.169s7.415 9.517 7.112 13.486c-3.293.875-6.15 1.125-8.65 3.81-1.43.127-1.933-1.481-4.322-.134zm-10.007-8.047c1.765.284.633 2.665.362 4.409l-9.324 2.764c3.206-2.735 5.479-5.062 8.962-7.172zm30.361-21.042c1.917-.058 3.915.732 5.393.137.553-.215 1.657-.548 2.867-.32 2.787.862 3.765-2.208 5.541-2.222 2.299.006 3.575-1.603 3.59-4.824.007-1.393.123-1.55.385-1.689.784-.415 1.622.167 1.726.932 1.649 5.933 5.813 11.268 12.379 10.843-5.229 5.329-21.133 21.71-21.133 21.71-2.865-8.728-6.67-16.851-10.748-24.568zm67.659-5.113 9.579-6.952 5.734 6.978 4.957-6.643c2.914 2.087 9.54 6.74 9.54 6.74s-19.868.293-29.81-.122z" style="fill:#d40000" transform="matrix(.7339 0 0 .77968 1.203 .058)"/><path d="M119.945 21.56 55.313 22l12.56 17.821c13.343-2.886 24.96-1.01 37.016 1.226zm-1.653.903-4.302 5.678c-1.19-1.143-3.847-.73-3.47 1.77-3.297-1.82-3.996 3.178-1.197 2.973-.351.982-3.177 1.24-3.974-.54-2.902 1.726-3.788.05-4.556-1.038 3.687 2.66 5.481-2.807 1.422-3.115 1.595-3.426-4.093-4.982-3.758-.522-3.751-.904-2.89 4.705-.135 3.555-1.79 2.859-4.726.938-5.32.382-1.51 1.203-4.364 1.24-5.164-.682 4.176.892 3.718-4.948.01-3.604 1.977-4.485-4.598-3.882-3-.207-3.742-.151-2.913 4.748.372 3.915-2.919 2.922-5.106.199-5.567.14-1.729 2.026-4.764.916-5.18-.281 2.977 1.25 3.953-4.065.2-3.746.96-3.423-4.44-3.838-3.248.05-2.976-.716-3.138 4.347.196 3.558.206 1.387-2.417 2.715-4.03 1.374-1.184.689-2.48 1.76-4.02.174 2.346-.401 2.732-4.613-1.056-3.703.18-2.587-1.217-2.727-2.944-2.07l-2.766-3.981zm-44.586 6.351c-.206.482-.553.81-.471 1.178.066.301.358.72.764 1.285 3.233 4.478 9.79 4.328 11.761-.288.402-.858.32-1.052-.164-1.782-.584-.88.076-1.82.792-1.74 1.068.118 1.253 1.107.739 1.811-1.116 1.493 1.949 4.87 5.01 5.4 3.922.68 7.642-2.251 7.124-4.877l-.132-.449c-.418-2.2 2.865-1.145 1.683.256-.444.507-.684.658-.623 1.215.953 4.654 6.28 5.142 8.816 3.707-3.272 5.67-8.458 1.3-9.37-2.662-4.596 7.049-10.118 5.584-13.195-.612.364.387-6.062 11.105-13.355.115-3.088 8.845-8.717 2.866-8.331 2.503 2.586 1.53 7.282.977 7.735-3.754.062-.584-.355-.62-.596-1.082-1.223-2.338 2.723-2.355 1.813-.222zm-12.152.582c.585.058.682.317.585.948zm50.153 1.663-.847 1.13c-.201-.553-.207-1.06.847-1.13m9.214.374c-2.01.09-3.563 3.042-3.462 6.978.049 1.908.365 6.698.488 7.41.172.996-.016 2.346-.345 2.49-.87.375-1.198.617-1.433 1.059-.61 1.147-.105 2.442 1.182 3.022.92.415 2.084-.158 2.872-1.408.439-.693.541-1.002.928-2.747.178-.803.162-2.136-.042-3.359-.463-2.78-.119-6.244.781-7.87 1.613-2.917 1.584-4.827-.083-5.429a2.3 2.3 0 0 0-.886-.144zm-.105.445c2.34.009 2.277 2.488.98 3.25-.502.24-1.117.296-1.733-.132-.69-.425-.596.06.12.61.839.648 1.197.608.745 2.127-.42 1.414-.641 4.47-.411 6.207.63 4.751.098 7.12-1.785 7.944-.927.406-1.929-.166-2.186-.958-.403-1.239.315-2.302 2.086-2.005 0 0 .124-.394-.336-4.518-.64-5.736-.388-9.74.604-11.14.53-.748 1.213-1.388 1.916-1.385m15.873 5.914c-.547.005-1.136.163-1.736.523 0 0-.065 2.579-.136 2.97-.398 2.182-.28 2.441.676 2.751 2.323.75 4.23-.886 4.145-3.452-.048-1.442-1.308-2.807-2.95-2.792zm.314.345c1.27-.04 2.422 1.536 2.297 3.022-.067 1.778-1.668 2.748-3.103 2.436-.425-.068-.864-.153-1-.492-.288-.471.175-.642 1.14-.637 1.056.005 1.252-.15 1.603-.778.695-1.246-.195-2.825-1.328-2.529-.387.101-.444.287.01.422 1.39.665.872 1.594.39 1.97-.573.448-1.521-.166-1.683-.537l.097-2.407s.46-.457 1.576-.47zm-14.314 11.155s-.53.269-.785.518c-.561.55-.679 1.385-.404 2.204.122.362.102.424-.325 1.014-1.215 1.683-1.372 2.523-.749 4.04.283.69.285.69.018 1.6-1.147 3.908-3.408 8.336-5.822 11.403-.373.474-.523.959-.523.959s.565-.03.879-.197c2.494-1.318 5.129-3.872 7.579-5.547-3.874 3.339-8 6.326-8 6.326l5.27.3c-1.323 1.441-24.436 22.246-18.298 59.562 7.215-1.906 10.572-5.068 14.418-8.725.036 3.007.098 11.1.122 11.1.073-.134-3.339-1.366-2.528 1.618.483 1.637.727 5.78-.129 8.118l.328.349c-.046.106-.547.107-.547.107-1.31 2.596-4.684 3.165-6.347 3.086-.614-.061-.366.832-.285 1.155.31 1.336 1.76 4.198 4.467 8.795l.71.1-.41.404c.32.62 1.173 1.782 1.173 1.782l.038.395s1.485 2.196 2.282 3.228l.234-.027c.441.565.972 1.198 1.422 1.76l-.034.246c.847.98 2.512 2.962 2.512 2.962l.33-.084 1.31 1.566c10.858-5.245 22.205-16.85 22.087-16.824l.093-24.975-12.857-.04-.055-33.085 12.843 13.488-.084-3.87c-2.913-2.943-14.62-15.492-14.62-15.492q2.555-.378 4.953-1.763c2.793 1.632 5.779 2.613 9.2 2.13l-.014-3.67c-3.884-.008-6.293-1.375-8.036-3.027l-2.398-.085c-4.43 3.58-7.563 1.918-10.932 1.215l-2.329-3.562 23.855-.13-.171-8.647-3.622.085-2.353-1.848 2.73 1.226s-.044-.477-.59-1.382c-1.47-2.552-3.336-6.308-4.455-9.584-.542-1.664-.54-1.596-.084-2.57.627-1.34.492-2.961-.335-3.874-.582-.643-.563-.78-.373-1.259.775-1.897-1.094-2.595-1.101-2.474-3.996 1.636-9.355-.049-9.26-.1zm9.294.688c.798-.007.885.365.882.997-.068 1.157-1.486 1.575-2.126 1.737-3.066.745-8.41.304-8.757-1.215-.255-1.116.4-1.735 2.576-1.181 3.498.798 5.663-.06 7.426-.337zm-9.894 3.223c.318-.003.7.341.809.903.093.48-.377 1.893-.77 2.218-.975.807-1.855-.447-1.204-1.81.375-.787.756-1.31 1.164-1.311zm10.458.159c.146.004.406.036.576.163.772.58.843 2.587.121 2.877-.735.296-1.417-.518-1.412-1.796.004-.783.279-1.256.715-1.244m-2.45.414q.237-.013.494.111c.643.315.955 2.421.317 3.092-.494.521-1.558.493-1.868-.588-.371-1.292.208-2.57 1.056-2.615zm-5.435.06c.942.007 1.156 2.231.234 3.147-.772.767-1.949.012-1.58-1.507.184-.76.608-1.587 1.346-1.64m2.677.355c1.379.25 1.262 3.835-.543 3.478-1.029-.762-1-3.425.543-3.478m-6.027 3.84 1.948.194s-2.522 5.798-4.828 8.014c-.862.928-1.36.967-.705-.022 1.446-1.898 3.584-8.185 3.584-8.185zm11.681.038c1.139 3.224 2.306 6.496 3.86 9.792-2.361-2.417-4.452-6.133-6.38-9.622zm-9.16.311 1.29.015c.429 2.088 1.172 3.42 2.045 4.563.756-1.357 1.234-2.847 1.698-4.437l1.025-.015c.393.249-1.206 6.541-2.771 7.307-1.658-1.43-3.056-5.296-3.287-7.433m-.545 1.489c-.108.15 2.004 5.541 3.79 7.27 1.683-1.736 2.757-4.023 3.478-6.749l5.54 8.259-5.4-3.926c-1.08 1.903-2.224 3.718-3.598 5.23-1.482-1.703-2.765-3.724-4.11-5.645-2.083 1.64-3.545 3.392-6.25 4.922.011.064 5.3-6.06 6.55-9.362zm-.52 5.87 3.77 4.892-10.033-.152zm8.162.078 6.33 4.63-9.433.103zm-50.44 2.277s.053.294.115.47c1.124 4.87 4.223 8.918 8.886 8.437L74.163 93.277s-2.531-9.124-7.66-18.477c0 0 .937.205 1.667.356.685.11 1.205.076 1.719-.066.392-.062.692-.335 1.042-.415.59-.132 1.333.094 1.725.24 1.053.212 1.77-.414 3.09-1.651.35-.33.484-.25.926-.248 1.652.004 2.706-1.501 2.52-3.837l-.083-1.037-.21 1.166c-.394 2.2-.67 3.148-2.719 3.24-.496.023-.683.378-1.467 1.093-1.1 1.002-1.875 1.088-2.653.696-.795-.4-.869-.164-1.618.215-.859.434-2.108.383-3.235.04-1.573-.478-1.38-.318-1.38-.318 9.108 17.223 12.309 33.742 12.107 48.416-.288 20.908-7.173 37.783-13.213 47.956 0 0 1.036-.111 1.96-.256.445-.131.787-.004 1.227.16.41.153.72.145 1.122.095.314-.038 1.082.007 1.576.081 1.12.171 1.195.015 2.416-1.244 3.464-3.574 3.238-3.441 5.748-3.355 3.766.13 6.777 2.769 8.032 7.048.159.54.366 1.3.395 1.3l-.244-1.134c-1.103-5.737-5.721-7.836-9.576-7.759L93.65 148.25c-.083.016 3.771 13.187 7.129 19.058.005.04-1.019-.468-2.89-.21-1.018.14-2.157-.003-2.797-.119-.822-.022-1.324.236-2.349 1.133-.426.388-.81.812-1.642 1.185-1.979.888-2.768 1.806-2.778 4.11-.002.42-.062.956-.056 1.164l.01.154c.033 0 .08-.086.12-.146.098-.154.297-.571.451-1.536.275-1.724.616-2.327 2.153-3.09.46-.23 1.432-.855 1.863-1.22 1.417-1.2 1.889-1.473 3.039-1.19.654.163 1.21.246 2.088.133 1.043-.134 1.105-.19 2.221.115a37 37 0 0 0 1.695.408c-15.771-33.646-15.25-64.837.315-96.484 0 0-4.608.058-4.803.185-.074.048-.634-.005-1.245-.122-1.254-.24-.98-.08-3.94 3.08-3.658 3.908-9.51.791-11.273-5.766a3 3 0 0 0-.31-.792 2 2 0 0 0-.16-.207zm14.91 3.848c.677.077 1.182.266 1.098.94L74.776 95.478l-.339-1.455zm4.58.137c-.267.56-.993 1.263-1.31 1.793l1.181 1.563-.655 1.26-1.817-1.622-3.458 3.625 2.883 3.437-2.73 2.925-.91-1.092 1.443-1.604-2.241-2.229-3.95 4.078 3.217 3.473-2.36 2.404-.94-.948 1.237-1.452-2.098-2.303-3.678 3.985 2.91 3.44-2.248 2.37-.997-1.073 1.08-1.196-2.082-2.315-3.747 3.926 3.04 3.504-2.235 2.122-.787-.885 1.08-1.233-2.042-2.322-2.325 2.24-.387-1.536 23.001-24.272zm1.325.36-.97 2.067-.749-.874.976-1.067zm-54.25.133c-.596.154-14.292 8.258-22.088 17.155l-.024 3.314-.29.396.14 5.13.195.273.066 2.093-.31.552-.004 5.744.415.074.066 7.029 12.807.037-.014 33.583s-7.52-8.782-12.936-13.966l.021 3.926 14.327 15.725c-.985.147-2.267.4-4.2 1.532-4.649-3.084-10.023-2.14-10.023-2.14l.022 4c3.417-.35 6.5.146 10.092 2.715 2.957-2.13 6.52-3.425 11.832-1.733 1.169 1.966 2.337 3.995 3.506 5.314l-25.367.2.031 8.1c1.125.024 3.94 0 3.94 0 1.426 2.97 4.23 7.024 5.395 12.124-1.599 2.04-1.47 3.68.084 5.735-.014.926-.276 1.95.704 2.981 3.227-1.676 6.872-.932 9.583-.076.92.29 1.266-.822 1.235-2.222-.082-.802-.078-1.144.502-1.678 1.38-1.27.523-3.882.307-3.94-.08-2.29 6.827-13.761 6.832-13.55l-1.377.53-5.905.028c15.532-15.91 22.024-34.059 20.665-54.553-.303-5.163-1.06-7.529-1.06-7.529-5.47 2.582-9.967 4.46-14.334 9.43l-.29-10.681c.243.506 1.865.972 2.59.326.497-.346.547-.715.088-2.011-.667-1.882-.826-5.918-.328-7.289.058-.16.108-.585.15-1.003.057-.562-.06-.594-.108-.585.127-.033.662.082.725.022 1.867-1.744 3.868-2.834 6.324-2.948l.063-1.274c-1.822-4.885-3.364-6.801-5.013-9.532 0 0-.468-.165-.764-.1l.38-.426c-2.314-3.9-5.607-7.451-8.635-10.822zm-.102.663 1.642 1.61C40.76 78.847 33.03 84.71 25.416 92.66l.104-2.923c8.605-8.595 15.096-12.725 21.433-16.502m50.321 2.922.987 1.044-1.367 1.685.889.963-.495 1.285-2.273-2.508zm-48.916.133c.516 0 .934.445.934.993s-.418.992-.934.992-.934-.444-.934-.992.418-.993.934-.993m67.05 1.371c15.973 18.886 7.77 46.333-13.55 52.926l-.237-1.551c21.51-7.697 26.557-33.449 12.598-49.638zm-64.282.126 1.018 1.252c-9.107 4.618-17.99 11.54-26.574 21.528l-.084-2.522c8.063-9.005 16.684-15.519 25.64-20.258m-5.875.386c.516 0 .935.444.935.992s-.419.993-.935.993c-.515 0-.934-.445-.934-.993s.419-.992.934-.992m-2.844 1.866c.516 0 .934.444.934.993s-.418.992-.934.992-.934-.444-.934-.992c0-.549.418-.993.934-.993m9.472.652c.516 0 .934.444.934.992 0 .549-.418.993-.934.993s-.935-.444-.935-.993.419-.992.935-.992m40.574.685.934 1.048-1.482 1.577 2.11 2.341 2.028-2.074-1.018 3.09-17.887 18.99-.373-1.992 1.409-1.503-2.158-2.288-.38-1.526 2.123-2.111.889.97-1.241 1.521 1.997 2.09 3.63-3.548-2.995-3.492 2.472-2.54.854.884-1.181 1.293 2.081 2.396 3.723-3.789-3.057-3.432 2.458-2.574.93.944-1.237 1.577 2.116 2.174 3.646-3.826-2.998-3.348zm-52.835.667c.516 0 .934.444.934.992s-.418.993-.934.993-.934-.445-.934-.993.418-.992.934-.992m14.732.192.71 1.256c-10.84 5.818-18.337 11.645-29.432 25.035v-1.685c8.565-11.172 17.47-18.374 28.722-24.606m-5.446.149c.516 0 .934.444.934.992s-.418.993-.934.993-.934-.445-.934-.993.418-.992.934-.992m83.878.38c1.913 1.808 5.929 3.61 8.516 3.419l.07 2.174c-4.514.455-8.458-2.615-8.458-2.615-3.477 2.252-7.016 2.537-10.705 1.56l-1.419-3.23c5.472 2.695 10.604.124 11.996-1.307m-21.603.59c.2.392.875.848.875.848 4.21-1.165 5.523 3.447 3.56 6.081l.56 1.933c.752.145 1.411.425 1.946.819 1.025.754 1.588 2.061 1.46 3.433.144 1.486-1.95 2.87-2.063 2.766l-.028 2.126c.589.52 1.298 1.025 1.75 1.763 1.007 1.795.607 3.603-.944 4.74-.924.663-1.926.75-1.966.682l-.973 2.414c.857.514 1.097 1.388 1.231 2.011.29 1.354-.603 3.116-1.725 3.767-1.418.822-3.348.091-3.347.093l-1.38 1.466c.355 1.271.452 2.029.264 2.774-.465 1.845-2.285 2.569-3.747 2.43-1.148-.109-2.012-1-2.012-1l-1.53.622c.043 0 .023 2.06-.749 2.69-.243.266-1.105.859-1.105.859l-.202-1.418c.606-.464.983-1.589.86-2.411l3.306-1.719c0 .127.904 1.06 1.523 1.192 1.269.275 2.594-.777 2.597-2.014.002-.722-.39-1.213-.502-1.797l2.807-3.085c1.16.424 1.976.496 2.496.178.98-.601 1.245-1.842 1.056-2.589-.223-.882-.964-1.453-1.014-1.536l1.565-4.204c.73-.003 1.181-.125 1.75-.518 1.16-.81 1.011-2.383.516-3.13-.601-.909-1.475-1.077-1.544-1.055l.116-4.366c0 .035 1.583-.808 1.753-1.782.25-1.434-.319-2.346-1.977-2.752-.92-.225-.871-.037-.871-.037l-1.311-3.951c2.077-1.346 1.418-3.485.366-4.204-1.11-.757-2.677-.055-2.677-.055s-.714-.752-1.255-1.359zm-55.588.8c1.365 1.95 3.676 5.856 4.968 9.35.056.154.027.927.027.927-3.685.34-4.951 1.875-6.26 2.955-1.016-.553-1.444-1.203-3.281.019-.006.058-4.683-3.005-5.578-7.163 3.344-2.189 6.53-4.273 10.124-6.089m-18.71.025c.516 0 .935.445.935.993s-.419.992-.935.992-.934-.444-.934-.992.418-.993.934-.993m8.859.197c.515 0 .934.444.934.992s-.419.993-.934.993-.935-.445-.935-.993.419-.992.935-.992m63.934 1.218c1.61 2.252 4.038 6.51 4.615 10.281.812 5.304.272 10.868-2.018 14.759-4.154 8.31-11.357 10.08-11.36 10.37l-.074-1.704c.067.383 5.505-2.05 9.206-7.544 2.285-3.723 3.583-9.044 3.142-13.196-.275-5.983-4.272-11.5-4.305-11.521zm-75.707.811c.516 0 .934.445.934.993s-.418.992-.934.992-.934-.444-.934-.992.418-.993.934-.993m8.847.015c.516 0 .934.444.934.992 0 .549-.418.993-.934.993s-.934-.444-.934-.993.418-.992.934-.992m79.768 1.674c2.074.238 4.61 4.231 6.917 6.511l.024 32.553-6.892.148c-.898 2.29-2.98 4.554-6.296 6.789l-.003-12.199c11.31-12.87 8.232-26.959 6.25-33.801zm-91.153.37c.516 0 .934.445.934.993s-.418.992-.934.992-.934-.444-.934-.992.418-.993.934-.993m8.516.178c.516 0 .935.444.935.993s-.419.992-.935.992-.934-.444-.934-.992c0-.549.418-.993.934-.993m87.496.078 14.091 15.091-.049 2.215-15.879-17.14zm-82.33 1.418.373 1.896c-.455-.76-.473-1.04-1.262-1.174zm-7.627.552c.516 0 .934.445.934.993s-.418.992-.934.992-.934-.444-.934-.992.418-.993.934-.993m-8.44.278c.516 0 .934.444.934.992s-.418.993-.934.993-.934-.445-.934-.993.418-.992.934-.992m79.276 0 2.782 2.092-.907 3.774-2.848-2.718zm-64.286.307.495.311-.576 2.582-6.404 2.455c2.06-1.868 4.176-3.904 6.484-5.348zm1.05 1.2c.455 1.913 1.442 4.742 2.653 7.139-.822.451-3.776 2.227-3.77 3.053.418 1.497 3.539 2.87 3.539 2.87a38.7 38.7 0 0 0-3.228 7.203c-.534-.964-.596-4.769.554-6.351-1.133-.475-2.684-1.56-3.863-2.681.76-2.857 4-4.564 4.142-4.585-.057.144-.957-5.968-.028-6.647zm-10.396.481c.516 0 .934.444.934.993s-.418.992-.934.992-.935-.444-.935-.992c0-.549.419-.993.935-.993m71.324.081c4.157 8.227 1.684 15.374-4.946 20.495l.153-1.94c4.575-3.527 7.539-10.468 4.197-17.088zm-79.217.237c.516 0 .935.444.935.993s-.419.992-.935.992-.934-.444-.934-.992c0-.549.418-.993.934-.993m66.496.052c-3.05 12.08-2.974 17.616-3.329 20.892l-11.842.107-.46-4.355zm-47.309.333s2.57 2.533 4.874 4.745l-.276.577-2.241.318c-1.715-3.588-2.357-5.64-2.357-5.64m-2.126 1.326.018.004.143 1.8c-.77-.031-9.097 3.664-15.496 9.565.954-1.785 2.562-3.496 4.118-4.956 3.308-3.45 11.217-6.414 11.217-6.414zm-11.838.41c.516 0 .934.445.934.993s-.418.993-.934.993-.935-.445-.935-.993.419-.992.935-.992m5.243 1.13.474.519-2.21 1.215zm15.408.53.094.004c.342.046.484.218.68.392a4.7 4.7 0 0 0-1.263-.126.68.68 0 0 1 .488-.271zm-8.457.374.201 1.344c-4.791 2.894-10.492 5.63-18.786 13.96v-2.772c5.205-5.123 11.276-9.419 18.584-12.532zm6.445.126c.3.078.566.082.837.011 0 0-.174.366-.38.374-.217.009-.457-.385-.457-.385m2.033.078c.602-.04 1.013.546.892 1.3-.463 2.555-.445 5.143.052 6.952.388 1.41.485 1.904.164 2.14-2.825 2.069-4.374-7.26-2.015-9.907.32-.32.633-.467.907-.485m-23.068.326c.516 0 .935.445.935.993s-.419.992-.935.992-.934-.444-.934-.992.418-.993.934-.993m81.18.23 1.757 3.129-2.447 2.91-1.489-3.38zm-60.462 1.7-.091 1.08c-1.262.407-2.362.984-3.308 1.837-.183.167 2.923 1.656 3.249 1.311l-.007 1.152c-.043.378-5.136-1.34-5.48-2.622.578-.853 3.8-2.836 5.637-2.76zm-23.176.573c.516 0 .935.444.935.992 0 .549-.419.993-.935.993s-.934-.444-.934-.993.418-.992.934-.992m13.89 1.14c-.362.729-.897 1.698-1 2.758-3.493 2.25-7.077 4.352-11.436 9.516l-2.35-.015-.052-.655c4.765-4.826 9.924-8.99 14.838-11.604m9 .312.024 1.359c-.813.01-1.256-.27-1.862-.597.51-.342.906-.682 1.837-.762m26.288.144.655.73-.408.407zm-35.398 2.825 1.293.856c-3.33 1.845-6.835 4.573-9.868 8.136h-2.563c3.236-3.726 6.722-7.068 11.138-8.992m68.996.982.258 3.696-3.249 1.892.063-3.9zm-61.787.015 2.235.26.23 1.003c-1.875 1.267-3.503 2.752-5.065 4.296a21.5 21.5 0 0 1 2.6-5.56m-5.358.396.959.47-.38 1.737c-2.738 1.293-4.92 3.04-7.255 5.392H33.49c2.302-2.62 6.13-5.919 9.304-7.599m8.314 1.633.01.004.35 11.392c-9.652 12.004-9.128 23.612-6.314 34.138l-1.84-.089c-2.14-2.824-4.986-5.699-4.986-5.699l-.007-33.139 6.655.026c1.57-3.857 5.885-6.601 6.132-6.633m-7.857 1.6.08 1.52a19.5 19.5 0 0 0-3.548 2.847h-2.5c1.728-1.708 3.443-3.428 5.968-4.366zm22.691.745.366 1.792c-22.402 8.609-26.45 33.636-13.229 50.816l-.9 1.066C37 146.61 43.662 118.318 65.943 110.254m-22.512 1.792s.122 1.373.16 1.83h-2.51c.564-.704 1.065-1.433 2.349-1.83zm63.041.574-1.443 3.574-3.852.063 1.75-3.574zm-24.384 2.448h3.51v3.563h-3.51zm-15.193.352.06 1.566c-1.56.844-1.167 2.184-1.559 2.163-.958.257-3.486 1.681-3.486 1.681-.896-.863-2.104-.645-2.667-.226-.779.542-.95 1.803-.728 2.87l-2.681 3.33c-1.295-.589-2.557-.552-3.186.366-.71 1.035-.441 2.32.731 3.759l-1.46 3.98c-.168-.238-2.613.525-2.646 2.068-.035 1.632 2.021 2.697 2.019 2.821l-.098 4.392c-.093-.211-2.098.659-1.827 2.762.25 1.938 2.734 1.702 2.785 1.863l1.35 4.203c-.091-.128-1.829 1.68-.764 3.389.888 1.425 3.466.503 3.444.41l.715 1.071-.791.91s-.342-.434-.534-.395c-1.5.305-3.177-.061-3.98-1.333-1.095-1.796.127-4.601.516-4.578l-.928-2.422c-1.69-.035-3.12-1.638-3.197-2.982-.16-2.812 2.014-3.989 2.018-3.97l.063-2.622c-.133.157-2.147-1.361-2.099-3.103.036-1.273 1.045-2.771 2.287-3.374l.92-.463.84-2.148s-1.189-1.826-.881-3.666c.572-2.787 3.991-2.596 4.532-2.326l1.586-2.111c-.781-1.926.568-4.161 2.332-4.525.784-.134 2.98.418 2.98.418l2.033-1.115c-.035-1.18 1.177-1.948 2.3-2.666zm11.556 3.9h3.008v3.562h-3.008zm8.014 0h3.392v3.562h-3.392zm-19.326.893-.038 1.363c-19.423 10.004-11.48 30.717-8.708 33.127l-.624 1.463c-3.408-2.202-12.194-26.103 9.37-35.953m14.948 3.607h3.65l.031 3.663h-3.65zm-15.792 1.782-1.158 3.337-3.566.318 1.318-3.33zm72.872 2.44 2.44.015c-4.562 5.668-9.485 9.532-14.345 11.648 0 0-.017-.505.132-.904.119-.317-.073-1.115-.073-1.115 5.402-2.826 9.112-6.109 11.845-9.644zm-12.505.049c-.627.801-1.344 1.508-2.234 2.031l-.352-2.064c.746-.01 2.586.033 2.586.033m4.296-.045c.246.66-6.404 4.475-6.429 4.15l.017-1.268 3.59-2.83zm1.436 0h.014l1.872.011c-1.691 2.833-10.634 7.978-10.262 7.253l.36-2.072c2.884-1.347 5.5-3.179 8.016-5.193zm3.155 0 2.463.011c-3.706 5-7.465 6.825-11.072 8.976-.216-.034-.119-.12-.794-.1l-1.234-1.022c.23.225 8.288-4.793 10.636-7.866zm-68.923.178-.083 1.51c-5.185 4.737-7.264 10.79-4.567 17.815l-.642 1.5c-2.9-7.496-2.044-14.78 5.292-20.824zm23.608.237.275 4.078-16.095 16.643c2.45-9.299 3.128-14.912 3.786-20.7zm51.541.959.008 2.263c-6.346 7.425-12.742 10.753-18.267 12.099l-.126-.87 2.559-1.675c8.244-3.815 11.855-7.656 15.826-11.817m-19.258.06c.111 1.636-1.26 4.723-2.826 6.466l-2.683-.007-.297-1.238c2.225-1.274 4.287-3 5.807-5.22zm.81.488c.986 1.686-.493 6.046-.554 5.874-.118.301 8.433 2.22-.352 6.715.191 1.32 1.015 4.139.38 5.88-.198-.667-1.727-5.19-2.908-6.347 2.743-.83 4.718-2.613 4.504-3.2-.446-.836-1.674-1.862-3.74-2.614 1.758-2.594 2.281-4.54 2.67-6.307zm-62.8.826.274 3.436-3.123 1.996-.24-3.773zm54.34 3.192c.243.004.473.07.585.2 1.543.664 1.655 8.66.255 9.474-1.017.679-1.733-.413-1.697-.607.674-3.68.253-5.954-.028-8.525.03-.375.479-.547.885-.542m26.908.119v2.844c-9.07 9.989-18.844 17.863-28.822 22.284l-.91-1.64c12.118-5.953 22.252-14.446 29.732-23.488m-1.593.26c-4.202 6.213-9.32 10.269-16.332 12.11l-.133-1.763c8.733-2.108 16.691-10.347 16.464-10.347zM25.84 135.372c5.472 5.943 11.079 11.832 16.65 17.932l-2.214.123-14.502-15.984zm65.14.296.195 1.467-1.593 1.855 2.517 2.874.129.678-2.161 2.4-.976-1.026 1.195-1.426-2.03-2.267-3.76 3.844 3.099 3.574-2.34 2.362-.92-1.01 1.196-1.467-2.078-2.33-3.834 4.051 2.9 3.403-1.934 2.275-.917-1.026.994-1.211-2.102-2.3-3.685 3.77 3.033 3.562-2.464 2.607-.955-.985 1.384-1.6-2.273-2.3-1.823 1.829s.688-1.815.788-2.123c.147-.45.751-.807 4.584-4.825 4.575-4.838 9.268-9.372 13.833-14.658zm26.243.978c1.337.024 3.612.366 4.716.985 2.05 1.149 1.405 2.053.074 2.726-1.592.806-2.898 1.2-4.696 1.255l.052-.937c1.045-.268 2.128-.538 3.05-1.081.635-.374.799-.674.799-.674s-.619-.668-1.604-1.048c-.72-.278-1.75-.276-2.31-.374zm-59.849 1.237 1.684 2.682-1.994 3.551-1.914-3.063zm33.964.289c.06.505.662 2.469.345 2.089l-1.119-1.338zm25.989.263c.931.083 1.91.113 2.59.463-.789.65-1.682.794-2.573.956zm23.36 1.34c.562 0 1.018.485 1.018 1.082s-.456 1.081-1.018 1.081-1.018-.484-1.018-1.081.456-1.081 1.018-1.081m-52.534 1.874.868.893-1.122 1.388 2.036 2.278 2.52-2.508.334 1.593-23.614 24.683-1.31-.1 1.502-1.885-1.709-1.855.701-1.334 2.015 1.904 3.692-3.751-2.99-3.344 2.558-2.79.966.886-1.468 1.688 2.137 2.32 3.862-4.038-3.022-3.492 2.413-2.445.885.893-1.122 1.263 2.203 2.437 3.255-3.6-2.962-3.466 2.631-2.722.81.859-1.214 1.437 2.213 2.433 3.552-3.877-2.924-3.37zm50.17.645c.563 0 1.019.484 1.019 1.081 0 .598-.456 1.082-1.018 1.082s-1.018-.484-1.018-1.082c0-.597.456-1.081 1.018-1.081m-19.194.048c1.604 2 2.569 4.227 2.761 6.622a19.7 19.7 0 0 0-5.048-5.488l.367-1.004zm22.646.163v2.415c-7.155 8.61-15.838 15.1-24.755 19.617l-1.516-1.959c10.545-5.002 18.176-11.213 26.27-20.073m-10.525 1.685-2.9 2.392-.004-1.037zm-14.948.178c2.47 1.28 4.54 3.444 5.773 6.651-3.372 2.248-7.071 4.069-10.597 5.881-1.694-2.896-3.397-5.61-4.734-9.339 5.438-.042 6.93-3.199 6.968-3.223 1.311.526 1.586.59 2.59.03m19.54.47c.507.01 1.014.423 1.032 1.04 0 .598-.456 1.082-1.018 1.082s-1.018-.484-1.018-1.081c.11-.746.557-1.05 1.004-1.041m-7.526.711.006 1.044c-1.388 1.293-4.086 3.385-4.086 3.385l-1.115-.064.362-2.962c1.69-.362 3.327-.886 4.832-1.404zm-71.036.122 2.664 2.326-.817 3.608-2.621-2.115zm35.767.682.247 1.044-21.882 22.98-1.244-.215zm40.368.889c.563 0 1.018.484 1.018 1.081s-.455 1.082-1.018 1.082-1.018-.485-1.018-1.082.456-1.081 1.018-1.081m8.08-.007c.12 0 .262-.01.262.11v1.99a1 1 0 0 1-.341.063c-.562 0-.938-.485-.938-1.082s.456-1.081 1.018-1.081m-2.469 2.41c.562 0 1.018.485 1.018 1.082s-.456 1.081-1.018 1.081-1.018-.484-1.018-1.081.456-1.082 1.018-1.082m-8.554.011c.563 0 1.018.485 1.018 1.082s-.455 1.081-1.018 1.081-1.017-.484-1.017-1.081.455-1.082 1.017-1.082m-7.358.333 1.045.038-1.945 1.23c.357-.476.69-.839.9-1.268m18.657.506.014 2.224c-5.005 5.315-11.326 10.829-20.99 16.143l-1.231-1.325c7.88-3.992 15.274-9.586 22.207-17.042m-14.213 1.213c.562 0 1.018.484 1.018 1.081s-.456 1.082-1.018 1.082-1.018-.485-1.018-1.082.456-1.081 1.018-1.081m9.05.08c.562 0 1.018.485 1.018 1.082s-.456 1.082-1.018 1.082-1.018-.485-1.018-1.082.456-1.081 1.018-1.081m-101.375 4.34c3.453-2.129 6.23-2.379 10.186-1.737l1.181 2.478c-3.852-.725-7.911-.66-11.382 2.185-3.596-2.414-6.33-3.111-9.282-2.72l-.054-2.611c3.85-.572 7.304.83 9.35 2.404zm89.518-2.355c.562 0 1.018.484 1.018 1.081s-.456 1.082-1.018 1.082-1.018-.485-1.018-1.082.455-1.081 1.018-1.081m9.307.444c.562 0 1.018.484 1.018 1.082 0 .597-.456 1.081-1.018 1.081s-1.018-.484-1.018-1.081c0-.598.456-1.082 1.018-1.082m-12.368 1.615c.562 0 1.017.484 1.017 1.081 0 .598-.455 1.082-1.017 1.082-.563 0-1.018-.484-1.018-1.082 0-.597.455-1.081 1.018-1.081m9.49.627c.562 0 1.018.484 1.018 1.081s-.456 1.082-1.018 1.082-1.018-.485-1.018-1.082.456-1.081 1.018-1.081m-12.628 1.284c.57 0 1.032.49 1.032 1.096s-.462 1.096-1.032 1.096-1.032-.49-1.032-1.096.462-1.096 1.032-1.096m9.907.908c.562 0 1.018.484 1.018 1.08 0 .598-.456 1.082-1.018 1.082s-1.018-.484-1.018-1.081.456-1.081 1.018-1.081m-12.922.748c.562 0 1.017.484 1.017 1.081 0 .598-.455 1.082-1.017 1.082-.563 0-1.018-.484-1.018-1.082 0-.597.455-1.081 1.018-1.081m-45.002.978 2.531 2.463-2.618 2.793-.958-.978 1.457-1.619-.986-1.411zm55.115.24c.563 0 1.018.483 1.018 1.08s-.455 1.082-1.018 1.082-1.017-.484-1.017-1.082c0-.597.455-1.08 1.017-1.08m-2.93 1.83c.562 0 1.018.484 1.018 1.081s-.456 1.082-1.018 1.082-1.018-.485-1.018-1.082.456-1.081 1.018-1.081m-3.185 1.837c.562 0 1.018.484 1.018 1.081s-.456 1.081-1.018 1.081-1.018-.484-1.018-1.08c0-.598.456-1.082 1.018-1.082m-52.35 3.06.826.714-1.297 1.66-.99-.016zm-15.99 4.473c-2.886 1.516-4.257 2.477-6.268 4.336l-2.883-4.247zm-19.63.03 7.683.114-2.556 3.84c-1.685-1.886-3.393-3.168-5.127-3.954m9.15.418c.834.282 3.012 3.58 4.037 5.382 2.185-1.847 4.325-3.909 6.658-5.018-2.775 3.113-5.21 6.333-6.944 9.447-.492-1.404-1.86-5.424-3.591-7.17-2.73 2.709-3.81 5.978-3.81 5.978a52 52 0 0 0-5.285-7.814c-.34-.486 2.49 1.382 5.292 4.277.788-2.11 2.9-4.998 3.643-5.081zm-9.227 2.074c1.32 1.114 4.908 6.003 5.32 8.944l-1.718.114c-.914-3.02-2.45-6.038-3.602-9.059zm19.107.5c-1.299 2.83-2.91 5.722-4.068 8.855l-1.697-.078c1.86-4.317 2.537-5.108 5.765-8.778zm-9.736 1.26.042.01c1.613 2.34 2.375 4.613 2.855 7.381l-1.248-.052s-.87-2.778-1.468-3.759c-.387-.6-.696-.523-.969-.026-.615 1.175-.846 2.351-1.192 3.63l-1.437-.11c-.265-2.098 2.913-7.02 3.417-7.074m-.227 8.062c.583.008 1.194.68 1.189 1.86.045.554-.36 1.78-.799 1.843-.813.458-1.776-.967-1.533-2.156.206-1.013.628-1.554 1.143-1.547m-2.826.224c1.153.109 1.402 2.856.934 3.418-.536.565-1.956.164-2.09-.815-.463-1.247.38-2.591 1.156-2.603m5.685-.017c1.255.187.939 3.204.29 3.647-1.01.567-1.78-.382-1.438-1.799.274-1.142.684-1.821 1.148-1.848m2.904.5c1.438.17.607 2.826-.022 3.367-.912.756-1.793-.374-1.356-1.723.34-1.045.904-1.652 1.377-1.644zm-11.611.081c1.046.178 1.652 2.694 1.03 3.412-.326.412-1.272-.19-1.704-.879-.52-.828-.032-2.537.674-2.533m11.139 5.479c.124 1.32-.813 1.32-3.516.677-1.365-.326-3.784-.12-5.02.118-2.08.4-2.374.248-2.37-.652.004-1.044 1.17-1.636 3.868-1.724 1.931-.064 6.738-.084 7.038 1.58m4.202-.775c-3.218.322-4.074 4.605-3.72 6.188.283 2.646.163 5.416-.316 7.236-.344 1.308-.65 2.7-1.203 3.885-.847 1.79-.628 3.12.627 3.833 1.031.587 2.3.386 3.096-.522 1.438-1.641 1.61-5.125.729-13.029-.312-2.788-.144-3.345 1.13-3.188 2.673-.022 2.566-4.4-.342-4.404zm-.387 3.6c-.72-.296-1.207.399-1.112 2.129.025.768.153 1.63.245 2.318 1.04 7.583.65 12.663-1.541 12.914-1.909.325-3.2-1.168-2.27-2.711.528-.874.982-.993 2.008-.534 1.41.93 1.057-.424-.212-1.422-.815-.612-.877-.612-.44-2.526.59-2.581.789-4.423.572-7.688-.304-2.31.422-5.374 3.19-5.554 2.798-.09 1.954 4.132-.44 3.073zm-19.755 9.988c.91.467 1.797.387 2.663.008.339-1.612.36-2.954 1.38-5.146-1.7-1.809-4.564-1.098-5.37.798s-.056 3.631 1.328 4.34zm2.73-5.597c1.03.233.876 1.384-.094 1.008-2.314-1.157-4.2 2.326-2.333 3.637.953.566 1.374.24.429-.537-.388-.473-.29-.666-.056-1.14.485-.958 2.247-.803 2.123-.108-.401 2.205-.666 2.842-1.29 2.848-3.592.196-4.27-6.948 1.22-5.708zm30.52 3.967s-10.704 12.856-15.859 19.44l64.614-.318-12.295-18.02c-10.548 2.586-22.94 1.839-36.46-1.1zm-.321 4.108c1.614.019 3.45 1.264 5.037 5.414.086.039 7.107-11.326 13.184.44.993-2.64 6.718-9.53 13.335-.689 2.35-5.917 7.77-3.915 8.279-1.852-.114-.444-5.165-1.718-7.353 2.204-.404.83-.424 1.618.039 2.085 1.092 1.1-.097 2.678-1.341 1.78-.485-.349-.547-1.083-.175-1.613 1.099-.87-1.151-3.575-3.002-4.55-2.539-1.336-6.08-.746-7.783 1.172-.915 1.031-1.475 1.957-1.609 2.698-.07.343-.027.523.164.752.739.947.252 2.242-.747 2.085-1.31-.206-1.134-1.506-.259-2.217.269-.14.167-.307.086-.55-2.39-7.15-11.298-5.789-12.261-.837-.036.18-.112.369-.073.554.1.473.36.873.26 1.246-.408 1.52-2.199 1.084-2.28-.176-.036-.573.546-.745.83-1.268.171-.328.25-.73.086-1.093-2.415-5.373-6.558-4.249-8.614-3.035-.044.026 1.838-2.579 4.197-2.552zm-2.677 3.115c.882-.034 1.686.428 2.436 1.352 2.53-1.422 4.329 1.039 4.03 1.277-3.583-2.47-4.745 3.286-1.215 3.068-1.552 3.41 3.988 4.87 3.367.513 3.42 1.267 3.983-3.72.52-3.644 1.119-2.059 4.023-1.492 5.252-.202 1.444-1.874 4.992-.088 5.344 1.514-3.978-2.165-4.379 4.453-.526 3.045-1.141 4.212 4.985 3.612 3.29-.019 3.816 1.333 3.297-4.724-.452-3.496-.227-.314 2.964-3.815 5.285-.526.314-.58 3.937-2.477 5.919.504-4.296-1.544-3.483 4.6-.405 3.377-.823 4.07 4.731 3.409 3.313-.059 4.303 1.156 2.397-5.809-.627-3.237.493-2.8 4.11-1.64 4.07-1.207 0-.002 1.922-2.207 4.073-.593-3.361.3-2.218 5.115.958 3.744-.034 1.635 1.245 2.718 2.974 2.163l2.715 4.033-61.94.415 4.948-6.265c1.655 1.453 3.371.766 3.582-1.513 3.602 2.347 4.538-3.228 1.158-3.469.686-.496 1.327-.75 1.931-.774zm-3.462 1.81c.214.161-.077.936-.55.712zm48.295 1.62.498.74c.09.25-.965-.132-.498-.74"/><path d="M-73.06-57.026c-3.242 0-3.675 3.477-3.675 3.477s-.433-3.477-3.676-3.477c-2.27 0-4.324 1.559-4.324 4.5 0 3.886 6.579 7.794 8 13.5 1.352-5.702 8-9.614 8-13.5 0-2.941-2.054-4.5-4.324-4.5" style="fill:#df0000;fill-opacity:1" transform="matrix(2.29606 0 0 2.1489 220.584 152.39)"/><path d="M81.221 36.43c-3.243 0-3.676 3.477-3.676 3.477s-.433-3.477-3.676-3.477c-2.27 0-4.324 1.56-4.324 4.5 0 3.886 6.58 7.794 8 13.5 1.352-5.701 8-9.614 8-13.5 0-2.94-2.054-4.5-4.324-4.5" style="fill:#df0000;fill-opacity:1" transform="matrix(-2.29606 0 0 -2.1489 300.385 290.828)"/></svg>