<svg xmlns="http://www.w3.org/2000/svg" xml:space="preserve" width="222.783" height="323.556" viewBox="0 0 167.087 242.667"><path d="M166.837 235.548c0 3.777-3.087 6.869-6.871 6.869H7.11c-3.775 0-6.861-3.092-6.861-6.87V7.12C.25 3.343 3.336.25 7.11.25h152.856c3.784 0 6.87 3.093 6.87 6.87z" style="fill:#fff"/><text xml:space="preserve" x=".18" y="24.825" style="font-size:28.80771637px;font-style:normal;font-weight:400;line-height:125%;letter-spacing:0;word-spacing:0;fill:#df0000;fill-opacity:1;stroke:none;font-family:Bitstream Vera Sans"><tspan x=".18" y="24.825" style="font-style:normal;font-variant:normal;font-weight:400;font-stretch:normal;fill:#df0000;fill-opacity:1;font-family:Arial;-inkscape-font-specification:Arial">Q</tspan></text><path d="M3.243-4.725C1.126-7.59 0-10.5 0-10.5s-1.126 2.91-3.243 5.775C-5.361-1.862-8 0-8 0s2.639 1.861 4.757 4.726C-1.126 7.59 0 10.5 0 10.5s1.126-2.91 3.243-5.774C5.361 1.861 8 0 8 0S5.361-1.862 3.243-4.725" style="fill:#df0000" transform="translate(11.157 40.197)scale(1.12825)"/><text xml:space="preserve" x="-166.669" y="-218.034" style="font-size:28.80771446px;font-style:normal;font-weight:400;line-height:125%;letter-spacing:0;word-spacing:0;fill:#df0000;fill-opacity:1;stroke:none;font-family:Bitstream Vera Sans" transform="scale(-1)"><tspan x="-166.669" y="-218.034" style="font-style:normal;font-variant:normal;font-weight:400;font-stretch:normal;fill:#df0000;fill-opacity:1;font-family:Arial;-inkscape-font-specification:Arial">Q</tspan></text><path d="M3.243-4.725C1.126-7.59 0-10.5 0-10.5s-1.126 2.91-3.243 5.775C-5.361-1.862-8 0-8 0s2.639 1.861 4.757 4.726C-1.126 7.59 0 10.5 0 10.5s1.126-2.91 3.243-5.774C5.361 1.861 8 0 8 0S5.361-1.862 3.243-4.725" style="fill:#df0000" transform="translate(155.692 202.662)scale(-1.12825)"/><path d="M143.058 26.959s25.366 36.665 33.969 43.172c.633.297 11.239-1.729 11.239-1.729-5.436-13.014-8.933-26.479-5.405-41.574zm14.095 57.987c-17.487 4.936-34.942 9.577-53.9 1.532l-20.704 20.003c-.172.516 26.829 12.147 27.253 10.874l-6.646 21.214 15.322 3.373 7.034-22.567s21.154-2.029 30.972-5.398c7.465-2.561 15.185-4.419 21.85-9.983-13.768-8.275-21.196-19.147-21.182-19.048ZM51.971 90.861c-6.628-4.067-11.809 4.304-6.955 8.483-.57 2.442-.764 6.076 1.598 7.673 2.171 1.372 6.22-.051 6.804-.036.042.001.105 4.395-.232 4.384-.628-.021-2.998-2.04-4.46-2.478-4.94-1.481-11.888-2.212-11.765-1.957.206.428-1.231 1.441 4.282 4.902 2.048 1.286 8.517-.162 13.669 1.463 3.139.99 6.225 2.636 7.929 1.816 2.155-.9 4.667-3.743 5.478-6.06.228-2.529-12.927 2.943-12.127 3.032l-.041-5.098c5.301.583 10.086-3.258 4.876-9.845 3.88-3.857-1.547-13.048-9.056-6.279m22.085 23.317c-13.038 13.142-39.687 37.807-39.687 37.807l.285 18.408 26.035 23.297c2.062-24.731 16.117-47.813 29.499-59.36 1.229-3.512-13.298-18.921-16.132-20.153zm92.891 4.546c-1.964 15.207-3.75 35.945-29.549 58.996 4.47 7.613 10.161 15.362 18.35 19.06.581 1.308 23.669-23.891 37.873-35.805l-.075-16.138zm-116.274 3.264c-.054.331-1.006 4.326-1.252 4.22.019.217 2.642-.974 2.938-2.069.26-.96.861-2.262.901-2.445-.591-4.112-1.709-1.191-2.587.295zm-9.658 10.631c-.937 2.263-1.814 6.421-1.491 9.126 4.619 2.312 5.874-7.305 4.632-8.225-.744-.314-2.508-.924-3.141-.902zm142.644 44.095c-.428 1.918-.338 2.487.516 2.861 1.495.655 2.167-.136 3.368-3.26.715-1.859 1.351-4.657.775-5.769-2.833-1.977-4.33 4.719-4.658 6.167zm-69.853-4.506c-.906.007-1.779.082-2.587.266-7.624 1.744-7.047 15.066-8.341 20.378-23.949 3.417-30.284 5.044-36.846 7.74-10.203 4.191-13.435 6.75-16.135 8.859 1.696-.199 20.005 16.873 20.949 19.283-1.165-3.304 35.419-11.347 54.904-3.27 2.39.856 20.594-17.667 20.019-19.733 2.363-4.137-22.945-8.784-26.137-11.368-2.619-14.095 17.68-21.815 3.623-21.405-2.558.075-6.213-.777-9.45-.751zm63.695 15.834c-.45.532-.905.815-1.492 1.439l-1.337 1.763.974 1.574 2.495-2.751zm-17.858 17.725c2.628-1.186 11.955-5.707 12.355-4.662l-.197 4.526c-1.427-.467-10.636 1.055-5.31 10.562-3.354 7.552 4.12 11.446 9.356 6.453 10.974 3.765 9.505-7.215 7.241-8.989 1.785-2.772-.458-8.674-1.575-8.694 0 0 9.576 2.159 8.64.454-.427-.778-.962-2.12-3.09-3.541-2.453-1.638-6.762-1.043-10.249-1.773-3.728-.78-6.129-2.114-9.262-2.302-4.729.431-9.144 4.583-7.908 7.966zM52.924 241.405l-13.194 3.526s4.268 9.904 5.745 18.736c1.806 10.803.363 22.548.363 22.548l38.295.194z" style="fill:#e2cf00" transform="matrix(.72325 0 0 .77347 .789 .695)"/><path d="M87.311 286.275c-16.802-23.982-32.371-46.794-53.042-71.936 0 0 .017-9.717.09-19.355l63.502 91.055zm58.823-31.334c8.325-9.034 14.63-18.663 20.227-28.499 6.38 11.329 13.763 20.559 21.916 28.179-7.994 8.08-15.245 17.326-20.987 28.946-4.667-8.879-10.72-18.144-21.157-28.626zm-24.807-7.387c-.541-4.555-1.469-10.005-2.803-14.697l11.595-10.932c-1.251 9.769-3.172 17.263-8.792 25.629m55.413-34.456c2.595 3.447-1.784 5.36-3.438 3.826-3.352-3.11 1.558-6.322 3.438-3.826M61.776 191.394c-1.924 1.233 3.457-30.054 18.229-46.223 8.985 25.735-6.868 40.164-18.229 46.223m72.875-.116-9.811-2.648 4.885-13.72s9.211 2.158 8.426 5.007c-2.557 9.275-3.5 11.361-3.5 11.361m-45.415-5.274c2.656-4.367 4.673-9.182 6.53-14.11l13.95-1.933-8.085 15.68zm59.127-19.253c-7.593-15.118 1.352-39.046 17.873-45.633-.595 15.331-5.352 30.86-17.873 45.633m-51.032-4.296c.334-5.37-.281-10.997-1.024-15.984l34.532 4.603 1.206 14.474zm25.27-22.995c1.17-4.604 2.21-8.436 4.47-12.167 2.514.08 12.712-1.597 11.412.384-2.772 3.547-4.099 9.304-5.914 12.925-1.905-.202-10.538 1.285-9.967-1.141zm-22.873-2.638c-3.492-1.232-8.268-1.577-10.125-4.277l3.633-11.511 10.759 3.301zm30.194-109.837 8.432-.08s40.514 51.839 55.699 72.012c-.506 2.053.17 19.455.17 19.455-21.508-30.268-64.3-91.386-64.3-91.386zM52.23 99.315c-2.265-2.432 1.337-4.587 2.835-2.414 1.319 1.914-1.641 3.696-2.835 2.414m45.459-8.499c.131-12.013 8.65-26.27 8.561-25.905-.099-.023 1.214 11.744 2.851 15.447-.442.652-11.01 11.212-11.412 10.459zM61.402 86.83c-6.605-12.626-14.541-22.194-21.453-28.896 8.609-8.142 15.063-18.2 21.686-28.108 5.467 10.393 12.574 19.891 20.545 28.918-7.995 7.852-15.55 18.975-20.778 28.085Z" style="fill:#d40000" transform="matrix(.72325 0 0 .77347 .789 .695)"/><path d="m32.693 24.786-.317 262.832 163.535.03-.055-262.436zm149.449 2.057c-1.329 14.543-1.561 25.939 5.985 41.022-1.363 1.429-11.631 1.835-14.867 3.527-.059.406.831 1.109.831 1.109 3.385-1.571 16.585-3.004 16.585-3.004-5.528-9.635-10.076-28.169-6.652-42.382l9.528.03-.06 70.029s.749 13.517 1.032 21.133c-5.073-6.556-11.8-15.712-16.193-22.509-5.329-7.497-11.263-16.292-17.355-24.543-1.796-2.6-4.357-5.972-6.447-9.009-3.281-4.69-5.994-8.33-9.397-13.378-3.634-5.228-7.117-9.972-11.436-16.043-3.661-5.166-3.831-5.779-3.831-5.779zm-62.572.272c6.176 10.733 17.231 14.368 20.013 15.091l1.617 2.363c-13.034-2.554-20.014-10.922-23.291-16.096-.255-.403-.226-1.328-.226-1.328zm-6.113 0c-1.708 4.053-4.099 6.382-6.365 8.836l.078-2.607c.07.163 3.393-3.524 4.537-6.229zm2.99 0s.05.692-.156 1.261c-1.309 4.226-9.435 12.247-9.201 11.045l-.083-2.069c-.036.089 6.104-5.846 7.712-10.237zm-5.909 0c-.633 1.18-2.996 4.743-3.21 3.755l.21-3.755zm18.565 0c1.024 1.482 1.954 2.566 3.031 4.082.201.289.322.63.271.76-.163.421-.65.108-1.995-1.084-2.206-1.956-3.707-3.758-3.707-3.758zm-8.218 0 1.996.005c4.133 6.865 11.549 10.517 14.117 11.316.685.755 1.423 2.135 1.71 2.441-6.922-1.875-14.677-7.727-17.822-13.762zm4.853-.029c2.201 3.177 5.651 5.404 7.594 6.924 1.045.819 2.425 2.492 2.296 2.824-4.327-1.368-9.388-6.164-11.711-9.718zm-8.484 1.966 1.203 1.915c-2.914 4.805-6.569 9.134-11.442 12.546l-.026-2.509c5.531-3.983 7.921-7.985 10.266-11.951zm1.951 2.775c3.474 4.68 10.962 11.924 22.97 14.088 0 0 .682.616 1.677 1.97 1.262 1.718 1.282 1.786 1.448 4.602.112 5.153 1.786 12.146 3.449 16.546-.206 1.094-.398 1.651-2.461 4.437-8.595 11.609-26.906 22.589-35.926 7.602-3.008-4.801-3.301-14.006-3.492-19.746l.08-.513c.217-1.042.515-.878 2.143-.432 1.651.709 3.37.136 5.117-.339 1.989-.803 2.155-.184.236 1.606-.663.619-1.475 1.566-1.39 1.52s1.201-.501 1.695-.877c1.533-1.167 1.895-.72 1.327.564-2.41 5.448-2.838 5.665.552 7.178a6 6 0 0 1 1.585 1.014c2.318 2.181 1.486 1.006.837.005-.997-1.568-.096-2.396 1.588-1.425 1.125.649 2.603 1.172 3.406.924 1.56-.508 2.036-2.216 1.573-4.097-.37-1.04-2.502-2.877-2.01-.954 1.281-.058 2.387 1.759 1.274 2.989-.84 1.133-2.338.521-4.635-.998-1.27-.954-2.811-.466-2.751.707.04.788-1.076.607-1.801-.397-.403-.558-.129-2.163.627-3.683 4.763-9.576.747-18.861-7.501-16.244-.907.288-1.725.521-1.725.521l-.045-3.663c4.736-3.3 9.76-8.563 12.154-12.907zm4.816 17.192c-1.244 1.501-.803 2.838 1.928 1.492 2.224-1.096 2.532-1.225 4.955-1.313 3.439-.124 6.526.97 10.346 3.313 2.532 1.553 2.901 1.671 2.214.698-2.045-3.914-14.133-9.856-19.443-4.19m-11.68.448c2.387.601 4.678 2.178 4.279 2.831-.144.235-.282.28-.586.121-1.746-.863-4.53-2.273-8.554-.552-.444.19-.69-.105-.688-.639.004-1.038 1.752-1.867 3.598-1.934.657-.001 1.374.033 1.951.174zm13.867 3.036c-1.423.739-1.911 1.133-2.516.803-1.444-.789-1.139-.17-.242 1.419.633 1.121.627 1.352.533 2.039-.102.747-.087.776.639 1.574 1.358 1.785 2.709 3.506 4.742 4.86.634.422 1.481.902 1.545.904.202.006.125-.155-.237-.509-2.604-2.505-4.658-4.75-2.006-3.796 3.087 1.007 6.024-.248 8.432-1.066.982-.303 2.013-.558 2.269-.558 2.224.002 2.749-.923 1.327-2.335-4.811-5.394-8.803-6.664-14.486-3.336zm11.415 1.011c.995.918 1.519 1.417 1.419 1.657-.107.257-.872-.178-2.155-.862-2.581-1.376-5.508-1.7-9.164-.644-2.839.82-2.001-.481 1.163-1.705 2.533-1.168 6.027-.819 8.738 1.555zm-26.509-1.858c2.169-.035 4.427.677 5.937 1.979 1.054.908.283 1.12-1.429.412-2.59-1.071-4.772-1.242-6.897-.247-.667.312-1.436.684-1.647.664-.355-.24-.506-.939-.199-1.434.854-.838 2.548-1.347 4.234-1.374zm35.741.744c.159.007.399.26.756.76.649.911.673 1.36.136 2.955-.657 1.947-.92 1.631-1.085-1.085-.107-1.762-.11-2.643.194-2.63zm2.151 2.935c.247-.035.536.401.998 1.303.322.629.246.818-.76 3.764a37 37 0 0 1-.828 2.223c-.31.244-.27.222-.402.053-.718-.917-.666-2.705-.048-4.849.468-1.624.723-2.449 1.041-2.495zm-19.54.223c.078-.007.559.098.559.098-.05 4.364 3.325 3.486 3.771.386 0 0 .833-.086.96.121.4.649-.529 2.516-1.918 3.126-1.014.452-2.391.342-3.214-.415-.23-.427-.928-2.048-.798-2.721.162-.393.405-.576.639-.596zm-2.011.51h.102c.331.017.572.106.703.507l.723 2.217c-.532.636-2.553-.653-2.549-1.62a1.077 1.077 0 0 1 1.022-1.104zm-13.721-.004c.51-.049.69.007.749.483.172 1.44-1.268 3.006-3.137 3.091-1.808.202-2.784-1.2-2.729-2.568.004-1.04.899-1.17.998-.348.287 2.373 2.314 2.509 3.24 1.199.35-.513.27-1.778.878-1.857zm22.202.483c.144-.006.336.048.62.145 1.865.595 1.915.883.32 1.458-1.902.685-2.026.775-1.579-.552.249-.74.323-1.038.639-1.051m-19.769.209c1.382.086 1.498 1.255.283 1.646-1.811.799-2.421.747-1.719-.432.38-.835.721-1.198 1.437-1.214zm-8.649.421c.165-.002.354.062.557.213.208.627.56 1.11.838 1.758-.284.282-.961.277-1.393-.065-.866-.687-.718-1.9-.002-1.906m43.468 1.351c.537.003 1.083.854 1.261 1.487-1.876 2.41-1.581 6.909-2.017 8.267-.378 1.105-.5.151-1.544-2.712-.421-1.156 1.702-6.901 2.193-7.029l.107-.015zm1.918 2.47c.418.238.985.786 1.085 1.647.058.5-.189 1.164-.349 1.821-.379 1.562-.891 4.514-1.075 7.241-.078 1.161-.074 2.205-.126 2.306-.565 1.106-1.754-1.87-1.653-4.239.37-1.891.576-8.517 2.118-8.776m2.65 3.4c.265.368.433.65.515.968.142.552.023 1.211-.302 2.617-.861 3.725-.736 7.74-.174 11.862.118.867-.484.433-1.395-1.061-.505-.828-.828-1.963-.983-3.303-.317-2.93.294-6.902.815-10.036.23-1.387.391-2.609 1.525-1.047zm1.429 2.267 1.506 1.816s-.643 4.176-.639 6.403c-.105.834.749 9.908 1.027 10.642-.926-1.037-1.359-1.647-2.373-2.95-.115.019-.994-8.94-.388-12.366.367-2.072.867-3.546.867-3.546zm2.364 3.609c.253-.009.574.276.978.843.365.512.542.932.562 1.569.014.465-.216.823-.223 1.652-.042 4.936.625 9.594 1.464 14.085.296 1.607-.28.951-1.233-.065-.874-.931-.889-1.285-1.356-2.608-.093-.264-1.023-9.366-1.015-10.054.033-2.828.114-4.404.44-5.082q.157-.332.383-.339zm-5.475 9.918s-1.754.903-2.213.586c-.741-2.02-3.412-7.426-3.458-8.384.047-.315 1.095-1.737 1.095-1.737 1.476 3.203 2.805 6.479 4.576 9.535m-33.006-6.493c-.529.621-1.159.362-2.434-.198-.654-.201-.553.068-1.633.63-.838.435-1.132.446-1.687.442-.732-.006-.996-.263-.998.252-.002.285-.044 1.572-.217 2.237-.235.905-.441 1.305-.312 1.462.372.341.685.133 1.47-.625 1.302-1.258 2.18-.897 3.631-.43 1.65.532 1.991.728 3.5.201 2.138-.747 3.425-.748 4.276-.206 1.467.934 1.91.879 1.305-1.675-.195-.823-.209-2.1-.329-2.321-.136-.25-.509.464-.899.727-.746.502-1.132.493-2.814-.058-.996-.327-2.113-1.394-2.859-.436zm27.055.333c.651 1.534 3.242 6.66 3.163 7.233-.505.453-1.18.783-1.581.378-1.295-2.364-1.684-3.638-2.736-6.291-.314-.634.625-2.25 1.154-1.32m13.915-.188c.184-.026.567.356.852.737.887 1.187.941 1.334.969 2.606.102 4.612.682 10.04 1.981 14.226.256.824.741 1.826.688 1.962-.436.635-2.456-1.066-3.066-3.652-.841-3.285-1.333-6.712-1.601-8.942-.339-3.924-.337-6.732.177-6.936zm-15.544 2.544c.746 1.439 1.687 3.923 2.32 5.413.289.647-1.187 1.157-1.527.937-.59-.44-.869-1.679-1.256-2.422-1.232-2.693-1.453-2.75-.771-3.589.42-.583.922-1.298 1.233-.34zm18.469 1.652c.108 0 .249.105.426.334.779.92 1.308 1.624 1.511 2.306.148.495.029.866.082 1.763.139 2.349.756 5.556 2.504 12.119.17.64.402 1.397.373 1.603-.169 1.205-1.936-.748-2.451-2.766-.597-2.29-1.684-5.215-2.005-7.92-.66-4.293-1.026-7.44-.441-7.44zm-20.026 1.735c1.47 3.429 1.586 3.423.661 3.695-.978.287-1.037.193-2.186-2.142-.838-1.704-1.004-1.918-.299-2.532 1.076-1.268 1.359-.059 1.824.98zm-20.468-.818-1.154.573c-1.214.481-3.37.514-4.684.118-2.329-.935-1.673.279.387 1.018 1.599.538 4.765.121 5.256-.875.302-.319.411-.837.196-.833zm17.706 1.803c1.312 2.028 1.706 2.837 1.485 2.995-.21.21-1.249.602-1.676.392-.536-.263-1.003-1.515-1.239-2.496.164-.479 1.027-1.339 1.43-.891m-32.862.854c.586.002 2.111 2.052 1.802 2.422-.086.19-.658.009-1.993-.361-.446-.164-1.454-.296-1.135-.943.159-.294 1.093-1.119 1.327-1.118zm31.455 2.809c-.131.35-1.12.433-1.54.407-.362-.752-.456-1.111-.557-1.608.137-.299.814-1.072 1.148-.92.2.179.847 1.751.949 2.122zm27.295-1.976c.209.007.571.374 1.109 1.143 1.017 1.453.879 1.348 1.608 4.82.828 3.937 1.819 6.741 2.819 10.763.014.667-.257.49-.998.039-1.211-.737-1.609-1.557-1.991-3.691-.651-3.525-2.025-6.787-2.553-10.952-.279-1.377-.301-2.132.005-2.122zm-30.512 1.407c.715-.024.619 1.077.414 1.256-.522.455-1.963.319-2.21.345-.553-.867 1.33-1.571 1.796-1.6zm34.144 3.747c.21.029.775.826 1.831 2.31 1.015 1.426.792 1.193 1.4 3.541.859 3.244 2.281 5.583 3.115 8.569-.002.341-.414.297-.809.136-.769-.322-1.456-.867-2.107-1.4-.446-.481-.442-1.093-1.758-5.619-.475-1.633-.598-2.058-1.192-4.539-.496-2.075-.718-3.031-.48-2.998M61.461 97.292c3.451 6.35 2.173 9.166-5.249 10.045-.536-.075-.03 3.253-.045 4.741 3.719-2.127 8.216-2.624 12.36-3.96-1.128 3.613-3.11 7.708-9.109 7.078-6.271-4.846-13.652-1.934-18.659-3.901-2.724-1.015-3.764-4.04-3.796-4.559 3.266.327 6.954 1.027 10.12.798-3.457-2.663-2.446-6.349-1.959-8.035-4.046-5.101-.668-10.839 5.208-9.505.607.138 1.806.728 1.806.728 5.668-5.075 12.239-.307 9.323 6.57m114.687-3.089c.235-.022.753.59 1.792 2.044 3.082 4.312 5.751 8.324 5.711 8.549-.133.743-3.345-.559-4.156-1.623-.923-1.212-3.52-7.451-3.517-8.443.002-.331.047-.516.17-.528zM50.617 112.672c1.603.235 2.051.371 2.034.998.137.532-3.891.603-4.437.208-.436-.315.126-1.006.557-1.172.624-.188 1.242-.122 1.845-.034zm111.038.572c-22.505 10.629-31.711 38.899-20.352 60.564l-1.564 1.129c-11.137-22.905-2.852-47.45 15.243-59.846.733-.521 2.353-.923 3.107-1.422 0 0-7.382 1.684-9.88 2.661-.507-.017-1.996.508-3.596 2.242-1.398 1.296-5.771 7.324-5.631 7.534l-11.618.468.01.429 11.403-.263c-11.742 19.334-8.858 37.729-1.607 50.603l.179.12c.422.284 1.531-.528 3.831-2.708.948-.898 2.142-2.013 2.654-2.48 1.422-1.303 3.447-3.55 4.839-5.173-7.896-16.093-.107-37.288 18.37-46.84.032-.508-.197-2.061-.197-2.061s-.698-.627-1.111-.563c-20.584 9.067-28.831 31.584-20.462 52.059l-1.38 1.502c-10.516-21.204.772-47.706 20.455-55.214-.009-.479-.436-1.091-.965-.722-21.249 9.866-30.51 35.058-20.101 56.532l-1.311 1.159c-11.842-23.512.635-49.859 20.197-58.862.577-.134-.513-.848-.513-.848m-114.538.219s-.149 1.252.293 1.68c.203.893-.122.796-.882.615-1.871-.446-.412.618 1.119 1.477 1.508.846 1.305.818-.01 1.652-.884.561-.792.771-.673 1.196.176.632.297.211.664-.126.77-.707 1.384-.884 2.068-.882 1.027.004 1.131.826.949 1.468-.408 1.346-1.794 1.274-2.93.94-1.859-.547-4.895-3.772-4.848-5.67-.129-1.7 2.197-2.428 4.25-2.351zm8.358.415c.721.265 1.628.619 2.625 1.037 1.378.438 2.774 1.15 3.675 1.751 2.742 1.828 2.574 5.483 2.377 5.847l-14.166 13.425s-.8-.391-1.554-.775c-2.382-1.215-2.954-1.855-1.632-2.528.641-.326.848-1.028.94-1.715.123-.92.075-.763.625-1.182.957-.729 1.003-1.03 1.008-2.243.003-.802.086-1.172.378-1.676.232-.4.476-1.235.639-2.194l.065-.69c.167-.75.405-.971.564-1.141s.414-.748.591-1.25c.395-1.118.321-.952.959-.828.927.18.794.721.693 1.579-.049.416-.327.709-.232.615.127-.126.696-.395.814-.421.297-.068.592.034.668.499.042.259-.07.736-.063 1.104.019.955.058 2.1.276 2.853 1.052 3.63.842 3.127.484.107-.086-.723-.187-1.785-.082-2.669.073-.623.252-1.395.494-1.816.622-1.083.656-1.298-.693-1.831-.501-.198-1.354-.545-1.531-.891-.216-.423-.858-1-1.695-1.196-2.035-.479-3.219-2.445-2.926-2.737.193-.191 1.012.059 1.531.077 1.858.066 2.253-.029 3.076-.736.438-.376.635-.711.984-.736.368-.007.837.267 1.109.363zm96.422 2.175c-19.031 15.396-22.366 40.302-12.872 59.52l-1.643 1.291c-11.931-22.543-3.917-46.861 10.74-60.16zm-109.868 1.836c.336-.031.703.461 2.039 1.889.9.962 1.837 1.797 2.33 2.078 1.118.535.873.312-.058 1.196-.952 1.092-.426 1.991-1.565 1.443-2.961-1.39-5.04-5.485-3.115-6.471.145-.074.256-.125.368-.136zm-1.472 4.306.228.024c.365.089.808.776 1.284 1.255 1.316 1.325 1.927 1.913 2.979 2.378 1.034.457 1.062.568.334 1.376a2.4 2.4 0 0 0-.484.843c-.062.196-.078.447-.3.489-1.153.221-4.984-2.102-5.134-3.705.124-1.499.502-2.614 1.095-2.659zm8.118.446c.665-.017 1.055.575 1.051 1.535-.003.665-.377.936-1.138 1.221-1.627.609-2.63-.555-1.492-1.841.478-.54 1.124-.904 1.579-.915m-.993 3.909c1.227.005 1.583 1.04.683 1.933-.845.839-2.551.843-2.548-.077.003-.722 1.084-1.858 1.865-1.855zm-7.61 1.238c.83.245 2.852 1.701 3.741 1.873.047.491-.544.625.295 1.549.381.419.413.705.082.882-1.014.54-4.526-1.167-4.761-2.926-.114-.859.171-1.347.644-1.377zm4.583 2.104c1.208.05 2.575.086 2.432.664-.104.419-.537 1.524-1.09 1.317-.269-.101-.53-.368-.717-.547-.645-.618-.816-1.442-.625-1.434m45.698 5.003c3.52 3.187 16.309 36.478-10.342 60.732l-5.656 1.694c25.587-20.091 21.331-48.614 14.426-60.919.002-.361-.1-.32-.737.257-.558.505-.617.614-.392.707 7.803 12.007 10.72 45.921-20.024 62.286-.516.536.528.454.528.454.054-.44 13.843-3.791 12.87-3.875 12.852-11.36 24.041-38.452 10.112-62.066-.336-.221-.786.73-.786.73zm-4.439 3.769-.179.751c11.154 21.899.507 48.728-20.227 58.658.341.25.72.423 1.101.602 23.522-12.666 30.304-39.472 20.043-60.234zm-1.865 1.553-.13.795c9.234 18.638 1.903 44.501-20.136 54.992-.209 1.128.003.799 1.034.745 25.501-13.675 27.898-39.681 19.919-56.57zm-1.584 2.235c-.72.952-2.039 1.445-2.477 2.67 7.408 19.579-2.166 38.427-18.375 46.372-.013.986-.72 3.423.996 3.034 20.025-9.072 28.738-33.184 19.982-52.164zm100.587 37.856c.737.052 1.398.275 2.082.364 2.487.322 4.101 2.136 2.99 3.239-.365.362-.875.154-2.491-.637-.742-.363-.862-.703-1.015-1.522-.184-.982-.38-1.081-.63-.32-.252.77-.524 1.247-1.373 1.053-2.385-.554-1.483-2.196.437-2.177m-26.608 16.67c-5.973-3.39-13.349-9.502-17.566-16.446-2.096 3.933-4.56 11.092-4.56 11.092l-9.375-2.619-.11.195 9.266 2.67-.903 3.092c-.098.334-1.532 3.853-1.532 3.853l14.473 6.754c-.897 1.403-1.875 2.311-3.118 3.619-.703.738-.722 1.694-.722 1.694l20.067-19.141s2.589 3.839 3.552 4.709c.903.816 1.184 1.014.13 1.258-4.715.691-8.374 4.261-7.098 9.05.206.533.622.337 1.516-.226 3.13-2.835 10.782-5.459 11.043-4.793l.03 3.049c-8.238.119-7.393 6.175-6.79 9.423 0 .07-2.382 2.153-2.382 2.153.842.442 1.667.899 2.446 1.443-.724 4.04 2.718 9.895 9.48 6.898.585.6 1.137 1.202 1.781 1.955.692-.801 1.49-2.688 1.49-2.688 3.359 1.52 10.327-1.882 6.763-9.674l1.965-1.874-1.888-1.19c-.049-1.981-.356-3.751-1.539-5.477 0 0 3.171.808 5.517.944 1.449.131 2.67.168 2.549-.708-.036-.258-.252-1.519-.394-1.932-.7-2.041-4.33-3.54-7.855-3.738-.575-.032-1.195-.014-1.317-.164-.231-.28.183-.677.562-.611 1.931.336 3.788-1.091 4.122-2.906.066-.318.461-.901 1.027-1.521 1.005-1.1 1.083-1.071 1.064-2.66-.013-1.103.18-1.348.689-2.087a5.1 5.1 0 0 0 .632-3.853c-.105-.451-.532-1.089-.168-2.213.592-1.828-.709-3.5-2.414-4.452-.136-.039-.095.095-.208.23-1.547.482-3.432-.627-3.432-.627-.389-.191 1.318-10.106 4.853-9.22.588.357.836 2.08.792 2.11.163-.004.251-1.014.022-1.688-.24-.707-.788-1.38-1.843-1.181-.818.154-1.762 1.24-2.189 1.784-1.652 2.105-1.67 3.448-2.222 5.687-.265 1.058-.294.997-1.759-.147-1.051-.822-1.561-1.084-1.195-1.566.164-.217.845-.901.845-.901l12.799-12.315V285.35h-72.375l.506-15.849c1.358-11.144-1.031-34.546-2.839-36.747 1.394-1.566 5.721-5.343 5.483-5.514l-.574-.339-2.287 2.104-5.649-1.711c-2.41-1.664-4.869-3.203-7.42-3.858-4.166-1.069-12.188 2.337-12.195 2.373-12.817.949-23.081 6.154-22.937 6.114-.558-.512-1.297-2.149-1.316-2.139-6.607-9.194-13.102-14.344-21.975-20.629l11.239-6.208-26.634-27.827-.235-22.596 38.582-36.885c.227-.637 12.309 8.533 16.808 15.995.863-3.648 2.469-6.96 3.808-10.542.14-.328 7.676 2.786 9.911 2.918.334.02.604-.333.604-.333l-9.946-3.234 2.034-5.825s.708-1.583-.091-1.845c-4.534-1.466-8.788-4.051-13.124-6.254 0 0 2.025-2.252 2.056-2.351.029-.094.85-1.302.654-1.718-2.206 2.14-20.206 18.834-20.206 18.834-.512-2.865-1.317-3.867-3.067-5.634.954-.046 2.446-.988 3.308-1.617 2.638-1.922 4.074-5.351 3.729-7.355-2.532.806-4.819 1.75-7.991 2.326-1.782.324-3.473 1.128-4.499 1.992l-.157-3.197c.006.036 4.268.747 6.241-2.113 1.701-2.465 1.004-5.285.613-6.724.044-.319-.051-.284.683-.959.541-.499 1.385-1.143 1.385-1.143.036-.181-2.201-1.01-2.579-1.767.595-5.925-4.138-8.212-8.145-7.16-.749.226-1.106.366-1.997-.626-.133-.148-1.201-1.277-1.201-1.277s-.472 1.088-.713 1.564c-.786 1.55-1.001 1.083-2.696 1.166-4.292.21-6.207 3.675-5.222 7.929.231.998.128.845-.528 2.107a20 20 0 0 1-.882 1.468s.787.436 1.317.673c.786.351.827.762.823 1.545.11 1.726.489 2.882 1.481 4.365-3.362.077-5.941-.236-8.985-1.247.466 4.681 3.916 6.424 8.143 7.11 0 0-.443.414-.91.599-.989.287-1.608 1.155-1.598 1.933-.142.743-.623 1.489-1.066 1.886-.658.569-1.199 1.372-.94 2.924-.066 1.125-.338 1.45-.668 1.879-.663.862-.887 1.72-.722 2.853.077.527.24 1.657.131 2.824-.182 1.945.515 2.675 1.4 4.045.573.887.452.911.32 1.555-.318 1.546-.649 2.341-.993 3.517-.769 2.631-.798 4.626-.17 5.139.948.774 2.02.541 2.519.387 3.739-1.154 3.092-4.826 3.289-7.29.107-.633.323-.938.533-.908 1.057 1.237 2.175 1.953 3.614 2.733-4.976 5.064-8.226 8.163-14.517 13.688l.171-123.358h71.762s.075.913-.096 5.376c-.311 9.072-.692 18.575-.097 27.823.1 3.201.034 6.361.494 9.528.448 3.085.646 6.412 2.088 9.285.579 1.558.598 1.438-1.61 3.478-1.083 1.001-2.003 2.066-1.963 2.254.013.062-.048.297.118.164.111-.088.91-.88.999-.985.598-.705 1.599.2 5.013 1.163.67.189 1.613.819 2.335 1.342 5.103 4.3 12.283 2.959 17.651.614 1.523-.666 1.897-.734 4.345-1.025 9.066-1.075 18.752-5.036 18.732-5.023l1.183 1.939s.446-.082.763.405c5.214 9.848 22.237 21.1 21.935 20.579l-11.127 6.16c8.101 10.009 26.625 26.989 26.625 26.989l-.426 24.405c-4.973 3.978-9.348 8.537-13.721 12.99-1.257 1.245-2.145 1.955-1.668 1.979 1.135-.173 2.115.946 3.039 1.723.585.652.444.593-.231 1.484-.474.626-.648.807-.65 1.26.017.876.011 1.462-.769 2.119-.484.608-.761.997-.848 1.717-.087.719-.081 1.18-.575 1.816-.838.178-.917 1.398-.77 1.944.878.87.477 1.812.558 1.615-1.676 1.819-3.436 3.395-2.312.852a7.7 7.7 0 0 0 .683-1.732s-.807.836-1.229 1.231c-.646.598-.883.246-.902-1.611-.083-1.405-.676-3.366-.911-3.741-.132-.209-.154.153-.092 1.506.081 1.78.293 2.296-.333 4.073-.847 2.401-1.449 2.741-.074 2.658 1.303-.078 2.404-.092 2.974.685.192.262.439.711.966.976 1.072.586 1.924 1.235 2.52 1.883 1.927 2.095 1.374 3.968-2.351 2.698-1.961-.669-.677-1.511 1.431-1.316 1.295.121 1.513-.357.392-.7-2.085-.386-2.421-.621-3.795 1.014-5.774-.571-9.016-3.799-10.574-6.428-.652-1.1-.851-1.31-.397-1.933.179-.245.07-.17-.237.17-.308.34-1.146.624-1.424.869-1.939 1.935-3.906 4.014-5.653 5.588zm25.129-13.553c.98.121.961.944.086 1.735-.822.623-1.385.743-1.849.275-.812-.819.237-2.016 1.763-2.01m2.854.57c.79-.003 1.798.36 2.994 1.355 1.429 1.187 1.755 4.062.443 4.56-.549.208-.635.004-1.806-1.108-.79-.75-1.646-1.43-2.49-1.831-1.722-.82-1.943-1.129-.779-1.688a2.15 2.15 0 0 0 .707-.654c.299-.479.39-.632.93-.634zm-1.86 3.828c.229.007.534.146 1.012.402 2.903 1.585 4.322 4.07 3.339 5.473-.644.92-1.693.569-2.492-.736-.45-.735-1.646-1.676-3.003-2.364-1.554-.788-1.588-.901-.465-1.439q.693-.333 1.032-.93c.261-.461.283-.416.577-.407zm.93 5.922c2.193 2.186 1.942 3.37.517 4.26-.972.608-2.533.759-3.044.256-.827-.722-.805-1.551.109-1.816.852-.182.533-.524-.263-.726-2.844-.807-4.591-2.316-1.501-1.989.887.094 1.746-.595 2.21-1.146.671-.814 1.577.767 1.972 1.161m-149.546.842 64.002 91.624-51.741-.101s-.195-.673.227-6.165c.623-7.451-.333-13.913-2.097-21.187.223-.025-2.477-8.829-4.577-13.131-.382-.901-.319-.988.92-1.148 3.663-.588 7.608-1.475 11.267-3.022 1.701-.15 4.198.513 4.063.305-.061-.099-2.213-2.073-2.213-2.073-5.975 2.387-11.487 3.261-16.677 3.853 6.888 11.724 9.347 27.684 7.281 42.02l-9.914-.03-.03-70.554zm11.439 13.57c.904-.035 3.156 1.554 3.431 2.75.056.245.642 1.715 1.298 3.082.013.252 2.232 4.259 1.257 3.909-1.94-2.635-5.405-7.123-6.277-9.31.002-.291.038-.421.291-.431m6.914 4.008c.121.662.792 2.393 1.322 3.534 1.381 2.973 3.52 7.634 3.085 8.961-.293.894.008.847-.775-.257a257 257 0 0 0-1.865-2.591c-.7-.939-.229-.078-.629-1.606-.953-4.324-2.492-6.595-3.492-9.122-.357-1.186 1.895.603 2.353 1.081zm1.23.659c.186.131 2.722 1.914 2.979 2.17.899 3.197 4.494 13.44 3.563 15.271-.324-.254-1.694-1.906-1.884-2.757-.415-4.898-1.969-8.42-3.636-12.071-.469-1.1-.838-2.201-1.022-2.613m4.771 3.597c.803.392 1.634 1.289 2.105 2.09.315.544.476 1.184.772 2.53.919 4.179 2.673 8.415 1.884 12.875-.492.667-1.562-.845-1.715-2.335-.507-4.939-.942-7.304-2.679-13.112-.337-1.127-.592-2.01-.368-2.049zm4.073 3.831c.172.007.523.326 1.109.877 1.14 1.07 1.301 1.465 1.308 3.24.037 2.61.906 5.59 1.041 8.225.078 1.52.356 5.453.121 5.687-.332.458-1.804-1.209-1.69-3.764.188-3.071.035-5.382-1.274-10.695-.605-2.456-.911-3.504-.649-3.565zm118.163-15.511c4.573 2.936 2.96 8.353 1.982 9.019 6.315 7.978-3.501 12.064-6.616 9.196-4.611 4.582-12.524.742-9.477-6.81-.004 0-5.792-11.062 5.63-10.323 0 0 .197-4.47-.126-4.674-4.077-.274-9.619 3.651-11.189 4.737-.871.526-1.062.275-1.062.275-.217-2.32-.223-3.382.72-4.676 1.645-2.257 4.365-3.021 7.938-3.805 4.421 1.361 8.632 3.498 12.728 3.166 2.256.013 4.563.378 6.75 1.551 1.476.696 2.244 3.307 2.244 3.307-2.315 1.211-9.521-.963-9.521-.963zm-2.175-16.404c.019-.792.914-1.675 1.795-1.572 1.21.087 1.369 1.521.293 2.048l-1.37.159c.074.488-.418.282-.513.106-.167-.207-.205-.503-.204-.741zm-.734 3.124c.445-.311.816-.339 1.263-.398.687-.084 1.565.02 1.76.74.191.706-1.164 1.122-2.26 1.141-.558.01-1.204.118-1.371-.273-.157-.367.384-1.044.608-1.21M39.224 141.009c.883-3.067.331-4.784 1.802-8.564l3.58 1.192s.152 3.708-.57 5.773c-.723 2.064-3.096 3.71-4.812 1.599m26.665 82.94c.423.051 1.46 1.527 1.928 2.877.43 1.251.288 2.841.601 4.19.703 4.622.661 9.252.475 10.651-.093.697-.542.413-1.158-.252-.895-.967-.771-.987-.76-3.672.009-2.3-.501-7.985-.736-9.14-.435-2.136-.615-4.174-.513-4.524q.045-.146.165-.131zm41.867.553c4.61.734 8.295 3.881 10.407 9.062 2.039 5.268 2.54 12.456 2.857 19.064-.022 1.581-.674 1.182-2.381.199-1.866-.911-2.262-.647-4.985-.024-1.699.389-1.546-.766 1.25-2.683.952-.621 2.059-1.45 1.695-1.574-.185-.063-1.036.166-1.652.664-2.743 2.216-3.486 2.756-2.696.601.2-.545.835-2.056 1.101-2.78.993-2.708-.151-3.867-3.525-5.581-.844-.429-1.4-1.144-.557.354.689 1.225-.735 2.213-2.499.78-1.226-.996-3.69-.333-4.485.911-.77 1.204-.358 3.451 1.16 4.179 1.338.576 1.837.161.543-.736-1.664-1.154-1.341-3.101.529-3.094.462.002 1.277.516 3.338 1.637 1.475.798 2.525.461 2.526-.731.002-.797.457-.732 1.427-.253 1.306.646 1.163 1.231.473 3.035-.466 1.26-.697 2.693-1.124 4.011-1.1 4.435-1.247 9.457-.03 11.023 3.236 4.164 6.673 3.722 9.616.971l-.126 4.56c-3.001 2.408-6.506 4.05-11.918 12.978-1.887-2.371-9.986-12.062-22.971-14.252l-2.922-3.998c.05-.248-2.183-14.87-3.644-19.847 0 0 1.607-2.439 3.066-4.237 5.83-7.183 15.686-15.404 25.527-14.236zm-16.936 4.15c-.5.158-.662-.838-.39-1.027.6-.05.813-.031 1.415.013.454.028.444.549-1.025 1.014m-21.913-.746c.648.462 1.44 1.705 2.214 2.838.428.627.185 1.667.252 2.693.094 1.455.256 3.854.358 5.328.2 2.875-.069 5.279-.489 6.147-.429 1.038-1.3.321-1.516-1.1-.052-.341.232-3.867.232-5.803 0-3.33-.851-7.439-1.051-10.104zm19.656-.021c.229-.013.403-.005.555.19.699.896.983 1.437.346 1.928-.844.705-1.613.527-2.081-.812-.301-.954.41-1.254 1.18-1.306m-2.603.789c.754.505 1.502 1.835 1.58 2.795-.048.263-.28.487-.786.896-.502.46-.66.43-1.22-.453-.878-1.372-1.289-2.275-1.117-2.749.439-.456 1.01-.638 1.543-.488zm30.696.174c1.258.107 2.501.682 3.726.971l-1.868 1.806a40 40 0 0 0-1.857-2.777zm-33.488.942c.69.898 1.893 3.248 1.829 4.121a2.1 2.1 0 0 1-.738.729c-.23.062-.436-.34-1.215-1.717-1.354-2.395-1.75-3.07-1.047-3.357.369-.041.932-.023 1.171.225zm-2.73.557c.753.67 2.559 4.238 2.611 5.242-.021.282-.105.527-.272.717-1.136 1.221-.848 1.025-2.539-2.456-1.428-2.863-1.805-3.145-.861-3.467.209-.071.732-.165 1.061-.036m-2.715.931c.496-.007.635.822 1.601 2.71 1.618 3.569 2.225 4.066 1.858 4.447-.451.569-.715.969-1.144.278-.976-1.586-1.943-3.61-2.852-5.387-.727-1.326-.792-1.487-.325-1.812.268-.186.667-.233.861-.236zm28.874 1.014c-.608.171-3.052.945-1.555 1.085.303.028 1.069-.163 1.608-.201 1.513-.104 4.661.181 4.548-.109-.287-1.087-3.777-.986-4.602-.775zm-30.99.334c0 .06.392.756.783 1.437 2.299 4.442 3.577 6.06 3.169 6.762-.336.424-.855.957-1.163.831-.494-.204-1.153-1.658-2.799-4.949-1.7-3.401-1.877-3.656-1.003-4.097.358-.166.792-.289 1.013.016m-2.297 1.567c1.057 1.717.918 1.492.906 7.082-.008 3.479-.455 5.698-1.037 6.554-.305.448-.843.185-1.109-.693-.122-.401.225-.997.291-1.632.411-4.186.124-8.369.134-12.331.319-.033.645.74.816 1.021zm27.256 1.371c.492.703.372 1.269.368 2.214-.005 1.336.091 1.435 1.014.76.818-.598.883-.637 2.343.354.866.587 1.958.654 2.664.005.498-.457.67-.251 1.337-.077.726.403.932.465 2.49-.291 1.052-.465 1.094-.532 1.72-.203 1.1.97 1.263.619 1.114-.649.003-.443.131-1.27.262-1.807.547-2.255-.339-2.28-1.511-.843-.454.557-1.466.798-2.422.349-1.369-.643-3.507-.383-5.087-.117-1.87.314-2.735-.201-3.486-.842-.426-.363-1.398-.687-1.506-.409s.113.716.702 1.557zm-25.071 3.163c.234-.051.593.643 1.119 2.112.678 1.896-.507 8.487-1.221 9.566-.377.566-.62.914-1.395-.136-.308-.461-.068-.608.237-1.904.465-1.972.857-5.162.882-6.646.007-1.926.112-2.936.378-2.993zm2.383 6.394c.168.012.365.392.635 1.143.381 1.032.196 3.021-.305 4.543-.29.887-.566 1.832-1.061 2.625-.168.445-1.031.289-1.269-.698-.151-.624.369-1.399.62-2.393.252-.998.54-2.267.683-2.906.263-1.56.451-2.333.698-2.315zm18.445 2.921-.053.005-.015.015c-.039.039 1.798 2.041 2.291 2.601.258.218 2.471 2.909 1.095 2.291-3.473-1.44-7.538-.733-10.041 1.681-.314.302-.573-.007-1.521-.077-1.944-.145-2.65.626-1.468 1.584.181.147.559.213.729.448.157.216.11.603.191.711 3.759 4.99 10.722 5.961 15.093 2.702.55-.41.858-.555 1.371-.402 1.017.303 1.107-.549.208-1.739-.392-.519-.874-1.117-.593-1.29.555-.478.83-1.258-.136-1.55-.665-.202-1.411-.942-1.785-1.975-.437-1.207-4.718-4.916-5.367-5.004zm-17.065 2.185c.817-.019.855 4.807-.048 6.273-.464.555-1.525-.477-1.366-1.535.121-.805.989-4.433 1.187-4.621q.121-.114.228-.116zm16.658 3.013c.686-.007 1.624.3 2.371.974.404.364 1.11 1.943.816 2.562-.082.314-.929.296-1.006.066-.466-3.185-3.048-3.648-3.868-.674 0 0-.531.452-.599-.419.184-1.688.977-2.495 2.287-2.508zm20.794.276c.821-.015 1.603.397 2.005 1.274.28.611.311 1.126.2 1.394-.083.2-.36.113-.36.113-1.311-3.595-3.094-1.932-3.74.055 0 0-.674.208-.758-.006-.084-.215-.032-.619.236-1.179.512-1.068 1.487-1.634 2.417-1.652zm-17.534.223c.464-.025 1.259.352 1.853.951.604.608.663.972.175 1.422-.293.271-1.334.539-1.536.068l-.877-2.048c-.083-.195.174-.382.385-.393m-6.316.097c.52.002.629.12-.187 2.018-.174.406-2.268-.184-1.869-.966.599-.623 1.536-1.052 2.056-1.051zm20.969.15c.209-.01.379.021.45.116-.187.067-.978 2.068-.978 2.068-.747-.09-1.64.015-1.802-.596-.153-.577.149-.929 1.201-1.332.319-.116.78-.241 1.129-.257zm6.126.513c.793.29.978.961.877 1.308-.077.262-.451.265-.717.063-.252-.293-.624-.793-.596-1.129.083-.334.183-.338.436-.242m-39.49 1.849c.244.459.684 3.057.17 2.99-.499-.129-.731-.913-.819-1.618-.018-.145.426-1.355.649-1.372m8.724 1.387c.231-.033.812.171 1.676.659 2.842 1.373 5.756 1.567 8.851.876 1.785-.463 2.24-.735 2.493-.428.428.52-.248 1.041-2.768 1.888-2.764.929-5.632.772-9.403-1.889-1.013-.715-1.145-1.064-.848-1.106zm31.542.716c.468.873-1.125 1.701-1.932 1.934-1.715.496-4.313.264-5.78-.617l-.354-.236c-1.193-.888-.699-1.523.63-.838 1.429.737 4.338.872 5.88.128.773-.373 1.304-.841 1.556-.371m-35.296 1.628c-.159.035.11.436.664 1.037 3.888 4.364 13.165 6.732 18.379 2.234 1.633-1.533 1.384-2.222-1.192-.998-2.848.937-6.896 1.06-10.397.542-1.722-.233-4.525-.892-5.948-1.933-.896-.655-1.367-.913-1.506-.882m26.81.131c.237.019.653.107 1.556.577 1.317.685 4.309.45 5.289.089 2.064-.762 2.488.206.532 1.287-2.179 1.319-5.186.803-6.941-.896-.543-.487-.837-1.093-.599-1.142zm-25.777 7.719c7.657.7 19.213 8.298 23.718 17.425h-2.593c-4.527-7.183-11.492-12.964-19.757-15.121-.327-.252-1.543-1.986-1.368-2.304m33.987 1.672-.354 2.523c-1.283 1.052-5.987 4.948-9.475 11.05-.727-.034-1.079-.91-.958-1.506 2.793-5.507 6.132-8.548 10.786-12.067zm-30.946 1.975c1.757-.121 13.186 6.017 17.035 13.778h-2.107c-4.329-5.638-9.141-9.316-13.412-10.792-1.038-1.095-2.176-2.938-1.516-2.986m30.593 1.756-.019 3.41c-2.735 2.662-4.733 5.34-6.298 8.612h-2.123s-.472-.935-.307-1.518c2.413-4.343 4.725-7.505 8.748-10.504zm-17.363 12.022h-2.055c-1.734-2.452-4.311-4.811-6.676-6.215-.969-1.201-2.055-2.683-1.618-2.924.026-.887 9.121 5.259 10.349 9.138zm17.407-6.936-.045 1.971c-1.391 1.778-2.556 3.27-3.67 4.965h-1.751c1.597-3.447 5.608-7.868 5.465-6.936zm-23.584 3.818c.634.167 2.949 2.378 2.875 3.119l-1.042-.03c-.585-.738-1.278-1.506-1.689-2.262-.258-.478-.423-.921-.144-.827m23.181.61h.015c.003.002-.02 2.509-.02 2.509h-1.758c-.189-.034.851-1.895 1.763-2.509" style="fill:#131f67" transform="matrix(.72325 0 0 .77347 .789 .695)"/><path d="M113.843 21.199c-6.23-.001-12.53.037-19.54.116l47.325 71.81.039-15.953-15.187-20.96c3.456-1.14 7.677-1.927 11-2.243-4.269-10.119-6.403-19.622-4.523-32.647-6.723-.082-12.883-.123-19.113-.123zm18.326.457c-.37 4.598-.857 9.725-.077 15.42-2.463-.961-3.041.682-3.45.854-.463-1.105-2.18-3.016-4.124-.77-1.01 1.169-.519 3.366 1.827 4.357-2.687.22-4.082-2.235-4.553-4.766-1.452-.994-2.978-1.977-3.123-5.461l.744.133c-.247 2.431 2.115 3.67 3.497 2.51.894-.733.99-1.863.637-3.618.718-.157 2.4-.91 1.955-3.22-.614-3.19-3.677-2.815-5.076-.718-1.163-1.54-3.296-1.825-4.152.565-.476 1.332.61 2.828 1.843 3.117-2.74.562-4.121-3.477-4.274-6.211l-1.134-2.154c7.406-.047 10.644-.038 19.46-.038m-37.095.079 5.496.003 40.116 55.516.084 13.822zm13.897.003.876.012c.686 4.886 3.314 8.424 7.809 10.146.233 3.992 2.033 9.414 8.863 11.247-.201 4.507 2.507 8.815 5.405 10.88 0 0-.782.207-1.394.27-3.898-3.306-4.858-8.172-5.244-10.18-.132-.29-.504-.36-.799-.43-3.335-1.26-6.142-4.19-7.29-7.767l-.722-3.51c.002-.452-.084-.24-1.075-.63-2.573-1.013-4.952-3.99-6.02-7.545-.56-1.87-.41-2.492-.41-2.492zm-3.535.012 3.08.004s.018.58.063.959c.414 3.5 3.353 7.894 6.351 9.351.424.207 1.015.496 1.153.634.838 5.738 3.27 9.195 8.404 11.562.082.09.314.147.382.262.7 3.548 2.23 7.663 5.14 9.924l-1.258.139zm15.042 6.023c.697 0 1.262.604 1.262 1.349s-.565 1.345-1.262 1.345c-.696 0-1.261-.6-1.261-1.345s.565-1.349 1.261-1.349m-42.5 7.36c.073.195-17.224 15.841-15.54 45.28l-.502.6.137.21c-.572.692-1.121 1.25-1.745 1.925 3.587 2.445 9.838 5.113 9.858 5.043l-1.195 2.96 7.473 2.581-1.002 2.814s-5.199-1.843-7.353-2.61c-1.063 2.52-1.706 5.181-2.48 7.803q-.11.316-.508-.3c-3.882-7.08-11.854-12.187-11.585-11.681l-28.271 28.687-.192 17.729 19.565 21.565s-5.662 2.98-8.341 4.934c2.083 1.818 4.441 3.218 6.513 4.938 4.284 3.231 7.176 7.981 9.952 11.198 13.096-6.944 26.284-6.557 37.674-2.341-1.327 1.492-2.808 2.786-4.176 4.405 3.311 9.29 2.252 27.74 2.084 28.241 6.893-7.53 17.147-23.676 15.779-46.411l2.9-3.11c-.052-.159-7.256-4.282-10.257-5.18l.83-2.826-7.188-2.401.802-2.244 7.16 2.218c1.357-3.56 2.793-8.546 2.793-8.546 2.86 4.575 6.011 8.736 12.499 12.97l28.11-28.761-.183-18.493-19.138-20.467 7.967-4.44c-.765-.66-1.875-1.287-2.662-1.948l.1-.236c-.199-.165-.345-.298-.549-.45l-.235.155c-2.703-2.028-5.407-4.022-7.535-6.448l-.028-.374c-1.106-1.264-2.207-2.44-3.332-3.683-.521-.563-1.383-1.9-1.383-1.9l-.05-.442-1.208-1.626c-3.892 2.455-20.485 8.617-36.542 1.795l3.051-3.264a26.3 26.3 0 0 1-1.548-6.35c-.84-7.682-.519-21.516-.519-21.516zm50.614 4.35c.735 0 1.332.638 1.332 1.424s-.597 1.424-1.332 1.424c-.734 0-1.327-.639-1.327-1.424 0-.786.593-1.424 1.327-1.424m4.164 1.693c.678 3.538 2.168 8.676 3.652 12.14l-1.768.209c-1.44-1-2.962-2.46-3.122-4.531-3.893.032-5.032-6.499-3.61-5.715-.181 2.23 1.315 3.11 2.784 2.891 1.264-.189 2.357-2.055.853-4.116.668-.279.996-.488 1.211-.879zM77.578 51.64c.258 4.525 1.089 7.825 1.864 11.243l-7.693 7.763c.6-7.086 2.546-13.418 5.83-19.006m36.896 14.903.977 1.5c-11.118 6.981-30.093 7.475-41.653 1.588l1.535-1.562c10.165 4.909 26.715 5.273 39.141-1.525zm-72.205 2.33c-1.12-.014-2.413.443-3.784 1.56-5.1-2.486-8.44 3.323-5.286 7.17-.467 2.77-.82 3.285 1.128 6.088-2.07.282-4.682-.297-6.905-.663.376 4.101 5.867 5.056 8.152 4.605 2.468-.573 4.796.734 4.898.764 1.45.433 2.353 1.18 3.783 1.54 2.36.6 5.816-2.358 6.316-5.167.047-.377.157-.72-.038-.776-1.613.441-3.385 1.064-4.957 1.431-1.54.404-2.7.802-3.87 1.784l-.1-3.387c7.99.407 4.513-7.718 4.061-8.067 1.485-3.205-.3-6.841-3.398-6.882m72.622.255 1.737 4.47-4.617 1.675-1.18-4.376zm-72.955.135c2.716.028 5.144 3.087 2.536 6.51 5.057 4.77-1.423 9.88-4.508 6.333-4.108 4.022-8.471-.18-6.177-4.56-4.38-4.192 1.022-9.815 4.712-6.193.906-1.49 2.202-2.103 3.437-2.09m31.53 1.637c.65 0 1.176.564 1.176 1.259s-.527 1.258-1.177 1.258-1.177-.564-1.177-1.258c0-.696.528-1.259 1.177-1.259m-30.083.094c-.067 0-.147.033-.235.116-.132.013-.417.538-1.135 1.427-1.247 1.545-1.381 1.56-1.381 1.56-1.329-.465-2.217-.213-3.092.378 0 0-.998-.202-2.375-1.432-.628-.562-.966-.683-1.076-.382-.116.32.169.636 1.374 1.513 1.667 1.213 1.563 1.121 1.563 1.121-.103 1.066.06 1.933.436 2.74 0 0-.294.757-1.478 2.415-.335.468-.609.978-.61 1.131-.002.645.524.211 1.735-1.424.474-.641 1.125-1.558 1.125-1.558 1.421.526 1.92.206 2.81-.133 0 0 .306.243 1.081.904 1.419 1.209 1.725 1.338 1.9 1.184.234-.207.203-.274-.333-.69-1.6-1.238-2.15-1.954-2.15-1.954.325-1.355-.03-2.476-.38-3.183 0 0 .026-.172.929-1.25.663-.792 1.57-2.042 1.513-2.222.015-.112-.073-.263-.22-.262zm32.738.274 4.159 1.382-.918 4.623-4.432-1.528zm30.093 1.135 1.16 4.511-4.327 1.23-.708-4.789zm3.037.075c.65 0 1.177.564 1.177 1.259s-.526 1.258-1.177 1.258c-.65 0-1.176-.564-1.176-1.258 0-.696.527-1.259 1.176-1.259m9.834.161 3.636 3.462-4.036 2.18-1.944-4.51zm-34.29 1 4.225.532-.171 4.855L84 78.333zm-14.658.053 4.702 2.206-1.696 5.066-4.813-2.21zm12.118.393c1.733.29 1.267 2.477 0 2.518-.65 0-1.176-.564-1.176-1.258 0-.696.527-1.259 1.176-1.259zm15.201.004.578 4.86-4.386.284-.095-4.938zm3.016.555c.65 0 1.177.564 1.177 1.258 0 .696-.528 1.259-1.177 1.259-.65 0-1.177-.564-1.177-1.259s.527-1.258 1.177-1.258m-61.061.455c.67 0 1.216.58 1.216 1.297s-.545 1.3-1.216 1.3-1.212-.583-1.212-1.3.542-1.297 1.212-1.297m51.939-.047c.65 0 1.176.564 1.176 1.259S92 77.569 91.35 77.569s-1.177-.564-1.177-1.258c0-.696.526-1.259 1.177-1.259m20.658.311 1.71 4.995-4.792 1.652-1.356-5.13zm3.364.135c.65 0 1.176.564 1.176 1.258 0 .696-.527 1.259-1.176 1.259-.65 0-1.177-.564-1.177-1.259s.527-1.258 1.177-1.258m8.284 1.416 3.097 2.341-1.534.915c-.403-1.03-1.113-2.25-1.563-3.256m-44.267.453 4.572 1.06-.697 5.122-4.989-1.064zm-13.596.281 2.428 1.221-1.601 4.268-3.928-2.237zm10.853.277c.65 0 1.177.564 1.177 1.258 0 .696-.528 1.259-1.177 1.259-.65 0-1.177-.564-1.177-1.259s.527-1.258 1.177-1.258m26.404.28.816 5.122-5.157.776-.319-5.223zm19.306.098c.65 0 1.177.564 1.177 1.259s-.528 1.258-1.177 1.258c-.65 0-1.177-.564-1.177-1.258 0-.696.527-1.259 1.177-1.259m-3.658.037 1.707 4.515-5.045 2.256-1.492-4.52zm-12.863.326c.65 0 1.177.564 1.177 1.258 0 .696-.527 1.259-1.177 1.259s-1.177-.564-1.177-1.259.527-1.258 1.177-1.258m-17.036.514 4.827.093-.055 5.178-5.287-.157zm38.609.36 1.898 1.408c-19.541 13.438-46.992 15.104-68.415 1.877 0 0 .876-.933 1.374-1.48 19.312 12.36 47.506 10.625 65.143-1.806m-41.226.584c.65 0 1.177.564 1.177 1.258 0 .696-.527 1.259-1.177 1.259s-1.177-.564-1.177-1.259.528-1.258 1.177-1.258m9.91.285c.65 0 1.177.563 1.177 1.258s-.527 1.258-1.176 1.258c-.65 0-1.177-.563-1.177-1.258s.527-1.258 1.177-1.258m-22.991.693 5.04 1.558-.858 4.257-5.528-1.701zm-3.335.03c.65 0 1.176.564 1.176 1.258 0 .696-.526 1.259-1.176 1.259s-1.177-.564-1.177-1.259.527-1.258 1.177-1.258m39.156.906 1.205 4.777-5.574 1.274-.672-4.698zm3.201.693c.65 0 1.177.564 1.177 1.259s-.527 1.258-1.177 1.258-1.176-.564-1.176-1.258c0-.696.527-1.259 1.176-1.259m-72.814.742-.01 3.35a113 113 0 0 0-3.038-2.56c1.09.062 2.103-.26 3.047-.79zm-11.48.083c.255-.002.85.22 1.559.217 2.27-.008 6.509.75 7.763 1.851.418.366 1.044.69 1.383 1.282-.001.281-.373.289-.921-.075-1.05-.698-2.799-1.32-5.14-1.667-.422-.063-.475-.044-.476.168-.001.263.39.417 1.622.634 1.595.28 1.934.447 2.288.55.947.278.342.649-.633.748-3.98.398-6.958-1.433-7.557-3.524-.049-.137-.004-.183.112-.183zm55.432.075 5.006.693-.228 4.48-5.479-.67zm-42.571.39c.874.734.272 2.96-.204 3.615-.308.368-1.03.172-1.026-.345.11-.465-.045-2.679.05-3.365.348-.212.862-.152 1.18.094zm58.014.198.258 4.62-5.46.266.041-4.537zm-18.427.311c.65 0 1.176.564 1.176 1.259s-.527 1.258-1.176 1.258c-.65 0-1.177-.564-1.177-1.258 0-.696.527-1.259 1.177-1.259m-30.433.064c.202 3.39-4.667 5.69-6.488 4.65-.807-.462-.471-.746 1.128-1.091 2.07-.586 3.432-1.157 3.433-1.57.002-.254-.312-.223-1.156.112-1.299.466-2.648.666-3.889 1.262-.927.45-1.287.608-1.495.337-.437-.567 1.623-1.999 3.759-2.38 1.602-.284 3.218-1.198 4.708-1.322zm51.872.423c.65 0 1.177.564 1.177 1.258 0 .696-.528 1.259-1.177 1.259-.65 0-1.177-.564-1.177-1.259s.527-1.258 1.177-1.258m-10.948.922c.65 0 1.177.564 1.177 1.258 0 .696-.527 1.259-1.177 1.259s-1.177-.564-1.177-1.259.528-1.258 1.177-1.258m26.229 2.14c7.878 8.022 16.513 17.257 23.636 24.853l-.032 11.926-27.199 27.645c-4.925-3.215-9.095-7.235-12.934-14.375.433-.4.814-.653 1.142-1.09l-1.419.906c-5.017-8.582-7.145-25.68 1.377-39.387l-8.61.338 1.404-3.136 9.375-.547 3.79-4.35s1.202-.237 2.197-.483c.987-.244 3.003-.86 4.48-1.372 1.478-.51 2.736-.93 2.792-.929zm-63.588 2.22s8.096 4.706 12.59 14.129c-14.53 13.367-20.007 28.933-21.242 45.134-7.91-7.91-11.905-12.286-19.05-19.968l.258-11.465zm30.563 1.496c-2.095 4.788-3.897 10.035-5.51 15.656l-2.254-.711s1.458-.651 2.106-1.064l-1.17-2.016 2.217-.974-1.31-1.708 2.249-1.394-1.125-1.51 2.06-1.102-1.279-1.573 2.162-1.288-1.128-1.506zm.69.011.63.132c.082-.033-.405 1.255-.353 1.3.787.173.832.126 1.068.203l.599-1.327.984.2c-1.986 4.792-4.11 10.036-5.328 15.712l-1.16-.258s.34-1.197.34-1.356c-.135-.031-.789-.325-.991-.412a74 74 0 0 0-.483 1.573l-.918-.026c1.502-6.198 4.121-13.07 5.612-15.74zm3.773.184 2.056 1.82-2.333.971 1.208 1.72-2.473.955 1.419 1.787-2.449.966 1.461 2.162-2.547.918 1.608 1.9-2.298 1.15 1.378 1.457s-1.435.506-1.517.529c-.23.063-1.195-.191-1.195-.191 1.453-5.531 3.248-11.138 5.683-16.144zm-50.03.922c-.568.394-.244 1.252-.956 1.985-.114.132-.124.433-.168.697-.034.2-.597 2.594-.597 2.594s.143-.183.368-.946c.192-.652.36-1.888.463-2.095.525-.172.605-2.003 1.137-1.753.308.145.25.444.076 1.147-.38 1.404-.528 1.996.123 1.038.97-1.25 1.066-2.38-.029-2.619a4 4 0 0 0-.416-.048zm14.693.52-25.416 25.522-.077 9.524 8.845 9.587 6.278 6.508c2.279-14.575 7.507-28.479 20.378-40.51-1.972-3.393-5.35-7.664-10.009-10.63zm68.509.263c-14.934 7.505-18.368 22.9-13.744 36.835 7.117-9.788 12.703-18.985 13.744-36.835m-53.151.78 6.782 2.334-2.554 9.314-6.106-1.982-.624-1.648zm52.401.243c-.648 12.455-5.04 24.62-12.681 34.164-3.864-10.194-1.54-26.49 12.681-34.164m-36.528.067-.427 1.158.938.285.4-1.177zm-.939 2.735-.385 1.177.963.348.361-1.195zm40.007.214c-2.09 17.276-10.818 32.997-20.038 41.01 2.939 5.096 6.393 8.374 9.904 11.112l25.973-26.608-.101-8.875zm-68.635 4.585c-.16.632-.216.953-.216.953s.3-.295 1.088-.757c5.103-2.722 3.457 1.418 1.053 2.949-.538.306-1.09.67-1.09.67s.51.123 1.063.233c3.097.688 2.439 2.626-.792 2.324-.478-.045-1.039-.141-1.039-.113 0 .029.194.757.418 1.359 1.089 2.933-.943 3.16-2.279 1.296-.186-.26-.607-.976-.607-.976s-.132.542-.212 1.066c-1.154 4.597-4.003 4.48-2.94-.184.134-.481.296-1.345.296-1.345s-.64.414-1.338.747c-3.688 1.76-4.286-.051-.936-2.702.953-.754 1.276-1.05 1.276-1.05a9 9 0 0 1-1.623-.276c-2.674-.717-3.386-2.426.897-2.346.633.014 1.277.06 1.277.06s-.211-.983-.434-1.723c-1.033-3.427 1.048-3.835 2.805-.765.374.652.481.657.481.657-.054.002.11-1.169.536-2.252 2.126-4.213 2.959-.368 2.317 2.175zm45.934-3.409c-1.784 3.37-3.34 6.722-4.081 10.217l-6.94-.128c.48-3.098 1.706-6.321 3.171-9.73a265 265 0 0 0 7.85-.359m-18.322 1.495-.4 1.24 1.006.33.365-1.207zm-51.897 2.327c-.743 2.066-.992 4.367-1.404 6.212-.174 1.068.003 1.514.602 1.753.853.34 2.083-.123 2.771-1.176.388-.595.67-1.821.73-3.987l.066-1.93c-1.055-.21-1.775-.512-2.765-.873zm50.958.27-.332 1.138.97.386.371-1.15zm44.947.427c1.18.03 1.4.144 2.47.82l2.063 2.27a3.13 3.13 0 0 0-.88 2.196c0 1.68 1.275 3.042 2.845 3.042.778 0 1.997-.877 1.997-.877l3.27 3.622c-1.907.894-3.774-1.161-4.475-1.974-.165-.191-.207-.322-.207-.322s.029.1-.039.502c-.274 1.613-1.762 6.373-3.184 6.119-1.602-.285.03-7.09.047-6.933-1.101 1.246-6.468 2.57-6.092 1.18.747-2.76 4.76-3.825 5.289-4.305-2.135-1.372-4.84-5.18-3.104-5.34m-95.646.09c.68.05 1.147.138 1.608.344.216.062.225.254.249.435.004.815.195 3.21-.511 3.233-.785-.018-1.522.163-2.04.585-.415.34-.552.094-.44-.776.108-.842.5-2.613.669-3.33.026-.296.246-.505.465-.492m21.205.03c-1.57 0-2.844 1.362-2.844 3.042s1.274 3.042 2.844 3.042c1.571 0 2.845-1.363 2.845-3.042 0-1.68-1.275-3.042-2.845-3.042m0 1.064c1.02 0 1.85.886 1.85 1.978s-.828 1.975-1.85 1.975c-1.02 0-1.85-.882-1.85-1.975 0-1.091.83-1.978 1.85-1.978m14.678.037c6.52 12.036 5.765 28.557-1.923 40.576l8.264-.618-1.086 2.263-8.81.918c-1.347 1.318-2.572 2.824-3.896 4.233l-.014.498c-3.02.75-6.043 1.614-9.122 2.8-1.625-1.706-4.682-5.118-4.662-5.204l.197-1.104c20.954-11.433 14.823-34.361 13.349-36.247 2.247-2.886 4.93-5.602 7.703-8.114zm58.155 2.188c.848 0 1.534.737 1.534 1.645 0 .907-.685 1.644-1.534 1.644s-1.538-.737-1.538-1.644c0-.908.69-1.645 1.538-1.645m6.83.443 2.576 2.836a1.8 1.8 0 0 1-1.3.573c-1.02 0-1.85-.883-1.85-1.975 0-.563.22-1.074.574-1.434m-88.438.351c.848 0 1.535.734 1.535 1.642s-.686 1.644-1.535 1.644-1.537-.737-1.537-1.644c0-.908.689-1.642 1.537-1.642m-11.434.69c.72.257.551.976-.379 1.608-.601.41-1.153.5-1.682.197-1.003-.574 1.078-2.18 2.06-1.806zm11.879 4.023-9.26 9.58c.584-1.592.605-3.18.649-4.77 2.786.308 3.952-1.204 3.545-4.316 1.8.115 3.665-.088 5.066-.494m14.836 1.094c4.293 13.092.564 26.946-12.864 34.97.553-12.545 5.477-24.538 12.864-34.97m12.23 1.146c7.37 2.063 15.757 3.024 24.467 3.031.066 3.544.225 7.293.904 10.91-7.42-2.075-15.706-3.04-24.758-2.87.376-3.745-.225-7.994-.613-11.07zm54.644 1.937-7.848 9.812.33-5.358c2.642.36 3.584-1.13 3.194-4.076 1.441.191 2.881-.079 4.323-.378zm-76.252.543-.62 3.92c-1.565.045-3.103.64-3.083 4.379l-4.68-.06zm86.362.723c.848 0 1.535.737 1.535 1.645 0 .907-.686 1.644-1.535 1.644s-1.538-.737-1.538-1.644c0-.908.69-1.645 1.538-1.645m-93.48.498c.848 0 1.537.737 1.537 1.645 0 .907-.69 1.641-1.538 1.641s-1.537-.733-1.537-1.641.689-1.645 1.537-1.645m90.05 1.686-.82 5.935c-2.137-.2-3.921.152-3.373 4.174-1.81-.19-4.322.268-6.005.423zm-7.661 1.076c.848 0 1.537.737 1.537 1.644s-.689 1.641-1.537 1.641c-.849 0-1.538-.733-1.538-1.641 0-.907.69-1.644 1.538-1.644m-93.656 1.273c.849 0 1.538.738 1.538 1.645s-.69 1.641-1.538 1.641-1.534-.733-1.534-1.641c0-.907.685-1.645 1.534-1.645m5.098 1.945c1.963.471 1.054 5.364.613 6.695-.033.036 5.477-3.087 5.805-1.708.215 2.763-4.562 4.69-4.562 4.69s3.22 2.99 3.31 4.87c.009 1.216-1.345.991-3.104-.55-.751-.79-1.332-1.38-1.85-1.93a3.13 3.13 0 0 0 .985-2.304c0-1.68-1.275-3.042-2.845-3.042-.867 0-1.643.416-2.164 1.07-.408-.42-.87-.909-1.49-1.535-1.015-1.016-1.727-1.822-1.625-2.188 1.339-1.009 4.004 1.701 4.242 1.948-.2-.528 1.274-5.736 2.683-6.017zm-2.683 6.017.045.045zm83.678-2.195c.934-.014.876 2.258.543 3.44-.227.9-.452 1.637-.452 1.637s.787-.658 1.135-.832c2.54-1.272 3.488.169 2.207 1.84-.615.859-1.455 1.05-2.137 1.772.971.047 2.086.277 2.925.805.653.417 1.165.923 1.163 1.236-.003.702-1.615 1.081-3.125.9-.642.014-1.85-.353-1.85-.353s.5.902.684 1.44c.563 1.671.366 3.629-.449 3.626-1.362-.39-2.028-2.01-2.56-3.174-.438 1.297-.862 2.685-1.836 3.65-.967.956-1.462.162-1.412-1.458.02-.644.462-2.566.462-2.566-5.724 2.067-5.299-.73-.832-3.177-2.751-1.403-4.422-2.666.257-2.952-.124-.12-.941-2.8-.067-3.428.813-.583 2.545 1.42 2.628 1.518-.035-.198.456-1.768 1.279-2.851.63-.764 1.098-1.067 1.436-1.072zm-5.276 5.833h.013zm25.055-1.77c-.996.097-1.616 1.042-2.078 1.868-.093.167-.266.226-.33.448-.413 1.422-.774 3.125-.995 5.246.632.278 2.056.746 2.686.494.178-.08.123-.569.183-.73.993-2.676 1.485-4.677 1.485-5.906 0-.991-.32-1.481-.952-1.42zm-102.414-.122c1.02 0 1.85.887 1.85 1.979a2.02 2.02 0 0 1-.7 1.547c-1.192-1.271-1.801-1.936-2.6-2.772.34-.459.862-.754 1.45-.754m102.766.942c.25.65-.553 1.354-1.592 1.35-.619-.003-.82.09-.545-.483.328-.697 1.659-2.109 2.137-.867m-13.945-.458c.848 0 1.537.737 1.537 1.644s-.689 1.641-1.537 1.641c-.849 0-1.538-.733-1.538-1.64 0-.908.69-1.645 1.538-1.645m-81.068.116c.848 0 1.537.733 1.537 1.641 0 .907-.689 1.644-1.537 1.644-.849 0-1.535-.737-1.535-1.644s.686-1.641 1.535-1.641m72.706.667c-1.571 0-2.845 1.362-2.845 3.042s1.274 3.042 2.845 3.042c1.57 0 2.844-1.363 2.844-3.042 0-1.68-1.274-3.042-2.844-3.042m-38.017.408c-.748 3.505-1.9 6.856-3.352 10.172-2.743.177-5.707.314-7.662.61 3.256-6.098 3.335-7.532 4.54-10.763zm4.712.494a32 32 0 0 1 2.375.378c-1.4 5.27-3.25 10.679-5.64 15.886l-1.447-.24-.686-.906 2.298-.982-1.79-1.955 2.967-.96-1.825-1.925 2.932-.783-1.57-2.038 2.632-1.098-1.671-2.308 2.803-.824zm33.305.161c1.02 0 1.85.886 1.85 1.979 0 1.09-.829 1.974-1.85 1.974-1.02 0-1.85-.882-1.85-1.974s.829-1.979 1.85-1.979m-30.404.3.977.169-.302 1.12 1.114.254.36-1.21s.897.088.992.164c-1.166 5.087-5.293 15.732-5.346 15.676l-1.062-.169.281-1.075-.988-.15v-.012l-.476 1.169-1.055-.094c2.555-6.235 4.294-11.02 5.504-15.843zm51.924.405c.784-.004.737.428.168 2.008-.533 1.484-.733 2.079-.992 2.271-.618.469-1.948.076-1.84-.608.35-2.218.475-3.163 1.01-3.465.557-.117 1.101-.204 1.654-.207zm-47.993.183 2.55.528-2.134 1.356 1.356 1.693-2.62 1.195 1.59 1.761-2.529 1.106 1.538 1.937-2.624 1.184 1.786 1.656-2.95.996 1.118 1.835-1.11.663-1.37-.228c2.274-5.673 3.735-10.338 5.399-15.683zm6.266 1.356 4.996 1.453.998 1.907-2.343 8.463-6.656-2.09zm-9.928.817-.476 1.39 1.1.243.424-1.43zm-.967 3.192-.476 1.39 1.033.217.487-1.405zm-.974 2.806-.486 1.382 1.005.221.48-1.386zm46.935 2.544c.002 0-.51.395-.644.57.111.318.433.805.385 1.125-.044.24-.295.435-.671.864-.94 1.171-1.272 1.044-.726-.205.18-.393.26-.757.26-.757-.219.326-.382.712-.53 1.017l-.6 1.242c.6.222.998.698 1.384 1.007 0 0 .197-.566.333-1.109.19-.755.564-1.066 1.023-1.326a2.8 2.8 0 0 0 .565-.463c-.505-.55-.563-1.339-.78-1.965zm-47.975.341-.515 1.473 1.002.262.557-1.502zm-56.52 3.702c-.092 5.863.09 9.723-.102 16.046l14.843 20.572-2.316.832s-.025.285-.15.322c-3.172.933-8.317 1.862-8.317 1.862 3.827 9.344 6.308 21.028 4.596 32.7l38.417-.109zm81.246 9.936-1.324 1.42c-19.537-11.308-46.446-11.263-66.082 2.428l-1.601-1.255c21.43-14.684 47.798-14.592 69.006-2.593zm-80.529-7.879 45.216 69.464-5.31.083-39.867-55.774zm97.036 1.256s-1.306.362-2.403.737c-3.142 1.076-4.611 3.02-4.323 5.718.085.797.279.786 1.559-.079 2.996-2.023 3.183-2.112 6.915-3.282.289-.09.708-.022.708-.022l-.165 3.151c-6.22-.025-5.88 5.26-4.092 8.006-.626 1.27-1.996 5.705 2.516 7.392 2.25.48 4.634-1.476 4.561-1.577 4.152 2.1 8.97-1.42 5.213-7.519 1.412-2.66.416-4.634-.932-6.331 0 0 .228.02 2.193.408 2.981.588 4.12.483 4.12.483.003-2.868-2.218-4.15-6.852-4.54-3.282.494-9.018-2.57-9.018-2.545m-50.054.333q.337-.004.67.004l-.217 4.9-5.049.248-.329-4.881c1.739-.129 3.355-.264 4.925-.27zm6.05.12 5.416.704-.82 4.583-4.988-.574zm43.816.052c.556-.013.435.605-.217.742-.974.204-3.47 1.758-3.472 2.162-.001.26.123.223 1.037-.3.457-.261 1.41-.706 2.116-.993a44 44 0 0 0 1.794-.768c.84-.406 1.256-.126.952.64-.2.507-.279.546-2.224 1.207-1.76.597-2.084.752-3.202 1.517-.417.286-1.157.742-1.643 1.012-1.15.637-1.384.64-1.38-.217-.063-2.539 2.562-4.443 6.12-4.99zm-46.761.596c.677 0 1.226.587 1.226 1.311s-.55 1.311-1.226 1.311c-.677 0-1.226-.587-1.226-1.31 0-.725.549-1.312 1.226-1.312m-13.4.348.403 4.448-4.964 1.363-1.135-4.593c1.899-.497 3.797-.847 5.696-1.217zm63.948.337c1.36.222 1.253 3.554.557 4.133-1.071.825-1.729-.9-1.25-3.188.134-.689.382-.928.693-.945m-61.13.18c.676 0 1.225.587 1.225 1.31 0 .726-.549 1.312-1.226 1.312s-1.226-.587-1.226-1.311.55-1.311 1.226-1.311m24.248.382 5.613 1.637-1.374 4.646-5.265-1.585zm-3.055.09c.677 0 1.226.587 1.226 1.31 0 .725-.549 1.312-1.226 1.312s-1.226-.587-1.226-1.311.55-1.311 1.226-1.311m45.91.39c2.418.026 5.606 1.324 5.612 3.322-.049.568-5.065-.186-7.381-1.184-.822-.354-1.824-1.43-1.822-1.881.001-.268.49-.248.69.012.326.423 1.48.866 4.134 1.58 2.038.55 2.24.571 2.242.24.001-.3-1.204-.716-2.508-.947-.656-.115-1.269-.327-2.277-.42-.47 0-.585-.317-.192-.532.427-.136.945-.197 1.502-.19m-4.271 1.034c.61.306.83.915 1.167 1.236-.418.211-.606.425-1.283.48.013-.48-.11-1.05.116-1.716m-73.494.36c.677 0 1.226.586 1.226 1.31s-.55 1.311-1.226 1.311c-.677 0-1.226-.587-1.226-1.31 0-.725.549-1.312 1.226-1.312m-3.3.37 1.324 4.542-4.743 2.206-1.682-4.499c1.64-.922 3.433-1.592 5.101-2.248zm21.933.742s3.78.006 5.083.023l-.304 5.125-4.716.037zm-5.048.281.263 5.118-4.54.652-.897-5.147zm28.706.045c.677 0 1.226.587 1.226 1.31 0 .725-.55 1.312-1.226 1.312-.677 0-1.226-.587-1.226-1.311s.549-1.311 1.226-1.311m32.85.12c2.764.012 5.401 3.414 2.67 6.976 4.48 3.686-.391 9.882-4.352 6.271-5.663 5.949-8.828-2.129-6.484-4.271-3.461-6.082.79-9.925 5.177-7.242.808-1.225 1.907-1.74 2.989-1.735zm-46.274.146 4.981 1.184-1.001 5.062-4.866-1.057zm16.486.124 4.554 2.42-3.531 3.634-2.624-1.398zm-29.2.573c.677 0 1.226.587 1.226 1.31 0 .725-.549 1.312-1.226 1.312s-1.225-.587-1.225-1.311.548-1.311 1.225-1.311m9.841.165c.677 0 1.226.587 1.226 1.31 0 .725-.55 1.312-1.226 1.312-1.805-.303-1.32-2.58 0-2.623zm-22.683.737 1.11 5.062-4.614 1.667-1.65-4.93zm3.17.36c.677 0 1.226.587 1.226 1.311s-.549 1.311-1.226 1.311-1.225-.587-1.225-1.31c0-.725.549-1.312 1.225-1.312m68.296 2.334a30 30 0 0 1-.803 1.005c-1.148-.506-2.26-.304-3.005.242 0 0-.791-.674-1.513-1.3-1.252-1.081-1.67-1.328-1.67-.875 0 .093.425.556.942 1.03 1.412 1.292 1.7 1.757 1.7 1.757-.34 1.173-.335 2.09.313 3.076 0 0 .026.129-.47.688-.899 1.015-1.826 2.58-1.613 2.811.266.287 1.017-.4 1.961-1.762.672-.972.874-.993.874-.993 1.147.331 1.783.63 2.929-.381 0 0 .432.14 1.297.903 1.346 1.188 1.83 1.444 1.976 1.042.119-.33-.058-.549-1.199-1.476a90 90 0 0 1-1.568-1.312c.242-.426.415-1.94-.415-2.975 0 0 .033.068 1.26-1.633.816-1.131.958-1.274.688-1.517-.361-.505-1.56 1.51-1.682 1.67zm-35.582-1.45 4.495 2.02-1.608 5.023-4.34-1.895zm-49.455.337c.677 0 1.226.588 1.226 1.311 0 .724-.55 1.312-1.226 1.312-.677 0-1.226-.588-1.226-1.312 0-.723.549-1.31 1.226-1.31m45.98.135c.676 0 1.225.587 1.225 1.311s-.549 1.311-1.226 1.311-1.225-.587-1.225-1.31c0-.725.549-1.312 1.225-1.312m-49.12.36 1.472 3.896-3.346-2.668zm36.886 1.004 4.477.565-.707 4.564-3.86-.375zm-4.887.011-.045 4.69-4.253.196-.36-4.684zm-21.88.854c.676 0 1.225.587 1.225 1.311s-.549 1.311-1.226 1.311-1.226-.587-1.226-1.31c0-.725.55-1.312 1.226-1.312m-3.392.094 1.73 4.713-2.682 1.386-3.599-3.642zm16.006.06.694 4.484-4.435 1.173-1.076-4.564zm63.391.044c.966 0 1.749.837 1.749 1.87 0 1.032-.783 1.87-1.749 1.87-.965 0-1.748-.838-1.748-1.87s.783-1.87 1.748-1.87m-51.893.143c.677 0 1.226.587 1.226 1.31 0 .725-.549 1.312-1.226 1.312s-1.225-.587-1.225-1.311.548-1.311 1.225-1.311m12.08.483 4.729 1.637-1.59 4.05-4.086-1.184zm-20.96.169c.677 0 1.226.587 1.226 1.31 0 .725-.55 1.312-1.226 1.312-.677 0-1.226-.587-1.226-1.311s.549-1.311 1.226-1.311m17.982.483c.677 0 1.226.587 1.226 1.311s-.55 1.311-1.226 1.311c-.677 0-1.226-.587-1.226-1.311s.549-1.311 1.226-1.311m-30.03 1.536 1.629 4.009-4.45 2.057-1.937-4.088zm3.152.24c.677 0 1.226.587 1.226 1.31 0 .726-.549 1.312-1.226 1.312s-1.225-.587-1.225-1.311.548-1.311 1.225-1.311m16.392 1.21c7.304-.016 13.898 1.617 19.19 3.96l-1.576 1.582c-17.168-6.31-28.395-3.467-39.909 1.932l-1.163-1.536c8.138-4.257 16.154-5.921 23.458-5.938m19.422.05c.677 0 1.226.586 1.226 1.31s-.549 1.311-1.226 1.311-1.226-.587-1.226-1.31c0-.725.55-1.312 1.226-1.312m-44.74 2.876c.985.062 1.08 2.028.62 1.461l-1.096-1.355a1 1 0 0 1 .476-.106m45.896.813c-.036 1.49-1.357 11.482-5.812 18.35-.27-3.473-1.055-7.627-1.93-10.4 0 0 4.794-4.737 7.742-7.949zm-56.994 15.14 23.184 33.434-2.434-.018c-.509-2.455-1.245-4.967-2.69-6.845-1.174-1.525-2.225-2.674-4.33-3.698-1.267-.616-1.43-.485-1.51-1.525-.383-5.847-4.811-9.525-8.202-10.924-.327-3.535-1.819-7.012-5.56-9.94zm-2.257.8c2.118 1.558 4.44 2.908 5.69 9.047.094 1.283.168 1.147 1.11 1.524 3.695 1.158 6.91 5.908 7.196 10.06-.003 1.251.379 1.363 1.822 2.01 1.772.797 3.611 2.48 4.652 4.137 1.549 2.383 2.096 5.99 1.962 5.818l-1.275.008c-.91-6.116-4.508-8.556-8.314-9.7.297-8.634-5.981-11.329-8.174-11.734.129-6.22-3.634-8.785-6.062-10.872.452-.19 1.393-.297 1.393-.297m-3.75.859c1.896.662 3.333 3.488 3.187 4.789 2.5.337 5.13 2.923 4.553 5.616-.185.115-.478.137-.767-.172.67-5.225-6.623-2.638-3.709 1.142l-1.303.91c-1.048-5.229-2.339-8.191-3.74-11.97.511-.144 1.779-.315 1.779-.315m6.039 10.956c.648 0 1.17.562 1.17 1.255s-.522 1.256-1.17 1.256-1.174-.563-1.174-1.256.526-1.255 1.174-1.255m6.262 5.64c2.785.842 3.686 3.858 3.595 4.955l-.61-.015c-.978-4.777-6.07-2.178-3.944 1.631-2.722 1.076-2.507 3.763-1.706 4.825 1.106 1.467 3.927 1.42 4.786-.836 2.646 3.661 6.296-.447 3.076-3.859 2.638 1.04 3.06 4.82 2.664 6 1.225.446 2.636 2.524 2.447 2.512l-19.765.004s.957-8.53-.06-14.967c1.316.338 2.198.678 3.711-1.222 2.448 2.169 4.209.533 4.081-1.34-.188-1.311-.82-1.961-1.87-2.653 2.142-.563 3.763 3.401 3.595 4.966zm2.205 6.01c.667 0 1.208.578 1.208 1.292 0 .713-.54 1.292-1.208 1.292s-1.209-.579-1.209-1.292.541-1.293 1.209-1.293"/></svg>