<svg xmlns="http://www.w3.org/2000/svg" xml:space="preserve" width="222.783" height="323.556" viewBox="0 0 167.087 242.667"><path d="M166.837 235.548c0 3.777-3.087 6.869-6.871 6.869H7.11c-3.775 0-6.861-3.092-6.861-6.87V7.12C.25 3.343 3.336.25 7.11.25h152.856c3.784 0 6.87 3.093 6.87 6.87z" style="fill:#fff"/><text xml:space="preserve" x=".519" y="24.819" style="font-size:28.70453072px;font-style:normal;font-weight:400;line-height:125%;letter-spacing:0;word-spacing:0;fill:#000;fill-opacity:1;stroke:none;font-family:Bitstream Vera Sans"><tspan x=".519" y="24.819" style="font-style:normal;font-variant:normal;font-weight:400;font-stretch:normal;font-family:Arial;-inkscape-font-specification:Arial">Q</tspan></text><path d="M50.291 22.698s2.375-1.9 2.375-4.534c0-1.542-1.369-4.102-4.534-4.102s-4.534 2.561-4.534 4.102c0 2.634 2.375 4.534 2.375 4.534-2.638-2.055-7.34-.652-7.34 3.455 0 2.056 1.68 4.318 4.317 4.318 3.165 0 4.534-3.455 4.534-3.455s.402 3.938-1.943 6.046h5.182c-2.345-2.107-1.943-6.046-1.943-6.046s1.37 3.455 4.534 3.455c2.64 0 4.318-2.263 4.318-4.318 0-4.107-4.703-5.51-7.34-3.455" style="fill:#000" transform="translate(-37.015 13.955)scale(1.00122)"/><text xml:space="preserve" x="-166.366" y="-218.677" style="font-size:28.70453262px;font-style:normal;font-weight:400;line-height:125%;letter-spacing:0;word-spacing:0;fill:#000;fill-opacity:1;stroke:none;font-family:Bitstream Vera Sans" transform="scale(-1)"><tspan x="-166.366" y="-218.677" style="font-style:normal;font-variant:normal;font-weight:400;font-stretch:normal;font-family:Arial;-inkscape-font-specification:Arial">Q</tspan></text><path d="M50.291 22.698s2.375-1.9 2.375-4.534c0-1.542-1.369-4.102-4.534-4.102s-4.534 2.561-4.534 4.102c0 2.634 2.375 4.534 2.375 4.534-2.638-2.055-7.34-.652-7.34 3.455 0 2.056 1.68 4.318 4.317 4.318 3.165 0 4.534-3.455 4.534-3.455s.402 3.938-1.943 6.046h5.182c-2.345-2.107-1.943-6.046-1.943-6.046s1.37 3.455 4.534 3.455c2.64 0 4.318-2.263 4.318-4.318 0-4.107-4.703-5.51-7.34-3.455" style="fill:#000" transform="translate(203.9 229.54)scale(-1.00122)"/><path d="M119.966 282.755c.52-7.911.041-16.403.389-22.841-.246-.454.633-1.705.68-1.705-.526-.956-.707-3.406-.05-5.581 5.136-19.738 14.48-35.11 24.108-49.447 7.904 23.643-16.722 40.294-21.865 60.979-1.715 7.163-1.445 12.161-2.095 18.629zm-41 .388-29.433-45.258 6.365-3.114 30.257 48.198zm37.77-84.035c.262 1.3 1.287 1.997 2.372 1.399 1.063-.585 1.186-.625.526.402-1.457 2.268 1.509 4.454 3.405 2.507.674-.692.785-1.817.17-2.386-.694-.643-.845-.977.177-.488 2.569 1.034 3.976-2.682 1.486-3.926-.642-.321-1.89-.032-2.359.459-.567.593-.647.385-.497-.074.089-.272.152-.713.364-1.239.167-.413.286-.975.286-.975l-2.623.033s.213.6.429 1.106c.203.475.28.831.379 1.029.355.712-.07.449-.78-.076-1.003-.743-2.258-.531-2.97.45-.262.577-.481 1.177-.365 1.779m3.71-36.878 5.639-.179 6.238 17.101c-4.946 8.251-6.265 17.548-.47 26.956l-17.884.066c4.165-14.204 4.781-29.261 6.477-43.944m5.944 22.256c.755-.678.85-1.906.158-2.723-.869-1.027-.671-1.08.494-.411 1.681.966 3.282-1.135 2.287-2.987-.632-1.177-2.667-1.433-3.442-.384-.646.874-.576.075-.08-1.086.182-.427.444-1.229.444-1.229l-2.733.062s.354.773.544 1.27c.502 1.317.523 1.735-.248.888-1.671-1.398-3.625-.378-3.639 1.635.02 1.547 1.425 2.538 2.652 1.812.745-.441 1.08-.547.242.464-.578.963-.367 2.189.399 2.763 1.05.632 2.172.593 2.922-.073zm-37.768 5.413c.219-.162.3-.056.166.162-.114.186-.408.451-.659.731-1.272 1.421.382 3.221 2.437 2.938 1.399-.193 2.216-2.396 1.18-3.263-.335-.223-.598-.265-.853-.571-.021-.122.036-.205.161-.157.183.076.556.376.744.427 1.301.35 2.282-.189 2.61-1.108.207-1.062.003-2.202-.866-2.796-.808-.539-2-.382-2.693.543-.71.946-.809.047-.23-1.258.217-.489.365-1.185.365-1.185l-2.512.139s.135.54.357 1.161c.561 1.418.962 1.824.248 1.092-3.073-1.801-4.087.659-4.135 1.637-.091 1.841 2.591 2.879 3.68 1.507zm12.228-27.782 4.534.006c-3.38 18.182-10.353 33.422-22.117 43.925l-22.18-.021-10.704-7.45 4.116-5.369c28.164 2.842 40.126-11.144 46.351-31.09zm-20.317 42.177c1.326-.588 1.875-2.092.995-3.099-.796-.91-.877-1.195.343-.487 1.634.947 3.207-.953 2.403-2.808-.5-1.154-2.07-1.508-3.198-.721-.991.743-.973.412-.457-.759.255-.579.451-1.507.451-1.507l-2.779.045s.202.66.405 1.113c.466 1.039.635 1.516.419 1.519-.104.001-.448-.315-.65-.499-.554-.507-2.067-.6-2.628-.062-1.66 1.59-.718 4.364 1.397 3.847 1.366-.334 1.677-.854.548.434-1.392 1.587.774 3.86 2.748 2.984zm-17.531-.514c1.148-.544 1.53-1.87.885-2.724-.649-.86-.971-1.414.183-.641 1.533.767 2.868-.259 2.845-2-.024-1.824-2.074-2.67-3.578-1.569-.254.186-.567.354-.623.355-.184.002.148-.985.513-1.631.158-.281.437-.852.437-.852l-2.78-.1s.157.757.376 1.339c.445 1.182.555 1.576-.223.906-2.094-1.949-4.318.543-3.434 2.689.468 1.208 1.894 1.205 2.735.599.762-.594.374.192-.149.818-1.424 1.706.673 3.818 2.812 2.813zm126.818-45.838.153 3.362-35.85 30.004-1.511-2.304zm-133.561 6.576c5.163-3.69 10.9-10.308 16.57-13.763 4.167 9.523-5.541 18.889-16.57 13.763m94.892-2.612c-5.238-17.844 19.329-16.707 16.253-12.909zM34.385 150.488l35.49-29.058 1.621 2.433-37.441 30.804zm97.327-29.442c.101.303 1.179 1.455 1.181 1.56-.308-.229-2.136-1.248-3.026-.251-.311.365-.705 1.236-.66 2.138.377 1.614 2.216 2.179 3.519 1.071.375-.319.697-.706.774-.57.067.118-.137.673-.304 1.113-.192.452-.906 1.402-.386 1.4l2.525-.01s-.094-.591-.398-1.245c-.567-1.222-.545-1.886.138-1.006 1.33 1.713 3.898.277 3.625-1.779-.197-1.484-1.702-2.33-2.806-1.62-.121.078-.475.43-.525.432-.135.006.234-.561.478-1.031.811-1.563-.408-3.006-2.268-2.847-.601.051-1.258.432-1.261.485-.698.565-.811 1.539-.604 2.161zm30.664-14.604c3.564 3.264 7.126 5.655 10.687 7.742l-3.345 5.306c-22.753-2.058-39.277 6.971-46.129 31.368l-3.749.729c1.379-15.213 6.444-30.307 21.481-45.077zm-21.794 3.685c.008.721 1.334 1.576 1.04 1.775-.135.072-.925-.612-1.288-.65-2.627-.274-3.163 3.811-.559 4.264.512.089 1.568-.231 1.882-.489.416-.343.704-.625.79-.594.16.057-.202.787-.487 1.327-.264.502-.632 1.484-.632 1.484 1.042.186 2.047.227 2.986.007 0 0-.272-.852-.542-1.502-.345-.83-.419-1.357-.188-1.302l.422.462c1.296 1.108 3.193.629 3.688-1.106.465-1.632-1.49-3.306-2.847-2.391-.474.32-.475.08-.003-.636.431-.654.323-1.643-.07-2.23-1.43-1.512-4.258-.423-4.189 1.581zm21.45 4.791c-.072-.364.02-.26.404.137 1.2 1.244 3.261 1.046 3.783-.607.52-1.65-1.084-3.532-2.477-2.882-.725.338-.738.219-.324-.321 1.067-1.394-.117-3.225-1.951-3.201-1.677.022-2.662 1.638-1.843 3.023.335.567.227.688-.361.405-1.717-.828-3.311 1.889-2.051 3.497.74.945 2.45 1.041 3.426.099.519-.501.516-.262.14.774-.327.902-.691 1.631-.691 1.631l2.968.02s-.796-1.505-1.021-2.575zm-63.483 36.606s-4.432-12.254-5.953-18.129c3.249-7.827 7.701-15.415.165-26.659l18.257-.089c-5.613 12.801-5.666 45.077-6.99 45.158zm1.571-14.356s-.904-1.238-.961-2.242c-.11-.644.056-.684.393-.028 1.63 1.794 3.828.054 3.834-1.538.184-1.457-1.523-2.702-2.615-1.972-.766.511-.974.365-.293-.585.96-1.338-.093-3.075-1.815-3.052-2.241.03-3.094 2.125-1.485 3.616 1.189 1.101.081.451-.861.059-1.836-.765-3.035 1.106-2.208 2.99.571 1.3 2.239 1.636 3.215.58.535-.578 1.029-.918.74-.044-.151.706-.967 2.203-.967 2.203zm2.785-19.662s-1.084-1.353-1.272-2.372c-.064-.375.202-.281.817.245 1.968 1.682 4.66-1.347 2.826-3.19-.63-.633-1.27-.816-2.004-.431-.916.481-.843.248-.386-.248.669-.728.617-2.053-.107-2.695-2.001-1.775-5.156.883-3.296 2.781.81.826.426.72-.464.19-1.684-1.003-3.54 1.758-2.274 3.374 1.5 1.263 2.621.638 3.655-.16.225-.119.419-.174.42-.076.002.183-1.029 2.625-1.029 2.625zm-23.962-7.59c-1.114-.072-1.932-10.479-.577-13.777 2.874-13.908 11.713-24.053 17.209-32.58 8.82-12.7 7.676-33.761 8.053-32.922l1.255.143s-.945 12.35-.384 17.928c.581 4.904.457 5.209.107 5.697-.092.457.048 1.794-.05 2.253-3.899 18.171-13.256 36.867-22.929 50.986zm90.898-31.921-29.976-47.046 7.178-.661c2.673 4.216 28.713 44.414 28.713 44.414z" style="fill:#d40000" transform="matrix(.73617 0 0 .79637 1.214 -3.997)"/><path d="M47.254 284.05c3.371-12.462-5.894-41.41-11.655-45.183 6.746-.299 14.86-.194 14.602-.825 0 0 28.782 45.06 28.549 45.299-.221.226-31.497.709-31.497.709zm116.121-70.908c-6.954-.973-4.225-6.75.244-7.358-.582.098.473-2.87 4.075-4.077.816-1.486 1.452-4.023 2.199-5.202-2.16.707-4.782 2.538-14.602 1.12.845-4.654 10.234-5.467 13.622-4.755 1.957.45 3.893 3.36 4.488 3.42 6.026-1.017 13.706 4.42 11.398 9.96-.358.79-1.278-.935-3.309-1.666-6.563-2.364-7.03-5.912-8.542-7.499-.548-.102-3.437 5.644-3.437 5.644l.914 3.896c1.573-.147 8.573 4.158-.124 7.102-2.389 8.299-6.933 2.455-6.926-.585m16.396-37.07c-.372-.377.287-2.96 1.166-4.447.475-.803 1.575-1.344 2.222-1.232 1.151.2.975 1.873-.539 6.775-.062.707-1.618.784-2.848-1.095zm-138.519-34.01c-1.908-.003-.208-5.194.962-6.844.384-.512 1.909.574 1.989 1.326.143 1.346-1.915 6.05-2.951 5.518m-1.428-35.272c2.33.557 6.01 2.893 7.769 4.175 2.187 1.625 1.598 4.826 3.346 5.107 1.179-.586 3.332-5.831 3.332-5.831s.537-2.693-1.003-3.519c-3.834-2.055-3.771-4.283-3.528-4.482 1.13-2.946 3.392-2.427 4.613-2.594.023-1.612-.038-5.014 3.299-4.671 2.918.27 3.215 4.438 1.988 4.479-.024-.07 5.516-.807 5.469 2.849-.025 1.982-3.306 4.524-4.332 3.605 0 0 .557 3.949-4.406 5.313-1.157 1.183-2.094 6.206-2.095 5.761 2.988-2.708 7.676-3.352 15.075-2.397-4.565 8.506-17.245 4.556-18.239 2.914-6.38-1.91-12.365-4.402-11.289-10.71zm54.539-20.478c6.745.598 14.118-1.534 19.729-.425.639.086 1.335 1.029 1.72 1.238 2.903 1.575 5.935 1.077 10.597-.698 1.151-.438 22.534-.317 22.534-.317 4.886 7.184 13.574 20.7 13.761 20.241 0 0-11.853-.109-17.313.225-3.839.235-1.581.754-4.247.875-18.655 14.072-22.148 44.404-22.148 44.404s5.935-1.575 7.49.061c7.3-21.502 21.225-31.343 40.676-29.463 8.988.869 19.73 9.683 19.73 9.683l-19.199 15.69c-14.914-7.484-21.25 14.68-16.73 14.726l38.66-31.738s.668 2.583.602 2.67c-2.752 3.625-48.843 41.198-48.843 41.198l-2.032-2.235s-1.271 1.133-1.94 1.887c-.064 1.228.371 2.267 1.304 3.226-9.131 7.359-9.405 20.826-2.647 28.163 0 0-2.99.218-3.304.273-3.798.659-7.767-18.068-.254-26.802-3.816-7.443-6.178-17.576-6.655-18.045.104 1.194-5.996.81-5.996.81-.434 15.143-1.982 29.995-5.591 44.31l28.021.544-11.884 20.725s-13.385-.307-19.153-.698c-6.028-3.491-9.493-.82-15.141.489-8.04.253-19.877-.096-19.877.013-4.031-7.964-8.358-13.817-14.236-20.639-.748-1.24 23.8-.525 23.8-.525s12.23-18.586 14.454-23.833c1.736-4.095 5.617-18.998 5.617-18.998.182.776-2.236-3.869-7.847-3.752-4.575 30.853-41.204 41.32-63.3 21.515l-.213-3.586 48.517-39.523 2.165 2.491c-.465-.371-29.785 24.133-29.297 23.977 8.715 4.538 18.78.829 17.577-14.125 6.886-5 12.981-10.821 18.974-16.763.128-.232 6.731 14.728 6.575 17.61 3.777-1.277 6.02 1.379 5.948.925-1.377-8.657 6.137-41.506 6.274-45.282-4.213-.33-9.798-.163-18.557-.492 7.064 13.603 4.64 22.833-5.177 31.243l-2.062-2.58c.836.463 14.341-11.274 3.41-28.744-.499.043-5.743-.462-5.743-.462s10.713-17.077 11.251-19.491zm52.101-56.391s30.672-.802 30.684.097c-.944 16.481 2.928 31.505 12.228 45.388 0 0-13.587-.453-13.338-.283z" style="fill:#e2cf00" transform="matrix(.73617 0 0 .79637 1.214 -3.997)"/><path d="m190.996 30.005-159.447-.196.989 255.914h159.251zm-14.584 1.015c-.013-.014-2.056 27.072 12.078 44.813-8.633-1.308-13.576.015-18.603 3.567l.688.708c6.924-4.254 12.788-3.135 18.798-2.472l-.164 34.848c-.043 1.692-7.024.937-11.438-2.383-2.096-1.237-4.8-3.836-6.012-5.785-.369-.593-.756-1.179-.864-1.302-.405-.467-2.923-5.157-7.545-14.038-2.35-4.515-5.456-10.675-7.979-15.449-1.633-3.091-4.67-8.93-4.884-9.395-.447-.971-3.753-7.421-5.04-9.768-3.399-6.199-8.887-17.017-10.845-20.894-.433-1.006-1.091-1.47.088-1.437.262.006.523.022.674.058.208.104.46-.356.46-.356zM34.434 177.557l-.101-2.74L80.67 136.6l1.479 1.902zm44.771-66.941-.613.209c-1.191-5.307-.512-12.396.891-17.727 2.044-7.4 5.861-13.334 10.11-19.298 9.714-13.619 14.015-23.886 13.841-42.181l1.388.148c-.059 2.89-.441 5.063-.552 8.908-.174 4.12-.105 7.253.333 11.276.215 1.977.345 3.258.012 3.515-.159.129-.302.813-.157 1.065a87 87 0 0 1-.098 1.644c-2.225 10.892-14.155 38.822-25.156 52.44zm5.794 24.762-2.455-3.013s-1.889-1.523-.191-3.243c4.906-4.975 4.938-11.298.196-16.984-.319-.722 1.473-4.37 1.473-4.37l3.734.062c5.824 7.085 7.412 19.604-2.757 27.548m3.431-28.118c.116-.485-5.533-.298-5.533-.298 3.509-5.23 6.493-10.61 9.426-16.005 4.549-8.165 10.858-22.47 12.835-32.839 1.472 12.128 3.614 30.127 13.992 30.837 3.403.233 7.343-2.099 7.986-1.713l21.56-.171c4.422 8.965 9.172 14.74 14.797 20.872 4.042 2.305 8.972 4.129 13.736 5.313 2.707.672 2.966.225 8.305.986 1.409.201 3.556-.394 3.534-.394-4.265 3.365-9.186 2.411-14.605.971a13 13 0 0 1-.938-.286l-4.092 6.156c-9.108-2.159-38.349-.63-46.058 31.162 0 0 .792.404.607.185 6.123-27.595 31.983-33.096 44.312-30.348l-1.06 1.618c-20.457-2.502-37.113 10.293-41.08 28.437l.395.358c7.676-27.432 39.947-37.582 59.954-18.568l3.67-2.598-.118 3.517-49.188 41.212-1.967-2.034s-.346.262-.739.589c-1.269 1.056-1.77 1.315-1.414 1.904.356.59 1.736 1.918 1.796 2.067-8.159 6.648-10.747 19.469-2.995 28.447.865.952.708 1.207.55.135-6.954-7.568-6.073-20.952 2.597-27.294l1.747 2.29c-3.817 8.382-5.854 21.455 4.184 22.587 3.596 9.637-.541 21.056-5.16 28.71-4.894 8.818-10.826 16.147-14.529 25.752-1.799 4.008-4.663 15.894-4.512 24.978l-1.079-.011c-.002-3.707.246-8.102.277-10.912.151-13.699.131-12.886.439-13.234.102-.115.389-.237.417-.333.041-.144-.224-.428-.328-.763-.107-.343-.288-.946-.27-1.454s.494-1.248.403-1.413c-2.159-7.56-2.337-21.146-9.306-27.387-3.418-2.935-7.957-3.053-13.837-.645-12.974.023-11.051.69-21.528.092-4.335-7.936-9.591-15.665-15.279-21.396-2.658-2.965-6.355-4.589-9.83-6.737 1.394-2.644 2.975-4.578 4.703-5.833.359-.511.603-1.063 1.067-1.496 35.33 3.394 42.991-30.821 41.379-29.951l-.313.271c-9.659 35.253-44.033 33.969-61.312 18.728 0 0-2.441 2.12-2.449-.207-.007-2.115.765-2.728.765-2.728l48.497-39.547c.886.564 1.841 2.444 2.239 2.233.894-.475 2.21-1.428 2.169-1.996-.031-.437-1.773-3.181-1.773-3.181 12.974-13.432 7.122-19.433 2.957-28.637zm18.384-75.491c.234-.002.454.109.618.368.296.467-.882 3.191-1.609 3.671-.688.454-.739-.074-.241-2.709.146-.773.717-1.327 1.232-1.331zm71.159.047h11.235l.083 43.142c-8.395-11.799-12.646-25.387-11.317-43.142Zm-68.144.104c.28-.013.528.065.609.269.288.727-1.359 3.869-3.397 6.474-1.058 1.351-1.591 1.743-1.921 1.42-.279-.615-.27-1.33.703-2.454.803-.926 2.169-3.092 2.733-4.305.243-.711.485-1.354 1.273-1.405zm11.534.154c.327.003.664-.002.758.153 1.961 3.999 5.654 7.608 9.433 9.537.551.313.291 1.097.477 1.648-4.245-.631-9.816-6.644-11.306-11.034-.008-.318.311-.306.639-.304zm6.638-.003c.845.858 2.173 1.894 2.473 2.874.184.6.318 1.29.189 1.614-.737.461-4.403-3.791-4.261-4.288.466-.306 1.051-.371 1.6-.2zm-15.893-.061c.36.014.911-.007.991.264.458 1.855-3.777 9.08-6.866 11.127-1.098.728-1.168.536-1.081-.684.059-.82.138-.755 1.265-1.831 1.609-1.536 3.365-3.906 4.332-6.007 1.239-2.694.936-2.863 1.359-2.869m2.874.028c.403.001.779.137.882.316.141.243-.048.636-.179 1.123-1.395 3.949-4.864 9.631-8.937 12.859-1.584 1.222-1.853 1.214-1.968-.047-.067-.733.27-.947 1.015-1.463 3.456-2.396 6.562-6.554 7.876-10.801.256-.827.159-1.57.609-1.821.209-.116.461-.166.703-.165zm21.447 6.842c.165.284 1.351 2.137.382 1.439-.398-.326-1.12-1.148-2.27-2.454-2.72-3.088-2.802-2.897-2.748-3.665.027-1.001-.689-2.643.857-2.217 1.521 1.787 2.476 4.668 3.778 6.897zm-12.382-6.781c.308-.005.673.052.977.113 1.791 3.367 6.162 6.323 6.145 6.307 0 0 .11 1.465-.049 1.724-.091.451-6.944-4.755-7.706-7.871.073-.201.324-.268.632-.274zm-4.877.061c1.609 2.956 4.929 9.663 12.729 12.372.561.122 1.158 1.718.729 2.158-4.277-1.24-12.035-5.427-14.669-14.489.257-.241.939-.204 1.212-.041zm-2.095.574c-.268.005 3.683 11.405 14.936 14.804.973.305 1.544.726 1.482 1.302-.078.726-.054.816-1.137.274-3.07-1.604-7.446-2.354-11.101-.497-.57.29-1.149 1.08-.69 1.578.262.253.907.065 1.73-.255 4.254-1.655 10.765-.682 11.915 1.921.817 1.847.955 3.209.51 3.435-.34.173-.918-.448-1.935-1.34-3.237-2.84-7.107-3.629-10.183-.901-.666.59-1.325.488-1.557.731-.226.236.042.766.231 1.283.198.541.206.689.009 1.147-.27.626-.28 1.428-.25 2.024.072 1.454 1.035 2.707 3.803 4.624 2.156 1.494 3.842 2.334 1.217.208-4.53-3.67-5.352-5.164-2.416-3.893 2.932 1.178 6.998-.003 9.876-2.199.98-.016 1.563-.187 2.079.189 2.147 5.041 3.903 11.749 6.757 18.251-3.409 3.852-15.278 13.284-23.74 12.947-7.307-.29-9.887-12.25-11.503-18.859-.544-2.797-1.165-5.643-1.09-9.593 0 0 .132-.106.321-.071 1.225.231 3.332.392 4.403.142 1.945-.454 2.335-.801 2.449-.514.134.338-.676 1.098-2.09 2.067-.615.421-2.407 1.285-2.218 1.411.428.286 2.595-.867 2.959-1.175.567-.48.956-.511 1.227-.245.318.31.383-.02-.665 2.581-1.155 2.867-1.045 3.127 1.208 4.893.783.614 1.499 1.228 1.67 1.496.216.352.362.768.462.901.381.509.147-.311-.08-1.614-.263-.964-1.208-1.922-1.878-2.388-1.229-.855-1.039-1.694-.021-4.605 3.003-8.588 2.237-12.418-1.069-14.284-1.491-.841-5.665-.617-6.981.483-.648.542-.56-.522-.456-.593 7.931-5.451 9.791-10.651 11.814-15.666zm15.308 4.208c2.251 2.234 5.053 5.268 6.74 7.426.926 1.15 1.415 2.331 2.152 3.539.14.219.279.469.179.571-.037.043-.36-.144-.538-.278-1.65-1.243-8.461-8.999-8.461-8.999-.314-1.273-.533-1.707-.072-2.258zm1.346 5.264s5.902 6.443 9.282 9.612c.665 1.396 1.939 3.408 1.906 3.747-.014.15-.722-.396-.722-.396-3.736-3.442-7.187-7.31-10.773-10.976.034.019-.284-1.517-.288-2.138.082-.304.44.031.595.151m12.802 16.516c.794 1.292 1.373 2.449 1.755 3.209.63 1.203.42 1.237-.137.793-4.222-3.456-7.758-7.663-11.736-11.518-.517-.532-1.548-1.713-1.548-1.713.037.043-1.296-2.778-.459-2.722.654.255 1.084.966 1.507 1.418 2.085 2.233 6.059 6.072 10.617 10.534zm-36.835-9.209c1.741-.052 3.457.398 4.322 1.466.787.972 1.105 2.509.669 2.956-.273.279-1.24-.507-1.24-.507-4.101-2.301-5.513-1.193-7.739-.517-.317.096-.655-.759-.249-1.606.817-1.407 2.887-1.751 4.236-1.792zm25.807 2.179c4.387 4.398 8.843 9.284 13.59 13.066.665.567 1.122.931 1.425 1.236a505 505 0 0 1 2.068 4.199c-5.087-3.557-16.546-15.819-16.42-15.737.115.057-.959-2.244-.663-2.765zm-8.586.728c.801-.008 1.679.244 2.372.519 2.21.877 3.601 1.811 1.312 1.499-3.185-.433-4.274-.456-5.441-.269-2.166.348-2.335.589-2.525.245-.497-.903 1.878-1.972 4.282-1.995zm-18.084.258a6.2 6.2 0 0 1 2.515.543c2.702 1.181 3.178 1.951.878 1.581-1.194-.192-3.383-.172-4.95.231-.497.128-1.046.417-1.175.458-.556.178-.71-.238-.472-.934.411-1.204 1.68-1.869 3.204-1.878zm19.562 3.448.558.041c-.697 3.946-4.638 3.561-5.699.172l.558-.012c2.076 3.241 3.629 1.335 4.584-.2zm2.196.205c1.821-.02 1.704 1.073-.193 1.807-1.454.563-1.618.461-1.085-.628.512-1.047.459-1.171 1.279-1.18zm-18.767.142c.178 3.556-4.777 4.207-5.081.33l.471-.023c1.624 3.049 3.498 1.208 4.084-.307zm2.204.486c.561.383.213.909-1.005 1.652-1.099.683-1.381-.143-.476-1.289.38-.37 1.004-.675 1.481-.363m8.593-.005c.217-.068.73.893.293 1.123-.26.137-.646-.257-.689-.547-.034-.23.111-.486.396-.576m14.836.222c3.306 3.642 6.635 7.3 16.369 15.227 0 0 1.375 2.446 1.675 3.402-.236.292-.36.258-1.043-.08-6.349-4.901-12.251-10.862-16.874-16.402-.22-.782-.709-1.537-.127-2.147m-31.521.363c.375-.013.905.826.613 1.331-.242.189-.616-.105-.779-.335-.162-.229-.157-.649-.057-.835.059-.109.135-.158.222-.16zm32.904 5.044c-.026-.127 15.376 15.483 17.351 15.185.92.541 3.209 4.978 3.209 4.978.066.141.055.401-.316.217-2.603-1.288-13.489-10.32-19.054-17.044-.407-.979-.9-2.223-1.189-3.336zm-18.307 2.292c2.686 1.298 1.53 3.958-1.304 2.266-2.234-1.358-4.005-1.481-3.992-.307.006.497.614 1.134 1.203 1.128 1.104.071 2.105.475 3.19.713 1.693.363 2.959-.086 3.382-1.113.719-1.744-.991-3.646-2.117-3.545-1.127.101-.843.641-.362.859zm21.266 4.267c-.188-.165 7.658 8.433 18.356 15.534.415.479 1.449 2.959 1.614 3.294-.043.234-.278.005-.278.005-5.402-3.123-12.534-9.317-19.29-16.346 0 0-.65-1.558-.849-2.572.147-.068.306.021.448.085zm-17.823 3.095c-.244.034-.569.401-.972.623-.823.453-1.083.574-3.105-.033-1.097-.329-1.275-.306-1.93.179-.573.424-.89.494-1.529.208-1.149-.515-1.682-.141-2.746.231-1.014.367-1.362-.08-2.274-.288-.121.001-.172 3.681-.052 3.799.042.041.949-.555 1.463-.816.884-.45.757-.379 2.048-.326 1.905.329 3.792.218 5.068-.283 1.588-.449 2.829-.365 3.926.533.666.546 1.55.457 1.033-.547-.178-.347-.582-1.625-.533-2.1.073-.711-.085-1.165-.349-1.18zm20.347 2.869c3.611 3.463 8.064 8.749 18.54 14.873.546.956 1.284 2.227 1.751 3.218.043.275-.025.519-.293.424-6.473-4.103-10.072-6.096-19.045-14.939-.558-.897-1.152-2.423-1.614-3.666.098-.351.512 0 .661.09m-1.524 1.321 4.006 7.522-13.491-.028c3.428-2.043 6.701-4.767 9.485-7.493zm-22.362.17c-2.215.88-2.55 1.064-4.747.528-1.28-.312-.929.43-.274.737 1.658.776 4.059.228 4.949-.386.587-.378.989-1.245.072-.88zm-2.274 2.322c-2.32.033-4.509.841-4.672 1.784-.031.182.158.387.519.17 1.572-.946 5.475-1.255 8.428-.189.478.173.561-.125.066-.533-1.105-.912-2.754-1.254-4.341-1.232m29.445 3.213c4.367 4.03 8.581 7.738 17.98 13.133.677 1.476 1.655 3.242 1.828 3.396-8.808-4.275-18.408-12.712-18.408-12.712s-1.511-2.691-1.858-3.844c-.031-.389.335-.069.458.028zm3.007 6.279s8.041 6.801 17.208 11.417c.371.357 1.294 2.545 1.595 2.779.304.237-.364.236-1.024-.104-4.797-2.21-15.086-9.282-15.086-9.282-.987-1.617-2.4-3.3-2.693-4.81m-96.229 28.417c.735-1.573 1.486-3.322 1.972-4.75 2.189.023 3.265-.798 4.042-1.786 1.109-.03 1.958-.026 3.469-.07-.049-1.494.019-3.608.019-3.608 1.532-1.577 2.57-3.398.196-6.185 0 0-.096-1.299-.13-3.514-1.094-.174-3.548-.061-3.548-.061-1.983-2.791-5.501-2.088-6.568-.001 0 0-1.581.087-2.666.091-.022.59-.209 3.207-.209 3.207s-4.624 3.153.173 6.869l-.065 3.122c.898.072 1.541.012 2.712.236 0 0-1.835 4.261-3.042 6.283-.412.108-.314-.129-.813-1.542-.6-1.666-1.957-3.487-3.109-4.383-1.561-1.204-3.696-1.578-5.186-2.624-1.436-1.008-2.45-2.309-2.907-2.067-.149.506-.314 3.415.226 5.285.762 3.075 5.185 5.036 8.881 6.507.284.184.537.461.538.562.006.509-.486.352-1.699.231-1.832-.183-2.59.318-3.232 1.883-.192.386-.649 1.051-1.019 1.491s-.757.87-.812 1.057c-.054.187-.435 1.137-.812 1.93-.232.488-.618 1-.646 1.722-.086 2.204-.119 5.165.212 7.031.244 1.371 1.976 2.158 2.572 2.27.916.171 1.082 1.099.939 1.859-.706 3.746-2.863 6.039-3.553 4.808-.182-.324-.374-1.855-.425-1.836-.033.012-.361 1.302-.236 1.826.135.564.856.98 1.567.722 1.054-.382 1.884-1.427 2.539-3.803.268-.972.521-1.515.977-1.585.833.057 2.133 1.774 2.133 1.774-4.327 3.606-12.657 10.152-12.657 10.152l-.311-118.117 68.562.133c.382 9.364-.755 17.242-4.118 25.584-3.985 8.986-10.169 15.664-14.901 23.934-5.713 9.986-7.542 20.343-5.597 30.761-5.837 7.641-10.754 11.308-15.423 14.858 0 0-3.5-3.68-5.445-5.739 0 0 .82-.068 1.78-.107 4.435-.497 9.236-1.126 11.089-5.743.264-.513.153-.741-.16-.812-3.472.481-6.49-.007-8.459.132-4.816.34-6.851 2.009-6.851 2.009zm.529 3.399s-5.572-2.648-5.986-2.723c-2.429-.44-8.287-3.493-9.277-5.568-.129-.271-.453-4.057-.557-4.832.035-.247.135-.239.378-.061.626.431 3.053 2.014 3.95 2.449 3.701 1.798 5.134 3.079 6.04 5.785.227.678.465 1.384.599 1.529.296.32.421.293.793.009 1.586-2.052 2.328-3.762 3.063-5.965.095-.245.302-.497.18-.852-.29-.973-1.001-2.232-.273-3.184-2.319.106-4.538-1.588-4.256-3.286.618-3.145 1.953-2.578 4.453-3.037-.289-7.274 6.52-5.507 6.502-.441 7.479.63 3.945 7.546-.4 6.488 1.723 3.93-3.453 5.405-4.181 4.736-.292 1.27-2.263 5.36-2.683 6.575 5.542-3.928 14.459-2.184 15.751-2.436-3.22 6.734-13.746 5.095-14.096 4.813zm99.794-24.793c1.408 1.084 13.341 8.547 15.544 8.716 0 0 1.055 1.184 1.925 2.26.811 1.003 1.11 1.161 1.203 1.364.093.201-.306.191-.373.184-5.369-2.334-10.831-4.789-15.473-8.668-.627-.532-.767-.774-1.076-1.18-.409-.541-1.623-2.474-1.751-2.676zm3.955 6.02c5.458 3.067 10.097 6.041 15.071 7.64.709.266 1.072.284 1.425.533s1.869 1.187 2.227 1.397c2.269 1.331 2.502 1.268 1.939 1.491-.623.247-4.608-.917-7.975-2.161-5.972-2.208-8.084-3.46-10.244-5.408-.486-.504-2.756-3.217-2.444-3.493zM49.849 118.56c.46-.01 1.196.276 1.963.864.82.629 2.835 1.946 3.666 2.303l.558.229 5.368 6.093-13.82 11.234s-1.122-1.148-1.479-1.532c-.337-.363-.24-.665.181-1.076.338-.33.363-1.046.307-1.397-.084-.521-.071-1.109.59-1.595.533-.392.615-1.079.59-1.269-.02-.152.288-.654.75-.991.97-.707 1.262-1.568.934-2.581-.137-.424-.211-.535.344-.906.987-.658 1.233-1.28 1.307-2.241.012-.152-.029-.314-.052-.434-.195-1.022.708-.763 1.449.519.404.699.519 1.847.722 3.152.239 1.539.402 1.959.486 1.741.479-1.242-.086-5.907-1.505-6.54-2.075-.925-3.809-2.812-3.289-3.553.18-.257.212-.169 1.477.415.741.342 1.426.62 1.529.623 1.464.046.576-.58.099-.646-.573-.079-2.286-1.121-2.487-1.486-.334-.608-.149-.915.311-.925zm-3.534.802c1.35-.015 1.609.347 1.623 1.51.008.686.264 1.214 1.34 2.581.439.557.732.985.703 1.203-.047.361-.178-.013-1.666-.189-.528-.062-.797-.071-.981.203-.512.76-1.597-.032-2.265-1.151-1.592-2.67-1.03-4.132 1.246-4.157m25.729 1.609 14.692 17.981-1.657 1.287-14.747-17.737zm-2.456 1.104 1.574 2.657s-4.552 3.89-5.75 4.987c-9.672 7.832-31.506 25.612-31.506 25.612l-.294-3.576zm-26.519.481c.287.007.615.37 1.081 1.081.403.616 1.268 1.85 2.189 2.699 1.79 1.649 1.963 1.5.51 1.656-.578.062-.766-.007-1.118.873-1.066 1.33-4.216-3.434-3.478-5.257.288-.712.529-1.059.816-1.052m5.125 2.572c.266-.013.615.087 1.024.335.78.32.832.506.703 1.25-.123.712-.665.897-1.732-.042-.81-.763-.674-1.51.005-1.543m23.45.44 1.726 2.228-39.183 31.685.009-3.647c.955.123 26.081-21.709 37.448-30.267zm-30.387.362c.105-.022.268.337.703.991.885 1.331 1.697 2.208 2.624 2.907.876.66.974 1.029.373 1.033-.257.002-.608.272-.793.59-.371.638-.403.487-.977.151-.819-.479-1.64-1.203-1.968-2.152-.308-.894-.343-2.254-.09-3.246.044-.173.08-.264.127-.274zm6.186 2.529c.999-.035 1.717 1.127 1.057 2.067-.367.358-.698.53-1.43.099-.965-.569-1.14-1.444-.349-1.935.247-.153.492-.223.722-.231m-6.427 2.515c.21-.01.588.293 1.222.944.487.499 1.332.925 1.67 1.114.759.423.795.571.382.911-.176.145-.754.154-.911.613-.449 1.313-2.353-.213-2.534-2.09-.092-.953-.1-1.479.17-1.491zm4.785.156c1.25.052 1.84 1.51.845 2.227-.543.391-1.911-.299-2.048-1.015-.088-.461.728-1.233 1.203-1.213zm29.218 1.084a1.311 1.311 0 1 1 .001 2.623 1.311 1.311 0 0 1-.001-2.623m-3.921.543a1.311 1.311 0 1 1 .001 2.623 1.311 1.311 0 0 1-.001-2.623m-26.278 1.752h.25c1.204.059 1.268 1.205.552 1.821-.428.368-.815.485-1.368.042-.989-.791-.623-1.797.566-1.864zm29.199 1.919a1.311 1.311 0 1 1 0 2.624 1.316 1.316 0 0 1-1.317-1.312c0-.725.592-1.312 1.317-1.312m115.171.077.062 3.317-46.33 38.538-1.567-2.047zm-117.834.283-3.425 7.692-1.029-1.983-2.561-.001.786-2.294-1.508-1.835zm72.907 31.99 6.097-4.888c-2.624-13.241 7.852-18.51 17.8-14.663l6.19-5.276c-11.486-9.671-38.494-3.111-30.086 24.827zm-82.475-25.88a1.311 1.311 0 1 1 .001 2.623 1.311 1.311 0 0 1-.001-2.623m-3.983.321c.725 0 1.27.545 1.27 1.27s-.545 1.358-1.27 1.358a1.316 1.316 0 0 1-1.312-1.317c0-.725.587-1.312 1.312-1.312zm21.197 2.663-6.044 4.839c1.562 12.678-4.606 19.134-17.864 14.788l-6.413 5.087c17.325 11.916 39.996-3.444 30.321-24.714m-18.601 1.145a1.311 1.311 0 1 1 .001 2.623 1.311 1.311 0 0 1-.001-2.623m127.143.332c.725 0 1.317.587 1.317 1.312s-.592 1.312-1.317 1.312a1.311 1.311 0 1 1 0-2.624m-129.857.314-3.864 7.644-.963-2.302-2.594.036.838-2.668-1.622-1.371zm124.667.805 1.202 2.022 2.537.062-.954 1.925 1.832 1.888-8.265 2.031zm-133.887 5.551c.725 0 1.316.587 1.317 1.312s-.592 1.312-1.317 1.312a1.311 1.311 0 1 1 0-2.624m-3.775.146c.725 0 1.316.587 1.317 1.312s-.592 1.312-1.317 1.312a1.311 1.311 0 1 1 0-2.624m131.272.78a1.311 1.311 0 1 1 .001 2.623 1.311 1.311 0 0 1-.001-2.623m13.27.203.057 2.913c-12.088 10.669-37.507 31.261-37.507 31.261l-1.582-2.031s25.861-21.132 39.032-32.143m-141.913 2.841c.725 0 1.312.587 1.312 1.312s-.587 1.317-1.312 1.317a1.316 1.316 0 0 1-1.312-1.317c0-.725.587-1.312 1.312-1.312m131.328.315c.725 0 1.312.587 1.312 1.312s-.587 1.317-1.312 1.317a1.316 1.316 0 0 1-1.312-1.317c0-.725.587-1.312 1.312-1.312m-3.714.236c.725 0 1.312.587 1.312 1.312s-.587 1.317-1.312 1.317a1.32 1.32 0 0 1-1.317-1.317c0-.725.592-1.312 1.317-1.312m14.664.465-.11 3.708c-11.713 9.986-35.673 29.822-35.59 29.834l-1.81-2.499s26.264-22.623 37.509-31.043zm-144.686-.545-3.614 8.152-1.559-2.195-2.281-.155.543-2.205-2.095-1.424zm125.307 3.22 2.307-.438-.403 2.361 1.621 1.702-8.499 1.868 4.108-7.62zm12.699 39.718c1.723 2.578 1.614 5.393.893 5.825-.76-.428-1.421-1.171-2.207-1.511-3.96-1.708-7.122-3.11-7.687-5.622-2.157-5.683 7.566-.836 9.002 1.308zm-20.812-15.096 13.322-10.846s2.042 1.053 2.429 1.531c.138.526-.231.688-.774 1.178-.249.319-.405.627-.42 1.318-.015.744.231 1.078-.07 1.406-.502-.026-.903.63-.882 1.161.016.405-.514.854-.824 1.159-.551.542-.712.654-1.066 2.49-.035.184-.023.661-.282.909-.77.069-1.329 1.955-1.68 2.074-.562-.036-1.456-.723-1.674-1.738-.142-.66-.103-1.941.053-2.767.186-.983.27-1.873.208-2.109-.144-.547-.506-.211-.5.557.002.312-.118 1.247-.316 2.128-.198.884-.737 2.057-.495 2.753.361 1.039 1.691 1.478 2.291 2.027 1.577 1.446 1.921 2.152 2.1 2.472 1.261 2.306 1.265 2.699.949 4.434-.182.999-1.155.828-1.741.423 0 0-3.746-2.726-5.376-4.08-2.47-2.051-4.204-4.147-5.251-6.479zm5.055 7.454c1.429.578 5.149 3.278 5.149 3.278l-3.388 7.049c.617 1.104.865 3.846.865 3.846 4.286-.328 6.607 6.895-.068 6.228.762 4.465-6.431 7.964-6.235-.038-7.492.582-4.976-7.905-.359-6.313-.138-3.597 2.259-4.062 3.951-4.946 1.387-1.569 2.237-5.119 2.237-5.119l-.338-1.083c-1.421 2.482-7.471 3.194-14.118 1.878 1.8-4.264 7.26-4.144 12.304-4.78m-13.22 5.366c-.226.85-.232.84.793.736.519-.053 2.602-.048 4.057.009 2.674.208 6.885.227 8.997-1.382.409-.39.633-.363.71-.15.18 1.039-1.87 4.458-1.87 4.458l-3.385 1.871s-1.385.065-3.102.024l-.03 3.045c-1.345.795-3.653 4.203.056 6.816l-.122 3.316 3.27.06c2.17 2.077 3.937 2.068 5.929.111l3.77.003-.015-3.582c1.859-1.494 2.123-4.029.223-6.054l-.047-3.635-2.901.018s-.6-.464-.617-.834c-.002-.239 2.118-4.324 2.524-4.907.527-.758.384-.325 1.228 1.426 1.207 2.505 2.401 3.527 5.461 5.006 2.73 1.32 3.706 1.936 4.497 2.692.63.602 1.002.412 1.246-.486.527-1.998.364-3.997-.736-5.825-2.322-3.86-6.367-4.038-7.01-4.931-.084-.213.739-.459 1.624-.855 1.531-.93 3.772-3.744 4.06-4.873-.052-.544.307-2.259.572-2.638.305-.674.339-.989.326-2.798-.274-1.033-.024-2.377.104-2.841.139-.939-.36-2.046-1.069-3.404-.266-1.261-.204-.933.612-3.775.133-.459 1.05-4.418-.124-4.689l.156.222c.197.397.306 2.106.127 2.591-.071.192-.204.688-.297 1.104-.711 3.181-1.132 3.979-1.775 3.283-.153-.166-.741-.402-1.193-.702-.854-.567-.781-.845-.571-1.906.052-.161.39-1.621.354-1.576-.185.502-.309 1.796-.892 2.1-.313.073-.744-.205-1.557-.906-.31-.267-.976-.734-.976-.734s9.628-8.104 13.207-10.79l-.031 120.022-68.055.029c-.852-7.434 1.384-17.27 5.086-27.122 2.288-6.089 5.574-10.605 9.28-16.056 7.105-10.393 12.479-20.945 10.407-34.323-.271-1.985-.544-2.936-.45-3.47.863-1.62 4.289-6.533 6.793-8.578 3.674-3.001 8.787-7.486 9.197-7.22 1.22 2.354 2.665 4.26 4.578 5.697.337.365.345.686-.431.849-5.072-.046-10.293 1.068-11.987 5.555zM35.765 165.033a1.311 1.311 0 1 1 .001 2.623 1.311 1.311 0 0 1-.001-2.623m127.226.297a1.311 1.311 0 1 1 .001 2.623 1.311 1.311 0 0 1-.001-2.623m2.858 3.599a1.311 1.311 0 1 1 .001 2.623 1.311 1.311 0 0 1-.001-2.623m-4.245.558a1.311 1.311 0 1 1 .001 2.623 1.311 1.311 0 0 1-.001-2.623m-4.688 2.99 2.372-.117c-.298.852-.457 1.732-.626 2.615l1.932 1.419-8.358 1.422 3.602-7.406zm-5.702 21.601-14.076-18.176 1.698-1.373 14.189 17.977zm-1.719-17.659a1.311 1.311 0 1 1 .001 2.623 1.311 1.311 0 0 1-.001-2.623m29.564 2.036c1.141.887 0 2.131-1.091 1.64-.946-.399-.875-1.359-.129-1.743.465-.221.82-.166 1.22.103m1.519.846c1.17.019 2.464 2.794 2.226 3.609-.349.949-.669.983-2.321-.414-1.632-1.38-1.655-1.438-.996-2.185.366-.424.542-.984 1.09-1.01zm-27.842.506c.725 0 1.312.587 1.312 1.312s-.587 1.316-1.312 1.317a1.316 1.316 0 0 1-1.312-1.317c0-.725.587-1.312 1.312-1.312m-4.068.505a1.311 1.311 0 1 1 .001 2.623 1.311 1.311 0 0 1-.001-2.623m28.814.936c1.295.192 1.634 1.17 1.038 1.897-.809.984-2.624.09-2.194-1.081a1.23 1.23 0 0 1 1.156-.816m2.323 1.477c.507-.043 1.27.657 2.106 1.82.939 1.306 1.015 1.728.749 2.524-.388 1.161-.631 1.374-1.474.242-.318-.426-1.056-1.427-1.583-1.979-1.124-1.178-1.3-.878-.629-1.777.311-.417.526-.804.83-.83zm-3.044 1.373c1.163.6 1.275 1.382.587 1.935-.809.442-2.236-.082-2.513-.883-.405-1.171.836-1.765 1.925-1.052zm1.971 1.729c.657-.042 1.199.637 2.004 1.937 1.37 2.212 1.445 2.957.277 4.415-.84 1.049-.925 1.105-1.748-.567-.672-1.366-1.95-2.967-3.133-3.926-.494-.401-.668-.962-.311-1 .104-.011.542-.032.972-.047.632-.023.861-.109 1.208-.448q.344-.338.731-.363zm-4.723 1.726c.612-.03 1.403.302 1.991.986.667.701.588 1.343-.722 1.472-.59.231-2.196-.822-2.204-1.529-.007-.593.394-.904.934-.93zm3.087 2.565h.094c.55.026.834.557 1.452 1.798.949 1.905.675 2.942-.965 3.785-1.113.572-1.962.743-2.105.089-.042-.19-.042-.739-.134-1.272-.122-.71-.285-1.449-.914-2.396-1.003-1.511-1.18-2.048-.08-1.602.582.236 1.216.208 1.883-.142.294-.154.544-.247.769-.26m-5.564 3.063c-.382-.008-.627.226-.524.849.346.17.894.012 1.307.16.557.201.901 1.106 1.496.958.063-.763-1.439-1.95-2.279-1.968zM57.959 206.46c-3.066-1.461-10.664-4.842-14.323-4.891-6.786-1.905-7.242-1.04-9.622-1.649 12.596-3.267 21.266 3.014 24.441 6.065 1.441 1.436.656 1.024-.496.475m8.021 29.694c7.207 12.503 13.925 26.605 25.196 47.489l-1.083.338-42.981.077c2.128-23.07-10.338-45.051-11.182-44.189 9.736.179 17.818-1.699 19.525-5.286l-1.388-.398c-5.666 4.89-13.874 5.115-19.537 3.603.129-12.02-.548-24.717-.174-36.734 6.694-.498 11.927 1.957 15.638 6.848 6.238 8.223 10.468 18.68 15.985 28.251zm-19.712-33.306c1.724-.132 11.132 3.739 15.341 6.63 1.169 1.209 2.876 3.31 2.878 3.515.006.559-.824-.131-4.889-2.449-3.076-1.731-6.268-3.111-9.375-4.437l-.427-.182s-.23-.265-.625-.571c-1.107-.856-3.257-2.375-2.903-2.506m4.573 4.384c-.093-.017 9.331 3.396 16.829 9.367.997.794 2.221 3.756 2.221 3.756-.669-1.259-12.513-8.345-16.671-9.968zm3.323 4.532c.514-.308 14.296 7.827 16.316 9.927.916.7 3.06 4.101 3.067 4.785.007.609-.663.083-1.897-1.057-6.347-5.927-15.516-10.394-15.591-10.295zm2.558 4.727c6.472 2.738 14.6 9.322 18.704 13.241 1.026 1.015 1.758 2.486 1.897 3.171.086.425-.128.396-.212.623-5.317-6.103-17.003-13.069-18.553-13.614.012.386-1.285-2.366-1.836-3.421m21.488 19.017c.745.759 1.925 3.422 1.661 3.747-.13.16-.117.076-.429-.142-1.701-1.693-10.441-9.446-17.733-13.796-.685-.342-2.981-3.963-2.494-4.033 3.812 1.243 14.714 9.948 18.995 14.224m-15.77-8.654c.126.009.354.171.746.387 6.706 3.699 16.426 13.013 18.269 15.252.419.689 1.079 1.955 1.03 2.731-.084.61-.328.092-3.039-2.576-4.357-4.266-9.369-8.395-14.68-11.863-1.021-.702-.826-.791-1.567-2.081-.743-1.294-1.037-1.87-.76-1.85zm42.888.142c4.788.136 6.661 3.761 9.61 10.443 2.414 6.583 3.414 12.615 3.525 17.417.007.322-.578.048-.845-.024-1.282-.344-2.878-.666-4.728-.198-1.359.343-2.65.305-1.255-.609.45-.295 1.668-1.423 2.317-1.826 1.313-.817.515-.807-.788-.165l-2.053 1.199c-.251.06-.095-.766.146-1.359 1.392-3.425 1.814-5.452-.26-6.087-.561-.172-1.318-.691-1.675-1.038-.285-.277-.528-1.385-.618-1.43-.096-.047-.162 1.01-.16 1.17.006.55.712 1.665 1.562 2.274 1.442 1.034 1.727 1.321.944 3.77-1.098 3.432-1.332 4.272-1.534 5.068-.116.458-.34 1.236-.453 1.741-.435 1.945-.382 3.645-.302 5.261.474 3.612 4.368 5.394 9.594 3.388.495-.192.7-.019.7-.019-4.163 4.234-8.836 6.94-11.559 15.494-3.502-7.057-8.463-12.587-16.709-14.803l-.122-1.474c2.876 1.379 8.453 3.255 11.993 1.146 1.895-1.294 1.319-2.129-.981-1.236-2.739 1.063-7.685.939-10.155-.453-.503-.283-1.015-.038-1.16.01-.129-.83-1.317-3.956-1.143-5.131-.102-.165.752-.172.916.047.683.912 4.153 3.628 7.758 3.416 1.792-.105 3.266-.65 4.823-2.292.13-.116.764-.199.85-.296.139-.156.038-.389.033-.472-.039-.125-.272-.468-.425-.854a1.52 1.52 0 0 1-.208-.961c.004-.226.154-.345.271-.503.135-.302.097-.687.023-.892a.545.545 0 0 1-.109-.807c.487-.551-4.198-4.828-5.115-4.818-.331.004-.136.614.538 1.062 2.381 1.582 4.117 3.647 3.723 3.917-.303.208-1.37-.247-2.456-.503-2.179-.511-4.795-.836-7.633 1.211-1.062.872-3.868 1.003-3.868 1.003-.036-1.529-6.496-18.599-6.508-17.857 2.35-2.74 9.734-9.227 17.135-12.023 2.276-.746 4.721-1.127 6.361-.907m-28.054 3.821 13.432.207c-3.377 1.7-9.513 7.797-9.513 7.797-1.755-3.532-2.292-5.294-3.919-8.005zm-11.611 1.771c1.001.006 11.663 8.693 13.179 10.745.183.247 1.263 1.387 2.402 2.529 2.758 2.764 3.894 4.362 3.907 5.502.006.538-.486.188-1.222-.623-5.522-6.136-9.115-9.466-15.94-14.17-.775-.415-3.18-3.616-2.364-3.973l.038-.009zm36.469 1.6c-.3-.01-.251.278-.087.543 1.692 1.495 6.159 1.429 7.699.221 1.397-1.096-.435-.518-1.005-.273-1.335.572-2.766.508-4.624.014-1.084-.288-1.682-.495-1.982-.505zm4.119 2.435c-1.562.014-3.195.483-2.831 1.057.133.209.56.602 1.581.047 1.474-.729 4.502.227 4.591.25.309.081-1.006-.867-1.449-1.062-.487-.215-1.182-.299-1.892-.293zm-37.639 1.623c5.729 3.505 12.709 10.52 16.898 15.529.697.863 1.201 1.924 1.208 2.548.01.9-.183.401-3.987-3.454-2.984-3.053-7.488-7.209-10.471-9.447-1.792-1.306-2.111-1.476-2.954-3.025-.791-1.453-1.077-2.174-.694-2.152zm35.695 1.17c-1.077.512-2.506.403-3.898-.075-1.26-.433-.965-.063-.486 1.312.218.625.352 1.511.354 1.642.004.306.003.327.892-.17.775-.433.938-.583 2.591-.198 1.68.391 1.707.246 2.496-.165.688-.358.83-.573 1.301-.384.921.371 1.963.529 3.144-.092.905-.476 1.2-.155 1.619.056.569.286.789.104.566-.462-.089-.226-.255-1.195-.26-1.501-.009-.581-.152-1.105-.396-.981-.903.454-1.636.937-2.498.921-1.58-.029-2.965-.978-5.425.098zm-69.821 1.195c14.28 17.791 11.756 43.437 11.281 43.229l-11.192.049zm37.156 3.596c5.704 4 12.492 10.971 16.255 15.792.64.833.119 1.095.439 2.1.117.373-.514-.177-2.326-2.123-2.258-2.425-5.97-6.071-8.414-8.187-2.677-2.318-3.45-2.901-4.021-3.685-.449-.655-2.283-3.805-1.933-3.897m32.102 1.636-.179.005c-2.03.095-3.061 2.37-1.321 3.978.654.604 1.693.962 1.689.637-.002-.077-.328-.405-.557-.58-1.449-1.114-1.301-2.851.349-2.869.572-.006.608.197 1.93 1.147 1.555 1.116 3.391 1.118 3.369-.005-.016-.825-.324-1.67-1.713-1.534-.365.036-.852.075-1.279-.033-.409-.103-.759-.353-.92-.425a3.5 3.5 0 0 0-1.368-.321m-28.395 5.238c4.364 2.93 10.361 9.555 13.427 13.462.702.916.749 1.928.465 2.473-.067.107-.604-.226-.604-.226-3.545-4.174-7.563-7.968-11.509-11.82 0 0-2.344-3.77-1.779-3.888zm42.304 6.337-.942.469c-1.429-2.141-2.736-2.171-3.83.331l-.702-.177c-.523-.576 1.881-6.017 5.474-.623m-.211-1.826c.393.014 1.081.227 1.241.628.179.37-.022.788-.562.769-.082-.003-.604-.643-.863-1.035-.192-.239-.109-.37.184-.362m-16.027 2.62-1.055.049c-2.009-2.641-3.512-.868-4.413.234l-1.13-.153c.18-2.9 5.307-3.91 6.598-.129zm10.265-2.255q.24.004.462.09c-.416.631-.487 1.157-.58 1.727-.41.17-.995.524-1.43.071-.809-.735.436-1.909 1.548-1.887zm-16.482.296c.498.002.349-.031.133.247a5 5 0 0 0-.676 1.232c-.067.312-.119.425-.412.435-.558.018-1.687-.181-1.68-.173-.43-.406 1.347-1.698 2.635-1.741m6.383.369c.333-.04.255.435.148.621-.21.248-.294.329-.411.02a1.3 1.3 0 0 0-.215-.355c-.164-.211-.146-.222.058-.258l.421-.028zm17.243 2.108c1.229-.032.407 2.053-1.302 2.558-1.888.957-4.053.728-6.257-.528-1.257-.717-1.638-1.472-.543-1.17 4.126 1.136 5.129.926 7.618-.684.148-.126.306-.157.484-.175zm-39.701-.451c4.108 3.48 7.2 7.422 10.485 11.054.655.809.962 1.59.835 2.119-.157.658-1.505-.911-1.505-.911.034.015-8.019-8.58-8.019-8.58s-2.044-3.664-1.796-3.682m12.276 1.202c.285.01.851.142 1.765.378 3.952 1.198 5.147 1.154 7.418.111 1.448-.664 2.046-.569 1.426.431-1.14 1.839-5.166 2.042-8.189 1.016-.8-.272-1.504-.749-2.274-1.326-.413-.43-.513-.621-.146-.609zm18.223 1.218c.237-.015.678.256 1.214.56 3.31 1.877 5.754 1.533 7.794.274.369-.337.569-.175.618.151.174 1.143.225 1.965-.297 2.515-.304.32-.82.465-1.6.727-3.205 1.078-7.106.308-7.853-2.097-.243-1.236-.397-2.097.124-2.131zm-26.267 5.157h.038c.232.035.766.502 1.609 1.458 4.406 4.998 6.844 7.869 6.399 9.315-.041 0-.069.312-.255.151-2.423-2.092-4.402-4.38-5.875-6.771-1.615-2.621-2.278-4.121-1.916-4.152zm35.52 3.516c-3.718 2.843-8.228 9.61-8.633 12.943-.078.637-.01 1.115-.245 1.345-.187.183-.608.2-1.17.09-.345-.063-.263-.101-.344-.491-.32-1.525 1.142-5.365 4.167-9.89 1.587-2.374 5.192-5.581 6.199-5.602.672.277.019 1.636.028 1.606zm-27.531-1.544c.263-.008.669.13 1.236.373 3.338 1.432 4.583 1.952 6.743 3.714 4.026 3.282 8.5 11.077 7.187 11.806q-.867.48-1.221-.606a18 18 0 0 0-.969-2.15c-2.699-4.959-6.208-8.37-11.155-10.782-1.827-.891-2.013-.792-2.152-1.538-.104-.56-.007-.807.33-.816zm27.477 2.864c.334-.028.415.582.301 1.81-.092 1.001-.152.98-1.268 2.153-1.784 1.444-3.893 4.836-4.87 8.291a.83.83 0 0 1-.26.528c-.459.394-1.038.201-1.434.193-.285-.152-.207-.777-.156-1.128.816-3.136 2.825-6.988 5.974-10.372.886-.952 1.418-1.452 1.713-1.477zm-26.784.09c1.767-.041 8.047 4.651 10.589 8.758 1.661 2.684 2.109 3.785 1.727 4.176-.202.207-1.095.24-1.562.057-.425-.167-.587-.813-1.383-2.307-2.075-3.898-5.064-6.723-8.3-8.215-.602-.278-.925-.454-1.119-.669-.217-.447-.495-1.705.048-1.799zm.953 3.487c.549.103 2.067 1.088 3.336 2.02 2.244 1.647 5.66 6.682 4.955 7.404-.226.232-1.011.24-1.414.082-2.403-4.278-5.523-6.314-6.789-7.503-.384-.646-1.282-2.168-.087-2.002zm-4.992.755c.104-.026.525.387 1.288 1.189 2.255 2.368 3.686 4.993 3.355 6.318-.28 1.121-.609.507-3.19-4.417-1.086-2.072-1.605-3.052-1.453-3.091zm30.856.066c.052 1.362-.059 1.698-.203 2.421-.098.492-.423.721-.731 1.104-.767.955-1.638 2.607-2.076 3.94-.369 1.076-.195 1.334-1.519 1.189-.618-.081-.469-.247-.226-.958.834-2.333 2.836-6.114 4.756-7.696zm-25.634 2.567c.028-.699 6.051 5.364 5.224 6.046-.784.137-1.251.166-1.578-.114-.644-1.442-3.512-4.177-3.512-4.177zm25.299 1.911h.038c.269.055.12 3.784-.104 4.091-.429.216-1.241.236-1.675 0-.265-.144-.346-.41-.245-.698.25-.722 1.555-3.304 1.987-3.393zm-22.733 4.101c-.19.296-1.362.348-1.804.014-.142-.107-.28-1.957-.115-2.292.449-.293 2.068 1.879 1.919 2.278" style="fill:#131f67" transform="matrix(.73617 0 0 .79637 1.214 -3.997)"/><path d="m103.273 20.185.556.79-3.248.019c.532.485 12.566 26.683 27.954 56.95 2.547 5.312 7.406 7.227 13.048 7.46L126.639 59.37c1.591-.938 4.752-3.448 6.664-2.983.118.635.686.383.694-.181l.691.015.243.41h2.904l.238-.372 2.504.39c-6.69-8.921-10.22-22.668-9.074-36.087l-22.187.053-.295-.421zm-2.692.809h-.02zM75.073 38.456c-2.523 8.812-8.76 16.062-12.465 23.363-3.97 7.965-4.903 14.897-3.786 22.48l.726.067c8.465-12.49 15.02-27.414 18.69-42.09.08-.32-.058-.884.01-1.208-.157-.388-.02-.808.08-.92.213-.244.134-1.196-.024-2.77-.4-4.678-.321-8.348.04-12.587.278-3.255.263-3.766.263-3.766L77.158 21c.267 5.54-.41 12.365-2.084 17.455zm34.846-17.08 2.38.054c.368 7.871 6.496 8.895 7.444 8.78-1.565 5.324 1.025 11.166 7.264 11.995-1.43 4.935 1.102 11.44 6.092 11.264l.528.36c-.322.71-.39 2.173-.372 2.195-1.109.088-1.71.263-2.431.418-6.45-10.52-20.905-35.065-20.905-35.065m21.162 0c-.72 8.794.91 20.872 4.728 28.008 0 0-.121.479-.202.609-.363.593-.544.08-.764-.399-.813-1.625-2.349-1.877-3.022-.973-1.486 2.191.125 3.055 1.376 4.293-5.111-.338-6.815-6.423-5.634-9.433-.026.574.259 1.44.633 2.055 1.437 2.357 3.535.369 2.933-1.495-.248-.772-1.164-2.058-1.164-2.058s1.245-.199 1.753-.531c.474-.32.775-.884.653-1.658-.098-.62-.124-.89-.431-1.45-.377-.51-1.053-.862-1.593-.823-1.055.076-1.184.862-1.875 1.4-.171-1.415-1.009-2.49-2.376-2.224-1.04.203-1.79 1.4-1.152 2.898.322.765.774.997 1.23 1.66-7.345-.889-6.544-10.323-5.732-10.154 0 0 .221-.044.156.317-.419 2.309 2.232 3.688 3.393 2.01.741-1.36-.85-3.508-.85-3.508s1.06-.246 1.54-.546c1.918-1.196-.126-4.634-1.91-3.79-.627.309-.786.937-1.397 1.272-.408-.492-.433-1.03-1.167-1.472-2.014-1.213-3.273 1.657-2.158 2.92.457.51 1.264.977 1.106 1.04-6.245-.853-6.183-7.922-6.04-7.873zm-53.668.06.86-.001c-.255 4.193-.805 9.726-.445 13.815.42 3.906.44 4.46.18 4.848-.354.43-.167.634-.097.984.094.642.102.648.018 1.014a91 91 0 0 1-2.953 10.113c-4.018 11.984-10.573 25.05-15.714 31.903l-.238-.002c-1.407-9.562 1.6-17.533 3.168-20.804 3.182-6.633 8.18-12.294 11.147-19.242 2.525-5.913 4.388-13.019 4.074-22.63zm31.63-.041 20.94 35.227-3.82 2.025-21.43-37.125zM45.98 25.08c-7.425.119-11.047 10.224-4.829 15.077 1.118.872 1.461 1.38 1.157 1.717-.256.283-.6.152-1.157-.447-4.841-5.14-12.312-2.33-13.01 4.795-1.155 11.81 12.43 14.905 15.91 3.664.999-3.223 1.424.269.456 3.697-.807 3.163-2.21 6.405-3.85 9.106-.274.443-.673 1.007-.673 1.007h11.93s-.38-.55-.918-1.228c-2.17-3.495-3.347-7.416-3.727-11.511-.089-1.165-.051-2.048.16-2.195.36-.25.57.063.955 1.45.794 2.856 2.293 5.19 3.967 6.073 4.046 1.815 7.352 1.265 10.116-2.72 5.98-8.624-3.8-19.276-10.79-12.315-.641.633-1.042.702-1.104.18-.03-.253.15-.494 1.024-1.383 6.008-5.162 2.997-14.009-4.495-14.907a8 8 0 0 0-1.122-.06m75.337 3.195c.542 0 .98.477.98 1.063s-.438 1.063-.98 1.063-.983-.477-.983-1.063.441-1.063.983-1.063m6.944 11.747c.549 0 .994.48.994 1.075 0 .593-.445 1.075-.994 1.075s-.994-.481-.994-1.075c0-.593.445-1.075.994-1.075M78.368 42.12c.357 1.535-6.646 24.575-16.599 39.235l4.346.098.134.519c6.088 9.723 2.28 18.326-2.636 22.321l1.702 2.454-1.532 1.342-1.532-1.973c-12.459 10.11-36.77 32.487-36.77 32.487l.135 3.589 1.897-1.616c12.332 12.913 38.482 12.206 45.34-14.45l1.837.046c-4.147 19.537-21.026 27.185-33.765 23.945l-2.984 4.637.8.462c-.148-.247-.284-.333-.067-.56l2.536-3.528c19.059 2.64 30.567-9.029 34.3-24.836l2.432.045c-2.086 13.278-7.84 24.969-16.045 34.118-5.922-.026-16.335-.172-16.335-.172 3.792 3.974 11.033 16.1 11.321 17.331 0 0 7.448.256 15.438.045 2.928-1.425 6.847-1.997 8.677-.999 3.216 1.753 6.238 8.258 7.597 18.696.35 2.688.668 3.828.765 4.37.017.098.235.169.267.15.123-.07-.195.476-.209.88s-.001 1.014.178 1.225c.225.268.198.444.166.56-.02.075-.455.51-.455.51-.065 6.081-.033 11.6-.34 19.08l1.105.007c-.008-12.034 3.348-23.168 8.521-30.833 3.145-5.03 6.473-10.451 8.313-15.613 2.072-5.81 2.357-11.917 1.247-17.069l-.757.045c-4.55-3.373-6.403-10.574-.799-15.72l-1.983-2.791c-5.597 4.68-6.882 13.314-1.084 20.462l-2.268-.007c-5.658-7.638-4.405-16.409 2.133-22.668l-1.463-2.01 1.59-1.516 1.435 1.698 36.494-32.985-.026-3.609-2.796 2.454c-16.37-16.372-40.647-4.884-44.206 14.836l-2.225.025c4.666-21.221 21.856-27.218 34.292-24.396l3.07-5.021c-2.259-.686-4.46-2.307-6.539-4.223-.875-.806-1.429-1.301-2.065-2.109-5.89-6.733-9.888-16.083-10.075-16.099l-16.016-.043c-2.35 1.257-6.373 2.686-8.58.757-4.741-4.14-6.332-12.495-6.984-17.872-.198-1.673-.365-4.584-.51-5.55-.091-.177-.266-.188-.424-.157zm56.779 9.293c.536 0 .97.472.97 1.052s-.434 1.048-.97 1.048-.97-.469-.97-1.048.434-1.052.97-1.052m2.084 1.235c.79 1.107 1.49 2.248 1.883 3.454-.368-.012-.714.112-1.124-.234-.094-1.218-.558-1.95-1.141-2.76zm-2.929 1.553c.324.172.581 1.494.354 1.72-.39.09-.656.06-.787-.087-.195-.349.176-1.566.433-1.633M70.61 65.692l14.868.02c2.587 2.145 5.115 1.86 8.785.14h16.532l.935 1.836H69.804c.233-.682.806-1.996.806-1.996m-1.227 2.867h42.788l1.08 1.883H68.324zm4.131 2.736h4.8l-1.778 3.266h-4.954zm10.658 0h4.582l-2.04 3.262h-4.54zm14.819 0-1.928 3.262h-4.659l2.001-3.232zm5.746 0h4.588l-1.716 3.262h-4.752zm-61.639.507c-2.975-.037-2.424 4.232-2.143 4.098-1.868-.463-3.248.497-3.478 2.219-.183 1.366 1.051 3.313 3.21 3.041-.288.358.005 2.423.293 2.611 0 0 .036.3-1.102 2.87-1.352 3.051-1.628 3.196-2.241 1.192-.66-2.156-1.678-3.248-4.332-4.641-.707-.371-1.707-1.019-2.223-1.44-1.186-.965-1.199-.95-1.143 1.011.073 2.547.787 3.664 3.3 5.167 1.23.736 3.586 1.775 4.013 1.77.3-.004 1.402.532 3.036 1.474.32.184 1.41.834 2.81.98 1.484.114 4.828-.265 6.766-1.476 1.088-.679 1.508-1.287 2.31-3.025 0 0-2.746.154-4.001-.203-2.608-.166-3.904-.003-5.882 1.108-1.654.93-1.747 1.095-1.055-.44.316-.704.61-1.534.875-2.359.289-.82.364-.89 1.087-.969 1.587-.175 2.49-1.165 2.637-2.882.04-.46-.024-.946-.024-.946 1.08.173 3.29-.406 3.222-2.826-.062-2.176-1.496-2.677-3.262-2.826.227-1.115-.525-3.48-2.671-3.506zm.036.675c2.607.02 2.547 2.608 1.41 4.078l-1.386-1.235-1.118 1.116c-1.218-.84-1.213-3.976 1.094-3.959m71.33.031 1.281 2.049h-2.647zm-48.672 2.943h4.91l-1.97 2.995H64.09s1.04-1.912 1.702-2.995m15.473 0-1.856 3.111h-4.29l1.72-3.047zm5.75 0h4.435l-1.754 3.318h-4.384zm10.438 0h4.491l-1.827 3.318h-4.429zm10.175 0h4.627l-1.91 3.318h-4.461zm-64.43.616 2.206 2.405-2.15 2.33-2.217-2.291zm5.593 2.343c-.39 2.794-2.88 2.642-3.587 1.276l1.015-1.251-1.243-1.32c1.206-2.095 4.11-.814 3.815 1.296zm-7.407-1.337-1.192 1.454 1.309 1.36c-.843 1.267-4.083 1.166-3.434-1.883.413-1.937 2.234-2.292 3.317-.93m75.609-.355 1.364 2.03-2.56.021zm-53.24 2.492 54.89.192 1.469 1.943c-19.165.357-37.93-.333-57.51-.35zm-19.299 1.263c2.176 1.443.57 4.484-1.766 3.967-1.74-.827-2.096-2.779-.53-3.912l1.226 1.093zm18.823 1.165-1.498.007-1.459 1.845c5.516 6.285 5.313 11.737.174 16.49l2.067 2.503c5.765-5.334 7.042-13.716.716-20.845m5.665.24c3.092 5.225 5.765 15.124-3.446 24.19l-1.111-1.458c8.02-8.473 6.135-15.598 2.543-22.667zm.859.128 12.464.052c-2.668 11-4.54 17.478-4.822 34.686l-3.602.022c.392-.397-1.866-10.39-4.499-13.855 5.523-10.144 2.547-15.865.459-20.905m-39.206.015c.215-.002.657.3 1.522.86.776.504 1.784 1.14 2.24 1.418 1.712 1.038 2.563 2.018 3.05 3.513.365 1.12.138 1.141-.91.087-.778-.784-1.61-1.46-3.685-3-.731-.54-.963-.451-.538.208.305.475.963 1.015 2.296 1.894.966.637 2.297 1.913 2.192 2.1-.095.172-.26.157-.726-.063-.215-.102-.91-.41-1.542-.688-2.715-1.192-3.874-2.655-4.037-5.088-.056-.848-.105-1.239.14-1.24zm56.88.053s.376.536.425.758c.104.483-.334.926-1.713 1.59-.473.228-.867.351-.854.65.063.701 1.305 1.773 1.153 2.728-.285.731-2.01 1.45-2.442 2.311.003.594 1.122 1.501.963 2.307-.087.24-.449.487-.983.989-1.095 1.027-1.163 1.184-.76 1.983.932 1.858.967 1.721-.306 3.04-1.283 1.33-1.26 1.313-.647 2.469.661 1.245.63 1.19-.257 1.988-.869.782-.834.941-.368 1.913.45.94.554.953-.204 1.68-.886.848-1.052.937-.427 2.006.646 1.105.694 1.058-.035 1.961-.69.856-.77.896-.396 1.477.47.731.559.924.066 1.729-.532.868-.53.807-.042 1.616.411.68.34 1.439.34 1.439l-1.542-.004s-.01-.96-.191-1.312c-.438-.855-.426-1.12.093-1.879.533-.778.444-.844-.052-1.623-.502-.787-.43-.78.222-1.676.599-.822.629-1.21.289-1.68-.807-1.113-.805-1.582.007-2.318.619-.561.676-.812.142-1.773-.524-.942-.59-1.028.371-1.966.982-.958.971-.939.313-2.025-.639-1.054-.604-1.124.42-2.153 1.038-1.041 1.052-1.043.372-2.357-.636-1.228-.64-1.208.601-2.405 1.237-1.115 1.658-1.256.424-2.855-.687-1.27-.198-1.394.931-2.026 1.98-1.308 1.079-1.227.247-3.168-.695-1.3-.298-1.31.914-1.961.3-.14.633-.301.976-.507.81-.49.372-.936.372-.936zm2.588.03 5.95.083c-6.896 9.527-10.216 21.713-11.407 34.568l-2.248-.037c-.14-10.04 2.78-22.582 7.705-34.613zm30.555.223c3.404 3.098 5.926 4.873 7.72 5.573 0 0-2.4 4.308-2.585 4.151-13.805-2.876-30.222 5.83-33.935 24.603l-2.175.015c.803-7.366 2.595-13.518 5.895-19.935 3.275-6.23 6.29-9.873 10.84-14.461zm-23.75-.16 2.933.057s.55.715.798.973c1.266 1.553 1.375 1.243-1.414 2.947-1.76 1.075-2.54 1.575-2.643 2.025-.08.454.768 1.355.868 1.961.002.069-2.394 1.803-2.827 2.049-.605.317-.635.59-.035 1.717.69 1.296.634 1.25-.855 2.374-1.451 1.096-1.737.988-1.118 2.078.86 1.515.455 1.857-1.566 3.037-.51.298-.524.597-.167 1.63.496 1.437.624 1.293-.42 2.071-1.233.92-1.451.945-1.178 1.507.794 1.636 1.11 2.033.049 2.567-.81.407-.826.638-.379 1.717.45 1.085.566 1.041-.233 1.653-.74.567-1.175.44-.454 1.368.57.734.519 1.313.055 1.762-.4.184-.586 1.005-.47 1.022l-1.028.03c-.805-1.173.145-1.846.289-1.961.131-.27-.03-.462-.354-1.097-.447-.876-.432-.98.212-1.492.65-.517.67-.383.236-1.526-.504-1.329-.48-1.48.313-2.097.78-.607.79-.741.26-1.905-.559-1.228-.56-1.228.827-2.224.976-.7.99-.658.473-1.957-.357-.898-.105-1.208 1.223-2.191.758-.562.815-.673.458-1.342-.984-1.844-.974-1.9.723-3.09 1.387-.972 1.376-1.055.84-2.352-.579-1.404-.631-1.295 1.272-2.529 1.566-1.015 1.652-.957 1.007-2.18-.802-1.52-.751-1.271 2.383-3.209 1.13-.837 2.149-.547 1.025-1.973a34 34 0 0 0-1.102-1.42zm-55.344 2.504c.217-.01.386.28.375.815-.038.754-.368 1.502-.685 2.251-.662 1.527-1.322 2.657-1.67 2.661-.82.01-.798-.189.29-2.492.498-1.051 1.01-2.251 1.092-2.484.175-.503.405-.744.598-.751m10.073 3.457c.015 3.232-9.357 4.86-9.844 3.229 1.634-1.383 6.465-.77 7.488-2.007-1.234-.077-2.905.143-4.05.165-1.429.028-3.737.688-3.76.961-.15-.85 2.453-2.447 4.515-2.548 1.927-.09 4.02.157 5.651.2m.803 4.934s-18.275 16.357-27.308 24.272l.055 3.528 28.91-25.602zm-.059.808 1.167 1.533-27.138 23.92-.097-2.507zm85.778 8.393-.976 1.126c-26.505-21.334-50.913 11.059-37.454 34.23-.122.3-1.058 1.039-1.058 1.039-15-26.9 13.702-58.378 39.488-36.395m-14.586-4.672c1.505.013 4.274 1.13 5.444 2.653 1.362 1.773.966 2.563-.764.89-1.86-1.461-3.396-1.8-.813-.075.57.38 1.082 1.124 1.108 1.207.094.296-.382-.015-2.547-.869-1.286-.507-2.918-1.88-3.341-2.814-.317-.7.125-.999.913-.992m-5.578.048c.47-.004.888.036 1.184.128 1.896.588 2.493.897 3.2 1.491.483.407.328.7-.233.44-.654-.303-2.725-.97-3.095-.929-.538.06.002.442.775.65 1.713.464 2.564.942 1.34.962-.637.103-3.429.113-4.19.015-1.27-.162-3.172-1.415-2.734-1.864.473-.484 2.344-.882 3.752-.894zm-5.437 1.928c2.248.03 3.465.937 1.007 1.12-4.224.723-5.035 1.717-.354.534 1.09-.276 1.069.15.316.548-.616.324-1.385.484-2.025.82-1.155.52-3.8.635-4.833.21-1.523-.627 3.258-3.265 5.888-3.232zm18.089.414c1.136.032 3.558 1.813 4.638 3.483.705 1.092.354 1.876-.712 1-.214-.176-1.744-1.584-1.828-1.616-.142-.057 1.27 1.395 1.477 1.803.177.347.585 1.142-.178 1.158-1.191-.16-3.988-3.54-4.005-5.209-.005-.446.23-.63.608-.62zm-14.094.95c.474-.016.232.255-.667.94-1.62 1.235-.776.988 1.119-.067.575-.321 1.27-.571 1.514-.62s.534-.122.646-.158c.51-.17.117.51-.712 1.228-1.743 1.512-3.712 2.7-5.071 3.063-1.732.464-2.1.523-1.46-.646 1.018-1.86 2.5-3.345 3.916-3.634q.478-.098.715-.105m5.83.03c.72-.015 1.613.147 3.018.475.988.333.73.404-.455.544-2.226.264-1.3.545.865.504 2.954-.024-1.48 1.151-2.918 1.386-1.122.054-1.45.011-3.897-.485-.932-.189-.373-.928 1.393-1.841.722-.373 1.272-.567 1.994-.582zm18.254.433.08 2.06-35.763 32.347-1.216-1.454zm-12.169 1.77c1.426-.02 3.487 1.05 3.266 1.695-.082.24-.242.231-1.33-.083-.714-.205-1.994-.422-1.824-.251.06.059 1.057.472 1.439.57 1.26.328 2.768 1.099 2.435 1.328-.584.384-1.118.083-1.81.004-1.729-.26-4.569-1.205-5.036-1.677-.53-.535 1.328-1.564 2.862-1.585zm-16.68.12c.256.015.353.274.107.628-.373.532-.544.978-.88 1.631-1.195 1.998-1.949 2.788-3.098 3.563-1.149.774-1.313.64-1.212-.97.129-1.672 1.236-3.431 2.8-4.257.722-.11 1.135-.316.378.665-1.344 1.742-.424 1.563.83-.413.4-.629.817-.86 1.074-.846zm-4.645.234c.775-.004 1.035.293.042.797-.946.48-2.827 1.903-2.873 2.059-.078.265.627-.15 1.796-.842 1.564-.924 1.702-.901.945.154-.855 1.194-2.912 2.69-4.527 3.243-2.258.669-2.203.201-.941-1.612 1.203-1.971 2.224-2.912 3.765-3.45.675-.236 1.328-.347 1.793-.35zm-38.31.301c8.196 15.289 3.646 30.824-5.861 38.746-9.941 8.282-25.406 7.79-34.531-2.15l1.266-1.293c-.006.007 14.386 15.862 32.512 1.788 9.2-7.142 12.999-24.01 5.41-35.768zm-36.71.034-.063.015c-.276.193-1.317 3.496-1.526 4.866-.06.402.03.794.334 1.116.213.226.56.08.667.034.692-.34 1.075-.86 1.681-2.507.406-.901.462-1.98.382-2.356-.032-.152-.257-.508-.538-.71-.311-.224-.752-.46-.938-.46zm.159.688c.328-.003.976.573 1.056.984.005.717-.374 1.91-.657 1.732-.473-.636-1.018-.235-1.108-.466-.061-.705.358-1.63.646-2.243zm88.513.57c3.644.002 7.268 1.156 9.928 3.706l-1.42 1.41c-6.241-4.813-13.506-3.404-17.81-.158-4.263 3.214-8.035 10.327-4.34 20.345l-1.334 1.308c-4.14-8.059-1.918-18.708 5.409-23.747 2.584-1.776 5.893-2.792 9.212-2.86zm-53.89 1.177c.111 0 .279.392.261.872-.021.577-.247 1.33-.608 1.488-.406.18-.663-1.13-.663-1.13.25-.428.59-.863 1.01-1.23m65.246.45c.15-.007.293 0 .417.016.407.055.41.448.028.826-.413.409-.629.43-1.045.102-.373-.293-.392-.51-.07-.76.17-.116.424-.17.671-.183zm-69.99.09 1.209 1.613-4.19 3.645-.5.041-32.07 28.729-.007-2.552zm67.008 3.89-4.368 3.898c-8.73-4.906-15.73 3.837-13.26 11.779l-3.778 3.546c-6.755-20.057 13.003-26.92 21.406-19.223m-22.87-3.063h.04l.086.06c.153.162-.152 2.82-.378 3.315-.083.18-.148.41-.146.514.002.218-.804 2.043-1.435 3.247-.238.454-.492 1.049-.562 1.327-.507 2.632-1.598-1.601-1.213-4.059.181-1.154 1.697-3.54 2.137-3.363.223.09.208.273-.185 1.196-1.094 2.575-1.369 3.903-.218 1.412 1.326-2.87 1.67-3.608 1.876-3.649zm-74.197.053c.162.01.291.107.362.312.048.174.1.537.01.714-.224.546-.688.905-1.156.872a.535.535 0 0 1-.46-.45 1.16 1.16 0 0 1 .28-.868c.333-.37.695-.596.965-.58zm33.252.166c.517.027 1.063 1.533.715 2.22-.284.564-.336.459-.834-.63-.261-.573-.462-1.188-.462-1.188l.424-.361.108-.037zm-.872.634s.545 1.067.677 1.917c.081.52.068.422-.458.207-.415-.28-.507-.443-.764-.793a6 6 0 0 0-.34-.564zm3.273.23c.275-.01.57.29.84 1.025 1.015 2.762.922 5.862-.218 7.325-.19.242-.235.252-.463.1-.185-.123-.203-1.435-.024-1.807.056-.116.224-.909.236-1.356.03-1.061-.239-1.194-.368-.21-.149 1.136-.31 1.93-.598 1.247-.144-.347-.217-.693-.326-1.063-.571-2.388.095-5.23.92-5.26zm-4.423.706s.977 1.364 1.38 1.852c.141.264.135.33-.091.425-.387.16-1.68-.772-2.193-1.06-.276-.238-.156-.42-.156-.42.354-.288.706-.572 1.06-.797m38.532.049c.52-.007.52.19-.035 1.056-3.107 4.835-2.48 4.117-.503 1.473 1.099-1.471 1.29-1.61 1.41-1.282.09.247-1.217 3.109-1.893 4.146-.35.536-1.543 1.431-2.147 1.762-1.478.81-1.314.484-.768-1.522.697-3.112 2.446-5.615 3.936-5.633m-40.356 1.672c8.518 22.914-14.807 32.971-25.331 22.374l1.226-1.056c14.64 10.741 29.09-6.467 22.476-19.932 0 0 .6-.539 1.63-1.386m1.973.556c1.402.155 3.473 2.93 3.578 4.475.221 1.099-.066 1.287-.563.515-.84-1.679-.739-.615-.024 1.052.38.842.468 1.851.073 1.905-.54-.118-1.706-2.131-2.064-2.961-.85-1.818-.912-1.51-1.378-4.205-.088-.505.034-.777.378-.781m-4.238.752c6.488 13.46-7.47 29.633-21.667 19.18l4.256-3.654c7.41 3.845 15.676-.923 13.308-11.976zm64.728 2.509-11.704 10.55c-2.41-8.745 6.435-13.74 11.704-10.55m-21.74-.022c.383-.086.708 2.562.778 6.279.07 3.636.156 3.995-.89 2.657-.437-.546-.976-1.067-1.215-1.556-.694-1.42-.474-2.906-.282-4.983.18-1.939.82-1.635.716.394-.067 1.306-.054 2.93.136 2.927.068 0 .088-.126.044-.304-.09-.372.324-4.58.494-5.077.073-.214.148-.322.218-.338zm-32.258 1.6c.845.358 1.086 3.41.17 6.363-.393 1.268-.998 2.096-1.9 2.608-.643.364-.793.249-.503-.387.534-1.037.818-2.112 1.035-3.45.087-1.306-.55-.257-.497.3-.5 2.437-1.155 2.803-1.07.237.063-1.891.292-2.702 1.116-4.001.414-.651.856-1.547 1.65-1.669zm29.358.309c.348.003.432.508.121 1.491-.216.682-.951 2.89-.865 2.882.054-.005.843-1.99 1.004-2.315.264-.532.362-.633.594-.608.226.98-.006 2.205-.118 3.22-.477 2.647-2.144 5.38-2.782 4.566-1.04-1.325-.553-6.693.826-8.324.52-.615.95-.916 1.22-.913zm-44.58.406c1.257 9.36-5.883 13.356-12.05 10.533.13-.035 12.05-10.533 12.05-10.533m29.187.173 1.243 1.766 2.279.127-1.167 1.86 1.16 2.383-2.543.053-1.462 1.819-1.272-1.642-2.223-.128 1.296-2.236-1.046-2.138 2.4-.124zm-19.124.804c.286.011 1.691 2.01 1.831 2.747.425 1.787.268 5.166-.327 5.05-.645-2.434-.394-3.692-.625-3.412-.4.447.249 4.18.035 5.099-.102.234-.447-.048-.834-.65-1.034-1.608-.895-7.9-.105-8.827zm76.1 3.793-28.123 25.203 1.622 2.258 26.553-23.714zm-40.618.435c.123-.027.403.186.93.811.921 1.345 1.897 3.19 2.252 4.611.135.553.351 1.285.483 1.627.197.515.214.656.097.812-.487.649-2.524-.986-3.182-2.552-.923-2.199-.946-4.18-.02-2.251.336.702.754 1.725.75 1.319-.001-.116-.41-1.59-.722-2.248-.194-.413-.901-2.06-.587-2.13zm40.32.612.06 2.086-26.193 23.697-1.028-1.353s24.67-22.197 27.162-24.43zm-40.893 1.29c.123.013.186.203.15.627-.12 1.378-.434 4.377-.369 4.641.04.16.415-1.986.5-2.367.448-1.988 1.132 2.764.72 4.893-.065.334-.196.874-.265 1.206a5 5 0 0 1-.375 1.049c-.742 1.262-2.486-3.764-2.193-6.325.183-1.594 1.39-3.771 1.831-3.724zm-30.303 1.1c.343-.019.409.345.352 1.11-.198 2.621-1.81 5.374-3.575 6.106-1.758.729-1.922.583-.88-.778.791-1.031 1.27-2.114 1.137-2.255-.074-.077-.25.356-.89 1.244-.802 1.114-.935.17-.204-1.465.63-1.414 1.219-2.153 2.403-3.017.836-.61 1.355-.926 1.657-.943zm15.928.797c-.354 11.29-2.956 23.554-7.98 34.216l-4.693.01c5.747-9.156 9.414-20.494 10.435-34.177zm2.063.011s.704.79.99 1.323c.316.588.404 1.1-.17 1.541-.666.61-.944.383.142 1.894.572.796.387.926-.323 1.597-.732.692-.774.73-.093 1.664.728 1.001.86 1.155-.09 1.928-.857.696-.867.86-.199 1.992.615 1.042.802 1.032-.378 2.112-1.009.922-1.032.666-.06 2.363.359.625.334.665-.322 1.293-1.613 1.543-1.529 1.447-1.3 1.852 1.767 2.739.968 2.66-.76 3.969-.35.322-.26.686.521 2.055.663 1.163.567 1.415-.987 2.57-1.617 1.204-1.67 1.366-.86 2.594.796 1.209.813 1.127-.48 2.374a29 29 0 0 0-1.063 1.083h-2.866s.605-.598 1.018-.929c2.354-1.884 2.344-1.685 1.352-3.044-.879-1.202-.794-1.28.097-1.969.64-.495 1.503-1.004 2.15-1.51.35-.27.09-.493-.49-1.68-.65-1.332-.685-1.177.526-2.255 1.325-1.18 1.347-1.135.628-2.63-.72-1.499-.732-1.37.178-2.172 1.352-1.194 1.417-1.13.705-2.514-.568-1.104-.574-1.072.386-2.108.967-1.045.846-.979.274-1.935-.581-.973-.551-1.103.216-1.841.826-.796.709-.747.024-1.763-.675-1-.664-.926.156-1.702.432-.408.866-.823.841-1.015-.063-.495-.5-1.196-.92-1.871-.16-.258.16-.337.673-.914.522-.587.499-.44.105-1.218a35 35 0 0 0-.618-1.13zm-7.68.027.816.022s.14.2.33.41c.524.578.548.918.02 1.228-.505.298-.311.715.112 1.387.448.712.444.63-.198 1.33-.664.583-1.006.748-.275 1.852.416.512.364 1.04-.281 1.5-.496.352-1.32.645-.452 1.987.425.957.458.895-.427 1.575-1.177.904-1.398.746-.858 2.063.602 1.465.66 1.487-.573 2.469-1.434 1.141-1.483 1.233-.886 2.6.602 1.378.618 1.029-.9 2.307-1.111.937-1.364.988-1.035 1.762.617 1.451.879 1.84-.92 2.838-2.077 1.151-2.182 1.237-1.184 2.95.81 1.392.63 1.195-.71 2.029-1.936 1.205-2.79 1.73-2.851 2.105-.04.423 1.511 1.683 1.511 1.683l-2.702.079s-1.136-.998-1.577-1.462c-1.223-1.287-1.236-.866 2.827-3 2.243-1.176 2.055-.91 1.688-1.596-1.081-2.028-1.119-2.24.91-3.345 1.763-.96 1.46-1.029 1.032-2.48-.374-1.264-.315-1.148.614-1.893 2.246-1.803 2.185-1.616 1.834-2.5-.344-.87-.61-1.274-.35-1.702.808-1.256 2.53-1.523 1.826-3.018-.328-.964-.445-1.18.546-2.014.893-.804.899-.707.327-1.77-.697-.975-.597-1.136.424-1.902.727-.719.717-.7.309-1.401-.563-.967-.535-.997.267-1.759.654-.62.768-.653.351-1.338-.553-.907-.461-1.107.267-1.552.447-.273.445-.384.407-.845-.008-.089-.24-.602-.24-.602zm10.136.052 3.762.011c1.201 7.547 3.3 10.643 4.513 13.033-4.758 8.26-3.675 15.122-.772 21.195l-11.915-.049c3.055-11.305 4.63-22.679 4.412-34.189zm-25.824.03c.138-.01.235.231.469.662.753 1.39.22 3.362-.883 5.427-.825 1.545-.975.364-.598-1.86.238-1.404-.415.699-.726 2.393-.168.92-.575 1.66-1.018 1.616-.416-.073-.288-1.36-.274-1.646.094-2.028.792-3.465 2.15-5.479.514-.763.722-1.1.879-1.112zm38.406 3.969c.179-.009.428.071.736.263.24.149.67.43.97.608 1.043.621 1.127.81.632 1.436-.613.772-1.006.479-2.067-.808-.716-.868-.728-1.478-.271-1.5zm-.348 1.698c.17.004.517.201.855.62.688.851.605 1.57-.156 1.365-.31-.491-.471-1.24-.768-1.793-.067-.125-.031-.194.07-.192m33.606.11c-.666.001-1.781.952-1.994 1.92-.647 2.952-.647 2.824-.066 3.254l.382.274c.34.29.804.74.865.65.553.003 1.392-3.78 1.365-4.559.034-.823.06-.922-.13-1.297-.085-.17-.236-.244-.423-.244zm-34.116.063q.066-.012.166.075c.436.47.612 1.311.834 1.913.002.13-.05.345-.111.474-.377.784-.965.024-1.025-1.327-.034-.759.002-1.107.136-1.135m34.012.582h.083c.447.022.377.522-.243 1.248-.327.382-1 .563-1.223.328-.324-.343.345-1.284 1.073-1.511q.178-.055.31-.064zm-75.567.414h.073a.8.8 0 0 1 .584.323c.298.398.172 1.015.031 1.53-.353 1.349-2.69 3.962-3.53 3.972-.498-.094 1.589-2.963 1.654-3.446-.155-.164-1.449 1.452-2.056 2.574-.275.508-.587 1.135-.754 1.244-.436.054-.938.354-.941.038.072-1.434 2.666-4.557 3.55-5.427.543-.553 1.013-.8 1.39-.808m6.256.135c2.005-.024-1.942 4.72-4.495 5.404-.795.213-2.26.27-2.365.09-.104-.178.013-.324.34-.417.527-.15 3.136-1.946 3.133-2.157-.003-.266-1.08.175-2 .82-.597.416-.877.33-.553-.174 1.5-2.331 3.504-3.536 5.94-3.566m34.693.008c.115.01.228.255.3.8.364 1.017.38 1.295.038 1.594-.589.512-.733.369-.726-.808.005-.97.2-1.603.388-1.586m-66.026 1.35s.73.295.427.672c-.212.261-1.111.04-1.112-.037zm100.688.03c.239-.017.245.22.118.822-.066.316-.355 1.977-.865 2.439-.062.043-.802-.434-1.004-.654-.092-.102-.382-.336-.42-.488-.126-.503.009-1.155.361-1.48.138-.128.414-.198.563-.2.117-.002.461-.124.768-.27.214-.103.37-.162.479-.17zm-100.431 1.145c.481-.004 1.072.052 1.574.237 1.478.465 4.19 1.778 4.606 2.21.607.627-.978 1.296-2.884 1.319-1.01.012-1.2-.215-2.599-1.12-.18-.128-.993-.706-.757-.917.26-.286 1.04.082 2.011.617.317.174 1.089.124 1.088-.03-.003-.182-1.943-.963-3.398-1.463-.955-.328-.933-.66-.347-.8.167-.027.416-.05.705-.053zm-1.91.718s.402.385.923.808c.566.459 1.224 1.025 1.682 1.778.661.873 1.707 3.045 1.59 3.438-.268.902-3.061-.68-5.346-3.152-.743-.804-1.178-1.402-1.178-1.402l.872-.853s.766.693 1.65 1.537c1.658 1.583 1.647 1.04-.02-.627-.473-.472-.908-.895-.908-.895.022-.302.287-.57.733-.631zm68.25.075s.89 1 1.222 1.462c-5.437 5.75-7.513 13.782-2.265 22.337l-2.519-.012c-4.717-10.042-2.48-17.602 3.561-23.787m-45.984.236c.338-.016.03.414-.57 1.518-1.12 2.062-1.342 2.583-3.16 3.096-.469.131-1.137.028-1.411.064-.783.106-.435-.001.764-.842 1.66-1.165.25-.566-1.285.29-.89.495-1.822.47-1.904.214-.045-.142.36-.514.622-.767 2.338-2.262 3.056-2.167 5.231-2.984.95-.357 1.481-.58 1.713-.59zm-9.775 2.064a10.3 10.3 0 0 1 2.338.266c.464.114 1.222.215.583.838-.722.736-2.675 1.74-4.12 1.808-.202.008-3.177-.219-2.542-.91.127-.076.53-.056.88-.127 1.647-.338 1.201-.624-.828-.507-2.54.146-2.656-.138-.733-.707 1.407-.416 2.79-.63 4.057-.657zm13.575.21c1.131-.012 2.01.206 2.015.673.008.756-2.134 2.414-3.54 2.743l-1.045.248c-.49.12-3.206.018-3.47-.087-1.271-.5-.387-.695 1.946-.988 1.015-.127 1.5-.415 1.497-.624-.001-.1-.749-.13-1.862.023-1.243.17-.999-.226.55-1.094 1.022-.573 2.63-.88 3.91-.894zm-20.929 1.049c.158.004.54.146 1.174.432 1.354.426 3.214.909 4.489 2.412 1.028 1.078 1.28 1.425 1.063 1.804-.262.459-3.454.11-4.798-.511-.887-.41-1.945-1.291-2.428-2.052-1.17-1.844-.678-2.33.81-1.04 1.792 1.553 2.058 1.713 2.376 1.642.128-.029-.188-.348-.789-.83-1.51-1.214-2.245-1.867-1.896-1.857zm11.043 1.98c1.501.003 1.826.124 3.283.846 1.824.695 1.382 1.314-1.855 2.187-1.621.412-3.253.123-4.436-.665-2.61-1.737-2.437-2.084.475-1.308.957.255 1.91.303 1.97.11.045-.149-1.112-.468-2.053-.805-1.018-.365-.143-.334 1.893-.357zm75.067 7.502s-.333.17-.48.258c-.117.07-1.019.191-2.005.27-1.945.158-3.253.495-4.433 1.008-1.782.774-2.973 3.164-2.973 3.164 1.332-.098 8.87 1.376 10.961-1.562.438-.615-1.124 4.643-1.926 4.876-1.987-.258-2.822 3.115-2.624 2.972-2.003.84-3.557 1.333-3.048 3.849.222 1.097 1.25 2.4 3.428 2.073-.594 4.362 4.342 5.49 4.885.232 0 0 .962-.198 1.332-.246 2.25-.576 2.796-4.133-.507-5.26-.916-.294-.968-.48-.968-.48.17-.803.13-1.645-.406-2.58.728-1.879 2.54-5.5 2.54-5.5zm.35 1.086c.454.656-1.915 1.741-4.435 1.976-.566.053-1.81.176-1.842.237-.271.514 4.875.14 6.479-.83.549-.334.598-.04.36.472-1.862 2.59-6.355 1.951-9.868 1.497-.2-.219-.03-.486.758-1.177 1.443-1.267 2.483-1.69 4.762-1.943.636-.022 3.499-.604 3.785-.232m2.783 2.679c-.324 1.114-2.015 4.513-2.015 4.513-.208.224-.95.383-.893-.477.009-.924 1.608-4.73 2.04-4.803.514-.043.894.367.868.767m1.072.26c.496 3.9 3.232 4.828 5.858 6.057.691.343 1.277.952 1.97 1.345 1.298-1.914-.164-5.632-2.45-6.843-1.697-.857-3.243-1.539-4.199-1.462-.553.045-1.17.428-1.179.901zm1.404-.234c.294-.003.714.088 2.248.53 2.314.665 3.947 2.512 4.373 4.945.017.099.137 1.984-.262 1.916-.603-.188-.928-.844-1.895-1.281-1.207-.547-2.9-1.264-3.939-2.285-.84-.824-1.298-1.712-1.4-2.473-.104-.79.14-.87.754-.233 1.373 1.182 2.727 1.586 4.085 2.728.377.317 1.731 1.13.807.118-.627-.685-2.472-1.879-3.45-2.388-1.362-.708-2.102-1.568-1.32-1.578zm-104.25 3.893 15.518 26.241c-3.819 2.18-5.701 3.134-12.043 2.597l.024.346-2.695-.17c4.655 7.86 10.4 18.113 8.77 36l18.902-.02.324.324c.276.202.691-.355.691-.355l8.527-.05.23.298 3.977-.03s-18.18-36.799-27.31-55.072c-3.751-7.33-7.658-10.586-14.914-10.108zm97.851.868c1.02-.027 2.032.73 2.04 2.202.003.767-.594 1.836-.594 1.836l-1.385-1.428-1.324 1.433c-.651-.583-1.038-1.693-.824-2.324.407-1.08 1.295-1.699 2.087-1.72zm-16.049.523c1.313 5.536 2.732 13.17-8.657 30.815-6.736 10.435-8.94 20.28-9.208 32.295l-.681.004c.321-6.594.364-18.55.364-18.55l.636-.612s-.29-.508-.417-1.104c-.215-1.006-.033-.67.522-3.371 2.327-13.043 17.442-39.476 17.442-39.476zm-60.812 2.54 57.717.286-.768 1.638-55.852-.432zm76.934.474 2.143 2.259-2.094 2.544-2.206-2.495zm-1.758.96-1.169 1.345 1.014 1.154c-1.043 2.369-3.82.52-3.727-1.253.109-2.075 2.35-2.925 3.883-1.246zm3.704 2.673.931-1.28-1.052-1.248c1.723-1.842 3.353-.22 3.51 1.316.168 1.637-2.192 3.486-3.389 1.212m-68.359-1.566 4.728.048-1.758 3.56-4.794-.023zm10.532.026h4.342l-1.833 3.607H66.03zm10.255 0h4.607l-1.87 3.607h-4.73zm10.31 0h4.714l-1.716 3.607h-4.89zm10.502 0h4.544l-1.841 3.607H97.01zm-50.176.019h3.054l-1.248 2.375zm76.138 2.276c1.748 1.518.533 4.01-1.288 4.055-1.253.03-3.074-2.264-1.105-4.134l1.312 1.297zm-64.23 1.918h4.44l-1.671 3.246h-4.35zm9.87.026h4.87l-1.716 3.247h-4.634zm10.428 0h4.846l-1.58 3.247h-4.895zm10.39 0h4.808l-1.497 3.247H89.63zm-39.65.124h3.064l-1.306 2.6zm2.31 3.765 44.99.433-.764 1.578-43.083.007zm1.58 2.826 42.16.113-.97 2.184-14.566-.072c-2.843-2.295-6.09-1.234-9.797.072 0 0-11.15.126-15.534 0zm59.163 5.573c2.34 3.238 4.017 7.749 4.697 11.308.674 3.638-.057 5.42-.917 2.236-1.425-7.963-10.153-9.126-14.049-2.958-5.41 8.569 4.068 18.968 10.863 12.003.58-.594.902-.738 1.098-.488.228.29.07.55-1.14 1.867-4.72 5.146-2.966 12.551 3.426 14.273 9.073 2.444 14.558-9.553 6.628-15.216-.825-.678-.912-.85-.612-1.217.269-.328.501-.29 1.235.428 6.797 6.65 16.08-2.039 11.78-11.026-3.312-6.922-12.53-5.651-14.735 2.04-.411 1.434-.441 1.517-.67 1.677-.945.04-.28-3.341-.136-4.235 1.07-3.946 2.25-7.639 4.51-10.691zm-73.183 3.68 22.236 37.965-4.915-.06-21.114-35.714zm-4.457 2.472 20.992 35.484c-.963-.024-1.857.04-2.82.024.39-6.628-4.54-9.734-7.437-9.892 1.738-7.75-3.485-11.01-6.97-11.626 1.413-10.072-6.294-11.5-6.407-11.399.038-.826-.106-1.423-.209-2.112zm-3.4.562c-.046.214.395 2.22-.435 1.85l-.059-1.846zm-4.42.051c.3 1.335.934 1.6 1.795 2.494 0 0-1.101.203-1.356.012-.458-.343-1.414-2.516-1.414-2.516zm3.283 2.258c.533 0 .963.469.963 1.045 0 .575-.43 1.04-.963 1.04s-.962-.465-.962-1.04c0-.576.43-1.045.962-1.045m1.908.802c2.76-.195 6.765 3.008 5.71 9.004-.184-.42-.402-1.34-.85-1.994-1.904-2.777-4.145 1.03-2.634 2.582.74.761 1.087 1.062 1.008 1.13-1.702-.349-2.991 1.281-2.283 3.09 1.18 2.343 2.821 1.102 3.77-.287 0 0 .584 2.096 1.165 2.362.89.407 2.118-.11 2.536-1.272.622-1.73-.891-2.174-1.223-3.136 3.194.112 7.264 5.163 5.412 9.542.243-.999-.746-3.234-2.67-2.658-.96.363-1.295 1.877-.52 3.435.248.499.382.684.382.684s-.831.119-1.05.264c-2.496 1.663.721 6.197 2.579 3.363.189-.337.5-.723.5-.723.307.632.4 1.52.96 1.826 2.299 1.252 3.323-1.39 2.358-2.686-.544-.73-1.158-1.572-1.158-1.572-.096-.466 6.89 1.516 6.04 8.868l-18.523-.027c1.717-11.295-2.44-24.216-4.562-28.154l.919-1.312c.23.488.613 1.716 1.289 1.951 2.149.748 2.803-.876 2.515-2.546-.153-.888-1.304-1.604-1.67-1.733zm4.904 10.63c.505 0 .914.446.914.992s-.409.988-.914.988-.917-.442-.917-.988.412-.992.917-.992m6.951 11.765c.51 0 .924.448.924 1s-.414 1-.924 1-.924-.448-.924-1 .414-1 .924-1"/></svg>