<svg xmlns="http://www.w3.org/2000/svg" xml:space="preserve" width="222.783" height="323.556" viewBox="0 0 167.087 242.667"><path d="M166.837 235.548c0 3.777-3.087 6.869-6.871 6.869H7.11c-3.775 0-6.861-3.092-6.861-6.87V7.12C.25 3.343 3.336.25 7.11.25h152.856c3.784 0 6.87 3.093 6.87 6.87z" style="fill:#fff"/><text xml:space="preserve" x=".435" y="24.335" style="font-size:28.75612259px;font-style:normal;font-weight:400;line-height:125%;letter-spacing:0;word-spacing:0;fill:#000;fill-opacity:1;stroke:none;font-family:Bitstream Vera Sans"><tspan x=".435" y="24.335" style="font-style:normal;font-variant:normal;font-weight:400;font-stretch:normal;font-family:Arial;-inkscape-font-specification:Arial">Q</tspan></text><path d="M7.989 3.103C7.747-.954.242-8.59 0-10.5-.242-8.591-7.747-.955-7.989 3.103c-.169 2.868 1.695 4.057 3.39 4.057 1.835-.022 3.35-2.8 3.873-3.341.242.716-1.603 6.682-2.179 6.682h5.811c-.576 0-2.421-5.966-2.179-6.682.457.496 1.797 3.258 3.874 3.341 1.694-.001 3.557-1.189 3.388-4.057" style="fill:#000" transform="matrix(2.2448 0 0 2.05244 45.14 45.48)"/><path d="M7.989 3.103C7.747-.954.242-8.59 0-10.5-.242-8.591-7.747-.955-7.989 3.103c-.169 2.868 1.695 4.057 3.39 4.057 1.835-.022 3.35-2.8 3.873-3.341.242.716-1.603 6.682-2.179 6.682h5.811c-.576 0-2.421-5.966-2.179-6.682.457.496 1.797 3.258 3.874 3.341 1.694-.001 3.557-1.189 3.388-4.057" style="fill:#000" transform="matrix(1.13877 0 0 1.0412 11.176 37.94)"/><text xml:space="preserve" x="-166.877" y="-218.079" style="font-size:28.75612259px;font-style:normal;font-weight:400;line-height:125%;letter-spacing:0;word-spacing:0;fill:#000;fill-opacity:1;stroke:none;font-family:Bitstream Vera Sans" transform="scale(-1)"><tspan x="-166.877" y="-218.079" style="font-style:normal;font-variant:normal;font-weight:400;font-stretch:normal;font-family:Arial;-inkscape-font-specification:Arial">Q</tspan></text><path d="M7.989 3.103C7.747-.954.242-8.59 0-10.5-.242-8.591-7.747-.955-7.989 3.103c-.169 2.868 1.695 4.057 3.39 4.057 1.835-.022 3.35-2.8 3.873-3.341.242.716-1.603 6.682-2.179 6.682h5.811c-.576 0-2.421-5.966-2.179-6.682.457.496 1.797 3.258 3.874 3.341 1.694-.001 3.557-1.189 3.388-4.057" style="fill:#000" transform="matrix(-2.2448 0 0 -2.05244 121.707 197.4)"/><path d="M7.989 3.103C7.747-.954.242-8.59 0-10.5-.242-8.591-7.747-.955-7.989 3.103c-.169 2.868 1.695 4.057 3.39 4.057 1.835-.022 3.35-2.8 3.873-3.341.242.716-1.603 6.682-2.179 6.682h5.811c-.576 0-2.421-5.966-2.179-6.682.457.496 1.797 3.258 3.874 3.341 1.694-.001 3.557-1.189 3.388-4.057" style="fill:#000" transform="matrix(-1.13877 0 0 -1.0412 156.135 204.475)"/><path d="m102.512 285.969 23.312-42.366c-.003.01 5.62 2.166 12.196 3.886-6.345 16.44-.117 38.155-.117 38.155s-35.408.29-35.39.325zM38.8 213.371c-1.288-18.027-1.297-35.44 1.698-49.86.055-.231-8.29-5.072-7.424-5.624 1.325-.845 17.799-9.394 17.799-9.394s1.111.634 2.07.539c.749-.075 1.452-.754 1.163-1.482-.684-1.721-1.904-6.001-1.159-10.307.428-2.473 1.774-5.194 3.169-6.859 3.109-3.711 10.185-1.733 12.244-1.791 1.307-.037 5.284-13.845-1.003-16.42-1.732-.71-5.729 8.714-2.968 10.835.415.319-5.554-3.157-10.127-5.232-.424-.192-2.29-1.635-2.707-3.535-.52-2.37 7.028-6.915 5.552-9.589-2.149-3.895-7.709-9.724-10.096-8.132-2.257 2.031-7.641 6.18-7.611 9.027 1.669 5.106 5.937 5.469 8.172 10.301.557 1.044 4.674 5.437 4.674 5.437-1.553 2.365.945 6.507 1.063 5.874l-19.527-8.55s4.416 33.709-.324 38.688c-.502.527 4.188-1.314 4.267-1.026 1.421 1.805 17.185 11.868 21.697 15.483 8.044-11.172 10.984-16.089 21.343-25.995 2.273-1.871 7.339-5.287 10.24-9.397 2.331-3.302 3.302-7.025 2.89-9.917-.533-3.739-.861-6.298-3.163-9.282-5.319-6.893-13.787-13.474-13.637-13.593l2.902-2.351s10.443 8.666 14.86 15.034c2.976 4.29 1.628 9.201 4.199 10.085.619.213 4.845-.132 6.232.137.168.033 30.728 21.682 25.177 22.917-7.684 1.71-19.93.562-19.93.562-8.728-8.549-12.944-11.364-18.16-8.7 0 0-13.228 11.524-20.867 20.552-4.353 5.145-7.992 11.587-10.906 15.73-1.123 1.596-15.12-11.902-14.981-10.286 2.056 14.668 3.211 32.335 1.575 44.308-1.125 10.171-2.661 21.094-3.355 30.475 0 0 2.355-.679 4.148-.038.969.346 1.673 1.246 1.755 2.245.515 4.468-5.236 3.42-5.369 3.033.007-.004 3.198 6.897 3.198 6.897s-4.999 8.583-4.86 8.21c.086-.231-4.514-7.636-4.514-7.636s3.512-6.175 3.955-7.461c.266-.772-5.056 2.548-5.458-2.276-.405-4.863 5.809-3.548 5.529-2.95-.731-9.971-2.384-20.283-3.428-28.685zm74.88 22.57c.138-.103-13.214-5.385-25.488-4.913-4.321-1.691-11.371-3.466-16.084-.337-5.287-3.593-9.85-7.546-14.486-11.463 1.3-.014 6.231-31.327 9.437-42.232-1.396-13.556 11.667-13.522 12.781-2.664 14.045 14.571 31.247 29.648 48.98 44.484-2.837 5.852-13.043 10.299-15.139 17.126zm30.948-95.823c-16.013-16.38-49.534-45.673-49.534-45.673L110.84 79.14c8.246 2.473 16.72 4.543 26.305 4.658.037.038 10.495 4.779 16.08.018l14.487 11.519s-6.077 31.626-9.631 42.661c.067 4.374-1.599 9.698-5.922 10.481-3.692.669-6.52-4.567-7.531-8.359m32.499-37.814c1.693-10.282 2.052-17.767 3.236-29.764-7.241 2.105-7.124-7.644-.021-5.067l-3.281-7.264 4.895-8.166 4.464 7.772-3.87 6.875c8.016.409 6.068 7.844-.832 6.035 1.28 11.497 4.124 23.114 3.964 34.477 2.447 18.23-3.135 43.579-2.22 44.182l7.807 5.389-1.411 39.649-12.335-5.431-3.679 2.47c1.175 2.336 2.671 4.576 3.173 7.112 0 0 8.489 7.006 7.305 9.182.547.322-6.067 9.038-8.003 8.817-3.696-.422-8.011-5.198-9.188-8.596-1.036-3.417 7.646-6.749 6.557-9.249-1.304-2.991-4.606-4.435-7.534-5.319-4.037-1.219-5.879-4.418-6.064-4.419 0 0-1.593 12.67-3.103 11.654-6.072-4.087-1.89-17.011-.763-16.649 0 0 2.654.615 5.79.915 11.049 1.178 10.326-12.403 8.197-18.98-.534-1.561.305-1.571.246-1.591-.513-.177 1.787-.045 3.74-.616 5.369-1.571 13.601-7.011 13.601-7.011-8.628-4.804-16.242-10.282-23.073-15.475 0 0-6.37 10.818-13.91 18.315-5.489 5.458-6.384 7.318-15.567 14.342-.178.136-6.964 8.214-3.758 17.667 2.744 8.089 15.988 16.866 15.889 17.45l-2.615 2.488c.105.145-18.749-11.739-18.286-24.482-.02-.482-8.578-.664-8.578-.664l-24.83-23.086 21.071-.051 10.802 8.851 6.759.364c.441.389.69-1.784 6.652-6.211 11.391-8.458 25.526-30.207 25.526-30.207s14.884 10.504 14.899 10.505c-.716-15.734-3.222-32.657-1.654-46.214zm-54.121-74.451s-15.541 29.042-24.059 42.72l-12.023-3.471c5.066-13.36.288-38.851-.979-39.496Z" style="fill:#e2cf00" transform="matrix(.72321 0 0 .78224 2.452 .195)"/><path d="m30.464 24.293.914 261.772 162.541-.104-.468-261.667zm112.969 189.699c7.711-7.162 15.338-13.074 22.469-17.371 2.766-1.666 3.605-1.91 4.691-.922 1.772 1.612 2.875 3.014 2.297 4.142-.131.254-.548.677-.548.677l-4.26-1.62 1.38 4.831c-3.833 1.56-3.764 5.705-.065 7.903l-2.545 5.855 5.917-2.603c.226 1.276 4.446 4.362 7.071.001l5.344 2.607-1.841-6.541c1.755-1.671 2.777-4.342.018-6.803l1.27-5.124-4.826 1.57c-1.209-1.652-1.911-1.539-2.189-1.99-.083-.616-.098-2.05-.9-3.372-.664-1.093-1.423-2.254-2.132-3.068-.376-.636-.076-.69 1.851-1.732.905-.49 1.653-.985 1.653-.985s9.497 4.763 13.371 6.576l.22 87.71-52.093-.152c-5.858-17.483-1.65-32.593-.097-38.953-2.731-.228-16.819-4.79-17.242-6.36 5.581-8.864 13.155-16.918 21.185-24.278zM42.068 239.511c-6.795-2.194-6.863 5.986-3.392 6.62.9.164 1.841.299 3.248-.155.349.072-4.07 6.858-4.07 6.858s3.539 6.425 5.234 9.156l5.35-9.49-3.498-6.568c5.477 2.791 8.313-5.519 2.562-6.607-1.389-.189-2.925.506-2.925.506l3.024-28.427c2.438 1.656 6.885 4.978 6.885 4.978 1.012 15.661.27 28.714 9.029 51.5l.09 15.854H33.537l-.117-82.774 5.262 3.765c.112.468-.839.155-.326 5.915.463 5.204 2.048 14.227 3.713 28.87zM150.029 26.724c.24.34.222.86.429 1.549 1.217 4.055 5.448 8.923 8.819 10.202 1.181.448 1.639 1.128.957 1.81-.861.861-4.415-1.494-7.039-4.548-2.383-2.774-3.971-5.069-4.323-6.811-.209-1.034-.313-1.698-.159-2.236.436-.603.977-.436 1.316.034m4.204-.438c.446-.002 1.045.523 1.405 1.477.866 2.296 2.223 4.012 4.346 5.496.563.394.787.983.5 1.328-.106.128-.244.19-.4.234-1.655.462-6.014-4.58-6.361-7.71-.075-.68.163-.824.51-.826zm5.424.063c.88-.004 1.302 1.833.792 2.795-.332.303-1.063-.164-1.711-1.37-.557-1.036-.334-1.419.918-1.424zm-2.95.029c.197-.006.605-.111.812.176.339 1.898 1.771 3.272 2.913 4.371.192.36.281 1.113-.138 1.309-1.001.443-4.013-2.981-4.034-4.961-.006-.596.176-.887.448-.895zm-3.822 1.203c1.056 3.465 3.613 6.291 5.903 7.758 1.637 1.042 2.269 1.634 1.509 2.166-.188.132-.379.233-.423.226-3.833-1.463-8.545-7.014-8.704-10.942.835-1.069 1.572.128 1.715.792M139.618 42.62c-2.016.003-4.485.462-6.49 1.371-2.79 1.266-3.489 2.107-3.083 2.412.293.215 2.089-.556 2.989-.673 4.858-1.202 8.201-1.497 11.367-.117 2.448 1.067 2.463.577.819-1.199-1.191-1.288-3.318-1.797-5.603-1.794zm17.124 2.663c1.608-.016 3.249.36 3.832 1.109.454 2.425-.757 1.316-1.733.833-1.41-.651-3.025-1.213-4.533-.981-.969.149-.996.1-.447-.211.828-.503 2.001-.738 2.881-.75m-19.042.945c-4.595.357-6.186 2.68-9.152 5.076-1.219.927-.941 1.644.544 1.4 1.833-.3 2.572-.228 5.073.625 2.73.932 4.686 1.318 6.186.742 2.837-1.09 2.593-.908-1.463 3.019-2.17 1.743-1.294 1.652.904.142 1.624-1.298 2.742-2.125 3.081-2.836.165-.346.179-1.584.485-1.584 1.032 0 .5-1.287-.438-1.834-.616-.439-.479-.898.319-1.742 1.252-1.317.826-1.913-.533-1.092-.239.13-.357-.273-1.187-.773-1.313-.792-2.419-1.161-3.819-1.145zm3.312 1.724c1.111.934.635 1.193-1.788 1.17-2.048-.019-3.792.196-6.225 1.002-2.763.916-2.932.939-1.309-.443 2.232-1.902 6.767-3.81 9.322-1.729m14.353-.807c1.114-.024 2.055.134 2.904.602 2.315 1.276 2.83 2.382.253 1.48-1.616-.566-3.799-.486-5.308-.068-1.558.432-1.827.583-1.616-.257.258-1.03 1.909-1.717 3.767-1.757m-18.202 3.764c.549 2.749 2.634 1.851 2.841.191l.761.003c-.324 2.208-3.33 4.055-4.498-.194.247-.007 1.338.069.896 0m16.635.046.565-.018c.373 2.108 2.332 2.797 3.184.16l.684.014c-.523 4.397-5.177 2.255-4.432-.157zm-18.231.205c.376.133.548 1.164.485 1.436-.131.563-1.972-.036-2.362-.587.384-.409 1.293-1.054 1.877-.848zm25.044.468-.005.77c-.85.204-1.203.681-1.997.525.045-.492-.038-1.168.423-1.742.579-.306 1.268.069 1.578.448zm-18.547.89c-.386.304-.915.337-.915.337-.083-.737-.207-1.566.712-1.573.604.176.562.923.204 1.236zm10.607-1.222c.323.023.702.827.746 1.295-.095.769-1.987.462-1.987-.302 0-.323.791-.991 1.241-.992zm-17.325 29.116c-1.461-.731-12.544-7.465-15.383-19.374l-.564 1.218c1.203 2.851 2.979 7.482 2.979 7.482-.074-.399.453 3.102 1.582 9.047-.599.007-1.261-.163-1.912-.337-1.462-5.442-1.808-9.709-3.035-15.034l-.534 1.487s1.543 9.556 2.589 13.292c-.598-.057-1.699-.303-1.699-.303-.871-4.031-1.544-6.734-2.364-10.775l-.754.977c1.083 3.317 1.505 6.283 2.05 9.461-.744-.112-1.492-.183-2.2-.578 0 0-1.118-5.797-1.266-5.881-.426.429-.602.982-.602.982-.045-.052.97 3.213.897 4.558-.712-.117-1.946-.473-2.816-.765-.455.303-.693.807-1.043 1.261.429 1.845 25.856 5.837 24.33 4.312-.009.159 11.211 4.911 17.474.874 0 0 10.891 8.076 15.145 11.302 0 .367 1.474 2.078 3.008 3.167l4.312 3.321c1.253.973 1.754.268 1.944-1.564.212-2.041 1.695-15.798 2.041-18.73 1.294-9.881 1.293-9.776-.208-9.322-2.295.695-4.36-.208-4.36-2.555 0-1.436.664-2.626 2.195-3.181.434-.149 1-.162 1.651-.149.296.054.846.09.905.101.731-.041-2.83-6.487-2.83-6.487s3.402-6.062 5.039-8.321l4.403 7.979-3.606 7.038c7.023-.527 6.335 8.3-.54 5.345 0 0-.041 2.622-.027 2.43.066-.751.056-1.392.294-1.533 6.66 2.524 8.018-7.189.84-6.741 1.181-2.059 2.497-4.187 3.725-6.457l-5.189-9.459-5.863 9.751 2.95 6.088c-.663-.172-1.196-.068-1.906.005-4.345.89-3.411 7.882 1.554 6.92.568-.11 1.42-.539 1.42-.539l-3.206 28.559s-.316.256-1.603-.671c-1.486-1.07-4.598-3.395-4.796-3.635 1.112-18.258-3.455-37.468-8.669-49.495-.331-.923-.135-19.037-.135-19.037l29.569.078.11 84.125c-1.547-.979-3.218-2.267-4.808-3.388-.476-.385-.772-.843-.568-1.579-.523 1.118-.207 1.598-.207 1.598l6.529 5.216-.259 82.791s-10.541-5.432-17.031-8.053c-2.928-1.195-3.059-.85-3.059-.85.009-.005 2.069 4.643 1.481 5.482 1.395 1.341 3.74 4.148 3.854 6.895 1.249 1.081 1.6 1.216 2.537 2.773l3.917-1.416-.889 4.08c4.165 2.916.154 6.839-.617 6.477 0 0 1.838 3.943 2.257 5.738-.658-.045-3.956-1.833-4.875-2.257-2.39 4.704-6.426.756-6.458.063l-4.477 1.994 1.585-5.096c-2.883-1.754-4.831-4.404-.169-7.259l-1.077-3.975 3.834 1.506s.715-1.149 1.259-1.987c-1.434-6.244-10.863-5.063-13.892-10.679 0 0-.744 7.011-1.506 9.547-.298 6.705-4.995-.078-4.995-7.171 0-1.602 2.013-6.991 2.695-7.252.709-.098 7.439 3.155 11.959-.077 2.058-2.14 5.607-8.161 2.197-17.587-1.128-2.178 2.145-2.454 3.208-1.719 0 0 9.836-5.144 14.277-7.623-7.449-4.093-22.938-14.982-22.928-15.499-2.066 3.28-4.433 6.031-7.76 10.67-5.393 6.35-9.609 12.385-16.454 17.46-9.626 7.008-11.886 14.062-9.201 22.344 1.086 3.579 3.274 7.209 6.856 8.465 1.823 1.843 9.144 8.774 9.144 8.774-12.223 11.129-20.615 20.282-26.5 30.395 4.967 2.612 16.948 6.396 16.948 6.396-4.45 14.789-2.424 26.536.508 38.328 0 0-34.777.045-52.823-.522-.154.152-2.107.048-2.133-.076-.071-1.319 3.25-4.943 4.245-4.437.5-.492 1.557-.743 1.367-1.347-2.49-.297-6.268 4.005-6.417 5.785h-1.485c-.304-.266 2.695-7.267 8.706-7.825-.063.252.807-.544.154-.885-7.007.83-10.27 8.605-10.063 8.711h-1.083c2.382-7.645 8.586-10.058 12.176-10.39.035-.015 1.165-.408.861-1.078-7.934 1.378-11.889 4.811-13.797 11.468h-1.43c1.032-6.752 7.978-12.667 15.828-12.474.246-.156.547-.339.419-1.107-8.712.982-13.057 3.889-16.637 11.372-3.202-8.31-12.099-12.253-12.206-12.288 0 0-.215-2.326.282-2.23 7.591 2.748 10.489-3.843 10.172-7.672-.177-2.131-.057-3.305-.77-6.377-.636-2.739-1.106-4.584-1.055-5.774.05-1.177.419-1.415 1.288-1.809 1.628-.738 2.646-3.408 2.285-3.735-.836 1.943-3.046 2.278-4.064 3.583-.813 1.075-.455 2.787.993 8.731.882 3.622-.164 1.957-2.222.823l-1.375-.778c.922.948 1.897 1.841 2.837 2.77.841.769.37 1.244-.836.799-1.737-.867-5.084-.504-6.366.588-.5.356-.677.319-.803-.009-.561-9.231.409-14.91 3.467-21.847 1.977-4.716 4.92-8.247 8.846-8.499 3.956-.328 9.643 1.058 14.808 4.566 6.067 4.12 11.979 10.385 12.607 18.072.024.089.467-.657.668-1.051.278-.914-.735-3.658-2.316-6.84-.292-2.393-1.115-6.588-1.762-9.427.492-.224 1.54-.099 1.835.26 1.111 4.693 1.901 8.347 2.854 14.635.014.613.801-.91.804-1.314-.137-.938-2.757-13.24-2.705-12.96.015-.418 2.486.132 2.146.52 0 0 1.878 10.32 2.012 10l.635-.876s-1.793-7.537-1.569-8.99c.153-.222 1.543.228 1.983.467.553.742.907 3.431 1.141 5.265.639.488.765-.922.717-1.295-.46-.73-.948-3.455-.582-3.595.287-.11 1.88.522 2.185.794.359.32 1.748-1.602 1.395-1.934-7.511-2.877-16.988-4.556-24.119-4.669-1.658.007-2.315-.227-4.856-1.145-6.472-2.337-11.823-.009-12.608.73-7.902-5.491-16.725-13.16-23.747-18.053-.33-.219-1.118-.348-1.204-.348-1.115 8.519-1.893 18.375-2.843 26.237-.386 3.113-.432 3.356-.289 3.444.124.076.367-.048.464-.098 2.311-.851 4.399-.297 5.505 1.79.556 2.985-2.055 4.95-4.808 3.532-1.022-.526-1.169-.423-.703.573.805 1.792 3.128 6.511 3.128 6.511.004.002-3.138 6.405-4.726 8.148-1.548-2.5-3.523-5.028-4.379-7.758 1.216-2.38 3.514-5.445 4.24-7.791-.103-.075-.729-.01-1.165.217-4.017 1.9-4.662-1.677-4.609-2.964.109-2.614 2.386-3.171 5.694-1.952-3.575-23.751-4.338-37.285-3.425-35.82 0 0-4.318-3.087-6.465-5.181l-.194-172.974 51.667.078c5.267 14.12 3.817 31.101.668 39.942 5.592 1.022 11.24 2.343 17.622 6.006-10.781 15.805-27.705 32.886-46.036 43.823-1.039.469-4.453-1.66-4.853-3.763-.093-.489.178-1.452.728-1.434 1.347.437 2.652 1.037 3.967 1.573 0 0-1.832-4.596-.948-5.294.575-.378 1.046-.693 1.414-1.082 1.316-1.699 1.21-3.628-.183-5.109-.561-.588-1.216-.993-1.543-1.143 0 0 1.292-3.586 1.94-5.276l-5.086 1.682c-1.647-2.283-4.676-4.059-6.914-.66-.427.906-.338.767-3.487-.626-1.785-.79-2.885-1.194-2.885-1.194.669 1.993 1.545 3.864 2.31 6.171-3.504 2.234-2.706 6.002.244 7.126l-1.554 5.089s3.313-1.235 5.109-1.715c0 0 1.575 1.583 2.042 3.086.801 2.579 2.62 4.449 3.771 5.514-1.917 1.405-2.863 1.878-5.021 2.915l7.45 3.01c-.463-1.575-1.45-2.744-1.549-4.736-.088-1.707-.185-1.738-1.289-2.893-1.805-1.556-2.076-3.639-3.09-5.34-.707-.427-1.271-1.282-1.798-2.249-1.134.107-3.695 1.38-4.18.924-.594-.634 1.032-3.884.851-4.209-1.308-.112-4.971-2.967-.608-6.147l-1.392-5.173s3.322 1.452 4.914 2.264c1.106-5.168 6.148-2.69 6.964-.462 0 0 3.997-1.314 3.75-.248-.111.957-.761 3.346-.761 3.346 3.594 3.182 2.85 4.744-.069 6.831-.045 1.687.664 4.309.664 4.309s-2.033-.903-3.373-1.282c-.536.536-1.145 1.505-1.043 2.003.909 4.022 5.869 5.142 13.218 9.253.252-2.599 2.045-6.151 2.248-9.269.126-2.274.204-2.31 1.805-1.583 4.211 3.041 2.926 11.399 1.391 14.827-.909 1.941-1.058 1.891-2.825 1.328-2.447-.779-6.773-.465-9.153.342-3.291 1.348-4.844 8.689-4.88 10.92-.058 2.119.106 4.221 1.218 6.839.461 1.675-.386 2.966-1.896 2.517-.339-.101-1.145-.409-1.145-.409l-14.207 7.349 2.676 1.574s-1.973-1.178-.75-1.816l12.18-6.356c2.27.885 1.966 1.066 3.437-.467.88-.907 1.313-.925 2.492-.812 7.181.689 10.362-.357 11.604-3.366.186-.452.115-.436.849-.806 1.359-.528 1.997-1.484 2.067-2.683.045-.786.386-.893.985-1.443 1.117-1.026 1.344-2.312.64-3.633-.331-.622-.584-.818-.447-1.463.231-1.081-.169-2.207-1.208-3.398-1.196-1.371-1.188-1.139 1.064-3.236 4.422-4.204 8.319-7.422 12.621-11.225 2.942-2.602 2.624-2.416 3.769-1.225 4.216 4.383 5.869 11.217 3.971 17.226-.089.282-.129.25.091 0 1.192-1.352 1.226-8.154.207-11.17-1.242-3.707-2.446-5.636-6.554-9.265-2.565-2.316-9.545-9.001-9.545-9.001 10.154-8.806 21.092-19.752 27.225-29.815-3.147-3.375-17.738-6.487-17.738-6.487 1.816-3.768 5.409-20.693-.742-39.461l52.418.606 1.864.126.43-.147c.502-.131.753.223.631.784-.386 1.432-2.488 4.786-3.971 4.509-.661-.257-.475 1.014-.771 1.543 2.338-.303 5.08-3.265 5.767-6.201.376-.617.621-.721.996-.602.432.137.324.549-.144 1.968-1.464 3.552-4.433 6.852-7.883 6.522l-.448 1.212c4.656-.075 8.256-4.44 9.319-7.705.743-1.941.772-2.204 1.519-2.016.617.571.236 1.392.025 2.067-2.34 7.478-8.769 9.476-11.97 9.151-.386-.048-.453.313-.337.929 6.877.454 12.354-5.47 13.128-10.554.377-1.412 1.031-1.894 1.408-1.249.213.569.142 1.15.037 1.692-1.879 8.025-10.434 12.581-15.661 11.28-.242-.226-.636.883-.067 1.279 10.552-.398 13.81-5.843 16.217-10.654 2.871 4.33 5.218 8.796 12.098 11.42 0 0 .686 1.511.145 1.85-.285.179-.721.096-1.352-.006-8.386-1.354-11.159 6.483-7.589 18.191.977 3.206.54 2.715-1.55 4.721-.996.956-1.47 2.651-1.208 2.69.358-.201.476-.751 1.347-1.473.379-.314 1.158-.615 1.732-1.011 1.551-.9 1.537-1.515.98-3.642-.414-1.581-1.468-6.39-1.47-6.878-.003-.922.215-.824 1.369.001 1.609 1.193 2.522 1.108.574-.421q-1.13-.888-1.472-1.386c-.31-.452-.118-.744.51-.547 2.889.906 5.37.84 8.175-.867.321 7.723-.742 19.442-7.213 27.82-4.964 5.575-14.468 1.356-17.984-.404zm7.604-17.748c-.193.009-.885.152-1.314.397-1.906 1.091-1.451 4.963.629 5.479.836.207 1.596.321 3.002-.35.837-.4 2.01-.712 2.339-.575.691.289.909-.322 1.057-1.01.33-1.539-2.195-1.576-4.203.015-2.535 2.007-4.477-.955-2.089-3.186.796-.514.772-.78.58-.771zm-19.689 8.285 2.129 2.46 1.338 5.863c-.811.138-1.795-.313-1.795-.313-.664-2.652-1.313-5.307-1.671-8.011zm28.992 1.475-.072.019c-.09.039-.486.218-1.035.279-.316.035-.795-.19-1.136-.168-.932.058-1.803.332-2.036.428-.287.118-.569.168-.813.024-.695-.41-2.72-.294-3.335.067-.729.31-1.548.314-2.146.005-.258-.133-.522-.47-.568-.423-.095.095-.484 1.755-.602 2.397.003.226-.156.602-.063.64.119.048.501-.298.972-.539.967-.493 2.048-.455 3.946.01 2.343.574 3.256.407 4.639-.298 1.101-.562 1.771-.697 2.502-.496.181.05.661.299.727.236.129-.124-.225-.819-.529-1.506-.22-.497-.301-.692-.452-.674zm-25.282 2.646c2.058 1.95 1.903 1.783 3.203 2.747l-.063 1.879s-1.592.036-2.373-.207c-.247-.731-1.317-4.4-.767-4.419m16.93 1.262c.139.096.342.197.621.292 3.277 1.229-.151.919-.477 2.089 0 .105.149.122.311.058 1.124-.442 3.871-.728 5.12-.486 1.621.547 1.723.169.164-.645-1.141-.449.243-.755.708-1.148.967-.622.302-.879-.929-.288-1.233.591-3.427.582-4.428.021-.443-.225-.874-.434-1.078-.447-.419-.017-.196.421-.012.553zm-12.899 2.105 1.918 1.499-1.961-.188zm-43.435 37.67a.704.704 0 0 0 0 1.406.704.704 0 0 0 0-1.406m2.56.709-8.796 4.176 2.324.778-.019 2.406 2.141-.683.908 2.247zm.39 1.966a.704.704 0 0 0 0 1.406.704.704 0 0 0 0-1.406m-11.152 4.273a.7.7 0 1 0 0 1.401.7.7 0 1 0 0-1.401m2.703 1.307-9.874 4.535 2.927.89-.773 3.013 2.384-1.001 1.331 2.023zm.291 2.159a.704.704 0 0 0 0 1.406.7.7 0 0 0 .698-.703.7.7 0 0 0-.698-.703m-19.591.452c3.713-.005 7.877 1.408 9.298 4.586.378 1.589-1.184 2.535-4.519 1.621-5.513-1.512-6.542-1.682-5.626-.745.121.123.363.426 1.189.707 2.077.708 6.096 1.527 7.18 1.415 1.481-.197 2.507.493 2.137 1.728-.42 1.402-2.344 1.976-5.236 1.569-2.995-.422-4.645-.767-5.64-1.068-1.278-.386-1.323-.353-.717.544.315.467.346.841.813.929 1.978-.112 4.084.267 5.9.438 3.26.292 3.77 1.216 1.376 2.628-1.135.669-4.529.486-6.458-.209-1.379-.496-4.539-1.206-3.321-.244.293.231.192.798.703.977 1.672.231 6.397.562 7.136 1.23.476.431-.596 1.524-2.802 2.095-3.321.629-8.287.367-9.599-.529-2.428-4.946-1.121-13.04 2.681-16.204 1.213-.949 3.278-1.465 5.505-1.468m21.771 2.579a.7.7 0 0 0-.698.703.7.7 0 1 0 .698-.703m2.933.75-10.195 5.077 2.579.766-.611 2.967 2.389-.984 1.447 1.996zm.079 2.485a.704.704 0 0 0 0 1.406.704.704 0 0 0 0-1.406m5.929 5.987c-4.521 4.4-9.616 7.885-14.27 12.158l1.008-.041 2.536-2.287 71.418-.224-1.668 2.436.702.301s2.142-3.167 1.996-3.312c-15.691.045-27.803.009-45.016.127-3.137-3.107-6.451-6.019-9.731-8.97zm-21.709 2.821a.704.704 0 0 0 0 1.406.7.7 0 0 0 .698-.703.7.7 0 0 0-.698-.703m93.237.537c6.169 4.578 13.479 10.193 19.545 13.527 2.429 1.055 2.194 1.415-.274 2.582-2.426 1.508-6.464 3.451-9.832 5.149-1.459.551-2.097-.167-3.133.024-.747.19-.96.331-1.405.919-.73.965-.531.932-4.432.756-3.936-.178-5.559-.09-6.405.342-.814.415-2.21 1.833-2.21 2.421 0 .566-.445 1.292-1.255 1.535-.944.229-2.034.977-1.988 2.137-.252.873-.787 1.26-1.261 1.739-1.122 1.132-1.01 2.022-.685 3.073.15.471.379.361.262 1.754-.267 3.19-.486 2.921 2.926 5.281l-17.435 15.192c-.404.318-.523.286-.891.033-2.126-1.579-3.606-4.188-4.459-6.798-2.945-8.114.651-14.78 5.431-18.859 1.656-1.413 3.881-3.099 4.5-3.522 9.002-7.677 16.831-18.549 23.001-27.284zm-90.634.594-9.968 4.706 3.21.541-.614 2.774 2.325-.881 1.231 2.338zm.61 2.199a.7.7 0 1 0 0 1.401.7.7 0 0 0 0-1.401m91.332 3.086-1.132-2.676s-3.149 7.755-3.815 10.383a3880 3880 0 0 1 10.481-5.353l-3.344-.62.378-3.037zm-113.856.479a.704.704 0 0 0 0 1.406.704.704 0 0 0 0-1.406m3.053.64s-7.417 3.48-10.765 4.982l3.126.655-.549 3.039 2.821-1.1 1.138 3.004zm.397 2.296a.7.7 0 1 0 0 1.401.7.7 0 1 0 0-1.401m104.957.505a.7.7 0 1 0-.005 1.4.7.7 0 0 0 .005-1.4m12.127.635-3.53 9.81 9.547-4.806-2.592-.708.013-2.427-2.132.621zm-112.829 2.358a.704.704 0 0 0 0 1.406.704.704 0 0 0 0-1.406m104.421.178a.7.7 0 0 0-.698.703.7.7 0 1 0 .698-.703m-101.493.719-10.116 4.935 3.14.736-.345 3.158 2.553-1.45 1.386 2.88zm.632 2.087c-.387 0-.664.315-.664.703a.7.7 0 0 0 .703.698.696.696 0 0 0 .698-.698c0-.387-.349-.703-.737-.703m105.199.62a.7.7 0 1 0 0 1.401.7.7 0 1 0 0-1.401m-13.94 3.227-.94-2.641-3.743 9.685 10.065-4.611-3.194-.749.057-2.529zm-10.226-2.085c-.115-.006-.217.026-.217.101 0 .224-2.572 2.737-2.572 2.737l-29.708.274c.061.004 2.473.672 2.473.672 3.897 3.114 10.004 8.636 10.004 8.636l7.375-.294c4.084-4.009 10.221-7.058 12.957-12.011a.5.5 0 0 0-.313-.115zm27.847 1.997a.7.7 0 1 0 0 1.401.7.7 0 0 0 0-1.401m-22.932 3.381a.7.7 0 1 0 .005 1.401.7.7 0 0 0-.005-1.401m15.081 1.014c2.129-.011 4.18.062 4.711.468 3.291 2.771 1.731 15.725-2.417 17.361-4.553 1.025-7.701 1.215-11.653-1.392-1.121-.546-3.344-2.197-2.91-3.56.592-1.675 2.219-1.553 6.887-.101 1.703.53 2.64.423 3.075.091.406-.31-.126-.656-.996-.659-.351-.001-1.86-.373-3.119-.76-1.777-.546-2.287-.707-3.436-.775-1.932-.114-2.493-.19-2.493-1.372 0-2.206 3.068-2.498 8.715-1.203.675.155 1.899.327 2.199.318.218.083-.43-.731-.539-1.218-.204-.174-.569-.256-1.53-.289-3.632-.356-6.646-.602-6.711-1.078-.321-2.335 4.377-2.971 9.248-1.097 1.251.481 1.275.282 1.266-.082-.018-.673-2.111-1.848-5.2-1.816-3.004.031-2.585-1.495-.115-2.642.844-.392 2.889-.183 5.018-.194m-11.616 2.503a.7.7 0 0 0-.698.703.7.7 0 1 0 1.401 0 .704.704 0 0 0-.703-.703m-10.823 4.847-.635-2.617-4.087 10.184 10.323-5.257-3.404-.639.298-2.143zm-5.26 4.089a.704.704 0 0 0 0 1.406.7.7 0 0 0 .698-.703.7.7 0 0 0-.698-.703m10.284 2.889-.869-2.474-3.471 8.865 8.808-3.935-2.602-.71.37-2.686zm-7.012.026a.704.704 0 0 0 0 1.406.7.7 0 0 0 .698-.703.7.7 0 0 0-.698-.703m2.255 3.386a.7.7 0 1 0-.005 1.4.7.7 0 0 0 .005-1.4m-4.427 2.076-2.973 8.396 8.277-4.007-2.419-.797s.133-1.888-.095-1.801c-.144.055-1.702.49-1.702.49zm7.367 1.004a.7.7 0 1 0 0 1.401.7.7 0 1 0 0-1.401m-10.973 4.039a.704.704 0 0 0 0 1.406.704.704 0 0 0 0-1.406m3.164 3.248a.7.7 0 1 0 0 1.401.7.7 0 1 0 0-1.401m-43.655 38.669c-.379.056-1.365-.844-1.556-1.267.562-.143 1.141-.037 1.456.226.26.246.444.879.101 1.041zm2.997-.607c-.133 1.026.502 2.881.381 3.321-.325.16-1.972-1.606-2.377-2.036-.085-.586.006-1.33.039-1.667.566-.1 1.569-.063 1.957.381zm2.965.511c.351 2.273 1.352 5.928 1.195 7.16-.148-.118-1.418-1.37-2.355-2.697-.33-.795-.843-3.562-.799-4.886.632-.087 1.48.015 1.959.423m-19.863-.256c-1.012.516-2.164.888-3.609.882-1.159-.005-3.155-.606-2.953-.458.528.944 1.906.449 1.933 1.065-.343.609-1.259.552-1.715 1.135-.096.155.135.285.78.218 1.958-.888 4.515-.871 6.855-.103.492.103.169-.368.002-.493-.304-.223-.806-.457-1.229-.508-2.045-.363-1.147-.569.221-1.18 1.004-.367 1.256-1.27-.286-.558zm4.43 2.888c-.272.021-.953.367-1.699.669-1.259.509-2.425.39-4.12-.082-1.472-.41-2.008-.296-3.473.442-.972.623-2.037.797-2.807.362-.998-.567-.991-.373-.497 1.03.124.35-.121 1.411.314 1.656.33.186.712-.434.967-.52.256-.086 1.862.634 2.758-.159 1.599-.58 2.079.36 3.186.27 1.797-.634 2.922-1.294 4.465-.07.092-.458.451-2.961 1.026-3.553l-.12-.043zm-3.274 7.205c-1.293.015-1.994.81-3.662.658-1.332-.093-1.788 1.088-1.224 1.949.397.606.929.718 2.745-.114.747-.342 1.785-1.095 2.392-1.035 1.776.178 2.206 1.894.727 3.345-.72.424-.726.883-.507.891.585.022 1.768-.676 2.037-1.49.736-2.23-.587-4.243-2.509-4.203zm5.802 10.274c-1.683.354-4.108 2.286-4.933 3.537-.771 1.218-1.51 2.596-.971 3.277.442.558 1.06 1.1 1.113 1.402.046.264-.315.526-.652.904-1.478 1.653-1.126 1.743.946.67 1.05-.544 1.538-.762 2.223-.583 1.997.521 4.484.15 6.174-.472.764-.281 1.511-.661 1.569-.467-3.086 3.395-6.933 2.541-8.306 2.334-.239-.062-.424-.048-.423.034 0 .165.398.523 1.246.9 1.418.629 4.824-.04 6.954-1.593 4.212-2.755 6.533-5.388 3.215-4.288-1.522.505-2.093.416-3.941-.419-2.771-1.252-4.894-1.619-7.19-.818-2.908 1.014-.678-1.383 2.594-3.46.709-.451.797-.966.382-.958m-15.685 7.162-.97.014c-.694-2.336-2.37-2.331-3.095.015l-.81-.057c.794-2.911 3.791-3.511 4.875.028m17.249.193-.728.033c-.442-1.415-1.999-2.659-3.096-.341l-.506-.104c.897-3.703 4.472-1.643 4.33.412m-4.858-2.128c.454 0 .569.515.053 1.352-.363.589-.794.536-1.227.091-.391-.391-.367-.46.058-.847.453-.412.844-.597 1.117-.597zm5.366.014c.197-.006.572.156.993.298 1.106.373 1.356.683.903 1.136-.445.445-1.29.579-1.68.327l-.588-1.543c.002-.15.174-.211.371-.217zm-17.32.019c.767-.035 1.794.419 1.719.861-.082.483-.838.8-1.461.852-.417.054-.401-.114-.51-.411-.098-.265-.223-.602-.295-.866-.172-.508.155-.421.547-.436m-5.242.168s-.429 1.278-.621 1.714c-1.604-.086-1.452-.793-.695-1.304.407-.31.82-.316 1.316-.409zm-1.245 3.037c.29.005.651.256 1.155.419 1.42.458 3.78.406 5.621-.019.881-.203 1.299-.477 1.492-.337.345.25-.012 1.12-1.285 1.68-1.658.612-4.187.943-6.102-.034-1.638-.836-1.821-1.725-.881-1.708zm-.438 1.829c1.502.992 3.006 1.305 4.865 1.133 2.783-.102 3.279-.445.934.797-2.167 1.148-5.507.936-6.15-.308-.369-.713-.13-1.562.351-1.622m13.485 1.665-.024.005c.225 1.501 2.746 2.876 3.956 3.2 2.568 1.139 6.649.011 9.721-1.314 2.243-.968 3.053-2.428.38-1.598-4.3 1.336-9.698 1.436-12.401.399-.879-.417-1.482-.7-1.632-.693zm-14.15 5.623c5.381 1.214 11.885 9.513 11.861 13.141H74.4c-2.646-9.23-9.517-11.228-10.188-11.779-.308-1.133.078-1.39.065-1.362m-.085 2.338c6.395 2.801 8.669 7.799 9.627 10.803h-1.87c-1.393-4.134-3.897-7.082-7.772-8.918-.263-.576.014-1.886.014-1.886zm-.01 2.829c3.277.966 6.167 5.28 6.988 7.974l-1.636-.01c-1.16-3.006-2.803-4.934-5.414-6.045q-.161-.85.063-1.92zm-.053 2.931c1.539.31 4.144 2.701 4.519 5.043h-1.502c-.53-1.579-2.166-3.021-3.006-3.61l-.012-1.434zm.158 2.501c.165-.103 2.462 1.966 2.075 2.543h-2.069c-.024-.643-.038-2.55-.005-2.543z" style="fill:#131f67" transform="matrix(.72321 0 0 .78224 2.452 .195)"/><path d="M122.883 26.387c-3.9 7.554-23.912 41.576-24.115 42.76l5.125 2.267 24.88-44.853s-5.156-.168-5.891-.173zM181.629 54.8l-2.324 3.268 1.978 3.585 2.007-3.547zM90.218 88.935s-7.176 7.129-9.98 10.455c6.028 6.014 17.55 13.566 17.635 25.187l7.944.03 25.713 22.998s23.284.17 23.718.069c.469-.109 8.742-11.951 8.742-11.951l14.755 10.757s-.708-11.586-1.265-18.685c-.183-4.748-.34-7.669 3.131-9.77-4.769-2.273-4.467-6.452-.961-9.521-1.157-1.599-2.886-1.895-3.146-7.566-.73-.783-1.421-1.241-2.334-1.906l-.953.852c-3.062 2.749-5.148 5.552-5.491 7.378-.654 3.474 2.874 5.854 4.914 3.316.575-.715 1.088-.515 1.088.419 0 1.894-2.383 2.964-4.399 1.978-.471-.23-.887-.384-.929-.342-.073.073 2 5.151 2.56 6.271.932 1.863 1.42 3.735 1.492 5.693.077 2.091.035 2.359-.943 5.972-.922 3.404-.487 5.429 1.16 5.428.927 0 .898.891-.038 1.218-1.991.694-3.226-.773-3.297-3.908-.043-1.905-.075-1.952-1.054-1.492-3.405 1.6-7.103-1.26-5.501-4.254.337-.629.734-.431.943.467.392 1.684 1.274 2.427 2.868 2.421 3.675-.014 5.214-5.206 3.094-10.434-.425-1.049-.64-.99-1.198.337-.876 2.081-2.345 2.694-3.556 1.482-.406-.406-.603-1.065-.327-1.097.064-.007.468-.025.895-.038 2.141-.069 2.88-2.146 1.877-5.27-.882-2.745-1.018-3.243-1.28-4.731-.405-2.299-.123-4.045 1.015-6.276.201-.394 1.457-1.797 3.017-3.374a80 80 0 0 1 2.965-2.844s-.806-.695-1.899-1.516a375 375 0 0 0-2.709-2.027s-10.942 30.044-10.167 41.75c-1.388 15.423-12.727 11.156-13.561.475zm-.488 4.505c3.74-.062 6.205 4.883 7.613 15.145.467 3.4 2.539 8.163 4.042 9.288 3.794 2.84 9.731.651 9.736-3.59.006-5.28-7.408-6.063-7.522-.794-.027 1.242-.664 1.307-1.275.125-.545-1.054-.054-3.024 1.006-4.018.679-.638.626-.758-.669-1.473-4.51-2.49-6.429-6.202-4.018-7.782 1.054-.691 2.495.183 1.834 1.112-1.033 1.452-1.046 1.682-.183 2.888.981 1.37 2.145 2.054 4.904 2.868 2.317.684 2.698.812 3.768 1.299 3.133 1.428 4.563 4.571 3.47 7.623-.258.72-.509 1.43-.558 1.579-.112.335.072.337 2.276.043 3.508-.467 7.406.786 9.327 2.998 1.032 1.189 1.86 3.862 1.887 6.093.005.429.137 1.4.298 2.156s.375 2.035.472 2.839c.918 7.634 7.273 11.538 10.02 6.155 1.728-3.388-2.268-6.776-4.302-3.648-.714 1.099-1.451.594-1.04-.712.8-2.537 3.968-2.969 6.126-.833 1.167 1.155 1.726 3.776 1.16 5.438-.297.873-.266.928.38.703 1.45-.505 3.957-.019 4.856.943 2.119 2.267 1.694 4.989-.914 5.871-1.186.397-2.53-.016-2.969-1.405-.193-.991.489-1.276 1.015-.423.986 1.596 3.135.31 2.628-1.574-.577-2.143-2.408-2.598-5.789-1.434-5.375 1.849-7.11 1.695-9.683-.861-1.837-1.825-2.528-3.402-3.022-6.882-.546-3.843-.598-3.942-1.55-3.133-4.548 3.87-10.557-1.978-6.704-5.823 1.191-1.191 2.068-.153.996 1.179-1.565 1.945.475 4.654 3.032 4.023 4.655-1.149 3.705-7.961-1.333-9.553-1.536-.485-5.755-.284-8.999.428-9.061 1.989-13.064-1.879-14.928-14.409-.218-1.464-.473-2.546-1.333-5.698-1.021-3.739-4.492-5.769-6.386-3.735-1.51 1.622-.716 3.806 1.386 3.812 2.096.005 1.453 1.442-.732 1.636-3.791.337-4.451-5.974-.813-7.782q1.33-.663 2.493-.683zm-49.479 2.329 1.175 4.491 4.685 1.324-1.485-4.273zM52.27 97.11l-1.258 4.064 3.552-.871 1.158-4.238zm38.538 6.653a1.347 1.347 0 1 1 0 2.694 1.347 1.347 0 0 1 0-2.694m-45.163 2.425-3.695 1.292-.711 3.222 3.866-.996zm8.813 1.018-3.017-.52.848 3.326 3.196 1.306zm131.016-.255-1.941 1.51c5.657 4.917-.449 9.656-.639 9.335 4.09 2.707 3.361 6.977 2.831 10.886-.968 6.974-1.345 13.571-2.401 20.718 0 0 4.928 3.4 8.205 4.716.062.008.019-41.936.019-41.936zm-69.814 6.316a1.347 1.347 0 1 1 0 2.694 1.347 1.347 0 0 1 0-2.694m-82.719 3.449.169 39.139 8.102-14.487-5.574-6.43 4.818-5.144zm78.888 5.965a1.347 1.347 0 1 1 0 2.694 1.347 1.347 0 0 1 0-2.694m18.393 4.004a1.347 1.347 0 1 1 0 2.694 1.347 1.347 0 0 1 0-2.694m52.687 43.601 5.951 6.108-4.648 5.788 7.319 12.42-.118-38.428zM32.866 157.432l.283 42.096 6.363 4.642 1.614-1.524c-4.106-4.385-1.654-7.647 1.442-9.535-5.461-1.272-3.803-8.515-3.477-11.871-.134-6.232 2.15-13.342 1.447-19.333zm36.65 5.851-9.12 12.707s-10.022-7.591-15.075-11.016c.541 5.483 1.034 12.479 1.704 18.377 1.639 8.612-2.628 8.761-2.667 9.586 6.781 5.146 1.09 9.959.069 9.717 3.611 1.966 3.314 7.94 3.314 7.94l1.713.969s.558-.34.794-.467c1.831-.985 4.817-4.497 5.501-6.814 1.159-3.929-2.253-7.193-4.399-4.206-1.054 1.467-1.899.486-1.035-1.203.788-1.542 2.847-2.316 4.216-1.583.796.426.618-.679-.611-3.773-.412-1.038-.748-2.17-1.328-4.466-.562-2.221-.343-4.898.63-7.623 1.404-3.928.906-6.393-1.343-6.608-1.2-.115-1.33-.49-.351-1.044 2.184-1.237 4.302.524 4.216 3.508-.047 1.614-.029 1.641.823 1.299 4.309-1.729 7.714 2.743 4.702 6.174-.921 1.049-1.501.383-.895-1.025.936-2.176.045-3.728-2.146-3.744-3.179-.024-4.938 4.367-3.686 9.197.391 1.507.451 1.526 1.506.52.937-.894 1.637-1.18 2.363-.963 1.505.45 1.899 2.051.457 1.853-2.478-.341-3.129 2.255-1.728 6.872 1.86 6.126-.023 11.118-5.525 14.668-.278.18-.722.525-.722.525 2.122 1.891 3.48 2.965 6.284 4.673l10.012-40.457s-.169-2.298-.415-3.38c-.008-10.859 10.124-11.899 13.295-2.039.305.947 1.916 3.364 1.916 3.364l52.748 46.808s9.847-9.516 9.713-9.768c-7.481-7.54-17.585-12.871-17.953-24.834-1.793-.052-7.786.059-7.786.059l-25.648-23.524c-8.049.051-15.189-.524-23.542-.277zm14.371.881c1.409-.044 2.83.688 2.83 1.862 0 1.014-.679 1.246-1.242.423-.786-1.149-1.699-1.241-2.628-.265-2.574 2.706 1.426 5.179 6.025 3.725 2.817-.891 4.181-1.131 5.212-.924 4.345.872 6.444 3.804 6.814 9.514.188 2.904.183 2.893 1.439 1.742 3.057-2.801 7.474-1.242 8.162 2.883.295 1.77-1.61 3.999-3.422 3.999-.71 0-.598-.742.168-1.107 1.842-.878 1.915-3.783.125-4.918-2.376-1.507-5.506.843-5.467 4.105.047 3.921 2.975 5.727 8.759 5.395.847-.049 2.973-.149 4.721-.221 2.763-.118 5.732-.638 8.547 1.487 2.948 2.345 4.905 7.005 5.741 13.74 1.318 8.289 2.337 10.51 5.12 10.709 1.651.118 3.051-1.288 3.051-2.922 0-1.152-1.524-2.167-2.681-1.785-1.397.461-1.679-1.052-.303-1.627 1.905-.796 4.232.738 4.75 3.133.302 1.396-1.273 4.073-2.926 4.741-4.31 1.743-7.375-1.817-8.384-9.785-.619-3.654-.959-6.117-2.098-9.24-2.091-5.748-5.527-8.12-9.269-6.401-4.237 1.947-3.397 8.291 1.092 8.244 2.466.195 2.983-1.617 3.034-3.557.058-1.431 1.68-.088 1.819.897.133 1.195-.938 2.674-1.884 3.373-1.528 1.023-.985.959.578 1.37 4.202.774 7.325 6.334 4.813 8.222-1.305.796-2.692-.376-1.787-1.526 1.439-1.829-.996-4.719-5.429-5.69-5.806-1.272-8.117-5.593-6.023-10.034.693-1.469.753-1.435-2.079-1.275-6.231.352-8.443-.509-10.535-4.12-.631-1.089-.91-2.547-1.044-5.443-.241-5.184-.713-8.394-1.367-9.298-3.235-4.475-9.966-3.136-9.124 1.814.442 2.599 3.128 3.433 4.962 1.54 1.385-1.43 2.031-.101.679 1.396-3.253 3.601-8.915-.603-7.233-5.371.385-1.091.437-1.056-1.651-1.117-4.643-.134-6.853-4.107-3.86-6.935.524-.495 1.254-.732 1.992-.756zm11.204 17.055a1.347 1.347 0 1 1 0 2.694 1.347 1.347 0 0 1 0-2.694m18.668 4.784a1.347 1.347 0 1 1 0 2.694 1.347 1.347 0 0 1 0-2.694m-4.009 8.792a1.347 1.347 0 1 1 0 2.694 1.347 1.347 0 0 1 0-2.694m59.324 5.241.854 3.986 3.093.814-.483-3.415zm10.819 1.38-.067 2.363 2.751.324.973-4.074zm-46.186 3.568a1.347 1.347 0 1 1 0 2.694 1.347 1.347 0 0 1 0-2.694m39.509 5.49-3.234.897-1.554 4.491 4.14-1.499zm6.326.404.396 3.327 3.984 1.801-1.347-4.743zm-58.724 28.365-24.734 44.715 6.759-.094 23.345-42.163zm-77.792 10.825-2.185 2.94 2.074 3.412 2.382-3.426z" style="fill:#d40000" transform="matrix(.72321 0 0 .78224 2.452 .195)"/><path d="M64.054 20.955c3.294 10.801 3.6 21.445.741 31.672 1.629.09 8.734 2.06 12.644 4.671-.724 2.014-11.81 16.761-19.337 23.41 2.14 2.29 4.493 4.582 6.968 7.107 3.743 3.84 5.064 6.486 5.311 11.47-.033 2.408-.83 5.379-2.248 7.48-1.072 1.59-2.209 2.812-4.49 4.447-2.104 1.507-5.18 4.752-9.049 9.535a111 111 0 0 0-6.024 8.312c-.78 1.152-3.076 4.745-3.076 4.745-7.66-6.761-15.863-11.976-16.074-11.936 0 0 8.277-4.771 10.017-5.744 1.337.928 3.153.134 2.281-1.908-1.675-4.65-.507-9.433 1.551-12.774.493-.804 1.68-1.274 3.599-1.419.833-.058 1.714-.03 2.596-.041.318 0 1.176.133 1.646.41 1.564.925 1.878-.264 2.854-4.265.97-3.98-.592-9.014-2.82-9.03-.523-.005-.816.204-.709 1.62.082 1.07-.156 1.624-.41 2.298-.556 1.472-.851 2.91-1.027 4.83.325.07-2.069-2.576-5.84-3.625-2.451-.314-3.695-3.615-3.592-3.622 0 0 .367-.894.69-1.242.837.433 1.66.942 2.651 1.257 0 0-.228-1.326-.316-1.683-.455-1.843-.431-2.124.226-2.507 1.629-.949 1.8-2.646.53-4.19-.322-.394-.592-.648-1.024-.847l.804-3.463s-.736.17-1.326.365c-1.705.56-1.577.579-2.304-.316-1.582-1.949-3.997-1.578-4.358.67a8 8 0 0 1-.146.644l-3.635-1.909c.106.923 1.05 4.047 1.05 4.047-3.18 2.673-.492 5.04.376 5.29 0 0-.744 2.557-.999 3.62l3.588-1.109c.302.74.673 1.301 1.419 1.819.194 2.183 1.75 3.943 2.822 5.002 0 0 .155.799.061 1.31-.231 1.27.962 3.279 1.164 3.4-4.924-2.18-10.057-4.793-15.012-7.36l.31 65.875s1.153 1.118 3.442 2.891c1.1.852 1.1.855.87 1.838-.301 1.294-.227 2.282.794 10.804.54 4.506 1.13 9.18 1.657 13.372a26 26 0 0 1 .238 2.506c-1.094-.548-2.687-.603-3.51.396-1.42 1.75-.284 4.566 1.82 4.507.478-.031.803-.182 1.215-.486.285-.165.58-.02.58-.02l-3.14 5.966 3.615 6.583 3.606-7.04-2.623-5.568s.256-.031.611.162c.352.192.827.337 1.156.358 1.83.014 2.205-.887 2.398-2.511 0-2.09-1.538-3.035-3.654-2.248a3 3 0 0 1-.7.158l2.22-22.975 1.191.945.39-.23-1.04-.96c.225-3.681-.898-4.985-2.11-5.876 4.055-2.495 2.297-6.44-.4-7.653 0 0 1.753-1.107 2.103-2.27.3-1.039.188-2.685-.151-5.606-.254-4.503-1.149-13.808-1.149-13.808 3.543 2.89 7.18 5.982 10.602 8.903l6.856-10.307 16.526.124s12.56 12.334 18.88 18.624l5.458.052s.06.632.115 1.05c.517 6.091 4.294 10.274 7.733 13.207 1.401 1.362 4.866 4.939 4.866 4.939l-6.422 7.002-39.32-37.99s-.188-.555-.265-.893c-.908-4.023-3.373-5.708-5.614-5.425-2.352.297-4.357 2.803-4.257 7.066.016.66.237 1.822.237 1.822l-7.184 32.364s-2.873-2.372-4.424-3.513l-.341.215 4.205 3.418.313-.147 1.194 1.01.09.688c3.678 2.707 9.916 7.76 9.916 7.76 2.944-2.367 6.04-1.576 9.14-.686 0 0 2.253.815 3.453.81 6.091.148 11.486 1.427 17.148 3.64l-20.64 39.573 39.316.087c-1.938-8.282-3.997-16.696-.317-30.824-3.877-.847-12.499-4.578-12.499-4.578s-.04-.212.324-.696c1.594-2.465 5.624-9.147 9.401-13.01.46-.356 7.043-7.266 7.107-7.484.037-.123.194-.59.453-.772.607-.438 2.22-2.087 2.22-2.087l-8.238-7.727s-.363-.038-.48-.109c-1.15-.696-3.227-4.577-3.738-7.175-1.177-5.977.996-10.704 7.124-15.555 5.984-4.432 17.33-21.634 17.367-22.015 6.119 5.478 10.895 8.315 16.278 11.908-3.252 2.018-5.903 3.367-8.18 4.7-1.476.912-1.678 1.102-2.926.72-1.413.012-1.897.601-1.538 1.92 2.139 3.656 1.22 12.17-1.672 13.81-2.511 1.425-4.953 1.04-6.97.231-1.558-.54-1.537-.545-2.232.983-1.527 3.518-1.625 6.481-.215 9.855 1.156 2.71 2.875 3.943 3.087.292.125-2.145.998-4.65.97-6.955 1.755 2.094 2.917 3.052 5.796 3.904 1.93.325 3.981 2.945 3.917 4.012-.53.58-.691 1.32-.777 1.266-.94-.332-2.977-1.269-2.977-1.269l.867 3.313s-.144.15-.56.38c-1.917 1.058-1.794 3.917.218 5.06.41.233.44.342.265.952-.25 1.36-.8 2.271-1.096 3.618 0 0 .274.011 2.568-1.136l.902-.452.543.628c1.189 1.375 2.616 1.367 3.863-.022l.57-.636 1.595.874c1.502.823 1.897.993 1.897.993s-.867-3.635-1.027-4.05c-.087-.225-.264-.453-.394-.505-.214-.086-.18-.14.39-.629 1.445-1.238 1.59-2.947.359-4.246-.47-.495-.53-.598-.53-.598l.749-3.37-3.103 1.112c-.49-1.126-1.268-1.64-1.76-1.869-.052-1.52-.229-3.082-2.644-5.46.814-.804-.154-2.741-.951-3.904 1.359.494 4.757 2.048 4.757 2.048l.513-.023 1.623.842.19.312s5.104 2.605 7.448 3.825c-.005-.137-.024-2.863-.03-32.883-.005-17.899.022-32.62-.01-32.715-.034-.094-.595-.56-1.177-1.034-1.075-.878-1.295-1.049-2.66-2.034-1.095-.79-1.02-.783-.793-1.694.261-1.046.255-2.483-.09-5.176-.256-1.988-1.182-8.98-1.828-14.622-.453-3.958-.56-4.836-.672-5.473-.18-1.604.013-2.301-.02-2.325 5.127 2.402 5.531-5.561.393-4.487.982-2.145 1.81-3.14 2.653-5.43-1.072-2.496-3.444-6.716-3.444-6.716l-3.756 7.073 2.21 4.894c-2.542-.495-3.891 1.507-3.42 3.302.51 1.588 1.918 2.033 3.16 1.393.956-.407.955-.511.107 7.247a2859 2859 0 0 0-1.517 14.618c-.103 1.072-.167 1.37-.57 1.133-.548-.254-.861-.626-1.41-1.016l-.306.309a39 39 0 0 1 1.656 1.568c-.135 2.841-.082 4.487 2.105 5.873-3.964 2.687-1.646 6.82.682 7.418-1.388.388-2.756 2.318-2.425 6.154l1.124 15.808-10.744-8.628-6.306 9.761-16.616.023L79.238 98.35s-4.108-.061-5.795-.106c.191-.096-.354-5.654-3.066-9.283-2.949-3.792-9.66-10.05-9.655-10.051l7.047-7.74 39.57 38.522s.191 1.091.292 1.555c1.322 6.082 7.72 6.45 9.08.256.22-1 .485-3.33.386-3.607-.031-.089.168-1.104.442-2.259 2.127-9.023 3.94-16.808 6.032-25.47.288-1.193.594-2.52.678-2.952.345-1.757.294-1.746 1.995-.361 1.041.848 1.472 1.152 1.472 1.152l.33-.372a155 155 0 0 0-3.166-2.538l.02-.662c-6.423-4.976-7.747-6.297-11.55-9.558-2.948 2.807-7.164 1.67-9.806.677-.68-.29-2.352-.76-2.352-.76-6.58.01-12.36-1.365-17.82-3.294l21.05-40.545-8.13.001-.285.345h-4.23l-.014-.344zM141.682 154.3h.004zM88.048 21.871l2.878.06-17.033 32.873-1.81-.765s.166-.093.164-1.479c-.002-1.487-.3-2.122-.918-3-.519-.76-.74-.802.78-.576 3.106.461 5.312-3.191 4.078-6.042-.476-1.1-.409-1.167.85-1.303 3.464-.373 4.81-5.126 2.36-7.495-.508-.496-.281-.812.664-.591 2.997.699 5.318-2.896 4.128-5.712-.388-.785-.04-.916.508-.993 2.566-.65 3.44-2.83 3.352-4.977zm-22.957.004 13.334.004c-1.794 2.968 1.373 4.726 1.775 4.518-2.875 1.698-2.086 4.091-.595 4.914 1.447.798 3.616.08 3.038-3.375l.714-.335c.693.849 1.382 6.108-3.909 5.376-.941-.13-1.453.82-.664 1.348 4.18 5.198-2.364 7.495-2.649 6.633l-.021-.88c1.77.352 4.034-2.114 2.048-4.307-1.128-1.247-4.403-.64-3.843 3.144-1.934-3.125-4.045-2.183-4.614-.531-.442 1.28.12 3.032 2.048 3.33-2.154 1.952-1.108 4.13.373 4.611 1.635.531 3.304-.19 2.854-3.402.025-.304.596-.205.643-.222 1.69 4.562-2.35 6.238-4.531 5.296-.809-.34-1.231 1.008-.373 1.695 1.303 1.042.9 4.04.748 4.07-2.423-.995-5.893-1.729-5.764-1.673 2.314-9.901 2.165-19.969-.612-30.214m21.259.004 1.204.004c.016 1.865-.733 4.16-3.675 4.514.013-.5-.02-.974-.14-1.502 1.104-.271 2.568.06 2.61-3.016zm5.26.102 3.845.019L77.36 56.739l-2.892-1.608zm-9.489 2.635c.68 0 1.233.594 1.233 1.33 0 .735-.553 1.332-1.233 1.332s-1.228-.597-1.228-1.333c0-.735.548-1.329 1.228-1.329m-7.712 15.15c.63 0 1.138.55 1.138 1.23s-.509 1.235-1.138 1.235c-.63 0-1.138-.554-1.138-1.235 0-.68.509-1.23 1.138-1.23m59.568.982 3.063 5.767-3.495 6.694-2.917-6.415zm-.056 1.965-2.154 3.847 1.956 3.941 2.224-3.745zm.042 1.649 1.114 2.326-1.354 2.36-1.124-2.496zm-2.969 7.815c.232 0 .48.054.734.17 2.064.932 1.406 4.325-.797 4.114-.29-.033-.673-.193-.95-.395-1.528-1.355-.608-3.894 1.013-3.888zm5.043.064c1.805.035 2.892 2.75.993 4.02-.917.553-2.287.217-2.827-.763-.463-.842-.262-2.246.773-2.975a2.1 2.1 0 0 1 1.061-.282m-2.506 3.874c.18.016.376.963.557 2.608.065.597.241 2.087.39 3.313.284 2.622.577 5.063.828 7.59.05.496.174 1.554.275 2.349 1.044 8.207 1.28 10.828 1.033 11.527-.658 2.447-3.746 2.634-5.036 1.212-.975-1.075-1.119-2.255-.734-5.33.222-1.776.313-2.669.964-9.456.153-1.59.373-3.705.491-4.699.258-2.655.563-5.144.898-7.762.096-.936.211-1.362.334-1.352m-50.567 6.098s9.889 3.526 17.413 3.365c1.104 0 1.283-.01 2.659.474.816.288 2.099.678 2.85.866 2.32.486 4.358.35 6.164-.448.283-.125.7-.502 1.12-.365.258.083.63.636.63.636-6.587 1.891-21.998 1.542-31.591-2.831zm50.807 1.122c-.04.007-.083.068-.132.15-.161.276-.028 2.082.57 7.827 1.145 10.974 1.14 11.209-.247 12.363-.68.567-.786.794-.459 1 .244.154.224.153.72.005 1.166-.35 1.65-1.352 1.64-3.396-.007-1.558-.024-1.746-.473-5.575a639 639 0 0 1-.473-4.156c-.75-6.836-.923-8.258-1.145-8.218zM81.97 64.483c9.845 3.814 20.132 4.893 32.531 2.835 0 0 1.192.835 1.792 1.246l-.418.106.188 1.852 2.106-.365s1.14.98 1.988 1.58c-11.057 3.652-28.913 3.022-39.928-2.273a6 6 0 0 1-.665-.471c.238-.632.525-1.007.818-1.359l2.012.621.582-1.984-1.539-.606zm2.579 2.376-.644 1.954 2.813.903.48-1.995zm4.301 1.208-.372 2.225 2.823.565.351-2.165zm4.67 1.043-.222 2.146 2.993.342.185-2.172zm20.574.034-2.548.3.16 1.89 2.575-.327zm-4.493.546-2.527.18.087 1.98 2.54-.173zm-11.385.041-.004 2.104 2.59.106.03-2.15zm7.12.264-2.387.01-.01 2.003 2.412.011zm-27.683.353c.257-.008.846.612 1.089 1.307.479 1.365.259 2.88-.491 3.38-1.02.683-2.22-.386-1.517-1.351.124-.17.324-.343.445-.384.524-.18.647-1.074.362-2.62-.042-.228.01-.328.111-.33zm3.818.524c10.657 3.773 22.749 5.041 35.208 2.28 0 0-5.904 26.08-6.032 26.092zm-5.225.079c.561 0 .663 1.03.157 1.577-.646.699-1.879.138-1.622-.738.074-.254 1.095-.84 1.465-.84m3.063.606c.116-.01.336.24.686.75 1.197 1.742 1.29 3.69.219 4.577-1.256 1.04-2.175-.574-1.128-1.984.271-.365.311-1.04.15-2.533-.058-.532-.043-.8.073-.81m41.323.629c.138-.005.382.11.87.37.764.403 1.03.996.662 1.475-.535.696-1.999-.683-1.723-1.622.042-.143.084-.218.191-.222zm-1.148.907c.192.02.498.4.853 1.171.228.495.36.637.745.787.91.356 1.08 1.377.278 1.679-.87.328-1.52-.349-1.918-2.003-.262-1.09-.205-1.66.042-1.634m-38.121.73c.132-.008.385.313.787.954 1.19 1.901.78 5.551-.72 6.403-.662.376-1.123.296-1.654-.278-.776-.84-.585-1.503.567-1.962.98-.39 1.298-1.597.995-3.794-.12-.878-.125-1.312.025-1.321zm5.673.603c7.277 6.491 13.848 13.45 22.317 21.574 2.01-6.692 4.943-20.587 4.952-20.633-.32.286-14.225 2.42-27.27-.94m27.27.941.003-.015zm4.513-.922c.122 0 .473.976.672 1.867.181.807.902 2.16 1.18 2.21 1.434.263 2.045 1.127 1.336 1.894-.52.562-1.646.244-2.189-.617-1.02-1.619-1.717-5.353-.999-5.353zm-81.205.896c.865.007 1.697.597 1.907 1.814.244 1.416-.495 2.446-1.122 2.281-.68-.275-.912-1.44-.912-1.44s-.162.95-.44 1.43c-.611 1.007-1.894-.489-1.664-1.939.224-1.416 1.25-2.154 2.23-2.146zm51.799.372c7.926 1.288 14.745 1.622 24.2.512l-4.456 18.71zm-5.986.03c.117.008.359.236.734.666 1.232 1.409 1.587 3.363.787 4.333-.488.59-.815.659-1.333.275-.662-.49-.71-1.227-.104-1.566.557-.313.608-.998.167-2.297-.33-.969-.422-1.424-.25-1.412zm-51.706.482 2.896 1.298 1.037 2.646-2.889-.805zm10.95.35-.86 2.635-2.228.9.867-2.85zm75.536.553c.107-.002.266.332.46 1.02.477 1.705.68 2.136 1.116 2.36.711.367.763 1.299.09 1.63-.426.21-.565.167-.87-.263-.472-.67-.853-1.954-.921-3.106-.065-1.08-.013-1.639.125-1.641m-32.236 1.19c.084-.006.208.127.39.361 1.125 1.447 1.248 3.665.24 4.33-.975.643-2.34-.685-1.49-1.45l.394-.34c.237-.195.257-.309.278-1.565.016-.933.049-1.326.188-1.336m8.547.154 13.863 13.627 3.183-13.48c-5.475.531-11.196.373-17.045-.148zm-34.055.685c4.38 5.003 10.11 9.046 11.471 14.02 2.44 6.846.651 14.79-5.06 19.334-3.152 2.58-6.242 5.297-8.812 8.576-4.217 4.856-7.032 10.162-9.85 14.011-.477.647-1.736 2.684-1.736 2.684s-.616.762-2.677-1.107c-5.465-5.256-11.2-9.069-17.04-12.7l2.471-1.496c4.875 3.006 10.935 7.285 16.387 12.272 0 0 4.335-6.847 5.718-8.809 2.006-2.815 3.415-4.63 5.283-6.806 4.77-6.37 9.696-8.478 11.746-11.704 3.003-4.726 3.13-10.329.661-15.11-2.436-4.564-7.17-7.693-10.316-11.471zm41.57.37h5.419s-.796.717-1.406 1.159c-.382.277-.83.238-1.674-.143a149 149 0 0 0-2.339-1.017m6.206 0 1.263.04c-.944 1.285-1.913 2.112-3.181 3.253-.164.077-.255.108-.637-.026-2.59-.927-4.967-2.105-7.49-3.22l2.248-.01s1.082.374 2.708 1.103c1.864.836 2.346 1.093 3.066.583.694-.499 1.267-1.249 2.022-1.724zm2.558 0-.453 1.795c-.756 1.021-2.284 2.199-3.56 3.359-.3.169-.29.2-1.598-.35-4.816-2.025-7.145-3.34-7.145-3.34l-.978-.945s1.256.389 2.085.741c.566.241 1.528.636 2.14.881s1.968.868 2.872 1.254c2.085.89 1.97.918 3.967-.99 2.164-2.065 2.67-2.406 2.67-2.406m-72.975.165 2.102 2.605-2.801 2.549-2.116-2.696zm79.763.003c.483.978.808 2.136 1.592 2.96.591.609.739 1.08.388 1.422-.914.612-1.072-.376-1.355-1.02-.499-1.137-1.107-2.673-.625-3.362m-76.018.26h.163c2.242.037 2.77 3.62.661 4.48-.755.308-1.626.168-2.095-.339-.455-.492-.518-.908-.207-1.165.486-.374 1.644-.4 1.644-.4s-1.05-.386-1.52-.67c-.92-.568-.122-1.843 1.353-1.906zm46.154.004q.19.01.655.84c1.131 2.02 1.071 5.863-.108 6.835-.613.506-1.377.434-1.89-.18-.676-.81-.468-1.628.536-2.109.97-.463 1.168-1.5.773-4.062q-.208-1.339.034-1.325zm-54.396.064c.67-.026 1.315.257 1.636.829.237.421.122.732-.325.942-.545.233-1.578.444-1.578.444s1.002.178 1.607.444c.759.362.7 1.026-.41 1.597-2.138 1.1-4.158-1.904-2.394-3.627.41-.401.944-.609 1.465-.629zm56.223 1.45h.052c.197.025.559.333.922.854 1.275 1.826 1.496 4.57.411 5.105-1.146.565-1.97-.6-1.145-1.619.585-.721.512-1.776-.264-3.866-.113-.304-.086-.455.024-.474m27.527.086c.1-.008.284.431.578 1.318.648 1.951 1.202 2.77 1.869 2.77.838 0 1.277 1.243.616 1.743-1.306.99-3.017-1.434-3.143-4.457-.038-.908-.02-1.366.08-1.374m-6.905.975-.386 1.593s-.891.936-1.529 1.532c-1.011.946-1.26 1.134-2.06.84a95 95 0 0 0-3.727-1.295l-2.962-2.65 6.76 2.853s.585.187.789-.033c.885-.957 1.857-1.699 3.115-2.84m6.376 1.491c.084-.021.17.096.23.388.306 1.5.75 2.587 1.123 2.756.474.214.656.658.456 1.11-.575 1.305-2.089-.999-2.089-3.18 0-.62.137-1.039.279-1.074zm-24.395.106c.082-.006.216.128.425.353.934 1.01 1.217 3.803.466 4.615-1.085 1.174-2.243-.57-1.19-1.792.278-.323.279-.345.212-1.777-.046-.996-.05-1.392.087-1.4zm-56.62.278-.731 2.62-2.335.651.546-2.157zm2.798.268c.185-.008.395.068.616.24.952.746 1.03 2.02.585 2.96-.426.917-1.296 1.18-2.138 1.088-1.092-.131-1.915-.954-1.858-2.214.019-.631.273-1.331.668-1.63.278-.21.506-.124.746.307.225.423.608 1.38.608 1.38s.012-.982.141-1.487c.105-.402.336-.631.631-.644zm1.782.23 1.692.625.668 2.484-1.893-.794zm96.443.464s.485.222 2.794 2.205a45 45 0 0 1 1.552 1.445l-.055 32.424s-4.554-2.663-5.144-3.294c-.315-.363-.163-1.381-.052-3.23.535-4.855.753-8.576 1.329-13.07.403-5.009 1.293-6.447-1.808-8.571 3.337-2.266 2.395-5.792.301-7.26zm-27.203.123-.306 1.483c-1.098 2.033-2.081 1.93-3.762.987l-2.018-1.857c1.306.295 2.009.747 3.285 1.182.634.19.866.068 1.312-.365.513-.504.899-.882 1.49-1.43zm-14.966.78c.684.806.863 1.602.804 3.568-.131 1.398-.074 2.439-1.134 3.223-.518.367-1.414.367-1.814.004-.96-.696-.43-2.086.828-2.154.793-.015 1.12-2.82.67-4.574-.07-.272-.053-.45.073-.463.124-.012.357.139.574.396zm21.45-.106c.154-.002.426.425.588 1.121.234 1.01.563 1.576 1.079 1.86.66.364.875 1.066.452 1.479-.84.824-1.7-.164-1.976-2.27-.013-.24-.4-2.168-.143-2.191zm18.056.346c1.876.031 2.937 1.452 2.935 3.173-.02 1.24-.647 2.502-1.8 3.026-2.756.877-4.26-1.118-4.234-3.059.021-1.566 1.224-3.172 3.1-3.14zM96.023 87.64c1.578 1.707 1.649 5.357.104 5.357-1.853-.664-.407-1.847-.372-2.154.145-1.257-.122-2.063-.393-3.238-.12-.694.487-.17.66.034zm37.968-.166c-.33-.011-.307.35.3.914 1.1 1.025.561 2.917-.832 2.925-.643.004-.8.472-.24.715 2.164.94 3.641-2.618 1.702-4.1-.405-.31-.73-.449-.93-.455zm-82.75.478c1.741.642 2.342 4.23 2.408 5.496.078 2.203-.87 5.804-1.717 6.524-2.19 1.863-3.216-4.724-1.343-8.964.164-.347.368-.817.292-1.682-.076-.86.058-1.369.36-1.375zm57.541.346s-.219 1.076-.452 1.664c-.27.68-.468.702-1.097.12-.35-.323-.929-.993-.929-.993.547.093 1.036.4 1.5.151.495-.265.895-.762.978-.94zm6.61.057c.124.004.281.38.49 1.122.574 2.032 1.076 2.797 1.835 2.797 1.245 0 1.516 1.62.341 2.037-.435.154-.582.152-1.138-.008-.838-.242-1.985-3.3-1.82-4.856.077-.732.168-1.096.292-1.092m-76.64 1.182c.458-.012.637.231.905.832.306.684 1.108 1.553 1.786 1.931 1.635.87 3.357 1.548 4.973 2.42 2.096 1.139 3.973 4.625 2.687 4.989-.466.117-1.002.122-1.479.075-.155-.088-.46-.47-.675-.851-.956-1.691-2.743-3.347-5.5-4.122-1.943-.546-3.684-3.136-4.058-4.352-.096-.315-.1-.562.16-.644.553-.172.927-.271 1.2-.278zm59.085.21c.086-.015.214.106.407.329 1.156 1.337 1.3 3.792.26 4.487-1.126.753-2.112-.492-1.228-1.552.39-.467.39-.466.39-1.867 0-.965.026-1.371.17-1.396m16.838 1.56c.139.005.347.42.599 1.237.357 1.16.406 1.251.814 1.48.691.386.803.964.296 1.513-.945 1.023-1.897-.623-1.9-3.283-.002-.639.068-.954.191-.949zm-15.12.183c.086.009.326.213.513.452 1.417 1.817 1.132 6.073-.45 6.713-.527.213-.688.225-1.015.07-1.18-.55-1.035-1.897.418-2.751 1.086-.64.311-4.468.535-4.484zm-72.451 1.34 5.85 3.14s1.604 3.653 2.343 5.023c.507.95 1.521 1.866.473 2.5-1.76 1.29-2.758 2.025-2.742 2.827.013.648.758 1.31 1.76 2.586 1.441 1.833 1.428 1.411.12 4.208-1.003 1.962-1.856 6.404-1.856 6.404l-5.91 3.294c1.759-4.544 3.83-8.41 6.15-11.174-1.724-1.384-3.173-2.826-4.685-4.74 1.116-1.615 2.588-2.92 3.947-4.325-2.76-3.375-4.49-6.612-5.45-9.743m73.994.057h.031c.246.017.806.677 1.299 1.736.636 1.367.697 3.089.132 3.7-.975 1.055-2.244-.3-1.333-1.422.643-.506.468-1.761-.038-3.068-.235-.627-.231-.92-.09-.945zm-74.641.613c1.522 3.499 3.224 6.344 4.97 9.04l-3.808 4.321c1.172 1.471 2.593 3.052 4.587 4.887-2.449 2.945-4.055 7.069-5.663 10.962zm87.567.075c.132.011.32.435.512 1.288.242 1.076.409 1.35.988 1.618.922.428.943 1.39.039 1.736-.332.127-.952-.233-1.208-.704-.338-.672-.512-1.577-.509-2.405-.053-1.025.029-1.544.178-1.533m21.111.648c1.44.437 1.96 1.996 1.679 4.886-.376 3.865-.817 8.165-1.177 11.715-.413 4.096-.653 6.223-.745 6.385-.292.51-.34-1.414-.128-3.554.322-3.059.5-5.738.772-8.794.612-6.8.462-8.95-.675-9.577-.88-.486-1.258-.2-.61.463 1.238 1.032 1.2 1.464-.124 18.209-.136 1.733-.192 2.96-.192 2.96l-1.68-1.13s-.125-1.436-.283-3.603c-.38-4.083-.6-8.435-.853-12.348-.27-4.174.453-5.635 2.848-5.737.382-.016.808.017 1.168.124zm-30.887 2.426c.184.553 1.018 4.67-1.118 3.488-.57-.347-.6-.892-.181-1.42.47-.591.58-1.44.344-2.654-.143-.738-.317-1.35-.317-1.35.412.163 1.223 1.791 1.271 1.936zm-63.515-1.292c1.806.371 3.792 1.512 5.07 2.937.794.912.754 1.647-.487 1.733-1.194.19-1.22.4-1.79-.134-.256-.217-.755-.75-1.324-.845-1.803-.302-2.723-3.949-1.47-3.69m72.936 1.078c.19.332.21.983.369 1.45.27 1.305 1.097 2.27 1.841 2.15.5-.066 1.19.098 1.264.745.145.547-.12 1.065-.669 1.302-.618.268-1.316.104-1.844-.432-1.113-1.13-1.792-4.82-.96-5.214zm-8.691.051c.648.27 1.475 2.514 1.563 4.293-.003 1.275-.184 2.879-1.2 3.486-.645.361-1.313.18-1.605-.43-.358-.748-.093-1.521.647-1.882.905-.44 1.2-2.425.647-4.363-.03-.323-.483-1.238-.052-1.105zm-69.024.932 4.769 2.612c-.694 1.025-1.24 1.976-1.615 3.057-1.515-1.859-2.31-3.753-3.154-5.67m70.816.894c.081-.002.356.28.596.533 1.19 1.246 1.704 3.51.985 4.336-.574.661-1.58.616-1.747-.079-.06-.34.273-.977.421-1.283.22-.456.259-1.756-.073-2.707-.149-.426-.288-.797-.182-.8m-33.126.514 5.388.2 18.05 17.583-1.696-.041L78.8 100.223l-5.162.015zm-31.041 3.168c-2.057 3.536-2.619 7.993-1.355 11.954.959 2.81-1.135 2.977-1.994 1.127-.66-1.384-1.04-3.794-.84-6.36.282-4.148 2.053-8.312 3.47-8.812 1.44-.508 1.123 1.527.719 2.09m73.958 8.51c-.547 2.766-1.561 4.142-3 4.717-5.892 2.354-8.46-10.501-2.993-13.575 5.21-1.874 6.716 5.205 5.993 8.858m-43.244-8.399 5.081.113c4.632 4.557 9.612 8.81 14.57 14.35h-2.399l-.866-.893c-4.481-4.329-7.8-7.862-12.12-11.884l-4.534-.136zm38.77.848c-2.748.12-2.973 4.147-2.89 5.671.2 2.198 1.01 5.445 3.588 5.189 1.893-.204 2.768-2.628 2.595-5.538-.162-2.74-1.195-5.324-3.294-5.322m-39.233 1.336 4.459.11c3.927 3.704 8.082 7.729 12.209 12.17h-1.946s-.508-.524-.66-.692c-3.342-3.267-6.739-6.908-9.979-9.844l-4.625-.196zm39.305.158c.78.313.91 2.368.23 3.219-.466.584-1.54-.521-1.636-1.913-.058-.848.705-1.587 1.406-1.306m-73.688.256c-.358 1.329-.594 2.823-.741 4.438l-1.865-2.563zm75.105 2.473c.455 0 .824.4.825.893 0 .493-.369.892-.825.892s-.825-.399-.825-.892.369-.893.825-.893m-37.46.448L85 116.66l-2.53.03-7.288-7.145-4.626-.188.905-1.706zm34.557.155c.456 0 .825.399.825.892s-.369.893-.825.893-.825-.4-.825-.893.369-.892.825-.892m10.577.018c5.009 4.211 12.08 9.798 19.425 14.328 0-.016-1.211 1.029-2.326 1.359-5.716-3.409-12.517-8.216-16.73-12.115-3.977 6.332-11.617 17.852-18.408 23.17-4.286 3.317-6.445 7.405-6.432 12.183.013 4.943 1.627 8.16 6.122 12.208 2.9 2.611 6.07 5.944 6.07 5.944l-1.667 1.555c-.278-.036-4.864-4.31-9.505-9.35-2.55-2.77-3.685-8.848-3.25-12.13.59-4.461 1.964-7.658 5.874-11.101 1.501-1.257 3.017-2.234 4.34-3.664 12.148-14.054 16.487-22.387 16.487-22.387m-8.13 2.297c.459 1.02.711 2.36-.728 2.45-.853.054-1.34-1.482-.602-2.849.559-1.076 1.056-.16 1.329.399zm-42.81-.27 4.796.153s4.73 4.46 7.118 6.931H98.29c8.836 0 16.097.038 16.14.083.11.119-1.143 1.935-1.143 1.935l-52.986.034c.01-.009 3.273-3.15 4.44-4.032 2.07-1.56 3.965-3.013 5.57-5.105zm-32.47 2.157c.347 1.384.638 2.795 1.236 4.069l-3.68 2.112c.677-2.107 1.45-4.132 2.444-6.181m102.158 11.504c-.73 2.154-2.642 6.548-4.952 9.878a25 25 0 0 0-.773 1.137l4.507 4.668-3.911 4.499c2.197 2.473 4.055 6.26 5.032 9.276-1.774-.758-2.77-1.217-4.96-2.534-.618-1.68-1.25-3.458-1.945-4.991-1.597-3.5-1.574-3.157-.271-4.186 1.908-1.507 2.476-1.857 1.98-2.617-.348-.534-2.6-3.425-2.736-3.516-.207-.138-.115-.566.269-1.25 1.304-2.534 2.373-5.326 3.038-7.807zm.853.177.119 29.416c-1.615-3.514-3.294-7.104-5.166-9.347-.07-.152 4.083-4.54 4.083-4.54-1.522-1.525-2.413-2.437-4.539-4.555 2.07-3.227 3.71-7.448 5.503-10.973zm-114.301 1.02 5.167 3.245c-.273 4.149-.617 9.596-1.148 15.122-.444 4.312-.627 6.299.08 7.495.599.876 2.212 1.822 2.212 1.822-2.718 1.19-3.765 4.7-.719 7.326 0 0-.74.63-1.068 1.01l-4.24-3.43zm80.882 1.487c-1.288 1.561-3.308 3.877-4.858 4.985-2.068 1.476-4.97 4.312-4.831 4.355 0 0-3.043-.016-5.103-.106l-7.107-6.858s.254-.101-9.418-.015c-12.5.111-22.63-.038-22.63-.038l1.42-2.157zm25.334 1.348c-.7 2.432-1.785 4.68-3.16 6.787-.318-1.494-.493-3.082-1.16-4.351zm-100.394.779.62.478s-.37 5.076-.49 6.561c-.219 2.745-.326 5.219-.548 8.015-.444 5.553-.37 6.37.638 7.228.775.627 1.303.343.616-.452-.453-.63-.45-.617-.588-1.543-.096-.644-.08-1.605.055-4.209.768-14.67.927-15.163.944-15.167l1.544 1.08c-.086.225 1.416 14.785 1.263 18.404-.179 4.232-5.445 3.298-5.695.157-.103-.722.897-12.606.897-12.606zm42.96.854 2.067.064 12.753 12.68 4.347.101-.38 1.6-4.2-.01zm7.907 0h2.002l7.298 7.157 4.493.075-.856 1.378-4.469-.14zm-2.492.008 10.79 10.522 3.679.207-.567 1.438-4.361-.131-12.123-12.01zm-10.403.038h2.241l16.866 16.424 4.42.087-.066 1.48-5.32-.027zm56.759.467c.89.241 1.328 1.174 1.956 4.634.732 4.034-.854 10.584-2.84 11.813-1.028.875-2.146-.052-1.42-1.194 2.37-3.723 2.682-9.815 1.28-13.22-.444-1.096.013-2.23 1.024-2.033m-71.558.606c5.39.07 6.782 12.04 1.48 13.72-3.444.55-5.217-2.821-5.717-5.864-.588-3.78.951-7.898 4.237-7.856m-2.962 7.182c.321 2.399 1.697 5.147 3.697 4.911 2.63-.309 2.96-4.107 2.7-6.018-.315-2.307-1.49-4.398-3.37-4.513-2.8-.171-3.276 3.769-3.027 5.62m2.889-4.66c.751-.014 1.305 1.073 1.1 2.42-.133.873-.44 1.947-1.347 1.217-.422-.417-.8-1.64-.7-2.553.067-.6.341-1.068.947-1.084m74.315 2.767 2.53 3.165-2.875 2.18c.404-1.667.538-3.438.345-5.346zm-72.48.286c.455 0 .825.403.825.896 0 .492-.37.892-.825.892-.456 0-.826-.399-.826-.892s.37-.896.826-.896m-2.952.55c.456 0 .825.399.825.892s-.369.893-.825.893-.828-.4-.828-.893.372-.892.828-.892m1.67 1.152c.415.136.68.548.902.906.552.888.624 2.003.231 2.47-.792 1.018-2.03-.071-1.882-1.644.11-1.153.392-1.849.749-1.732m7.066 3.493c1.183 0 1.517 1.51.497 2.248-.663.48-.81 2.04-.4 4.201.332 1.56.158 1.803-.703.395-1.47-2.55-1.09-6.844.606-6.844m-2.767.821c1.038-.043 1.371.815.766 1.472-.355.426-.32 1.55.076 2.474.56 1.337.428 1.742-.62.455-1.448-1.675-1.426-4.35-.222-4.4m68.614.652c1.177 1.693 2.22 3.903 3.174 6.407l-5.106-2.538zm-74.613 6.808c-.362-.452-.537-1.917-.833-2.544-.23-.75-.43-1.189-.806-1.164-2.157.198-2.066-2.033-.827-2.454 2.563-.872 3.498 5.82 2.466 6.162m10.704-2.252c-.366 1.17-.1 1.869-.024 3.118.064.567.091.718-.34.282-1.023-.966-1.567-4.262-.646-4.872 1.24-.821 1.615.566 1.01 1.472m51.153-1.563c.5-.026 1.07.395 1.35 1.17.406 1.114.369 3.847.164 5.301-.312 2.226-.81 4.27-1.013 5.801-.722.929-2.502-2.357-2.669-4.95-.28-2.056.375-6.329 1.838-7.232a.8.8 0 0 1 .33-.09m6.894.35c.448-.022.346.14.677.515.503.57.706.708 1.417.95 1.464.498 3.074 2.706 2.453 3.376-.49.42-1.824-.374-2.28-.543l-1.36-.504c-1.228-.448-2.994-2.895-2.444-3.388.294-.264 1.19-.389 1.537-.407zm-3.57.407c.907.01 1.155.254 1.674 1.31.77 1.564 2.199 2.669 4.275 3.305 2.65.874 4.935 2.536 4.824 5.613-.632.007-1.265.052-1.897.26-.733-2.232-2.558-3.512-4.128-3.897-3.623-.889-6.984-4.864-6.028-6.441.418-.23.867-.157 1.28-.151zm-62.484.195 31.292 29.477c-13.206-5.3-25.32-5.186-37.035-3.226zm13.345 1.952c-.059.918-1.223 1.114-1.464 1.34-.585.55-.507 2.14-.257 3.993.191 1.112-.065 1.063-.606.191-.957-1.543-.938-4.22-.303-5.796.818-2.03 2.712-1.014 2.63.271zm-17.996-1.443c1.2.134 1.53 1.9 1.58 3.072 0 1.613-.423 1.552-.66 0-.114-.689-.311-.956-.826-1.122-1.167-.379-1.243-1.95-.094-1.95m14.542 1.803c-.307.366-.315 2.076-.035 3.226.155.636-.131.685-.53.18-1.294-1.641-1.413-4.427-.212-4.965.979-.276 1.233 1.016.776 1.558zm-13.54 3.294c.03 1.639-.316 1.79-.772.218-.117-.365-.324-.733-.473-.843-.852-.63-1.001-1.123-.508-1.657 1.213-1.07 1.738 1.794 1.754 2.281zm4.574-1.446-4.242 19.572c10.442-.947 15.187-1.146 26.344 1.212zm12.651.324c.639.173.86 1.075.115 1.928-.244.337-.471.86-.174 2.242.408 1.893-.278 1.288-1.114-.5-.535-1.145-.289-4.067 1.173-3.67m-19.974.06c1.135 0 2.186 1.992 2.203 4.171.012 1.762-.22 1.634-.825-.049-.426-1.113-.77-1.516-1.542-1.807-1.432-.539-1.307-2.315.163-2.315zm7.668.565 19.65 18.574c-8.047-1.39-15.947-1.498-23.619-.455zm16.354.7c1.541 0 2.148 2.06.258 2.78-1.127.43-.646 2.894-.44 4.357.079.552-.082.591-.406.098-1.188-1.895-1.852-6.675.587-7.236zm-2.081 2.316c-.28.477-.311.988-.119 1.912.5 1.987.63 2.355-.414 1.344-1.099-1.256-1.578-3.743-.658-4.48 1.033-.827 1.965.091 1.19 1.224zm-38.832-1.534c1.824-.014 3.15 1.264 3.08 3.044-.077 1.961-1.213 3.199-2.881 3.302-1.863.102-3.013-1.505-3.054-3.17-.037-1.471.828-3.16 2.855-3.176m-.03.788c-2.089-.007-2.87 2.97-1.143 4.345.741.589 1.327.423.717-.204-1.148-1.18-.686-3.13.825-3.49.747-.177.458-.648-.4-.65m25.417.505-2.513 13.183c5.14-.864 11.36-.6 16.16-.113zm-8.464.5c1.25-.068 1.616 1.965 1.625 2.775.001 1.047-.114 1.592-.292 1.033-.42-1.32-.836-2.045-1.287-2.045a1.2 1.2 0 0 1-.651-.414c-.444-.635-.014-1.321.605-1.348zm8.697.528 1.657 1.52c-1.066-.505-1.974.802-1.974.802zm17.05 2.488c-.48.654-.477 2.034-.104 3.64.105.45-.284.117-.675-.417-.741-1.01-1.09-2.195-.955-3.167.149-2.455 3.03-1.977 1.735-.056m-26.207-1.175c1.072.131 1.477 2.552 1.451 3.286-.034.768-.196 1.285-.337.818-.276-1.012-.846-2.465-1.34-2.798-.847-.572-.607-1.226.227-1.307zm82.091 2.713c.038.854-.29 1.729-.776 2.01-.497.287-.8-.102-1.097-1.087-.219-.724-.295-1.002-.295-1.002s-.184.905-.243 1.094c-.387 1.256-1.65 1.268-2.178-.135-.563-1.637 1.009-3.315 2.217-3.255 1.34.066 2.302 1.001 2.374 2.373zm-71.611-1.828c.377 0 1.838.708 1.838.708l1.455 1.393s-1.338-.63-1.81-.81c-1.126-.43-1.102-.435-2.012.37a45 45 0 0 1-1.705 1.434l.289-1.788s1.37-1.307 1.945-1.307m-9.547 4.393c.215 1.89-.274 2.05-.749.245-.406-1.545-.806-2.109-1.496-2.109-1.271.205-1.699-1.834-.557-2.243 2.155-.655 2.71 3.362 2.802 4.107m73.855-4.145 1.987.997.421 2.225-1.83-.49zm-44.542.205c1.913-.575 2.15 2.001.683 2.382-.895.232-.89 1.731-.635 3.91.058.497.182 1.099.154 1.182-.136.394-.592-.208-1.204-1.604-.915-2.545-.63-5.38 1.003-5.87zm54.673-.032-.553 2.575-1.68-.125-.064-1.577zm-56.637 1.674c-.92 1.441-.093 2.773.111 3.901.036.657-.747.014-1.197-.941-.94-1.994-.995-3.603-.15-4.322 1.184-.75 1.728.591 1.236 1.362m-17.246-.353c.326.004.766.195 1.692.58a184 184 0 0 1 2.325 1.005l2.147 2.051s-1.885-.751-3.199-1.351c-2.956-1.351-2.532-1.395-4.87.53-.674.556-1.378 1.19-1.378 1.19l.286-1.648s.883-.95 1.984-1.807c.474-.37.687-.553 1.012-.55zm-27.502.779c1.513-.046 2.507 1.256 2.871 2.71.21.843.029 1.62-.014 2.428-1.044 8.656-1.503 16.689-2.464 24.704-.118.382-.246.24-.4-.449-1.111-7.267-1.835-15.242-2.77-22.444-.214-2.69-.856-6.204 2.29-6.893q.252-.05.488-.056zm-.09.96c-.668.029-1.457.525-1.737 1.163-.572 1.304-.423 3.96.665 11.918.09.663.216 1.769.278 2.459.191 2.113.45 3.791.637 4.103.356.594.402-.044.146-2.112-.13-1.055-.307-2.668-.393-3.584-.489-3.774-.595-6.46-.898-9.905-.152-1.692.478-2.94 1.66-3.279.64-.183.674-.494.077-.704a1.2 1.2 0 0 0-.436-.06zm100.062.105c2.21.006 3.023 3.352.86 4.533-.803.438-2.149.231-2.483-.468-.162-.545.02-.861.42-1.092.488-.281 1.204-.522 1.204-.522s-1.17-.246-1.5-.845c-.711-1.292.594-1.581 1.5-1.606m-83.148 3.61c-.025.63-.323.371-.397 0-.238-.84-.736-1.75-1.152-2.112-.504-.438-.624-1.03-.282-1.4 1.283-1.226 1.824 3.12 1.83 3.512zm74.978-3.618c.566-.018 1.335.19 1.822.716.628.68.594.935-.459 1.35-.511.205-.863.365-.863.365s.475.202.828.308c1.01.365.956.998.03 1.746-1.263 1.02-3.29-.333-3.267-2.128.02-1.422.83-2.324 1.91-2.357zm4.665-.01 2.019 2.405-2.36 2.642-2.22-2.635zm-68.599.226h.087c.625.012 1.624.469 4.072 1.536 1.345.586 2.9 1.254 2.9 1.254l2.202 2.108s-3.018-1.025-4.068-1.6a13 13 0 0 0-1.114-.511c-.385-.157-1.338-.56-2.12-.9-1.68-.731-1.7-.736-2.262-.222-.24.22-.832.721-1.312 1.114l-1.56 1.28c-.444.365-1.005.918-1.005.918l.355-2.033s.317-.336.884-.806l1.74-1.441c.505-.42.769-.675 1.2-.697zm21.666 1.784c.062.423.025.504-.425 1.001-.568.627-.645 1.656-.23 2.989.115.368.255.803.224.837-.6.65-2.18-3.451-1.804-4.673.452-1.461 1.935-1.483 2.235-.154m-34.648.177c.414-.021.894.318 1.135 1.024.653 1.972.254 4.393-.414 2.137-.174-.477-.473-.99-.7-1.25-.234-.269-.76-.582-.748-1.02.05-.575.362-.873.727-.892zm13.508.056c.265.01.618.152 1.252.433.574.254 2.19.836 3.109 1.219a42 42 0 0 1 2.916 1.381l-3.23-.195s-1.097-.395-1.75-.685c-2.366-1.052-2.234-1.046-3.41-.08-.422.346-.951.904-.951.904l-1.643.098s.771-.891 1.886-1.784c.364-.293.863-.71 1.103-.927.278-.25.452-.373.717-.365zm25.269.69c.899-.185 1.391.741 1.334 1.32-.062.634-.607 1.266-1.444 1.441-.177.709-.679 2.327-.386 4.74.236 1.132-.206 1.157-.658.072-.73-1.757-1.797-6.97 1.153-7.575zm-2.566 1.934c-.381.882-.514 1.591-.303 2.703.234 1.235.283 1.54-.365.768-1.257-1.812-1.44-4.698-.282-5.029 1.118-.32 1.363.993.95 1.558m-37.68-1.35c1.962.335 2.54 3.95 2.266 5.495-.52 1.872-.494.607-.675-.172-.483-1.883-1.041-2.908-1.64-3.016-1.609-.29-1.383-2.552.05-2.308m15.036.71.094.008c.646.117 2.374.694 1.629.889l-2.552.015c-.495.02.323-.872.828-.912zm68.697.592c.247-.024.585.29.981.727.908 1 .51 2.576-.716 3.354-1.925 1.22-4.117-1.08-3.06-3.193.58-1.159 1.278-.952 1.872.684.11.199-.001-.204.203-.702.202-.496.473-.846.72-.87m-3.23.116-.578 2.515-2.346 1.22.857-3.099zm4.88.43 1.869.162 1.037 3.267-2.694-1.242zm-44.164 1.847c1.36.06 1.497 1.45.717 2.057-.438.453-.589 1.11-.498 2.157.04.467.126 1.037.122 1.103-.013.224-.185.189-.418-.086-1.436-1.692-1.245-5.29.076-5.231zm-41.121.543c.86 0 1.838 2.67 1.357 3.691-.303.6-.595.451-.706-.244-.082-.507-.35-1.2-1.046-1.324-1.01-.348-.68-2.123.394-2.123zm43.606 1.616c.658.367.72 1.186.125 1.645-.461.355-.583.655-.654 1.618.15 2.192-.988.8-1.095-1.193-.059-1.085.484-2.696 1.623-2.071zm-44.33.673c.618 0 1.353 1.201 1.19 1.902-.087.557-.357.458-.734.044-.146-.123-.475-.25-.627-.3-.925-.303-.77-1.646.171-1.646m17.572.922c8.358-.042 17.05 1.393 24.276 4.514l-.595 1.155-1.897-.704-.651 1.86 1.563.644-.734 1.717c-8.528-3.034-17.725-5.293-33.009-2.846-.759-.571-2.13-1.698-2.13-1.698l1.222-.29-.16-1.837-3.087.594-.902-1.02c4.826-1.34 10.386-2.06 16.104-2.09zm28.032.403c.8.002 1.296.973.71 1.39-.41.29-1.324.37-1.507.131-.38-.494.159-1.522.797-1.52m-29.211 1.137-.035 1.905 2.52-.087.052-1.807zm4.402.041.01 1.872 2.447.086.115-1.833zm-6.4.129-2.475.176.077 1.747 2.454-.116zm11.064.29-.062 1.803 2.488.297.18-1.833zm-15.669.087-2.488.342.212 1.796 2.42-.29zm20.48.583-.244 1.882 2.321.373.3-1.788zm4.6 1.055-.23 1.9 2.36.543.317-1.766zm-16.702 2.19c7.835-.01 14.976 1.45 20.99 3.924 0 0-.78 1.818-1.054 2.014-4.316-1.863-11.67-3.595-16.64-3.689-1.821-.073-2.225-.125-2.896-.376-3.787-1.347-7.132-1.93-10.215.06l-1.26-.964a66 66 0 0 1 11.074-.967zm-33.092 10.865c1.792.023 2.645 2.995.752 4.243-.507.31-1.176.27-1.712.008-1.534-.79-1.648-3.258.14-4.065.289-.13.565-.188.82-.185zm58.562.098c.642.424 3.01 1.558 3.01 1.558l-16.64 32.537-4.026.034zm-53.67.077c.997-.12 1.704.805 1.961 1.58.351 1.055-.278 2.93-2.036 2.822-2.016-.123-2.92-4.042.074-4.403zm57.224 1.693c.446.265 2.062.555 2.203.892.06.168-.062.5-.098.93-.087 1.034.152 2.18.731 3.099.948 1.425-.078.77-1.027.76-2.139-.591-4.864 2.561-3.828 5.805.24.718.192.774-.954 1.152-2.602.857-3.737 3.843-2.487 6.51.652 1.39.67 1.319-.475 1.422-3.183.286-5.033 3.341-3.696 6.464.207.483.075.616-.62.756-2.173.431-3.147 2.397-3.421 4.555l-2.875.03zm2.757 1.148 5.523 1.63c-2.294 8.435-2.61 18.235.15 29.57l-12.7.011c1.763-1.712 1.067-4.078-.995-4.6 2-1.241 2.002-4.547-.396-4.945-2.108-.35-3.196 1.82-2.26 3.99l-.9.266s-.403-.548-.495-.84c-.796-2.507.869-4.996 3.706-4.988 1.75.006 2.112-.53 1.145-1.694-1.73-2.08-1.185-5.003 1.072-6.153 1.04-.53 1.653-.18 1.653-.18l.053 1.379s-.421.044-.749.1c-2.493.432-2.03 4.731.503 4.693 1.395-.02 2.393-1.164 2.393-2.807l.002-1.143c1.28 2.37 3.48 2.54 4.418.612 1.103-2.27-.898-3.697-2.904-3.462 0 0 .42-.296.687-.444 2.136-1.188 1.4-4.584-.962-4.584-1.622 0-2.567 1.63-2.045 3.357a8 8 0 0 0 .282.722l-.964.264s-.22-.18-.317-.346c-1.655-2.798 1.002-5.879 4.35-5.18 1.227.415 1.187-.502.498-1.33-.74-1.193-1.292-2.545-.748-3.9zm-62.422 1.22 2.9 5.526-3.248 6.366-3.22-5.963zm-.286 2.876-2.012 2.996 1.97 3.442 1.87-3.483zm-.086 1.125 1.308 1.897-1.32 2.33-1.29-2.187zm59.912 5.971c.61 0 1.106.534 1.106 1.194s-.497 1.194-1.106 1.194-1.104-.535-1.104-1.194c0-.66.494-1.194 1.104-1.194m-7.806 14.983c.632 0 1.145.552 1.145 1.235s-.513 1.239-1.145 1.239c-.631 0-1.142-.556-1.142-1.239 0-.682.51-1.235 1.142-1.235m-1.73.842c-.105.048.002 1.122.252 1.567-1.649.11-2.086 1.474-2.246 2.625l-1.477-.005c.246-3.895 3.366-3.982 3.47-4.188z"/></svg>