<svg xmlns="http://www.w3.org/2000/svg" xml:space="preserve" width="222.783" height="323.556" viewBox="0 0 167.087 242.667"><path d="M166.837 235.548c0 3.777-3.087 6.869-6.871 6.869H7.11c-3.775 0-6.861-3.092-6.861-6.87V7.12C.25 3.343 3.336.25 7.11.25h152.856c3.784 0 6.87 3.093 6.87 6.87z" style="fill:#fff"/><text xml:space="preserve" x=".2" y="24.899" style="font-size:28.70453262px;font-style:normal;font-weight:400;line-height:125%;letter-spacing:0;word-spacing:0;fill:#df0000;fill-opacity:1;stroke:none;font-family:Bitstream Vera Sans"><tspan x=".2" y="24.899" style="font-style:normal;font-variant:normal;font-weight:400;font-stretch:normal;fill:#df0000;fill-opacity:1;font-family:Arial;-inkscape-font-specification:Arial">Q</tspan></text><path d="M3.676-9C.433-9 0-5.523 0-5.523S-.433-9-3.676-9C-5.946-9-8-7.441-8-4.5-8-.614-1.42 3.294 0 9 1.352 3.299 8-.614 8-4.5 8-7.441 5.946-9 3.676-9" style="fill:#df0000;fill-opacity:1" transform="matrix(2.46042 0 0 2.30272 48.047 46.693)"/><path d="M3.676-9C.433-9 0-5.523 0-5.523S-.433-9-3.676-9C-5.946-9-8-7.441-8-4.5-8-.614-1.42 3.294 0 9 1.352 3.299 8-.614 8-4.5 8-7.441 5.946-9 3.676-9" style="fill:#df0000;fill-opacity:1" transform="matrix(1.11218 0 0 1.0409 11.309 37.48)"/><text xml:space="preserve" x="-166.866" y="-217.583" style="font-size:28.70453262px;font-style:normal;font-weight:400;line-height:125%;letter-spacing:0;word-spacing:0;fill:#df0000;fill-opacity:1;stroke:none;font-family:Bitstream Vera Sans" transform="scale(-1)"><tspan x="-166.866" y="-217.583" style="font-style:normal;font-variant:normal;font-weight:400;font-stretch:normal;fill:#df0000;fill-opacity:1;font-family:Arial;-inkscape-font-specification:Arial">Q</tspan></text><path d="M3.676-9C.433-9 0-5.523 0-5.523S-.433-9-3.676-9C-5.946-9-8-7.441-8-4.5-8-.614-1.42 3.294 0 9 1.352 3.299 8-.614 8-4.5 8-7.441 5.946-9 3.676-9" style="fill:#df0000;fill-opacity:1" transform="matrix(-2.46042 0 0 -2.30272 119.136 198.188)"/><path d="M3.676-9C.433-9 0-5.523 0-5.523S-.433-9-3.676-9C-5.946-9-8-7.441-8-4.5-8-.614-1.42 3.294 0 9 1.352 3.299 8-.614 8-4.5 8-7.441 5.946-9 3.676-9" style="fill:#df0000;fill-opacity:1" transform="matrix(-1.11218 0 0 -1.0409 155.758 205.002)"/><path d="m192.703 24.81-163.086.082.982 261.838 163.668-.342c-1.267-87.3-1.387-174.434-1.564-261.579Zm-19.24 2.204 17.2.087v100.754s-1.072-.031-.972-.736c.133-.945-.012-2.712-.674-3.455-.279-.313-.735-.806-.914-1.165-.452-.901-1.195-1.833-1.79-2.084-.296-.125-.639-.195-.683-.399-.042-.19-.138-.818-.265-1.396-.316-1.446-.598-1.401.322-2.839 3.188-4.985 4.415-9.572 4.013-14.119-.126-1.42-.482-3.26-.65-3.513-3.081 3.088-5.312 6.903-7.408 9.722-.467-4.028-.4-7.067-.468-10.296 1.645-.469 2.641-1.345 3.349-3.585 0 0 1.764 1.381 2.844 1.184l-.711-2.602c4.718-1.448 5.363-7.605-.209-8.906l.502-3.242s-1.681.563-2.421.924c-.368.155-.459.032-.717-.5-2.598-4.042-6.633-3.182-8.412.804l-2.175-.924c.236 1.103.517 2.221.318 3.325-4.566 2.033-3.438 7.596.207 8.326l-.318 2.599 2.743-.885c.4 1.221.195 1.927 2.387 3.301-.054 5.447-.142 8.852.029 13.692-2.857-2.926-5.615-4.958-10.448-6.449 0 0-.045 1.173.236 2.955.093.588.075.502-.202.5-.628-.014-3.46-4.567-3.46-4.567s-.329.004-.616.289c-.337.335.433.953 1.516 2.56 1.267 1.882 1.145 1.802.149 2.647-5.659 4.802-13.833 23.079-12.46 24.857-3.577.214-17.522 7.051-20.054 21.146-.15.635-.448 1.458-.448 1.458l-4.033-1.001c2.432-11.545 7.921-35.021 7.921-35.021s3.859-1.096 6.117-1.338l-.024-.91-5.313 1.237.255-2.012 5.015-.987-.014-.476-5.308.712.866-3.349s-11.916 1.75-16.184 1.622c.27 13.025-.758 23.845-.204 37.882l-5.826-3.53c-.518-9.773-.674-34.457-.674-34.457l-16.086-2.527.534 3.878c-13.335-5.285-26.713-10.148-36.563-20.481 6.064-4.654 16.184-9.269 16.184-9.269l-.332-.741c-24.884 12.828-34.126 21.74-46.628 32.797l-.337-91.409 67.914-.034-.226 16.671s-.088.432-.217.582c-.83 4.038 1.553 11.207 1.073 14.697.222 1.077.144 3.08.144 3.08-4.055 5.554-6.203 10.826-8.008 17.282-.698.277-1.727.848-2.454 1.044l-.207.881c1.591-.874 6.102-2.3 6.102-2.3 20.097 9.797 34.865 7.399 50.671.12-2.52 8.846 2.959 20.095 11.973 22.46 1.031.27 2.797.501 3.807.236 1.009-.291-2.272-7.799-3.725-8.08-4.355-1.886-6.148-6.318-5.684-11.401l-.722-1.213c-1.484 6.175 2.087 12.444 6.993 13.976l1.319 2.878c-8.89-2.667-12.676-10.991-9.716-19.221.052-5.136-3.276-7.407-4.803-9.62-7.731-2.949-9.168-10.109-7.816-15.896 3.599 1.531-2.425-5.082-2.425-5.082-2.651 5.742-3.758 13 2.305 20.357-3.923 5.197-8.98 9.309-14.635 12.82-8.264 4.312-14.464 1.407-18.456-8.143-2.397-5.734-3.256-11.449-3.244-17.436.014-3.706.055-3.819 1.444-3.191 1.304.59 4.134.674 5.823-.197 2.302-1.187 2.193-.465-.313 2.113-.682.701-1.41 1.334-1.41 1.468-.003.761 1.07.12 2.599-1.396.558-.553.971-1.086 1.145-1.078.2.009.182.722-.048 1.492-.088.296-.369 1.545-.626 2.772s-.608 2.669-.78 3.205c-.68 2.128-.495 3.115 1.546 4.098 1.076.518 2.917 2.283 2.901 2.283 0 0-.44-1.935-.277-2.557.196-.748 1.085-.219 1.991.214 2.003.957 3.168.984 4.243.087 1.483-1.238 1.058-4.02-.775-4.745-1.345-.532-1.58-.04-.238.896 2.014 1.405-.257 3.576-1.968 2.23-1.338-1.053-3.661-1.171-3.921-.294-.245.829-.498.678-1.425.137-1.44-.841-1.452-.988-.245-5.631 2.284-8.79 2.061-12.017-.967-14.688-2.241-1.977-5.943-2.895-9.784-.698v-2.993c5.638-2.253 9.739-5.98 13.047-12.219h.645c3.293 7.13 8.616 12.251 18.629 16.006 3.912 3.863-4.959-11.095-2.127-4.971-5.313-2.058-10.05-6.046-12.657-11.035h1.449c1.526 2.205 4.619 6.229 10.126 9.009.5.418.982-.014.982-.014s-4.62-7.238-5.376-8.961l46.156-.327c-1.465 11.241-3.527 23.457 4.59 45.351-3.807-1.999-19.071 2.259-16.384 3.101 1.349-1.557 11.076-3.854 18.273-2.156-.595-.514-10.976-24.6-4.938-46.056zm4.938 46.056.029.005zm-35.661 43.38.043 1.761.366-.087-.212-1.713zm-41.671-89.383h2.026c-.445.915-1.094 1.601-2.084 2.166zm3.484 0h2.18c-1.698 2.703-3.504 4.34-5.684 5.621l.038-2.118c1.26-1.104 2.462-2.245 3.465-3.503zm3.605 0h2.012c-2.73 4.194-5.532 7.01-9.12 8.792v-1.713c2.216-1.723 5.358-4.256 7.108-7.079m3.07 0h1.627c-2.797 5.328-6.697 9.008-11.805 11.054v-1.28c5.594-2.981 8.042-6.309 10.178-9.774m4.447 0h1.954c2.681 5.327 8.25 10.366 14.365 12.575l.934 2.161c-8.061-2.894-13.401-7.116-17.253-14.736m5.655 0h1.396c1.467 2.045 3.245 3.706 5.323 5.087l1.266 2.45c-2.804-1.886-5.934-4.177-7.984-7.536zm2.546 0 1.559.082 2.065 3.441c-1.376-.773-2.417-2.344-3.624-3.523m-1.79 13.831c-2.138-.01-4.083.58-5.491 1.728-1.488 1.213-.393 2.534 1.747 1.54 3.645-1.693 7.833-.93 12.354 1.545 3.806 2.083 2.473-.088-1.078-2.406-2.434-1.61-5.109-2.395-7.532-2.406zm-17.19 2.729c3.067.024 6.58 1.382 6.665 3.181-2.034-1.701-6.122-2.527-10.044-.78-.3-.064-.342-1.13-.164-1.521.844-.623 2.148-.892 3.542-.881zm18.571 1.16c-1.939 0-3.714.507-4.533 1.598-.419.517-.529.572-.991.496-.902-.15-.852.372.178 1.8.499.693.417 1.481-.25 2.421-.767 1.079-.617 1.12 1.665 2.214 1.745.849 3.146 2.054 4.731 3.046 1.132.639 1.358.077.313-.765-.359-.289-1.422-1.048-2.377-1.67-1.619-1.054-2.808-2.119-1.521-1.646.59.186.742.264 1.391.375 1.668.36 3.316.562 4.716.279 1.004-.201 2.312-.865 3.388-1.795.275-.127.546.008 1.213.034 2.55.099 1.987-.649-1.675-2.647-3.623-1.976-6.465-2.337-8.783-1.251-.981.46-1.543.574-1.4.284.149-.303.421-.654.861-.91 3.746-2.241 6.756-.383 10.058 1.299 1.417.844 1.8 1.064 1.968.794.216-.346-1.58-1.622-3.99-2.83-1.413-.732-3.251-1.126-4.962-1.126m-11.976 2.595c.634.248.35.973-.229.744-3.459-1.553-4.153-2.31-8.277-.872-1.362.475-1.902.055-.23-.662 3.642-1.524 6.286-.496 8.736.79m-2.371 1.827c-.937 4.759-5.675 3.292-5.14.024l.871.005c.068 2.874 2.948 2.855 3.441.029zm27.552.01 1.275 2.729c-2.79 6.871.998 16.123 9.235 18.34 0 0 1.329 2.042 1.068 2.3-15.465-3.422-14.275-18.165-11.579-23.369zm-14.649.178.433.024c1.336 3.317 3.275 1.411 3.653.01l.987.024c-.301 3.435-5.513 4.019-5.072-.058zm-11.921.096c.626-.073.839.866.664 1.04-.048.048-1.193 1.16-1.333.505-.205-.958.409-1.498.669-1.545m-7.214.096.164.01c.388.296.535 1.18.332 1.636-.23.238-1.158-.087-1.338-.443-.276-.52.048-1.208.842-1.203m25.083.318c.305.012 1.145.375 1.064.78-.021.103-1.19.963-1.453.823-.507-.27.194-1.506.294-1.583zm-6.834.149h.019c.09.067.837.532.202 1.391-.044.059-.891-.242-.905-.342-.069-.5.567-1.014.683-1.049zm18.74 6.025c-.189 3.949.841 7.784 5.154 10.246l-.929-1.694c-1.106-.881-3.422-3.394-3.133-6.386zm-38.731 7.06.486 2.599c-2.373 3.943-4.175 7.819-5.669 12.349l-2.243.818c1.781-5.713 3.427-10.24 7.426-15.766m.943 4.047.635 2.233c-1.165 2.148-2.411 4.573-3.162 7.397l-2.478.914c1.115-3.741 2.746-7.375 5.005-10.544m7.859.924-.111.014c-.026.44-.021 1.657.072 3.662.018.38.391.22 1.444-.318.918-.469.823-.543 1.713-.245 2.464.844 3.585.477 4.548.229 1.468-.378 2.068-.225 2.921.285.469.281 1.11.488 1.237.534.676.246.418-.051-.043-1.877-.519-2.053-.297-2.278-1.12-1.743-.181.117-.703.406-.988.44-.717.084-1.914-.795-2.628-.516-1.729.676-1.713.498-3.319.105-.803-.197-1.571.292-2.268.43-.398.05-.903-1.005-1.458-1.001zm29.414 1.064c2.921 2.679 5.924 3.596 9.182 4.61-.393 1.332-1.179 2.831-1.545 4.572-16.955 8.962-33.993 8.68-50.064.544l8.34-3.186c4.556 7.891 10.397 9.998 16.964 7.416 7.338-3.413 12.771-8.162 17.123-13.956m-36.228 1.579.722 1.935-1.073 2.916-2.045.828c.392-1.987 1.148-3.619 2.397-5.679zm15.323 2.243c-.507.024-1.274.366-3.022.375-.947.005-1.688-.079-2.055-.005-.762.154.128.494 1.834.982 1.705.485 3.788-.247 4.047-.987.063-.181-.162-.397-.804-.366zm-14.125.953.448.982-.765.274zm45.079.553 1.266 2.883c-2.193 4.746-3.649 17.754 10.992 21.801l.64 1.862c-9.965.195-19.951-12.471-12.897-26.546zm-33.524.982c-1.431-.014-2.929.341-3.893 1.107-.872.69.194 1.125 1.328.573 1.469-.715 3.922-.656 5.361.245 1.101.75 1.675.618.938-.525-.578-.897-2.113-1.384-3.735-1.4zm63.924 3.239c3.827-.063 4.224 5.415 3.479 5.886.215-.073.869-.265 1.8-.241 2.804.073 4.266 1.624 4.428 3.879.163 2.272-1.564 3.538-4.081 3.412-.934-.047-1.578-.141-1.535.024.468 1.816-.097 4.553-2.502 5.236-.276.079-.67.464-.679.602-.18 2.88.64 12.772.64 12.772s4.51-7.58 5.525-8.73c1.985-2.71 2.344-2.468 2.349 2.036-.329 6.247-1.331 7.679-5.01 12.922-1.575 2.258-5.304 1.072-4.966 2.599.075.337.68.942 1.285 1.516.387.367.788.598 1.694.568 1.591-.053 2.21-.375 1.26 1.007-.752 1.094-3.395 1.321-3.693 1.89-.693 1.324-.219 1.031-1.403 2.195-.906.993-.591.487-.178 1.304.648 1.054.378 3.159-.265 4.577-.524 1.155-.465 1.979-.465 1.979.01.096 1.472-1.51 1.914-3.365.367-1.544.797-2.318.794-1.453-.004 1.09.186 2.572 1.169 3.138.778.447.89.894.76 1.444-.134.568.474 1.069 1.073 1.545.141.14.614.325.563.626-.16.949.225 2.065.917 2.246.308.153 2.272-.014 2.596-1.12-.031-.352-.003-1.803-.784-1.887-.552-.254-.495-.406.342-.905 1.251-.746 2.159-1.281 2.777-1.396.827-.112 1.622-1.011 1.622-1.011l.159 59.627c-7.421 7.595-15.555 15.155-26.281 22.585-6.233-5.194-13.044-10.453-20.275-14.389l-2.498-1.477.895-1.145-4.336-5.717 4.88-3.927 1.237 1.564-2.31 2.243 3.465 3.831 7.787-7.594-5.13-4.909 2.671-5 1.708.837-1.29 3.171 3.903 2.469 4.885-9.702-6.194-2.82 1.569-6.516 1.911.202-.635 4.692 4.827.958 1.964-11.064-7.084-1.266.602-6.309 1.978.024-.289 3.489 5.005.712.943-9.644-6.944-1.15.895-7.445 1.588.226-.308 4.591 5.096.871c.56-3.114 1.017-7.023 1.848-10.077l-6.564-2.445 2.324-6.251 1.477.515-1.29 3.388 4.846 2.06 4.086-8.061-5.708-4.038c1.279-2.122 2.556-4.138 4.384-5.857l1.121.977s-.411.371-1.044 1.246c-.769 1.063-1.01 1.6-.905 1.877.104.273 3.63 2.877 3.898 2.878.311.001 1.481-1.065 2.084-1.781.645-.766.984-.84 1.651-.361.133.095.325.285.462.448.16.193.225.354.241.476a.37.37 0 0 1-.048.25c.057-.054.18-.147.443-.294.479-.267-.928-1.504-2.079-2.146-3.442-1.932-7.491-5.571-8.427-10.126-.343-2.045 4.944.415 8.585 4.042a525 525 0 0 0 2.604 2.536c-.299-5.264-.728-10.611-.496-15.939l-.804-.558c-1.125-.784-1.558-2.07-1.66-3.359-.071-.889.692-1.343-1.049-1.285-3.624.032-5.721-3.379-3.523-6.295.786-1.091 4.128-1.624 4.124-1.598-.854-3.487 1.711-5.358 3.6-5.534zm3.479 5.886-.101.034zM62.631 96.002c10.121 8.52 16.578 14.253 37.177 20.67l.51 3.051c-11.845-2.734-24.766-8.27-40.127-22.032Zm-3.046 1.968c6.408 5.982 12.977 10.539 19.625 14.361l2.334 1.405-1.203 1.232 3.913 5.64-5.034 4.105-1.198-1.194 2.628-2.575-3.739-3.677-7.618 7.71 5.222 4.63-3.027 4.654-1.097-.496 1.607-3.244-4.851-2.647-5.424 9.967 6.906 3.143-1.559 6.117-1.612-.082.544-4.793-5.193-.919-1.747 11.199 6.68 1.049-.159 6.449-1.781-.029.125-3.643-5.274-.245-.472 9.399 6.492.842-.645 7.628-1.598-.409.178-4.952-4.947-.486-1.704 10.53 6.675 1.906-2.358 6.564-1.449-.794.948-3.388c-1.217-.531-4.639-1.954-4.639-1.954l-4.36 8.176 5.655 3.85-3.479 6.112-1.343-.9 2.401-3.566-4.697-2.95-2.676 3.653c-1.136-.987-3.177-2.355-3.956-3.272-.832-.758-1.465-.873-2.536-.621-.845.199-1.659.352-1.473.053.092-.147 1.697-1.227 4.148-2.782.686-.435 1.226-.814 1.218-1.203-.006-.29.371-.75.866-1.049.548-.331.425-.639.337-.982-.474-1.839-.175-4.706.751-6.636.62-1.292.814-1.524.409-1.526-1.193.153-2.648 4.475-2.926 5.693-.094-.097-.223-1.236-.308-1.675-.153-.792-.264-1.283-.9-1.434-.76-.181-.519-.545-.597-1.117-.126-.927-.564-1.515-1.357-1.843-.764-.316-.847-.443-.813-1.203-.003-.597-.625-1.608-1.088-1.93l-2.647.934c-.208.699.069 1.605.505 1.935 1.33 1.252-.616 1.269-1.949 2.084-.36.233-.791.74-1.083.573l-1.612 1.935.202-60.652c7.092-7.343 27.758-22.657 27.758-22.657zm107.194 10.727 1.02 1.131c-3.164 3.561-5.459 7.227-7.989 11.704-2.158 3.82-4.023 9.168-5 15.001-.754 3.57-.871 7.204-1.338 10.857-.476 3.931-.566 9.223-1.319 13.374-1.389 11.383-4.586 17.441-11.536 23.899-3.054 2.838-12.557 8.199-12.816 8.148l-2.252-.558c19.484-9.974 24.355-16.853 26.464-40.463.412-29.622 13.886-41.096 14.765-43.091zm1.915 1.983 1.044 1.006-5.688 8.032 5.607 3.951-2.223 5.193-1.699-.63 1.208-3.542-4.716-1.988-3.812 10.318 6.718 2.118-1.107 6.723-1.357-.366.005-4.582-4.986-1.015-1.449 11.526 7.344 1.02-.539 5.948-1.737-.12-.067-3.542-5.096-.27-1.165 9.991 7.233 1.227-1.309 7.098-1.54-.366.346-4.683-4.851-.64-2.806 9.586 6.093 3.07-2.998 6.146-1.285-.895 1.66-3.633-4.74-2.339-4.577 7.931 4.966 4.885-4.851 5.082-1.083-1.386 2.502-2.695-3.739-3.701-7.777 6.184 3.97 5.231-.467.659-4.1-1.646-1.964-2.594-2.349 1.03-1.853-.707c11.486-6.023 18.96-13.006 22.046-23.538 1.695-5.823 2.198-12.177 2.748-18.581.285-3.326.582-6.666 1.064-9.952.566-5.367 1.388-9.872 3.566-15.049 2.642-6.279 5.852-10.704 9.808-15.496zm-61.812 3.97 7.888 4.158-.115 2.762-7.291-3.653zm2.219.077 5.621.77.024 2.267zm-25.338.072 3.282 1.477 2.782 3.21 2.084-1.367 2.262.847c-7.147 3.673-13.488 8.068-18.427 15.65-5.503 8.449-6.115 19.512-6.819 30.189-1.174 14.728-3.7 25.074-13.489 37.013l-1.444-.91 5.284-8.393-5.958-3.85 2.714-4.962 1.372.472-1.064 2.96 4.928 2.599 3.778-10.578-6.949-2.166 1.165-6.617 1.747.154-.462 4.74 4.966.784 1.424-11.184-6.694-1.025.149-5.91 1.641.159-.01 3.595 5.279.284.409-10.203-6.564-.727.808-7.204 1.838.188-.423 4.322 5.053.722 2.397-9.327-6.564-2.965 3.542-6.3 1.593.732-1.627 3.489 4.553 2.219 4.774-7.296-5.072-4.87 4.981-5.212 1.222 1.198-2.705 3.109 3.749 3.465 7.421-6.227-3.624-5.448zm47.206.346-.231 2.613-7.907 4.49-.005-2.56zm42.437.091 1.747 1.083-1.266 1.502-1.526-.963zm-45.762.371-4.736 2.733v-2.719zm55.844 2.551c.247.006.474.059.65.173.476.311.408 1.077-.13 1.453-.701.49-2.62.457-2.81-.048-.274-.729 1.219-1.603 2.291-1.579zm-75.58 1.078 6.795 3.667-.024 2.584-6.54-3.595zm22.137.082-.399 3.369-6.997 3.71-.058-2.921zm-33.87.063 2.786.707c-10.315 4.602-20.51 11.277-24.476 22.922-1.238 3.485-2.073 7.364-2.617 12.33-.256 5.237-.931 10.392-1.179 14.759-.504 8.893-3.432 20.937-13.544 33.732l-.967-.76c6.204-7.644 9.428-14.575 11.42-21.897 3.156-11.651 1.592-24.51 4.957-36.238 2.053-7.135 6.315-13.515 12.7-19.033 4.443-3.452 10.92-6.521 10.92-6.521zm4.683.977.048.01c2.504 8.431 5.597 23.798 5.597 23.798-6.624-3.204-17.652-2.618-17.652-2.618s-6.204-8.004-7.406-8.662c4.962-6.693 18.467-12.48 19.414-12.527zm85.297 1.328c1.526-.049 1.416 2.269-.515 3.845-.986.805-1.443.692-2.17.048-.214-.287-.835-.492-1.29-.438-1.082-.004 1.056-2.242 2.96-3.167.393-.191.733-.28 1.015-.289zm-77.448 1.887 6.059 3.109.058 2.56-5.607-3.042zm20.54.346-.327 2.815-6.309 3.282.034-2.594zm59.04 1.049c.21-.019.372.062.525.231.86.958-.774 3.86-2.628 4.731-.711.334-1.15.279-1.742-.231-.288-.248-.714-.574-.958-.549-1.061.109-.476-1.081.38-1.15.236-.019 1.721-1.13 2.844-2.065.753-.626 1.229-.935 1.579-.967m-6.41 1.131c1.339-.032 1.827 1.082.241 1.569-1.129.346-1.759.1-1.757-.659.237-.78.92-.871 1.516-.91m-72.337 1.506 5.376 2.695.024 2.762-4.938-2.575zm19.236.38-.375 2.613-5.789 2.974.014-2.161zm60.681 1.097c.366.023.474.431.472 1.155-.005 1.199-.799 2.307-1.992 2.849-.874.397-1.49.366-1.925-.101-.198-.213-.474-.384-.616-.39-1.87-.074-1.569-.556.221-1.304.63-.263 1.868-1.121 2.454-1.54.66-.471 1.101-.687 1.386-.669m-6.863.852c.917.004 1.725.651 1.218 1.068-.394.325-1.874.482-2.166.188-.554-.558-.061-1.26.948-1.256m-72.163 1.858 4.582 2.469-.024 2.628-4.375-2.474zm17.575.202-.106 2.69-5.26 2.594-.034-2.565zm56.595 1.116c.89.064.778.926.058 1.343-.537.373-1.232.177-1.516-.26-.64-1.215.814-1.069 1.458-1.084zm1.785 2.761c.148.297.066.829-.226.997-.39.165-1.403-.007-1.559-.302-.128-.242-.099-.37.149-.616.414-.329 1.345-.574 1.636-.079m-75.291.05 3.913 2.137-.024 2.579-3.595-2.089zm16.271.067-.193 2.483-4.553 2.257.063-2.421zm-47.663 1.564c.976.011 1.729.662 1.155 1.771-.359.693-.629.949-2.19 2.05-.637.449-1.189.861-1.232.914s-.449.334-.717.52c-1.399.968-.913-1.053.833-4.033a2.48 2.48 0 0 1 2.151-1.222m47.316 2.214-.361 2.733-4.071 2.079v-2.632zm-15.309.255 3.292 1.631.048 2.661-2.989-1.569zm39.544.207a.3.3 0 0 1 .265.125c.27.378.313 2.008.048 2.931-.461 1.086-1.357-1.653-1.256-2.349.191-.315.626-.695.943-.707m-69.199.496c1.331-.024 2.294.885 1.843 2.233-.519 1.301-3.524 2.12-4.88 3.017-.887.44-1.101-.037-.828-.804.127-.354.224-.632-.452-.732-1.642-.242-.641-1.04 2.368-3.056.659-.442 1.344-.648 1.949-.659zm66.018.852c.472-.005 1.054.271 1.655.924 1.034 1.122 1.781 3.486 1.218 4.1-.432-.048-.646.589-.669.847-.066.744-1.424-.615-2.709-2.758-1.035-1.726-.533-3.102.505-3.114zm-55.445.399c4.058-.028 11.807.811 22.532 7.522 1.368.857 2.736 1.802 4.283 2.565 4.069 2.194 7.427 3.681 12.671 4.659l-.149 2.714c-.047.856 1.365 5.816.717 8.605-.962-.019.929.823.929.823l1.232 2.522s-6.438-.055-9.365-.63c-4.715-.767-13.32-4.763-17.479-7.907-4.32-3.169-10.845-5.803-16.439-6.824l-.077-2.334s-.555-7.992-1.001-9.086l-1.03-2.527c.253.101 1.332-.088 3.176-.101zm33.856 1.752-.313 2.681-3.571 1.675v-2.296zm17.797.12c.999.002 2.513 1.172 4.24 3.508.389.526.689.983.746 1.299.052.292-.128.459-.414.423-.681-.123-.931-.369-1.121.476-.047.209.074.588-.159.52-1.212-.356-4.679-3.853-4.466-4.971.16-.84.575-1.257 1.174-1.256zm-31.801.178 2.604 1.386.115 2.642-2.315-.996zm-27.98.804c.799-.026 1.296.289 1.55.91.612 1.495-.472 2.395-3.691 3.07-2.797.665-2.739.706-2.349-.332.259-.689-.605-.765-1.088-.948-.816-.309-.148-.404 2.199-1.574 1.475-.735 2.579-1.1 3.378-1.126zm-9.307.707c.079-.007.175.068.313.241 4.067 4.926 3.021 12.106-2.127 15.65-.585.387-.605.028-.539-.741l.101-1.463c.026-.291 5.913-3.904 1.559-11.945l.366-1.136c.116-.362.195-.595.327-.606m66.437 1.53c1.605.006 6.111 4.094 4.192 4.24-.225.017-.148.31-.149.496 0 .186-.011.54-.063.674-.139.357-.664.286-1.473-.193-2.05-1.214-2.515-1.601-3.224-2.272-1.395-1.32-.999-2.952.717-2.945m-15.867.703-.029 2.204-3.21 1.554.019-1.992zm-40.68 1.583c2.16-.075 3.376 2.078 1.218 3.21-.863.452-3.703.135-5.024.019-1.491-.131-.611-.574-.529-.707.205-.337.364-.389-.414-.852-.618-.65-.972-.81.573-1.011.75-.098 2.57-.275 3.2-.481.34-.111.668-.167.977-.178zm65.763.525c.159-.007.142.257.077.943l-.106 1.473c-.984.157-5.872 6.234-1.901 13.302l-.332 1.256c-.153.621-.202.712-.717.327-2.976-2.057-3.942-12.528 2.223-16.858.401-.266.632-.437.756-.443m-11.608 1.227c.575.01 1.278.172 2.084.539 1.878.855 3.126 1.546 3.417 2.002.18.282-.102.517-.481.626-.458.132-.514.324-.39.861-.002.312.079.658-.313.679-.724.039-2.343-.471-3.98-1.352-2.764-1.487-2.389-3.391-.337-3.354zm-14.043.034v2.681l-2.637-1.218zm-44.208 2.305c.279.007.65.057 1.136.135.594.095 1.517.186 1.992.178 3.006-.052 4.25 2.04 1.771 3.104-.678.291-.96.259-2.815-.279-.888-.258-1.976-.528-2.421-.654-.893-.253-1.202-.535-.611-.736.551-.188.598-.568.255-1.073-.083-.506.078-.69.693-.674zm69.844 0c-.426 4.151-.773 7.386-1.4 11.449-.458-.18-3.701-7.836 1.4-11.449m-12.647 1.988c.978.018 2.629.394 4.235 1.025 1.404.517 1.581.655.611 1.068-.586.25-.514.474-.342.857.267.287.773.862-.024.746-.944.071-3.425-.069-4.182-.202-2.265-.398-2.882-2.44-1.025-3.388.15-.076.401-.112.727-.106m-58.198 1.049c.209 0 .593.112 1.29.332 4.068 1.283 5.717 2.838 3.725 4.346-.578.437-1.475.252-3.167-.693-1.73-.966-2.599-1.495-2.921-1.838-.32-.34-.146-.73.346-.698.675.045.574-.294.52-.861-.038-.397-.062-.586.207-.587zm10.973.375 3.119.707-7.787 34.053c-2.658.767-4.191 1.097-6.059 2.103l5.385-.929-.467 2.435-4.889.919-.111.727 5.602-1.011s-.2 2.324-.395 3.224c5.346-.43 10.626-1.917 16.002-1.959 0 0 .13-26.875.111-29.804-.021-3.165.005-6.949.005-6.949l5.39 3.042.89 33.87 16.882 2.743a238 238 0 0 1-.577-3.189c12.516 3.69 25.207 9.146 36.44 20.421-5.227 2.829-10.167 5.634-15.246 8.352l-.736 1.059c12.878-6.016 32.454-18.522 46.59-32.345l.313 89.561-67.659.27s-.004-4.313-.005-8.379l.038-7.488c-.275-4.802.561-10.091-.91-14.12l-.289-4.221c4.17-4.85 6.423-10.965 8.412-17.214 0 0 2.007-.777 2.984-1.121l.337-1.227c-1.94.99-6.391 2.652-6.391 2.652.479-.375-9.465-4.561-15.607-5.544-10.134-1.622-23.767.049-34.636 5.438-.532.375-.759.366-.626-.12 2.524-9.177-2.793-18.39-12.123-21.059-1.979-.566-3.6-.563-3.6-.563l.168.804c15.247 1.718 18.824 17.829 12.954 25.314-1.539 2.469-1.773 3.19 1.457 3.108 13.055-.107 17.593 14.48 11.643 22.552.015-.063.482.939.482.939 3.71-4.897 4.698-14.202-1.877-20.742 4.861-5.42 14.192-14.093 22.263-13.586 2.937.185 5.837 3.74 7.767 6.579 4.088 6.01 5.139 14.401 5.428 19.187.071 1.254.238 2.165.241 2.825.006 1.916-.36 1.686-1.598 1.367-1.554-.401-3.685-.417-5.26.063-2.531.771-2.122.331.13-2.459 1.329-1.646 1.507-2.154.958-2.262-.168-.033-.731.531-1.468 1.665-2.222 3.418-2.049 2.015-.443-3.316 1.044-3.466.938-3.708-1.906-5.862-.941-.713-2.097-1.405-2.199-1.622-.536-1.137-.759.29-.279 1.227.469.916-.525 1.335-2.272.39-4.112-2.277-6.788 2.333-3.119 4.331.865.471 1.348.085.679-.534-2.258-2.087-.687-3.846 2.368-1.997 1.766 1.069 2.437.727 3.027-.611.327-.545 3.069 1.418 3.066 2.18-.002.5-.319 2.1-.63 3.171-.878 3.024-1.116 3.964-1.497 5.924-.689 3.555-.671 5.377.067 6.94 1.655 3.501 5.82 5.153 9.432 3.744.525-.205 1.53-.375 1.53-.375l.043 2.57c-7.124 2.698-12.27 11.118-12.036 11.406l-2.541.005c-3.373-6.696-9.307-11.737-16.849-14.524 0 0-.907-1.51-.096 1.246.05 1.106 1.215 2.665 2.156 3.21 3.583 1.821 8.323 5.05 10.939 10.063l-1.8.029c-2.195-3.345-5.037-5.604-7.734-7.575-.634-.133.462 6.066 3.051 7.979l-46.441.808c3.169-12.399 3.778-26.158-3.648-44.193 6.157.378 11.618-.943 16.622-3.128l-.452-1.285c-5.702 2.722-11.958 3.258-18.22 2.618 4.75 8.795 8.907 27.224 4.861 44.949l-17.046.091-.236-96.625s.666.608.876.818c.535.537.897 1.339 1.049 1.92.195.743.401.788 1.463 1.583.51.382.804.717.804.914-.03.219-.037.897.308 1.314.936 1.132.77 1.858.067 2.589-3.268 3.4-5.315 10.544-3.662 18.081 3.876-2.609 7.867-9.431 7.994-9.442l.375 9.317c-.344-.077-2.71 1.325-2.738 3.157-1.071.319-2.379-.214-3.465-.534l.783 2.744c-3.978 1.587-4.192 7.028.418 8.581 0 0-.421 2.128-.782 3.271l2.993-.456c1.739 5.193 8.414 3.53 8.382-.093 0 0 2.031.763 2.802 1.102l-.751-3.54c7.591-3.787 1.913-8.746.179-8.675.024-.989.477-1.301.894-2.454l-3.066.193c-.562-1.828-2.623-3.324-2.7-3.123l-.423-13.335c2.318 2.021 4.598 4.094 7.671 5.703 2.836 1.485 3.125 1.153 2.705-1.41-.19-1.156-.173-1.915-.173-1.915 1.064.25 3.748 3.737 3.619 5.457.98 1.279 1.869-2.162-.659-5.092 6.731-7.049 11.861-18.732 12.955-26.695l8.951-3.561.101-1.165c6.098-4.08 9.279-9.756 10.953-16.175zm7.45 2.084 2.06.919-2.339 1.16zm-19.847.563c.397.183.998.578 1.824 1.184 1.751 1.284 2.772 2.167 2.806 2.945.017.385-.266.882-.707 1.117-1.057.561-2.069.102-4.355-2.238-.739-.756-1.233-1.161-1.458-1.497-.262-.392-.069-.761.366-.602 1.856.838.249-1.489 1.526-.91zm63.077.481c.381.002.682.01.871.048.496.1.639.381.332.654-.476.424-.34.854.14 1.083.329.157.196.489-.202.717q-.348.2-1.073.428c-2.81.879-4.881.616-5.424-.693-.623-1.505.569-2.236 4.004-2.233zm-40.921.895-.024 2.016-2.916 1.4.318-2.045zm-24.789.63c.256.015.675.408 1.285 1.155 2.813 3.446 3.193 4.11 2.272 5.024-1.092 1.083-2.624.036-4.274-2.984-.222-.406-.493-.927-.654-1.117-.605-.708-.339-.93.428-.871.42.032.62-.116.63-.549.012-.457.114-.671.313-.659zm67.413 1.742c.512 0 .474.175.245.77-.176.527-.464.698.279 1.03.123.06.397.398.149.544-.587.397-3.209 1.591-4.158 1.906-1.844.612-2.979-.89-1.896-2.382.454-.625 3.572-1.757 5.125-1.858zm-68.886 1.997c1.869 2.788 2.103 4.091.871 4.904-.78.593-2.441-.259-2.82-2.06-.291-1.379-.424-2.82.025-3.965.68-1.734 1.73.832 1.924 1.121m26.247-1.155.014 2.18-3.547 1.781.327-2.401zm7.228.087 3.335 2.161.193 1.858-3.446-1.896zm37.205 2.146c.088.001.135.041.135.144-.002.256-.066 1.168.433 1.251.981.163.758.469-.101 1.208-.93.823-1.78 1.801-2.902 2.401-2.892 1.069-3.8-1.987-1.064-3.576.945-.548 1.801-.927 2.44-1.107.48-.135.866-.325 1.059-.322zm-37.114 1.121 3.864 2.276.135 2.291-3.84-1.954zm-7.455.212.014 1.992-3.773 2.161.313-2.228zm15.617 1.627c1.068.498 14.782 4.308 19.322 3.008 0 0 3.886 5.602 6.762 7.609-4.451 6.532-19.524 12.936-19.524 12.936zm30.867.14c.25-.009.31.24.308.707-.061 1.355-2.288 6.344-4.062 3.787-.488-.952.008-1.938 1.564-3.114 1.234-.932 1.869-1.37 2.19-1.381zm-74.665.787c.339.369.185 1.505-.544 1.429-.211-.022-.239-1.175-.101-1.8.21-.103.527.249.645.371m28.229.633-.024 2.531-4.476 2.435.481-2.815zm7.402.356 4.432 2.363.52 2.796-4.914-2.546zm-7.411 3.441v2.551l-5.029 2.579.342-2.517zm7.498.221 4.957 2.82.65 2.656-5.534-2.859zm-70.263.082c.813-.011 1.105.854.491 1.405-.405.377-1.554.301-1.655 0-.519-.501.193-1.392 1.165-1.405zm1.516 2.7c.12-.008.234-.001.332.024.586.149.95.995.592 1.477-.662.89-2.406.273-2.151-.852.067-.298.707-.614 1.227-.65zm61.162.852v2.281l-5.472 2.887.346-2.551zm7.739.318 5.645 3.032.433 2.555-6.069-3.157zm-71.581.067c.272-.015.489.061.606.265.105.182.229.648.621.876.731.424.807.513-.582 1.121-.585.256-1.735 1.039-2.137 1.309-1.229.827-1.729.55-1.819-.428-.114-1.233 2.13-3.077 3.311-3.143m4.235 1.867c.285-.016.562.037.76.168.47.31.494.933.043 1.246-1.034.661-2.651-.245-1.79-1.035.242-.222.621-.359.987-.38zm59.598 1.237.029 2.96-6.102 3.22.404-3.003zm-62.615.346c.4-.023.783.071 1.117.318.362.461.797.597 1.049.606 1.047.04.713.423-.385.924-1.514.691-2.577 1.568-3.667 2.579-1.134 1.052-1.216 1.278-1.588.847-1.385-1.604 1.315-5.152 3.475-5.274zm70.455.034 6.396 3.499.549 2.955-6.944-3.864zm-66.254 2.084c.259-.006.502.056.693.212.454.371.192 1.087-.438 1.41-.536.274-1.418.158-1.67-.096-.604-.609.491-1.504 1.415-1.526m-3.09 1.487c.389-.038.743.459 1.059.996.11.134.548.074.861.077 1.197.01 1.364.516.202 1.16-.34.188-1.454 1.041-2.199 1.675-2.008 1.918-3.096 1.468-2.839-.496.246-1.878 1.876-3.312 2.916-3.412m69.343.183 7.055 3.869.688 3.181-7.743-4.172zm-7.787.058-.029 2.931-6.641 3.513.515-2.974zm7.893 3.73 7.902 4.784.289 3.114-8.191-4.716zm-7.897.52.014 2.873-7.344 3.725.371-2.714zm-59.617 1.901a1.2 1.2 0 0 1 .51.091c.86.396.635 1.081-.659 1.785-1.32.719-1.772.595-2.055-.212-.238-.679 1.191-1.641 2.204-1.665zm82.51.39c13.74 3.145 27.192 9.946 40.252 21.82l-2.729 1.93s-11.445-13.052-36.878-20.703zm-14.914 1.367 3.812 2.247.01.573-3.821-.313zm-64.935.024c.289.015.543.184 1.906.833 5.47 3.949 7.66 6.33 9.019 10.66.814 2.594.798 2.488-1.877 1.078-2.516-1.336-5.965-3.553-8.191-6.42-.369 6.745.419 15.13.419 15.13 3.417 1.684 2.311 6.067 2.301 6.041 8.793-2.4 6.866 9.204.314 6.701 1.562 8.705-8.406 7.997-7.385.535-7.934-.307-6.531-8.954.055-7.759-.685-2.668.259-4.475 2.688-5.62l-.371-11.396s-6.466 9.28-7.546 9.134c-.634-.086-1.589-1.151.019-9.288.837-4.237 5.329-9.396 7.844-9.562zm6.324.087 1.16.794-1.092 1.949-1.208-.876zm50.594.558-.038 1.708-3.561.212zm-39.049 19.288c-.534.014.902.35 1.809 1.165 8.38 1.298 13.507 11.549 9.63 18.971-.469.334.255 1.95.727 1.343 4.088-5.794 1.045-20.035-10.881-21.392-.708-.06-1.107-.091-1.285-.087m3.167 3.893c-.674 1.847-.851 2.289.876 1.535 3.051 1.129 6.342 6.095 5.289 11.083-.339.582.253-.38.654 1.261 1.506-3.652.004-11.526-6.819-13.879m38.736 9.293c8.578-.025 17.068 1.85 23.822 5.732-2.295 1.276-9.62 3.056-9.62 3.056-4.117-4.619-6.215-9.238-13.658-6.877-7.795 2.012-14.815 8.759-18.766 13.236-3.961-2.358-6.107-2.934-9.618-3.129-.203-.006-.505.888-.255-.553 1.005-1.548 1.697-3.302 2.368-5.072 7.362-4.186 16.596-6.364 25.728-6.391zm26.666 5.929c-1.708 5.527-3.914 10.971-7.657 15.766l-.462-2.397c3.519-5.403 5.187-10.316 5.939-12.469zm-3.321 1.434c.22.351-3.411 9.004-5.202 10.578l-.703-2.233c1.461-2.208 3.624-7.529 3.561-7.58zm-22.147.01c-.113.01-.153.11-.154.327-.003.794.825 1.419 2.334 1.761 2.038.462 4.895-.243 4.899-1.208.002-.557-.396-.598-1.564-.058-1.464.678-2.757.545-4.668-.467-.438-.232-.702-.369-.847-.356zm18.158 1.381c-.567 2.096-1.409 3.64-2.483 5.241l-.346-1.102c.743-1.201 1.234-2.574 1.862-3.908zm-2.132.679c-.275.729-.578 1.573-1.208 2.223l-.818-1.732zm-12.906 1.606c-1.381.027-2.749.471-2.868 1.205-.057.352.473.216 3.043-.097 1.356-.165 2.003.638 3.245.554.633-.075.041-.66-.156-.829-.691-.588-2.046-.856-3.265-.833zm-5.897 1.599c-.139.028.016.381.534 1.28.28.487.35 1.479.404 2.093-.067 1.53-.062 1.482.693.597.475-.472 1.399-.367 2.863.029.944.255 1.17.347 1.825-.064.759-.476.938-.236 1.592-.105.631.127 1.204-.126 1.896-.318.845-.233 1.007-.179 1.742 0 1.124.532.96.485 1.054-1.42.094-1.875-.007-2.008-1.092-1.376-1.051.612-1.775.889-3.388.327-1.758-.612-2.006-.457-3.253-.082-1.507.454-2.192.608-3.393-.125-.79-.483-1.32-.869-1.477-.837zm-24.558 2.83.674 1.097c6.076 2.174 10.192 7.14 7.763 15.511l.578.924c3.041-8.435-.43-15.408-9.014-17.532zm1.882 3.571.828 1.699c4.572 2.208 4.299 8.291 4.042 8.051l.717 1.583c1.144-3.936-.94-9.747-5.587-11.333m19.096 9.072q-.272.002-.346.188c-.118.303.236.485 2.324 1.93 1.794 1.241 3.181 2.162 3.075 2.339-.071.118-1.186-.153-1.983-.39-2.087-.621-5.165.127-6.891 1.343-.438.294-1.167-.027-1.8-.193-.253-.072-.812-.14-1.088-.067-1.305.342-.042 1.588 3.152 3.205 3.92 1.984 6.041 2.166 8.422.963 1.581-.818 2.148-.211.419.722-3.02 1.629-5.912 1.125-10.684-2.156-2.21-1.52-3.093-1.266-1.194.183 3.334 2.607 9.752 5.786 13.692 1.901.154-.056.511-.03.683-.029.819.003.854-.255 0-1.607-.515-.815-1.556-1.673-.289-2.671.961-.757.891-1.116-.27-1.463-.306-.085-.276.117-.736-.255-2.788-2.248-5.516-3.946-6.487-3.941zm1.208 4.442c1.171.032 2.35.934 2.719 2.555l.082.448-.997.037c-.827-3.304-3.318-2.209-3.566-.274l-.899-.12c.331-1.842 1.49-2.679 2.661-2.647zm20.66 2.82-.664.098c-.435-1.217-2.402-2.851-3.34.114l-.837-.034c.583-4.017 4.23-3.393 4.841-.178m-5.092-1.669c.272.385-.205 1.035-.482 1.333-.265.284-.854.044-1.1-.236-.216-.277-.056-.828.303-1.011.373-.19 1.006-.362 1.28-.086zm-11.675.12c.279.623-.501 1.089-.599.878-.167-.058-.374-1.086-.278-1.154.258-.008.771.076.877.276m17.551-.101c.421.034.879.233.963.707.004.314-.359.656-.775.674-.183.008-.883-.506-.752-1.24.148-.26.32-.162.564-.142zm-24.399.197c.148.226-.129.9-.193.991-.033.047-.929.009-.91-.058.019-.066-.083-.574.135-.943.248-.158.788-.242.967.01zm16.276 2.175c.116.003.264.05.438.159 2.506 1.631 5.729 2.358 8.051 1.194.519-.26.858-.246.857.005-.002.275-.575.838-1.646 1.16-2.392.718-6.34-.23-7.705-1.694-.401-.431-.343-.832.005-.823zm-21.979 1.708c-.239-.007-.317.135-.27.423.159.972 6.861 4.818 9.663 5.337 2.301.426 4.089.235 5.496-.582 3.418-1.985 2.541-4.67-.804-2.647-2.247 1.359-7.942.733-11.329-1.222-1.506-.87-2.359-1.298-2.758-1.309zm30.197 1.406c.847-.355 1.211-.479 1.397-.324.861.721-.55 1.844-3.124 2.283-2.059.338-3.297.405-5.647-1.334-1.82-1.346-.962-1.998.083-1.387 2.78 1.625 4.845 1.676 7.293.762zm-29.6 4.205c5.929 2.123 12.675 7.245 15.669 13.465l-1.829-.014c-2.036-3.551-6.064-8.062-12.705-11.232-.588-.484-.894-1.347-1.136-2.219zm31.142 2.912v1.944c-3.664 1.847-6.736 4.689-9.052 8.61l-2.074-.029c2.376-4.206 5.936-8.145 11.127-10.525zm0 2.965v2.387c-2.317 1.358-4.251 3.149-5.607 5.202h-2.454c1.967-3.325 4.666-5.976 8.061-7.589m-27.147 1.834c1.765 1.015 4.689 3.721 5.751 5.804l-.943.043c-.961-1.224-2.498-2.631-3.749-3.739-.8-.94-1.059-2.108-1.059-2.108m27.147 1.53v1.954c0 .05-1.76 1.199-2.507 2.272h-1.992c1.368-2.475 4.214-4.23 4.5-4.225zm.005 3.152-.005 1.073-1.251.005c.083-.121.78-.887 1.256-1.078m-24.419.27c.375.197.663.901.663.901l-.336.036z" style="fill:#131f67" transform="matrix(.71983 0 0 .77404 3.096 1.833)"/><path d="M46.849 242.395c4.124.123 12.832-1.395 12.692-1.238 0 0 26.886 44.937 25.789 44.49-.353.556-34.595.446-34.595.446-.742.007 7.308-16.606-3.887-43.698zm12.327-31.576c13.186-10.868 26.97-10.913 41.775-12.374l.436-37.052 5.349 3.22.024 33.95c19.534 1.515 36.371 8.714 50.819 21.276.181.272-20.981 11.516-30.244 14.482-7.172-5.293-26.12-8.667-38.702-4.645-3.456 1.105-7.7 2.876-11.828 4.182 3.034-17.879-10.926-20.556-15.837-21.395-.616-.105-1.347-1.431-1.792-1.644m-16.905 5.739c.241-3.81.001-7.626-.273-11.524-.073-.89-7.725 11.574-8.143 8.545-1.047-7.583 2.744-17.212 8.66-18.378.592-.796 12.289 6.486 11.737 12.751-.18 2.041-10.434-6.922-10.477-6.389-.244 1.044.264 15.03.582 15.003 2.955 1.673 2.305 3.81 2.624 5.583 7.933-1.149 7.477 7.646-.007 7.352.435 10.393-9.204 5.672-7.288.142-9.718-.483-4.908-9.549-.074-7.541-.286-2.292.287-4.68 2.659-5.544m11.266-44.06c-.559-.223-20.731-1.309-20.731-1.309l1.184-49.121c10.362-23.619 49.095-12.46 42.915-7.444-18.555 12.084-21.432 34.203-23.368 57.874m37.262-20.082-.601-5.456c-1.574-3.394 41.204 16.495 41.686 16.919l1.231 5.824c.241 2.558-27.215-10.432-42.315-17.287Zm77.935-9.43c-.688 22.042-4.127 36.96-16.983 54.94-.357.591-3.982 2.081-4.265 2.589 1.824 2.899 12.263 7.172 17.084 9.467l25.152-14.887c.291.022-.722-52.386-.722-52.386Zm9.567-23.913c-3.372-.523-11.202-8.684-9.568-11.14.055-1.848 9.754 5.249 10.759 7.157-.497-.568-.523-17.274-.682-16.61-.371.195-2.964-1.672-2.278-5.152-7.454 1.627-7.02-8.049-.51-7.637-.818-8.807 9.93-5.545 7.053.344 9.21-1.671 7.594 8.657.641 6.957.58 3.92-1.039 4.999-3.302 5.775.14 1.643.728 12.6.728 12.6s6.834-10.409 7.32-9.509c1.354 3.166-1.172 19.882-10.162 17.215zM146.86 80.539c-3.099 10.575 5.285 22.688 13.235 22.676 1.599-.248 4.66.624 3.601 1.477-12.569 10.126-41.844 12.158-41.85 11.718.274 12.471-.318 25.066-.649 37.532l-5.355-3.243c-.142-11.373-.393-23.006-.623-34.378-18.747-2.495-35.586-8.586-48.871-21.484 8.86-6.529 19.437-10.594 29.597-14.703 12.761 6.669 30.542 10.549 50.915.405m-9.124-50.308c-.587-.261 2.027-2.191 2.027-2.191s21.788.343 32.596.225c-3.98 16.148-1.232 30.633 3.817 44.549-1.348-.319-10.299.384-12.487 1.355-.352.351-25.678-43.543-25.953-43.938" style="fill:#e2cf00" transform="matrix(.71983 0 0 .77404 3.096 1.833)"/><path d="m86.039 285.585-26.227-44.536 3.957-1.707 27.038 46.319zm-46.72-59.574 3.816-3.905 3.806 3.875-4 3.695zm84.585-24.717-.527-3.18c15.169 3.755 27.571 11.587 36.482 20.105l-2.131 1.551c.664-.179-21.518-16.902-33.824-18.476m-44.073-3.247 4.813-.685-.144 2.672-4.576 1.027zm88.847-1.88-2.617-2.119 1.893-2.232 2.543 2.014zM79.59 174.388c6.524-3.066 11.642-15.493 11.006-16.325l3.548.851-8.291 34.063-6.178 1.1c-.011-6.521-.105-13.17-.086-19.689zm42.829 19.397c-2.19-7.181-6.497-23.422-6.497-23.422.158.53 14.121 4.539 19.109 3.105 2.121 2.918 4.454 5.484 6.916 7.836-5.188 5.046-11.623 9.256-19.528 12.48zm58.641-25.967-2.456-2.139 2.215-2.697 2.698 2.066zm-32.155-1.51c-1.996-3.608-2.125-7.681 1.606-11.688zm-76.445-7.183c-.158-.372.867-8.907 1.103-9.285.416-.664 1.22 1.734 1.599 3.565.474 2.295-2.123 7.084-2.702 5.72m56.241-2.505s5.477-25.056 7.847-34.874l6.607-1.648-.945 20.582c-5.438 4.836-9.98 16.381-9.98 16.381zm-86.959-4.396-2.606-2.446 2.217-2.412 2.299 2.363zm46.829-9.651-7.156-8.414c4.463-6.171 11.853-9.732 19.681-12.52l5.234 23.572c-5.981-1.819-12.43-3.79-17.759-2.638M51.943 121.48l1.847-2.284 2.405 1.904-1.839 2.527zm86.429-6.852 4.621-.648-.357 3.169-4.892.765zM63.185 96.619l2.848-1.761c9.96 8.987 20.97 15.197 32.986 18.745l.798 3.873c-13.548-4.215-26.343-10.582-36.632-20.856Zm116.664-3.27-3.688-3.655 3.339-3.692 3.945 3.426c-1.31 1.965-3.595 3.921-3.595 3.921zM159.41 75.557l-27.552-47.276 3.998-.023 27.115 45.54z" style="fill:#d40000" transform="matrix(.71983 0 0 .77404 3.096 1.833)"/><path d="m97.82 22.102-4.76.019 27.018 58.423s-.732.133-2.165-.271c-6.49-1.831-10.488-9.201-9.021-16.432a6.6 6.6 0 0 0 .187-1.042c-16.727 8.14-27.083 5.142-36.74-.041l-4.12 1.699c.274-2.675 3.351-12.72 7.955-17.449l-.008-5.066-.11-2.392-.364-4.34c-6.848 6.933-14.839 17.846-15.838 33.344 0 0-6.236 3.443-11.557 7.252.295-.042 8.29 10.513 27.495 16.44l-.845-3.368c2.856.861 6.916 1.543 10.954 2.093l.54 26.452 4.587 2.92.156-29.286c.141.121 7.315-.271 11.18-1.262l-.545 2.824 3.817-.809v2.06l-4.185 1.062-5.958 27.376 3.471.83c1.016-5.514 3.581-9.974 7.3-12.71l-.039-1.05c2.384-1.84 7.34-3.301 7.372-3.267 1.69-8.878 5.625-15.03 9.807-20.883l-1.992-2.91 7.639-3.013-10.604-19.397c4.08-3.027 12.17-1.899 12.17-1.899-3.468-10.065-6.516-20.447-3.09-35.682l-29.495.026zm9.676.63c-.007 2.546-3.099 2.284-3.476-.011zm18.95-.079c-1.878 11.666-1.256 23.03 3.096 33.827 0 0-.634.04-.714.023-.06-.013.075-.582.042-.734-.086-.406-.712-.216-1.236.164a7 7 0 0 1-.658.444c-.54.289-3.273.267-3.273.267.892-.65 2.146-2.477 1.418-3.543-.165-.228-.265-.127-.425.18-.777 1.483-1.162 1.715-2.2 1.701-1.627-.021-2.792-1.106-2.66-2.741.127-1.59 2.302-2.428 1.981-.886-.088 1.373 1.18 1.64 1.414.271l.121-.875c2.534-1.446 1.135-4.39-1.23-3.774-.556.158-.626.214-1.018-.004-.73-.404-1.335-.277-1.611.29-.243.5.127.9.669.903.561.002.67.293.668.655-.003.842-1.355 1.248-2.251.756-2.366-1.298-1.49-4.671 1.257-4.66.835.004 1.184.06 1.22-.133.1-.545-1.175-1.487-1.895-1.349-.61.129-.981.3-.658-.573.198-.9.192-1.308.025-1.986-.44-.966-.429-.471-.7.313-.905 1.613-2.268 1.97-3.444 1.088-1.09-.82-1.057-2.374-.02-3.484.72-.77 1.492-.246 1.06.615-.18.356-.038.798.284.886.65.178 1.053-.233 1.057-1.08-.014-.467-.134-.57.648-1.05 2.023-1.243.51-4.638-1.774-3.547-.501.239-.618.473-.845.361-.955-.97-2.324.256-1.514.905.35.184.778.253.89.265.198.12.132.422-.156.8-.945 1.2-3.092.608-3.599-1.083-.586-1.958 1.275-4.017 2.702-2.875.422.337.789.373.79-.127.002-.778-.91-1.671-2.072-1.583-1.18.089-1.051.253-.408-.894.474-1.022.41-2.019-.004-2.619-.319-.463-.646-.56-.613-.07.258 1.518-1.391 2.961-2.747 2.324-1.304-.626-1.95-2.196-1.31-3.557.59-1.256 2.023-1.386 1.784-.045-.112.855.493 1.306 1.078.801.212-.183.262-.346.277-.898.016-.614-.216-.795.152-1.155.967-.137 1.027-2.345.88-2.436l15.523-.078zm-17.304.075c.613 0 1.122.223 1.122.883s-.495 1.192-1.109 1.192c-.613 0-1.112-.533-1.112-1.192 0-.66.486-.883 1.099-.883m-10.878.085h2.467l19.488 34.923-2.308 1.206zm4.052 1.221c1.182.726 2.271 1.322 3.752 1.478-.433.946-.83 1.98-.9 3.748zm3.97 7.033c1.202.463 2.245 1.165 4.226.456-1.056 1.005-1.654 2.207-2.102 3.474zm10.138 4.219c.568 0 1.028.495 1.028 1.106 0 .61-.46 1.102-1.028 1.102s-1.029-.492-1.029-1.102.46-1.106 1.029-1.106m-6.313 2.757c.869.343 1.78.572 2.79.522-.5.74-.67 1.864-.703 3.15zm2.983 5.504c.804.422 1.756 1.036 3.445.839-1.119 2.04-.88 2.604-.994 3.496zm9.766 4.053c.594 0 1.077.52 1.077 1.16s-.482 1.158-1.077 1.158c-.596 0-1.078-.519-1.078-1.159s.482-1.159 1.078-1.159m-6.053 2.602c.736.447 2.19.703 2.207.582-.093-.075-.419 1.509-.476 2.503zm3.391 5.948c1.047.665 2.206.601 2.887.68-.729.156-1.415.352-2.196.682zm12.35 6.531c-2.523.175-3.108 2.255-2.81 4.363-1.923-.331-4.075 1.63-3.474 4.027.571 2.273 2.537 2.353 3.894 2.201-.104.553-.39 2.41 1.697 3.981l.277 11.803s-.92-.91-1.52-1.552c-2.621-2.809-6.566-4.843-6.318-3.26.036.233.12.823.183 1.311.417 2.672 3.755 5.561 6.032 7.015a7 7 0 0 1 1.316 1.01c-4.257 4.893-6.545 10.115-7.115 15.298-.53 4.815-.958 9.153-1.379 13.574-1.737 22.18-10.589 27.758-11.009 28.843l-.166 2.958-2.47-.198-2.848 2.65c9.328 5.181 14.768 11.436 14.692 11.554 7.447-5.244 13.876-11.069 19.944-17.098l-.118-49.383s-.504.199-.635.198c-.46-.002-.519.221-.678 1.166-.086.505-.366.971-.586 1.303-.416.63-.268.312.257.54 1.195.52-.357 2.875-2.055 3.163-1.223.207-1.905.449-2.113.752-2.573 2.422-5.138 2.805-7.077 1.915-.954-.438-1.992-1.078-2.342-2.145-.796-2.425.863-5.917 1.836-7.935 1.785-3.7 4.75-6.478 4.75-6.478l-.486-.566s.583.009.694-.034c2.558-1 2.716-1.014 3.187-1.743s1.657-2.809 1.902-3.494c1.315-3.677 1.491-3.917 1.49-6.328-.003-1.955-.124-3.26-.475-3.364-2.016 1.661-4.051 5.543-5.241 7.83-.412-3.389-.534-9.305-.534-9.305.427-.507 2.847-.224 2.311-4.467 2.13 1.033 4.376-.547 4.282-2.754-.147-3.435-2.608-3.334-4.612-2.9.955-2.075-.86-4.577-2.682-4.451zm-.04.289c2.633.087 3.155 3.216 1.541 4.987 0 0-1.045-.865-1.6-1.358-.526.445-.678.83-1.257 1.288-.686-.545-1.1-1.51-1.106-2.437.032-1.45 1.394-2.514 2.421-2.48zm-60.146.097c10.654 6.402 24.011 6.859 36.24.335l-.15 1.083-1.34.812.759 1.494.419-.216.01.987c-10.08 5.855-26.964 7.066-40.181-2.656l1.15-.573s.26.195.509.361c.481.32 1.277.836 1.8 1.088l.801-1.24s-1.221-.801-1.101-.854zm.939 1.962-.61 1.49 1.528.876.581-1.5zm-5.796.168c16.405 11.073 31.676 7.777 40.846 3.25l.118 1.18c-11.836 5.415-27.4 6.868-42.214-3.84zm38.616.712-1.459.625.58 1.438 1.5-.689zm-40.576.268c13.33 9.243 27.629 11.052 43.039 4.28l.589 1.77c-15.008 6.48-30.846 5.734-45.315-5.283zm10.243.051-.596 1.55 1.653.674.482-1.52zm28.036.641-1.444.503.45 1.483 1.497-.547zm-25.51.425-.357 1.558 1.688.51.294-1.565zm61.054 2.564c.228 2.648-3.424 3.926-4.79 1.454l1.204-1.572-1.077-1.08c1.461-2.484 4.45-1.288 4.664 1.198zM63.491 67.38l3.977 2.94-2.89 4.827-4.281-3.092zm68.927.134 2.525 2.355-2.318 2.916-2.37-2.57zm-1.57.799-1.42 1.775 1.536 1.757c-1.822 2.083-4.542.797-4.515-1.753.02-1.945 2.79-3.84 4.398-1.78zm-29.442-.683-1.518.488.347 1.43 1.569-.44zm-20.466.45-.281 1.54 1.743.402.294-1.531zm17.962.262-1.615.376.277 1.53 1.618-.365zm33.685.361-1.33 1.404 1.33 1.482 1.34-1.482zm-48.852.045-.204 1.55 1.825.264.142-1.568zm12.295.212-1.642.201.166 1.52 1.705-.23zm-9.692.179-.021 1.59 1.6.138.004-1.576zm7.06.15-1.608.063.01 1.538 1.642-.111-.045-1.49zm-29.328.014c-.946 0-1.712.824-1.711 1.84s.766 1.84 1.71 1.84c.947 0 1.712-.824 1.712-1.84s-.766-1.84-1.711-1.84m26.632.052-1.58.015.007 1.557 1.628.008zm41.885.008.694.745-.694.734-.71-.734zm-68.52.588c.62 0 1.121.54 1.121 1.207s-.501 1.21-1.122 1.21c-.62 0-1.126-.543-1.126-1.21 0-.668.506-1.207 1.126-1.207m-6.088.089 2.276 1.993c-.724 1.49-3.017 4.638-3.017 4.638l-4.205-3.625 2.2-1.337a1.9 1.9 0 0 0-.188.826c0 1 .755 1.807 1.684 1.807.93 0 1.684-.807 1.684-1.807 0-.958-.697-1.74-1.573-1.802zm-1.271 1.28c.623 0 1.13.545 1.13 1.215s-.507 1.21-1.13 1.21-1.13-.54-1.13-1.21.507-1.214 1.13-1.214m77.356.574s.62.254.771.504c1.221 2.014-.05 4.41-2.096 4.363-2.39-.055-3.02-3.277-1.376-4.591l1.336 1.357zm-62.138.82 4.711 1.945-1.787 5.505-5.151-2.272zm-19.365.574c19.22 18.621 46.527 19.96 66.373 7.598l1.21-.026.64.708c-22.61 14.377-50.717 11.249-69.692-7.257zm52.926 1.11 1.517 5.442-5.21 1.475-1.164-5.512zm-54.898.197c5.834 6.044 14.082 11.341 23.768 14.345l.24 2.232c-10.283-3.32-18.05-7.754-25.615-15.452Zm22.584.086c-.93 0-1.684.811-1.684 1.81 0 1 .754 1.807 1.684 1.807s1.683-.807 1.683-1.807-.754-1.81-1.683-1.81m-8.38.406 4.86 2.764-2.421 5.212-5.162-2.976zm8.36.19c.623 0 1.129.544 1.129 1.214s-.506 1.211-1.13 1.211-1.129-.54-1.129-1.21.506-1.215 1.13-1.215m8.046.741 4.67.73-.215 5.566-5.449-.705c.21-1.959.994-5.591.994-5.591m22.556.138c-.93 0-1.684.811-1.684 1.81 0 1 .754 1.807 1.684 1.807s1.683-.807 1.683-1.806c0-1-.754-1.81-1.683-1.81m-.021.596c.623 0 1.13.544 1.13 1.215 0 .67-.507 1.21-1.13 1.21-.624 0-1.13-.54-1.13-1.21s.506-1.215 1.13-1.215m-37.968.078c-.929 0-1.683.812-1.683 1.81 0 1 .754 1.808 1.683 1.808.93 0 1.683-.808 1.684-1.807 0-1-.754-1.81-1.684-1.81m29.855.008.668 5.592-5.099.272-.302-5.577zm36.547.5h.724c.067 4.812.421 10.382.939 14.501.077.614.113.795.055.905-.501.954-1.083-.247-1.31-2.984-.062-.754-.142-1.852-.228-2.574-.262-2.182-.18-9.849-.18-9.849m-86.186.085c-7.667 5.144-20.42 17.43-20.345 17.717l.052 47.211.998.052.824-1.736c-1.276-.344-.919-2.921 1.525-3.438.416-.089 1.69-.55 2.002-.805 1.854-1.52 4.867-2.418 6.98-1.819 3.083.848 3.715 3.285 2.231 7.521-1.169 3.34-3.485 7.61-5.66 8.829l-.562.302s.505.494.69.622c5.991-3.723 9.016-17.078 8.854-25.386.241-8.51 1.607-17.052 4.801-23.263 5.28-10.266 12.264-14.393 12.229-14.431 0 0-9.415-6.146-14.62-11.376zm19.763.004c.624 0 1.13.544 1.13 1.215 0 .67-.506 1.21-1.13 1.21s-1.129-.54-1.129-1.21.506-1.215 1.13-1.215m46.576.194 1.82 5.196-5.055 2.224-1.822-5.461zm-29.07.026c-.93 0-1.684.811-1.684 1.81 0 1 .754 1.807 1.683 1.807.93 0 1.684-.807 1.684-1.806 0-1-.754-1.81-1.684-1.81m10.274.45c-.93 0-1.683.812-1.684 1.811 0 1 .755 1.807 1.684 1.807.93 0 1.683-.808 1.684-1.807 0-1-.755-1.81-1.684-1.81m-10.296.146c.624 0 1.13.544 1.13 1.215 0 .67-.506 1.21-1.13 1.21s-1.129-.54-1.129-1.21.506-1.215 1.13-1.215m10.275.45c.624 0 1.13.545 1.13 1.215s-.506 1.21-1.13 1.21-1.13-.54-1.13-1.21.507-1.214 1.13-1.214m17.19.619c-.93 0-1.684.811-1.684 1.81 0 1 .754 1.807 1.684 1.807s1.683-.807 1.683-1.807-.753-1.81-1.683-1.81m-.021.596c.623 0 1.13.544 1.13 1.214s-.507 1.211-1.13 1.211-1.13-.54-1.13-1.21.507-1.215 1.13-1.215m-35.699.093 5.051 1.39-1.174 5.695-5.699-1.628zm63.895-.147c.826 2.782-.69 6.35-.766 6.584-.918 2.799-2.023 5.086-2.425 5.218-.342.14-.493.05-.492-.294.002-.528 1.129-4.112 2.016-6.418.218-.564.72-2.272.721-2.558.002-.432-.387.271-.807 1.347-.813 2.153-1.998 4.458-2.255 6.546-.185 1.706-.486 1.464-.707-.567-.307-2.819.267-4.269 3.215-8.196.705-.94 1.428-1.904 1.5-1.663zM101.763 81.3l1.462 5.576-5.962 1.095-.928-5.654zm-24.963.562c-.93 0-1.684.811-1.684 1.81 0 1 .755 1.807 1.684 1.807.93 0 1.684-.807 1.684-1.806 0-1-.755-1.81-1.684-1.81m8.914.362 5.4.331.049 5.796-5.862-.272zm-8.934.234c.623 0 1.13.544 1.13 1.215 0 .67-.507 1.21-1.13 1.21-.624 0-1.13-.54-1.13-1.21s.506-1.215 1.13-1.215m22.666.514c-.93 0-1.684.811-1.684 1.81 0 1 .754 1.807 1.684 1.807s1.683-.807 1.683-1.806c0-1-.754-1.81-1.683-1.81m-11.197.466c-.929 0-1.683.811-1.683 1.81 0 1 .754 1.807 1.683 1.807.93 0 1.684-.807 1.684-1.806 0-1-.754-1.81-1.684-1.81m11.176.13c.623 0 1.13.544 1.13 1.215 0 .67-.507 1.21-1.13 1.21-.624 0-1.13-.54-1.13-1.21s.506-1.215 1.13-1.215m-11.196.466c.623 0 1.129.544 1.129 1.215 0 .67-.506 1.21-1.13 1.21s-1.129-.54-1.129-1.21.506-1.215 1.13-1.215m36.828.347.284.015c1.206-.015 5.273 3.126 6.315 5.029.864 1.68.417 2.346-.579.845-1.373-1.644-3.91-4.086-4.233-4.086-.346-.002.13.53 1.745 2.224 1.603 1.678 3.293 3.867 3.292 4.258 0 .256-.32.224-.776-.079-1-.662-1.867-1.331-2.311-1.78-.267-.27-.778-.769-1.14-1.11-1.493-1.408-3.196-4.655-2.716-5.278.022-.028.065-.036.119-.037zm-75.353.462c1.04-.032 2.215.679 2.262 1.982.034.92.093.99.866 1.005.739.014 2.873.287 2.873.287l.013 2.578s-1.03-.007-2.217-.068c-2.021-.102-2.012-.106-2.269.85-.103.386-.248.575-.651.86-1.816 1.282-3.566-1.044-2.439-3.24.387-.755.41-1.012.142-1.464-.543-1.312.18-2.725 1.42-2.79m.443 1.319c-.223 0-.468.104-.693.343-.3.319-.301 1.23-.003 1.759.284.506.277.642-.056.976-.586.587-.603 1.754-.03 2.192.52.4 1.074-.129 1.077-.937.003-.886.58-.87.58-.87l3.797.07.012-.665-2.755-.149c-.383-.001-.784-.04-1.08-.256-.313-.233-.67-.638-.33-1.13.478-.69.053-1.338-.52-1.334zm-8.23 1.523 1.8 3.293 2.1.082.183 2.004 2.552 1.767-2.614 1.645-.129 2.016-1.981.268-1.84 2.477-1.763-2.474-1.943.011-.028-2.067-2.674-1.852 2.928-1.77-.031-2.36 2.075-.15 1.365-2.891zm63.63 1.498.086 1.99-2.947.562.384-2.026zM86.654 91.19l3.973.13-.229 27.92-.932-.008-.017-1.088-1.272.045-1.292-.842zm-44.737.708-2.332 3.173 2.824 2.652 2.487-3.103zm45.928.425v1.284h1.666v-1.284zM41.969 93.42l1.642 1.292-1.25 1.777-1.584-1.475zm63.66.73-.051 15.28c-5.46 4.607-7.16 12.717-7.16 12.717l-2.22-.141 5.643-26.918zm-29.594.339c-4.912 2.513-9.863 4.416-14.736 10.411 1.887 1.826 3.88 3.688 5.654 6.799 4.057-.65 8.57.13 13.493 2.213zm11.81.342v1.33h1.666v-1.33zM32.622 96.75c.121.406.16.842.16.842 3.602-.325 2.683 4.17.388 4.324-.27.037.222.798.758 1.04 1.364.616 2.345.22 3.24-1.062.685-.983.727-1.125.727-1.125l2.224 1.266s.064-.034-.328 1.062c-.715 1.996.328 4.444 1.133 2.66.429-.95 1.69-1.492 2.563-1.1 1.02.46 1.374 2.42.658 3.655-.217.373-.223.451-.09.797.2.52.324 1.86.114 2.292-.272.56-.586.688-1.198.23-.84-.625-1.309-.885-2.768-1.322-2.563-.518-3.065-1.488-4.084-3.755-3.037.978-7.58-1.069-6.974-5.915.276-1.07.351-3.122-.156-3.543-.994-.822.096-2.01 1.59-2.201 1.227-.13 1.817 1.118 2.043 1.855m42.95-1.405 3.948 17.784c-4.335-1.707-8.589-3.039-12.353-2.049-1.724-2.958-3.194-4.414-5.106-6.336 3.725-4.83 8.463-7.533 13.51-9.399m-44.682.872c-.256-.003-.544.116-.845.403 0 0 .267.24.412.566.233.521.235.521-.027 1.677-1.204 4.632 1.653 7.697 5.716 6.358.998-.332.96-.295 1.247.965.473 2.074 1.837 3.146 4.548 3.539.167.024.445.083.665.227 1.193.818.704-.27.378-.692-.232-.331-.658-.66-.658-.66s.364-.253.534-.35c.765-.436 1.05-2.144.419-2.51-.576-.335-1.556.17-1.56.804-.004 1.159-1.363 1.282-2.553.32-1.527-1.237-.174-4.353-.165-4.348l-.861-.407c.114.11-1.813 3.054-4.185 2.027-1.656-.717-2.824-2.78-2.056-3.368.56-.161 1.23.17 1.656-.183.847-.715.163-1.968-1.046-1.922-.254.01-.832.13-.832.13.064-.584.203-.994.136-1.557-.072-.564-.434-1.012-.922-1.017zm56.971 1.352v1.096l1.65.01V97.58zm-.017 2.257v1.129h1.667v-1.129zm0 2.433v1.155h1.667v-1.155zm0 2.269v1.222h1.667v-1.222zm0 2.276v1.14h1.667v-1.14zm0 2.32v1.151h1.667v-1.15zm-54.173 1.125 1.403 2.548 1.667.078.065 1.751 2.834 2.328-2.477 1.904-.18 1.888-1.964.068-1.59 2.883-1.958-2.53-1.572-.271-.18-2.302-2.422-1.949 2.276-1.956.184-2.045 1.853.175zm92.206 1.218c.152.003.317.048.495.146.59.319.775.356 2.304.44 1.774.095 2.4.266 3.28.897.53.381.562.379 1.13-.026 2.49-1.775 5.336-.161 5.542 3.144.055.87.136 1.22.454 1.948.217.506.442.904.311 1.226-.4.984-2.318 1.047-3.363-.414-.188-.22-.378-.316-.637-.316-.52.207-1.848-.917-1.833-.965-.123.783-.185 1.404-.315 2.54l-2.325-.037s-.052-.458-.159-2.055c-.124-1.838-.548-2.375-1.095-1.382-.94 1.709-3.437.957-3.582-1.077-.048-.69-.085-.78-.436-1.069-1.176-.972-.833-3.022.23-2.998zm-38.033.1v1.022h1.667v-1.021zm38.3 1.092c-.462.036-.198.917.565 1.382.433.264.434.262.377 1.073-.102 1.468 1.213 2.187 1.799.983.101-.209.144-.474.103-.652-.245-1.067 1.902-.776 2.418.327.119.254.251.928.315 1.61.06.645.077 1.393.077 1.393h.686s-.008-.446.03-.872c.17-1.823.921-2.977 1.933-2.972.432.001.448.084.146.685-.512 1.016-.019 1.753 1.174 1.762.756.005.754.007 1.036.585.31.635.543.836.831.719.204-.083.207.04-.059-2.127-.397-3.229-2.144-4.098-4.555-2.269-.682.518-.832.503-1.437-.127-.908-.942-1.483-1.158-3.257-1.229-.845-.034-1.679-.123-1.85-.197a.7.7 0 0 0-.333-.075zm-57.246.924c-.394.007-.852.097-1.25.133.442 2.495.647 4.99.849 7.485 2.031-.379 4.662-.025 8.133 1.714 2.13 1.068 4.731 2.892 7.458 4.95 2.952 2.23 6.412 3.546 9.36 4.233 3.588.838 6.47.766 6.392.584-.159.029-1.293-6.12-1.145-7.435-4.965-.49-9.758-2.467-13.422-5.145-4.85-3.545-10.457-6.627-16.375-6.519m18.946.21v1.035h1.667v-1.036zm-54.678.204-2.636 2.954 2.868 2.92 2.436-2.976zm-.073 1.341 1.493 1.539-1.206 1.642-1.68-1.557zm37.17.242c.352.003.695.269 1.857.969.975.723 1.753 1.174 1.469.04.222-.326 1.301.736 2.574 1.405 1.534 1.321 1.54 1.003 1.739.347.206-.48.489-.156 1.715 1.065 1.61 1.603 1.465 1.606 1.787 1.206.367-.749.49-.741 1.8.88 1.365 1.636 1.654 1.985 1.944 1.285.45-.363.681-.011 2.533 1.858.91.976 1.124.825 1.295.168.177-.677.227-.525 1.764.786 1.78 1.531 1.956 1.644 2.03 1.113.117-.842.669-.543 2.501.872 1.11.853 1.53 1.09 1.767.88.242-.46-.603-1.344 1.188-.51l.492 2.793-.62-.19c-.38-.116-1.215-.42-.9.45.181.504-.27.444-1.66-.447-1.991-1.275-2.358-1.568-2.507-1.307-.263.955-.23 1.016-1.573-.115-1.564-1.275-1.878-1.627-2.096-1.192-.03.962-.465.767-1.923-.586-1.232-1.158-1.495-1.764-2.047-.877-.152.308-.304.23-.508.07-.717-.57-2.158-2.205-2.565-2.675-.32-.375-.503-.255-.766.056-.246.29-.265.2-1.06-.585-1.9-1.874-2.253-2.343-2.52-2.087-.216.44-.008 1.037-1.468-.2-1.83-1.418-2.625-2.047-2.501-1.118-.314.415-.094.497-1.926-.593-1.741-1.035-1.962-1.346-2.214-.99-.17.562-.755.36-.755.327l-.353-2.842.627.008s.603-.264.88-.265zm-13.97.239c-.14.44-1.1 2.974-1.113 9.428.116.152 2.381-2.331 2.491-4.645.104-2.193-1.374-4.79-1.378-4.783m31.548.179v1.177h1.666v-1.177zm-31.43.933c2.118 3.61-.216 7.015-.797 7.256 0-2.714.371-5.264.797-7.256m55.586 3.033c-3.482 2.36-2.917 8.745-1.208 10.38.126 0 1.222-6.896 1.208-10.38m-.477.786-.937 8.217c-1.217-1.45-1.433-5.77.937-8.217m21.959 1.387 1.839 2.489 1.635.13.364 1.796 2.387 2.09-2.39 1.743-.213 1.989-1.777.193-1.76 2.977-1.722-2.917-1.649-.19-.052-1.915-2.591-2.055 2.473-1.599.049-2.164 1.936.008zm-65.144.779c-1.17 5.975-3.96 10.065-7.899 12.814l.02.604-6.633 2.86c-1.453 7.29-4.066 14.402-9.544 21.073l1.528 3.338-7.41 2.738 10.607 19.56c.731 0-5.14 2.986-12.225 2.209 4.485 11.805 5.41 24.028 2.928 34.732l34.722-.156-26.536-55.992-.433-.912c-.369-.732 14.106 2.188 11.033 16.624-.043.335.065.377.24.239 2.813-2.6 21.501-9.806 36.425-.29l4.434-1.975c-2.11 7.943-4.51 13.408-8.553 18.197l.686 11.305c7.156-6.301 14.92-17.869 15.963-33.242 3.222-1.688 6.025-3.606 9.027-5.413l.398.138 1.944-1.256c-6.233-7.331-18.96-14.34-27.114-16.18l.481 2.484c-4.5-1.3-7.864-1.582-11.366-1.986l-.537-26.306-4.531-2.872-.142 29.018c-3.388.045-11.179 1.482-11.179 1.482l.35-2.48-3.568.79-.063-2.418 4.033-1.244 5.847-26.656zm.488.592 1.864.406-5.789 26.135s-3.247.964-3.446.83c-.259-4.9-.357-14.889-.357-14.889 5.713-5.12 6.607-8.746 7.728-12.483zm-39.73 1.918c.872-.012 1.81.67 1.87 1.285.15.379.274.543.51.577 1.46.217 1.506.634 1.548 1.54-.206 1.735.875.278 1.18-1.446.032-.18.014-1.498.014-1.498l1.788-.018s.06 1.375.086 1.594c.158 1.333.686 2.415 1.053 1.706 1.258-2.428 4.138-1.19 3.683 1.151-.112.554-.105.59.246 1.01.572.686.785 1.412.596 2.045-.184.617-.586.711-1.451.339-.407-.175-.9-.238-2.217-.28-1.864-.059-1.98-.097-2.706-.853l-.457-.477-.79.5c-1.315.831-2.51.863-3.9.096-.905-.498-1.432-1.693-1.573-3.557-.027-.99-.285-1.708-.856-1.944-.308-.312.035-.932.561-1.498.241-.187.524-.268.814-.272m104.233.283-2.456 3.293 2.92 2.81 2.72-3.44zm-56.893.473 3.402 2.094.437 25.934-3.846-.115zm-47.248.362c-.258.027-.096.474.094 1.155.17.609.213.988.159 1.412-.361 2.841 2.67 4.286 4.857 2.316.581-.717.676-.67 1.164.097.6.809 1.473 1.072 3.304.954.836-.055 1.39.425 1.753.108.262-.204.008-.746-.499-1.062-.31-.193-.32-.223-.26-.89.156-1.682-1.134-2.128-2.05-.708-.757 1.173-1.898.398-2.266-1.538-.219-1.49-.393-1.467-.558-.168-.178 1.58-2.113 3.292-2.885 2.514-.212-.23-.21-.172.007-.965.28-1.018.055-1.397-.977-1.66a.74.74 0 0 1-.43-.336c-.547-.91-.522-1.23-1.413-1.23zm104.386.604 1.56 1.445-1.359 1.724-1.659-1.37zm-56.07.924v1.225h1.454v-1.225zm0 2.47v1.288h1.454v-1.288zm8.764 1.482c1.63 6.511 3.274 13.017 4.912 19.527 1.552-.667 10.511-4.943 14.736-10.416-.16.014-3.841-3.856-5.13-6.366-4.226.749-9.08-.204-14.518-2.746zm-8.765.775v1.203h1.455v-1.203zm9.683.327c3.85 1.236 8.784 2.938 13.327 2.072 1.171 2.263 2.867 4.126 4.78 5.844-3.438 4.021-8.409 7.089-13.552 9.45zm36.554.47c.194 0 .39.08.579.26.609.583 1.079.784 2.324 1.003 2.006.35 3.536 1.698 3.97 3.494.182.754.283.795 1.282.525 3.785-1.024 6.703 2.35 5.803 6.854-.315 1.573-.411 1.761.027 2.384.962 1.116 1.171 1.13.118 2.113-.959.926-2.863.478-3.267-1.024-.386-.824-.38-.886-1.015-.995-2.47-.423-2.368-4.097-.041-4.522.194-.036.338.007.436-.041.66-.321-.72-2-1.86-1.743-1.4.316-2.096 1.28-2.647 2.793l-2.203-1.352c.552-1.23.958-2.813.478-3.792-.388-.826-.88-.858-1.029-.067-.353 1.86-2.504 2.416-3.914.901-.79-.846-.882-1.754-.302-2.98.375-.792.385-.85.225-1.184-.555-1.165.197-2.632 1.036-2.626zm-46.236 1.512v1.255l1.458-.007-.003-1.248zm46.507.104c-.448.003-.445.473-.031 1.043.368.4.44.585-.07.931-.637.636-.776 1.592-.335 2.32.66 1.095 2.187.485 2.012-.804-.122-.905.539-1.31 1.59-.969 1.53.496 2.258 2.332 1.656 4.183-.113.35-.34 1.163-.34 1.163l.453.294s.535-.92.745-1.199c1.737-2.296 5.842-1.132 5.384 1.738-.07.902-.067 1.025-.98.742-.607-.336-1.193.361-1.174 1.233.03.785.663 1.415 1.542 1.289.696-.14.87-.115.821.894.071.701.315 1.166.741 1.404 1.037.46 1.57-.174.742-1.106-.502-.565-.472-1.438-.156-2.257.377-.98.18-3.133-.398-4.347-.834-1.75-3.167-2.483-5.12-1.61-.893.514-.991.632-1.078-.267-.49-2.232-2.052-3.918-3.998-4.068-.749-.057-1.528-.497-2.006-.607m-46.507 2.28v1.159h1.458v-1.16zm0 2.265v1.278h1.455v-1.278zm0 2.492v1.278s.796-.024 1.455 0v-1.278zm47.515 2.049 1.593 2.533 1.764.127.208 2.045 2.674 1.791-2.318 1.56-.017 1.979-2.21.2-1.954 2.787-1.662-2.458-1.663.008-.392-2.195-2.945-1.605 3.021-1.852-.082-2.305 2.054-.015zM77.5 144.6v1.311h1.455V144.6zm0 2.402v1.297h1.455v-1.297zm46.621.965-2.282 3.267 3.076 2.734 2.446-3.304zM77.5 149.274v1.42h1.455v-1.42zm46.857.171 1.586 1.32-1.133 1.545-1.576-1.293zM77.5 151.897v1.188h1.455v-1.188zm-43.302.152c-2.805.014-5.458 4.899-6.093 7.212-.752 2.963-.864 8.324-.15 8.474 2.515-1.945 3.706-5.243 5.595-7.71.293 2.854.247 8.36.247 8.36s-1.118.632-1.72 1.631c-.435.831-.574 1.824-.203 2.748-1.398-.488-3.93.063-4.074 2.838.09 3.908 4.06 3.357 4.074 3.305-.085-.024-.781 4.157 2.74 4.6 1.264.16 3.487-.831 2.827-4.634 2.223.394 4.14-.922 4.164-3.223.028-1.576-1.085-2.93-3.003-2.939-.4-.001-1.244.194-1.244.194.027-.228.768-2.673-1.812-4.448l-.405-11.313s.89 1.043 1.288 1.438c1.715 1.697 2.834 2.552 4.812 3.673 1.926 1.091 1.688.822 1.355-1.252-.91-3.115-2.812-5.468-6.835-8.411-.517-.379-1.043-.547-1.562-.544zm.277.242.564 16-.835-.001-.717-15.984zm82.544.53.23.007c1.814.164 2.28 2.346 1.465 3.315-.323.383-.434.466-.267.7.779 1.062.344 2.738-.426 2.995-2.45.82-2.82-.621-2.813-2.316l-3.783-.153.024-2.37 4.171.09c-.315-1.076.288-2.223 1.4-2.269m-84.297.025h.046c.392.036-.012 1.163-1.105 2.88-.74 1.16-1.768 3.208-2.076 4.034-.673 1.808-1.126 5.05-.675 4.455.408-1.355.447-1.92.797-2.894.46-1.27 2.612-5.448 3.038-5.86.365-.351.459-.135.451 1.04-.019 2.647-1.185 5.431-3.966 8.691-.464.544-1.082 1.137-1.126 1.137-.268-.002-.26-.6-.256-1.859.018-5 1.744-9.463 4.4-11.384q.31-.224.474-.238zm2.817.231c1.22.384 3.41 2.49 4.313 3.572 1.045 1.213 2.446 4.572 2.2 5.089-.082.227-.258.191-.87-.179-3.882-2.35-6.662-5.247-5.934-6.184.204-.261 1.038.278 2.155 1.393.759.725 1.536 1.46 2.23 2.195 1.092 1.155 1.337 1.325.68.04-.591-1.152-2.265-3.087-4.29-4.73-.822-.668-1.01-1.206-.485-1.196zm81.72.674-.135.027c-.764.346-.453 1.41-.527 2.227l-4.199-.156-.024.625 3.938.231c.07.639-.24 2.017.268 2.25 1.102.493 1.704-1.035.768-1.952-.333-.318-.694-.459.232-.909.61-.56.706-1.655.184-2.141a.78.78 0 0 0-.506-.202zm-53.12.187-.211 1.672-2.436.66-.062-1.788zm28.721.592c8.991 2.604 18.986 8.517 25.476 15.194l-1.3.917c-6.743-6.698-15.64-11.783-23.812-14.308zm-15.491.257c14.805-.044 28.302 6.145 39.194 16.14l-1.78 1.208c-9.935-8.831-20.942-14.72-35.751-15.422-9.68-.46-20.726 2.21-31.61 8.65l-.811-1.583c10.572-6.2 20.952-8.964 30.758-8.992zm-1.164 2.399 5.823.182-.36 5.815-5.292-.187zm-6.263.413.821 5.61-5.068 1.017-1.438-5.625zm18.432.742 5.786 1.658-1.91 5.717-5.078-1.557zm-9.266.082c-.918 0-1.663.8-1.663 1.788 0 .987.745 1.788 1.663 1.788.919 0 1.663-.8 1.663-1.788s-.744-1.788-1.663-1.788m0 .618c.613 0 1.109.523 1.109 1.17s-.496 1.173-1.109 1.173-1.108-.526-1.108-1.173.495-1.17 1.108-1.17m-11.487.01c-.918 0-1.663.801-1.663 1.789s.745 1.788 1.663 1.788c.919 0 1.663-.8 1.663-1.788s-.744-1.788-1.663-1.788m0 .62c.613 0 1.109.522 1.109 1.169s-.496 1.173-1.109 1.173-1.109-.526-1.109-1.173.496-1.17 1.109-1.17m22.901.718c-.918 0-1.662.8-1.662 1.788s.744 1.788 1.662 1.788c.919 0 1.663-.8 1.663-1.788 0-.987-.744-1.788-1.663-1.788m-32.237.21L60 166.07l-4.908 2.138-1.84-5.405zm32.237.409c.613 0 1.109.522 1.109 1.17s-.496 1.173-1.109 1.173c-.612 0-1.108-.526-1.108-1.174s.497-1.17 1.108-1.17m9.617 1.311 5.207 2.958-2.692 5.23-4.853-2.72zm-43.593.473c-.918 0-1.662.8-1.662 1.788s.744 1.788 1.662 1.788c.919 0 1.663-.8 1.663-1.788s-.744-1.788-1.663-1.788m19.67.171.242 5.524-4.61.35-.839-5.49zm5.532.29 5.256.783-1.237 5.32-4.756-.824zm-25.202.157c.613 0 1.109.522 1.109 1.17 0 .646-.496 1.173-1.109 1.173-.612 0-1.108-.527-1.108-1.174s.496-1.17 1.108-1.17m17.217.715c-.918 0-1.662.8-1.662 1.788s.744 1.788 1.662 1.788c.919 0 1.663-.8 1.663-1.788s-.744-1.788-1.663-1.788m-8.396.224 1.36 5.375-5.068 1.56-1.555-5.17zm18.398.086c-.919 0-1.663.8-1.663 1.788 0 .987.744 1.788 1.663 1.788.918 0 1.662-.8 1.662-1.788s-.744-1.788-1.662-1.788m-10.002.308c.613 0 1.109.523 1.109 1.17s-.496 1.173-1.109 1.173c-.612 0-1.108-.526-1.108-1.173s.496-1.17 1.108-1.17m10.002.31c.612 0 1.108.522 1.108 1.169s-.496 1.173-1.108 1.173-1.109-.526-1.109-1.173.496-1.17 1.109-1.17m17.784.01c-.918 0-1.662.8-1.662 1.788s.744 1.788 1.662 1.788c.919 0 1.663-.8 1.663-1.788s-.744-1.788-1.663-1.788m-8.996.522 5.078 1.866-2.026 5.103-4.86-1.99zm8.996.097c.613 0 1.109.522 1.109 1.17 0 .646-.496 1.173-1.109 1.173-.612 0-1.108-.527-1.108-1.174s.496-1.17 1.108-1.17m-38.202.19c-.919 0-1.663.8-1.663 1.787 0 .988.744 1.788 1.663 1.788.918 0 1.662-.8 1.662-1.788s-.744-1.788-1.662-1.788m0 .618c.612 0 1.108.522 1.108 1.17 0 .646-.496 1.173-1.108 1.173s-1.109-.527-1.109-1.174.497-1.17 1.109-1.17m30.769 1.042c-.919 0-1.663.8-1.663 1.788s.744 1.788 1.663 1.788c.918 0 1.663-.8 1.663-1.788 0-.987-.745-1.788-1.663-1.788m0 .619c.612 0 1.108.522 1.108 1.17 0 .646-.496 1.173-1.108 1.173s-1.109-.527-1.109-1.174.496-1.17 1.109-1.17m-59.487.622c1.329.06 2.326 1.344 2.386 2.679.046 1.015-1.158 2.344-1.158 2.344l-1.401-1.395-1.346 1.333c-.227.081-1.272-1.83-.953-2.818.416-1.288 1.272-2.197 2.473-2.143zm75.505 0 4.022 3.539s-1.766 1.154-2.093 1.36q.06-.232.06-.485c0-.987-.745-1.788-1.663-1.788-.919 0-1.663.8-1.663 1.788 0 .847.55 1.558 1.285 1.743-.414.256-.963.586-.963.586l-2.124-1.915zm-6.367 9.458-1.78.785c-10.95-7.735-25.933-11.968-43.06-4.18l-.589-1.526c12.714-5.693 28.756-7.465 45.43 4.921m-.973-7.73 4.31 2.843-2.737 4.519-4.209-2.895zm-1.302 8.762-1.808.73c-13.368-9.236-27.617-8.744-40.347-3.208l-.197-1.297c14.99-6.979 30.036-4.758 42.352 3.774zm8.969-7.245c.613 0 1.109.522 1.109 1.17 0 .646-.496 1.173-1.109 1.173s-1.109-.527-1.109-1.174.496-1.17 1.109-1.17m-77.782 2.118-1.486 1.613 1.356 1.64s-.43.391-.742.574c-1.78 1.041-3.726-.603-3.633-2.38.136-2.587 3.035-3.82 4.504-1.447zm70.736-1.235c-.918 0-1.663.8-1.663 1.788s.745 1.788 1.663 1.788c.919 0 1.663-.8 1.663-1.788s-.744-1.788-1.663-1.788m-64.718.073c1.323.01 2.35 1.103 2.477 2.36.102 1.002-.383 1.964-1.428 2.645-1.417.925-3.064-.572-3.036-.664l1.195-1.27-1.437-1.58c-.042-.03.948-1.501 2.227-1.49zm-4.14.307 2.45 2.626-2.592 2.596-2.4-2.592zm64.59 6.988-1.375.678-1.875-1.214-.554 1.143 1.043.711-1.084.438c-12.49-7.546-26.603-5.36-35.985-.353 0 0 .081-.776.086-.776l1.022-.56-.38-1.39-.548.171-.042-1.539c13.396-6.485 28.595-5 39.693 2.69zm4.268-6.75c.613 0 1.109.523 1.109 1.17s-.496 1.173-1.109 1.173c-.612 0-1.108-.526-1.108-1.173s.496-1.17 1.108-1.17m-68.909.94-1.306 1.396 1.3 1.49 1.267-1.44zm40.884.308-1.71.082.09 1.501 1.67-.045zm1.168.008.03 1.5 1.553-.007-.008-1.482zm2.754.026-.077 1.494 1.542.074.111-1.486zm-6.651.19-1.753.205.194 1.509 1.66-.21zm9.523.022-.125 1.542 1.583.194.215-1.476zm-47.67.008.761.872-.758.812-.807-.85zm35.192.458-1.691.287.18 1.554 1.649-.35zm15.336 0-.281 1.438 1.573.407.256-1.468zm-18.108.63-1.42.406.308 1.512 1.5-.394zm20.806.06-.298 1.46 1.604.469.323-1.4zm-23.15.725-1.487.567.384 1.4 1.51-.547zm25.912.16-.496 1.405 1.39.6.613-1.275zm-28.365.824-1.41.622.581 1.39 1.338-.656zm-29.061.043 1.427 1.533 1.696-1.645c1.48 1.407 1.456 4.697-1.163 5.247-2.288.48-4.38-3.203-1.96-5.135m59.972.296-.545 1.289 1.535.726.53-1.24zm-43.774 8.27 19.365 35.392-3.062-.063-18.742-34.2zm-3.179 1.348 1.071 1.789c-2.097-1.795-5.179-.285-5.049 1.978.103 1.01.897 1.624.901.651-.095-1.016 1.245-1.902 2.217-1.855 1.795.025 2.89 2.505 1.653 3.74-.815.807-1.917.771-1.545-.335.058-.382.03-.52-.139-.685-.515-.505-1.465.153-1.233.875.152.476.197.593-.333.984-2.053 1.55-.622 4.607 1.864 3.214.508-.197.715-.226.946-.13 1.034.428 1.74-.538.759-1.04-.57-.291-.585-.789-.035-1.184 1.174-.843 3.003.475 2.997 2.16-.005 1.193-1.469 2.076-2.872 1.729-.835-.206-.935.402-.17 1.032 1.481 1.221 3.699.209 4.361-1.99.208-.69.178-.835.178-.835l1.976 3.508s-.613-.312-.983-.433c-1.86-.61-3.946.686-3.953 2.458-.004.835.456 1.158.713.503.6-1.525 1.902-2.117 3.24-1.475 1.237.594 1.803 1.942 1.32 3.144-.506 1.259-2.204 1.63-2.013.44.092-.568-.23-.914-.797-.857-.214.022-.49.691-.416 1.013.07.301.02.374-.707.983-1.726 1.448-.398 3.81 1.757 3.126.362-.116.496-.105.821.063.78.404 1.598.153 1.6-.491.002-.443-.184-.613-.672-.615-.739-.003-.579-.902.239-1.34 2.05-1.102 4.145 1.68 2.896 3.847-.536.931-.876 1.027-2.792.801-.31-.036-.449.192-.265.462.567.864 2.253 1.137 3.236.66 1.06-.517 1.707-1.82 1.782-3.21l2.166 4.07c-1.685-1.896-4.592-1.171-5.06 1.543-.002.688.582 1.045.784.48.876-2.449 4.208-1.698 4.199.946-.002.426-.08.667-.333 1.04-.612 1.267-2.175 1.581-1.892.443.126-.352-.124-.734-.554-.845-.423-.11-.693.272-.682.964l.011.678c-.78.353-1.277 1.045-1.45 2.069l-15.169.036c1.804-11.305 1.38-21.514-2.068-31.167-.298-.838-.725-2.055-.725-2.055l2.677.077c.646.602 3.086.368 4.04-.563zm2.575 4.44 1.566 3.025c-.648-.4-1.308-.664-2.317-.756.526-.84.568-1.593.75-2.27zm-4.118 3.215c.57 0 1.032.497 1.032 1.11s-.461 1.11-1.032 1.11c-.57 0-1.036-.496-1.036-1.11 0-.613.465-1.11 1.036-1.11m10.801 9.04 1.509 2.888c-.735-.336-1.354-.664-2.502-.696.418-.525.778-1.405.993-2.192m-4.351 3.094c.54 0 .98.472.98 1.054s-.44 1.05-.98 1.05c-.542 0-.977-.468-.977-1.05s.435-1.054.977-1.054m10.932 9 2.228 4.249c-.877-.54-1.82-1.223-3.003-1.092.563-1.295.87-2 .775-3.158zm-2.964 5.301-2.389.009c.478-2.246 2.41-1.662 2.39-.009m2.261-1.082c.813.044 1.513.342 1.952 1.104l-3.006.009s.02-1.118 1.054-1.113"/></svg>